%TF.GenerationSoftware,KiCad,Pcbnew,9.0.1*%
%TF.CreationDate,2026-04-05T14:06:20-07:00*%
%TF.ProjectId,V67_cycletron,5636375f-6379-4636-9c65-74726f6e2e6b,rev?*%
%TF.SameCoordinates,Original*%
%TF.FileFunction,Legend,Top*%
%TF.FilePolarity,Positive*%
%FSLAX46Y46*%
G04 Gerber Fmt 4.6, Leading zero omitted, Abs format (unit mm)*
G04 Created by KiCad (PCBNEW 9.0.1) date 2026-04-05 14:06:20*
%MOMM*%
%LPD*%
G01*
G04 APERTURE LIST*
%ADD10C,0.150000*%
%ADD11C,0.152400*%
%ADD12C,0.508000*%
%ADD13C,0.120000*%
G04 APERTURE END LIST*
D10*
X191238095Y-107954819D02*
X191809523Y-107954819D01*
X191523809Y-108954819D02*
X191523809Y-107954819D01*
X192142857Y-108954819D02*
X192142857Y-108288152D01*
X192142857Y-108478628D02*
X192190476Y-108383390D01*
X192190476Y-108383390D02*
X192238095Y-108335771D01*
X192238095Y-108335771D02*
X192333333Y-108288152D01*
X192333333Y-108288152D02*
X192428571Y-108288152D01*
X193190476Y-108954819D02*
X193190476Y-108431009D01*
X193190476Y-108431009D02*
X193142857Y-108335771D01*
X193142857Y-108335771D02*
X193047619Y-108288152D01*
X193047619Y-108288152D02*
X192857143Y-108288152D01*
X192857143Y-108288152D02*
X192761905Y-108335771D01*
X193190476Y-108907200D02*
X193095238Y-108954819D01*
X193095238Y-108954819D02*
X192857143Y-108954819D01*
X192857143Y-108954819D02*
X192761905Y-108907200D01*
X192761905Y-108907200D02*
X192714286Y-108811961D01*
X192714286Y-108811961D02*
X192714286Y-108716723D01*
X192714286Y-108716723D02*
X192761905Y-108621485D01*
X192761905Y-108621485D02*
X192857143Y-108573866D01*
X192857143Y-108573866D02*
X193095238Y-108573866D01*
X193095238Y-108573866D02*
X193190476Y-108526247D01*
X193666667Y-108288152D02*
X193666667Y-108954819D01*
X193666667Y-108383390D02*
X193714286Y-108335771D01*
X193714286Y-108335771D02*
X193809524Y-108288152D01*
X193809524Y-108288152D02*
X193952381Y-108288152D01*
X193952381Y-108288152D02*
X194047619Y-108335771D01*
X194047619Y-108335771D02*
X194095238Y-108431009D01*
X194095238Y-108431009D02*
X194095238Y-108954819D01*
X194523810Y-108907200D02*
X194619048Y-108954819D01*
X194619048Y-108954819D02*
X194809524Y-108954819D01*
X194809524Y-108954819D02*
X194904762Y-108907200D01*
X194904762Y-108907200D02*
X194952381Y-108811961D01*
X194952381Y-108811961D02*
X194952381Y-108764342D01*
X194952381Y-108764342D02*
X194904762Y-108669104D01*
X194904762Y-108669104D02*
X194809524Y-108621485D01*
X194809524Y-108621485D02*
X194666667Y-108621485D01*
X194666667Y-108621485D02*
X194571429Y-108573866D01*
X194571429Y-108573866D02*
X194523810Y-108478628D01*
X194523810Y-108478628D02*
X194523810Y-108431009D01*
X194523810Y-108431009D02*
X194571429Y-108335771D01*
X194571429Y-108335771D02*
X194666667Y-108288152D01*
X194666667Y-108288152D02*
X194809524Y-108288152D01*
X194809524Y-108288152D02*
X194904762Y-108335771D01*
X195142858Y-109050057D02*
X195904762Y-109050057D01*
X196047620Y-107954819D02*
X196666667Y-107954819D01*
X196666667Y-107954819D02*
X196333334Y-108335771D01*
X196333334Y-108335771D02*
X196476191Y-108335771D01*
X196476191Y-108335771D02*
X196571429Y-108383390D01*
X196571429Y-108383390D02*
X196619048Y-108431009D01*
X196619048Y-108431009D02*
X196666667Y-108526247D01*
X196666667Y-108526247D02*
X196666667Y-108764342D01*
X196666667Y-108764342D02*
X196619048Y-108859580D01*
X196619048Y-108859580D02*
X196571429Y-108907200D01*
X196571429Y-108907200D02*
X196476191Y-108954819D01*
X196476191Y-108954819D02*
X196190477Y-108954819D01*
X196190477Y-108954819D02*
X196095239Y-108907200D01*
X196095239Y-108907200D02*
X196047620Y-108859580D01*
X178238095Y-108454819D02*
X178809523Y-108454819D01*
X178523809Y-109454819D02*
X178523809Y-108454819D01*
X179142857Y-109454819D02*
X179142857Y-108788152D01*
X179142857Y-108978628D02*
X179190476Y-108883390D01*
X179190476Y-108883390D02*
X179238095Y-108835771D01*
X179238095Y-108835771D02*
X179333333Y-108788152D01*
X179333333Y-108788152D02*
X179428571Y-108788152D01*
X180190476Y-109454819D02*
X180190476Y-108931009D01*
X180190476Y-108931009D02*
X180142857Y-108835771D01*
X180142857Y-108835771D02*
X180047619Y-108788152D01*
X180047619Y-108788152D02*
X179857143Y-108788152D01*
X179857143Y-108788152D02*
X179761905Y-108835771D01*
X180190476Y-109407200D02*
X180095238Y-109454819D01*
X180095238Y-109454819D02*
X179857143Y-109454819D01*
X179857143Y-109454819D02*
X179761905Y-109407200D01*
X179761905Y-109407200D02*
X179714286Y-109311961D01*
X179714286Y-109311961D02*
X179714286Y-109216723D01*
X179714286Y-109216723D02*
X179761905Y-109121485D01*
X179761905Y-109121485D02*
X179857143Y-109073866D01*
X179857143Y-109073866D02*
X180095238Y-109073866D01*
X180095238Y-109073866D02*
X180190476Y-109026247D01*
X180666667Y-108788152D02*
X180666667Y-109454819D01*
X180666667Y-108883390D02*
X180714286Y-108835771D01*
X180714286Y-108835771D02*
X180809524Y-108788152D01*
X180809524Y-108788152D02*
X180952381Y-108788152D01*
X180952381Y-108788152D02*
X181047619Y-108835771D01*
X181047619Y-108835771D02*
X181095238Y-108931009D01*
X181095238Y-108931009D02*
X181095238Y-109454819D01*
X181523810Y-109407200D02*
X181619048Y-109454819D01*
X181619048Y-109454819D02*
X181809524Y-109454819D01*
X181809524Y-109454819D02*
X181904762Y-109407200D01*
X181904762Y-109407200D02*
X181952381Y-109311961D01*
X181952381Y-109311961D02*
X181952381Y-109264342D01*
X181952381Y-109264342D02*
X181904762Y-109169104D01*
X181904762Y-109169104D02*
X181809524Y-109121485D01*
X181809524Y-109121485D02*
X181666667Y-109121485D01*
X181666667Y-109121485D02*
X181571429Y-109073866D01*
X181571429Y-109073866D02*
X181523810Y-108978628D01*
X181523810Y-108978628D02*
X181523810Y-108931009D01*
X181523810Y-108931009D02*
X181571429Y-108835771D01*
X181571429Y-108835771D02*
X181666667Y-108788152D01*
X181666667Y-108788152D02*
X181809524Y-108788152D01*
X181809524Y-108788152D02*
X181904762Y-108835771D01*
X182142858Y-109550057D02*
X182904762Y-109550057D01*
X183095239Y-108550057D02*
X183142858Y-108502438D01*
X183142858Y-108502438D02*
X183238096Y-108454819D01*
X183238096Y-108454819D02*
X183476191Y-108454819D01*
X183476191Y-108454819D02*
X183571429Y-108502438D01*
X183571429Y-108502438D02*
X183619048Y-108550057D01*
X183619048Y-108550057D02*
X183666667Y-108645295D01*
X183666667Y-108645295D02*
X183666667Y-108740533D01*
X183666667Y-108740533D02*
X183619048Y-108883390D01*
X183619048Y-108883390D02*
X183047620Y-109454819D01*
X183047620Y-109454819D02*
X183666667Y-109454819D01*
X164738095Y-108454819D02*
X165309523Y-108454819D01*
X165023809Y-109454819D02*
X165023809Y-108454819D01*
X165642857Y-109454819D02*
X165642857Y-108788152D01*
X165642857Y-108978628D02*
X165690476Y-108883390D01*
X165690476Y-108883390D02*
X165738095Y-108835771D01*
X165738095Y-108835771D02*
X165833333Y-108788152D01*
X165833333Y-108788152D02*
X165928571Y-108788152D01*
X166690476Y-109454819D02*
X166690476Y-108931009D01*
X166690476Y-108931009D02*
X166642857Y-108835771D01*
X166642857Y-108835771D02*
X166547619Y-108788152D01*
X166547619Y-108788152D02*
X166357143Y-108788152D01*
X166357143Y-108788152D02*
X166261905Y-108835771D01*
X166690476Y-109407200D02*
X166595238Y-109454819D01*
X166595238Y-109454819D02*
X166357143Y-109454819D01*
X166357143Y-109454819D02*
X166261905Y-109407200D01*
X166261905Y-109407200D02*
X166214286Y-109311961D01*
X166214286Y-109311961D02*
X166214286Y-109216723D01*
X166214286Y-109216723D02*
X166261905Y-109121485D01*
X166261905Y-109121485D02*
X166357143Y-109073866D01*
X166357143Y-109073866D02*
X166595238Y-109073866D01*
X166595238Y-109073866D02*
X166690476Y-109026247D01*
X167166667Y-108788152D02*
X167166667Y-109454819D01*
X167166667Y-108883390D02*
X167214286Y-108835771D01*
X167214286Y-108835771D02*
X167309524Y-108788152D01*
X167309524Y-108788152D02*
X167452381Y-108788152D01*
X167452381Y-108788152D02*
X167547619Y-108835771D01*
X167547619Y-108835771D02*
X167595238Y-108931009D01*
X167595238Y-108931009D02*
X167595238Y-109454819D01*
X168023810Y-109407200D02*
X168119048Y-109454819D01*
X168119048Y-109454819D02*
X168309524Y-109454819D01*
X168309524Y-109454819D02*
X168404762Y-109407200D01*
X168404762Y-109407200D02*
X168452381Y-109311961D01*
X168452381Y-109311961D02*
X168452381Y-109264342D01*
X168452381Y-109264342D02*
X168404762Y-109169104D01*
X168404762Y-109169104D02*
X168309524Y-109121485D01*
X168309524Y-109121485D02*
X168166667Y-109121485D01*
X168166667Y-109121485D02*
X168071429Y-109073866D01*
X168071429Y-109073866D02*
X168023810Y-108978628D01*
X168023810Y-108978628D02*
X168023810Y-108931009D01*
X168023810Y-108931009D02*
X168071429Y-108835771D01*
X168071429Y-108835771D02*
X168166667Y-108788152D01*
X168166667Y-108788152D02*
X168309524Y-108788152D01*
X168309524Y-108788152D02*
X168404762Y-108835771D01*
X168642858Y-109550057D02*
X169404762Y-109550057D01*
X170166667Y-109454819D02*
X169595239Y-109454819D01*
X169880953Y-109454819D02*
X169880953Y-108454819D01*
X169880953Y-108454819D02*
X169785715Y-108597676D01*
X169785715Y-108597676D02*
X169690477Y-108692914D01*
X169690477Y-108692914D02*
X169595239Y-108740533D01*
X135223333Y-30885180D02*
X135223333Y-30170895D01*
X135223333Y-30170895D02*
X135270952Y-30028038D01*
X135270952Y-30028038D02*
X135366190Y-29932800D01*
X135366190Y-29932800D02*
X135509047Y-29885180D01*
X135509047Y-29885180D02*
X135604285Y-29885180D01*
X134223333Y-29885180D02*
X134794761Y-29885180D01*
X134509047Y-29885180D02*
X134509047Y-30885180D01*
X134509047Y-30885180D02*
X134604285Y-30742323D01*
X134604285Y-30742323D02*
X134699523Y-30647085D01*
X134699523Y-30647085D02*
X134794761Y-30599466D01*
X118904761Y-22431009D02*
X119047618Y-22478628D01*
X119047618Y-22478628D02*
X119095237Y-22526247D01*
X119095237Y-22526247D02*
X119142856Y-22621485D01*
X119142856Y-22621485D02*
X119142856Y-22764342D01*
X119142856Y-22764342D02*
X119095237Y-22859580D01*
X119095237Y-22859580D02*
X119047618Y-22907200D01*
X119047618Y-22907200D02*
X118952380Y-22954819D01*
X118952380Y-22954819D02*
X118571428Y-22954819D01*
X118571428Y-22954819D02*
X118571428Y-21954819D01*
X118571428Y-21954819D02*
X118904761Y-21954819D01*
X118904761Y-21954819D02*
X118999999Y-22002438D01*
X118999999Y-22002438D02*
X119047618Y-22050057D01*
X119047618Y-22050057D02*
X119095237Y-22145295D01*
X119095237Y-22145295D02*
X119095237Y-22240533D01*
X119095237Y-22240533D02*
X119047618Y-22335771D01*
X119047618Y-22335771D02*
X118999999Y-22383390D01*
X118999999Y-22383390D02*
X118904761Y-22431009D01*
X118904761Y-22431009D02*
X118571428Y-22431009D01*
X119714285Y-22954819D02*
X119619047Y-22907200D01*
X119619047Y-22907200D02*
X119571428Y-22859580D01*
X119571428Y-22859580D02*
X119523809Y-22764342D01*
X119523809Y-22764342D02*
X119523809Y-22478628D01*
X119523809Y-22478628D02*
X119571428Y-22383390D01*
X119571428Y-22383390D02*
X119619047Y-22335771D01*
X119619047Y-22335771D02*
X119714285Y-22288152D01*
X119714285Y-22288152D02*
X119857142Y-22288152D01*
X119857142Y-22288152D02*
X119952380Y-22335771D01*
X119952380Y-22335771D02*
X119999999Y-22383390D01*
X119999999Y-22383390D02*
X120047618Y-22478628D01*
X120047618Y-22478628D02*
X120047618Y-22764342D01*
X120047618Y-22764342D02*
X119999999Y-22859580D01*
X119999999Y-22859580D02*
X119952380Y-22907200D01*
X119952380Y-22907200D02*
X119857142Y-22954819D01*
X119857142Y-22954819D02*
X119714285Y-22954819D01*
X120619047Y-22954819D02*
X120523809Y-22907200D01*
X120523809Y-22907200D02*
X120476190Y-22859580D01*
X120476190Y-22859580D02*
X120428571Y-22764342D01*
X120428571Y-22764342D02*
X120428571Y-22478628D01*
X120428571Y-22478628D02*
X120476190Y-22383390D01*
X120476190Y-22383390D02*
X120523809Y-22335771D01*
X120523809Y-22335771D02*
X120619047Y-22288152D01*
X120619047Y-22288152D02*
X120761904Y-22288152D01*
X120761904Y-22288152D02*
X120857142Y-22335771D01*
X120857142Y-22335771D02*
X120904761Y-22383390D01*
X120904761Y-22383390D02*
X120952380Y-22478628D01*
X120952380Y-22478628D02*
X120952380Y-22764342D01*
X120952380Y-22764342D02*
X120904761Y-22859580D01*
X120904761Y-22859580D02*
X120857142Y-22907200D01*
X120857142Y-22907200D02*
X120761904Y-22954819D01*
X120761904Y-22954819D02*
X120619047Y-22954819D01*
X121238095Y-22288152D02*
X121619047Y-22288152D01*
X121380952Y-21954819D02*
X121380952Y-22811961D01*
X121380952Y-22811961D02*
X121428571Y-22907200D01*
X121428571Y-22907200D02*
X121523809Y-22954819D01*
X121523809Y-22954819D02*
X121619047Y-22954819D01*
X122476190Y-22954819D02*
X121904762Y-22954819D01*
X122190476Y-22954819D02*
X122190476Y-21954819D01*
X122190476Y-21954819D02*
X122095238Y-22097676D01*
X122095238Y-22097676D02*
X122000000Y-22192914D01*
X122000000Y-22192914D02*
X121904762Y-22240533D01*
X111804819Y-34666666D02*
X111328628Y-34999999D01*
X111804819Y-35238094D02*
X110804819Y-35238094D01*
X110804819Y-35238094D02*
X110804819Y-34857142D01*
X110804819Y-34857142D02*
X110852438Y-34761904D01*
X110852438Y-34761904D02*
X110900057Y-34714285D01*
X110900057Y-34714285D02*
X110995295Y-34666666D01*
X110995295Y-34666666D02*
X111138152Y-34666666D01*
X111138152Y-34666666D02*
X111233390Y-34714285D01*
X111233390Y-34714285D02*
X111281009Y-34761904D01*
X111281009Y-34761904D02*
X111328628Y-34857142D01*
X111328628Y-34857142D02*
X111328628Y-35238094D01*
X111804819Y-33714285D02*
X111804819Y-34285713D01*
X111804819Y-33999999D02*
X110804819Y-33999999D01*
X110804819Y-33999999D02*
X110947676Y-34095237D01*
X110947676Y-34095237D02*
X111042914Y-34190475D01*
X111042914Y-34190475D02*
X111090533Y-34285713D01*
X174524819Y-55680476D02*
X173524819Y-55680476D01*
X173524819Y-55680476D02*
X174239104Y-55347143D01*
X174239104Y-55347143D02*
X173524819Y-55013810D01*
X173524819Y-55013810D02*
X174524819Y-55013810D01*
X174524819Y-54394762D02*
X174477200Y-54490000D01*
X174477200Y-54490000D02*
X174429580Y-54537619D01*
X174429580Y-54537619D02*
X174334342Y-54585238D01*
X174334342Y-54585238D02*
X174048628Y-54585238D01*
X174048628Y-54585238D02*
X173953390Y-54537619D01*
X173953390Y-54537619D02*
X173905771Y-54490000D01*
X173905771Y-54490000D02*
X173858152Y-54394762D01*
X173858152Y-54394762D02*
X173858152Y-54251905D01*
X173858152Y-54251905D02*
X173905771Y-54156667D01*
X173905771Y-54156667D02*
X173953390Y-54109048D01*
X173953390Y-54109048D02*
X174048628Y-54061429D01*
X174048628Y-54061429D02*
X174334342Y-54061429D01*
X174334342Y-54061429D02*
X174429580Y-54109048D01*
X174429580Y-54109048D02*
X174477200Y-54156667D01*
X174477200Y-54156667D02*
X174524819Y-54251905D01*
X174524819Y-54251905D02*
X174524819Y-54394762D01*
X173858152Y-53775714D02*
X173858152Y-53394762D01*
X173524819Y-53632857D02*
X174381961Y-53632857D01*
X174381961Y-53632857D02*
X174477200Y-53585238D01*
X174477200Y-53585238D02*
X174524819Y-53490000D01*
X174524819Y-53490000D02*
X174524819Y-53394762D01*
X174524819Y-52918571D02*
X174477200Y-53013809D01*
X174477200Y-53013809D02*
X174429580Y-53061428D01*
X174429580Y-53061428D02*
X174334342Y-53109047D01*
X174334342Y-53109047D02*
X174048628Y-53109047D01*
X174048628Y-53109047D02*
X173953390Y-53061428D01*
X173953390Y-53061428D02*
X173905771Y-53013809D01*
X173905771Y-53013809D02*
X173858152Y-52918571D01*
X173858152Y-52918571D02*
X173858152Y-52775714D01*
X173858152Y-52775714D02*
X173905771Y-52680476D01*
X173905771Y-52680476D02*
X173953390Y-52632857D01*
X173953390Y-52632857D02*
X174048628Y-52585238D01*
X174048628Y-52585238D02*
X174334342Y-52585238D01*
X174334342Y-52585238D02*
X174429580Y-52632857D01*
X174429580Y-52632857D02*
X174477200Y-52680476D01*
X174477200Y-52680476D02*
X174524819Y-52775714D01*
X174524819Y-52775714D02*
X174524819Y-52918571D01*
X174524819Y-52156666D02*
X173858152Y-52156666D01*
X174048628Y-52156666D02*
X173953390Y-52109047D01*
X173953390Y-52109047D02*
X173905771Y-52061428D01*
X173905771Y-52061428D02*
X173858152Y-51966190D01*
X173858152Y-51966190D02*
X173858152Y-51870952D01*
X174620057Y-51775714D02*
X174620057Y-51013809D01*
X173620057Y-50823332D02*
X173572438Y-50775713D01*
X173572438Y-50775713D02*
X173524819Y-50680475D01*
X173524819Y-50680475D02*
X173524819Y-50442380D01*
X173524819Y-50442380D02*
X173572438Y-50347142D01*
X173572438Y-50347142D02*
X173620057Y-50299523D01*
X173620057Y-50299523D02*
X173715295Y-50251904D01*
X173715295Y-50251904D02*
X173810533Y-50251904D01*
X173810533Y-50251904D02*
X173953390Y-50299523D01*
X173953390Y-50299523D02*
X174524819Y-50870951D01*
X174524819Y-50870951D02*
X174524819Y-50251904D01*
X187454819Y-71809523D02*
X186454819Y-71809523D01*
X186454819Y-71809523D02*
X187169104Y-71476190D01*
X187169104Y-71476190D02*
X186454819Y-71142857D01*
X186454819Y-71142857D02*
X187454819Y-71142857D01*
X187454819Y-70523809D02*
X187407200Y-70619047D01*
X187407200Y-70619047D02*
X187359580Y-70666666D01*
X187359580Y-70666666D02*
X187264342Y-70714285D01*
X187264342Y-70714285D02*
X186978628Y-70714285D01*
X186978628Y-70714285D02*
X186883390Y-70666666D01*
X186883390Y-70666666D02*
X186835771Y-70619047D01*
X186835771Y-70619047D02*
X186788152Y-70523809D01*
X186788152Y-70523809D02*
X186788152Y-70380952D01*
X186788152Y-70380952D02*
X186835771Y-70285714D01*
X186835771Y-70285714D02*
X186883390Y-70238095D01*
X186883390Y-70238095D02*
X186978628Y-70190476D01*
X186978628Y-70190476D02*
X187264342Y-70190476D01*
X187264342Y-70190476D02*
X187359580Y-70238095D01*
X187359580Y-70238095D02*
X187407200Y-70285714D01*
X187407200Y-70285714D02*
X187454819Y-70380952D01*
X187454819Y-70380952D02*
X187454819Y-70523809D01*
X186788152Y-69904761D02*
X186788152Y-69523809D01*
X186454819Y-69761904D02*
X187311961Y-69761904D01*
X187311961Y-69761904D02*
X187407200Y-69714285D01*
X187407200Y-69714285D02*
X187454819Y-69619047D01*
X187454819Y-69619047D02*
X187454819Y-69523809D01*
X187454819Y-69047618D02*
X187407200Y-69142856D01*
X187407200Y-69142856D02*
X187359580Y-69190475D01*
X187359580Y-69190475D02*
X187264342Y-69238094D01*
X187264342Y-69238094D02*
X186978628Y-69238094D01*
X186978628Y-69238094D02*
X186883390Y-69190475D01*
X186883390Y-69190475D02*
X186835771Y-69142856D01*
X186835771Y-69142856D02*
X186788152Y-69047618D01*
X186788152Y-69047618D02*
X186788152Y-68904761D01*
X186788152Y-68904761D02*
X186835771Y-68809523D01*
X186835771Y-68809523D02*
X186883390Y-68761904D01*
X186883390Y-68761904D02*
X186978628Y-68714285D01*
X186978628Y-68714285D02*
X187264342Y-68714285D01*
X187264342Y-68714285D02*
X187359580Y-68761904D01*
X187359580Y-68761904D02*
X187407200Y-68809523D01*
X187407200Y-68809523D02*
X187454819Y-68904761D01*
X187454819Y-68904761D02*
X187454819Y-69047618D01*
X187454819Y-68285713D02*
X186788152Y-68285713D01*
X186978628Y-68285713D02*
X186883390Y-68238094D01*
X186883390Y-68238094D02*
X186835771Y-68190475D01*
X186835771Y-68190475D02*
X186788152Y-68095237D01*
X186788152Y-68095237D02*
X186788152Y-67999999D01*
X186550057Y-67714284D02*
X186502438Y-67666665D01*
X186502438Y-67666665D02*
X186454819Y-67571427D01*
X186454819Y-67571427D02*
X186454819Y-67333332D01*
X186454819Y-67333332D02*
X186502438Y-67238094D01*
X186502438Y-67238094D02*
X186550057Y-67190475D01*
X186550057Y-67190475D02*
X186645295Y-67142856D01*
X186645295Y-67142856D02*
X186740533Y-67142856D01*
X186740533Y-67142856D02*
X186883390Y-67190475D01*
X186883390Y-67190475D02*
X187454819Y-67761903D01*
X187454819Y-67761903D02*
X187454819Y-67142856D01*
X140604819Y-34166666D02*
X140128628Y-34499999D01*
X140604819Y-34738094D02*
X139604819Y-34738094D01*
X139604819Y-34738094D02*
X139604819Y-34357142D01*
X139604819Y-34357142D02*
X139652438Y-34261904D01*
X139652438Y-34261904D02*
X139700057Y-34214285D01*
X139700057Y-34214285D02*
X139795295Y-34166666D01*
X139795295Y-34166666D02*
X139938152Y-34166666D01*
X139938152Y-34166666D02*
X140033390Y-34214285D01*
X140033390Y-34214285D02*
X140081009Y-34261904D01*
X140081009Y-34261904D02*
X140128628Y-34357142D01*
X140128628Y-34357142D02*
X140128628Y-34738094D01*
X139604819Y-33833332D02*
X139604819Y-33214285D01*
X139604819Y-33214285D02*
X139985771Y-33547618D01*
X139985771Y-33547618D02*
X139985771Y-33404761D01*
X139985771Y-33404761D02*
X140033390Y-33309523D01*
X140033390Y-33309523D02*
X140081009Y-33261904D01*
X140081009Y-33261904D02*
X140176247Y-33214285D01*
X140176247Y-33214285D02*
X140414342Y-33214285D01*
X140414342Y-33214285D02*
X140509580Y-33261904D01*
X140509580Y-33261904D02*
X140557200Y-33309523D01*
X140557200Y-33309523D02*
X140604819Y-33404761D01*
X140604819Y-33404761D02*
X140604819Y-33690475D01*
X140604819Y-33690475D02*
X140557200Y-33785713D01*
X140557200Y-33785713D02*
X140509580Y-33833332D01*
X169523809Y-96638152D02*
X169904761Y-96638152D01*
X169666666Y-96304819D02*
X169666666Y-97161961D01*
X169666666Y-97161961D02*
X169714285Y-97257200D01*
X169714285Y-97257200D02*
X169809523Y-97304819D01*
X169809523Y-97304819D02*
X169904761Y-97304819D01*
X170238095Y-97304819D02*
X170238095Y-96638152D01*
X170238095Y-96828628D02*
X170285714Y-96733390D01*
X170285714Y-96733390D02*
X170333333Y-96685771D01*
X170333333Y-96685771D02*
X170428571Y-96638152D01*
X170428571Y-96638152D02*
X170523809Y-96638152D01*
X171380952Y-97304819D02*
X170809524Y-97304819D01*
X171095238Y-97304819D02*
X171095238Y-96304819D01*
X171095238Y-96304819D02*
X171000000Y-96447676D01*
X171000000Y-96447676D02*
X170904762Y-96542914D01*
X170904762Y-96542914D02*
X170809524Y-96590533D01*
X177023809Y-96638152D02*
X177404761Y-96638152D01*
X177166666Y-96304819D02*
X177166666Y-97161961D01*
X177166666Y-97161961D02*
X177214285Y-97257200D01*
X177214285Y-97257200D02*
X177309523Y-97304819D01*
X177309523Y-97304819D02*
X177404761Y-97304819D01*
X177738095Y-97304819D02*
X177738095Y-96638152D01*
X177738095Y-96828628D02*
X177785714Y-96733390D01*
X177785714Y-96733390D02*
X177833333Y-96685771D01*
X177833333Y-96685771D02*
X177928571Y-96638152D01*
X177928571Y-96638152D02*
X178023809Y-96638152D01*
X178309524Y-96400057D02*
X178357143Y-96352438D01*
X178357143Y-96352438D02*
X178452381Y-96304819D01*
X178452381Y-96304819D02*
X178690476Y-96304819D01*
X178690476Y-96304819D02*
X178785714Y-96352438D01*
X178785714Y-96352438D02*
X178833333Y-96400057D01*
X178833333Y-96400057D02*
X178880952Y-96495295D01*
X178880952Y-96495295D02*
X178880952Y-96590533D01*
X178880952Y-96590533D02*
X178833333Y-96733390D01*
X178833333Y-96733390D02*
X178261905Y-97304819D01*
X178261905Y-97304819D02*
X178880952Y-97304819D01*
X141809523Y-108454819D02*
X142142856Y-109454819D01*
X142142856Y-109454819D02*
X142476189Y-108454819D01*
X142952380Y-109454819D02*
X142857142Y-109407200D01*
X142857142Y-109407200D02*
X142809523Y-109359580D01*
X142809523Y-109359580D02*
X142761904Y-109264342D01*
X142761904Y-109264342D02*
X142761904Y-108978628D01*
X142761904Y-108978628D02*
X142809523Y-108883390D01*
X142809523Y-108883390D02*
X142857142Y-108835771D01*
X142857142Y-108835771D02*
X142952380Y-108788152D01*
X142952380Y-108788152D02*
X143095237Y-108788152D01*
X143095237Y-108788152D02*
X143190475Y-108835771D01*
X143190475Y-108835771D02*
X143238094Y-108883390D01*
X143238094Y-108883390D02*
X143285713Y-108978628D01*
X143285713Y-108978628D02*
X143285713Y-109264342D01*
X143285713Y-109264342D02*
X143238094Y-109359580D01*
X143238094Y-109359580D02*
X143190475Y-109407200D01*
X143190475Y-109407200D02*
X143095237Y-109454819D01*
X143095237Y-109454819D02*
X142952380Y-109454819D01*
X143857142Y-109454819D02*
X143761904Y-109407200D01*
X143761904Y-109407200D02*
X143714285Y-109311961D01*
X143714285Y-109311961D02*
X143714285Y-108454819D01*
X144095238Y-108788152D02*
X144476190Y-108788152D01*
X144238095Y-108454819D02*
X144238095Y-109311961D01*
X144238095Y-109311961D02*
X144285714Y-109407200D01*
X144285714Y-109407200D02*
X144380952Y-109454819D01*
X144380952Y-109454819D02*
X144476190Y-109454819D01*
X145238095Y-109454819D02*
X145238095Y-108931009D01*
X145238095Y-108931009D02*
X145190476Y-108835771D01*
X145190476Y-108835771D02*
X145095238Y-108788152D01*
X145095238Y-108788152D02*
X144904762Y-108788152D01*
X144904762Y-108788152D02*
X144809524Y-108835771D01*
X145238095Y-109407200D02*
X145142857Y-109454819D01*
X145142857Y-109454819D02*
X144904762Y-109454819D01*
X144904762Y-109454819D02*
X144809524Y-109407200D01*
X144809524Y-109407200D02*
X144761905Y-109311961D01*
X144761905Y-109311961D02*
X144761905Y-109216723D01*
X144761905Y-109216723D02*
X144809524Y-109121485D01*
X144809524Y-109121485D02*
X144904762Y-109073866D01*
X144904762Y-109073866D02*
X145142857Y-109073866D01*
X145142857Y-109073866D02*
X145238095Y-109026247D01*
X146142857Y-108788152D02*
X146142857Y-109597676D01*
X146142857Y-109597676D02*
X146095238Y-109692914D01*
X146095238Y-109692914D02*
X146047619Y-109740533D01*
X146047619Y-109740533D02*
X145952381Y-109788152D01*
X145952381Y-109788152D02*
X145809524Y-109788152D01*
X145809524Y-109788152D02*
X145714286Y-109740533D01*
X146142857Y-109407200D02*
X146047619Y-109454819D01*
X146047619Y-109454819D02*
X145857143Y-109454819D01*
X145857143Y-109454819D02*
X145761905Y-109407200D01*
X145761905Y-109407200D02*
X145714286Y-109359580D01*
X145714286Y-109359580D02*
X145666667Y-109264342D01*
X145666667Y-109264342D02*
X145666667Y-108978628D01*
X145666667Y-108978628D02*
X145714286Y-108883390D01*
X145714286Y-108883390D02*
X145761905Y-108835771D01*
X145761905Y-108835771D02*
X145857143Y-108788152D01*
X145857143Y-108788152D02*
X146047619Y-108788152D01*
X146047619Y-108788152D02*
X146142857Y-108835771D01*
X147000000Y-109407200D02*
X146904762Y-109454819D01*
X146904762Y-109454819D02*
X146714286Y-109454819D01*
X146714286Y-109454819D02*
X146619048Y-109407200D01*
X146619048Y-109407200D02*
X146571429Y-109311961D01*
X146571429Y-109311961D02*
X146571429Y-108931009D01*
X146571429Y-108931009D02*
X146619048Y-108835771D01*
X146619048Y-108835771D02*
X146714286Y-108788152D01*
X146714286Y-108788152D02*
X146904762Y-108788152D01*
X146904762Y-108788152D02*
X147000000Y-108835771D01*
X147000000Y-108835771D02*
X147047619Y-108931009D01*
X147047619Y-108931009D02*
X147047619Y-109026247D01*
X147047619Y-109026247D02*
X146571429Y-109121485D01*
X147476191Y-109454819D02*
X147476191Y-108454819D01*
X147476191Y-108454819D02*
X147714286Y-108454819D01*
X147714286Y-108454819D02*
X147857143Y-108502438D01*
X147857143Y-108502438D02*
X147952381Y-108597676D01*
X147952381Y-108597676D02*
X148000000Y-108692914D01*
X148000000Y-108692914D02*
X148047619Y-108883390D01*
X148047619Y-108883390D02*
X148047619Y-109026247D01*
X148047619Y-109026247D02*
X148000000Y-109216723D01*
X148000000Y-109216723D02*
X147952381Y-109311961D01*
X147952381Y-109311961D02*
X147857143Y-109407200D01*
X147857143Y-109407200D02*
X147714286Y-109454819D01*
X147714286Y-109454819D02*
X147476191Y-109454819D01*
X148476191Y-109454819D02*
X148476191Y-108788152D01*
X148476191Y-108454819D02*
X148428572Y-108502438D01*
X148428572Y-108502438D02*
X148476191Y-108550057D01*
X148476191Y-108550057D02*
X148523810Y-108502438D01*
X148523810Y-108502438D02*
X148476191Y-108454819D01*
X148476191Y-108454819D02*
X148476191Y-108550057D01*
X148857143Y-108788152D02*
X149095238Y-109454819D01*
X149095238Y-109454819D02*
X149333333Y-108788152D01*
X149714286Y-109454819D02*
X149714286Y-108788152D01*
X149714286Y-108454819D02*
X149666667Y-108502438D01*
X149666667Y-108502438D02*
X149714286Y-108550057D01*
X149714286Y-108550057D02*
X149761905Y-108502438D01*
X149761905Y-108502438D02*
X149714286Y-108454819D01*
X149714286Y-108454819D02*
X149714286Y-108550057D01*
X150619047Y-109454819D02*
X150619047Y-108454819D01*
X150619047Y-109407200D02*
X150523809Y-109454819D01*
X150523809Y-109454819D02*
X150333333Y-109454819D01*
X150333333Y-109454819D02*
X150238095Y-109407200D01*
X150238095Y-109407200D02*
X150190476Y-109359580D01*
X150190476Y-109359580D02*
X150142857Y-109264342D01*
X150142857Y-109264342D02*
X150142857Y-108978628D01*
X150142857Y-108978628D02*
X150190476Y-108883390D01*
X150190476Y-108883390D02*
X150238095Y-108835771D01*
X150238095Y-108835771D02*
X150333333Y-108788152D01*
X150333333Y-108788152D02*
X150523809Y-108788152D01*
X150523809Y-108788152D02*
X150619047Y-108835771D01*
X151476190Y-109407200D02*
X151380952Y-109454819D01*
X151380952Y-109454819D02*
X151190476Y-109454819D01*
X151190476Y-109454819D02*
X151095238Y-109407200D01*
X151095238Y-109407200D02*
X151047619Y-109311961D01*
X151047619Y-109311961D02*
X151047619Y-108931009D01*
X151047619Y-108931009D02*
X151095238Y-108835771D01*
X151095238Y-108835771D02*
X151190476Y-108788152D01*
X151190476Y-108788152D02*
X151380952Y-108788152D01*
X151380952Y-108788152D02*
X151476190Y-108835771D01*
X151476190Y-108835771D02*
X151523809Y-108931009D01*
X151523809Y-108931009D02*
X151523809Y-109026247D01*
X151523809Y-109026247D02*
X151047619Y-109121485D01*
X151952381Y-109454819D02*
X151952381Y-108788152D01*
X151952381Y-108978628D02*
X152000000Y-108883390D01*
X152000000Y-108883390D02*
X152047619Y-108835771D01*
X152047619Y-108835771D02*
X152142857Y-108788152D01*
X152142857Y-108788152D02*
X152238095Y-108788152D01*
X153095238Y-109454819D02*
X152523810Y-109454819D01*
X152809524Y-109454819D02*
X152809524Y-108454819D01*
X152809524Y-108454819D02*
X152714286Y-108597676D01*
X152714286Y-108597676D02*
X152619048Y-108692914D01*
X152619048Y-108692914D02*
X152523810Y-108740533D01*
X168738095Y-37454819D02*
X168738095Y-38264342D01*
X168738095Y-38264342D02*
X168785714Y-38359580D01*
X168785714Y-38359580D02*
X168833333Y-38407200D01*
X168833333Y-38407200D02*
X168928571Y-38454819D01*
X168928571Y-38454819D02*
X169119047Y-38454819D01*
X169119047Y-38454819D02*
X169214285Y-38407200D01*
X169214285Y-38407200D02*
X169261904Y-38359580D01*
X169261904Y-38359580D02*
X169309523Y-38264342D01*
X169309523Y-38264342D02*
X169309523Y-37454819D01*
X169690476Y-37454819D02*
X170309523Y-37454819D01*
X170309523Y-37454819D02*
X169976190Y-37835771D01*
X169976190Y-37835771D02*
X170119047Y-37835771D01*
X170119047Y-37835771D02*
X170214285Y-37883390D01*
X170214285Y-37883390D02*
X170261904Y-37931009D01*
X170261904Y-37931009D02*
X170309523Y-38026247D01*
X170309523Y-38026247D02*
X170309523Y-38264342D01*
X170309523Y-38264342D02*
X170261904Y-38359580D01*
X170261904Y-38359580D02*
X170214285Y-38407200D01*
X170214285Y-38407200D02*
X170119047Y-38454819D01*
X170119047Y-38454819D02*
X169833333Y-38454819D01*
X169833333Y-38454819D02*
X169738095Y-38407200D01*
X169738095Y-38407200D02*
X169690476Y-38359580D01*
X132054819Y-80301904D02*
X132864342Y-80301904D01*
X132864342Y-80301904D02*
X132959580Y-80254285D01*
X132959580Y-80254285D02*
X133007200Y-80206666D01*
X133007200Y-80206666D02*
X133054819Y-80111428D01*
X133054819Y-80111428D02*
X133054819Y-79920952D01*
X133054819Y-79920952D02*
X133007200Y-79825714D01*
X133007200Y-79825714D02*
X132959580Y-79778095D01*
X132959580Y-79778095D02*
X132864342Y-79730476D01*
X132864342Y-79730476D02*
X132054819Y-79730476D01*
X133054819Y-78730476D02*
X133054819Y-79301904D01*
X133054819Y-79016190D02*
X132054819Y-79016190D01*
X132054819Y-79016190D02*
X132197676Y-79111428D01*
X132197676Y-79111428D02*
X132292914Y-79206666D01*
X132292914Y-79206666D02*
X132340533Y-79301904D01*
X122604819Y-34666666D02*
X122128628Y-34999999D01*
X122604819Y-35238094D02*
X121604819Y-35238094D01*
X121604819Y-35238094D02*
X121604819Y-34857142D01*
X121604819Y-34857142D02*
X121652438Y-34761904D01*
X121652438Y-34761904D02*
X121700057Y-34714285D01*
X121700057Y-34714285D02*
X121795295Y-34666666D01*
X121795295Y-34666666D02*
X121938152Y-34666666D01*
X121938152Y-34666666D02*
X122033390Y-34714285D01*
X122033390Y-34714285D02*
X122081009Y-34761904D01*
X122081009Y-34761904D02*
X122128628Y-34857142D01*
X122128628Y-34857142D02*
X122128628Y-35238094D01*
X121700057Y-34285713D02*
X121652438Y-34238094D01*
X121652438Y-34238094D02*
X121604819Y-34142856D01*
X121604819Y-34142856D02*
X121604819Y-33904761D01*
X121604819Y-33904761D02*
X121652438Y-33809523D01*
X121652438Y-33809523D02*
X121700057Y-33761904D01*
X121700057Y-33761904D02*
X121795295Y-33714285D01*
X121795295Y-33714285D02*
X121890533Y-33714285D01*
X121890533Y-33714285D02*
X122033390Y-33761904D01*
X122033390Y-33761904D02*
X122604819Y-34333332D01*
X122604819Y-34333332D02*
X122604819Y-33714285D01*
X111857143Y-22431009D02*
X112190476Y-22431009D01*
X112333333Y-22954819D02*
X111857143Y-22954819D01*
X111857143Y-22954819D02*
X111857143Y-21954819D01*
X111857143Y-21954819D02*
X112333333Y-21954819D01*
X112761905Y-22288152D02*
X112761905Y-22954819D01*
X112761905Y-22383390D02*
X112809524Y-22335771D01*
X112809524Y-22335771D02*
X112904762Y-22288152D01*
X112904762Y-22288152D02*
X113047619Y-22288152D01*
X113047619Y-22288152D02*
X113142857Y-22335771D01*
X113142857Y-22335771D02*
X113190476Y-22431009D01*
X113190476Y-22431009D02*
X113190476Y-22954819D01*
X114190476Y-22954819D02*
X113619048Y-22954819D01*
X113904762Y-22954819D02*
X113904762Y-21954819D01*
X113904762Y-21954819D02*
X113809524Y-22097676D01*
X113809524Y-22097676D02*
X113714286Y-22192914D01*
X113714286Y-22192914D02*
X113619048Y-22240533D01*
X167238095Y-101754819D02*
X167238095Y-101088152D01*
X167238095Y-101183390D02*
X167285714Y-101135771D01*
X167285714Y-101135771D02*
X167380952Y-101088152D01*
X167380952Y-101088152D02*
X167523809Y-101088152D01*
X167523809Y-101088152D02*
X167619047Y-101135771D01*
X167619047Y-101135771D02*
X167666666Y-101231009D01*
X167666666Y-101231009D02*
X167666666Y-101754819D01*
X167666666Y-101231009D02*
X167714285Y-101135771D01*
X167714285Y-101135771D02*
X167809523Y-101088152D01*
X167809523Y-101088152D02*
X167952380Y-101088152D01*
X167952380Y-101088152D02*
X168047619Y-101135771D01*
X168047619Y-101135771D02*
X168095238Y-101231009D01*
X168095238Y-101231009D02*
X168095238Y-101754819D01*
X168714285Y-101754819D02*
X168619047Y-101707200D01*
X168619047Y-101707200D02*
X168571428Y-101659580D01*
X168571428Y-101659580D02*
X168523809Y-101564342D01*
X168523809Y-101564342D02*
X168523809Y-101278628D01*
X168523809Y-101278628D02*
X168571428Y-101183390D01*
X168571428Y-101183390D02*
X168619047Y-101135771D01*
X168619047Y-101135771D02*
X168714285Y-101088152D01*
X168714285Y-101088152D02*
X168857142Y-101088152D01*
X168857142Y-101088152D02*
X168952380Y-101135771D01*
X168952380Y-101135771D02*
X168999999Y-101183390D01*
X168999999Y-101183390D02*
X169047618Y-101278628D01*
X169047618Y-101278628D02*
X169047618Y-101564342D01*
X169047618Y-101564342D02*
X168999999Y-101659580D01*
X168999999Y-101659580D02*
X168952380Y-101707200D01*
X168952380Y-101707200D02*
X168857142Y-101754819D01*
X168857142Y-101754819D02*
X168714285Y-101754819D01*
X169428571Y-101707200D02*
X169523809Y-101754819D01*
X169523809Y-101754819D02*
X169714285Y-101754819D01*
X169714285Y-101754819D02*
X169809523Y-101707200D01*
X169809523Y-101707200D02*
X169857142Y-101611961D01*
X169857142Y-101611961D02*
X169857142Y-101564342D01*
X169857142Y-101564342D02*
X169809523Y-101469104D01*
X169809523Y-101469104D02*
X169714285Y-101421485D01*
X169714285Y-101421485D02*
X169571428Y-101421485D01*
X169571428Y-101421485D02*
X169476190Y-101373866D01*
X169476190Y-101373866D02*
X169428571Y-101278628D01*
X169428571Y-101278628D02*
X169428571Y-101231009D01*
X169428571Y-101231009D02*
X169476190Y-101135771D01*
X169476190Y-101135771D02*
X169571428Y-101088152D01*
X169571428Y-101088152D02*
X169714285Y-101088152D01*
X169714285Y-101088152D02*
X169809523Y-101135771D01*
X170142857Y-101088152D02*
X170523809Y-101088152D01*
X170285714Y-101754819D02*
X170285714Y-100897676D01*
X170285714Y-100897676D02*
X170333333Y-100802438D01*
X170333333Y-100802438D02*
X170428571Y-100754819D01*
X170428571Y-100754819D02*
X170523809Y-100754819D01*
X171238095Y-101707200D02*
X171142857Y-101754819D01*
X171142857Y-101754819D02*
X170952381Y-101754819D01*
X170952381Y-101754819D02*
X170857143Y-101707200D01*
X170857143Y-101707200D02*
X170809524Y-101611961D01*
X170809524Y-101611961D02*
X170809524Y-101231009D01*
X170809524Y-101231009D02*
X170857143Y-101135771D01*
X170857143Y-101135771D02*
X170952381Y-101088152D01*
X170952381Y-101088152D02*
X171142857Y-101088152D01*
X171142857Y-101088152D02*
X171238095Y-101135771D01*
X171238095Y-101135771D02*
X171285714Y-101231009D01*
X171285714Y-101231009D02*
X171285714Y-101326247D01*
X171285714Y-101326247D02*
X170809524Y-101421485D01*
X171571429Y-101088152D02*
X171952381Y-101088152D01*
X171714286Y-100754819D02*
X171714286Y-101611961D01*
X171714286Y-101611961D02*
X171761905Y-101707200D01*
X171761905Y-101707200D02*
X171857143Y-101754819D01*
X171857143Y-101754819D02*
X171952381Y-101754819D01*
X172809524Y-101754819D02*
X172238096Y-101754819D01*
X172523810Y-101754819D02*
X172523810Y-100754819D01*
X172523810Y-100754819D02*
X172428572Y-100897676D01*
X172428572Y-100897676D02*
X172333334Y-100992914D01*
X172333334Y-100992914D02*
X172238096Y-101040533D01*
X184523809Y-96638152D02*
X184904761Y-96638152D01*
X184666666Y-96304819D02*
X184666666Y-97161961D01*
X184666666Y-97161961D02*
X184714285Y-97257200D01*
X184714285Y-97257200D02*
X184809523Y-97304819D01*
X184809523Y-97304819D02*
X184904761Y-97304819D01*
X185238095Y-97304819D02*
X185238095Y-96638152D01*
X185238095Y-96828628D02*
X185285714Y-96733390D01*
X185285714Y-96733390D02*
X185333333Y-96685771D01*
X185333333Y-96685771D02*
X185428571Y-96638152D01*
X185428571Y-96638152D02*
X185523809Y-96638152D01*
X185761905Y-96304819D02*
X186380952Y-96304819D01*
X186380952Y-96304819D02*
X186047619Y-96685771D01*
X186047619Y-96685771D02*
X186190476Y-96685771D01*
X186190476Y-96685771D02*
X186285714Y-96733390D01*
X186285714Y-96733390D02*
X186333333Y-96781009D01*
X186333333Y-96781009D02*
X186380952Y-96876247D01*
X186380952Y-96876247D02*
X186380952Y-97114342D01*
X186380952Y-97114342D02*
X186333333Y-97209580D01*
X186333333Y-97209580D02*
X186285714Y-97257200D01*
X186285714Y-97257200D02*
X186190476Y-97304819D01*
X186190476Y-97304819D02*
X185904762Y-97304819D01*
X185904762Y-97304819D02*
X185809524Y-97257200D01*
X185809524Y-97257200D02*
X185761905Y-97209580D01*
X159024819Y-82680476D02*
X158024819Y-82680476D01*
X158024819Y-82680476D02*
X158739104Y-82347143D01*
X158739104Y-82347143D02*
X158024819Y-82013810D01*
X158024819Y-82013810D02*
X159024819Y-82013810D01*
X159024819Y-81394762D02*
X158977200Y-81490000D01*
X158977200Y-81490000D02*
X158929580Y-81537619D01*
X158929580Y-81537619D02*
X158834342Y-81585238D01*
X158834342Y-81585238D02*
X158548628Y-81585238D01*
X158548628Y-81585238D02*
X158453390Y-81537619D01*
X158453390Y-81537619D02*
X158405771Y-81490000D01*
X158405771Y-81490000D02*
X158358152Y-81394762D01*
X158358152Y-81394762D02*
X158358152Y-81251905D01*
X158358152Y-81251905D02*
X158405771Y-81156667D01*
X158405771Y-81156667D02*
X158453390Y-81109048D01*
X158453390Y-81109048D02*
X158548628Y-81061429D01*
X158548628Y-81061429D02*
X158834342Y-81061429D01*
X158834342Y-81061429D02*
X158929580Y-81109048D01*
X158929580Y-81109048D02*
X158977200Y-81156667D01*
X158977200Y-81156667D02*
X159024819Y-81251905D01*
X159024819Y-81251905D02*
X159024819Y-81394762D01*
X158358152Y-80775714D02*
X158358152Y-80394762D01*
X158024819Y-80632857D02*
X158881961Y-80632857D01*
X158881961Y-80632857D02*
X158977200Y-80585238D01*
X158977200Y-80585238D02*
X159024819Y-80490000D01*
X159024819Y-80490000D02*
X159024819Y-80394762D01*
X159024819Y-79918571D02*
X158977200Y-80013809D01*
X158977200Y-80013809D02*
X158929580Y-80061428D01*
X158929580Y-80061428D02*
X158834342Y-80109047D01*
X158834342Y-80109047D02*
X158548628Y-80109047D01*
X158548628Y-80109047D02*
X158453390Y-80061428D01*
X158453390Y-80061428D02*
X158405771Y-80013809D01*
X158405771Y-80013809D02*
X158358152Y-79918571D01*
X158358152Y-79918571D02*
X158358152Y-79775714D01*
X158358152Y-79775714D02*
X158405771Y-79680476D01*
X158405771Y-79680476D02*
X158453390Y-79632857D01*
X158453390Y-79632857D02*
X158548628Y-79585238D01*
X158548628Y-79585238D02*
X158834342Y-79585238D01*
X158834342Y-79585238D02*
X158929580Y-79632857D01*
X158929580Y-79632857D02*
X158977200Y-79680476D01*
X158977200Y-79680476D02*
X159024819Y-79775714D01*
X159024819Y-79775714D02*
X159024819Y-79918571D01*
X159024819Y-79156666D02*
X158358152Y-79156666D01*
X158548628Y-79156666D02*
X158453390Y-79109047D01*
X158453390Y-79109047D02*
X158405771Y-79061428D01*
X158405771Y-79061428D02*
X158358152Y-78966190D01*
X158358152Y-78966190D02*
X158358152Y-78870952D01*
X159120057Y-78775714D02*
X159120057Y-78013809D01*
X159024819Y-77251904D02*
X159024819Y-77823332D01*
X159024819Y-77537618D02*
X158024819Y-77537618D01*
X158024819Y-77537618D02*
X158167676Y-77632856D01*
X158167676Y-77632856D02*
X158262914Y-77728094D01*
X158262914Y-77728094D02*
X158310533Y-77823332D01*
X102334819Y-86083333D02*
X103049104Y-86083333D01*
X103049104Y-86083333D02*
X103191961Y-86130952D01*
X103191961Y-86130952D02*
X103287200Y-86226190D01*
X103287200Y-86226190D02*
X103334819Y-86369047D01*
X103334819Y-86369047D02*
X103334819Y-86464285D01*
X102334819Y-85702380D02*
X102334819Y-85083333D01*
X102334819Y-85083333D02*
X102715771Y-85416666D01*
X102715771Y-85416666D02*
X102715771Y-85273809D01*
X102715771Y-85273809D02*
X102763390Y-85178571D01*
X102763390Y-85178571D02*
X102811009Y-85130952D01*
X102811009Y-85130952D02*
X102906247Y-85083333D01*
X102906247Y-85083333D02*
X103144342Y-85083333D01*
X103144342Y-85083333D02*
X103239580Y-85130952D01*
X103239580Y-85130952D02*
X103287200Y-85178571D01*
X103287200Y-85178571D02*
X103334819Y-85273809D01*
X103334819Y-85273809D02*
X103334819Y-85559523D01*
X103334819Y-85559523D02*
X103287200Y-85654761D01*
X103287200Y-85654761D02*
X103239580Y-85702380D01*
X142561309Y-100968152D02*
X142799404Y-101634819D01*
X142799404Y-101634819D02*
X143037499Y-100968152D01*
X143847023Y-101634819D02*
X143847023Y-100634819D01*
X143847023Y-101587200D02*
X143751785Y-101634819D01*
X143751785Y-101634819D02*
X143561309Y-101634819D01*
X143561309Y-101634819D02*
X143466071Y-101587200D01*
X143466071Y-101587200D02*
X143418452Y-101539580D01*
X143418452Y-101539580D02*
X143370833Y-101444342D01*
X143370833Y-101444342D02*
X143370833Y-101158628D01*
X143370833Y-101158628D02*
X143418452Y-101063390D01*
X143418452Y-101063390D02*
X143466071Y-101015771D01*
X143466071Y-101015771D02*
X143561309Y-100968152D01*
X143561309Y-100968152D02*
X143751785Y-100968152D01*
X143751785Y-100968152D02*
X143847023Y-101015771D01*
X144085119Y-101730057D02*
X144847023Y-101730057D01*
X145513690Y-101587200D02*
X145418452Y-101634819D01*
X145418452Y-101634819D02*
X145227976Y-101634819D01*
X145227976Y-101634819D02*
X145132738Y-101587200D01*
X145132738Y-101587200D02*
X145085119Y-101539580D01*
X145085119Y-101539580D02*
X145037500Y-101444342D01*
X145037500Y-101444342D02*
X145037500Y-101158628D01*
X145037500Y-101158628D02*
X145085119Y-101063390D01*
X145085119Y-101063390D02*
X145132738Y-101015771D01*
X145132738Y-101015771D02*
X145227976Y-100968152D01*
X145227976Y-100968152D02*
X145418452Y-100968152D01*
X145418452Y-100968152D02*
X145513690Y-101015771D01*
X145847024Y-100634819D02*
X146466071Y-100634819D01*
X146466071Y-100634819D02*
X146132738Y-101015771D01*
X146132738Y-101015771D02*
X146275595Y-101015771D01*
X146275595Y-101015771D02*
X146370833Y-101063390D01*
X146370833Y-101063390D02*
X146418452Y-101111009D01*
X146418452Y-101111009D02*
X146466071Y-101206247D01*
X146466071Y-101206247D02*
X146466071Y-101444342D01*
X146466071Y-101444342D02*
X146418452Y-101539580D01*
X146418452Y-101539580D02*
X146370833Y-101587200D01*
X146370833Y-101587200D02*
X146275595Y-101634819D01*
X146275595Y-101634819D02*
X145989881Y-101634819D01*
X145989881Y-101634819D02*
X145894643Y-101587200D01*
X145894643Y-101587200D02*
X145847024Y-101539580D01*
X129484766Y-119928519D02*
X129484766Y-120642804D01*
X129484766Y-120642804D02*
X129437147Y-120785661D01*
X129437147Y-120785661D02*
X129341909Y-120880900D01*
X129341909Y-120880900D02*
X129199052Y-120928519D01*
X129199052Y-120928519D02*
X129103814Y-120928519D01*
X130389528Y-120261852D02*
X130389528Y-120928519D01*
X130151433Y-119880900D02*
X129913338Y-120595185D01*
X129913338Y-120595185D02*
X130532385Y-120595185D01*
X187761905Y-31984819D02*
X187761905Y-30984819D01*
X187761905Y-30984819D02*
X188000000Y-30984819D01*
X188000000Y-30984819D02*
X188142857Y-31032438D01*
X188142857Y-31032438D02*
X188238095Y-31127676D01*
X188238095Y-31127676D02*
X188285714Y-31222914D01*
X188285714Y-31222914D02*
X188333333Y-31413390D01*
X188333333Y-31413390D02*
X188333333Y-31556247D01*
X188333333Y-31556247D02*
X188285714Y-31746723D01*
X188285714Y-31746723D02*
X188238095Y-31841961D01*
X188238095Y-31841961D02*
X188142857Y-31937200D01*
X188142857Y-31937200D02*
X188000000Y-31984819D01*
X188000000Y-31984819D02*
X187761905Y-31984819D01*
X189285714Y-31984819D02*
X188714286Y-31984819D01*
X189000000Y-31984819D02*
X189000000Y-30984819D01*
X189000000Y-30984819D02*
X188904762Y-31127676D01*
X188904762Y-31127676D02*
X188809524Y-31222914D01*
X188809524Y-31222914D02*
X188714286Y-31270533D01*
X183158095Y-32354819D02*
X183158095Y-31354819D01*
X183729523Y-32354819D02*
X183300952Y-31783390D01*
X183729523Y-31354819D02*
X183158095Y-31926247D01*
X174738095Y-101754819D02*
X174738095Y-101088152D01*
X174738095Y-101183390D02*
X174785714Y-101135771D01*
X174785714Y-101135771D02*
X174880952Y-101088152D01*
X174880952Y-101088152D02*
X175023809Y-101088152D01*
X175023809Y-101088152D02*
X175119047Y-101135771D01*
X175119047Y-101135771D02*
X175166666Y-101231009D01*
X175166666Y-101231009D02*
X175166666Y-101754819D01*
X175166666Y-101231009D02*
X175214285Y-101135771D01*
X175214285Y-101135771D02*
X175309523Y-101088152D01*
X175309523Y-101088152D02*
X175452380Y-101088152D01*
X175452380Y-101088152D02*
X175547619Y-101135771D01*
X175547619Y-101135771D02*
X175595238Y-101231009D01*
X175595238Y-101231009D02*
X175595238Y-101754819D01*
X176214285Y-101754819D02*
X176119047Y-101707200D01*
X176119047Y-101707200D02*
X176071428Y-101659580D01*
X176071428Y-101659580D02*
X176023809Y-101564342D01*
X176023809Y-101564342D02*
X176023809Y-101278628D01*
X176023809Y-101278628D02*
X176071428Y-101183390D01*
X176071428Y-101183390D02*
X176119047Y-101135771D01*
X176119047Y-101135771D02*
X176214285Y-101088152D01*
X176214285Y-101088152D02*
X176357142Y-101088152D01*
X176357142Y-101088152D02*
X176452380Y-101135771D01*
X176452380Y-101135771D02*
X176499999Y-101183390D01*
X176499999Y-101183390D02*
X176547618Y-101278628D01*
X176547618Y-101278628D02*
X176547618Y-101564342D01*
X176547618Y-101564342D02*
X176499999Y-101659580D01*
X176499999Y-101659580D02*
X176452380Y-101707200D01*
X176452380Y-101707200D02*
X176357142Y-101754819D01*
X176357142Y-101754819D02*
X176214285Y-101754819D01*
X176928571Y-101707200D02*
X177023809Y-101754819D01*
X177023809Y-101754819D02*
X177214285Y-101754819D01*
X177214285Y-101754819D02*
X177309523Y-101707200D01*
X177309523Y-101707200D02*
X177357142Y-101611961D01*
X177357142Y-101611961D02*
X177357142Y-101564342D01*
X177357142Y-101564342D02*
X177309523Y-101469104D01*
X177309523Y-101469104D02*
X177214285Y-101421485D01*
X177214285Y-101421485D02*
X177071428Y-101421485D01*
X177071428Y-101421485D02*
X176976190Y-101373866D01*
X176976190Y-101373866D02*
X176928571Y-101278628D01*
X176928571Y-101278628D02*
X176928571Y-101231009D01*
X176928571Y-101231009D02*
X176976190Y-101135771D01*
X176976190Y-101135771D02*
X177071428Y-101088152D01*
X177071428Y-101088152D02*
X177214285Y-101088152D01*
X177214285Y-101088152D02*
X177309523Y-101135771D01*
X177642857Y-101088152D02*
X178023809Y-101088152D01*
X177785714Y-101754819D02*
X177785714Y-100897676D01*
X177785714Y-100897676D02*
X177833333Y-100802438D01*
X177833333Y-100802438D02*
X177928571Y-100754819D01*
X177928571Y-100754819D02*
X178023809Y-100754819D01*
X178738095Y-101707200D02*
X178642857Y-101754819D01*
X178642857Y-101754819D02*
X178452381Y-101754819D01*
X178452381Y-101754819D02*
X178357143Y-101707200D01*
X178357143Y-101707200D02*
X178309524Y-101611961D01*
X178309524Y-101611961D02*
X178309524Y-101231009D01*
X178309524Y-101231009D02*
X178357143Y-101135771D01*
X178357143Y-101135771D02*
X178452381Y-101088152D01*
X178452381Y-101088152D02*
X178642857Y-101088152D01*
X178642857Y-101088152D02*
X178738095Y-101135771D01*
X178738095Y-101135771D02*
X178785714Y-101231009D01*
X178785714Y-101231009D02*
X178785714Y-101326247D01*
X178785714Y-101326247D02*
X178309524Y-101421485D01*
X179071429Y-101088152D02*
X179452381Y-101088152D01*
X179214286Y-100754819D02*
X179214286Y-101611961D01*
X179214286Y-101611961D02*
X179261905Y-101707200D01*
X179261905Y-101707200D02*
X179357143Y-101754819D01*
X179357143Y-101754819D02*
X179452381Y-101754819D01*
X179738096Y-100850057D02*
X179785715Y-100802438D01*
X179785715Y-100802438D02*
X179880953Y-100754819D01*
X179880953Y-100754819D02*
X180119048Y-100754819D01*
X180119048Y-100754819D02*
X180214286Y-100802438D01*
X180214286Y-100802438D02*
X180261905Y-100850057D01*
X180261905Y-100850057D02*
X180309524Y-100945295D01*
X180309524Y-100945295D02*
X180309524Y-101040533D01*
X180309524Y-101040533D02*
X180261905Y-101183390D01*
X180261905Y-101183390D02*
X179690477Y-101754819D01*
X179690477Y-101754819D02*
X180309524Y-101754819D01*
X182238095Y-101754819D02*
X182238095Y-101088152D01*
X182238095Y-101183390D02*
X182285714Y-101135771D01*
X182285714Y-101135771D02*
X182380952Y-101088152D01*
X182380952Y-101088152D02*
X182523809Y-101088152D01*
X182523809Y-101088152D02*
X182619047Y-101135771D01*
X182619047Y-101135771D02*
X182666666Y-101231009D01*
X182666666Y-101231009D02*
X182666666Y-101754819D01*
X182666666Y-101231009D02*
X182714285Y-101135771D01*
X182714285Y-101135771D02*
X182809523Y-101088152D01*
X182809523Y-101088152D02*
X182952380Y-101088152D01*
X182952380Y-101088152D02*
X183047619Y-101135771D01*
X183047619Y-101135771D02*
X183095238Y-101231009D01*
X183095238Y-101231009D02*
X183095238Y-101754819D01*
X183714285Y-101754819D02*
X183619047Y-101707200D01*
X183619047Y-101707200D02*
X183571428Y-101659580D01*
X183571428Y-101659580D02*
X183523809Y-101564342D01*
X183523809Y-101564342D02*
X183523809Y-101278628D01*
X183523809Y-101278628D02*
X183571428Y-101183390D01*
X183571428Y-101183390D02*
X183619047Y-101135771D01*
X183619047Y-101135771D02*
X183714285Y-101088152D01*
X183714285Y-101088152D02*
X183857142Y-101088152D01*
X183857142Y-101088152D02*
X183952380Y-101135771D01*
X183952380Y-101135771D02*
X183999999Y-101183390D01*
X183999999Y-101183390D02*
X184047618Y-101278628D01*
X184047618Y-101278628D02*
X184047618Y-101564342D01*
X184047618Y-101564342D02*
X183999999Y-101659580D01*
X183999999Y-101659580D02*
X183952380Y-101707200D01*
X183952380Y-101707200D02*
X183857142Y-101754819D01*
X183857142Y-101754819D02*
X183714285Y-101754819D01*
X184428571Y-101707200D02*
X184523809Y-101754819D01*
X184523809Y-101754819D02*
X184714285Y-101754819D01*
X184714285Y-101754819D02*
X184809523Y-101707200D01*
X184809523Y-101707200D02*
X184857142Y-101611961D01*
X184857142Y-101611961D02*
X184857142Y-101564342D01*
X184857142Y-101564342D02*
X184809523Y-101469104D01*
X184809523Y-101469104D02*
X184714285Y-101421485D01*
X184714285Y-101421485D02*
X184571428Y-101421485D01*
X184571428Y-101421485D02*
X184476190Y-101373866D01*
X184476190Y-101373866D02*
X184428571Y-101278628D01*
X184428571Y-101278628D02*
X184428571Y-101231009D01*
X184428571Y-101231009D02*
X184476190Y-101135771D01*
X184476190Y-101135771D02*
X184571428Y-101088152D01*
X184571428Y-101088152D02*
X184714285Y-101088152D01*
X184714285Y-101088152D02*
X184809523Y-101135771D01*
X185142857Y-101088152D02*
X185523809Y-101088152D01*
X185285714Y-101754819D02*
X185285714Y-100897676D01*
X185285714Y-100897676D02*
X185333333Y-100802438D01*
X185333333Y-100802438D02*
X185428571Y-100754819D01*
X185428571Y-100754819D02*
X185523809Y-100754819D01*
X186238095Y-101707200D02*
X186142857Y-101754819D01*
X186142857Y-101754819D02*
X185952381Y-101754819D01*
X185952381Y-101754819D02*
X185857143Y-101707200D01*
X185857143Y-101707200D02*
X185809524Y-101611961D01*
X185809524Y-101611961D02*
X185809524Y-101231009D01*
X185809524Y-101231009D02*
X185857143Y-101135771D01*
X185857143Y-101135771D02*
X185952381Y-101088152D01*
X185952381Y-101088152D02*
X186142857Y-101088152D01*
X186142857Y-101088152D02*
X186238095Y-101135771D01*
X186238095Y-101135771D02*
X186285714Y-101231009D01*
X186285714Y-101231009D02*
X186285714Y-101326247D01*
X186285714Y-101326247D02*
X185809524Y-101421485D01*
X186571429Y-101088152D02*
X186952381Y-101088152D01*
X186714286Y-100754819D02*
X186714286Y-101611961D01*
X186714286Y-101611961D02*
X186761905Y-101707200D01*
X186761905Y-101707200D02*
X186857143Y-101754819D01*
X186857143Y-101754819D02*
X186952381Y-101754819D01*
X187190477Y-100754819D02*
X187809524Y-100754819D01*
X187809524Y-100754819D02*
X187476191Y-101135771D01*
X187476191Y-101135771D02*
X187619048Y-101135771D01*
X187619048Y-101135771D02*
X187714286Y-101183390D01*
X187714286Y-101183390D02*
X187761905Y-101231009D01*
X187761905Y-101231009D02*
X187809524Y-101326247D01*
X187809524Y-101326247D02*
X187809524Y-101564342D01*
X187809524Y-101564342D02*
X187761905Y-101659580D01*
X187761905Y-101659580D02*
X187714286Y-101707200D01*
X187714286Y-101707200D02*
X187619048Y-101754819D01*
X187619048Y-101754819D02*
X187333334Y-101754819D01*
X187333334Y-101754819D02*
X187238096Y-101707200D01*
X187238096Y-101707200D02*
X187190477Y-101659580D01*
X137608152Y-102513690D02*
X138274819Y-102275595D01*
X138274819Y-102275595D02*
X137608152Y-102037500D01*
X138274819Y-101227976D02*
X137274819Y-101227976D01*
X138227200Y-101227976D02*
X138274819Y-101323214D01*
X138274819Y-101323214D02*
X138274819Y-101513690D01*
X138274819Y-101513690D02*
X138227200Y-101608928D01*
X138227200Y-101608928D02*
X138179580Y-101656547D01*
X138179580Y-101656547D02*
X138084342Y-101704166D01*
X138084342Y-101704166D02*
X137798628Y-101704166D01*
X137798628Y-101704166D02*
X137703390Y-101656547D01*
X137703390Y-101656547D02*
X137655771Y-101608928D01*
X137655771Y-101608928D02*
X137608152Y-101513690D01*
X137608152Y-101513690D02*
X137608152Y-101323214D01*
X137608152Y-101323214D02*
X137655771Y-101227976D01*
X138370057Y-100989881D02*
X138370057Y-100227976D01*
X138227200Y-99561309D02*
X138274819Y-99656547D01*
X138274819Y-99656547D02*
X138274819Y-99847023D01*
X138274819Y-99847023D02*
X138227200Y-99942261D01*
X138227200Y-99942261D02*
X138179580Y-99989880D01*
X138179580Y-99989880D02*
X138084342Y-100037499D01*
X138084342Y-100037499D02*
X137798628Y-100037499D01*
X137798628Y-100037499D02*
X137703390Y-99989880D01*
X137703390Y-99989880D02*
X137655771Y-99942261D01*
X137655771Y-99942261D02*
X137608152Y-99847023D01*
X137608152Y-99847023D02*
X137608152Y-99656547D01*
X137608152Y-99656547D02*
X137655771Y-99561309D01*
X137608152Y-98704166D02*
X138274819Y-98704166D01*
X137227200Y-98942261D02*
X137941485Y-99180356D01*
X137941485Y-99180356D02*
X137941485Y-98561309D01*
X187454819Y-87309523D02*
X186454819Y-87309523D01*
X186454819Y-87309523D02*
X187169104Y-86976190D01*
X187169104Y-86976190D02*
X186454819Y-86642857D01*
X186454819Y-86642857D02*
X187454819Y-86642857D01*
X187454819Y-86023809D02*
X187407200Y-86119047D01*
X187407200Y-86119047D02*
X187359580Y-86166666D01*
X187359580Y-86166666D02*
X187264342Y-86214285D01*
X187264342Y-86214285D02*
X186978628Y-86214285D01*
X186978628Y-86214285D02*
X186883390Y-86166666D01*
X186883390Y-86166666D02*
X186835771Y-86119047D01*
X186835771Y-86119047D02*
X186788152Y-86023809D01*
X186788152Y-86023809D02*
X186788152Y-85880952D01*
X186788152Y-85880952D02*
X186835771Y-85785714D01*
X186835771Y-85785714D02*
X186883390Y-85738095D01*
X186883390Y-85738095D02*
X186978628Y-85690476D01*
X186978628Y-85690476D02*
X187264342Y-85690476D01*
X187264342Y-85690476D02*
X187359580Y-85738095D01*
X187359580Y-85738095D02*
X187407200Y-85785714D01*
X187407200Y-85785714D02*
X187454819Y-85880952D01*
X187454819Y-85880952D02*
X187454819Y-86023809D01*
X186788152Y-85404761D02*
X186788152Y-85023809D01*
X186454819Y-85261904D02*
X187311961Y-85261904D01*
X187311961Y-85261904D02*
X187407200Y-85214285D01*
X187407200Y-85214285D02*
X187454819Y-85119047D01*
X187454819Y-85119047D02*
X187454819Y-85023809D01*
X187454819Y-84547618D02*
X187407200Y-84642856D01*
X187407200Y-84642856D02*
X187359580Y-84690475D01*
X187359580Y-84690475D02*
X187264342Y-84738094D01*
X187264342Y-84738094D02*
X186978628Y-84738094D01*
X186978628Y-84738094D02*
X186883390Y-84690475D01*
X186883390Y-84690475D02*
X186835771Y-84642856D01*
X186835771Y-84642856D02*
X186788152Y-84547618D01*
X186788152Y-84547618D02*
X186788152Y-84404761D01*
X186788152Y-84404761D02*
X186835771Y-84309523D01*
X186835771Y-84309523D02*
X186883390Y-84261904D01*
X186883390Y-84261904D02*
X186978628Y-84214285D01*
X186978628Y-84214285D02*
X187264342Y-84214285D01*
X187264342Y-84214285D02*
X187359580Y-84261904D01*
X187359580Y-84261904D02*
X187407200Y-84309523D01*
X187407200Y-84309523D02*
X187454819Y-84404761D01*
X187454819Y-84404761D02*
X187454819Y-84547618D01*
X187454819Y-83785713D02*
X186788152Y-83785713D01*
X186978628Y-83785713D02*
X186883390Y-83738094D01*
X186883390Y-83738094D02*
X186835771Y-83690475D01*
X186835771Y-83690475D02*
X186788152Y-83595237D01*
X186788152Y-83595237D02*
X186788152Y-83499999D01*
X187454819Y-82642856D02*
X187454819Y-83214284D01*
X187454819Y-82928570D02*
X186454819Y-82928570D01*
X186454819Y-82928570D02*
X186597676Y-83023808D01*
X186597676Y-83023808D02*
X186692914Y-83119046D01*
X186692914Y-83119046D02*
X186740533Y-83214284D01*
X142642857Y-102138152D02*
X142880952Y-102804819D01*
X142880952Y-102804819D02*
X143119047Y-102138152D01*
X143928571Y-102804819D02*
X143928571Y-101804819D01*
X143928571Y-102757200D02*
X143833333Y-102804819D01*
X143833333Y-102804819D02*
X143642857Y-102804819D01*
X143642857Y-102804819D02*
X143547619Y-102757200D01*
X143547619Y-102757200D02*
X143500000Y-102709580D01*
X143500000Y-102709580D02*
X143452381Y-102614342D01*
X143452381Y-102614342D02*
X143452381Y-102328628D01*
X143452381Y-102328628D02*
X143500000Y-102233390D01*
X143500000Y-102233390D02*
X143547619Y-102185771D01*
X143547619Y-102185771D02*
X143642857Y-102138152D01*
X143642857Y-102138152D02*
X143833333Y-102138152D01*
X143833333Y-102138152D02*
X143928571Y-102185771D01*
X144166667Y-102900057D02*
X144928571Y-102900057D01*
X145166667Y-102804819D02*
X145166667Y-102138152D01*
X145166667Y-102328628D02*
X145214286Y-102233390D01*
X145214286Y-102233390D02*
X145261905Y-102185771D01*
X145261905Y-102185771D02*
X145357143Y-102138152D01*
X145357143Y-102138152D02*
X145452381Y-102138152D01*
X146309524Y-102804819D02*
X145738096Y-102804819D01*
X146023810Y-102804819D02*
X146023810Y-101804819D01*
X146023810Y-101804819D02*
X145928572Y-101947676D01*
X145928572Y-101947676D02*
X145833334Y-102042914D01*
X145833334Y-102042914D02*
X145738096Y-102090533D01*
X133104819Y-32666666D02*
X132628628Y-32999999D01*
X133104819Y-33238094D02*
X132104819Y-33238094D01*
X132104819Y-33238094D02*
X132104819Y-32857142D01*
X132104819Y-32857142D02*
X132152438Y-32761904D01*
X132152438Y-32761904D02*
X132200057Y-32714285D01*
X132200057Y-32714285D02*
X132295295Y-32666666D01*
X132295295Y-32666666D02*
X132438152Y-32666666D01*
X132438152Y-32666666D02*
X132533390Y-32714285D01*
X132533390Y-32714285D02*
X132581009Y-32761904D01*
X132581009Y-32761904D02*
X132628628Y-32857142D01*
X132628628Y-32857142D02*
X132628628Y-33238094D01*
X132438152Y-31809523D02*
X133104819Y-31809523D01*
X132057200Y-32047618D02*
X132771485Y-32285713D01*
X132771485Y-32285713D02*
X132771485Y-31666666D01*
X157954819Y-33001904D02*
X158764342Y-33001904D01*
X158764342Y-33001904D02*
X158859580Y-32954285D01*
X158859580Y-32954285D02*
X158907200Y-32906666D01*
X158907200Y-32906666D02*
X158954819Y-32811428D01*
X158954819Y-32811428D02*
X158954819Y-32620952D01*
X158954819Y-32620952D02*
X158907200Y-32525714D01*
X158907200Y-32525714D02*
X158859580Y-32478095D01*
X158859580Y-32478095D02*
X158764342Y-32430476D01*
X158764342Y-32430476D02*
X157954819Y-32430476D01*
X158050057Y-32001904D02*
X158002438Y-31954285D01*
X158002438Y-31954285D02*
X157954819Y-31859047D01*
X157954819Y-31859047D02*
X157954819Y-31620952D01*
X157954819Y-31620952D02*
X158002438Y-31525714D01*
X158002438Y-31525714D02*
X158050057Y-31478095D01*
X158050057Y-31478095D02*
X158145295Y-31430476D01*
X158145295Y-31430476D02*
X158240533Y-31430476D01*
X158240533Y-31430476D02*
X158383390Y-31478095D01*
X158383390Y-31478095D02*
X158954819Y-32049523D01*
X158954819Y-32049523D02*
X158954819Y-31430476D01*
D11*
%TO.C,Trans_3*%
X191544959Y-110174000D02*
X189372500Y-110174000D01*
X189372500Y-110174000D02*
X189372500Y-113938559D01*
X197627500Y-110174000D02*
X195455041Y-110174000D01*
X197627500Y-113938559D02*
X197627500Y-110174000D01*
X191095694Y-119826000D02*
X195904306Y-119826000D01*
D12*
X187295700Y-111471000D02*
G75*
G02*
X186533700Y-111471000I-381000J0D01*
G01*
X186533700Y-111471000D02*
G75*
G02*
X187295700Y-111471000I381000J0D01*
G01*
%TO.C,Trans_2*%
X174295700Y-111380000D02*
G75*
G02*
X173533700Y-111380000I-381000J0D01*
G01*
X173533700Y-111380000D02*
G75*
G02*
X174295700Y-111380000I381000J0D01*
G01*
D11*
X178095694Y-119735000D02*
X182904306Y-119735000D01*
X184627500Y-113847559D02*
X184627500Y-110083000D01*
X184627500Y-110083000D02*
X182455041Y-110083000D01*
X176372500Y-110083000D02*
X176372500Y-113847559D01*
X178544959Y-110083000D02*
X176372500Y-110083000D01*
D12*
%TO.C,Trans_1*%
X160795700Y-111471000D02*
G75*
G02*
X160033700Y-111471000I-381000J0D01*
G01*
X160033700Y-111471000D02*
G75*
G02*
X160795700Y-111471000I381000J0D01*
G01*
D11*
X164595694Y-119826000D02*
X169404306Y-119826000D01*
X171127500Y-113938559D02*
X171127500Y-110174000D01*
X171127500Y-110174000D02*
X168955041Y-110174000D01*
X162872500Y-110174000D02*
X162872500Y-113938559D01*
X165044959Y-110174000D02*
X162872500Y-110174000D01*
D13*
%TO.C,J1*%
X139470000Y-25260000D02*
X139470000Y-26670000D01*
X138650000Y-29340000D02*
X138650000Y-29190000D01*
X137850000Y-29340000D02*
X138650000Y-29340000D01*
X130310000Y-25260000D02*
X130310000Y-26670000D01*
%TO.C,Boot1*%
X117350000Y-25500000D02*
X118500000Y-24350000D01*
X117350000Y-29500000D02*
X117350000Y-25500000D01*
X118500000Y-24350000D02*
X119200000Y-24350000D01*
X118519000Y-30650000D02*
X117350000Y-29500000D01*
X119200000Y-30650000D02*
X118519000Y-30650000D01*
X121800000Y-30650000D02*
X122500000Y-30650000D01*
X122500000Y-24350000D02*
X121800000Y-24350000D01*
X122500000Y-30650000D02*
X123650000Y-29500000D01*
X123650000Y-25500000D02*
X122500000Y-24350000D01*
X123650000Y-29500000D02*
X123650000Y-25500000D01*
%TO.C,R1*%
X112265000Y-34727064D02*
X112265000Y-34272936D01*
X113735000Y-34727064D02*
X113735000Y-34272936D01*
%TO.C,Motor_2*%
X175210000Y-45240000D02*
X175210000Y-58070000D01*
X175210000Y-47910000D02*
X195790000Y-47910000D01*
X175210000Y-58070000D02*
X177880000Y-58070000D01*
X175210000Y-59340000D02*
X175210000Y-60740000D01*
X175210000Y-60740000D02*
X176610000Y-60740000D01*
X177880000Y-58070000D02*
X177880000Y-60740000D01*
X177880000Y-58070000D02*
X195790000Y-58070000D01*
X177880000Y-60740000D02*
X195790000Y-60740000D01*
X195790000Y-45240000D02*
X175210000Y-45240000D01*
X195790000Y-60740000D02*
X195790000Y-45240000D01*
D11*
%TO.C,Motor2*%
X188674000Y-63378600D02*
X188674000Y-65544961D01*
X188674000Y-73455039D02*
X188674000Y-75621400D01*
X188674000Y-75621400D02*
X192438559Y-75621400D01*
X192438559Y-63378600D02*
X188674000Y-63378600D01*
X198326000Y-73904304D02*
X198326000Y-65095696D01*
D12*
X190352000Y-78085299D02*
G75*
G02*
X189590000Y-78085299I-381000J0D01*
G01*
X189590000Y-78085299D02*
G75*
G02*
X190352000Y-78085299I381000J0D01*
G01*
D13*
%TO.C,R3*%
X137765000Y-33772936D02*
X137765000Y-34227064D01*
X139235000Y-33772936D02*
X139235000Y-34227064D01*
%TO.C,J2*%
X182880000Y-29620000D02*
X182880000Y-21580000D01*
X183688000Y-25000000D02*
X182880000Y-25000000D01*
X183688000Y-26000000D02*
X182880000Y-26000000D01*
X184957000Y-23700000D02*
X182880000Y-23700000D01*
X188620000Y-23700000D02*
X186043000Y-23700000D01*
X188620000Y-25000000D02*
X187312000Y-25000000D01*
X188620000Y-26000000D02*
X187312000Y-26000000D01*
X190200000Y-21580000D02*
X182880000Y-21580000D01*
X193620000Y-21580000D02*
X190800000Y-21580000D01*
X193620000Y-23700000D02*
X192380000Y-23700000D01*
X193620000Y-25000000D02*
X192380000Y-25000000D01*
X193620000Y-26000000D02*
X192380000Y-26000000D01*
X193620000Y-29620000D02*
X182880000Y-29620000D01*
X193620000Y-29620000D02*
X193620000Y-21580000D01*
X190500000Y-21580000D02*
X190060000Y-20970000D01*
X190940000Y-20970000D01*
X190500000Y-21580000D01*
G36*
X190500000Y-21580000D02*
G01*
X190060000Y-20970000D01*
X190940000Y-20970000D01*
X190500000Y-21580000D01*
G37*
%TO.C,tr1*%
X170272936Y-97765000D02*
X170727064Y-97765000D01*
X170272936Y-99235000D02*
X170727064Y-99235000D01*
%TO.C,tr2*%
X177772936Y-97765000D02*
X178227064Y-97765000D01*
X177772936Y-99235000D02*
X178227064Y-99235000D01*
%TO.C,esp_smoothingcaps_1*%
X127765000Y-63816252D02*
X127765000Y-63293748D01*
X129235000Y-63816252D02*
X129235000Y-63293748D01*
%TO.C,motor1_c1*%
X183460000Y-77990000D02*
X181279000Y-77990000D01*
X183460000Y-78030000D02*
X181282000Y-78030000D01*
X183460000Y-78070000D02*
X181286000Y-78070000D01*
X183460000Y-78110000D02*
X181290000Y-78110000D01*
X183460000Y-78150000D02*
X181295000Y-78150000D01*
X183460000Y-78190000D02*
X181300000Y-78190000D01*
X183460000Y-78230000D02*
X181305000Y-78230000D01*
X183460000Y-78270000D02*
X181312000Y-78270000D01*
X183460000Y-78310000D02*
X181318000Y-78310000D01*
X183460000Y-78350000D02*
X181326000Y-78350000D01*
X183460000Y-78390000D02*
X181333000Y-78390000D01*
X183460000Y-78430000D02*
X181341000Y-78430000D01*
X183460000Y-78470000D02*
X181350000Y-78470000D01*
X183460000Y-78510000D02*
X181360000Y-78510000D01*
X183460000Y-78550000D02*
X181369000Y-78550000D01*
X183460000Y-78590000D02*
X181380000Y-78590000D01*
X183460000Y-78630000D02*
X181391000Y-78630000D01*
X183460000Y-78670000D02*
X181402000Y-78670000D01*
X183460000Y-78710000D02*
X181414000Y-78710000D01*
X183460000Y-78750000D02*
X181427000Y-78750000D01*
X183460000Y-78790000D02*
X181440000Y-78790000D01*
X183460000Y-78830000D02*
X181453000Y-78830000D01*
X183460000Y-78870000D02*
X181468000Y-78870000D01*
X183460000Y-78910000D02*
X181483000Y-78910000D01*
X183460000Y-78950000D02*
X181498000Y-78950000D01*
X183460000Y-78990000D02*
X181514000Y-78990000D01*
X183460000Y-79030000D02*
X181531000Y-79030000D01*
X183460000Y-79070000D02*
X181548000Y-79070000D01*
X183460000Y-79110000D02*
X181566000Y-79110000D01*
X183460000Y-79150000D02*
X181585000Y-79150000D01*
X183460000Y-79190000D02*
X181604000Y-79190000D01*
X183460000Y-79230000D02*
X181624000Y-79230000D01*
X183460000Y-79270000D02*
X181645000Y-79270000D01*
X183460000Y-79310000D02*
X181666000Y-79310000D01*
X183460000Y-79350000D02*
X181688000Y-79350000D01*
X183460000Y-79390000D02*
X181711000Y-79390000D01*
X183460000Y-79430000D02*
X181735000Y-79430000D01*
X183460000Y-79470000D02*
X181759000Y-79470000D01*
X183460000Y-79510000D02*
X181784000Y-79510000D01*
X183460000Y-79550000D02*
X181810000Y-79550000D01*
X183460000Y-79590000D02*
X181837000Y-79590000D01*
X183460000Y-79630000D02*
X181864000Y-79630000D01*
X183460000Y-79670000D02*
X181893000Y-79670000D01*
X183460000Y-79710000D02*
X181923000Y-79710000D01*
X183460000Y-79750000D02*
X181953000Y-79750000D01*
X183460000Y-79790000D02*
X181984000Y-79790000D01*
X183460000Y-79830000D02*
X182017000Y-79830000D01*
X183460000Y-79870000D02*
X182050000Y-79870000D01*
X183460000Y-79910000D02*
X182085000Y-79910000D01*
X183460000Y-79950000D02*
X182121000Y-79950000D01*
X183460000Y-79990000D02*
X182158000Y-79990000D01*
X183460000Y-80030000D02*
X182196000Y-80030000D01*
X184902000Y-80990000D02*
X184098000Y-80990000D01*
X185133000Y-80950000D02*
X183867000Y-80950000D01*
X185301000Y-80910000D02*
X183699000Y-80910000D01*
X185439000Y-80870000D02*
X183561000Y-80870000D01*
X185558000Y-80830000D02*
X183442000Y-80830000D01*
X185665000Y-80790000D02*
X183335000Y-80790000D01*
X185761000Y-80750000D02*
X183239000Y-80750000D01*
X185850000Y-80710000D02*
X183150000Y-80710000D01*
X185932000Y-80670000D02*
X183068000Y-80670000D01*
X186009000Y-80630000D02*
X182991000Y-80630000D01*
X186081000Y-80590000D02*
X182919000Y-80590000D01*
X186149000Y-80550000D02*
X182851000Y-80550000D01*
X186214000Y-80510000D02*
X182786000Y-80510000D01*
X186275000Y-80470000D02*
X182725000Y-80470000D01*
X186334000Y-80430000D02*
X182666000Y-80430000D01*
X186339000Y-74249759D02*
X186339000Y-74879759D01*
X186390000Y-80390000D02*
X182610000Y-80390000D01*
X186443000Y-80350000D02*
X182557000Y-80350000D01*
X186495000Y-80310000D02*
X182505000Y-80310000D01*
X186544000Y-80270000D02*
X182456000Y-80270000D01*
X186591000Y-80230000D02*
X182409000Y-80230000D01*
X186637000Y-80190000D02*
X182363000Y-80190000D01*
X186654000Y-74564759D02*
X186024000Y-74564759D01*
X186681000Y-80150000D02*
X182319000Y-80150000D01*
X186723000Y-80110000D02*
X182277000Y-80110000D01*
X186764000Y-80070000D02*
X182236000Y-80070000D01*
X186804000Y-80030000D02*
X185540000Y-80030000D01*
X186842000Y-79990000D02*
X185540000Y-79990000D01*
X186879000Y-79950000D02*
X185540000Y-79950000D01*
X186915000Y-79910000D02*
X185540000Y-79910000D01*
X186950000Y-79870000D02*
X185540000Y-79870000D01*
X186983000Y-79830000D02*
X185540000Y-79830000D01*
X187016000Y-79790000D02*
X185540000Y-79790000D01*
X187047000Y-79750000D02*
X185540000Y-79750000D01*
X187077000Y-79710000D02*
X185540000Y-79710000D01*
X187107000Y-79670000D02*
X185540000Y-79670000D01*
X187136000Y-79630000D02*
X185540000Y-79630000D01*
X187163000Y-79590000D02*
X185540000Y-79590000D01*
X187190000Y-79550000D02*
X185540000Y-79550000D01*
X187216000Y-79510000D02*
X185540000Y-79510000D01*
X187241000Y-79470000D02*
X185540000Y-79470000D01*
X187265000Y-79430000D02*
X185540000Y-79430000D01*
X187289000Y-79390000D02*
X185540000Y-79390000D01*
X187312000Y-79350000D02*
X185540000Y-79350000D01*
X187334000Y-79310000D02*
X185540000Y-79310000D01*
X187355000Y-79270000D02*
X185540000Y-79270000D01*
X187376000Y-79230000D02*
X185540000Y-79230000D01*
X187396000Y-79190000D02*
X185540000Y-79190000D01*
X187415000Y-79150000D02*
X185540000Y-79150000D01*
X187434000Y-79110000D02*
X185540000Y-79110000D01*
X187452000Y-79070000D02*
X185540000Y-79070000D01*
X187469000Y-79030000D02*
X185540000Y-79030000D01*
X187486000Y-78990000D02*
X185540000Y-78990000D01*
X187502000Y-78950000D02*
X185540000Y-78950000D01*
X187517000Y-78910000D02*
X185540000Y-78910000D01*
X187532000Y-78870000D02*
X185540000Y-78870000D01*
X187547000Y-78830000D02*
X185540000Y-78830000D01*
X187560000Y-78790000D02*
X185540000Y-78790000D01*
X187573000Y-78750000D02*
X185540000Y-78750000D01*
X187586000Y-78710000D02*
X185540000Y-78710000D01*
X187598000Y-78670000D02*
X185540000Y-78670000D01*
X187609000Y-78630000D02*
X185540000Y-78630000D01*
X187620000Y-78590000D02*
X185540000Y-78590000D01*
X187631000Y-78550000D02*
X185540000Y-78550000D01*
X187640000Y-78510000D02*
X185540000Y-78510000D01*
X187650000Y-78470000D02*
X185540000Y-78470000D01*
X187659000Y-78430000D02*
X185540000Y-78430000D01*
X187667000Y-78390000D02*
X185540000Y-78390000D01*
X187674000Y-78350000D02*
X185540000Y-78350000D01*
X187682000Y-78310000D02*
X185540000Y-78310000D01*
X187688000Y-78270000D02*
X185540000Y-78270000D01*
X187695000Y-78230000D02*
X185540000Y-78230000D01*
X187700000Y-78190000D02*
X185540000Y-78190000D01*
X187705000Y-78150000D02*
X185540000Y-78150000D01*
X187710000Y-78110000D02*
X185540000Y-78110000D01*
X187714000Y-78070000D02*
X185540000Y-78070000D01*
X187718000Y-78030000D02*
X185540000Y-78030000D01*
X187721000Y-77990000D02*
X185540000Y-77990000D01*
X187724000Y-77950000D02*
X181276000Y-77950000D01*
X187726000Y-77910000D02*
X181274000Y-77910000D01*
X187728000Y-77870000D02*
X181272000Y-77870000D01*
X187729000Y-77830000D02*
X181271000Y-77830000D01*
X187730000Y-77750000D02*
X181270000Y-77750000D01*
X187730000Y-77790000D02*
X181270000Y-77790000D01*
X187770000Y-77750000D02*
G75*
G02*
X181230000Y-77750000I-3270000J0D01*
G01*
X181230000Y-77750000D02*
G75*
G02*
X187770000Y-77750000I3270000J0D01*
G01*
D11*
%TO.C,VoltageDivider1*%
X141378600Y-110674000D02*
X141378600Y-114438559D01*
X143095696Y-120326000D02*
X151904304Y-120326000D01*
X143544961Y-110674000D02*
X141378600Y-110674000D01*
X153621400Y-110674000D02*
X151455039Y-110674000D01*
X153621400Y-114438559D02*
X153621400Y-110674000D01*
D12*
X139295701Y-111971000D02*
G75*
G02*
X138533701Y-111971000I-381000J0D01*
G01*
X138533701Y-111971000D02*
G75*
G02*
X139295701Y-111971000I381000J0D01*
G01*
D13*
%TO.C,U3*%
X166390000Y-30050000D02*
X172810000Y-30050000D01*
X166390000Y-36950000D02*
X172810000Y-36950000D01*
X172810000Y-30050000D02*
X172810000Y-30320000D01*
X172810000Y-36950000D02*
X172810000Y-36680000D01*
X174880000Y-37110000D02*
X174200000Y-37110000D01*
X174540000Y-36640000D01*
X174880000Y-37110000D01*
G36*
X174880000Y-37110000D02*
G01*
X174200000Y-37110000D01*
X174540000Y-36640000D01*
X174880000Y-37110000D01*
G37*
%TO.C,U1*%
X133900000Y-55240000D02*
X133900000Y-61440000D01*
X133900000Y-55240000D02*
X152300000Y-55240000D01*
X133900000Y-80090000D02*
X133900000Y-81090000D01*
X133900000Y-81090000D02*
X135400000Y-81090000D01*
X152300000Y-55240000D02*
X152300000Y-61440000D01*
X152300000Y-81090000D02*
X150800000Y-81090000D01*
X152300000Y-81090000D02*
X152300000Y-80090000D01*
X133900000Y-62115000D02*
X133400000Y-62115000D01*
X133900000Y-61615000D01*
X133900000Y-62115000D01*
G36*
X133900000Y-62115000D02*
G01*
X133400000Y-62115000D01*
X133900000Y-61615000D01*
X133900000Y-62115000D01*
G37*
%TO.C,motor2_c1*%
X189010000Y-41402000D02*
X189010000Y-40598000D01*
X189050000Y-41633000D02*
X189050000Y-40367000D01*
X189090000Y-41801000D02*
X189090000Y-40199000D01*
X189130000Y-41939000D02*
X189130000Y-40061000D01*
X189170000Y-42058000D02*
X189170000Y-39942000D01*
X189210000Y-42165000D02*
X189210000Y-39835000D01*
X189250000Y-42261000D02*
X189250000Y-39739000D01*
X189290000Y-42350000D02*
X189290000Y-39650000D01*
X189330000Y-42432000D02*
X189330000Y-39568000D01*
X189370000Y-42509000D02*
X189370000Y-39491000D01*
X189410000Y-42581000D02*
X189410000Y-39419000D01*
X189450000Y-42649000D02*
X189450000Y-39351000D01*
X189490000Y-42714000D02*
X189490000Y-39286000D01*
X189530000Y-42775000D02*
X189530000Y-39225000D01*
X189570000Y-42834000D02*
X189570000Y-39166000D01*
X189610000Y-42890000D02*
X189610000Y-39110000D01*
X189650000Y-42943000D02*
X189650000Y-39057000D01*
X189690000Y-42995000D02*
X189690000Y-39005000D01*
X189730000Y-43044000D02*
X189730000Y-38956000D01*
X189770000Y-43091000D02*
X189770000Y-38909000D01*
X189810000Y-43137000D02*
X189810000Y-38863000D01*
X189850000Y-43181000D02*
X189850000Y-38819000D01*
X189890000Y-43223000D02*
X189890000Y-38777000D01*
X189930000Y-43264000D02*
X189930000Y-38736000D01*
X189970000Y-39960000D02*
X189970000Y-38696000D01*
X189970000Y-43304000D02*
X189970000Y-42040000D01*
X190010000Y-39960000D02*
X190010000Y-38658000D01*
X190010000Y-43342000D02*
X190010000Y-42040000D01*
X190050000Y-39960000D02*
X190050000Y-38621000D01*
X190050000Y-43379000D02*
X190050000Y-42040000D01*
X190090000Y-39960000D02*
X190090000Y-38585000D01*
X190090000Y-43415000D02*
X190090000Y-42040000D01*
X190130000Y-39960000D02*
X190130000Y-38550000D01*
X190130000Y-43450000D02*
X190130000Y-42040000D01*
X190170000Y-39960000D02*
X190170000Y-38517000D01*
X190170000Y-43483000D02*
X190170000Y-42040000D01*
X190210000Y-39960000D02*
X190210000Y-38484000D01*
X190210000Y-43516000D02*
X190210000Y-42040000D01*
X190250000Y-39960000D02*
X190250000Y-38453000D01*
X190250000Y-43547000D02*
X190250000Y-42040000D01*
X190290000Y-39960000D02*
X190290000Y-38423000D01*
X190290000Y-43577000D02*
X190290000Y-42040000D01*
X190330000Y-39960000D02*
X190330000Y-38393000D01*
X190330000Y-43607000D02*
X190330000Y-42040000D01*
X190370000Y-39960000D02*
X190370000Y-38364000D01*
X190370000Y-43636000D02*
X190370000Y-42040000D01*
X190410000Y-39960000D02*
X190410000Y-38337000D01*
X190410000Y-43663000D02*
X190410000Y-42040000D01*
X190450000Y-39960000D02*
X190450000Y-38310000D01*
X190450000Y-43690000D02*
X190450000Y-42040000D01*
X190490000Y-39960000D02*
X190490000Y-38284000D01*
X190490000Y-43716000D02*
X190490000Y-42040000D01*
X190530000Y-39960000D02*
X190530000Y-38259000D01*
X190530000Y-43741000D02*
X190530000Y-42040000D01*
X190570000Y-39960000D02*
X190570000Y-38235000D01*
X190570000Y-43765000D02*
X190570000Y-42040000D01*
X190610000Y-39960000D02*
X190610000Y-38211000D01*
X190610000Y-43789000D02*
X190610000Y-42040000D01*
X190650000Y-39960000D02*
X190650000Y-38188000D01*
X190650000Y-43812000D02*
X190650000Y-42040000D01*
X190690000Y-39960000D02*
X190690000Y-38166000D01*
X190690000Y-43834000D02*
X190690000Y-42040000D01*
X190730000Y-39960000D02*
X190730000Y-38145000D01*
X190730000Y-43855000D02*
X190730000Y-42040000D01*
X190770000Y-39960000D02*
X190770000Y-38124000D01*
X190770000Y-43876000D02*
X190770000Y-42040000D01*
X190810000Y-39960000D02*
X190810000Y-38104000D01*
X190810000Y-43896000D02*
X190810000Y-42040000D01*
X190850000Y-39960000D02*
X190850000Y-38085000D01*
X190850000Y-43915000D02*
X190850000Y-42040000D01*
X190890000Y-39960000D02*
X190890000Y-38066000D01*
X190890000Y-43934000D02*
X190890000Y-42040000D01*
X190930000Y-39960000D02*
X190930000Y-38048000D01*
X190930000Y-43952000D02*
X190930000Y-42040000D01*
X190970000Y-39960000D02*
X190970000Y-38031000D01*
X190970000Y-43969000D02*
X190970000Y-42040000D01*
X191010000Y-39960000D02*
X191010000Y-38014000D01*
X191010000Y-43986000D02*
X191010000Y-42040000D01*
X191050000Y-39960000D02*
X191050000Y-37998000D01*
X191050000Y-44002000D02*
X191050000Y-42040000D01*
X191090000Y-39960000D02*
X191090000Y-37983000D01*
X191090000Y-44017000D02*
X191090000Y-42040000D01*
X191130000Y-39960000D02*
X191130000Y-37968000D01*
X191130000Y-44032000D02*
X191130000Y-42040000D01*
X191170000Y-39960000D02*
X191170000Y-37953000D01*
X191170000Y-44047000D02*
X191170000Y-42040000D01*
X191210000Y-39960000D02*
X191210000Y-37940000D01*
X191210000Y-44060000D02*
X191210000Y-42040000D01*
X191250000Y-39960000D02*
X191250000Y-37927000D01*
X191250000Y-44073000D02*
X191250000Y-42040000D01*
X191290000Y-39960000D02*
X191290000Y-37914000D01*
X191290000Y-44086000D02*
X191290000Y-42040000D01*
X191330000Y-39960000D02*
X191330000Y-37902000D01*
X191330000Y-44098000D02*
X191330000Y-42040000D01*
X191370000Y-39960000D02*
X191370000Y-37891000D01*
X191370000Y-44109000D02*
X191370000Y-42040000D01*
X191410000Y-39960000D02*
X191410000Y-37880000D01*
X191410000Y-44120000D02*
X191410000Y-42040000D01*
X191450000Y-39960000D02*
X191450000Y-37869000D01*
X191450000Y-44131000D02*
X191450000Y-42040000D01*
X191490000Y-39960000D02*
X191490000Y-37860000D01*
X191490000Y-44140000D02*
X191490000Y-42040000D01*
X191530000Y-39960000D02*
X191530000Y-37850000D01*
X191530000Y-44150000D02*
X191530000Y-42040000D01*
X191570000Y-39960000D02*
X191570000Y-37841000D01*
X191570000Y-44159000D02*
X191570000Y-42040000D01*
X191610000Y-39960000D02*
X191610000Y-37833000D01*
X191610000Y-44167000D02*
X191610000Y-42040000D01*
X191650000Y-39960000D02*
X191650000Y-37826000D01*
X191650000Y-44174000D02*
X191650000Y-42040000D01*
X191690000Y-39960000D02*
X191690000Y-37818000D01*
X191690000Y-44182000D02*
X191690000Y-42040000D01*
X191730000Y-39960000D02*
X191730000Y-37812000D01*
X191730000Y-44188000D02*
X191730000Y-42040000D01*
X191770000Y-39960000D02*
X191770000Y-37805000D01*
X191770000Y-44195000D02*
X191770000Y-42040000D01*
X191810000Y-39960000D02*
X191810000Y-37800000D01*
X191810000Y-44200000D02*
X191810000Y-42040000D01*
X191850000Y-39960000D02*
X191850000Y-37795000D01*
X191850000Y-44205000D02*
X191850000Y-42040000D01*
X191890000Y-39960000D02*
X191890000Y-37790000D01*
X191890000Y-44210000D02*
X191890000Y-42040000D01*
X191930000Y-39960000D02*
X191930000Y-37786000D01*
X191930000Y-44214000D02*
X191930000Y-42040000D01*
X191970000Y-39960000D02*
X191970000Y-37782000D01*
X191970000Y-44218000D02*
X191970000Y-42040000D01*
X192010000Y-39960000D02*
X192010000Y-37779000D01*
X192010000Y-44221000D02*
X192010000Y-42040000D01*
X192050000Y-44224000D02*
X192050000Y-37776000D01*
X192090000Y-44226000D02*
X192090000Y-37774000D01*
X192130000Y-44228000D02*
X192130000Y-37772000D01*
X192170000Y-44229000D02*
X192170000Y-37771000D01*
X192210000Y-44230000D02*
X192210000Y-37770000D01*
X192250000Y-44230000D02*
X192250000Y-37770000D01*
X195435241Y-43154000D02*
X195435241Y-42524000D01*
X195750241Y-42839000D02*
X195120241Y-42839000D01*
X195520000Y-41000000D02*
G75*
G02*
X188980000Y-41000000I-3270000J0D01*
G01*
X188980000Y-41000000D02*
G75*
G02*
X195520000Y-41000000I3270000J0D01*
G01*
%TO.C,R2*%
X119765000Y-34272936D02*
X119765000Y-34727064D01*
X121235000Y-34272936D02*
X121235000Y-34727064D01*
%TO.C,En1*%
X109850000Y-25500000D02*
X111000000Y-24350000D01*
X109850000Y-29500000D02*
X109850000Y-25500000D01*
X111000000Y-24350000D02*
X111700000Y-24350000D01*
X111019000Y-30650000D02*
X109850000Y-29500000D01*
X111700000Y-30650000D02*
X111019000Y-30650000D01*
X114300000Y-30650000D02*
X115000000Y-30650000D01*
X115000000Y-24350000D02*
X114300000Y-24350000D01*
X115000000Y-30650000D02*
X116150000Y-29500000D01*
X116150000Y-25500000D02*
X115000000Y-24350000D01*
X116150000Y-29500000D02*
X116150000Y-25500000D01*
%TO.C,mosfet1*%
X168200000Y-106710000D02*
X171800000Y-106710000D01*
X167643600Y-103761193D02*
G75*
G02*
X170000000Y-102260000I2356400J-1098807D01*
G01*
X168200000Y-106710000D02*
G75*
G02*
X167675816Y-105982795I1800000J1850000D01*
G01*
X170000000Y-102260000D02*
G75*
G02*
X172356400Y-103761193I0J-2600000D01*
G01*
X172324184Y-105982795D02*
G75*
G02*
X171800000Y-106710000I-2324184J1122795D01*
G01*
%TO.C,tr3*%
X185272936Y-97765000D02*
X185727064Y-97765000D01*
X185272936Y-99235000D02*
X185727064Y-99235000D01*
%TO.C,Motor_1*%
X159710000Y-72240000D02*
X159710000Y-85070000D01*
X159710000Y-74910000D02*
X180290000Y-74910000D01*
X159710000Y-85070000D02*
X162380000Y-85070000D01*
X159710000Y-86340000D02*
X159710000Y-87740000D01*
X159710000Y-87740000D02*
X161110000Y-87740000D01*
X162380000Y-85070000D02*
X162380000Y-87740000D01*
X162380000Y-85070000D02*
X180290000Y-85070000D01*
X162380000Y-87740000D02*
X180290000Y-87740000D01*
X180290000Y-72240000D02*
X159710000Y-72240000D01*
X180290000Y-87740000D02*
X180290000Y-72240000D01*
%TO.C,J3*%
X103880000Y-50380000D02*
X111920000Y-50380000D01*
X103880000Y-121120000D02*
X103880000Y-50380000D01*
X103880000Y-121120000D02*
X111920000Y-121120000D01*
X107500000Y-51188000D02*
X107500000Y-50380000D01*
X107500000Y-56188000D02*
X107500000Y-54812000D01*
X107500000Y-61188000D02*
X107500000Y-59812000D01*
X107500000Y-66188000D02*
X107500000Y-64812000D01*
X107500000Y-71188000D02*
X107500000Y-69812000D01*
X107500000Y-76188000D02*
X107500000Y-74812000D01*
X107500000Y-81188000D02*
X107500000Y-79812000D01*
X107500000Y-86188000D02*
X107500000Y-84812000D01*
X107500000Y-91188000D02*
X107500000Y-89812000D01*
X107500000Y-96188000D02*
X107500000Y-94812000D01*
X107500000Y-101188000D02*
X107500000Y-99812000D01*
X107500000Y-106188000D02*
X107500000Y-104812000D01*
X107500000Y-111188000D02*
X107500000Y-109812000D01*
X107500000Y-116120000D02*
X107500000Y-114812000D01*
X107500000Y-121120000D02*
X107500000Y-119880000D01*
X108500000Y-51188000D02*
X108500000Y-50380000D01*
X108500000Y-56188000D02*
X108500000Y-54812000D01*
X108500000Y-61188000D02*
X108500000Y-59812000D01*
X108500000Y-66188000D02*
X108500000Y-64812000D01*
X108500000Y-71188000D02*
X108500000Y-69812000D01*
X108500000Y-76188000D02*
X108500000Y-74812000D01*
X108500000Y-81188000D02*
X108500000Y-79812000D01*
X108500000Y-86188000D02*
X108500000Y-84812000D01*
X108500000Y-91188000D02*
X108500000Y-89812000D01*
X108500000Y-96188000D02*
X108500000Y-94812000D01*
X108500000Y-101188000D02*
X108500000Y-99812000D01*
X108500000Y-106188000D02*
X108500000Y-104812000D01*
X108500000Y-111188000D02*
X108500000Y-109812000D01*
X108500000Y-116120000D02*
X108500000Y-114812000D01*
X108500000Y-121120000D02*
X108500000Y-119880000D01*
X109800000Y-52457000D02*
X109800000Y-50380000D01*
X109800000Y-57457000D02*
X109800000Y-53543000D01*
X109800000Y-62457000D02*
X109800000Y-58543000D01*
X109800000Y-67457000D02*
X109800000Y-63543000D01*
X109800000Y-72457000D02*
X109800000Y-68543000D01*
X109800000Y-77457000D02*
X109800000Y-73543000D01*
X109800000Y-82457000D02*
X109800000Y-78543000D01*
X109800000Y-87457000D02*
X109800000Y-83543000D01*
X109800000Y-92457000D02*
X109800000Y-88543000D01*
X109800000Y-97457000D02*
X109800000Y-93543000D01*
X109800000Y-102457000D02*
X109800000Y-98543000D01*
X109800000Y-107457000D02*
X109800000Y-103543000D01*
X109800000Y-112457000D02*
X109800000Y-108543000D01*
X109800000Y-116120000D02*
X109800000Y-113543000D01*
X109800000Y-121120000D02*
X109800000Y-119880000D01*
X111920000Y-117700000D02*
X111920000Y-50380000D01*
X111920000Y-121120000D02*
X111920000Y-118300000D01*
X112530000Y-118440000D02*
X111920000Y-118000000D01*
X112530000Y-117560000D01*
X112530000Y-118440000D01*
G36*
X112530000Y-118440000D02*
G01*
X111920000Y-118000000D01*
X112530000Y-117560000D01*
X112530000Y-118440000D01*
G37*
%TO.C,vd_c3*%
X144798752Y-98765000D02*
X144276248Y-98765000D01*
X144798752Y-100235000D02*
X144276248Y-100235000D01*
%TO.C,C8*%
X121765000Y-63881437D02*
X121765000Y-63358933D01*
X123235000Y-63881437D02*
X123235000Y-63358933D01*
%TO.C,reg_5V_smoothing_caps_out1*%
X164855100Y-26283000D02*
X164855100Y-25717000D01*
X164895100Y-26517000D02*
X164895100Y-25483000D01*
X164935100Y-26677000D02*
X164935100Y-25323000D01*
X164975100Y-26805000D02*
X164975100Y-25195000D01*
X165015100Y-26914000D02*
X165015100Y-25086000D01*
X165055100Y-27011000D02*
X165055100Y-24989000D01*
X165095100Y-27098000D02*
X165095100Y-24902000D01*
X165135100Y-27177000D02*
X165135100Y-24823000D01*
X165175100Y-24960000D02*
X165175100Y-24749000D01*
X165175100Y-27251000D02*
X165175100Y-27040000D01*
X165215100Y-24960000D02*
X165215100Y-24681000D01*
X165215100Y-27319000D02*
X165215100Y-27040000D01*
X165255100Y-24960000D02*
X165255100Y-24617000D01*
X165255100Y-27383000D02*
X165255100Y-27040000D01*
X165295100Y-24960000D02*
X165295100Y-24557000D01*
X165295100Y-27443000D02*
X165295100Y-27040000D01*
X165335100Y-24960000D02*
X165335100Y-24501000D01*
X165335100Y-27499000D02*
X165335100Y-27040000D01*
X165375100Y-24960000D02*
X165375100Y-24447000D01*
X165375100Y-27553000D02*
X165375100Y-27040000D01*
X165415100Y-24960000D02*
X165415100Y-24396000D01*
X165415100Y-27604000D02*
X165415100Y-27040000D01*
X165455100Y-24960000D02*
X165455100Y-24348000D01*
X165455100Y-27652000D02*
X165455100Y-27040000D01*
X165495100Y-24960000D02*
X165495100Y-24301000D01*
X165495100Y-27699000D02*
X165495100Y-27040000D01*
X165535100Y-24960000D02*
X165535100Y-24257000D01*
X165535100Y-27743000D02*
X165535100Y-27040000D01*
X165575100Y-24960000D02*
X165575100Y-24215000D01*
X165575100Y-27785000D02*
X165575100Y-27040000D01*
X165615100Y-24960000D02*
X165615100Y-24175000D01*
X165615100Y-27825000D02*
X165615100Y-27040000D01*
X165655100Y-24960000D02*
X165655100Y-24136000D01*
X165655100Y-27864000D02*
X165655100Y-27040000D01*
X165695100Y-24960000D02*
X165695100Y-24099000D01*
X165695100Y-27901000D02*
X165695100Y-27040000D01*
X165735100Y-24960000D02*
X165735100Y-24064000D01*
X165735100Y-27936000D02*
X165735100Y-27040000D01*
X165775100Y-24960000D02*
X165775100Y-24030000D01*
X165775100Y-27970000D02*
X165775100Y-27040000D01*
X165815100Y-24960000D02*
X165815100Y-23997000D01*
X165815100Y-28003000D02*
X165815100Y-27040000D01*
X165855100Y-24960000D02*
X165855100Y-23965000D01*
X165855100Y-28035000D02*
X165855100Y-27040000D01*
X165895100Y-24960000D02*
X165895100Y-23935000D01*
X165895100Y-28065000D02*
X165895100Y-27040000D01*
X165935100Y-24960000D02*
X165935100Y-23906000D01*
X165935100Y-28094000D02*
X165935100Y-27040000D01*
X165975100Y-24960000D02*
X165975100Y-23878000D01*
X165975100Y-28122000D02*
X165975100Y-27040000D01*
X166015100Y-24960000D02*
X166015100Y-23851000D01*
X166015100Y-28149000D02*
X166015100Y-27040000D01*
X166055100Y-24960000D02*
X166055100Y-23825000D01*
X166055100Y-28175000D02*
X166055100Y-27040000D01*
X166095100Y-24960000D02*
X166095100Y-23801000D01*
X166095100Y-28199000D02*
X166095100Y-27040000D01*
X166135100Y-24960000D02*
X166135100Y-23777000D01*
X166135100Y-28223000D02*
X166135100Y-27040000D01*
X166175100Y-24960000D02*
X166175100Y-23754000D01*
X166175100Y-28246000D02*
X166175100Y-27040000D01*
X166215100Y-24960000D02*
X166215100Y-23732000D01*
X166215100Y-28268000D02*
X166215100Y-27040000D01*
X166255100Y-24960000D02*
X166255100Y-23711000D01*
X166255100Y-28289000D02*
X166255100Y-27040000D01*
X166295100Y-24960000D02*
X166295100Y-23691000D01*
X166295100Y-28309000D02*
X166295100Y-27040000D01*
X166335100Y-24960000D02*
X166335100Y-23671000D01*
X166335100Y-28329000D02*
X166335100Y-27040000D01*
X166375100Y-24960000D02*
X166375100Y-23653000D01*
X166375100Y-28347000D02*
X166375100Y-27040000D01*
X166415100Y-24960000D02*
X166415100Y-23635000D01*
X166415100Y-28365000D02*
X166415100Y-27040000D01*
X166455100Y-24960000D02*
X166455100Y-23618000D01*
X166455100Y-28382000D02*
X166455100Y-27040000D01*
X166495100Y-24960000D02*
X166495100Y-23602000D01*
X166495100Y-28398000D02*
X166495100Y-27040000D01*
X166535100Y-24960000D02*
X166535100Y-23587000D01*
X166535100Y-28413000D02*
X166535100Y-27040000D01*
X166575100Y-24960000D02*
X166575100Y-23572000D01*
X166575100Y-28428000D02*
X166575100Y-27040000D01*
X166615100Y-24960000D02*
X166615100Y-23558000D01*
X166615100Y-28442000D02*
X166615100Y-27040000D01*
X166655100Y-24960000D02*
X166655100Y-23545000D01*
X166655100Y-28455000D02*
X166655100Y-27040000D01*
X166695100Y-24960000D02*
X166695100Y-23533000D01*
X166695100Y-28467000D02*
X166695100Y-27040000D01*
X166735100Y-24960000D02*
X166735100Y-23521000D01*
X166735100Y-28479000D02*
X166735100Y-27040000D01*
X166775100Y-24960000D02*
X166775100Y-23510000D01*
X166775100Y-28490000D02*
X166775100Y-27040000D01*
X166815100Y-24960000D02*
X166815100Y-23499000D01*
X166815100Y-28501000D02*
X166815100Y-27040000D01*
X166855100Y-24960000D02*
X166855100Y-23490000D01*
X166855100Y-28510000D02*
X166855100Y-27040000D01*
X166895100Y-24960000D02*
X166895100Y-23481000D01*
X166895100Y-28519000D02*
X166895100Y-27040000D01*
X166935100Y-24960000D02*
X166935100Y-23472000D01*
X166935100Y-28528000D02*
X166935100Y-27040000D01*
X166975100Y-24960000D02*
X166975100Y-23464000D01*
X166975100Y-28536000D02*
X166975100Y-27040000D01*
X167015100Y-24960000D02*
X167015100Y-23457000D01*
X167015100Y-28543000D02*
X167015100Y-27040000D01*
X167055100Y-24960000D02*
X167055100Y-23451000D01*
X167055100Y-28549000D02*
X167055100Y-27040000D01*
X167095100Y-24960000D02*
X167095100Y-23445000D01*
X167095100Y-28555000D02*
X167095100Y-27040000D01*
X167135100Y-24960000D02*
X167135100Y-23440000D01*
X167135100Y-28560000D02*
X167135100Y-27040000D01*
X167175100Y-24960000D02*
X167175100Y-23435000D01*
X167175100Y-28565000D02*
X167175100Y-27040000D01*
X167215100Y-24960000D02*
X167215100Y-23431000D01*
X167215100Y-28569000D02*
X167215100Y-27040000D01*
X167255100Y-28572000D02*
X167255100Y-23428000D01*
X167295100Y-28575000D02*
X167295100Y-23425000D01*
X167335100Y-28577000D02*
X167335100Y-23423000D01*
X167375100Y-28579000D02*
X167375100Y-23421000D01*
X167415100Y-28580000D02*
X167415100Y-23420000D01*
X167455100Y-28580000D02*
X167455100Y-23420000D01*
X170009875Y-27725000D02*
X170009875Y-27225000D01*
X170259875Y-27475000D02*
X169759875Y-27475000D01*
X170075100Y-26000000D02*
G75*
G02*
X164835100Y-26000000I-2620000J0D01*
G01*
X164835100Y-26000000D02*
G75*
G02*
X170075100Y-26000000I2620000J0D01*
G01*
%TO.C,J4*%
X124448100Y-119473700D02*
X124448100Y-111433700D01*
X125256100Y-114853700D02*
X124448100Y-114853700D01*
X125256100Y-115853700D02*
X124448100Y-115853700D01*
X126525100Y-113553700D02*
X124448100Y-113553700D01*
X130188100Y-113553700D02*
X127611100Y-113553700D01*
X130188100Y-114853700D02*
X128880100Y-114853700D01*
X130188100Y-115853700D02*
X128880100Y-115853700D01*
X131768100Y-111433700D02*
X124448100Y-111433700D01*
X135188100Y-111433700D02*
X132368100Y-111433700D01*
X135188100Y-113553700D02*
X133948100Y-113553700D01*
X135188100Y-114853700D02*
X133948100Y-114853700D01*
X135188100Y-115853700D02*
X133948100Y-115853700D01*
X135188100Y-119473700D02*
X124448100Y-119473700D01*
X135188100Y-119473700D02*
X135188100Y-111433700D01*
X132068100Y-111433700D02*
X131628100Y-110823700D01*
X132508100Y-110823700D01*
X132068100Y-111433700D01*
G36*
X132068100Y-111433700D02*
G01*
X131628100Y-110823700D01*
X132508100Y-110823700D01*
X132068100Y-111433700D01*
G37*
%TO.C,C6*%
X124765000Y-63873752D02*
X124765000Y-63351248D01*
X126235000Y-63873752D02*
X126235000Y-63351248D01*
%TO.C,reg_5V_smoothing_caps_in1*%
X171510000Y-25902000D02*
X171510000Y-25098000D01*
X171550000Y-26133000D02*
X171550000Y-24867000D01*
X171590000Y-26301000D02*
X171590000Y-24699000D01*
X171630000Y-26439000D02*
X171630000Y-24561000D01*
X171670000Y-26558000D02*
X171670000Y-24442000D01*
X171710000Y-26665000D02*
X171710000Y-24335000D01*
X171750000Y-26761000D02*
X171750000Y-24239000D01*
X171790000Y-26850000D02*
X171790000Y-24150000D01*
X171830000Y-26932000D02*
X171830000Y-24068000D01*
X171870000Y-27009000D02*
X171870000Y-23991000D01*
X171910000Y-27081000D02*
X171910000Y-23919000D01*
X171950000Y-27149000D02*
X171950000Y-23851000D01*
X171990000Y-27214000D02*
X171990000Y-23786000D01*
X172030000Y-27275000D02*
X172030000Y-23725000D01*
X172070000Y-27334000D02*
X172070000Y-23666000D01*
X172110000Y-27390000D02*
X172110000Y-23610000D01*
X172150000Y-27443000D02*
X172150000Y-23557000D01*
X172190000Y-27495000D02*
X172190000Y-23505000D01*
X172230000Y-27544000D02*
X172230000Y-23456000D01*
X172270000Y-27591000D02*
X172270000Y-23409000D01*
X172310000Y-27637000D02*
X172310000Y-23363000D01*
X172350000Y-27681000D02*
X172350000Y-23319000D01*
X172390000Y-27723000D02*
X172390000Y-23277000D01*
X172430000Y-27764000D02*
X172430000Y-23236000D01*
X172470000Y-24460000D02*
X172470000Y-23196000D01*
X172470000Y-27804000D02*
X172470000Y-26540000D01*
X172510000Y-24460000D02*
X172510000Y-23158000D01*
X172510000Y-27842000D02*
X172510000Y-26540000D01*
X172550000Y-24460000D02*
X172550000Y-23121000D01*
X172550000Y-27879000D02*
X172550000Y-26540000D01*
X172590000Y-24460000D02*
X172590000Y-23085000D01*
X172590000Y-27915000D02*
X172590000Y-26540000D01*
X172630000Y-24460000D02*
X172630000Y-23050000D01*
X172630000Y-27950000D02*
X172630000Y-26540000D01*
X172670000Y-24460000D02*
X172670000Y-23017000D01*
X172670000Y-27983000D02*
X172670000Y-26540000D01*
X172710000Y-24460000D02*
X172710000Y-22984000D01*
X172710000Y-28016000D02*
X172710000Y-26540000D01*
X172750000Y-24460000D02*
X172750000Y-22953000D01*
X172750000Y-28047000D02*
X172750000Y-26540000D01*
X172790000Y-24460000D02*
X172790000Y-22923000D01*
X172790000Y-28077000D02*
X172790000Y-26540000D01*
X172830000Y-24460000D02*
X172830000Y-22893000D01*
X172830000Y-28107000D02*
X172830000Y-26540000D01*
X172870000Y-24460000D02*
X172870000Y-22864000D01*
X172870000Y-28136000D02*
X172870000Y-26540000D01*
X172910000Y-24460000D02*
X172910000Y-22837000D01*
X172910000Y-28163000D02*
X172910000Y-26540000D01*
X172950000Y-24460000D02*
X172950000Y-22810000D01*
X172950000Y-28190000D02*
X172950000Y-26540000D01*
X172990000Y-24460000D02*
X172990000Y-22784000D01*
X172990000Y-28216000D02*
X172990000Y-26540000D01*
X173030000Y-24460000D02*
X173030000Y-22759000D01*
X173030000Y-28241000D02*
X173030000Y-26540000D01*
X173070000Y-24460000D02*
X173070000Y-22735000D01*
X173070000Y-28265000D02*
X173070000Y-26540000D01*
X173110000Y-24460000D02*
X173110000Y-22711000D01*
X173110000Y-28289000D02*
X173110000Y-26540000D01*
X173150000Y-24460000D02*
X173150000Y-22688000D01*
X173150000Y-28312000D02*
X173150000Y-26540000D01*
X173190000Y-24460000D02*
X173190000Y-22666000D01*
X173190000Y-28334000D02*
X173190000Y-26540000D01*
X173230000Y-24460000D02*
X173230000Y-22645000D01*
X173230000Y-28355000D02*
X173230000Y-26540000D01*
X173270000Y-24460000D02*
X173270000Y-22624000D01*
X173270000Y-28376000D02*
X173270000Y-26540000D01*
X173310000Y-24460000D02*
X173310000Y-22604000D01*
X173310000Y-28396000D02*
X173310000Y-26540000D01*
X173350000Y-24460000D02*
X173350000Y-22585000D01*
X173350000Y-28415000D02*
X173350000Y-26540000D01*
X173390000Y-24460000D02*
X173390000Y-22566000D01*
X173390000Y-28434000D02*
X173390000Y-26540000D01*
X173430000Y-24460000D02*
X173430000Y-22548000D01*
X173430000Y-28452000D02*
X173430000Y-26540000D01*
X173470000Y-24460000D02*
X173470000Y-22531000D01*
X173470000Y-28469000D02*
X173470000Y-26540000D01*
X173510000Y-24460000D02*
X173510000Y-22514000D01*
X173510000Y-28486000D02*
X173510000Y-26540000D01*
X173550000Y-24460000D02*
X173550000Y-22498000D01*
X173550000Y-28502000D02*
X173550000Y-26540000D01*
X173590000Y-24460000D02*
X173590000Y-22483000D01*
X173590000Y-28517000D02*
X173590000Y-26540000D01*
X173630000Y-24460000D02*
X173630000Y-22468000D01*
X173630000Y-28532000D02*
X173630000Y-26540000D01*
X173670000Y-24460000D02*
X173670000Y-22453000D01*
X173670000Y-28547000D02*
X173670000Y-26540000D01*
X173710000Y-24460000D02*
X173710000Y-22440000D01*
X173710000Y-28560000D02*
X173710000Y-26540000D01*
X173750000Y-24460000D02*
X173750000Y-22427000D01*
X173750000Y-28573000D02*
X173750000Y-26540000D01*
X173790000Y-24460000D02*
X173790000Y-22414000D01*
X173790000Y-28586000D02*
X173790000Y-26540000D01*
X173830000Y-24460000D02*
X173830000Y-22402000D01*
X173830000Y-28598000D02*
X173830000Y-26540000D01*
X173870000Y-24460000D02*
X173870000Y-22391000D01*
X173870000Y-28609000D02*
X173870000Y-26540000D01*
X173910000Y-24460000D02*
X173910000Y-22380000D01*
X173910000Y-28620000D02*
X173910000Y-26540000D01*
X173950000Y-24460000D02*
X173950000Y-22369000D01*
X173950000Y-28631000D02*
X173950000Y-26540000D01*
X173990000Y-24460000D02*
X173990000Y-22360000D01*
X173990000Y-28640000D02*
X173990000Y-26540000D01*
X174030000Y-24460000D02*
X174030000Y-22350000D01*
X174030000Y-28650000D02*
X174030000Y-26540000D01*
X174070000Y-24460000D02*
X174070000Y-22341000D01*
X174070000Y-28659000D02*
X174070000Y-26540000D01*
X174110000Y-24460000D02*
X174110000Y-22333000D01*
X174110000Y-28667000D02*
X174110000Y-26540000D01*
X174150000Y-24460000D02*
X174150000Y-22326000D01*
X174150000Y-28674000D02*
X174150000Y-26540000D01*
X174190000Y-24460000D02*
X174190000Y-22318000D01*
X174190000Y-28682000D02*
X174190000Y-26540000D01*
X174230000Y-24460000D02*
X174230000Y-22312000D01*
X174230000Y-28688000D02*
X174230000Y-26540000D01*
X174270000Y-24460000D02*
X174270000Y-22305000D01*
X174270000Y-28695000D02*
X174270000Y-26540000D01*
X174310000Y-24460000D02*
X174310000Y-22300000D01*
X174310000Y-28700000D02*
X174310000Y-26540000D01*
X174350000Y-24460000D02*
X174350000Y-22295000D01*
X174350000Y-28705000D02*
X174350000Y-26540000D01*
X174390000Y-24460000D02*
X174390000Y-22290000D01*
X174390000Y-28710000D02*
X174390000Y-26540000D01*
X174430000Y-24460000D02*
X174430000Y-22286000D01*
X174430000Y-28714000D02*
X174430000Y-26540000D01*
X174470000Y-24460000D02*
X174470000Y-22282000D01*
X174470000Y-28718000D02*
X174470000Y-26540000D01*
X174510000Y-24460000D02*
X174510000Y-22279000D01*
X174510000Y-28721000D02*
X174510000Y-26540000D01*
X174550000Y-28724000D02*
X174550000Y-22276000D01*
X174590000Y-28726000D02*
X174590000Y-22274000D01*
X174630000Y-28728000D02*
X174630000Y-22272000D01*
X174670000Y-28729000D02*
X174670000Y-22271000D01*
X174710000Y-28730000D02*
X174710000Y-22270000D01*
X174750000Y-28730000D02*
X174750000Y-22270000D01*
X177935241Y-27654000D02*
X177935241Y-27024000D01*
X178250241Y-27339000D02*
X177620241Y-27339000D01*
X178020000Y-25500000D02*
G75*
G02*
X171480000Y-25500000I-3270000J0D01*
G01*
X171480000Y-25500000D02*
G75*
G02*
X178020000Y-25500000I3270000J0D01*
G01*
%TO.C,D1*%
X184760000Y-34000000D02*
X185780000Y-34000000D01*
X185780000Y-32530000D02*
X185780000Y-35470000D01*
X185780000Y-35470000D02*
X191220000Y-35470000D01*
X186560000Y-32530000D02*
X186560000Y-35470000D01*
X186680000Y-32530000D02*
X186680000Y-35470000D01*
X186800000Y-32530000D02*
X186800000Y-35470000D01*
X191220000Y-32530000D02*
X185780000Y-32530000D01*
X191220000Y-35470000D02*
X191220000Y-32530000D01*
X192240000Y-34000000D02*
X191220000Y-34000000D01*
%TO.C,reg_3v3_smoother_in1*%
X147839000Y-28567380D02*
X147839000Y-29197380D01*
X148154000Y-28882380D02*
X147524000Y-28882380D01*
X149230000Y-32067621D02*
X142770000Y-32067621D01*
X149230000Y-32107621D02*
X142770000Y-32107621D01*
X149229000Y-32147621D02*
X142771000Y-32147621D01*
X149228000Y-32187621D02*
X142772000Y-32187621D01*
X149226000Y-32227621D02*
X142774000Y-32227621D01*
X149224000Y-32267621D02*
X142776000Y-32267621D01*
X149221000Y-32307621D02*
X147040000Y-32307621D01*
X144960000Y-32307621D02*
X142779000Y-32307621D01*
X149218000Y-32347621D02*
X147040000Y-32347621D01*
X144960000Y-32347621D02*
X142782000Y-32347621D01*
X149214000Y-32387621D02*
X147040000Y-32387621D01*
X144960000Y-32387621D02*
X142786000Y-32387621D01*
X149210000Y-32427621D02*
X147040000Y-32427621D01*
X144960000Y-32427621D02*
X142790000Y-32427621D01*
X149205000Y-32467621D02*
X147040000Y-32467621D01*
X144960000Y-32467621D02*
X142795000Y-32467621D01*
X149200000Y-32507621D02*
X147040000Y-32507621D01*
X144960000Y-32507621D02*
X142800000Y-32507621D01*
X149195000Y-32547621D02*
X147040000Y-32547621D01*
X144960000Y-32547621D02*
X142805000Y-32547621D01*
X149188000Y-32587621D02*
X147040000Y-32587621D01*
X144960000Y-32587621D02*
X142812000Y-32587621D01*
X149182000Y-32627621D02*
X147040000Y-32627621D01*
X144960000Y-32627621D02*
X142818000Y-32627621D01*
X149174000Y-32667621D02*
X147040000Y-32667621D01*
X144960000Y-32667621D02*
X142826000Y-32667621D01*
X149167000Y-32707621D02*
X147040000Y-32707621D01*
X144960000Y-32707621D02*
X142833000Y-32707621D01*
X149159000Y-32747621D02*
X147040000Y-32747621D01*
X144960000Y-32747621D02*
X142841000Y-32747621D01*
X149150000Y-32787621D02*
X147040000Y-32787621D01*
X144960000Y-32787621D02*
X142850000Y-32787621D01*
X149140000Y-32827621D02*
X147040000Y-32827621D01*
X144960000Y-32827621D02*
X142860000Y-32827621D01*
X149131000Y-32867621D02*
X147040000Y-32867621D01*
X144960000Y-32867621D02*
X142869000Y-32867621D01*
X149120000Y-32907621D02*
X147040000Y-32907621D01*
X144960000Y-32907621D02*
X142880000Y-32907621D01*
X149109000Y-32947621D02*
X147040000Y-32947621D01*
X144960000Y-32947621D02*
X142891000Y-32947621D01*
X149098000Y-32987621D02*
X147040000Y-32987621D01*
X144960000Y-32987621D02*
X142902000Y-32987621D01*
X149086000Y-33027621D02*
X147040000Y-33027621D01*
X144960000Y-33027621D02*
X142914000Y-33027621D01*
X149073000Y-33067621D02*
X147040000Y-33067621D01*
X144960000Y-33067621D02*
X142927000Y-33067621D01*
X149060000Y-33107621D02*
X147040000Y-33107621D01*
X144960000Y-33107621D02*
X142940000Y-33107621D01*
X149047000Y-33147621D02*
X147040000Y-33147621D01*
X144960000Y-33147621D02*
X142953000Y-33147621D01*
X149032000Y-33187621D02*
X147040000Y-33187621D01*
X144960000Y-33187621D02*
X142968000Y-33187621D01*
X149017000Y-33227621D02*
X147040000Y-33227621D01*
X144960000Y-33227621D02*
X142983000Y-33227621D01*
X149002000Y-33267621D02*
X147040000Y-33267621D01*
X144960000Y-33267621D02*
X142998000Y-33267621D01*
X148986000Y-33307621D02*
X147040000Y-33307621D01*
X144960000Y-33307621D02*
X143014000Y-33307621D01*
X148969000Y-33347621D02*
X147040000Y-33347621D01*
X144960000Y-33347621D02*
X143031000Y-33347621D01*
X148952000Y-33387621D02*
X147040000Y-33387621D01*
X144960000Y-33387621D02*
X143048000Y-33387621D01*
X148934000Y-33427621D02*
X147040000Y-33427621D01*
X144960000Y-33427621D02*
X143066000Y-33427621D01*
X148915000Y-33467621D02*
X147040000Y-33467621D01*
X144960000Y-33467621D02*
X143085000Y-33467621D01*
X148896000Y-33507621D02*
X147040000Y-33507621D01*
X144960000Y-33507621D02*
X143104000Y-33507621D01*
X148876000Y-33547621D02*
X147040000Y-33547621D01*
X144960000Y-33547621D02*
X143124000Y-33547621D01*
X148855000Y-33587621D02*
X147040000Y-33587621D01*
X144960000Y-33587621D02*
X143145000Y-33587621D01*
X148834000Y-33627621D02*
X147040000Y-33627621D01*
X144960000Y-33627621D02*
X143166000Y-33627621D01*
X148812000Y-33667621D02*
X147040000Y-33667621D01*
X144960000Y-33667621D02*
X143188000Y-33667621D01*
X148789000Y-33707621D02*
X147040000Y-33707621D01*
X144960000Y-33707621D02*
X143211000Y-33707621D01*
X148765000Y-33747621D02*
X147040000Y-33747621D01*
X144960000Y-33747621D02*
X143235000Y-33747621D01*
X148741000Y-33787621D02*
X147040000Y-33787621D01*
X144960000Y-33787621D02*
X143259000Y-33787621D01*
X148716000Y-33827621D02*
X147040000Y-33827621D01*
X144960000Y-33827621D02*
X143284000Y-33827621D01*
X148690000Y-33867621D02*
X147040000Y-33867621D01*
X144960000Y-33867621D02*
X143310000Y-33867621D01*
X148663000Y-33907621D02*
X147040000Y-33907621D01*
X144960000Y-33907621D02*
X143337000Y-33907621D01*
X148636000Y-33947621D02*
X147040000Y-33947621D01*
X144960000Y-33947621D02*
X143364000Y-33947621D01*
X148607000Y-33987621D02*
X147040000Y-33987621D01*
X144960000Y-33987621D02*
X143393000Y-33987621D01*
X148577000Y-34027621D02*
X147040000Y-34027621D01*
X144960000Y-34027621D02*
X143423000Y-34027621D01*
X148547000Y-34067621D02*
X147040000Y-34067621D01*
X144960000Y-34067621D02*
X143453000Y-34067621D01*
X148516000Y-34107621D02*
X147040000Y-34107621D01*
X144960000Y-34107621D02*
X143484000Y-34107621D01*
X148483000Y-34147621D02*
X147040000Y-34147621D01*
X144960000Y-34147621D02*
X143517000Y-34147621D01*
X148450000Y-34187621D02*
X147040000Y-34187621D01*
X144960000Y-34187621D02*
X143550000Y-34187621D01*
X148415000Y-34227621D02*
X147040000Y-34227621D01*
X144960000Y-34227621D02*
X143585000Y-34227621D01*
X148379000Y-34267621D02*
X147040000Y-34267621D01*
X144960000Y-34267621D02*
X143621000Y-34267621D01*
X148342000Y-34307621D02*
X147040000Y-34307621D01*
X144960000Y-34307621D02*
X143658000Y-34307621D01*
X148304000Y-34347621D02*
X147040000Y-34347621D01*
X144960000Y-34347621D02*
X143696000Y-34347621D01*
X148264000Y-34387621D02*
X143736000Y-34387621D01*
X148223000Y-34427621D02*
X143777000Y-34427621D01*
X148181000Y-34467621D02*
X143819000Y-34467621D01*
X148137000Y-34507621D02*
X143863000Y-34507621D01*
X148091000Y-34547621D02*
X143909000Y-34547621D01*
X148044000Y-34587621D02*
X143956000Y-34587621D01*
X147995000Y-34627621D02*
X144005000Y-34627621D01*
X147943000Y-34667621D02*
X144057000Y-34667621D01*
X147890000Y-34707621D02*
X144110000Y-34707621D01*
X147834000Y-34747621D02*
X144166000Y-34747621D01*
X147775000Y-34787621D02*
X144225000Y-34787621D01*
X147714000Y-34827621D02*
X144286000Y-34827621D01*
X147649000Y-34867621D02*
X144351000Y-34867621D01*
X147581000Y-34907621D02*
X144419000Y-34907621D01*
X147509000Y-34947621D02*
X144491000Y-34947621D01*
X147432000Y-34987621D02*
X144568000Y-34987621D01*
X147350000Y-35027621D02*
X144650000Y-35027621D01*
X147261000Y-35067621D02*
X144739000Y-35067621D01*
X147165000Y-35107621D02*
X144835000Y-35107621D01*
X147058000Y-35147621D02*
X144942000Y-35147621D01*
X146939000Y-35187621D02*
X145061000Y-35187621D01*
X146801000Y-35227621D02*
X145199000Y-35227621D01*
X146633000Y-35267621D02*
X145367000Y-35267621D01*
X146402000Y-35307621D02*
X145598000Y-35307621D01*
X149270000Y-32067621D02*
G75*
G02*
X142730000Y-32067621I-3270000J0D01*
G01*
X142730000Y-32067621D02*
G75*
G02*
X149270000Y-32067621I3270000J0D01*
G01*
%TO.C,mosfet2*%
X175700000Y-106710000D02*
X179300000Y-106710000D01*
X175143600Y-103761193D02*
G75*
G02*
X177500000Y-102260000I2356400J-1098807D01*
G01*
X175700000Y-106710000D02*
G75*
G02*
X175175816Y-105982795I1800000J1850000D01*
G01*
X177500000Y-102260000D02*
G75*
G02*
X179856400Y-103761193I0J-2600000D01*
G01*
X179824184Y-105982795D02*
G75*
G02*
X179300000Y-106710000I-2324184J1122795D01*
G01*
%TO.C,reg_3v3_smoother_out1*%
X163100000Y-32250225D02*
X163100000Y-32750225D01*
X163350000Y-32500225D02*
X162850000Y-32500225D01*
X164205000Y-35055000D02*
X159045000Y-35055000D01*
X164205000Y-35095000D02*
X159045000Y-35095000D01*
X164204000Y-35135000D02*
X159046000Y-35135000D01*
X164202000Y-35175000D02*
X159048000Y-35175000D01*
X164200000Y-35215000D02*
X159050000Y-35215000D01*
X164197000Y-35255000D02*
X159053000Y-35255000D01*
X164194000Y-35295000D02*
X162665000Y-35295000D01*
X160585000Y-35295000D02*
X159056000Y-35295000D01*
X164190000Y-35335000D02*
X162665000Y-35335000D01*
X160585000Y-35335000D02*
X159060000Y-35335000D01*
X164185000Y-35375000D02*
X162665000Y-35375000D01*
X160585000Y-35375000D02*
X159065000Y-35375000D01*
X164180000Y-35415000D02*
X162665000Y-35415000D01*
X160585000Y-35415000D02*
X159070000Y-35415000D01*
X164174000Y-35455000D02*
X162665000Y-35455000D01*
X160585000Y-35455000D02*
X159076000Y-35455000D01*
X164168000Y-35495000D02*
X162665000Y-35495000D01*
X160585000Y-35495000D02*
X159082000Y-35495000D01*
X164161000Y-35535000D02*
X162665000Y-35535000D01*
X160585000Y-35535000D02*
X159089000Y-35535000D01*
X164153000Y-35575000D02*
X162665000Y-35575000D01*
X160585000Y-35575000D02*
X159097000Y-35575000D01*
X164144000Y-35615000D02*
X162665000Y-35615000D01*
X160585000Y-35615000D02*
X159106000Y-35615000D01*
X164135000Y-35655000D02*
X162665000Y-35655000D01*
X160585000Y-35655000D02*
X159115000Y-35655000D01*
X164126000Y-35695000D02*
X162665000Y-35695000D01*
X160585000Y-35695000D02*
X159124000Y-35695000D01*
X164115000Y-35735000D02*
X162665000Y-35735000D01*
X160585000Y-35735000D02*
X159135000Y-35735000D01*
X164104000Y-35775000D02*
X162665000Y-35775000D01*
X160585000Y-35775000D02*
X159146000Y-35775000D01*
X164092000Y-35815000D02*
X162665000Y-35815000D01*
X160585000Y-35815000D02*
X159158000Y-35815000D01*
X164080000Y-35855000D02*
X162665000Y-35855000D01*
X160585000Y-35855000D02*
X159170000Y-35855000D01*
X164067000Y-35895000D02*
X162665000Y-35895000D01*
X160585000Y-35895000D02*
X159183000Y-35895000D01*
X164053000Y-35935000D02*
X162665000Y-35935000D01*
X160585000Y-35935000D02*
X159197000Y-35935000D01*
X164038000Y-35975000D02*
X162665000Y-35975000D01*
X160585000Y-35975000D02*
X159212000Y-35975000D01*
X164023000Y-36015000D02*
X162665000Y-36015000D01*
X160585000Y-36015000D02*
X159227000Y-36015000D01*
X164007000Y-36055000D02*
X162665000Y-36055000D01*
X160585000Y-36055000D02*
X159243000Y-36055000D01*
X163990000Y-36095000D02*
X162665000Y-36095000D01*
X160585000Y-36095000D02*
X159260000Y-36095000D01*
X163972000Y-36135000D02*
X162665000Y-36135000D01*
X160585000Y-36135000D02*
X159278000Y-36135000D01*
X163954000Y-36175000D02*
X162665000Y-36175000D01*
X160585000Y-36175000D02*
X159296000Y-36175000D01*
X163934000Y-36215000D02*
X162665000Y-36215000D01*
X160585000Y-36215000D02*
X159316000Y-36215000D01*
X163914000Y-36255000D02*
X162665000Y-36255000D01*
X160585000Y-36255000D02*
X159336000Y-36255000D01*
X163893000Y-36295000D02*
X162665000Y-36295000D01*
X160585000Y-36295000D02*
X159357000Y-36295000D01*
X163871000Y-36335000D02*
X162665000Y-36335000D01*
X160585000Y-36335000D02*
X159379000Y-36335000D01*
X163848000Y-36375000D02*
X162665000Y-36375000D01*
X160585000Y-36375000D02*
X159402000Y-36375000D01*
X163824000Y-36415000D02*
X162665000Y-36415000D01*
X160585000Y-36415000D02*
X159426000Y-36415000D01*
X163800000Y-36455000D02*
X162665000Y-36455000D01*
X160585000Y-36455000D02*
X159450000Y-36455000D01*
X163774000Y-36495000D02*
X162665000Y-36495000D01*
X160585000Y-36495000D02*
X159476000Y-36495000D01*
X163747000Y-36535000D02*
X162665000Y-36535000D01*
X160585000Y-36535000D02*
X159503000Y-36535000D01*
X163719000Y-36575000D02*
X162665000Y-36575000D01*
X160585000Y-36575000D02*
X159531000Y-36575000D01*
X163690000Y-36615000D02*
X162665000Y-36615000D01*
X160585000Y-36615000D02*
X159560000Y-36615000D01*
X163660000Y-36655000D02*
X162665000Y-36655000D01*
X160585000Y-36655000D02*
X159590000Y-36655000D01*
X163628000Y-36695000D02*
X162665000Y-36695000D01*
X160585000Y-36695000D02*
X159622000Y-36695000D01*
X163595000Y-36735000D02*
X162665000Y-36735000D01*
X160585000Y-36735000D02*
X159655000Y-36735000D01*
X163561000Y-36775000D02*
X162665000Y-36775000D01*
X160585000Y-36775000D02*
X159689000Y-36775000D01*
X163526000Y-36815000D02*
X162665000Y-36815000D01*
X160585000Y-36815000D02*
X159724000Y-36815000D01*
X163489000Y-36855000D02*
X162665000Y-36855000D01*
X160585000Y-36855000D02*
X159761000Y-36855000D01*
X163450000Y-36895000D02*
X162665000Y-36895000D01*
X160585000Y-36895000D02*
X159800000Y-36895000D01*
X163410000Y-36935000D02*
X162665000Y-36935000D01*
X160585000Y-36935000D02*
X159840000Y-36935000D01*
X163368000Y-36975000D02*
X162665000Y-36975000D01*
X160585000Y-36975000D02*
X159882000Y-36975000D01*
X163324000Y-37015000D02*
X162665000Y-37015000D01*
X160585000Y-37015000D02*
X159926000Y-37015000D01*
X163277000Y-37055000D02*
X162665000Y-37055000D01*
X160585000Y-37055000D02*
X159973000Y-37055000D01*
X163229000Y-37095000D02*
X162665000Y-37095000D01*
X160585000Y-37095000D02*
X160021000Y-37095000D01*
X163178000Y-37135000D02*
X162665000Y-37135000D01*
X160585000Y-37135000D02*
X160072000Y-37135000D01*
X163124000Y-37175000D02*
X162665000Y-37175000D01*
X160585000Y-37175000D02*
X160126000Y-37175000D01*
X163068000Y-37215000D02*
X162665000Y-37215000D01*
X160585000Y-37215000D02*
X160182000Y-37215000D01*
X163008000Y-37255000D02*
X162665000Y-37255000D01*
X160585000Y-37255000D02*
X160242000Y-37255000D01*
X162944000Y-37295000D02*
X162665000Y-37295000D01*
X160585000Y-37295000D02*
X160306000Y-37295000D01*
X162876000Y-37335000D02*
X162665000Y-37335000D01*
X160585000Y-37335000D02*
X160374000Y-37335000D01*
X162802000Y-37375000D02*
X160448000Y-37375000D01*
X162723000Y-37415000D02*
X160527000Y-37415000D01*
X162636000Y-37455000D02*
X160614000Y-37455000D01*
X162539000Y-37495000D02*
X160711000Y-37495000D01*
X162430000Y-37535000D02*
X160820000Y-37535000D01*
X162302000Y-37575000D02*
X160948000Y-37575000D01*
X162142000Y-37615000D02*
X161108000Y-37615000D01*
X161908000Y-37655000D02*
X161342000Y-37655000D01*
X164245000Y-35055000D02*
G75*
G02*
X159005000Y-35055000I-2620000J0D01*
G01*
X159005000Y-35055000D02*
G75*
G02*
X164245000Y-35055000I2620000J0D01*
G01*
%TO.C,esp_smoothingcaps_2*%
X130765000Y-63798752D02*
X130765000Y-63276248D01*
X132235000Y-63798752D02*
X132235000Y-63276248D01*
%TO.C,mosfet3*%
X183200000Y-106710000D02*
X186800000Y-106710000D01*
X182643600Y-103761193D02*
G75*
G02*
X185000000Y-102260000I2356400J-1098807D01*
G01*
X183200000Y-106710000D02*
G75*
G02*
X182675816Y-105982795I1800000J1850000D01*
G01*
X185000000Y-102260000D02*
G75*
G02*
X187356400Y-103761193I0J-2600000D01*
G01*
X187324184Y-105982795D02*
G75*
G02*
X186800000Y-106710000I-2324184J1122795D01*
G01*
%TO.C,vd_c4*%
X138765000Y-100798752D02*
X138765000Y-100276248D01*
X140235000Y-100798752D02*
X140235000Y-100276248D01*
D11*
%TO.C,Motor1*%
X189174000Y-78878600D02*
X189174000Y-81044961D01*
X189174000Y-88955039D02*
X189174000Y-91121400D01*
X189174000Y-91121400D02*
X192938559Y-91121400D01*
X192938559Y-78878600D02*
X189174000Y-78878600D01*
X198826000Y-89404304D02*
X198826000Y-80595696D01*
D12*
X190852000Y-93585299D02*
G75*
G02*
X190090000Y-93585299I-381000J0D01*
G01*
X190090000Y-93585299D02*
G75*
G02*
X190852000Y-93585299I381000J0D01*
G01*
D13*
%TO.C,vd_r1*%
X144272936Y-103265000D02*
X144727064Y-103265000D01*
X144272936Y-104735000D02*
X144727064Y-104735000D01*
%TO.C,R4*%
X130265000Y-32272936D02*
X130265000Y-32727064D01*
X131735000Y-32272936D02*
X131735000Y-32727064D01*
%TO.C,U2*%
X150550000Y-35350000D02*
X150550000Y-28930000D01*
X157450000Y-35350000D02*
X157450000Y-28930000D01*
X150550000Y-28930000D02*
X150820000Y-28930000D01*
X157450000Y-28930000D02*
X157180000Y-28930000D01*
X157610000Y-27540000D02*
X157140000Y-27200000D01*
X157610000Y-26860000D01*
X157610000Y-27540000D01*
G36*
X157610000Y-27540000D02*
G01*
X157140000Y-27200000D01*
X157610000Y-26860000D01*
X157610000Y-27540000D01*
G37*
%TD*%
M02*
