%TF.GenerationSoftware,KiCad,Pcbnew,9.0.1*%
%TF.CreationDate,2026-04-05T14:06:20-07:00*%
%TF.ProjectId,V67_cycletron,5636375f-6379-4636-9c65-74726f6e2e6b,rev?*%
%TF.SameCoordinates,Original*%
%TF.FileFunction,Soldermask,Bot*%
%TF.FilePolarity,Negative*%
%FSLAX46Y46*%
G04 Gerber Fmt 4.6, Leading zero omitted, Abs format (unit mm)*
G04 Created by KiCad (PCBNEW 9.0.1) date 2026-04-05 14:06:20*
%MOMM*%
%LPD*%
G01*
G04 APERTURE LIST*
G04 Aperture macros list*
%AMRoundRect*
0 Rectangle with rounded corners*
0 $1 Rounding radius*
0 $2 $3 $4 $5 $6 $7 $8 $9 X,Y pos of 4 corners*
0 Add a 4 corners polygon primitive as box body*
4,1,4,$2,$3,$4,$5,$6,$7,$8,$9,$2,$3,0*
0 Add four circle primitives for the rounded corners*
1,1,$1+$1,$2,$3*
1,1,$1+$1,$4,$5*
1,1,$1+$1,$6,$7*
1,1,$1+$1,$8,$9*
0 Add four rect primitives between the rounded corners*
20,1,$1+$1,$2,$3,$4,$5,0*
20,1,$1+$1,$4,$5,$6,$7,0*
20,1,$1+$1,$6,$7,$8,$9,0*
20,1,$1+$1,$8,$9,$2,$3,0*%
G04 Aperture macros list end*
%ADD10C,0.650000*%
%ADD11R,1.600000X1.600000*%
%ADD12O,1.600000X1.600000*%
%ADD13RoundRect,0.250001X1.149999X1.149999X-1.149999X1.149999X-1.149999X-1.149999X1.149999X-1.149999X0*%
%ADD14C,2.800000*%
%ADD15C,1.600000*%
%ADD16R,1.500000X1.500000*%
%ADD17C,1.500000*%
%ADD18RoundRect,0.250001X1.149999X-1.149999X1.149999X1.149999X-1.149999X1.149999X-1.149999X-1.149999X0*%
%ADD19R,2.200000X2.200000*%
%ADD20O,2.200000X2.200000*%
G04 APERTURE END LIST*
D10*
%TO.C,J1*%
X132000000Y-27430000D03*
X137780000Y-27430000D03*
%TD*%
D11*
%TO.C,Motor_2*%
X176610000Y-59340000D03*
D12*
X179150000Y-59340000D03*
X181690000Y-59340000D03*
X184230000Y-59340000D03*
X186770000Y-59340000D03*
X189310000Y-59340000D03*
X191850000Y-59340000D03*
X194390000Y-59340000D03*
X194390000Y-46640000D03*
X191850000Y-46640000D03*
X189310000Y-46640000D03*
X186770000Y-46640000D03*
X184230000Y-46640000D03*
X181690000Y-46640000D03*
X179150000Y-46640000D03*
X176610000Y-46640000D03*
%TD*%
D13*
%TO.C,J2*%
X190500000Y-25500000D03*
D14*
X185500000Y-25500000D03*
%TD*%
D11*
%TO.C,motor1_c1*%
X184500000Y-76500000D03*
D15*
X184500000Y-79000000D03*
%TD*%
D11*
%TO.C,motor2_c1*%
X193500000Y-41000000D03*
D15*
X191000000Y-41000000D03*
%TD*%
D16*
%TO.C,mosfet1*%
X167460000Y-104860000D03*
D17*
X170000000Y-104860000D03*
X172540000Y-104860000D03*
%TD*%
D11*
%TO.C,Motor_1*%
X161110000Y-86340000D03*
D12*
X163650000Y-86340000D03*
X166190000Y-86340000D03*
X168730000Y-86340000D03*
X171270000Y-86340000D03*
X173810000Y-86340000D03*
X176350000Y-86340000D03*
X178890000Y-86340000D03*
X178890000Y-73640000D03*
X176350000Y-73640000D03*
X173810000Y-73640000D03*
X171270000Y-73640000D03*
X168730000Y-73640000D03*
X166190000Y-73640000D03*
X163650000Y-73640000D03*
X161110000Y-73640000D03*
%TD*%
D18*
%TO.C,J3*%
X108000000Y-118000000D03*
D14*
X108000000Y-113000000D03*
X108000000Y-108000000D03*
X108000000Y-103000000D03*
X108000000Y-98000000D03*
X108000000Y-93000000D03*
X108000000Y-88000000D03*
X108000000Y-83000000D03*
X108000000Y-78000000D03*
X108000000Y-73000000D03*
X108000000Y-68000000D03*
X108000000Y-63000000D03*
X108000000Y-58000000D03*
X108000000Y-53000000D03*
%TD*%
D11*
%TO.C,reg_5V_smoothing_caps_out1*%
X168705100Y-26000000D03*
D15*
X166205100Y-26000000D03*
%TD*%
D13*
%TO.C,J4*%
X132068100Y-115353700D03*
D14*
X127068100Y-115353700D03*
%TD*%
D11*
%TO.C,reg_5V_smoothing_caps_in1*%
X176000000Y-25500000D03*
D15*
X173500000Y-25500000D03*
%TD*%
D19*
%TO.C,D1*%
X183420000Y-34000000D03*
D20*
X193580000Y-34000000D03*
%TD*%
D11*
%TO.C,reg_3v3_smoother_in1*%
X146000000Y-30817621D03*
D15*
X146000000Y-33317621D03*
%TD*%
D16*
%TO.C,mosfet2*%
X174960000Y-104860000D03*
D17*
X177500000Y-104860000D03*
X180040000Y-104860000D03*
%TD*%
D11*
%TO.C,reg_3v3_smoother_out1*%
X161625000Y-33805000D03*
D15*
X161625000Y-36305000D03*
%TD*%
D16*
%TO.C,mosfet3*%
X182460000Y-104860000D03*
D17*
X185000000Y-104860000D03*
X187540000Y-104860000D03*
%TD*%
M02*
