%TF.GenerationSoftware,KiCad,Pcbnew,9.0.1*%
%TF.CreationDate,2026-04-05T14:06:20-07:00*%
%TF.ProjectId,V67_cycletron,5636375f-6379-4636-9c65-74726f6e2e6b,rev?*%
%TF.SameCoordinates,Original*%
%TF.FileFunction,Paste,Top*%
%TF.FilePolarity,Positive*%
%FSLAX46Y46*%
G04 Gerber Fmt 4.6, Leading zero omitted, Abs format (unit mm)*
G04 Created by KiCad (PCBNEW 9.0.1) date 2026-04-05 14:06:20*
%MOMM*%
%LPD*%
G01*
G04 APERTURE LIST*
G04 Aperture macros list*
%AMRoundRect*
0 Rectangle with rounded corners*
0 $1 Rounding radius*
0 $2 $3 $4 $5 $6 $7 $8 $9 X,Y pos of 4 corners*
0 Add a 4 corners polygon primitive as box body*
4,1,4,$2,$3,$4,$5,$6,$7,$8,$9,$2,$3,0*
0 Add four circle primitives for the rounded corners*
1,1,$1+$1,$2,$3*
1,1,$1+$1,$4,$5*
1,1,$1+$1,$6,$7*
1,1,$1+$1,$8,$9*
0 Add four rect primitives between the rounded corners*
20,1,$1+$1,$2,$3,$4,$5,0*
20,1,$1+$1,$4,$5,$6,$7,0*
20,1,$1+$1,$6,$7,$8,$9,0*
20,1,$1+$1,$8,$9,$2,$3,0*%
G04 Aperture macros list end*
%ADD10R,1.752600X5.359400*%
%ADD11R,1.244600X3.251200*%
%ADD12RoundRect,0.250000X0.840000X0.750000X-0.840000X0.750000X-0.840000X-0.750000X0.840000X-0.750000X0*%
%ADD13RoundRect,0.150000X0.150000X0.425000X-0.150000X0.425000X-0.150000X-0.425000X0.150000X-0.425000X0*%
%ADD14RoundRect,0.075000X0.075000X0.500000X-0.075000X0.500000X-0.075000X-0.500000X0.075000X-0.500000X0*%
%ADD15RoundRect,0.500000X0.500000X-0.500000X0.500000X0.500000X-0.500000X0.500000X-0.500000X-0.500000X0*%
%ADD16RoundRect,0.250000X0.450000X-0.350000X0.450000X0.350000X-0.450000X0.350000X-0.450000X-0.350000X0*%
%ADD17R,3.251200X1.244600*%
%ADD18R,5.359400X1.752600*%
%ADD19RoundRect,0.250000X-0.450000X0.350000X-0.450000X-0.350000X0.450000X-0.350000X0.450000X0.350000X0*%
%ADD20RoundRect,0.250000X-0.350000X-0.450000X0.350000X-0.450000X0.350000X0.450000X-0.350000X0.450000X0*%
%ADD21RoundRect,0.250000X0.475000X-0.337500X0.475000X0.337500X-0.475000X0.337500X-0.475000X-0.337500X0*%
%ADD22RoundRect,0.250000X1.275000X1.125000X-1.275000X1.125000X-1.275000X-1.125000X1.275000X-1.125000X0*%
%ADD23RoundRect,0.250000X0.850000X0.350000X-0.850000X0.350000X-0.850000X-0.350000X0.850000X-0.350000X0*%
%ADD24R,0.900000X0.900000*%
%ADD25R,1.500000X0.900000*%
%ADD26R,0.900000X1.500000*%
%ADD27RoundRect,0.250000X0.337500X0.475000X-0.337500X0.475000X-0.337500X-0.475000X0.337500X-0.475000X0*%
%ADD28RoundRect,0.250000X-1.125000X1.275000X-1.125000X-1.275000X1.125000X-1.275000X1.125000X1.275000X0*%
%ADD29RoundRect,0.250000X-0.350000X0.850000X-0.350000X-0.850000X0.350000X-0.850000X0.350000X0.850000X0*%
G04 APERTURE END LIST*
D10*
%TO.C,Trans_3*%
X197050001Y-116950999D03*
X189949999Y-116950999D03*
D11*
X194500001Y-111471000D03*
X192499999Y-111471000D03*
%TD*%
%TO.C,Trans_2*%
X179499999Y-111380000D03*
X181500001Y-111380000D03*
D10*
X176949999Y-116859999D03*
X184050001Y-116859999D03*
%TD*%
D11*
%TO.C,Trans_1*%
X165999999Y-111471000D03*
X168000001Y-111471000D03*
D10*
X163449999Y-116950999D03*
X170550001Y-116950999D03*
%TD*%
D12*
%TO.C,J1*%
X129780000Y-24000000D03*
X129780000Y-27930000D03*
X140000000Y-24000000D03*
X140000000Y-27930000D03*
D13*
X138090000Y-28505000D03*
X137290000Y-28505000D03*
D14*
X136640000Y-28505000D03*
X135640000Y-28505000D03*
X134140000Y-28505000D03*
X133140000Y-28505000D03*
D13*
X132490000Y-28505000D03*
X131690000Y-28505000D03*
X131690000Y-28505000D03*
X132490000Y-28505000D03*
D14*
X133640000Y-28505000D03*
X134640000Y-28505000D03*
X135140000Y-28505000D03*
X136140000Y-28505000D03*
D13*
X137290000Y-28505000D03*
X138090000Y-28505000D03*
%TD*%
D15*
%TO.C,Boot1*%
X120500000Y-30500000D03*
X120500000Y-24500000D03*
%TD*%
D16*
%TO.C,R1*%
X113000000Y-35500000D03*
X113000000Y-33500000D03*
%TD*%
D17*
%TO.C,Motor2*%
X189971000Y-72499999D03*
X189971000Y-70500001D03*
X189971000Y-68499999D03*
X189971000Y-66500001D03*
D18*
X195450999Y-75049999D03*
X195450999Y-63950001D03*
%TD*%
D19*
%TO.C,R3*%
X138500000Y-33000000D03*
X138500000Y-35000000D03*
%TD*%
D20*
%TO.C,tr1*%
X169500000Y-98500000D03*
X171500000Y-98500000D03*
%TD*%
%TO.C,tr2*%
X177000000Y-98500000D03*
X179000000Y-98500000D03*
%TD*%
D21*
%TO.C,esp_smoothingcaps_1*%
X128500000Y-64592500D03*
X128500000Y-62517500D03*
%TD*%
D11*
%TO.C,VoltageDivider1*%
X144500001Y-111971000D03*
X146499999Y-111971000D03*
X148500001Y-111971000D03*
X150499999Y-111971000D03*
D10*
X141950001Y-117450999D03*
X153049999Y-117450999D03*
%TD*%
D22*
%TO.C,U3*%
X169915000Y-35025000D03*
X169915000Y-31975000D03*
X166565000Y-35025000D03*
X166565000Y-31975000D03*
D23*
X174540000Y-35780000D03*
X174540000Y-33500000D03*
X174540000Y-31220000D03*
%TD*%
D24*
%TO.C,U1*%
X140200000Y-69200000D03*
X140200000Y-70600000D03*
X140200000Y-72000000D03*
X141600000Y-69200000D03*
X141600000Y-70600000D03*
X141600000Y-72000000D03*
X143000000Y-69200000D03*
X143000000Y-70600000D03*
X143000000Y-72000000D03*
D25*
X134350000Y-62880000D03*
X134350000Y-64150000D03*
X134350000Y-65420000D03*
X134350000Y-66690000D03*
X134350000Y-67960000D03*
X134350000Y-69230000D03*
X134350000Y-70500000D03*
X134350000Y-71770000D03*
X134350000Y-73040000D03*
X134350000Y-74310000D03*
X134350000Y-75580000D03*
X134350000Y-76850000D03*
X134350000Y-78120000D03*
X134350000Y-79390000D03*
D26*
X136115000Y-80640000D03*
X137385000Y-80640000D03*
X138655000Y-80640000D03*
X139925000Y-80640000D03*
X141195000Y-80640000D03*
X142465000Y-80640000D03*
X143735000Y-80640000D03*
X145005000Y-80640000D03*
X146275000Y-80640000D03*
X147545000Y-80640000D03*
X148815000Y-80640000D03*
X150085000Y-80640000D03*
D25*
X151850000Y-79390000D03*
X151850000Y-78120000D03*
X151850000Y-76850000D03*
X151850000Y-75580000D03*
X151850000Y-74310000D03*
X151850000Y-73040000D03*
X151850000Y-71770000D03*
X151850000Y-70500000D03*
X151850000Y-69230000D03*
X151850000Y-67960000D03*
X151850000Y-66690000D03*
X151850000Y-65420000D03*
X151850000Y-64150000D03*
X151850000Y-62880000D03*
%TD*%
D19*
%TO.C,R2*%
X120500000Y-33500000D03*
X120500000Y-35500000D03*
%TD*%
D15*
%TO.C,En1*%
X113000000Y-30500000D03*
X113000000Y-24500000D03*
%TD*%
D20*
%TO.C,tr3*%
X184500000Y-98500000D03*
X186500000Y-98500000D03*
%TD*%
D27*
%TO.C,vd_c3*%
X145575000Y-99500000D03*
X143500000Y-99500000D03*
%TD*%
D21*
%TO.C,C8*%
X122500000Y-64657685D03*
X122500000Y-62582685D03*
%TD*%
%TO.C,C6*%
X125500000Y-64650000D03*
X125500000Y-62575000D03*
%TD*%
%TO.C,esp_smoothingcaps_2*%
X131500000Y-64575000D03*
X131500000Y-62500000D03*
%TD*%
%TO.C,vd_c4*%
X139500000Y-101575000D03*
X139500000Y-99500000D03*
%TD*%
D17*
%TO.C,Motor1*%
X190471000Y-87999999D03*
X190471000Y-86000001D03*
X190471000Y-83999999D03*
X190471000Y-82000001D03*
D18*
X195950999Y-90549999D03*
X195950999Y-79450001D03*
%TD*%
D20*
%TO.C,vd_r1*%
X143500000Y-104000000D03*
X145500000Y-104000000D03*
%TD*%
D19*
%TO.C,R4*%
X131000000Y-31500000D03*
X131000000Y-33500000D03*
%TD*%
D28*
%TO.C,U2*%
X155525000Y-31825000D03*
X152475000Y-31825000D03*
X155525000Y-35175000D03*
X152475000Y-35175000D03*
D29*
X156280000Y-27200000D03*
X154000000Y-27200000D03*
X151720000Y-27200000D03*
%TD*%
M02*
