M48
; DRILL file {KiCad 9.0.1} date 2026-04-05T14:06:23-0700
; FORMAT={-:-/ absolute / metric / decimal}
; #@! TF.CreationDate,2026-04-05T14:06:23-07:00
; #@! TF.GenerationSoftware,Kicad,Pcbnew,9.0.1
; #@! TF.FileFunction,Plated,1,2,PTH
FMAT,2
METRIC
; #@! TA.AperFunction,Plated,PTH,ComponentDrill
T1C0.200
; #@! TA.AperFunction,Plated,PTH,ViaDrill
T2C0.300
; #@! TA.AperFunction,Plated,PTH,ComponentDrill
T3C0.800
; #@! TA.AperFunction,Plated,PTH,ComponentDrill
T4C1.100
; #@! TA.AperFunction,Plated,PTH,ComponentDrill
T5C1.300
%
G90
G05
T1
X140.2Y-69.9
X140.2Y-71.3
X140.9Y-69.2
X140.9Y-70.6
X140.9Y-72.0
X141.6Y-69.9
X141.6Y-71.3
X142.3Y-69.2
X142.3Y-70.6
X142.3Y-72.0
X143.0Y-69.9
X143.0Y-71.3
T2
X113.0Y-24.5
X119.174Y-61.826
X120.5Y-24.5
X120.5Y-39.0
X120.5Y-40.0
X122.5Y-62.5
X125.5Y-62.575
X128.5Y-62.517
X129.78Y-24.0
X129.78Y-27.93
X131.0Y-33.5
X131.5Y-62.5
X131.69Y-28.505
X133.0Y-78.0
X133.0Y-79.5
X134.35Y-62.88
X138.09Y-28.505
X138.5Y-35.0
X139.5Y-99.5
X140.0Y-24.0
X140.0Y-27.93
X141.6Y-70.6
X145.5Y-104.0
X148.5Y-73.0
X151.85Y-62.88
X152.0Y-79.5
X152.5Y-29.5
X153.0Y-91.5
X156.28Y-27.2
X167.5Y-72.455
X168.24Y-33.5
X174.54Y-35.78
T3
X146.0Y-30.818
X146.0Y-33.318
X161.11Y-73.64
X161.11Y-86.34
X161.625Y-33.805
X161.625Y-36.305
X163.65Y-73.64
X163.65Y-86.34
X166.19Y-73.64
X166.19Y-86.34
X166.205Y-26.0
X167.46Y-104.86
X168.705Y-26.0
X168.73Y-73.64
X168.73Y-86.34
X170.0Y-104.86
X171.27Y-73.64
X171.27Y-86.34
X172.54Y-104.86
X173.5Y-25.5
X173.81Y-73.64
X173.81Y-86.34
X174.96Y-104.86
X176.0Y-25.5
X176.35Y-73.64
X176.35Y-86.34
X176.61Y-46.64
X176.61Y-59.34
X177.5Y-104.86
X178.89Y-73.64
X178.89Y-86.34
X179.15Y-46.64
X179.15Y-59.34
X180.04Y-104.86
X181.69Y-46.64
X181.69Y-59.34
X182.46Y-104.86
X184.23Y-46.64
X184.23Y-59.34
X184.5Y-76.5
X184.5Y-79.0
X185.0Y-104.86
X186.77Y-46.64
X186.77Y-59.34
X187.54Y-104.86
X189.31Y-46.64
X189.31Y-59.34
X191.0Y-41.0
X191.85Y-46.64
X191.85Y-59.34
X193.5Y-41.0
X194.39Y-46.64
X194.39Y-59.34
T4
X183.42Y-34.0
X193.58Y-34.0
T5
X108.0Y-53.0
X108.0Y-58.0
X108.0Y-63.0
X108.0Y-68.0
X108.0Y-73.0
X108.0Y-78.0
X108.0Y-83.0
X108.0Y-88.0
X108.0Y-93.0
X108.0Y-98.0
X108.0Y-103.0
X108.0Y-108.0
X108.0Y-113.0
X108.0Y-118.0
X127.068Y-115.354
X132.068Y-115.354
X185.5Y-25.5
X190.5Y-25.5
M30
