%TF.GenerationSoftware,KiCad,Pcbnew,9.0.1*%
%TF.CreationDate,2026-04-05T14:06:20-07:00*%
%TF.ProjectId,V67_cycletron,5636375f-6379-4636-9c65-74726f6e2e6b,rev?*%
%TF.SameCoordinates,Original*%
%TF.FileFunction,Copper,L2,Bot*%
%TF.FilePolarity,Positive*%
%FSLAX46Y46*%
G04 Gerber Fmt 4.6, Leading zero omitted, Abs format (unit mm)*
G04 Created by KiCad (PCBNEW 9.0.1) date 2026-04-05 14:06:20*
%MOMM*%
%LPD*%
G01*
G04 APERTURE LIST*
G04 Aperture macros list*
%AMRoundRect*
0 Rectangle with rounded corners*
0 $1 Rounding radius*
0 $2 $3 $4 $5 $6 $7 $8 $9 X,Y pos of 4 corners*
0 Add a 4 corners polygon primitive as box body*
4,1,4,$2,$3,$4,$5,$6,$7,$8,$9,$2,$3,0*
0 Add four circle primitives for the rounded corners*
1,1,$1+$1,$2,$3*
1,1,$1+$1,$4,$5*
1,1,$1+$1,$6,$7*
1,1,$1+$1,$8,$9*
0 Add four rect primitives between the rounded corners*
20,1,$1+$1,$2,$3,$4,$5,0*
20,1,$1+$1,$4,$5,$6,$7,0*
20,1,$1+$1,$6,$7,$8,$9,0*
20,1,$1+$1,$8,$9,$2,$3,0*%
G04 Aperture macros list end*
%TA.AperFunction,ComponentPad*%
%ADD10R,1.600000X1.600000*%
%TD*%
%TA.AperFunction,ComponentPad*%
%ADD11O,1.600000X1.600000*%
%TD*%
%TA.AperFunction,ComponentPad*%
%ADD12RoundRect,0.250001X1.149999X1.149999X-1.149999X1.149999X-1.149999X-1.149999X1.149999X-1.149999X0*%
%TD*%
%TA.AperFunction,ComponentPad*%
%ADD13C,2.800000*%
%TD*%
%TA.AperFunction,ComponentPad*%
%ADD14C,1.600000*%
%TD*%
%TA.AperFunction,HeatsinkPad*%
%ADD15C,0.600000*%
%TD*%
%TA.AperFunction,ComponentPad*%
%ADD16R,1.500000X1.500000*%
%TD*%
%TA.AperFunction,ComponentPad*%
%ADD17C,1.500000*%
%TD*%
%TA.AperFunction,ComponentPad*%
%ADD18RoundRect,0.250001X1.149999X-1.149999X1.149999X1.149999X-1.149999X1.149999X-1.149999X-1.149999X0*%
%TD*%
%TA.AperFunction,ComponentPad*%
%ADD19R,2.200000X2.200000*%
%TD*%
%TA.AperFunction,ComponentPad*%
%ADD20O,2.200000X2.200000*%
%TD*%
%TA.AperFunction,ViaPad*%
%ADD21C,0.600000*%
%TD*%
%TA.AperFunction,Conductor*%
%ADD22C,0.200000*%
%TD*%
G04 APERTURE END LIST*
D10*
%TO.P,Motor_2,1,GND*%
%TO.N,GND*%
X176610000Y-59340000D03*
D11*
%TO.P,Motor_2,2,~{FLT}*%
%TO.N,Motor2_FLT*%
X179150000Y-59340000D03*
%TO.P,Motor_2,3,A2*%
%TO.N,Motor2_A2*%
X181690000Y-59340000D03*
%TO.P,Motor_2,4,A1*%
%TO.N,Motor2_A1*%
X184230000Y-59340000D03*
%TO.P,Motor_2,5,B1*%
%TO.N,Motor2_B1*%
X186770000Y-59340000D03*
%TO.P,Motor_2,6,B2*%
%TO.N,Motor2_B2*%
X189310000Y-59340000D03*
%TO.P,Motor_2,7,GND*%
%TO.N,GND*%
X191850000Y-59340000D03*
%TO.P,Motor_2,8,VMOT*%
%TO.N,+12V*%
X194390000Y-59340000D03*
%TO.P,Motor_2,9,~{EN}*%
%TO.N,Motor2_EN*%
X194390000Y-46640000D03*
%TO.P,Motor_2,10,M0*%
%TO.N,Motor2_M0*%
X191850000Y-46640000D03*
%TO.P,Motor_2,11,M1*%
%TO.N,Motor2_M1*%
X189310000Y-46640000D03*
%TO.P,Motor_2,12,M2*%
%TO.N,Motor2_M2*%
X186770000Y-46640000D03*
%TO.P,Motor_2,13,~{RST}*%
%TO.N,3V3*%
X184230000Y-46640000D03*
%TO.P,Motor_2,14,~{SLP}*%
X181690000Y-46640000D03*
%TO.P,Motor_2,15,STEP*%
%TO.N,Motor2_STEP*%
X179150000Y-46640000D03*
%TO.P,Motor_2,16,DIR*%
%TO.N,Motor2_DIR*%
X176610000Y-46640000D03*
%TD*%
D12*
%TO.P,J2,1,Pin_1*%
%TO.N,+12V*%
X190500000Y-25500000D03*
D13*
%TO.P,J2,2,Pin_2*%
%TO.N,GND*%
X185500000Y-25500000D03*
%TD*%
D10*
%TO.P,motor1_c1,1*%
%TO.N,+12V*%
X184500000Y-76500000D03*
D14*
%TO.P,motor1_c1,2*%
%TO.N,GND*%
X184500000Y-79000000D03*
%TD*%
D15*
%TO.P,U1,41,GND*%
%TO.N,GND*%
X140200000Y-69900000D03*
X140200000Y-71300000D03*
X140900000Y-69200000D03*
X140900000Y-70600000D03*
X140900000Y-72000000D03*
X141600000Y-69900000D03*
X141600000Y-71300000D03*
X142300000Y-69200000D03*
X142300000Y-70600000D03*
X142300000Y-72000000D03*
X143000000Y-69900000D03*
X143000000Y-71300000D03*
%TD*%
D10*
%TO.P,motor2_c1,1*%
%TO.N,+12V*%
X193500000Y-41000000D03*
D14*
%TO.P,motor2_c1,2*%
%TO.N,GND*%
X191000000Y-41000000D03*
%TD*%
D16*
%TO.P,mosfet1,1,S*%
%TO.N,GND*%
X167460000Y-104860000D03*
D17*
%TO.P,mosfet1,2,G*%
%TO.N,Net-(mosfet1-G)*%
X170000000Y-104860000D03*
%TO.P,mosfet1,3,D*%
%TO.N,mosfet1_o*%
X172540000Y-104860000D03*
%TD*%
D10*
%TO.P,Motor_1,1,GND*%
%TO.N,GND*%
X161110000Y-86340000D03*
D11*
%TO.P,Motor_1,2,~{FLT}*%
%TO.N,Motor1_FLT*%
X163650000Y-86340000D03*
%TO.P,Motor_1,3,A2*%
%TO.N,Motor1_A2*%
X166190000Y-86340000D03*
%TO.P,Motor_1,4,A1*%
%TO.N,Motor1_A1*%
X168730000Y-86340000D03*
%TO.P,Motor_1,5,B1*%
%TO.N,Motor1_B1*%
X171270000Y-86340000D03*
%TO.P,Motor_1,6,B2*%
%TO.N,Motor1_B2*%
X173810000Y-86340000D03*
%TO.P,Motor_1,7,GND*%
%TO.N,GND*%
X176350000Y-86340000D03*
%TO.P,Motor_1,8,VMOT*%
%TO.N,+12V*%
X178890000Y-86340000D03*
%TO.P,Motor_1,9,~{EN}*%
%TO.N,Motor1_EN*%
X178890000Y-73640000D03*
%TO.P,Motor_1,10,M0*%
%TO.N,Motor1_M0*%
X176350000Y-73640000D03*
%TO.P,Motor_1,11,M1*%
%TO.N,Motor1_M1*%
X173810000Y-73640000D03*
%TO.P,Motor_1,12,M2*%
%TO.N,Motor1_M2*%
X171270000Y-73640000D03*
%TO.P,Motor_1,13,~{RST}*%
%TO.N,3V3*%
X168730000Y-73640000D03*
%TO.P,Motor_1,14,~{SLP}*%
X166190000Y-73640000D03*
%TO.P,Motor_1,15,STEP*%
%TO.N,Motor1_STEP*%
X163650000Y-73640000D03*
%TO.P,Motor_1,16,DIR*%
%TO.N,Motor1_DIR*%
X161110000Y-73640000D03*
%TD*%
D18*
%TO.P,J3,1,Pin_1*%
%TO.N,I19*%
X108000000Y-118000000D03*
D13*
%TO.P,J3,2,Pin_2*%
%TO.N,I18*%
X108000000Y-113000000D03*
%TO.P,J3,3,Pin_3*%
%TO.N,I17*%
X108000000Y-108000000D03*
%TO.P,J3,4,Pin_4*%
%TO.N,I16*%
X108000000Y-103000000D03*
%TO.P,J3,5,Pin_5*%
%TO.N,I15*%
X108000000Y-98000000D03*
%TO.P,J3,6,Pin_6*%
%TO.N,I12*%
X108000000Y-93000000D03*
%TO.P,J3,7,Pin_7*%
%TO.N,I11*%
X108000000Y-88000000D03*
%TO.P,J3,8,Pin_8*%
%TO.N,I10*%
X108000000Y-83000000D03*
%TO.P,J3,9,Pin_9*%
%TO.N,I09*%
X108000000Y-78000000D03*
%TO.P,J3,10,Pin_10*%
%TO.N,I08*%
X108000000Y-73000000D03*
%TO.P,J3,11,Pin_11*%
%TO.N,IO7*%
X108000000Y-68000000D03*
%TO.P,J3,12,Pin_12*%
%TO.N,IO6*%
X108000000Y-63000000D03*
%TO.P,J3,13,Pin_13*%
%TO.N,IO5*%
X108000000Y-58000000D03*
%TO.P,J3,14,Pin_14*%
%TO.N,IO4*%
X108000000Y-53000000D03*
%TD*%
D10*
%TO.P,reg_5V_smoothing_caps_out1,1*%
%TO.N,+5V*%
X168705100Y-26000000D03*
D14*
%TO.P,reg_5V_smoothing_caps_out1,2*%
%TO.N,GND*%
X166205100Y-26000000D03*
%TD*%
D12*
%TO.P,J4,1,Pin_1*%
%TO.N,3V3*%
X132068100Y-115353700D03*
D13*
%TO.P,J4,2,Pin_2*%
%TO.N,GND*%
X127068100Y-115353700D03*
%TD*%
D10*
%TO.P,reg_5V_smoothing_caps_in1,1*%
%TO.N,Net-(D1-K)*%
X176000000Y-25500000D03*
D14*
%TO.P,reg_5V_smoothing_caps_in1,2*%
%TO.N,GND*%
X173500000Y-25500000D03*
%TD*%
D19*
%TO.P,D1,1,K*%
%TO.N,Net-(D1-K)*%
X183420000Y-34000000D03*
D20*
%TO.P,D1,2,A*%
%TO.N,+12V*%
X193580000Y-34000000D03*
%TD*%
D10*
%TO.P,reg_3v3_smoother_in1,1*%
%TO.N,+5V*%
X146000000Y-30817621D03*
D14*
%TO.P,reg_3v3_smoother_in1,2*%
%TO.N,GND*%
X146000000Y-33317621D03*
%TD*%
D16*
%TO.P,mosfet2,1,S*%
%TO.N,GND*%
X174960000Y-104860000D03*
D17*
%TO.P,mosfet2,2,G*%
%TO.N,Net-(mosfet2-G)*%
X177500000Y-104860000D03*
%TO.P,mosfet2,3,D*%
%TO.N,mosfet2_o*%
X180040000Y-104860000D03*
%TD*%
D10*
%TO.P,reg_3v3_smoother_out1,1*%
%TO.N,3V3*%
X161625000Y-33805000D03*
D14*
%TO.P,reg_3v3_smoother_out1,2*%
%TO.N,GND*%
X161625000Y-36305000D03*
%TD*%
D16*
%TO.P,mosfet3,1,S*%
%TO.N,GND*%
X182460000Y-104860000D03*
D17*
%TO.P,mosfet3,2,G*%
%TO.N,Net-(mosfet3-G)*%
X185000000Y-104860000D03*
%TO.P,mosfet3,3,D*%
%TO.N,mosfet3_o*%
X187540000Y-104860000D03*
%TD*%
D21*
%TO.N,GND*%
X120500000Y-24500000D03*
%TO.N,3V3*%
X153000000Y-91500000D03*
X148500000Y-73000000D03*
X167500000Y-72455000D03*
%TO.N,GND*%
X156280000Y-27200000D03*
%TO.N,+5V*%
X168240000Y-33500000D03*
X152500000Y-29500000D03*
%TO.N,GND*%
X151850000Y-62880000D03*
X138090000Y-28505000D03*
X131690000Y-28505000D03*
X145500000Y-104000000D03*
X139500000Y-99500000D03*
X174540000Y-35780000D03*
X138500000Y-35000000D03*
X113000000Y-24500000D03*
X140000000Y-27930000D03*
X140000000Y-24000000D03*
X129780000Y-24000000D03*
X129780000Y-27930000D03*
X131000000Y-33500000D03*
X141600000Y-70600000D03*
X122500000Y-62500000D03*
X125500000Y-62575000D03*
X128500000Y-62517500D03*
X131500000Y-62500000D03*
X134350000Y-62880000D03*
%TO.N,D-*%
X133000000Y-78000000D03*
X120500000Y-40000000D03*
%TO.N,D+*%
X120500000Y-39000000D03*
X133000000Y-79500000D03*
%TO.N,BOOT*%
X119174265Y-61825735D03*
X152000000Y-79500000D03*
%TD*%
D22*
%TO.N,3V3*%
X153000000Y-77500000D02*
X153000000Y-91500000D01*
X148500000Y-73000000D02*
X153000000Y-77500000D01*
%TO.N,+5V*%
X158000000Y-32000000D02*
X155500000Y-29500000D01*
X155500000Y-29500000D02*
X152500000Y-29500000D01*
X168240000Y-33500000D02*
X166740000Y-32000000D01*
X166740000Y-32000000D02*
X158000000Y-32000000D01*
%TO.N,3V3*%
X167045000Y-72000000D02*
X167500000Y-72455000D01*
X149500000Y-72000000D02*
X167045000Y-72000000D01*
X148500000Y-73000000D02*
X149500000Y-72000000D01*
%TO.N,BOOT*%
X150500000Y-78000000D02*
X152000000Y-79500000D01*
X119174265Y-62674265D02*
X134500000Y-78000000D01*
X119174265Y-61825735D02*
X119174265Y-62674265D01*
X134500000Y-78000000D02*
X150500000Y-78000000D01*
%TO.N,D-*%
X117725000Y-64406802D02*
X131593198Y-78275000D01*
X118593197Y-39725001D02*
X117725000Y-40593198D01*
X120500000Y-40000000D02*
X120225001Y-39725001D01*
X120225001Y-39725001D02*
X118593197Y-39725001D01*
X117725000Y-40593198D02*
X117725000Y-64406802D01*
X132000000Y-78275000D02*
X132725000Y-78275000D01*
X131593198Y-78275000D02*
X132000000Y-78275000D01*
X132725000Y-78275000D02*
X133000000Y-78000000D01*
%TO.N,D+*%
X120225001Y-39274999D02*
X118406803Y-39274999D01*
X117275000Y-40406802D02*
X117275000Y-64593198D01*
X117275000Y-64593198D02*
X131406802Y-78725000D01*
X131406802Y-78725000D02*
X132000000Y-78725000D01*
X120500000Y-39000000D02*
X120225001Y-39274999D01*
X132225000Y-78725000D02*
X133000000Y-79500000D01*
X132000000Y-78725000D02*
X132225000Y-78725000D01*
X118406803Y-39274999D02*
X117275000Y-40406802D01*
%TD*%
%TA.AperFunction,Conductor*%
%TO.N,GND*%
G36*
X150266942Y-78620185D02*
G01*
X150287584Y-78636819D01*
X151165425Y-79514660D01*
X151198910Y-79575983D01*
X151199361Y-79578149D01*
X151230261Y-79733491D01*
X151230264Y-79733501D01*
X151290602Y-79879172D01*
X151290609Y-79879185D01*
X151378210Y-80010288D01*
X151378213Y-80010292D01*
X151489707Y-80121786D01*
X151489711Y-80121789D01*
X151620814Y-80209390D01*
X151620827Y-80209397D01*
X151766498Y-80269735D01*
X151766503Y-80269737D01*
X151896982Y-80295691D01*
X151921153Y-80300499D01*
X151921156Y-80300500D01*
X151921158Y-80300500D01*
X152078844Y-80300500D01*
X152078845Y-80300499D01*
X152233497Y-80269737D01*
X152233509Y-80269731D01*
X152239324Y-80267969D01*
X152240158Y-80270720D01*
X152297359Y-80264497D01*
X152359878Y-80295691D01*
X152395608Y-80355734D01*
X152399500Y-80386555D01*
X152399500Y-81500000D01*
X136500000Y-81500000D01*
X136500000Y-78600500D01*
X150199903Y-78600500D01*
X150266942Y-78620185D01*
G37*
%TD.AperFunction*%
%TA.AperFunction,Conductor*%
G36*
X153000000Y-71399500D02*
G01*
X149586670Y-71399500D01*
X149586654Y-71399499D01*
X149579058Y-71399499D01*
X149420943Y-71399499D01*
X149344579Y-71419961D01*
X149268214Y-71440423D01*
X149268209Y-71440426D01*
X149131290Y-71519475D01*
X149131282Y-71519481D01*
X148485339Y-72165425D01*
X148424016Y-72198910D01*
X148421850Y-72199361D01*
X148266508Y-72230261D01*
X148266498Y-72230264D01*
X148120827Y-72290602D01*
X148120814Y-72290609D01*
X147989711Y-72378210D01*
X147989707Y-72378213D01*
X147878213Y-72489707D01*
X147878210Y-72489711D01*
X147790609Y-72620814D01*
X147790602Y-72620827D01*
X147730264Y-72766498D01*
X147730261Y-72766510D01*
X147699500Y-72921153D01*
X147699500Y-73078846D01*
X147730261Y-73233489D01*
X147730264Y-73233501D01*
X147790602Y-73379172D01*
X147790609Y-73379185D01*
X147878210Y-73510288D01*
X147878213Y-73510292D01*
X147989707Y-73621786D01*
X147989711Y-73621789D01*
X148120814Y-73709390D01*
X148120827Y-73709397D01*
X148266498Y-73769735D01*
X148266503Y-73769737D01*
X148331147Y-73782595D01*
X148421849Y-73800638D01*
X148483760Y-73833023D01*
X148485339Y-73834574D01*
X152363181Y-77712416D01*
X152396666Y-77773739D01*
X152399500Y-77800097D01*
X152399500Y-78613444D01*
X152379815Y-78680483D01*
X152327011Y-78726238D01*
X152257853Y-78736182D01*
X152250462Y-78734890D01*
X152238925Y-78732511D01*
X152233497Y-78730263D01*
X152078842Y-78699500D01*
X152078807Y-78699500D01*
X152077303Y-78699190D01*
X152046835Y-78682981D01*
X152016238Y-78666976D01*
X152015633Y-78666381D01*
X152015619Y-78666374D01*
X152015611Y-78666359D01*
X152014660Y-78665425D01*
X150987590Y-77638355D01*
X150987588Y-77638352D01*
X150868717Y-77519481D01*
X150868716Y-77519480D01*
X150781904Y-77469360D01*
X150781904Y-77469359D01*
X150781900Y-77469358D01*
X150731785Y-77440423D01*
X150579057Y-77399499D01*
X150420943Y-77399499D01*
X150413347Y-77399499D01*
X150413331Y-77399500D01*
X136500000Y-77399500D01*
X136500000Y-61500000D01*
X153000000Y-61500000D01*
X153000000Y-71399500D01*
G37*
%TD.AperFunction*%
%TA.AperFunction,Conductor*%
G36*
X153000000Y-76650765D02*
G01*
X149436916Y-73087681D01*
X149403431Y-73026358D01*
X149408415Y-72956666D01*
X149436916Y-72912319D01*
X149712417Y-72636819D01*
X149773740Y-72603334D01*
X149800098Y-72600500D01*
X153000000Y-72600500D01*
X153000000Y-76650765D01*
G37*
%TD.AperFunction*%
%TD*%
%TA.AperFunction,Conductor*%
%TO.N,GND*%
G36*
X201942539Y-21020185D02*
G01*
X201988294Y-21072989D01*
X201999500Y-21124500D01*
X201999500Y-120875500D01*
X201979815Y-120942539D01*
X201927011Y-120988294D01*
X201875500Y-120999500D01*
X104124500Y-120999500D01*
X104057461Y-120979815D01*
X104011706Y-120927011D01*
X104000500Y-120875500D01*
X104000500Y-116799984D01*
X106099500Y-116799984D01*
X106099500Y-119200015D01*
X106110000Y-119302795D01*
X106110001Y-119302796D01*
X106165186Y-119469335D01*
X106165187Y-119469337D01*
X106257286Y-119618651D01*
X106257289Y-119618655D01*
X106381344Y-119742710D01*
X106381348Y-119742713D01*
X106530662Y-119834812D01*
X106530664Y-119834813D01*
X106530666Y-119834814D01*
X106697203Y-119889999D01*
X106799992Y-119900500D01*
X106799997Y-119900500D01*
X109200003Y-119900500D01*
X109200008Y-119900500D01*
X109302797Y-119889999D01*
X109469334Y-119834814D01*
X109618655Y-119742711D01*
X109742711Y-119618655D01*
X109834814Y-119469334D01*
X109889999Y-119302797D01*
X109900500Y-119200008D01*
X109900500Y-116799992D01*
X109889999Y-116697203D01*
X109834814Y-116530666D01*
X109742711Y-116381345D01*
X109618655Y-116257289D01*
X109618651Y-116257286D01*
X109469337Y-116165187D01*
X109469335Y-116165186D01*
X109386065Y-116137593D01*
X109302797Y-116110001D01*
X109302795Y-116110000D01*
X109200015Y-116099500D01*
X109200008Y-116099500D01*
X106799992Y-116099500D01*
X106799984Y-116099500D01*
X106697204Y-116110000D01*
X106697203Y-116110001D01*
X106530664Y-116165186D01*
X106530662Y-116165187D01*
X106381348Y-116257286D01*
X106381344Y-116257289D01*
X106257289Y-116381344D01*
X106257286Y-116381348D01*
X106165187Y-116530662D01*
X106165186Y-116530664D01*
X106110001Y-116697203D01*
X106110000Y-116697204D01*
X106099500Y-116799984D01*
X104000500Y-116799984D01*
X104000500Y-115229166D01*
X125168100Y-115229166D01*
X125168100Y-115478233D01*
X125200608Y-115725163D01*
X125265073Y-115965749D01*
X125360383Y-116195848D01*
X125360388Y-116195859D01*
X125484913Y-116411541D01*
X125484919Y-116411549D01*
X125559500Y-116508745D01*
X126467058Y-115601187D01*
X126492078Y-115661590D01*
X126563212Y-115768051D01*
X126653749Y-115858588D01*
X126760210Y-115929722D01*
X126820611Y-115954741D01*
X125913053Y-116862298D01*
X126010250Y-116936880D01*
X126010258Y-116936886D01*
X126225940Y-117061411D01*
X126225951Y-117061416D01*
X126456050Y-117156726D01*
X126696636Y-117221191D01*
X126943566Y-117253700D01*
X127192634Y-117253700D01*
X127439563Y-117221191D01*
X127680149Y-117156726D01*
X127910248Y-117061416D01*
X127910259Y-117061411D01*
X128125955Y-116936878D01*
X128223145Y-116862300D01*
X128223145Y-116862297D01*
X127315588Y-115954741D01*
X127375990Y-115929722D01*
X127482451Y-115858588D01*
X127572988Y-115768051D01*
X127644122Y-115661590D01*
X127669141Y-115601189D01*
X128576697Y-116508745D01*
X128576700Y-116508745D01*
X128651278Y-116411555D01*
X128775811Y-116195859D01*
X128775816Y-116195848D01*
X128871126Y-115965749D01*
X128935591Y-115725163D01*
X128968100Y-115478233D01*
X128968100Y-115229166D01*
X128935591Y-114982236D01*
X128871126Y-114741650D01*
X128775816Y-114511551D01*
X128775811Y-114511540D01*
X128651286Y-114295858D01*
X128651274Y-114295840D01*
X128597700Y-114226022D01*
X128597699Y-114226021D01*
X128576698Y-114198653D01*
X127669141Y-115106210D01*
X127644122Y-115045810D01*
X127572988Y-114939349D01*
X127482451Y-114848812D01*
X127375990Y-114777678D01*
X127315587Y-114752657D01*
X127914561Y-114153684D01*
X130167600Y-114153684D01*
X130167600Y-116553715D01*
X130178100Y-116656495D01*
X130178101Y-116656496D01*
X130233286Y-116823035D01*
X130233287Y-116823037D01*
X130325386Y-116972351D01*
X130325389Y-116972355D01*
X130449444Y-117096410D01*
X130449448Y-117096413D01*
X130598762Y-117188512D01*
X130598764Y-117188513D01*
X130598766Y-117188514D01*
X130765303Y-117243699D01*
X130868092Y-117254200D01*
X130868097Y-117254200D01*
X133268103Y-117254200D01*
X133268108Y-117254200D01*
X133370897Y-117243699D01*
X133537434Y-117188514D01*
X133686755Y-117096411D01*
X133810811Y-116972355D01*
X133902914Y-116823034D01*
X133958099Y-116656497D01*
X133968600Y-116553708D01*
X133968600Y-114153692D01*
X133958099Y-114050903D01*
X133902914Y-113884366D01*
X133878694Y-113845100D01*
X133810813Y-113735048D01*
X133810810Y-113735044D01*
X133686755Y-113610989D01*
X133686751Y-113610986D01*
X133537437Y-113518887D01*
X133537435Y-113518886D01*
X133454165Y-113491293D01*
X133370897Y-113463701D01*
X133370895Y-113463700D01*
X133268115Y-113453200D01*
X133268108Y-113453200D01*
X130868092Y-113453200D01*
X130868084Y-113453200D01*
X130765304Y-113463700D01*
X130765303Y-113463701D01*
X130598764Y-113518886D01*
X130598762Y-113518887D01*
X130449448Y-113610986D01*
X130449444Y-113610989D01*
X130325389Y-113735044D01*
X130325386Y-113735048D01*
X130233287Y-113884362D01*
X130233286Y-113884364D01*
X130178101Y-114050903D01*
X130178100Y-114050904D01*
X130167600Y-114153684D01*
X127914561Y-114153684D01*
X128223145Y-113845100D01*
X128125949Y-113770519D01*
X128125941Y-113770513D01*
X127910259Y-113645988D01*
X127910248Y-113645983D01*
X127680149Y-113550673D01*
X127439563Y-113486208D01*
X127192634Y-113453700D01*
X126943566Y-113453700D01*
X126696636Y-113486208D01*
X126456050Y-113550673D01*
X126225951Y-113645983D01*
X126225947Y-113645985D01*
X126010243Y-113770523D01*
X125913053Y-113845099D01*
X125913053Y-113845100D01*
X126820611Y-114752658D01*
X126760210Y-114777678D01*
X126653749Y-114848812D01*
X126563212Y-114939349D01*
X126492078Y-115045810D01*
X126467058Y-115106211D01*
X125559500Y-114198653D01*
X125559499Y-114198653D01*
X125484923Y-114295843D01*
X125360385Y-114511547D01*
X125360383Y-114511551D01*
X125265073Y-114741650D01*
X125200608Y-114982236D01*
X125168100Y-115229166D01*
X104000500Y-115229166D01*
X104000500Y-112875441D01*
X106099500Y-112875441D01*
X106099500Y-113124558D01*
X106099501Y-113124575D01*
X106132017Y-113371561D01*
X106196498Y-113612207D01*
X106291830Y-113842361D01*
X106291837Y-113842376D01*
X106416400Y-114058126D01*
X106568060Y-114255774D01*
X106568066Y-114255781D01*
X106744218Y-114431933D01*
X106744225Y-114431939D01*
X106941873Y-114583599D01*
X107157623Y-114708162D01*
X107157638Y-114708169D01*
X107238469Y-114741650D01*
X107387793Y-114803502D01*
X107628435Y-114867982D01*
X107875435Y-114900500D01*
X107875442Y-114900500D01*
X108124558Y-114900500D01*
X108124565Y-114900500D01*
X108371565Y-114867982D01*
X108612207Y-114803502D01*
X108842373Y-114708164D01*
X109058127Y-114583599D01*
X109255776Y-114431938D01*
X109431938Y-114255776D01*
X109583599Y-114058127D01*
X109708164Y-113842373D01*
X109803502Y-113612207D01*
X109867982Y-113371565D01*
X109900500Y-113124565D01*
X109900500Y-112875435D01*
X109867982Y-112628435D01*
X109803502Y-112387793D01*
X109708164Y-112157627D01*
X109583599Y-111941873D01*
X109431938Y-111744224D01*
X109431933Y-111744218D01*
X109255781Y-111568066D01*
X109255774Y-111568060D01*
X109058126Y-111416400D01*
X108842376Y-111291837D01*
X108842361Y-111291830D01*
X108612207Y-111196498D01*
X108371561Y-111132017D01*
X108124575Y-111099501D01*
X108124570Y-111099500D01*
X108124565Y-111099500D01*
X107875435Y-111099500D01*
X107875429Y-111099500D01*
X107875424Y-111099501D01*
X107628438Y-111132017D01*
X107387792Y-111196498D01*
X107157638Y-111291830D01*
X107157623Y-111291837D01*
X106941873Y-111416400D01*
X106744225Y-111568060D01*
X106744218Y-111568066D01*
X106568066Y-111744218D01*
X106568060Y-111744225D01*
X106416400Y-111941873D01*
X106291837Y-112157623D01*
X106291830Y-112157638D01*
X106196498Y-112387792D01*
X106132017Y-112628438D01*
X106099501Y-112875424D01*
X106099500Y-112875441D01*
X104000500Y-112875441D01*
X104000500Y-107875441D01*
X106099500Y-107875441D01*
X106099500Y-108124558D01*
X106099501Y-108124575D01*
X106132017Y-108371561D01*
X106196498Y-108612207D01*
X106291830Y-108842361D01*
X106291837Y-108842376D01*
X106416400Y-109058126D01*
X106568060Y-109255774D01*
X106568066Y-109255781D01*
X106744218Y-109431933D01*
X106744225Y-109431939D01*
X106941873Y-109583599D01*
X107157623Y-109708162D01*
X107157638Y-109708169D01*
X107256825Y-109749253D01*
X107387793Y-109803502D01*
X107628435Y-109867982D01*
X107875435Y-109900500D01*
X107875442Y-109900500D01*
X108124558Y-109900500D01*
X108124565Y-109900500D01*
X108371565Y-109867982D01*
X108612207Y-109803502D01*
X108842373Y-109708164D01*
X109058127Y-109583599D01*
X109255776Y-109431938D01*
X109431938Y-109255776D01*
X109583599Y-109058127D01*
X109708164Y-108842373D01*
X109803502Y-108612207D01*
X109867982Y-108371565D01*
X109900500Y-108124565D01*
X109900500Y-107875435D01*
X109867982Y-107628435D01*
X109803502Y-107387793D01*
X109708164Y-107157627D01*
X109583599Y-106941873D01*
X109431938Y-106744224D01*
X109431933Y-106744218D01*
X109255781Y-106568066D01*
X109255774Y-106568060D01*
X109058126Y-106416400D01*
X108842376Y-106291837D01*
X108842361Y-106291830D01*
X108612207Y-106196498D01*
X108371561Y-106132017D01*
X108124575Y-106099501D01*
X108124570Y-106099500D01*
X108124565Y-106099500D01*
X107875435Y-106099500D01*
X107875429Y-106099500D01*
X107875424Y-106099501D01*
X107628438Y-106132017D01*
X107387792Y-106196498D01*
X107157638Y-106291830D01*
X107157623Y-106291837D01*
X106941873Y-106416400D01*
X106744225Y-106568060D01*
X106744218Y-106568066D01*
X106568066Y-106744218D01*
X106568060Y-106744225D01*
X106416400Y-106941873D01*
X106291837Y-107157623D01*
X106291830Y-107157638D01*
X106196498Y-107387792D01*
X106132017Y-107628438D01*
X106099501Y-107875424D01*
X106099500Y-107875441D01*
X104000500Y-107875441D01*
X104000500Y-102875441D01*
X106099500Y-102875441D01*
X106099500Y-103124558D01*
X106099501Y-103124575D01*
X106132017Y-103371561D01*
X106196498Y-103612207D01*
X106291830Y-103842361D01*
X106291837Y-103842376D01*
X106416400Y-104058126D01*
X106568060Y-104255774D01*
X106568066Y-104255781D01*
X106744218Y-104431933D01*
X106744225Y-104431939D01*
X106941873Y-104583599D01*
X107157623Y-104708162D01*
X107157638Y-104708169D01*
X107256825Y-104749253D01*
X107387793Y-104803502D01*
X107628435Y-104867982D01*
X107875435Y-104900500D01*
X107875442Y-104900500D01*
X108124558Y-104900500D01*
X108124565Y-104900500D01*
X108371565Y-104867982D01*
X108612207Y-104803502D01*
X108842373Y-104708164D01*
X109058127Y-104583599D01*
X109255776Y-104431938D01*
X109431938Y-104255776D01*
X109580508Y-104062155D01*
X166210000Y-104062155D01*
X166210000Y-104610000D01*
X167144314Y-104610000D01*
X167139920Y-104614394D01*
X167087259Y-104705606D01*
X167060000Y-104807339D01*
X167060000Y-104912661D01*
X167087259Y-105014394D01*
X167139920Y-105105606D01*
X167144314Y-105110000D01*
X166210000Y-105110000D01*
X166210000Y-105657844D01*
X166216401Y-105717372D01*
X166216403Y-105717379D01*
X166266645Y-105852086D01*
X166266649Y-105852093D01*
X166352809Y-105967187D01*
X166352812Y-105967190D01*
X166467906Y-106053350D01*
X166467913Y-106053354D01*
X166602620Y-106103596D01*
X166602627Y-106103598D01*
X166662155Y-106109999D01*
X166662172Y-106110000D01*
X167210000Y-106110000D01*
X167210000Y-105175686D01*
X167214394Y-105180080D01*
X167305606Y-105232741D01*
X167407339Y-105260000D01*
X167512661Y-105260000D01*
X167614394Y-105232741D01*
X167705606Y-105180080D01*
X167710000Y-105175686D01*
X167710000Y-106110000D01*
X168257828Y-106110000D01*
X168257844Y-106109999D01*
X168317372Y-106103598D01*
X168317379Y-106103596D01*
X168452086Y-106053354D01*
X168452093Y-106053350D01*
X168567187Y-105967190D01*
X168567190Y-105967187D01*
X168653350Y-105852093D01*
X168653354Y-105852086D01*
X168703596Y-105717379D01*
X168703598Y-105717372D01*
X168709999Y-105657844D01*
X168710000Y-105657827D01*
X168710000Y-105593578D01*
X168729685Y-105526539D01*
X168782489Y-105480784D01*
X168851647Y-105470840D01*
X168915203Y-105499865D01*
X168934314Y-105520688D01*
X169046172Y-105674646D01*
X169185354Y-105813828D01*
X169344595Y-105929524D01*
X169418513Y-105967187D01*
X169519970Y-106018882D01*
X169519972Y-106018882D01*
X169519975Y-106018884D01*
X169620317Y-106051487D01*
X169707173Y-106079709D01*
X169901578Y-106110500D01*
X169901583Y-106110500D01*
X170098422Y-106110500D01*
X170292826Y-106079709D01*
X170480025Y-106018884D01*
X170655405Y-105929524D01*
X170814646Y-105813828D01*
X170953828Y-105674646D01*
X171069524Y-105515405D01*
X171158884Y-105340025D01*
X171159515Y-105338787D01*
X171207489Y-105287990D01*
X171275310Y-105271195D01*
X171341445Y-105293732D01*
X171380485Y-105338787D01*
X171470474Y-105515403D01*
X171474317Y-105520692D01*
X171586172Y-105674646D01*
X171725354Y-105813828D01*
X171884595Y-105929524D01*
X171958513Y-105967187D01*
X172059970Y-106018882D01*
X172059972Y-106018882D01*
X172059975Y-106018884D01*
X172160317Y-106051487D01*
X172247173Y-106079709D01*
X172441578Y-106110500D01*
X172441583Y-106110500D01*
X172638422Y-106110500D01*
X172832826Y-106079709D01*
X173020025Y-106018884D01*
X173195405Y-105929524D01*
X173354646Y-105813828D01*
X173493828Y-105674646D01*
X173495309Y-105672606D01*
X173496070Y-105672019D01*
X173496992Y-105670941D01*
X173497218Y-105671134D01*
X173550637Y-105629939D01*
X173620250Y-105623957D01*
X173682047Y-105656560D01*
X173712636Y-105710501D01*
X173713691Y-105710108D01*
X173716146Y-105716690D01*
X173716308Y-105716976D01*
X173716403Y-105717381D01*
X173766645Y-105852086D01*
X173766649Y-105852093D01*
X173852809Y-105967187D01*
X173852812Y-105967190D01*
X173967906Y-106053350D01*
X173967913Y-106053354D01*
X174102620Y-106103596D01*
X174102627Y-106103598D01*
X174162155Y-106109999D01*
X174162172Y-106110000D01*
X174710000Y-106110000D01*
X174710000Y-105175686D01*
X174714394Y-105180080D01*
X174805606Y-105232741D01*
X174907339Y-105260000D01*
X175012661Y-105260000D01*
X175114394Y-105232741D01*
X175205606Y-105180080D01*
X175210000Y-105175686D01*
X175210000Y-106110000D01*
X175757828Y-106110000D01*
X175757844Y-106109999D01*
X175817372Y-106103598D01*
X175817379Y-106103596D01*
X175952086Y-106053354D01*
X175952093Y-106053350D01*
X176067187Y-105967190D01*
X176067190Y-105967187D01*
X176153350Y-105852093D01*
X176153354Y-105852086D01*
X176203596Y-105717379D01*
X176203598Y-105717372D01*
X176209999Y-105657844D01*
X176210000Y-105657827D01*
X176210000Y-105593578D01*
X176229685Y-105526539D01*
X176282489Y-105480784D01*
X176351647Y-105470840D01*
X176415203Y-105499865D01*
X176434314Y-105520688D01*
X176546172Y-105674646D01*
X176685354Y-105813828D01*
X176844595Y-105929524D01*
X176918513Y-105967187D01*
X177019970Y-106018882D01*
X177019972Y-106018882D01*
X177019975Y-106018884D01*
X177120317Y-106051487D01*
X177207173Y-106079709D01*
X177401578Y-106110500D01*
X177401583Y-106110500D01*
X177598422Y-106110500D01*
X177792826Y-106079709D01*
X177980025Y-106018884D01*
X178155405Y-105929524D01*
X178314646Y-105813828D01*
X178453828Y-105674646D01*
X178569524Y-105515405D01*
X178658884Y-105340025D01*
X178659515Y-105338787D01*
X178707489Y-105287990D01*
X178775310Y-105271195D01*
X178841445Y-105293732D01*
X178880485Y-105338787D01*
X178970474Y-105515403D01*
X178974317Y-105520692D01*
X179086172Y-105674646D01*
X179225354Y-105813828D01*
X179384595Y-105929524D01*
X179458513Y-105967187D01*
X179559970Y-106018882D01*
X179559972Y-106018882D01*
X179559975Y-106018884D01*
X179660317Y-106051487D01*
X179747173Y-106079709D01*
X179941578Y-106110500D01*
X179941583Y-106110500D01*
X180138422Y-106110500D01*
X180332826Y-106079709D01*
X180520025Y-106018884D01*
X180695405Y-105929524D01*
X180854646Y-105813828D01*
X180993828Y-105674646D01*
X180995309Y-105672606D01*
X180996070Y-105672019D01*
X180996992Y-105670941D01*
X180997218Y-105671134D01*
X181050637Y-105629939D01*
X181120250Y-105623957D01*
X181182047Y-105656560D01*
X181212636Y-105710501D01*
X181213691Y-105710108D01*
X181216146Y-105716690D01*
X181216308Y-105716976D01*
X181216403Y-105717381D01*
X181266645Y-105852086D01*
X181266649Y-105852093D01*
X181352809Y-105967187D01*
X181352812Y-105967190D01*
X181467906Y-106053350D01*
X181467913Y-106053354D01*
X181602620Y-106103596D01*
X181602627Y-106103598D01*
X181662155Y-106109999D01*
X181662172Y-106110000D01*
X182210000Y-106110000D01*
X182210000Y-105175686D01*
X182214394Y-105180080D01*
X182305606Y-105232741D01*
X182407339Y-105260000D01*
X182512661Y-105260000D01*
X182614394Y-105232741D01*
X182705606Y-105180080D01*
X182710000Y-105175686D01*
X182710000Y-106110000D01*
X183257828Y-106110000D01*
X183257844Y-106109999D01*
X183317372Y-106103598D01*
X183317379Y-106103596D01*
X183452086Y-106053354D01*
X183452093Y-106053350D01*
X183567187Y-105967190D01*
X183567190Y-105967187D01*
X183653350Y-105852093D01*
X183653354Y-105852086D01*
X183703596Y-105717379D01*
X183703598Y-105717372D01*
X183709999Y-105657844D01*
X183710000Y-105657827D01*
X183710000Y-105593578D01*
X183729685Y-105526539D01*
X183782489Y-105480784D01*
X183851647Y-105470840D01*
X183915203Y-105499865D01*
X183934314Y-105520688D01*
X184046172Y-105674646D01*
X184185354Y-105813828D01*
X184344595Y-105929524D01*
X184418513Y-105967187D01*
X184519970Y-106018882D01*
X184519972Y-106018882D01*
X184519975Y-106018884D01*
X184620317Y-106051487D01*
X184707173Y-106079709D01*
X184901578Y-106110500D01*
X184901583Y-106110500D01*
X185098422Y-106110500D01*
X185292826Y-106079709D01*
X185480025Y-106018884D01*
X185655405Y-105929524D01*
X185814646Y-105813828D01*
X185953828Y-105674646D01*
X186069524Y-105515405D01*
X186158884Y-105340025D01*
X186159515Y-105338787D01*
X186207489Y-105287990D01*
X186275310Y-105271195D01*
X186341445Y-105293732D01*
X186380485Y-105338787D01*
X186470474Y-105515403D01*
X186474317Y-105520692D01*
X186586172Y-105674646D01*
X186725354Y-105813828D01*
X186884595Y-105929524D01*
X186958513Y-105967187D01*
X187059970Y-106018882D01*
X187059972Y-106018882D01*
X187059975Y-106018884D01*
X187160317Y-106051487D01*
X187247173Y-106079709D01*
X187441578Y-106110500D01*
X187441583Y-106110500D01*
X187638422Y-106110500D01*
X187832826Y-106079709D01*
X188020025Y-106018884D01*
X188195405Y-105929524D01*
X188354646Y-105813828D01*
X188493828Y-105674646D01*
X188609524Y-105515405D01*
X188698884Y-105340025D01*
X188759709Y-105152826D01*
X188767188Y-105105606D01*
X188790500Y-104958422D01*
X188790500Y-104761577D01*
X188759709Y-104567173D01*
X188698882Y-104379970D01*
X188609523Y-104204594D01*
X188605682Y-104199307D01*
X188493828Y-104045354D01*
X188354646Y-103906172D01*
X188195405Y-103790476D01*
X188020029Y-103701117D01*
X187832826Y-103640290D01*
X187638422Y-103609500D01*
X187638417Y-103609500D01*
X187441583Y-103609500D01*
X187441578Y-103609500D01*
X187247173Y-103640290D01*
X187059970Y-103701117D01*
X186884594Y-103790476D01*
X186813182Y-103842361D01*
X186725354Y-103906172D01*
X186725352Y-103906174D01*
X186725351Y-103906174D01*
X186586174Y-104045351D01*
X186586174Y-104045352D01*
X186586172Y-104045354D01*
X186553807Y-104089901D01*
X186470476Y-104204594D01*
X186380485Y-104381213D01*
X186332511Y-104432009D01*
X186264690Y-104448804D01*
X186198555Y-104426267D01*
X186159515Y-104381213D01*
X186069523Y-104204594D01*
X186065682Y-104199307D01*
X185953828Y-104045354D01*
X185814646Y-103906172D01*
X185655405Y-103790476D01*
X185480029Y-103701117D01*
X185292826Y-103640290D01*
X185098422Y-103609500D01*
X185098417Y-103609500D01*
X184901583Y-103609500D01*
X184901578Y-103609500D01*
X184707173Y-103640290D01*
X184519970Y-103701117D01*
X184344594Y-103790476D01*
X184273182Y-103842361D01*
X184185354Y-103906172D01*
X184185352Y-103906174D01*
X184185351Y-103906174D01*
X184046174Y-104045351D01*
X184046174Y-104045352D01*
X184046172Y-104045354D01*
X183987273Y-104126421D01*
X183934318Y-104199307D01*
X183878988Y-104241972D01*
X183809374Y-104247951D01*
X183747579Y-104215345D01*
X183713222Y-104154506D01*
X183710000Y-104126421D01*
X183710000Y-104062172D01*
X183709999Y-104062155D01*
X183703598Y-104002627D01*
X183703596Y-104002620D01*
X183653354Y-103867913D01*
X183653350Y-103867906D01*
X183567190Y-103752812D01*
X183567187Y-103752809D01*
X183452093Y-103666649D01*
X183452086Y-103666645D01*
X183317379Y-103616403D01*
X183317372Y-103616401D01*
X183257844Y-103610000D01*
X182710000Y-103610000D01*
X182710000Y-104544314D01*
X182705606Y-104539920D01*
X182614394Y-104487259D01*
X182512661Y-104460000D01*
X182407339Y-104460000D01*
X182305606Y-104487259D01*
X182214394Y-104539920D01*
X182210000Y-104544314D01*
X182210000Y-103610000D01*
X181662155Y-103610000D01*
X181602627Y-103616401D01*
X181602620Y-103616403D01*
X181467913Y-103666645D01*
X181467906Y-103666649D01*
X181352812Y-103752809D01*
X181352809Y-103752812D01*
X181266649Y-103867906D01*
X181266645Y-103867913D01*
X181216402Y-104002622D01*
X181216307Y-104003026D01*
X181216147Y-104003306D01*
X181213691Y-104009892D01*
X181212623Y-104009493D01*
X181181733Y-104063742D01*
X181119823Y-104096128D01*
X181050231Y-104089901D01*
X180997213Y-104048869D01*
X180996992Y-104049059D01*
X180996082Y-104047993D01*
X180995315Y-104047400D01*
X180993832Y-104045360D01*
X180993828Y-104045354D01*
X180854646Y-103906172D01*
X180695405Y-103790476D01*
X180520029Y-103701117D01*
X180332826Y-103640290D01*
X180138422Y-103609500D01*
X180138417Y-103609500D01*
X179941583Y-103609500D01*
X179941578Y-103609500D01*
X179747173Y-103640290D01*
X179559970Y-103701117D01*
X179384594Y-103790476D01*
X179313182Y-103842361D01*
X179225354Y-103906172D01*
X179225352Y-103906174D01*
X179225351Y-103906174D01*
X179086174Y-104045351D01*
X179086174Y-104045352D01*
X179086172Y-104045354D01*
X179053807Y-104089901D01*
X178970476Y-104204594D01*
X178880485Y-104381213D01*
X178832511Y-104432009D01*
X178764690Y-104448804D01*
X178698555Y-104426267D01*
X178659515Y-104381213D01*
X178569523Y-104204594D01*
X178565682Y-104199307D01*
X178453828Y-104045354D01*
X178314646Y-103906172D01*
X178155405Y-103790476D01*
X177980029Y-103701117D01*
X177792826Y-103640290D01*
X177598422Y-103609500D01*
X177598417Y-103609500D01*
X177401583Y-103609500D01*
X177401578Y-103609500D01*
X177207173Y-103640290D01*
X177019970Y-103701117D01*
X176844594Y-103790476D01*
X176773182Y-103842361D01*
X176685354Y-103906172D01*
X176685352Y-103906174D01*
X176685351Y-103906174D01*
X176546174Y-104045351D01*
X176546174Y-104045352D01*
X176546172Y-104045354D01*
X176487273Y-104126421D01*
X176434318Y-104199307D01*
X176378988Y-104241972D01*
X176309374Y-104247951D01*
X176247579Y-104215345D01*
X176213222Y-104154506D01*
X176210000Y-104126421D01*
X176210000Y-104062172D01*
X176209999Y-104062155D01*
X176203598Y-104002627D01*
X176203596Y-104002620D01*
X176153354Y-103867913D01*
X176153350Y-103867906D01*
X176067190Y-103752812D01*
X176067187Y-103752809D01*
X175952093Y-103666649D01*
X175952086Y-103666645D01*
X175817379Y-103616403D01*
X175817372Y-103616401D01*
X175757844Y-103610000D01*
X175210000Y-103610000D01*
X175210000Y-104544314D01*
X175205606Y-104539920D01*
X175114394Y-104487259D01*
X175012661Y-104460000D01*
X174907339Y-104460000D01*
X174805606Y-104487259D01*
X174714394Y-104539920D01*
X174710000Y-104544314D01*
X174710000Y-103610000D01*
X174162155Y-103610000D01*
X174102627Y-103616401D01*
X174102620Y-103616403D01*
X173967913Y-103666645D01*
X173967906Y-103666649D01*
X173852812Y-103752809D01*
X173852809Y-103752812D01*
X173766649Y-103867906D01*
X173766645Y-103867913D01*
X173716402Y-104002622D01*
X173716307Y-104003026D01*
X173716147Y-104003306D01*
X173713691Y-104009892D01*
X173712623Y-104009493D01*
X173681733Y-104063742D01*
X173619823Y-104096128D01*
X173550231Y-104089901D01*
X173497213Y-104048869D01*
X173496992Y-104049059D01*
X173496082Y-104047993D01*
X173495315Y-104047400D01*
X173493832Y-104045360D01*
X173493828Y-104045354D01*
X173354646Y-103906172D01*
X173195405Y-103790476D01*
X173020029Y-103701117D01*
X172832826Y-103640290D01*
X172638422Y-103609500D01*
X172638417Y-103609500D01*
X172441583Y-103609500D01*
X172441578Y-103609500D01*
X172247173Y-103640290D01*
X172059970Y-103701117D01*
X171884594Y-103790476D01*
X171813182Y-103842361D01*
X171725354Y-103906172D01*
X171725352Y-103906174D01*
X171725351Y-103906174D01*
X171586174Y-104045351D01*
X171586174Y-104045352D01*
X171586172Y-104045354D01*
X171553807Y-104089901D01*
X171470476Y-104204594D01*
X171380485Y-104381213D01*
X171332511Y-104432009D01*
X171264690Y-104448804D01*
X171198555Y-104426267D01*
X171159515Y-104381213D01*
X171069523Y-104204594D01*
X171065682Y-104199307D01*
X170953828Y-104045354D01*
X170814646Y-103906172D01*
X170655405Y-103790476D01*
X170480029Y-103701117D01*
X170292826Y-103640290D01*
X170098422Y-103609500D01*
X170098417Y-103609500D01*
X169901583Y-103609500D01*
X169901578Y-103609500D01*
X169707173Y-103640290D01*
X169519970Y-103701117D01*
X169344594Y-103790476D01*
X169273182Y-103842361D01*
X169185354Y-103906172D01*
X169185352Y-103906174D01*
X169185351Y-103906174D01*
X169046174Y-104045351D01*
X169046174Y-104045352D01*
X169046172Y-104045354D01*
X168987273Y-104126421D01*
X168934318Y-104199307D01*
X168878988Y-104241972D01*
X168809374Y-104247951D01*
X168747579Y-104215345D01*
X168713222Y-104154506D01*
X168710000Y-104126421D01*
X168710000Y-104062172D01*
X168709999Y-104062155D01*
X168703598Y-104002627D01*
X168703596Y-104002620D01*
X168653354Y-103867913D01*
X168653350Y-103867906D01*
X168567190Y-103752812D01*
X168567187Y-103752809D01*
X168452093Y-103666649D01*
X168452086Y-103666645D01*
X168317379Y-103616403D01*
X168317372Y-103616401D01*
X168257844Y-103610000D01*
X167710000Y-103610000D01*
X167710000Y-104544314D01*
X167705606Y-104539920D01*
X167614394Y-104487259D01*
X167512661Y-104460000D01*
X167407339Y-104460000D01*
X167305606Y-104487259D01*
X167214394Y-104539920D01*
X167210000Y-104544314D01*
X167210000Y-103610000D01*
X166662155Y-103610000D01*
X166602627Y-103616401D01*
X166602620Y-103616403D01*
X166467913Y-103666645D01*
X166467906Y-103666649D01*
X166352812Y-103752809D01*
X166352809Y-103752812D01*
X166266649Y-103867906D01*
X166266645Y-103867913D01*
X166216403Y-104002620D01*
X166216401Y-104002627D01*
X166210000Y-104062155D01*
X109580508Y-104062155D01*
X109583599Y-104058127D01*
X109603216Y-104024147D01*
X109618977Y-103996851D01*
X109675504Y-103898940D01*
X109708164Y-103842373D01*
X109803502Y-103612207D01*
X109867982Y-103371565D01*
X109900500Y-103124565D01*
X109900500Y-102875435D01*
X109867982Y-102628435D01*
X109803502Y-102387793D01*
X109708164Y-102157627D01*
X109583599Y-101941873D01*
X109431938Y-101744224D01*
X109431933Y-101744218D01*
X109255781Y-101568066D01*
X109255774Y-101568060D01*
X109058126Y-101416400D01*
X108842376Y-101291837D01*
X108842361Y-101291830D01*
X108612207Y-101196498D01*
X108371561Y-101132017D01*
X108124575Y-101099501D01*
X108124570Y-101099500D01*
X108124565Y-101099500D01*
X107875435Y-101099500D01*
X107875429Y-101099500D01*
X107875424Y-101099501D01*
X107628438Y-101132017D01*
X107387792Y-101196498D01*
X107157638Y-101291830D01*
X107157623Y-101291837D01*
X106941873Y-101416400D01*
X106744225Y-101568060D01*
X106744218Y-101568066D01*
X106568066Y-101744218D01*
X106568060Y-101744225D01*
X106416400Y-101941873D01*
X106291837Y-102157623D01*
X106291830Y-102157638D01*
X106196498Y-102387792D01*
X106132017Y-102628438D01*
X106099501Y-102875424D01*
X106099500Y-102875441D01*
X104000500Y-102875441D01*
X104000500Y-97875441D01*
X106099500Y-97875441D01*
X106099500Y-98124558D01*
X106099501Y-98124575D01*
X106132017Y-98371561D01*
X106196498Y-98612207D01*
X106291830Y-98842361D01*
X106291837Y-98842376D01*
X106416400Y-99058126D01*
X106568060Y-99255774D01*
X106568066Y-99255781D01*
X106744218Y-99431933D01*
X106744225Y-99431939D01*
X106941873Y-99583599D01*
X107157623Y-99708162D01*
X107157638Y-99708169D01*
X107256825Y-99749253D01*
X107387793Y-99803502D01*
X107628435Y-99867982D01*
X107875435Y-99900500D01*
X107875442Y-99900500D01*
X108124558Y-99900500D01*
X108124565Y-99900500D01*
X108371565Y-99867982D01*
X108612207Y-99803502D01*
X108842373Y-99708164D01*
X109058127Y-99583599D01*
X109255776Y-99431938D01*
X109431938Y-99255776D01*
X109583599Y-99058127D01*
X109708164Y-98842373D01*
X109803502Y-98612207D01*
X109867982Y-98371565D01*
X109900500Y-98124565D01*
X109900500Y-97875435D01*
X109867982Y-97628435D01*
X109803502Y-97387793D01*
X109708164Y-97157627D01*
X109583599Y-96941873D01*
X109431938Y-96744224D01*
X109431933Y-96744218D01*
X109255781Y-96568066D01*
X109255774Y-96568060D01*
X109058126Y-96416400D01*
X108842376Y-96291837D01*
X108842361Y-96291830D01*
X108612207Y-96196498D01*
X108371561Y-96132017D01*
X108124575Y-96099501D01*
X108124570Y-96099500D01*
X108124565Y-96099500D01*
X107875435Y-96099500D01*
X107875429Y-96099500D01*
X107875424Y-96099501D01*
X107628438Y-96132017D01*
X107387792Y-96196498D01*
X107157638Y-96291830D01*
X107157623Y-96291837D01*
X106941873Y-96416400D01*
X106744225Y-96568060D01*
X106744218Y-96568066D01*
X106568066Y-96744218D01*
X106568060Y-96744225D01*
X106416400Y-96941873D01*
X106291837Y-97157623D01*
X106291830Y-97157638D01*
X106196498Y-97387792D01*
X106132017Y-97628438D01*
X106099501Y-97875424D01*
X106099500Y-97875441D01*
X104000500Y-97875441D01*
X104000500Y-92875441D01*
X106099500Y-92875441D01*
X106099500Y-93124558D01*
X106099501Y-93124575D01*
X106132017Y-93371561D01*
X106196498Y-93612207D01*
X106291830Y-93842361D01*
X106291837Y-93842376D01*
X106416400Y-94058126D01*
X106568060Y-94255774D01*
X106568066Y-94255781D01*
X106744218Y-94431933D01*
X106744225Y-94431939D01*
X106941873Y-94583599D01*
X107157623Y-94708162D01*
X107157638Y-94708169D01*
X107256825Y-94749253D01*
X107387793Y-94803502D01*
X107628435Y-94867982D01*
X107875435Y-94900500D01*
X107875442Y-94900500D01*
X108124558Y-94900500D01*
X108124565Y-94900500D01*
X108371565Y-94867982D01*
X108612207Y-94803502D01*
X108842373Y-94708164D01*
X109058127Y-94583599D01*
X109255776Y-94431938D01*
X109431938Y-94255776D01*
X109583599Y-94058127D01*
X109708164Y-93842373D01*
X109803502Y-93612207D01*
X109867982Y-93371565D01*
X109900500Y-93124565D01*
X109900500Y-92875435D01*
X109867982Y-92628435D01*
X109803502Y-92387793D01*
X109708164Y-92157627D01*
X109687471Y-92121786D01*
X109583599Y-91941873D01*
X109431939Y-91744225D01*
X109431933Y-91744218D01*
X109255781Y-91568066D01*
X109255774Y-91568060D01*
X109058126Y-91416400D01*
X108842376Y-91291837D01*
X108842361Y-91291830D01*
X108612207Y-91196498D01*
X108371561Y-91132017D01*
X108124575Y-91099501D01*
X108124570Y-91099500D01*
X108124565Y-91099500D01*
X107875435Y-91099500D01*
X107875429Y-91099500D01*
X107875424Y-91099501D01*
X107628438Y-91132017D01*
X107387792Y-91196498D01*
X107157638Y-91291830D01*
X107157623Y-91291837D01*
X106941873Y-91416400D01*
X106744225Y-91568060D01*
X106744218Y-91568066D01*
X106568066Y-91744218D01*
X106568060Y-91744225D01*
X106416400Y-91941873D01*
X106291837Y-92157623D01*
X106291830Y-92157638D01*
X106196498Y-92387792D01*
X106132017Y-92628438D01*
X106099501Y-92875424D01*
X106099500Y-92875441D01*
X104000500Y-92875441D01*
X104000500Y-87875441D01*
X106099500Y-87875441D01*
X106099500Y-88124558D01*
X106099501Y-88124575D01*
X106132017Y-88371561D01*
X106196498Y-88612207D01*
X106291830Y-88842361D01*
X106291837Y-88842376D01*
X106416400Y-89058126D01*
X106568060Y-89255774D01*
X106568066Y-89255781D01*
X106744218Y-89431933D01*
X106744225Y-89431939D01*
X106941873Y-89583599D01*
X107157623Y-89708162D01*
X107157638Y-89708169D01*
X107256825Y-89749253D01*
X107387793Y-89803502D01*
X107628435Y-89867982D01*
X107875435Y-89900500D01*
X107875442Y-89900500D01*
X108124558Y-89900500D01*
X108124565Y-89900500D01*
X108371565Y-89867982D01*
X108612207Y-89803502D01*
X108842373Y-89708164D01*
X109058127Y-89583599D01*
X109255776Y-89431938D01*
X109431938Y-89255776D01*
X109583599Y-89058127D01*
X109708164Y-88842373D01*
X109803502Y-88612207D01*
X109867982Y-88371565D01*
X109900500Y-88124565D01*
X109900500Y-87875435D01*
X109867982Y-87628435D01*
X109803502Y-87387793D01*
X109745338Y-87247372D01*
X109708169Y-87157638D01*
X109708162Y-87157623D01*
X109583599Y-86941873D01*
X109431939Y-86744225D01*
X109431933Y-86744218D01*
X109255781Y-86568066D01*
X109255774Y-86568060D01*
X109058126Y-86416400D01*
X108842376Y-86291837D01*
X108842361Y-86291830D01*
X108612207Y-86196498D01*
X108371561Y-86132017D01*
X108124575Y-86099501D01*
X108124570Y-86099500D01*
X108124565Y-86099500D01*
X107875435Y-86099500D01*
X107875429Y-86099500D01*
X107875424Y-86099501D01*
X107628438Y-86132017D01*
X107387792Y-86196498D01*
X107157638Y-86291830D01*
X107157623Y-86291837D01*
X106941873Y-86416400D01*
X106744225Y-86568060D01*
X106744218Y-86568066D01*
X106568066Y-86744218D01*
X106568060Y-86744225D01*
X106416400Y-86941873D01*
X106291837Y-87157623D01*
X106291830Y-87157638D01*
X106196498Y-87387792D01*
X106132017Y-87628438D01*
X106099501Y-87875424D01*
X106099500Y-87875441D01*
X104000500Y-87875441D01*
X104000500Y-82875441D01*
X106099500Y-82875441D01*
X106099500Y-83124558D01*
X106099501Y-83124575D01*
X106132017Y-83371561D01*
X106196498Y-83612207D01*
X106291830Y-83842361D01*
X106291837Y-83842376D01*
X106416400Y-84058126D01*
X106568060Y-84255774D01*
X106568066Y-84255781D01*
X106744218Y-84431933D01*
X106744225Y-84431939D01*
X106941873Y-84583599D01*
X107157623Y-84708162D01*
X107157638Y-84708169D01*
X107256825Y-84749253D01*
X107387793Y-84803502D01*
X107628435Y-84867982D01*
X107875435Y-84900500D01*
X107875442Y-84900500D01*
X108124558Y-84900500D01*
X108124565Y-84900500D01*
X108371565Y-84867982D01*
X108612207Y-84803502D01*
X108842373Y-84708164D01*
X109058127Y-84583599D01*
X109255776Y-84431938D01*
X109431938Y-84255776D01*
X109583599Y-84058127D01*
X109708164Y-83842373D01*
X109803502Y-83612207D01*
X109867982Y-83371565D01*
X109900500Y-83124565D01*
X109900500Y-82875435D01*
X109867982Y-82628435D01*
X109803502Y-82387793D01*
X109708164Y-82157627D01*
X109583599Y-81941873D01*
X109431938Y-81744224D01*
X109431933Y-81744218D01*
X109255781Y-81568066D01*
X109255774Y-81568060D01*
X109058126Y-81416400D01*
X108842376Y-81291837D01*
X108842361Y-81291830D01*
X108612207Y-81196498D01*
X108371561Y-81132017D01*
X108124575Y-81099501D01*
X108124570Y-81099500D01*
X108124565Y-81099500D01*
X107875435Y-81099500D01*
X107875429Y-81099500D01*
X107875424Y-81099501D01*
X107628438Y-81132017D01*
X107387792Y-81196498D01*
X107157638Y-81291830D01*
X107157623Y-81291837D01*
X106941873Y-81416400D01*
X106744225Y-81568060D01*
X106744218Y-81568066D01*
X106568066Y-81744218D01*
X106568060Y-81744225D01*
X106416400Y-81941873D01*
X106291837Y-82157623D01*
X106291830Y-82157638D01*
X106196498Y-82387792D01*
X106132017Y-82628438D01*
X106099501Y-82875424D01*
X106099500Y-82875441D01*
X104000500Y-82875441D01*
X104000500Y-77875441D01*
X106099500Y-77875441D01*
X106099500Y-78124558D01*
X106099501Y-78124575D01*
X106131642Y-78368716D01*
X106132018Y-78371565D01*
X106166692Y-78500968D01*
X106196498Y-78612207D01*
X106291830Y-78842361D01*
X106291837Y-78842376D01*
X106416400Y-79058126D01*
X106568060Y-79255774D01*
X106568066Y-79255781D01*
X106744218Y-79431933D01*
X106744225Y-79431939D01*
X106941873Y-79583599D01*
X107157623Y-79708162D01*
X107157638Y-79708169D01*
X107256825Y-79749253D01*
X107387793Y-79803502D01*
X107628435Y-79867982D01*
X107875435Y-79900500D01*
X107875442Y-79900500D01*
X108124558Y-79900500D01*
X108124565Y-79900500D01*
X108371565Y-79867982D01*
X108612207Y-79803502D01*
X108842373Y-79708164D01*
X109058127Y-79583599D01*
X109255776Y-79431938D01*
X109431938Y-79255776D01*
X109583599Y-79058127D01*
X109708164Y-78842373D01*
X109803502Y-78612207D01*
X109867982Y-78371565D01*
X109900500Y-78124565D01*
X109900500Y-77875435D01*
X109867982Y-77628435D01*
X109803502Y-77387793D01*
X109730380Y-77211261D01*
X109708169Y-77157638D01*
X109708162Y-77157623D01*
X109583599Y-76941873D01*
X109431939Y-76744225D01*
X109431933Y-76744218D01*
X109255781Y-76568066D01*
X109255774Y-76568060D01*
X109058126Y-76416400D01*
X108842376Y-76291837D01*
X108842361Y-76291830D01*
X108612207Y-76196498D01*
X108371561Y-76132017D01*
X108124575Y-76099501D01*
X108124570Y-76099500D01*
X108124565Y-76099500D01*
X107875435Y-76099500D01*
X107875429Y-76099500D01*
X107875424Y-76099501D01*
X107628438Y-76132017D01*
X107387792Y-76196498D01*
X107157638Y-76291830D01*
X107157623Y-76291837D01*
X106941873Y-76416400D01*
X106744225Y-76568060D01*
X106744218Y-76568066D01*
X106568066Y-76744218D01*
X106568060Y-76744225D01*
X106416400Y-76941873D01*
X106291837Y-77157623D01*
X106291830Y-77157638D01*
X106196498Y-77387792D01*
X106132017Y-77628438D01*
X106099501Y-77875424D01*
X106099500Y-77875441D01*
X104000500Y-77875441D01*
X104000500Y-72875441D01*
X106099500Y-72875441D01*
X106099500Y-73124558D01*
X106099501Y-73124575D01*
X106132017Y-73371561D01*
X106196498Y-73612207D01*
X106291830Y-73842361D01*
X106291837Y-73842376D01*
X106416400Y-74058126D01*
X106568060Y-74255774D01*
X106568066Y-74255781D01*
X106744218Y-74431933D01*
X106744225Y-74431939D01*
X106941873Y-74583599D01*
X107157623Y-74708162D01*
X107157638Y-74708169D01*
X107256825Y-74749253D01*
X107387793Y-74803502D01*
X107628435Y-74867982D01*
X107875435Y-74900500D01*
X107875442Y-74900500D01*
X108124558Y-74900500D01*
X108124565Y-74900500D01*
X108371565Y-74867982D01*
X108612207Y-74803502D01*
X108842373Y-74708164D01*
X109058127Y-74583599D01*
X109255776Y-74431938D01*
X109431938Y-74255776D01*
X109583599Y-74058127D01*
X109708164Y-73842373D01*
X109803502Y-73612207D01*
X109867982Y-73371565D01*
X109900500Y-73124565D01*
X109900500Y-72875435D01*
X109867982Y-72628435D01*
X109803502Y-72387793D01*
X109738250Y-72230261D01*
X109708169Y-72157638D01*
X109708162Y-72157623D01*
X109583599Y-71941873D01*
X109431939Y-71744225D01*
X109431933Y-71744218D01*
X109255781Y-71568066D01*
X109255774Y-71568060D01*
X109058126Y-71416400D01*
X108842376Y-71291837D01*
X108842361Y-71291830D01*
X108612207Y-71196498D01*
X108371561Y-71132017D01*
X108124575Y-71099501D01*
X108124570Y-71099500D01*
X108124565Y-71099500D01*
X107875435Y-71099500D01*
X107875429Y-71099500D01*
X107875424Y-71099501D01*
X107628438Y-71132017D01*
X107387792Y-71196498D01*
X107157638Y-71291830D01*
X107157623Y-71291837D01*
X106941873Y-71416400D01*
X106744225Y-71568060D01*
X106744218Y-71568066D01*
X106568066Y-71744218D01*
X106568060Y-71744225D01*
X106416400Y-71941873D01*
X106291837Y-72157623D01*
X106291830Y-72157638D01*
X106196498Y-72387792D01*
X106132017Y-72628438D01*
X106099501Y-72875424D01*
X106099500Y-72875441D01*
X104000500Y-72875441D01*
X104000500Y-67875441D01*
X106099500Y-67875441D01*
X106099500Y-68124558D01*
X106099501Y-68124575D01*
X106132017Y-68371561D01*
X106196498Y-68612207D01*
X106291830Y-68842361D01*
X106291837Y-68842376D01*
X106416400Y-69058126D01*
X106568060Y-69255774D01*
X106568066Y-69255781D01*
X106744218Y-69431933D01*
X106744225Y-69431939D01*
X106941873Y-69583599D01*
X107157623Y-69708162D01*
X107157638Y-69708169D01*
X107256825Y-69749253D01*
X107387793Y-69803502D01*
X107628435Y-69867982D01*
X107875435Y-69900500D01*
X107875442Y-69900500D01*
X108124558Y-69900500D01*
X108124565Y-69900500D01*
X108371565Y-69867982D01*
X108612207Y-69803502D01*
X108842373Y-69708164D01*
X109058127Y-69583599D01*
X109255776Y-69431938D01*
X109431938Y-69255776D01*
X109583599Y-69058127D01*
X109708164Y-68842373D01*
X109803502Y-68612207D01*
X109867982Y-68371565D01*
X109900500Y-68124565D01*
X109900500Y-67875435D01*
X109867982Y-67628435D01*
X109803502Y-67387793D01*
X109708164Y-67157627D01*
X109583599Y-66941873D01*
X109431938Y-66744224D01*
X109431933Y-66744218D01*
X109255781Y-66568066D01*
X109255774Y-66568060D01*
X109058126Y-66416400D01*
X108842376Y-66291837D01*
X108842361Y-66291830D01*
X108612207Y-66196498D01*
X108371561Y-66132017D01*
X108124575Y-66099501D01*
X108124570Y-66099500D01*
X108124565Y-66099500D01*
X107875435Y-66099500D01*
X107875429Y-66099500D01*
X107875424Y-66099501D01*
X107628438Y-66132017D01*
X107387792Y-66196498D01*
X107157638Y-66291830D01*
X107157623Y-66291837D01*
X106941873Y-66416400D01*
X106744225Y-66568060D01*
X106744218Y-66568066D01*
X106568066Y-66744218D01*
X106568060Y-66744225D01*
X106416400Y-66941873D01*
X106291837Y-67157623D01*
X106291830Y-67157638D01*
X106196498Y-67387792D01*
X106132017Y-67628438D01*
X106099501Y-67875424D01*
X106099500Y-67875441D01*
X104000500Y-67875441D01*
X104000500Y-62875441D01*
X106099500Y-62875441D01*
X106099500Y-63124558D01*
X106099501Y-63124575D01*
X106132017Y-63371561D01*
X106196498Y-63612207D01*
X106291830Y-63842361D01*
X106291837Y-63842376D01*
X106416400Y-64058126D01*
X106568060Y-64255774D01*
X106568066Y-64255781D01*
X106744218Y-64431933D01*
X106744225Y-64431939D01*
X106941873Y-64583599D01*
X107157623Y-64708162D01*
X107157638Y-64708169D01*
X107256825Y-64749253D01*
X107387793Y-64803502D01*
X107628435Y-64867982D01*
X107875435Y-64900500D01*
X107875442Y-64900500D01*
X108124558Y-64900500D01*
X108124565Y-64900500D01*
X108371565Y-64867982D01*
X108612207Y-64803502D01*
X108842373Y-64708164D01*
X108904575Y-64672252D01*
X116674498Y-64672252D01*
X116715422Y-64824981D01*
X116740248Y-64867980D01*
X116740250Y-64867983D01*
X116794479Y-64961912D01*
X116794481Y-64961915D01*
X116913349Y-65080783D01*
X116913355Y-65080788D01*
X130921941Y-79089374D01*
X130921951Y-79089385D01*
X130926281Y-79093715D01*
X130926282Y-79093716D01*
X131038086Y-79205520D01*
X131107519Y-79245606D01*
X131124897Y-79255639D01*
X131124899Y-79255641D01*
X131143725Y-79266510D01*
X131175017Y-79284577D01*
X131327745Y-79325500D01*
X131920943Y-79325500D01*
X131924903Y-79325500D01*
X131954343Y-79334144D01*
X131984330Y-79340668D01*
X131989345Y-79344422D01*
X131991942Y-79345185D01*
X132012584Y-79361819D01*
X132165425Y-79514660D01*
X132198910Y-79575983D01*
X132199361Y-79578149D01*
X132230261Y-79733491D01*
X132230264Y-79733501D01*
X132290602Y-79879172D01*
X132290609Y-79879185D01*
X132378210Y-80010288D01*
X132378213Y-80010292D01*
X132489707Y-80121786D01*
X132489711Y-80121789D01*
X132620814Y-80209390D01*
X132620827Y-80209397D01*
X132762285Y-80267990D01*
X132766503Y-80269737D01*
X132896982Y-80295691D01*
X132921153Y-80300499D01*
X132921156Y-80300500D01*
X132921158Y-80300500D01*
X133078844Y-80300500D01*
X133078845Y-80300499D01*
X133233497Y-80269737D01*
X133379179Y-80209394D01*
X133510289Y-80121789D01*
X133621789Y-80010289D01*
X133709394Y-79879179D01*
X133769737Y-79733497D01*
X133800500Y-79578842D01*
X133800500Y-79421158D01*
X133800500Y-79421155D01*
X133800499Y-79421153D01*
X133784489Y-79340668D01*
X133769737Y-79266503D01*
X133744477Y-79205520D01*
X133709397Y-79120827D01*
X133709390Y-79120814D01*
X133621789Y-78989711D01*
X133621786Y-78989707D01*
X133510292Y-78878213D01*
X133510284Y-78878207D01*
X133472712Y-78853102D01*
X133427906Y-78799490D01*
X133419199Y-78730165D01*
X133449353Y-78667138D01*
X133472712Y-78646898D01*
X133499279Y-78629145D01*
X133510289Y-78621789D01*
X133621789Y-78510289D01*
X133709394Y-78379179D01*
X133712548Y-78371565D01*
X133732263Y-78323969D01*
X133752845Y-78298427D01*
X133772514Y-78272154D01*
X133774663Y-78271352D01*
X133776104Y-78269565D01*
X133807238Y-78259202D01*
X133837978Y-78247737D01*
X133840220Y-78248224D01*
X133842398Y-78247500D01*
X133874193Y-78255615D01*
X133906251Y-78262589D01*
X133908700Y-78264422D01*
X133910097Y-78264779D01*
X133934505Y-78283740D01*
X134015139Y-78364374D01*
X134015149Y-78364385D01*
X134019479Y-78368715D01*
X134019480Y-78368716D01*
X134131284Y-78480520D01*
X134182845Y-78510288D01*
X134218095Y-78530639D01*
X134218097Y-78530641D01*
X134268213Y-78559576D01*
X134268215Y-78559577D01*
X134420942Y-78600500D01*
X134420943Y-78600500D01*
X136500000Y-78600500D01*
X136500000Y-81500000D01*
X152399500Y-81500000D01*
X152399500Y-90920234D01*
X152379815Y-90987273D01*
X152378602Y-90989125D01*
X152290609Y-91120814D01*
X152290602Y-91120827D01*
X152230264Y-91266498D01*
X152230261Y-91266510D01*
X152199500Y-91421153D01*
X152199500Y-91578846D01*
X152230261Y-91733489D01*
X152230264Y-91733501D01*
X152290602Y-91879172D01*
X152290609Y-91879185D01*
X152378210Y-92010288D01*
X152378213Y-92010292D01*
X152489707Y-92121786D01*
X152489711Y-92121789D01*
X152620814Y-92209390D01*
X152620827Y-92209397D01*
X152766498Y-92269735D01*
X152766503Y-92269737D01*
X152921153Y-92300499D01*
X152921156Y-92300500D01*
X152921158Y-92300500D01*
X153078844Y-92300500D01*
X153078845Y-92300499D01*
X153233497Y-92269737D01*
X153379179Y-92209394D01*
X153510289Y-92121789D01*
X153621789Y-92010289D01*
X153709394Y-91879179D01*
X153769737Y-91733497D01*
X153800500Y-91578842D01*
X153800500Y-91421158D01*
X153800500Y-91421155D01*
X153800499Y-91421153D01*
X153769738Y-91266510D01*
X153769737Y-91266503D01*
X153714032Y-91132018D01*
X153709397Y-91120827D01*
X153709390Y-91120814D01*
X153621398Y-90989125D01*
X153600520Y-90922447D01*
X153600500Y-90920234D01*
X153600500Y-85492155D01*
X159810000Y-85492155D01*
X159810000Y-86090000D01*
X160794314Y-86090000D01*
X160789920Y-86094394D01*
X160737259Y-86185606D01*
X160710000Y-86287339D01*
X160710000Y-86392661D01*
X160737259Y-86494394D01*
X160789920Y-86585606D01*
X160794314Y-86590000D01*
X159810000Y-86590000D01*
X159810000Y-87187844D01*
X159816401Y-87247372D01*
X159816403Y-87247379D01*
X159866645Y-87382086D01*
X159866649Y-87382093D01*
X159952809Y-87497187D01*
X159952812Y-87497190D01*
X160067906Y-87583350D01*
X160067913Y-87583354D01*
X160202620Y-87633596D01*
X160202627Y-87633598D01*
X160262155Y-87639999D01*
X160262172Y-87640000D01*
X160860000Y-87640000D01*
X160860000Y-86655686D01*
X160864394Y-86660080D01*
X160955606Y-86712741D01*
X161057339Y-86740000D01*
X161162661Y-86740000D01*
X161264394Y-86712741D01*
X161355606Y-86660080D01*
X161360000Y-86655686D01*
X161360000Y-87640000D01*
X161957828Y-87640000D01*
X161957844Y-87639999D01*
X162017372Y-87633598D01*
X162017379Y-87633596D01*
X162152086Y-87583354D01*
X162152093Y-87583350D01*
X162267187Y-87497190D01*
X162267190Y-87497187D01*
X162353350Y-87382093D01*
X162353354Y-87382086D01*
X162403596Y-87247379D01*
X162407620Y-87209956D01*
X162434358Y-87145404D01*
X162491750Y-87105556D01*
X162561575Y-87103062D01*
X162621664Y-87138714D01*
X162631228Y-87150325D01*
X162658028Y-87187212D01*
X162658032Y-87187217D01*
X162802786Y-87331971D01*
X162957749Y-87444556D01*
X162968390Y-87452287D01*
X163056517Y-87497190D01*
X163150776Y-87545218D01*
X163150778Y-87545218D01*
X163150781Y-87545220D01*
X163255137Y-87579127D01*
X163345465Y-87608477D01*
X163446557Y-87624488D01*
X163547648Y-87640500D01*
X163547649Y-87640500D01*
X163752351Y-87640500D01*
X163752352Y-87640500D01*
X163954534Y-87608477D01*
X164149219Y-87545220D01*
X164331610Y-87452287D01*
X164428234Y-87382086D01*
X164497213Y-87331971D01*
X164497215Y-87331968D01*
X164497219Y-87331966D01*
X164641966Y-87187219D01*
X164641968Y-87187215D01*
X164641971Y-87187213D01*
X164762284Y-87021614D01*
X164762286Y-87021611D01*
X164762287Y-87021610D01*
X164809516Y-86928917D01*
X164857489Y-86878123D01*
X164925310Y-86861328D01*
X164991445Y-86883865D01*
X165030485Y-86928919D01*
X165077715Y-87021614D01*
X165198028Y-87187213D01*
X165342786Y-87331971D01*
X165497749Y-87444556D01*
X165508390Y-87452287D01*
X165596517Y-87497190D01*
X165690776Y-87545218D01*
X165690778Y-87545218D01*
X165690781Y-87545220D01*
X165795137Y-87579127D01*
X165885465Y-87608477D01*
X165986557Y-87624488D01*
X166087648Y-87640500D01*
X166087649Y-87640500D01*
X166292351Y-87640500D01*
X166292352Y-87640500D01*
X166494534Y-87608477D01*
X166689219Y-87545220D01*
X166871610Y-87452287D01*
X166968234Y-87382086D01*
X167037213Y-87331971D01*
X167037215Y-87331968D01*
X167037219Y-87331966D01*
X167181966Y-87187219D01*
X167181968Y-87187215D01*
X167181971Y-87187213D01*
X167302284Y-87021614D01*
X167302286Y-87021611D01*
X167302287Y-87021610D01*
X167349516Y-86928917D01*
X167397489Y-86878123D01*
X167465310Y-86861328D01*
X167531445Y-86883865D01*
X167570485Y-86928919D01*
X167617715Y-87021614D01*
X167738028Y-87187213D01*
X167882786Y-87331971D01*
X168037749Y-87444556D01*
X168048390Y-87452287D01*
X168136517Y-87497190D01*
X168230776Y-87545218D01*
X168230778Y-87545218D01*
X168230781Y-87545220D01*
X168335137Y-87579127D01*
X168425465Y-87608477D01*
X168526557Y-87624488D01*
X168627648Y-87640500D01*
X168627649Y-87640500D01*
X168832351Y-87640500D01*
X168832352Y-87640500D01*
X169034534Y-87608477D01*
X169229219Y-87545220D01*
X169411610Y-87452287D01*
X169508234Y-87382086D01*
X169577213Y-87331971D01*
X169577215Y-87331968D01*
X169577219Y-87331966D01*
X169721966Y-87187219D01*
X169721968Y-87187215D01*
X169721971Y-87187213D01*
X169842284Y-87021614D01*
X169842286Y-87021611D01*
X169842287Y-87021610D01*
X169889516Y-86928917D01*
X169937489Y-86878123D01*
X170005310Y-86861328D01*
X170071445Y-86883865D01*
X170110485Y-86928919D01*
X170157715Y-87021614D01*
X170278028Y-87187213D01*
X170422786Y-87331971D01*
X170577749Y-87444556D01*
X170588390Y-87452287D01*
X170676517Y-87497190D01*
X170770776Y-87545218D01*
X170770778Y-87545218D01*
X170770781Y-87545220D01*
X170875137Y-87579127D01*
X170965465Y-87608477D01*
X171066557Y-87624488D01*
X171167648Y-87640500D01*
X171167649Y-87640500D01*
X171372351Y-87640500D01*
X171372352Y-87640500D01*
X171574534Y-87608477D01*
X171769219Y-87545220D01*
X171951610Y-87452287D01*
X172048234Y-87382086D01*
X172117213Y-87331971D01*
X172117215Y-87331968D01*
X172117219Y-87331966D01*
X172261966Y-87187219D01*
X172261968Y-87187215D01*
X172261971Y-87187213D01*
X172382284Y-87021614D01*
X172382286Y-87021611D01*
X172382287Y-87021610D01*
X172429516Y-86928917D01*
X172477489Y-86878123D01*
X172545310Y-86861328D01*
X172611445Y-86883865D01*
X172650485Y-86928919D01*
X172697715Y-87021614D01*
X172818028Y-87187213D01*
X172962786Y-87331971D01*
X173117749Y-87444556D01*
X173128390Y-87452287D01*
X173216517Y-87497190D01*
X173310776Y-87545218D01*
X173310778Y-87545218D01*
X173310781Y-87545220D01*
X173415137Y-87579127D01*
X173505465Y-87608477D01*
X173606557Y-87624488D01*
X173707648Y-87640500D01*
X173707649Y-87640500D01*
X173912351Y-87640500D01*
X173912352Y-87640500D01*
X174114534Y-87608477D01*
X174309219Y-87545220D01*
X174491610Y-87452287D01*
X174588234Y-87382086D01*
X174657213Y-87331971D01*
X174657215Y-87331968D01*
X174657219Y-87331966D01*
X174801966Y-87187219D01*
X174801968Y-87187215D01*
X174801971Y-87187213D01*
X174922284Y-87021614D01*
X174922286Y-87021611D01*
X174922287Y-87021610D01*
X174969795Y-86928369D01*
X175017770Y-86877574D01*
X175085591Y-86860779D01*
X175151725Y-86883316D01*
X175190765Y-86928370D01*
X175238140Y-87021349D01*
X175358417Y-87186894D01*
X175358417Y-87186895D01*
X175503104Y-87331582D01*
X175668650Y-87451859D01*
X175850968Y-87544754D01*
X176045578Y-87607988D01*
X176100000Y-87616607D01*
X176100000Y-86655686D01*
X176104394Y-86660080D01*
X176195606Y-86712741D01*
X176297339Y-86740000D01*
X176402661Y-86740000D01*
X176504394Y-86712741D01*
X176595606Y-86660080D01*
X176600000Y-86655686D01*
X176600000Y-87616606D01*
X176654421Y-87607988D01*
X176849031Y-87544754D01*
X177031349Y-87451859D01*
X177196894Y-87331582D01*
X177196895Y-87331582D01*
X177341582Y-87186895D01*
X177341582Y-87186894D01*
X177461861Y-87021347D01*
X177509234Y-86928371D01*
X177557208Y-86877575D01*
X177625028Y-86860779D01*
X177691164Y-86883316D01*
X177730203Y-86928369D01*
X177777713Y-87021611D01*
X177898028Y-87187213D01*
X178042786Y-87331971D01*
X178197749Y-87444556D01*
X178208390Y-87452287D01*
X178296517Y-87497190D01*
X178390776Y-87545218D01*
X178390778Y-87545218D01*
X178390781Y-87545220D01*
X178495137Y-87579127D01*
X178585465Y-87608477D01*
X178686557Y-87624488D01*
X178787648Y-87640500D01*
X178787649Y-87640500D01*
X178992351Y-87640500D01*
X178992352Y-87640500D01*
X179194534Y-87608477D01*
X179389219Y-87545220D01*
X179571610Y-87452287D01*
X179668234Y-87382086D01*
X179737213Y-87331971D01*
X179737215Y-87331968D01*
X179737219Y-87331966D01*
X179881966Y-87187219D01*
X179881968Y-87187215D01*
X179881971Y-87187213D01*
X179943109Y-87103062D01*
X180002287Y-87021610D01*
X180095220Y-86839219D01*
X180158477Y-86644534D01*
X180190500Y-86442352D01*
X180190500Y-86237648D01*
X180173770Y-86132018D01*
X180158477Y-86035465D01*
X180095218Y-85840776D01*
X180002419Y-85658650D01*
X180002287Y-85658390D01*
X179994556Y-85647749D01*
X179881971Y-85492786D01*
X179737213Y-85348028D01*
X179571613Y-85227715D01*
X179571612Y-85227714D01*
X179571610Y-85227713D01*
X179483487Y-85182812D01*
X179389223Y-85134781D01*
X179194534Y-85071522D01*
X179019995Y-85043878D01*
X178992352Y-85039500D01*
X178787648Y-85039500D01*
X178763329Y-85043351D01*
X178585465Y-85071522D01*
X178390776Y-85134781D01*
X178208386Y-85227715D01*
X178042786Y-85348028D01*
X177898028Y-85492786D01*
X177777713Y-85658388D01*
X177730203Y-85751630D01*
X177682228Y-85802426D01*
X177614407Y-85819220D01*
X177548272Y-85796682D01*
X177509234Y-85751628D01*
X177461861Y-85658652D01*
X177341582Y-85493105D01*
X177341582Y-85493104D01*
X177196895Y-85348417D01*
X177031349Y-85228140D01*
X176849029Y-85135244D01*
X176654413Y-85072009D01*
X176600000Y-85063390D01*
X176600000Y-86024314D01*
X176595606Y-86019920D01*
X176504394Y-85967259D01*
X176402661Y-85940000D01*
X176297339Y-85940000D01*
X176195606Y-85967259D01*
X176104394Y-86019920D01*
X176100000Y-86024314D01*
X176100000Y-85063390D01*
X176045586Y-85072009D01*
X175850970Y-85135244D01*
X175668650Y-85228140D01*
X175503105Y-85348417D01*
X175503104Y-85348417D01*
X175358417Y-85493104D01*
X175358417Y-85493105D01*
X175238140Y-85658650D01*
X175190765Y-85751629D01*
X175142790Y-85802425D01*
X175074969Y-85819220D01*
X175008834Y-85796682D01*
X174969795Y-85751629D01*
X174922419Y-85658650D01*
X174922287Y-85658390D01*
X174914556Y-85647749D01*
X174801971Y-85492786D01*
X174657213Y-85348028D01*
X174491613Y-85227715D01*
X174491612Y-85227714D01*
X174491610Y-85227713D01*
X174403487Y-85182812D01*
X174309223Y-85134781D01*
X174114534Y-85071522D01*
X173939995Y-85043878D01*
X173912352Y-85039500D01*
X173707648Y-85039500D01*
X173683329Y-85043351D01*
X173505465Y-85071522D01*
X173310776Y-85134781D01*
X173128386Y-85227715D01*
X172962786Y-85348028D01*
X172818028Y-85492786D01*
X172697715Y-85658386D01*
X172650485Y-85751080D01*
X172602510Y-85801876D01*
X172534689Y-85818671D01*
X172468554Y-85796134D01*
X172429515Y-85751080D01*
X172382419Y-85658650D01*
X172382287Y-85658390D01*
X172374556Y-85647749D01*
X172261971Y-85492786D01*
X172117213Y-85348028D01*
X171951613Y-85227715D01*
X171951612Y-85227714D01*
X171951610Y-85227713D01*
X171863487Y-85182812D01*
X171769223Y-85134781D01*
X171574534Y-85071522D01*
X171399995Y-85043878D01*
X171372352Y-85039500D01*
X171167648Y-85039500D01*
X171143329Y-85043351D01*
X170965465Y-85071522D01*
X170770776Y-85134781D01*
X170588386Y-85227715D01*
X170422786Y-85348028D01*
X170278028Y-85492786D01*
X170157715Y-85658386D01*
X170110485Y-85751080D01*
X170062510Y-85801876D01*
X169994689Y-85818671D01*
X169928554Y-85796134D01*
X169889515Y-85751080D01*
X169842419Y-85658650D01*
X169842287Y-85658390D01*
X169834556Y-85647749D01*
X169721971Y-85492786D01*
X169577213Y-85348028D01*
X169411613Y-85227715D01*
X169411612Y-85227714D01*
X169411610Y-85227713D01*
X169323487Y-85182812D01*
X169229223Y-85134781D01*
X169034534Y-85071522D01*
X168859995Y-85043878D01*
X168832352Y-85039500D01*
X168627648Y-85039500D01*
X168603329Y-85043351D01*
X168425465Y-85071522D01*
X168230776Y-85134781D01*
X168048386Y-85227715D01*
X167882786Y-85348028D01*
X167738028Y-85492786D01*
X167617715Y-85658386D01*
X167570485Y-85751080D01*
X167522510Y-85801876D01*
X167454689Y-85818671D01*
X167388554Y-85796134D01*
X167349515Y-85751080D01*
X167302419Y-85658650D01*
X167302287Y-85658390D01*
X167294556Y-85647749D01*
X167181971Y-85492786D01*
X167037213Y-85348028D01*
X166871613Y-85227715D01*
X166871612Y-85227714D01*
X166871610Y-85227713D01*
X166783487Y-85182812D01*
X166689223Y-85134781D01*
X166494534Y-85071522D01*
X166319995Y-85043878D01*
X166292352Y-85039500D01*
X166087648Y-85039500D01*
X166063329Y-85043351D01*
X165885465Y-85071522D01*
X165690776Y-85134781D01*
X165508386Y-85227715D01*
X165342786Y-85348028D01*
X165198028Y-85492786D01*
X165077715Y-85658386D01*
X165030485Y-85751080D01*
X164982510Y-85801876D01*
X164914689Y-85818671D01*
X164848554Y-85796134D01*
X164809515Y-85751080D01*
X164762419Y-85658650D01*
X164762287Y-85658390D01*
X164754556Y-85647749D01*
X164641971Y-85492786D01*
X164497213Y-85348028D01*
X164331613Y-85227715D01*
X164331612Y-85227714D01*
X164331610Y-85227713D01*
X164243487Y-85182812D01*
X164149223Y-85134781D01*
X163954534Y-85071522D01*
X163779995Y-85043878D01*
X163752352Y-85039500D01*
X163547648Y-85039500D01*
X163523329Y-85043351D01*
X163345465Y-85071522D01*
X163150776Y-85134781D01*
X162968386Y-85227715D01*
X162802786Y-85348028D01*
X162658032Y-85492782D01*
X162658026Y-85492789D01*
X162631227Y-85529675D01*
X162575897Y-85572341D01*
X162506284Y-85578319D01*
X162444489Y-85545712D01*
X162410132Y-85484873D01*
X162407620Y-85470043D01*
X162403596Y-85432620D01*
X162353354Y-85297913D01*
X162353350Y-85297906D01*
X162267190Y-85182812D01*
X162267187Y-85182809D01*
X162152093Y-85096649D01*
X162152086Y-85096645D01*
X162017379Y-85046403D01*
X162017372Y-85046401D01*
X161957844Y-85040000D01*
X161360000Y-85040000D01*
X161360000Y-86024314D01*
X161355606Y-86019920D01*
X161264394Y-85967259D01*
X161162661Y-85940000D01*
X161057339Y-85940000D01*
X160955606Y-85967259D01*
X160864394Y-86019920D01*
X160860000Y-86024314D01*
X160860000Y-85040000D01*
X160262155Y-85040000D01*
X160202627Y-85046401D01*
X160202620Y-85046403D01*
X160067913Y-85096645D01*
X160067906Y-85096649D01*
X159952812Y-85182809D01*
X159952809Y-85182812D01*
X159866649Y-85297906D01*
X159866645Y-85297913D01*
X159816403Y-85432620D01*
X159816401Y-85432627D01*
X159810000Y-85492155D01*
X153600500Y-85492155D01*
X153600500Y-77589059D01*
X153600501Y-77589046D01*
X153600501Y-77420945D01*
X153600501Y-77420943D01*
X153559577Y-77268215D01*
X153519883Y-77199464D01*
X153519883Y-77199462D01*
X153480524Y-77131290D01*
X153480521Y-77131286D01*
X153480520Y-77131284D01*
X153368716Y-77019480D01*
X153368715Y-77019479D01*
X153364385Y-77015149D01*
X153364374Y-77015139D01*
X153000000Y-76650765D01*
X153000000Y-75652135D01*
X183199500Y-75652135D01*
X183199500Y-77347870D01*
X183199501Y-77347876D01*
X183205908Y-77407483D01*
X183256202Y-77542328D01*
X183256206Y-77542335D01*
X183342452Y-77657544D01*
X183342455Y-77657547D01*
X183457664Y-77743793D01*
X183457671Y-77743797D01*
X183470911Y-77748735D01*
X183592517Y-77794091D01*
X183652127Y-77800500D01*
X183652153Y-77800499D01*
X183655453Y-77800678D01*
X183655365Y-77802308D01*
X183716238Y-77820067D01*
X183762084Y-77872791D01*
X183769804Y-77916251D01*
X184453554Y-78600000D01*
X184447339Y-78600000D01*
X184345606Y-78627259D01*
X184254394Y-78679920D01*
X184179920Y-78754394D01*
X184127259Y-78845606D01*
X184100000Y-78947339D01*
X184100000Y-78953553D01*
X183420524Y-78274077D01*
X183420523Y-78274077D01*
X183388143Y-78318644D01*
X183295244Y-78500968D01*
X183232009Y-78695582D01*
X183200000Y-78897682D01*
X183200000Y-79102317D01*
X183232009Y-79304417D01*
X183295244Y-79499031D01*
X183388141Y-79681350D01*
X183388147Y-79681359D01*
X183420523Y-79725921D01*
X183420524Y-79725922D01*
X184100000Y-79046446D01*
X184100000Y-79052661D01*
X184127259Y-79154394D01*
X184179920Y-79245606D01*
X184254394Y-79320080D01*
X184345606Y-79372741D01*
X184447339Y-79400000D01*
X184453553Y-79400000D01*
X183774076Y-80079474D01*
X183818650Y-80111859D01*
X184000968Y-80204755D01*
X184195582Y-80267990D01*
X184397683Y-80300000D01*
X184602317Y-80300000D01*
X184804417Y-80267990D01*
X184999031Y-80204755D01*
X185181349Y-80111859D01*
X185225921Y-80079474D01*
X184546447Y-79400000D01*
X184552661Y-79400000D01*
X184654394Y-79372741D01*
X184745606Y-79320080D01*
X184820080Y-79245606D01*
X184872741Y-79154394D01*
X184900000Y-79052661D01*
X184900000Y-79046448D01*
X185579474Y-79725922D01*
X185579474Y-79725921D01*
X185611859Y-79681349D01*
X185704755Y-79499031D01*
X185767990Y-79304417D01*
X185800000Y-79102317D01*
X185800000Y-78897682D01*
X185767990Y-78695582D01*
X185704755Y-78500968D01*
X185611859Y-78318650D01*
X185579474Y-78274077D01*
X185579474Y-78274076D01*
X184900000Y-78953551D01*
X184900000Y-78947339D01*
X184872741Y-78845606D01*
X184820080Y-78754394D01*
X184745606Y-78679920D01*
X184654394Y-78627259D01*
X184552661Y-78600000D01*
X184546446Y-78600000D01*
X185230931Y-77915515D01*
X185241364Y-77865852D01*
X185290415Y-77816094D01*
X185344637Y-77802048D01*
X185344576Y-77800900D01*
X185344571Y-77800854D01*
X185344573Y-77800853D01*
X185344564Y-77800676D01*
X185347857Y-77800499D01*
X185347872Y-77800499D01*
X185407483Y-77794091D01*
X185542331Y-77743796D01*
X185657546Y-77657546D01*
X185743796Y-77542331D01*
X185794091Y-77407483D01*
X185800500Y-77347873D01*
X185800499Y-75652128D01*
X185794091Y-75592517D01*
X185743796Y-75457669D01*
X185743795Y-75457668D01*
X185743793Y-75457664D01*
X185657547Y-75342455D01*
X185657544Y-75342452D01*
X185542335Y-75256206D01*
X185542328Y-75256202D01*
X185407482Y-75205908D01*
X185407483Y-75205908D01*
X185347883Y-75199501D01*
X185347881Y-75199500D01*
X185347873Y-75199500D01*
X185347864Y-75199500D01*
X183652129Y-75199500D01*
X183652123Y-75199501D01*
X183592516Y-75205908D01*
X183457671Y-75256202D01*
X183457664Y-75256206D01*
X183342455Y-75342452D01*
X183342452Y-75342455D01*
X183256206Y-75457664D01*
X183256202Y-75457671D01*
X183205908Y-75592517D01*
X183199501Y-75652116D01*
X183199501Y-75652123D01*
X183199500Y-75652135D01*
X153000000Y-75652135D01*
X153000000Y-72600500D01*
X160014370Y-72600500D01*
X160081409Y-72620185D01*
X160127164Y-72672989D01*
X160137108Y-72742147D01*
X160114688Y-72797385D01*
X159997715Y-72958386D01*
X159904781Y-73140776D01*
X159841522Y-73335465D01*
X159809500Y-73537648D01*
X159809500Y-73742351D01*
X159841522Y-73944534D01*
X159904781Y-74139223D01*
X159997715Y-74321613D01*
X160118028Y-74487213D01*
X160262786Y-74631971D01*
X160367659Y-74708164D01*
X160428390Y-74752287D01*
X160528903Y-74803501D01*
X160610776Y-74845218D01*
X160610778Y-74845218D01*
X160610781Y-74845220D01*
X160715137Y-74879127D01*
X160805465Y-74908477D01*
X160906557Y-74924488D01*
X161007648Y-74940500D01*
X161007649Y-74940500D01*
X161212351Y-74940500D01*
X161212352Y-74940500D01*
X161414534Y-74908477D01*
X161609219Y-74845220D01*
X161791610Y-74752287D01*
X161884590Y-74684732D01*
X161957213Y-74631971D01*
X161957215Y-74631968D01*
X161957219Y-74631966D01*
X162101966Y-74487219D01*
X162101968Y-74487215D01*
X162101971Y-74487213D01*
X162222284Y-74321614D01*
X162222285Y-74321613D01*
X162222287Y-74321610D01*
X162269516Y-74228917D01*
X162317489Y-74178123D01*
X162385310Y-74161328D01*
X162451445Y-74183865D01*
X162490483Y-74228917D01*
X162534348Y-74315006D01*
X162537715Y-74321614D01*
X162658028Y-74487213D01*
X162802786Y-74631971D01*
X162907659Y-74708164D01*
X162968390Y-74752287D01*
X163068903Y-74803501D01*
X163150776Y-74845218D01*
X163150778Y-74845218D01*
X163150781Y-74845220D01*
X163255137Y-74879127D01*
X163345465Y-74908477D01*
X163446557Y-74924488D01*
X163547648Y-74940500D01*
X163547649Y-74940500D01*
X163752351Y-74940500D01*
X163752352Y-74940500D01*
X163954534Y-74908477D01*
X164149219Y-74845220D01*
X164331610Y-74752287D01*
X164424590Y-74684732D01*
X164497213Y-74631971D01*
X164497215Y-74631968D01*
X164497219Y-74631966D01*
X164641966Y-74487219D01*
X164641968Y-74487215D01*
X164641971Y-74487213D01*
X164762284Y-74321614D01*
X164762285Y-74321613D01*
X164762287Y-74321610D01*
X164809516Y-74228917D01*
X164857489Y-74178123D01*
X164925310Y-74161328D01*
X164991445Y-74183865D01*
X165030483Y-74228917D01*
X165074348Y-74315006D01*
X165077715Y-74321614D01*
X165198028Y-74487213D01*
X165342786Y-74631971D01*
X165447659Y-74708164D01*
X165508390Y-74752287D01*
X165608903Y-74803501D01*
X165690776Y-74845218D01*
X165690778Y-74845218D01*
X165690781Y-74845220D01*
X165795137Y-74879127D01*
X165885465Y-74908477D01*
X165986557Y-74924488D01*
X166087648Y-74940500D01*
X166087649Y-74940500D01*
X166292351Y-74940500D01*
X166292352Y-74940500D01*
X166494534Y-74908477D01*
X166689219Y-74845220D01*
X166871610Y-74752287D01*
X166964590Y-74684732D01*
X167037213Y-74631971D01*
X167037215Y-74631968D01*
X167037219Y-74631966D01*
X167181966Y-74487219D01*
X167181968Y-74487215D01*
X167181971Y-74487213D01*
X167302284Y-74321614D01*
X167302285Y-74321613D01*
X167302287Y-74321610D01*
X167349516Y-74228917D01*
X167397489Y-74178123D01*
X167465310Y-74161328D01*
X167531445Y-74183865D01*
X167570483Y-74228917D01*
X167614348Y-74315006D01*
X167617715Y-74321614D01*
X167738028Y-74487213D01*
X167882786Y-74631971D01*
X167987659Y-74708164D01*
X168048390Y-74752287D01*
X168148903Y-74803501D01*
X168230776Y-74845218D01*
X168230778Y-74845218D01*
X168230781Y-74845220D01*
X168335137Y-74879127D01*
X168425465Y-74908477D01*
X168526557Y-74924488D01*
X168627648Y-74940500D01*
X168627649Y-74940500D01*
X168832351Y-74940500D01*
X168832352Y-74940500D01*
X169034534Y-74908477D01*
X169229219Y-74845220D01*
X169411610Y-74752287D01*
X169504590Y-74684732D01*
X169577213Y-74631971D01*
X169577215Y-74631968D01*
X169577219Y-74631966D01*
X169721966Y-74487219D01*
X169721968Y-74487215D01*
X169721971Y-74487213D01*
X169842284Y-74321614D01*
X169842285Y-74321613D01*
X169842287Y-74321610D01*
X169889516Y-74228917D01*
X169937489Y-74178123D01*
X170005310Y-74161328D01*
X170071445Y-74183865D01*
X170110483Y-74228917D01*
X170154348Y-74315006D01*
X170157715Y-74321614D01*
X170278028Y-74487213D01*
X170422786Y-74631971D01*
X170527659Y-74708164D01*
X170588390Y-74752287D01*
X170688903Y-74803501D01*
X170770776Y-74845218D01*
X170770778Y-74845218D01*
X170770781Y-74845220D01*
X170875137Y-74879127D01*
X170965465Y-74908477D01*
X171066557Y-74924488D01*
X171167648Y-74940500D01*
X171167649Y-74940500D01*
X171372351Y-74940500D01*
X171372352Y-74940500D01*
X171574534Y-74908477D01*
X171769219Y-74845220D01*
X171951610Y-74752287D01*
X172044590Y-74684732D01*
X172117213Y-74631971D01*
X172117215Y-74631968D01*
X172117219Y-74631966D01*
X172261966Y-74487219D01*
X172261968Y-74487215D01*
X172261971Y-74487213D01*
X172382284Y-74321614D01*
X172382285Y-74321613D01*
X172382287Y-74321610D01*
X172429516Y-74228917D01*
X172477489Y-74178123D01*
X172545310Y-74161328D01*
X172611445Y-74183865D01*
X172650483Y-74228917D01*
X172694348Y-74315006D01*
X172697715Y-74321614D01*
X172818028Y-74487213D01*
X172962786Y-74631971D01*
X173067659Y-74708164D01*
X173128390Y-74752287D01*
X173228903Y-74803501D01*
X173310776Y-74845218D01*
X173310778Y-74845218D01*
X173310781Y-74845220D01*
X173415137Y-74879127D01*
X173505465Y-74908477D01*
X173606557Y-74924488D01*
X173707648Y-74940500D01*
X173707649Y-74940500D01*
X173912351Y-74940500D01*
X173912352Y-74940500D01*
X174114534Y-74908477D01*
X174309219Y-74845220D01*
X174491610Y-74752287D01*
X174584590Y-74684732D01*
X174657213Y-74631971D01*
X174657215Y-74631968D01*
X174657219Y-74631966D01*
X174801966Y-74487219D01*
X174801968Y-74487215D01*
X174801971Y-74487213D01*
X174922284Y-74321614D01*
X174922285Y-74321613D01*
X174922287Y-74321610D01*
X174969516Y-74228917D01*
X175017489Y-74178123D01*
X175085310Y-74161328D01*
X175151445Y-74183865D01*
X175190483Y-74228917D01*
X175234348Y-74315006D01*
X175237715Y-74321614D01*
X175358028Y-74487213D01*
X175502786Y-74631971D01*
X175607659Y-74708164D01*
X175668390Y-74752287D01*
X175768903Y-74803501D01*
X175850776Y-74845218D01*
X175850778Y-74845218D01*
X175850781Y-74845220D01*
X175955137Y-74879127D01*
X176045465Y-74908477D01*
X176146557Y-74924488D01*
X176247648Y-74940500D01*
X176247649Y-74940500D01*
X176452351Y-74940500D01*
X176452352Y-74940500D01*
X176654534Y-74908477D01*
X176849219Y-74845220D01*
X177031610Y-74752287D01*
X177124590Y-74684732D01*
X177197213Y-74631971D01*
X177197215Y-74631968D01*
X177197219Y-74631966D01*
X177341966Y-74487219D01*
X177341968Y-74487215D01*
X177341971Y-74487213D01*
X177462284Y-74321614D01*
X177462285Y-74321613D01*
X177462287Y-74321610D01*
X177509516Y-74228917D01*
X177557489Y-74178123D01*
X177625310Y-74161328D01*
X177691445Y-74183865D01*
X177730483Y-74228917D01*
X177774348Y-74315006D01*
X177777715Y-74321614D01*
X177898028Y-74487213D01*
X178042786Y-74631971D01*
X178147659Y-74708164D01*
X178208390Y-74752287D01*
X178308903Y-74803501D01*
X178390776Y-74845218D01*
X178390778Y-74845218D01*
X178390781Y-74845220D01*
X178495137Y-74879127D01*
X178585465Y-74908477D01*
X178686557Y-74924488D01*
X178787648Y-74940500D01*
X178787649Y-74940500D01*
X178992351Y-74940500D01*
X178992352Y-74940500D01*
X179194534Y-74908477D01*
X179389219Y-74845220D01*
X179571610Y-74752287D01*
X179664590Y-74684732D01*
X179737213Y-74631971D01*
X179737215Y-74631968D01*
X179737219Y-74631966D01*
X179881966Y-74487219D01*
X179881968Y-74487215D01*
X179881971Y-74487213D01*
X179934732Y-74414590D01*
X180002287Y-74321610D01*
X180095220Y-74139219D01*
X180158477Y-73944534D01*
X180190500Y-73742352D01*
X180190500Y-73537648D01*
X180165401Y-73379179D01*
X180158477Y-73335465D01*
X180095218Y-73140776D01*
X180023488Y-73000000D01*
X180002287Y-72958390D01*
X179942022Y-72875441D01*
X179881971Y-72792786D01*
X179737213Y-72648028D01*
X179571613Y-72527715D01*
X179571612Y-72527714D01*
X179571610Y-72527713D01*
X179497019Y-72489707D01*
X179389223Y-72434781D01*
X179194534Y-72371522D01*
X179019995Y-72343878D01*
X178992352Y-72339500D01*
X178787648Y-72339500D01*
X178763329Y-72343351D01*
X178585465Y-72371522D01*
X178390776Y-72434781D01*
X178208386Y-72527715D01*
X178042786Y-72648028D01*
X177898028Y-72792786D01*
X177777715Y-72958386D01*
X177730485Y-73051080D01*
X177682510Y-73101876D01*
X177614689Y-73118671D01*
X177548554Y-73096134D01*
X177509515Y-73051080D01*
X177483488Y-73000000D01*
X177462287Y-72958390D01*
X177402022Y-72875441D01*
X177341971Y-72792786D01*
X177197213Y-72648028D01*
X177031613Y-72527715D01*
X177031612Y-72527714D01*
X177031610Y-72527713D01*
X176957019Y-72489707D01*
X176849223Y-72434781D01*
X176654534Y-72371522D01*
X176479995Y-72343878D01*
X176452352Y-72339500D01*
X176247648Y-72339500D01*
X176223329Y-72343351D01*
X176045465Y-72371522D01*
X175850776Y-72434781D01*
X175668386Y-72527715D01*
X175502786Y-72648028D01*
X175358028Y-72792786D01*
X175237715Y-72958386D01*
X175190485Y-73051080D01*
X175142510Y-73101876D01*
X175074689Y-73118671D01*
X175008554Y-73096134D01*
X174969515Y-73051080D01*
X174943488Y-73000000D01*
X174922287Y-72958390D01*
X174862022Y-72875441D01*
X174801971Y-72792786D01*
X174657213Y-72648028D01*
X174491613Y-72527715D01*
X174491612Y-72527714D01*
X174491610Y-72527713D01*
X174417019Y-72489707D01*
X174309223Y-72434781D01*
X174114534Y-72371522D01*
X173939995Y-72343878D01*
X173912352Y-72339500D01*
X173707648Y-72339500D01*
X173683329Y-72343351D01*
X173505465Y-72371522D01*
X173310776Y-72434781D01*
X173128386Y-72527715D01*
X172962786Y-72648028D01*
X172818028Y-72792786D01*
X172697715Y-72958386D01*
X172650485Y-73051080D01*
X172602510Y-73101876D01*
X172534689Y-73118671D01*
X172468554Y-73096134D01*
X172429515Y-73051080D01*
X172403488Y-73000000D01*
X172382287Y-72958390D01*
X172322022Y-72875441D01*
X172261971Y-72792786D01*
X172117213Y-72648028D01*
X171951613Y-72527715D01*
X171951612Y-72527714D01*
X171951610Y-72527713D01*
X171877019Y-72489707D01*
X171769223Y-72434781D01*
X171574534Y-72371522D01*
X171399995Y-72343878D01*
X171372352Y-72339500D01*
X171167648Y-72339500D01*
X171143329Y-72343351D01*
X170965465Y-72371522D01*
X170770776Y-72434781D01*
X170588386Y-72527715D01*
X170422786Y-72648028D01*
X170278028Y-72792786D01*
X170157715Y-72958386D01*
X170110485Y-73051080D01*
X170062510Y-73101876D01*
X169994689Y-73118671D01*
X169928554Y-73096134D01*
X169889515Y-73051080D01*
X169863488Y-73000000D01*
X169842287Y-72958390D01*
X169782022Y-72875441D01*
X169721971Y-72792786D01*
X169577213Y-72648028D01*
X169411613Y-72527715D01*
X169411612Y-72527714D01*
X169411610Y-72527713D01*
X169337019Y-72489707D01*
X169229223Y-72434781D01*
X169034534Y-72371522D01*
X168859995Y-72343878D01*
X168832352Y-72339500D01*
X168627648Y-72339500D01*
X168599540Y-72343951D01*
X168421179Y-72372201D01*
X168351885Y-72363246D01*
X168298433Y-72318250D01*
X168280164Y-72273920D01*
X168269738Y-72221508D01*
X168269737Y-72221507D01*
X168269737Y-72221503D01*
X168246509Y-72165425D01*
X168209397Y-72075827D01*
X168209390Y-72075814D01*
X168121789Y-71944711D01*
X168121786Y-71944707D01*
X168010292Y-71833213D01*
X168010288Y-71833210D01*
X167879185Y-71745609D01*
X167879172Y-71745602D01*
X167733501Y-71685264D01*
X167733491Y-71685261D01*
X167578151Y-71654362D01*
X167516241Y-71621977D01*
X167514662Y-71620426D01*
X167413717Y-71519481D01*
X167413716Y-71519480D01*
X167326904Y-71469360D01*
X167326904Y-71469359D01*
X167326900Y-71469358D01*
X167276785Y-71440423D01*
X167124057Y-71399499D01*
X166965943Y-71399499D01*
X166958347Y-71399499D01*
X166958331Y-71399500D01*
X153000000Y-71399500D01*
X153000000Y-61500000D01*
X136500000Y-61500000D01*
X136500000Y-77399500D01*
X134800097Y-77399500D01*
X134733058Y-77379815D01*
X134712416Y-77363181D01*
X119823634Y-62474399D01*
X119790149Y-62413076D01*
X119795133Y-62343384D01*
X119808213Y-62317827D01*
X119883655Y-62204920D01*
X119883655Y-62204919D01*
X119883659Y-62204914D01*
X119944002Y-62059232D01*
X119974765Y-61904577D01*
X119974765Y-61746893D01*
X119974765Y-61746890D01*
X119974764Y-61746888D01*
X119944003Y-61592245D01*
X119944002Y-61592238D01*
X119931249Y-61561451D01*
X119923781Y-61491984D01*
X119955056Y-61429505D01*
X120015144Y-61393852D01*
X120045811Y-61390000D01*
X167100000Y-61390000D01*
X167100000Y-58492155D01*
X175310000Y-58492155D01*
X175310000Y-59090000D01*
X176294314Y-59090000D01*
X176289920Y-59094394D01*
X176237259Y-59185606D01*
X176210000Y-59287339D01*
X176210000Y-59392661D01*
X176237259Y-59494394D01*
X176289920Y-59585606D01*
X176294314Y-59590000D01*
X175310000Y-59590000D01*
X175310000Y-60187844D01*
X175316401Y-60247372D01*
X175316403Y-60247379D01*
X175366645Y-60382086D01*
X175366649Y-60382093D01*
X175452809Y-60497187D01*
X175452812Y-60497190D01*
X175567906Y-60583350D01*
X175567913Y-60583354D01*
X175702620Y-60633596D01*
X175702627Y-60633598D01*
X175762155Y-60639999D01*
X175762172Y-60640000D01*
X176360000Y-60640000D01*
X176360000Y-59655686D01*
X176364394Y-59660080D01*
X176455606Y-59712741D01*
X176557339Y-59740000D01*
X176662661Y-59740000D01*
X176764394Y-59712741D01*
X176855606Y-59660080D01*
X176860000Y-59655686D01*
X176860000Y-60640000D01*
X177457828Y-60640000D01*
X177457844Y-60639999D01*
X177517372Y-60633598D01*
X177517379Y-60633596D01*
X177652086Y-60583354D01*
X177652093Y-60583350D01*
X177767187Y-60497190D01*
X177767190Y-60497187D01*
X177853350Y-60382093D01*
X177853354Y-60382086D01*
X177903596Y-60247379D01*
X177907620Y-60209956D01*
X177934358Y-60145404D01*
X177991750Y-60105556D01*
X178061575Y-60103062D01*
X178121664Y-60138714D01*
X178131228Y-60150325D01*
X178158028Y-60187212D01*
X178158032Y-60187217D01*
X178302786Y-60331971D01*
X178457749Y-60444556D01*
X178468390Y-60452287D01*
X178556517Y-60497190D01*
X178650776Y-60545218D01*
X178650778Y-60545218D01*
X178650781Y-60545220D01*
X178755137Y-60579127D01*
X178845465Y-60608477D01*
X178946557Y-60624488D01*
X179047648Y-60640500D01*
X179047649Y-60640500D01*
X179252351Y-60640500D01*
X179252352Y-60640500D01*
X179454534Y-60608477D01*
X179649219Y-60545220D01*
X179831610Y-60452287D01*
X179928234Y-60382086D01*
X179997213Y-60331971D01*
X179997215Y-60331968D01*
X179997219Y-60331966D01*
X180141966Y-60187219D01*
X180141968Y-60187215D01*
X180141971Y-60187213D01*
X180262284Y-60021614D01*
X180262286Y-60021611D01*
X180262287Y-60021610D01*
X180309516Y-59928917D01*
X180357489Y-59878123D01*
X180425310Y-59861328D01*
X180491445Y-59883865D01*
X180530485Y-59928919D01*
X180577715Y-60021614D01*
X180698028Y-60187213D01*
X180842786Y-60331971D01*
X180997749Y-60444556D01*
X181008390Y-60452287D01*
X181096517Y-60497190D01*
X181190776Y-60545218D01*
X181190778Y-60545218D01*
X181190781Y-60545220D01*
X181295137Y-60579127D01*
X181385465Y-60608477D01*
X181486557Y-60624488D01*
X181587648Y-60640500D01*
X181587649Y-60640500D01*
X181792351Y-60640500D01*
X181792352Y-60640500D01*
X181994534Y-60608477D01*
X182189219Y-60545220D01*
X182371610Y-60452287D01*
X182468234Y-60382086D01*
X182537213Y-60331971D01*
X182537215Y-60331968D01*
X182537219Y-60331966D01*
X182681966Y-60187219D01*
X182681968Y-60187215D01*
X182681971Y-60187213D01*
X182802284Y-60021614D01*
X182802286Y-60021611D01*
X182802287Y-60021610D01*
X182849516Y-59928917D01*
X182897489Y-59878123D01*
X182965310Y-59861328D01*
X183031445Y-59883865D01*
X183070485Y-59928919D01*
X183117715Y-60021614D01*
X183238028Y-60187213D01*
X183382786Y-60331971D01*
X183537749Y-60444556D01*
X183548390Y-60452287D01*
X183636517Y-60497190D01*
X183730776Y-60545218D01*
X183730778Y-60545218D01*
X183730781Y-60545220D01*
X183835137Y-60579127D01*
X183925465Y-60608477D01*
X184026557Y-60624488D01*
X184127648Y-60640500D01*
X184127649Y-60640500D01*
X184332351Y-60640500D01*
X184332352Y-60640500D01*
X184534534Y-60608477D01*
X184729219Y-60545220D01*
X184911610Y-60452287D01*
X185008234Y-60382086D01*
X185077213Y-60331971D01*
X185077215Y-60331968D01*
X185077219Y-60331966D01*
X185221966Y-60187219D01*
X185221968Y-60187215D01*
X185221971Y-60187213D01*
X185342284Y-60021614D01*
X185342286Y-60021611D01*
X185342287Y-60021610D01*
X185389516Y-59928917D01*
X185437489Y-59878123D01*
X185505310Y-59861328D01*
X185571445Y-59883865D01*
X185610485Y-59928919D01*
X185657715Y-60021614D01*
X185778028Y-60187213D01*
X185922786Y-60331971D01*
X186077749Y-60444556D01*
X186088390Y-60452287D01*
X186176517Y-60497190D01*
X186270776Y-60545218D01*
X186270778Y-60545218D01*
X186270781Y-60545220D01*
X186375137Y-60579127D01*
X186465465Y-60608477D01*
X186566557Y-60624488D01*
X186667648Y-60640500D01*
X186667649Y-60640500D01*
X186872351Y-60640500D01*
X186872352Y-60640500D01*
X187074534Y-60608477D01*
X187269219Y-60545220D01*
X187451610Y-60452287D01*
X187548234Y-60382086D01*
X187617213Y-60331971D01*
X187617215Y-60331968D01*
X187617219Y-60331966D01*
X187761966Y-60187219D01*
X187761968Y-60187215D01*
X187761971Y-60187213D01*
X187882284Y-60021614D01*
X187882286Y-60021611D01*
X187882287Y-60021610D01*
X187929516Y-59928917D01*
X187977489Y-59878123D01*
X188045310Y-59861328D01*
X188111445Y-59883865D01*
X188150485Y-59928919D01*
X188197715Y-60021614D01*
X188318028Y-60187213D01*
X188462786Y-60331971D01*
X188617749Y-60444556D01*
X188628390Y-60452287D01*
X188716517Y-60497190D01*
X188810776Y-60545218D01*
X188810778Y-60545218D01*
X188810781Y-60545220D01*
X188915137Y-60579127D01*
X189005465Y-60608477D01*
X189106557Y-60624488D01*
X189207648Y-60640500D01*
X189207649Y-60640500D01*
X189412351Y-60640500D01*
X189412352Y-60640500D01*
X189614534Y-60608477D01*
X189809219Y-60545220D01*
X189991610Y-60452287D01*
X190088234Y-60382086D01*
X190157213Y-60331971D01*
X190157215Y-60331968D01*
X190157219Y-60331966D01*
X190301966Y-60187219D01*
X190301968Y-60187215D01*
X190301971Y-60187213D01*
X190422284Y-60021614D01*
X190422286Y-60021611D01*
X190422287Y-60021610D01*
X190469795Y-59928369D01*
X190517770Y-59877574D01*
X190585591Y-59860779D01*
X190651725Y-59883316D01*
X190690765Y-59928370D01*
X190738140Y-60021349D01*
X190858417Y-60186894D01*
X190858417Y-60186895D01*
X191003104Y-60331582D01*
X191168650Y-60451859D01*
X191350968Y-60544754D01*
X191545578Y-60607988D01*
X191600000Y-60616607D01*
X191600000Y-59655686D01*
X191604394Y-59660080D01*
X191695606Y-59712741D01*
X191797339Y-59740000D01*
X191902661Y-59740000D01*
X192004394Y-59712741D01*
X192095606Y-59660080D01*
X192100000Y-59655686D01*
X192100000Y-60616606D01*
X192154421Y-60607988D01*
X192349031Y-60544754D01*
X192531349Y-60451859D01*
X192696894Y-60331582D01*
X192696895Y-60331582D01*
X192841582Y-60186895D01*
X192841582Y-60186894D01*
X192961861Y-60021347D01*
X193009234Y-59928371D01*
X193057208Y-59877575D01*
X193125028Y-59860779D01*
X193191164Y-59883316D01*
X193230203Y-59928369D01*
X193277713Y-60021611D01*
X193398028Y-60187213D01*
X193542786Y-60331971D01*
X193697749Y-60444556D01*
X193708390Y-60452287D01*
X193796517Y-60497190D01*
X193890776Y-60545218D01*
X193890778Y-60545218D01*
X193890781Y-60545220D01*
X193995137Y-60579127D01*
X194085465Y-60608477D01*
X194186557Y-60624488D01*
X194287648Y-60640500D01*
X194287649Y-60640500D01*
X194492351Y-60640500D01*
X194492352Y-60640500D01*
X194694534Y-60608477D01*
X194889219Y-60545220D01*
X195071610Y-60452287D01*
X195168234Y-60382086D01*
X195237213Y-60331971D01*
X195237215Y-60331968D01*
X195237219Y-60331966D01*
X195381966Y-60187219D01*
X195381968Y-60187215D01*
X195381971Y-60187213D01*
X195443109Y-60103062D01*
X195502287Y-60021610D01*
X195595220Y-59839219D01*
X195658477Y-59644534D01*
X195690500Y-59442352D01*
X195690500Y-59237648D01*
X195682257Y-59185606D01*
X195658477Y-59035465D01*
X195595218Y-58840776D01*
X195502419Y-58658650D01*
X195502287Y-58658390D01*
X195494556Y-58647749D01*
X195381971Y-58492786D01*
X195237213Y-58348028D01*
X195071613Y-58227715D01*
X195071612Y-58227714D01*
X195071610Y-58227713D01*
X194983487Y-58182812D01*
X194889223Y-58134781D01*
X194694534Y-58071522D01*
X194519995Y-58043878D01*
X194492352Y-58039500D01*
X194287648Y-58039500D01*
X194263329Y-58043351D01*
X194085465Y-58071522D01*
X193890776Y-58134781D01*
X193708386Y-58227715D01*
X193542786Y-58348028D01*
X193398028Y-58492786D01*
X193277713Y-58658388D01*
X193230203Y-58751630D01*
X193182228Y-58802426D01*
X193114407Y-58819220D01*
X193048272Y-58796682D01*
X193009234Y-58751628D01*
X192961861Y-58658652D01*
X192841582Y-58493105D01*
X192841582Y-58493104D01*
X192696895Y-58348417D01*
X192531349Y-58228140D01*
X192349029Y-58135244D01*
X192154413Y-58072009D01*
X192100000Y-58063390D01*
X192100000Y-59024314D01*
X192095606Y-59019920D01*
X192004394Y-58967259D01*
X191902661Y-58940000D01*
X191797339Y-58940000D01*
X191695606Y-58967259D01*
X191604394Y-59019920D01*
X191600000Y-59024314D01*
X191600000Y-58063390D01*
X191545586Y-58072009D01*
X191350970Y-58135244D01*
X191168650Y-58228140D01*
X191003105Y-58348417D01*
X191003104Y-58348417D01*
X190858417Y-58493104D01*
X190858417Y-58493105D01*
X190738140Y-58658650D01*
X190690765Y-58751629D01*
X190642790Y-58802425D01*
X190574969Y-58819220D01*
X190508834Y-58796682D01*
X190469795Y-58751629D01*
X190422419Y-58658650D01*
X190422287Y-58658390D01*
X190414556Y-58647749D01*
X190301971Y-58492786D01*
X190157213Y-58348028D01*
X189991613Y-58227715D01*
X189991612Y-58227714D01*
X189991610Y-58227713D01*
X189903487Y-58182812D01*
X189809223Y-58134781D01*
X189614534Y-58071522D01*
X189439995Y-58043878D01*
X189412352Y-58039500D01*
X189207648Y-58039500D01*
X189183329Y-58043351D01*
X189005465Y-58071522D01*
X188810776Y-58134781D01*
X188628386Y-58227715D01*
X188462786Y-58348028D01*
X188318028Y-58492786D01*
X188197715Y-58658386D01*
X188150485Y-58751080D01*
X188102510Y-58801876D01*
X188034689Y-58818671D01*
X187968554Y-58796134D01*
X187929515Y-58751080D01*
X187882419Y-58658650D01*
X187882287Y-58658390D01*
X187874556Y-58647749D01*
X187761971Y-58492786D01*
X187617213Y-58348028D01*
X187451613Y-58227715D01*
X187451612Y-58227714D01*
X187451610Y-58227713D01*
X187363487Y-58182812D01*
X187269223Y-58134781D01*
X187074534Y-58071522D01*
X186899995Y-58043878D01*
X186872352Y-58039500D01*
X186667648Y-58039500D01*
X186643329Y-58043351D01*
X186465465Y-58071522D01*
X186270776Y-58134781D01*
X186088386Y-58227715D01*
X185922786Y-58348028D01*
X185778028Y-58492786D01*
X185657715Y-58658386D01*
X185610485Y-58751080D01*
X185562510Y-58801876D01*
X185494689Y-58818671D01*
X185428554Y-58796134D01*
X185389515Y-58751080D01*
X185342419Y-58658650D01*
X185342287Y-58658390D01*
X185334556Y-58647749D01*
X185221971Y-58492786D01*
X185077213Y-58348028D01*
X184911613Y-58227715D01*
X184911612Y-58227714D01*
X184911610Y-58227713D01*
X184823487Y-58182812D01*
X184729223Y-58134781D01*
X184534534Y-58071522D01*
X184359995Y-58043878D01*
X184332352Y-58039500D01*
X184127648Y-58039500D01*
X184103329Y-58043351D01*
X183925465Y-58071522D01*
X183730776Y-58134781D01*
X183548386Y-58227715D01*
X183382786Y-58348028D01*
X183238028Y-58492786D01*
X183117715Y-58658386D01*
X183070485Y-58751080D01*
X183022510Y-58801876D01*
X182954689Y-58818671D01*
X182888554Y-58796134D01*
X182849515Y-58751080D01*
X182802419Y-58658650D01*
X182802287Y-58658390D01*
X182794556Y-58647749D01*
X182681971Y-58492786D01*
X182537213Y-58348028D01*
X182371613Y-58227715D01*
X182371612Y-58227714D01*
X182371610Y-58227713D01*
X182283487Y-58182812D01*
X182189223Y-58134781D01*
X181994534Y-58071522D01*
X181819995Y-58043878D01*
X181792352Y-58039500D01*
X181587648Y-58039500D01*
X181563329Y-58043351D01*
X181385465Y-58071522D01*
X181190776Y-58134781D01*
X181008386Y-58227715D01*
X180842786Y-58348028D01*
X180698028Y-58492786D01*
X180577715Y-58658386D01*
X180530485Y-58751080D01*
X180482510Y-58801876D01*
X180414689Y-58818671D01*
X180348554Y-58796134D01*
X180309515Y-58751080D01*
X180262419Y-58658650D01*
X180262287Y-58658390D01*
X180254556Y-58647749D01*
X180141971Y-58492786D01*
X179997213Y-58348028D01*
X179831613Y-58227715D01*
X179831612Y-58227714D01*
X179831610Y-58227713D01*
X179743487Y-58182812D01*
X179649223Y-58134781D01*
X179454534Y-58071522D01*
X179279995Y-58043878D01*
X179252352Y-58039500D01*
X179047648Y-58039500D01*
X179023329Y-58043351D01*
X178845465Y-58071522D01*
X178650776Y-58134781D01*
X178468386Y-58227715D01*
X178302786Y-58348028D01*
X178158032Y-58492782D01*
X178158026Y-58492789D01*
X178131227Y-58529675D01*
X178075897Y-58572341D01*
X178006284Y-58578319D01*
X177944489Y-58545712D01*
X177910132Y-58484873D01*
X177907620Y-58470043D01*
X177903596Y-58432620D01*
X177853354Y-58297913D01*
X177853350Y-58297906D01*
X177767190Y-58182812D01*
X177767187Y-58182809D01*
X177652093Y-58096649D01*
X177652086Y-58096645D01*
X177517379Y-58046403D01*
X177517372Y-58046401D01*
X177457844Y-58040000D01*
X176860000Y-58040000D01*
X176860000Y-59024314D01*
X176855606Y-59019920D01*
X176764394Y-58967259D01*
X176662661Y-58940000D01*
X176557339Y-58940000D01*
X176455606Y-58967259D01*
X176364394Y-59019920D01*
X176360000Y-59024314D01*
X176360000Y-58040000D01*
X175762155Y-58040000D01*
X175702627Y-58046401D01*
X175702620Y-58046403D01*
X175567913Y-58096645D01*
X175567906Y-58096649D01*
X175452812Y-58182809D01*
X175452809Y-58182812D01*
X175366649Y-58297906D01*
X175366645Y-58297913D01*
X175316403Y-58432620D01*
X175316401Y-58432627D01*
X175310000Y-58492155D01*
X167100000Y-58492155D01*
X167100000Y-46537648D01*
X175309500Y-46537648D01*
X175309500Y-46742351D01*
X175341522Y-46944534D01*
X175404781Y-47139223D01*
X175497715Y-47321613D01*
X175618028Y-47487213D01*
X175762786Y-47631971D01*
X175917749Y-47744556D01*
X175928390Y-47752287D01*
X176044607Y-47811503D01*
X176110776Y-47845218D01*
X176110778Y-47845218D01*
X176110781Y-47845220D01*
X176215137Y-47879127D01*
X176305465Y-47908477D01*
X176406557Y-47924488D01*
X176507648Y-47940500D01*
X176507649Y-47940500D01*
X176712351Y-47940500D01*
X176712352Y-47940500D01*
X176914534Y-47908477D01*
X177109219Y-47845220D01*
X177291610Y-47752287D01*
X177384590Y-47684732D01*
X177457213Y-47631971D01*
X177457215Y-47631968D01*
X177457219Y-47631966D01*
X177601966Y-47487219D01*
X177601968Y-47487215D01*
X177601971Y-47487213D01*
X177722284Y-47321614D01*
X177722285Y-47321613D01*
X177722287Y-47321610D01*
X177769516Y-47228917D01*
X177817489Y-47178123D01*
X177885310Y-47161328D01*
X177951445Y-47183865D01*
X177990485Y-47228919D01*
X178037715Y-47321614D01*
X178158028Y-47487213D01*
X178302786Y-47631971D01*
X178457749Y-47744556D01*
X178468390Y-47752287D01*
X178584607Y-47811503D01*
X178650776Y-47845218D01*
X178650778Y-47845218D01*
X178650781Y-47845220D01*
X178755137Y-47879127D01*
X178845465Y-47908477D01*
X178946557Y-47924488D01*
X179047648Y-47940500D01*
X179047649Y-47940500D01*
X179252351Y-47940500D01*
X179252352Y-47940500D01*
X179454534Y-47908477D01*
X179649219Y-47845220D01*
X179831610Y-47752287D01*
X179924590Y-47684732D01*
X179997213Y-47631971D01*
X179997215Y-47631968D01*
X179997219Y-47631966D01*
X180141966Y-47487219D01*
X180141968Y-47487215D01*
X180141971Y-47487213D01*
X180262284Y-47321614D01*
X180262285Y-47321613D01*
X180262287Y-47321610D01*
X180309516Y-47228917D01*
X180357489Y-47178123D01*
X180425310Y-47161328D01*
X180491445Y-47183865D01*
X180530485Y-47228919D01*
X180577715Y-47321614D01*
X180698028Y-47487213D01*
X180842786Y-47631971D01*
X180997749Y-47744556D01*
X181008390Y-47752287D01*
X181124607Y-47811503D01*
X181190776Y-47845218D01*
X181190778Y-47845218D01*
X181190781Y-47845220D01*
X181295137Y-47879127D01*
X181385465Y-47908477D01*
X181486557Y-47924488D01*
X181587648Y-47940500D01*
X181587649Y-47940500D01*
X181792351Y-47940500D01*
X181792352Y-47940500D01*
X181994534Y-47908477D01*
X182189219Y-47845220D01*
X182371610Y-47752287D01*
X182464590Y-47684732D01*
X182537213Y-47631971D01*
X182537215Y-47631968D01*
X182537219Y-47631966D01*
X182681966Y-47487219D01*
X182681968Y-47487215D01*
X182681971Y-47487213D01*
X182802284Y-47321614D01*
X182802285Y-47321613D01*
X182802287Y-47321610D01*
X182849516Y-47228917D01*
X182897489Y-47178123D01*
X182965310Y-47161328D01*
X183031445Y-47183865D01*
X183070485Y-47228919D01*
X183117715Y-47321614D01*
X183238028Y-47487213D01*
X183382786Y-47631971D01*
X183537749Y-47744556D01*
X183548390Y-47752287D01*
X183664607Y-47811503D01*
X183730776Y-47845218D01*
X183730778Y-47845218D01*
X183730781Y-47845220D01*
X183835137Y-47879127D01*
X183925465Y-47908477D01*
X184026557Y-47924488D01*
X184127648Y-47940500D01*
X184127649Y-47940500D01*
X184332351Y-47940500D01*
X184332352Y-47940500D01*
X184534534Y-47908477D01*
X184729219Y-47845220D01*
X184911610Y-47752287D01*
X185004590Y-47684732D01*
X185077213Y-47631971D01*
X185077215Y-47631968D01*
X185077219Y-47631966D01*
X185221966Y-47487219D01*
X185221968Y-47487215D01*
X185221971Y-47487213D01*
X185342284Y-47321614D01*
X185342285Y-47321613D01*
X185342287Y-47321610D01*
X185389516Y-47228917D01*
X185437489Y-47178123D01*
X185505310Y-47161328D01*
X185571445Y-47183865D01*
X185610485Y-47228919D01*
X185657715Y-47321614D01*
X185778028Y-47487213D01*
X185922786Y-47631971D01*
X186077749Y-47744556D01*
X186088390Y-47752287D01*
X186204607Y-47811503D01*
X186270776Y-47845218D01*
X186270778Y-47845218D01*
X186270781Y-47845220D01*
X186375137Y-47879127D01*
X186465465Y-47908477D01*
X186566557Y-47924488D01*
X186667648Y-47940500D01*
X186667649Y-47940500D01*
X186872351Y-47940500D01*
X186872352Y-47940500D01*
X187074534Y-47908477D01*
X187269219Y-47845220D01*
X187451610Y-47752287D01*
X187544590Y-47684732D01*
X187617213Y-47631971D01*
X187617215Y-47631968D01*
X187617219Y-47631966D01*
X187761966Y-47487219D01*
X187761968Y-47487215D01*
X187761971Y-47487213D01*
X187882284Y-47321614D01*
X187882285Y-47321613D01*
X187882287Y-47321610D01*
X187929516Y-47228917D01*
X187977489Y-47178123D01*
X188045310Y-47161328D01*
X188111445Y-47183865D01*
X188150485Y-47228919D01*
X188197715Y-47321614D01*
X188318028Y-47487213D01*
X188462786Y-47631971D01*
X188617749Y-47744556D01*
X188628390Y-47752287D01*
X188744607Y-47811503D01*
X188810776Y-47845218D01*
X188810778Y-47845218D01*
X188810781Y-47845220D01*
X188915137Y-47879127D01*
X189005465Y-47908477D01*
X189106557Y-47924488D01*
X189207648Y-47940500D01*
X189207649Y-47940500D01*
X189412351Y-47940500D01*
X189412352Y-47940500D01*
X189614534Y-47908477D01*
X189809219Y-47845220D01*
X189991610Y-47752287D01*
X190084590Y-47684732D01*
X190157213Y-47631971D01*
X190157215Y-47631968D01*
X190157219Y-47631966D01*
X190301966Y-47487219D01*
X190301968Y-47487215D01*
X190301971Y-47487213D01*
X190422284Y-47321614D01*
X190422285Y-47321613D01*
X190422287Y-47321610D01*
X190469516Y-47228917D01*
X190517489Y-47178123D01*
X190585310Y-47161328D01*
X190651445Y-47183865D01*
X190690485Y-47228919D01*
X190737715Y-47321614D01*
X190858028Y-47487213D01*
X191002786Y-47631971D01*
X191157749Y-47744556D01*
X191168390Y-47752287D01*
X191284607Y-47811503D01*
X191350776Y-47845218D01*
X191350778Y-47845218D01*
X191350781Y-47845220D01*
X191455137Y-47879127D01*
X191545465Y-47908477D01*
X191646557Y-47924488D01*
X191747648Y-47940500D01*
X191747649Y-47940500D01*
X191952351Y-47940500D01*
X191952352Y-47940500D01*
X192154534Y-47908477D01*
X192349219Y-47845220D01*
X192531610Y-47752287D01*
X192624590Y-47684732D01*
X192697213Y-47631971D01*
X192697215Y-47631968D01*
X192697219Y-47631966D01*
X192841966Y-47487219D01*
X192841968Y-47487215D01*
X192841971Y-47487213D01*
X192962284Y-47321614D01*
X192962285Y-47321613D01*
X192962287Y-47321610D01*
X193009516Y-47228917D01*
X193057489Y-47178123D01*
X193125310Y-47161328D01*
X193191445Y-47183865D01*
X193230485Y-47228919D01*
X193277715Y-47321614D01*
X193398028Y-47487213D01*
X193542786Y-47631971D01*
X193697749Y-47744556D01*
X193708390Y-47752287D01*
X193824607Y-47811503D01*
X193890776Y-47845218D01*
X193890778Y-47845218D01*
X193890781Y-47845220D01*
X193995137Y-47879127D01*
X194085465Y-47908477D01*
X194186557Y-47924488D01*
X194287648Y-47940500D01*
X194287649Y-47940500D01*
X194492351Y-47940500D01*
X194492352Y-47940500D01*
X194694534Y-47908477D01*
X194889219Y-47845220D01*
X195071610Y-47752287D01*
X195164590Y-47684732D01*
X195237213Y-47631971D01*
X195237215Y-47631968D01*
X195237219Y-47631966D01*
X195381966Y-47487219D01*
X195381968Y-47487215D01*
X195381971Y-47487213D01*
X195434732Y-47414590D01*
X195502287Y-47321610D01*
X195595220Y-47139219D01*
X195658477Y-46944534D01*
X195690500Y-46742352D01*
X195690500Y-46537648D01*
X195658477Y-46335466D01*
X195595220Y-46140781D01*
X195595218Y-46140778D01*
X195595218Y-46140776D01*
X195549515Y-46051080D01*
X195502287Y-45958390D01*
X195494556Y-45947749D01*
X195381971Y-45792786D01*
X195237213Y-45648028D01*
X195071613Y-45527715D01*
X195071612Y-45527714D01*
X195071610Y-45527713D01*
X195014653Y-45498691D01*
X194889223Y-45434781D01*
X194694534Y-45371522D01*
X194519995Y-45343878D01*
X194492352Y-45339500D01*
X194287648Y-45339500D01*
X194263329Y-45343351D01*
X194085465Y-45371522D01*
X193890776Y-45434781D01*
X193708386Y-45527715D01*
X193542786Y-45648028D01*
X193398028Y-45792786D01*
X193277715Y-45958386D01*
X193230485Y-46051080D01*
X193182510Y-46101876D01*
X193114689Y-46118671D01*
X193048554Y-46096134D01*
X193009515Y-46051080D01*
X193008883Y-46049840D01*
X192962287Y-45958390D01*
X192954556Y-45947749D01*
X192841971Y-45792786D01*
X192697213Y-45648028D01*
X192531613Y-45527715D01*
X192531612Y-45527714D01*
X192531610Y-45527713D01*
X192474653Y-45498691D01*
X192349223Y-45434781D01*
X192154534Y-45371522D01*
X191979995Y-45343878D01*
X191952352Y-45339500D01*
X191747648Y-45339500D01*
X191723329Y-45343351D01*
X191545465Y-45371522D01*
X191350776Y-45434781D01*
X191168386Y-45527715D01*
X191002786Y-45648028D01*
X190858028Y-45792786D01*
X190737715Y-45958386D01*
X190690485Y-46051080D01*
X190642510Y-46101876D01*
X190574689Y-46118671D01*
X190508554Y-46096134D01*
X190469515Y-46051080D01*
X190468883Y-46049840D01*
X190422287Y-45958390D01*
X190414556Y-45947749D01*
X190301971Y-45792786D01*
X190157213Y-45648028D01*
X189991613Y-45527715D01*
X189991612Y-45527714D01*
X189991610Y-45527713D01*
X189934653Y-45498691D01*
X189809223Y-45434781D01*
X189614534Y-45371522D01*
X189439995Y-45343878D01*
X189412352Y-45339500D01*
X189207648Y-45339500D01*
X189183329Y-45343351D01*
X189005465Y-45371522D01*
X188810776Y-45434781D01*
X188628386Y-45527715D01*
X188462786Y-45648028D01*
X188318028Y-45792786D01*
X188197715Y-45958386D01*
X188150485Y-46051080D01*
X188102510Y-46101876D01*
X188034689Y-46118671D01*
X187968554Y-46096134D01*
X187929515Y-46051080D01*
X187928883Y-46049840D01*
X187882287Y-45958390D01*
X187874556Y-45947749D01*
X187761971Y-45792786D01*
X187617213Y-45648028D01*
X187451613Y-45527715D01*
X187451612Y-45527714D01*
X187451610Y-45527713D01*
X187394653Y-45498691D01*
X187269223Y-45434781D01*
X187074534Y-45371522D01*
X186899995Y-45343878D01*
X186872352Y-45339500D01*
X186667648Y-45339500D01*
X186643329Y-45343351D01*
X186465465Y-45371522D01*
X186270776Y-45434781D01*
X186088386Y-45527715D01*
X185922786Y-45648028D01*
X185778028Y-45792786D01*
X185657715Y-45958386D01*
X185610485Y-46051080D01*
X185562510Y-46101876D01*
X185494689Y-46118671D01*
X185428554Y-46096134D01*
X185389515Y-46051080D01*
X185388883Y-46049840D01*
X185342287Y-45958390D01*
X185334556Y-45947749D01*
X185221971Y-45792786D01*
X185077213Y-45648028D01*
X184911613Y-45527715D01*
X184911612Y-45527714D01*
X184911610Y-45527713D01*
X184854653Y-45498691D01*
X184729223Y-45434781D01*
X184534534Y-45371522D01*
X184359995Y-45343878D01*
X184332352Y-45339500D01*
X184127648Y-45339500D01*
X184103329Y-45343351D01*
X183925465Y-45371522D01*
X183730776Y-45434781D01*
X183548386Y-45527715D01*
X183382786Y-45648028D01*
X183238028Y-45792786D01*
X183117715Y-45958386D01*
X183070485Y-46051080D01*
X183022510Y-46101876D01*
X182954689Y-46118671D01*
X182888554Y-46096134D01*
X182849515Y-46051080D01*
X182848883Y-46049840D01*
X182802287Y-45958390D01*
X182794556Y-45947749D01*
X182681971Y-45792786D01*
X182537213Y-45648028D01*
X182371613Y-45527715D01*
X182371612Y-45527714D01*
X182371610Y-45527713D01*
X182314653Y-45498691D01*
X182189223Y-45434781D01*
X181994534Y-45371522D01*
X181819995Y-45343878D01*
X181792352Y-45339500D01*
X181587648Y-45339500D01*
X181563329Y-45343351D01*
X181385465Y-45371522D01*
X181190776Y-45434781D01*
X181008386Y-45527715D01*
X180842786Y-45648028D01*
X180698028Y-45792786D01*
X180577715Y-45958386D01*
X180530485Y-46051080D01*
X180482510Y-46101876D01*
X180414689Y-46118671D01*
X180348554Y-46096134D01*
X180309515Y-46051080D01*
X180308883Y-46049840D01*
X180262287Y-45958390D01*
X180254556Y-45947749D01*
X180141971Y-45792786D01*
X179997213Y-45648028D01*
X179831613Y-45527715D01*
X179831612Y-45527714D01*
X179831610Y-45527713D01*
X179774653Y-45498691D01*
X179649223Y-45434781D01*
X179454534Y-45371522D01*
X179279995Y-45343878D01*
X179252352Y-45339500D01*
X179047648Y-45339500D01*
X179023329Y-45343351D01*
X178845465Y-45371522D01*
X178650776Y-45434781D01*
X178468386Y-45527715D01*
X178302786Y-45648028D01*
X178158028Y-45792786D01*
X178037715Y-45958386D01*
X177990485Y-46051080D01*
X177942510Y-46101876D01*
X177874689Y-46118671D01*
X177808554Y-46096134D01*
X177769515Y-46051080D01*
X177768883Y-46049840D01*
X177722287Y-45958390D01*
X177714556Y-45947749D01*
X177601971Y-45792786D01*
X177457213Y-45648028D01*
X177291613Y-45527715D01*
X177291612Y-45527714D01*
X177291610Y-45527713D01*
X177234653Y-45498691D01*
X177109223Y-45434781D01*
X176914534Y-45371522D01*
X176739995Y-45343878D01*
X176712352Y-45339500D01*
X176507648Y-45339500D01*
X176483329Y-45343351D01*
X176305465Y-45371522D01*
X176110776Y-45434781D01*
X175928386Y-45527715D01*
X175762786Y-45648028D01*
X175618028Y-45792786D01*
X175497715Y-45958386D01*
X175404781Y-46140776D01*
X175341522Y-46335465D01*
X175309500Y-46537648D01*
X167100000Y-46537648D01*
X167100000Y-40897682D01*
X189700000Y-40897682D01*
X189700000Y-41102317D01*
X189732009Y-41304417D01*
X189795244Y-41499031D01*
X189888141Y-41681350D01*
X189888147Y-41681359D01*
X189920523Y-41725921D01*
X189920524Y-41725922D01*
X190600000Y-41046446D01*
X190600000Y-41052661D01*
X190627259Y-41154394D01*
X190679920Y-41245606D01*
X190754394Y-41320080D01*
X190845606Y-41372741D01*
X190947339Y-41400000D01*
X190953553Y-41400000D01*
X190274076Y-42079474D01*
X190318650Y-42111859D01*
X190500968Y-42204755D01*
X190695582Y-42267990D01*
X190897683Y-42300000D01*
X191102317Y-42300000D01*
X191304417Y-42267990D01*
X191499031Y-42204755D01*
X191681349Y-42111859D01*
X191725921Y-42079474D01*
X191046447Y-41400000D01*
X191052661Y-41400000D01*
X191154394Y-41372741D01*
X191245606Y-41320080D01*
X191320080Y-41245606D01*
X191372741Y-41154394D01*
X191400000Y-41052661D01*
X191400000Y-41046448D01*
X192084483Y-41730931D01*
X192134147Y-41741364D01*
X192183905Y-41790415D01*
X192198000Y-41844634D01*
X192199099Y-41844576D01*
X192199146Y-41844571D01*
X192199146Y-41844573D01*
X192199324Y-41844564D01*
X192199501Y-41847876D01*
X192205908Y-41907483D01*
X192256202Y-42042328D01*
X192256206Y-42042335D01*
X192342452Y-42157544D01*
X192342455Y-42157547D01*
X192457664Y-42243793D01*
X192457671Y-42243797D01*
X192592517Y-42294091D01*
X192592516Y-42294091D01*
X192599444Y-42294835D01*
X192652127Y-42300500D01*
X194347872Y-42300499D01*
X194407483Y-42294091D01*
X194542331Y-42243796D01*
X194657546Y-42157546D01*
X194743796Y-42042331D01*
X194794091Y-41907483D01*
X194800500Y-41847873D01*
X194800499Y-40152128D01*
X194794091Y-40092517D01*
X194788990Y-40078841D01*
X194743797Y-39957671D01*
X194743793Y-39957664D01*
X194657547Y-39842455D01*
X194657544Y-39842452D01*
X194542335Y-39756206D01*
X194542328Y-39756202D01*
X194407482Y-39705908D01*
X194407483Y-39705908D01*
X194347883Y-39699501D01*
X194347881Y-39699500D01*
X194347873Y-39699500D01*
X194347864Y-39699500D01*
X192652129Y-39699500D01*
X192652123Y-39699501D01*
X192592516Y-39705908D01*
X192457671Y-39756202D01*
X192457664Y-39756206D01*
X192342455Y-39842452D01*
X192342452Y-39842455D01*
X192256206Y-39957664D01*
X192256202Y-39957671D01*
X192205908Y-40092517D01*
X192199501Y-40152116D01*
X192199501Y-40152123D01*
X192199322Y-40155452D01*
X192197741Y-40155367D01*
X192179815Y-40216419D01*
X192127011Y-40262174D01*
X192083726Y-40269824D01*
X191400000Y-40953551D01*
X191400000Y-40947339D01*
X191372741Y-40845606D01*
X191320080Y-40754394D01*
X191245606Y-40679920D01*
X191154394Y-40627259D01*
X191052661Y-40600000D01*
X191046446Y-40600000D01*
X191725922Y-39920524D01*
X191725921Y-39920523D01*
X191681359Y-39888147D01*
X191681350Y-39888141D01*
X191499031Y-39795244D01*
X191304417Y-39732009D01*
X191102317Y-39700000D01*
X190897683Y-39700000D01*
X190695582Y-39732009D01*
X190500968Y-39795244D01*
X190318644Y-39888143D01*
X190274077Y-39920523D01*
X190274077Y-39920524D01*
X190953554Y-40600000D01*
X190947339Y-40600000D01*
X190845606Y-40627259D01*
X190754394Y-40679920D01*
X190679920Y-40754394D01*
X190627259Y-40845606D01*
X190600000Y-40947339D01*
X190600000Y-40953553D01*
X189920524Y-40274077D01*
X189920523Y-40274077D01*
X189888143Y-40318644D01*
X189795244Y-40500968D01*
X189732009Y-40695582D01*
X189700000Y-40897682D01*
X167100000Y-40897682D01*
X167100000Y-40390000D01*
X121389457Y-40390000D01*
X121322418Y-40370315D01*
X121276663Y-40317511D01*
X121266719Y-40248353D01*
X121268686Y-40239499D01*
X121268549Y-40239472D01*
X121300500Y-40078843D01*
X121300500Y-39921155D01*
X121300499Y-39921153D01*
X121284845Y-39842455D01*
X121269737Y-39766503D01*
X121255449Y-39732009D01*
X121209396Y-39620825D01*
X121209394Y-39620822D01*
X121209394Y-39620821D01*
X121174694Y-39568889D01*
X121153816Y-39502215D01*
X121172300Y-39434835D01*
X121174676Y-39431136D01*
X121209394Y-39379179D01*
X121269737Y-39233497D01*
X121300500Y-39078842D01*
X121300500Y-38921158D01*
X121300500Y-38921155D01*
X121300499Y-38921153D01*
X121275302Y-38794480D01*
X121269737Y-38766503D01*
X121227360Y-38664195D01*
X121209397Y-38620827D01*
X121209390Y-38620814D01*
X121121789Y-38489711D01*
X121121786Y-38489707D01*
X121010292Y-38378213D01*
X121010288Y-38378210D01*
X120879185Y-38290609D01*
X120879172Y-38290602D01*
X120733501Y-38230264D01*
X120733489Y-38230261D01*
X120578845Y-38199500D01*
X120578842Y-38199500D01*
X120421158Y-38199500D01*
X120421155Y-38199500D01*
X120266510Y-38230261D01*
X120266498Y-38230264D01*
X120120827Y-38290602D01*
X120120814Y-38290609D01*
X119989711Y-38378210D01*
X119989707Y-38378213D01*
X119878213Y-38489707D01*
X119878210Y-38489711D01*
X119791562Y-38619390D01*
X119737950Y-38664195D01*
X119688460Y-38674499D01*
X118485860Y-38674499D01*
X118327746Y-38674499D01*
X118175018Y-38715422D01*
X118175017Y-38715422D01*
X118175015Y-38715423D01*
X118175012Y-38715424D01*
X118124899Y-38744358D01*
X118124898Y-38744359D01*
X118086552Y-38766498D01*
X118038088Y-38794478D01*
X118038085Y-38794480D01*
X116794479Y-40038086D01*
X116777940Y-40066733D01*
X116770950Y-40078842D01*
X116715423Y-40175017D01*
X116674499Y-40327745D01*
X116674499Y-40485859D01*
X116674499Y-40485861D01*
X116674500Y-40495855D01*
X116674500Y-64506528D01*
X116674499Y-64506546D01*
X116674499Y-64672252D01*
X116674498Y-64672252D01*
X108904575Y-64672252D01*
X109058127Y-64583599D01*
X109255776Y-64431938D01*
X109431938Y-64255776D01*
X109583599Y-64058127D01*
X109708164Y-63842373D01*
X109803502Y-63612207D01*
X109867982Y-63371565D01*
X109900500Y-63124565D01*
X109900500Y-62875435D01*
X109867982Y-62628435D01*
X109803502Y-62387793D01*
X109749253Y-62256825D01*
X109708169Y-62157638D01*
X109708162Y-62157623D01*
X109583599Y-61941873D01*
X109431939Y-61744225D01*
X109431933Y-61744218D01*
X109255781Y-61568066D01*
X109255774Y-61568060D01*
X109058126Y-61416400D01*
X108842376Y-61291837D01*
X108842361Y-61291830D01*
X108612207Y-61196498D01*
X108371561Y-61132017D01*
X108124575Y-61099501D01*
X108124570Y-61099500D01*
X108124565Y-61099500D01*
X107875435Y-61099500D01*
X107875429Y-61099500D01*
X107875424Y-61099501D01*
X107628438Y-61132017D01*
X107387792Y-61196498D01*
X107157638Y-61291830D01*
X107157623Y-61291837D01*
X106941873Y-61416400D01*
X106744225Y-61568060D01*
X106744218Y-61568066D01*
X106568066Y-61744218D01*
X106568060Y-61744225D01*
X106416400Y-61941873D01*
X106291837Y-62157623D01*
X106291830Y-62157638D01*
X106196498Y-62387792D01*
X106132017Y-62628438D01*
X106099501Y-62875424D01*
X106099500Y-62875441D01*
X104000500Y-62875441D01*
X104000500Y-57875441D01*
X106099500Y-57875441D01*
X106099500Y-58124558D01*
X106099501Y-58124575D01*
X106132017Y-58371561D01*
X106196498Y-58612207D01*
X106291830Y-58842361D01*
X106291837Y-58842376D01*
X106416400Y-59058126D01*
X106568060Y-59255774D01*
X106568066Y-59255781D01*
X106744218Y-59431933D01*
X106744225Y-59431939D01*
X106941873Y-59583599D01*
X107157623Y-59708162D01*
X107157638Y-59708169D01*
X107234486Y-59740000D01*
X107387793Y-59803502D01*
X107628435Y-59867982D01*
X107875435Y-59900500D01*
X107875442Y-59900500D01*
X108124558Y-59900500D01*
X108124565Y-59900500D01*
X108371565Y-59867982D01*
X108612207Y-59803502D01*
X108842373Y-59708164D01*
X109058127Y-59583599D01*
X109255776Y-59431938D01*
X109431938Y-59255776D01*
X109583599Y-59058127D01*
X109708164Y-58842373D01*
X109708826Y-58840776D01*
X109717982Y-58818671D01*
X109803502Y-58612207D01*
X109867982Y-58371565D01*
X109900500Y-58124565D01*
X109900500Y-57875435D01*
X109867982Y-57628435D01*
X109803502Y-57387793D01*
X109708164Y-57157627D01*
X109583599Y-56941873D01*
X109431938Y-56744224D01*
X109431933Y-56744218D01*
X109255781Y-56568066D01*
X109255774Y-56568060D01*
X109058126Y-56416400D01*
X108842376Y-56291837D01*
X108842361Y-56291830D01*
X108612207Y-56196498D01*
X108371561Y-56132017D01*
X108124575Y-56099501D01*
X108124570Y-56099500D01*
X108124565Y-56099500D01*
X107875435Y-56099500D01*
X107875429Y-56099500D01*
X107875424Y-56099501D01*
X107628438Y-56132017D01*
X107387792Y-56196498D01*
X107157638Y-56291830D01*
X107157623Y-56291837D01*
X106941873Y-56416400D01*
X106744225Y-56568060D01*
X106744218Y-56568066D01*
X106568066Y-56744218D01*
X106568060Y-56744225D01*
X106416400Y-56941873D01*
X106291837Y-57157623D01*
X106291830Y-57157638D01*
X106196498Y-57387792D01*
X106132017Y-57628438D01*
X106099501Y-57875424D01*
X106099500Y-57875441D01*
X104000500Y-57875441D01*
X104000500Y-52875441D01*
X106099500Y-52875441D01*
X106099500Y-53124558D01*
X106099501Y-53124575D01*
X106132017Y-53371561D01*
X106196498Y-53612207D01*
X106291830Y-53842361D01*
X106291837Y-53842376D01*
X106416400Y-54058126D01*
X106568060Y-54255774D01*
X106568066Y-54255781D01*
X106744218Y-54431933D01*
X106744225Y-54431939D01*
X106941873Y-54583599D01*
X107157623Y-54708162D01*
X107157638Y-54708169D01*
X107256825Y-54749253D01*
X107387793Y-54803502D01*
X107628435Y-54867982D01*
X107875435Y-54900500D01*
X107875442Y-54900500D01*
X108124558Y-54900500D01*
X108124565Y-54900500D01*
X108371565Y-54867982D01*
X108612207Y-54803502D01*
X108842373Y-54708164D01*
X109058127Y-54583599D01*
X109255776Y-54431938D01*
X109431938Y-54255776D01*
X109583599Y-54058127D01*
X109708164Y-53842373D01*
X109803502Y-53612207D01*
X109867982Y-53371565D01*
X109900500Y-53124565D01*
X109900500Y-52875435D01*
X109867982Y-52628435D01*
X109803502Y-52387793D01*
X109708164Y-52157627D01*
X109583599Y-51941873D01*
X109431938Y-51744224D01*
X109431933Y-51744218D01*
X109255781Y-51568066D01*
X109255774Y-51568060D01*
X109058126Y-51416400D01*
X108842376Y-51291837D01*
X108842361Y-51291830D01*
X108612207Y-51196498D01*
X108371561Y-51132017D01*
X108124575Y-51099501D01*
X108124570Y-51099500D01*
X108124565Y-51099500D01*
X107875435Y-51099500D01*
X107875429Y-51099500D01*
X107875424Y-51099501D01*
X107628438Y-51132017D01*
X107387792Y-51196498D01*
X107157638Y-51291830D01*
X107157623Y-51291837D01*
X106941873Y-51416400D01*
X106744225Y-51568060D01*
X106744218Y-51568066D01*
X106568066Y-51744218D01*
X106568060Y-51744225D01*
X106416400Y-51941873D01*
X106291837Y-52157623D01*
X106291830Y-52157638D01*
X106196498Y-52387792D01*
X106132017Y-52628438D01*
X106099501Y-52875424D01*
X106099500Y-52875441D01*
X104000500Y-52875441D01*
X104000500Y-29969756D01*
X144699500Y-29969756D01*
X144699500Y-31665491D01*
X144699501Y-31665497D01*
X144705908Y-31725104D01*
X144756202Y-31859949D01*
X144756206Y-31859956D01*
X144842452Y-31975165D01*
X144842455Y-31975168D01*
X144957664Y-32061414D01*
X144957671Y-32061418D01*
X145002618Y-32078182D01*
X145092517Y-32111712D01*
X145152127Y-32118121D01*
X145152153Y-32118120D01*
X145155453Y-32118299D01*
X145155365Y-32119929D01*
X145216238Y-32137688D01*
X145262084Y-32190412D01*
X145269804Y-32233872D01*
X145953554Y-32917621D01*
X145947339Y-32917621D01*
X145845606Y-32944880D01*
X145754394Y-32997541D01*
X145679920Y-33072015D01*
X145627259Y-33163227D01*
X145600000Y-33264960D01*
X145600000Y-33271174D01*
X144920524Y-32591698D01*
X144920523Y-32591698D01*
X144888143Y-32636265D01*
X144795244Y-32818589D01*
X144732009Y-33013203D01*
X144700000Y-33215303D01*
X144700000Y-33419938D01*
X144732009Y-33622038D01*
X144795244Y-33816652D01*
X144888141Y-33998971D01*
X144888147Y-33998980D01*
X144920523Y-34043542D01*
X144920524Y-34043543D01*
X145600000Y-33364067D01*
X145600000Y-33370282D01*
X145627259Y-33472015D01*
X145679920Y-33563227D01*
X145754394Y-33637701D01*
X145845606Y-33690362D01*
X145947339Y-33717621D01*
X145953553Y-33717621D01*
X145274076Y-34397095D01*
X145318650Y-34429480D01*
X145500968Y-34522376D01*
X145695582Y-34585611D01*
X145897683Y-34617621D01*
X146102317Y-34617621D01*
X146304417Y-34585611D01*
X146499031Y-34522376D01*
X146681349Y-34429480D01*
X146725921Y-34397095D01*
X146046447Y-33717621D01*
X146052661Y-33717621D01*
X146154394Y-33690362D01*
X146245606Y-33637701D01*
X146320080Y-33563227D01*
X146372741Y-33472015D01*
X146400000Y-33370282D01*
X146400000Y-33364068D01*
X147079474Y-34043542D01*
X147111859Y-33998970D01*
X147204755Y-33816652D01*
X147267990Y-33622038D01*
X147300000Y-33419938D01*
X147300000Y-33215303D01*
X147267990Y-33013203D01*
X147204755Y-32818589D01*
X147111859Y-32636271D01*
X147079474Y-32591698D01*
X147079474Y-32591697D01*
X146400000Y-33271172D01*
X146400000Y-33264960D01*
X146372741Y-33163227D01*
X146320080Y-33072015D01*
X146245606Y-32997541D01*
X146154394Y-32944880D01*
X146052661Y-32917621D01*
X146046446Y-32917621D01*
X146730931Y-32233136D01*
X146741364Y-32183473D01*
X146790415Y-32133715D01*
X146844637Y-32119669D01*
X146844576Y-32118521D01*
X146844571Y-32118475D01*
X146844573Y-32118474D01*
X146844564Y-32118297D01*
X146847857Y-32118120D01*
X146847872Y-32118120D01*
X146907483Y-32111712D01*
X147042331Y-32061417D01*
X147157546Y-31975167D01*
X147243796Y-31859952D01*
X147294091Y-31725104D01*
X147300500Y-31665494D01*
X147300499Y-29969749D01*
X147294091Y-29910138D01*
X147282546Y-29879185D01*
X147243797Y-29775292D01*
X147243793Y-29775285D01*
X147157547Y-29660076D01*
X147157544Y-29660073D01*
X147042335Y-29573827D01*
X147042328Y-29573823D01*
X146928177Y-29531248D01*
X146907482Y-29523529D01*
X146907483Y-29523529D01*
X146847883Y-29517122D01*
X146847881Y-29517121D01*
X146847873Y-29517121D01*
X146847864Y-29517121D01*
X145152129Y-29517121D01*
X145152123Y-29517122D01*
X145092516Y-29523529D01*
X144957671Y-29573823D01*
X144957664Y-29573827D01*
X144842455Y-29660073D01*
X144842452Y-29660076D01*
X144756206Y-29775285D01*
X144756202Y-29775292D01*
X144705908Y-29910138D01*
X144699501Y-29969737D01*
X144699501Y-29969744D01*
X144699500Y-29969756D01*
X104000500Y-29969756D01*
X104000500Y-29421153D01*
X151699500Y-29421153D01*
X151699500Y-29578846D01*
X151730261Y-29733489D01*
X151730264Y-29733501D01*
X151790602Y-29879172D01*
X151790609Y-29879185D01*
X151878210Y-30010288D01*
X151878213Y-30010292D01*
X151989707Y-30121786D01*
X151989711Y-30121789D01*
X152120814Y-30209390D01*
X152120827Y-30209397D01*
X152266498Y-30269735D01*
X152266503Y-30269737D01*
X152421153Y-30300499D01*
X152421156Y-30300500D01*
X152421158Y-30300500D01*
X152578844Y-30300500D01*
X152578845Y-30300499D01*
X152733497Y-30269737D01*
X152879179Y-30209394D01*
X152879185Y-30209390D01*
X153010875Y-30121398D01*
X153077553Y-30100520D01*
X153079766Y-30100500D01*
X155199903Y-30100500D01*
X155266942Y-30120185D01*
X155287584Y-30136819D01*
X157515139Y-32364374D01*
X157515149Y-32364385D01*
X157519479Y-32368715D01*
X157519480Y-32368716D01*
X157631284Y-32480520D01*
X157694055Y-32516760D01*
X157718095Y-32530639D01*
X157718097Y-32530641D01*
X157756151Y-32552611D01*
X157768215Y-32559577D01*
X157920943Y-32600501D01*
X157920946Y-32600501D01*
X158086653Y-32600501D01*
X158086669Y-32600500D01*
X160263096Y-32600500D01*
X160330135Y-32620185D01*
X160375890Y-32672989D01*
X160385834Y-32742147D01*
X160379278Y-32767833D01*
X160330908Y-32897517D01*
X160324501Y-32957116D01*
X160324501Y-32957123D01*
X160324500Y-32957135D01*
X160324500Y-34652870D01*
X160324501Y-34652876D01*
X160330908Y-34712483D01*
X160381202Y-34847328D01*
X160381206Y-34847335D01*
X160467452Y-34962544D01*
X160467455Y-34962547D01*
X160582664Y-35048793D01*
X160582671Y-35048797D01*
X160627618Y-35065561D01*
X160717517Y-35099091D01*
X160777127Y-35105500D01*
X160777153Y-35105499D01*
X160780453Y-35105678D01*
X160780365Y-35107308D01*
X160841238Y-35125067D01*
X160887084Y-35177791D01*
X160894804Y-35221251D01*
X161578554Y-35905000D01*
X161572339Y-35905000D01*
X161470606Y-35932259D01*
X161379394Y-35984920D01*
X161304920Y-36059394D01*
X161252259Y-36150606D01*
X161225000Y-36252339D01*
X161225000Y-36258553D01*
X160545524Y-35579077D01*
X160545523Y-35579077D01*
X160513143Y-35623644D01*
X160420244Y-35805968D01*
X160357009Y-36000582D01*
X160325000Y-36202682D01*
X160325000Y-36407317D01*
X160357009Y-36609417D01*
X160420244Y-36804031D01*
X160513141Y-36986350D01*
X160513147Y-36986359D01*
X160545523Y-37030921D01*
X160545524Y-37030922D01*
X161225000Y-36351446D01*
X161225000Y-36357661D01*
X161252259Y-36459394D01*
X161304920Y-36550606D01*
X161379394Y-36625080D01*
X161470606Y-36677741D01*
X161572339Y-36705000D01*
X161578553Y-36705000D01*
X160899076Y-37384474D01*
X160943650Y-37416859D01*
X161125968Y-37509755D01*
X161320582Y-37572990D01*
X161522683Y-37605000D01*
X161727317Y-37605000D01*
X161929417Y-37572990D01*
X162124031Y-37509755D01*
X162306349Y-37416859D01*
X162350921Y-37384474D01*
X161671447Y-36705000D01*
X161677661Y-36705000D01*
X161779394Y-36677741D01*
X161870606Y-36625080D01*
X161945080Y-36550606D01*
X161997741Y-36459394D01*
X162025000Y-36357661D01*
X162025000Y-36351447D01*
X162704474Y-37030921D01*
X162736859Y-36986349D01*
X162829755Y-36804031D01*
X162892990Y-36609417D01*
X162925000Y-36407317D01*
X162925000Y-36202682D01*
X162892990Y-36000582D01*
X162829755Y-35805968D01*
X162736859Y-35623650D01*
X162704474Y-35579077D01*
X162704474Y-35579076D01*
X162025000Y-36258551D01*
X162025000Y-36252339D01*
X161997741Y-36150606D01*
X161945080Y-36059394D01*
X161870606Y-35984920D01*
X161779394Y-35932259D01*
X161677661Y-35905000D01*
X161671446Y-35905000D01*
X162355931Y-35220515D01*
X162366364Y-35170852D01*
X162415415Y-35121094D01*
X162469637Y-35107048D01*
X162469576Y-35105900D01*
X162469571Y-35105854D01*
X162469573Y-35105853D01*
X162469564Y-35105676D01*
X162472857Y-35105499D01*
X162472872Y-35105499D01*
X162532483Y-35099091D01*
X162667331Y-35048796D01*
X162782546Y-34962546D01*
X162868796Y-34847331D01*
X162919091Y-34712483D01*
X162925500Y-34652873D01*
X162925499Y-32957128D01*
X162919091Y-32897517D01*
X162911890Y-32878211D01*
X162870722Y-32767833D01*
X162865738Y-32698142D01*
X162899223Y-32636819D01*
X162960546Y-32603334D01*
X162986904Y-32600500D01*
X166439903Y-32600500D01*
X166506942Y-32620185D01*
X166527584Y-32636819D01*
X167405425Y-33514660D01*
X167438910Y-33575983D01*
X167439361Y-33578149D01*
X167470261Y-33733491D01*
X167470264Y-33733501D01*
X167530602Y-33879172D01*
X167530609Y-33879185D01*
X167618210Y-34010288D01*
X167618213Y-34010292D01*
X167729707Y-34121786D01*
X167729711Y-34121789D01*
X167860814Y-34209390D01*
X167860827Y-34209397D01*
X168006498Y-34269735D01*
X168006503Y-34269737D01*
X168161153Y-34300499D01*
X168161156Y-34300500D01*
X168161158Y-34300500D01*
X168318844Y-34300500D01*
X168318845Y-34300499D01*
X168473497Y-34269737D01*
X168619179Y-34209394D01*
X168750289Y-34121789D01*
X168861789Y-34010289D01*
X168949394Y-33879179D01*
X168951524Y-33874038D01*
X169009735Y-33733501D01*
X169009737Y-33733497D01*
X169040500Y-33578842D01*
X169040500Y-33421158D01*
X169040500Y-33421155D01*
X169040499Y-33421153D01*
X169009738Y-33266510D01*
X169009737Y-33266503D01*
X169009098Y-33264960D01*
X168949397Y-33120827D01*
X168949390Y-33120814D01*
X168861789Y-32989711D01*
X168861786Y-32989707D01*
X168750292Y-32878213D01*
X168750288Y-32878210D01*
X168711264Y-32852135D01*
X181819500Y-32852135D01*
X181819500Y-35147870D01*
X181819501Y-35147876D01*
X181825908Y-35207483D01*
X181876202Y-35342328D01*
X181876206Y-35342335D01*
X181962452Y-35457544D01*
X181962455Y-35457547D01*
X182077664Y-35543793D01*
X182077671Y-35543797D01*
X182212517Y-35594091D01*
X182212516Y-35594091D01*
X182219444Y-35594835D01*
X182272127Y-35600500D01*
X184567872Y-35600499D01*
X184627483Y-35594091D01*
X184762331Y-35543796D01*
X184877546Y-35457546D01*
X184963796Y-35342331D01*
X185014091Y-35207483D01*
X185020500Y-35147873D01*
X185020499Y-33874038D01*
X191979500Y-33874038D01*
X191979500Y-34125962D01*
X191992715Y-34209397D01*
X192018910Y-34374785D01*
X192096760Y-34614383D01*
X192211132Y-34838848D01*
X192359201Y-35042649D01*
X192359205Y-35042654D01*
X192537345Y-35220794D01*
X192537350Y-35220798D01*
X192537974Y-35221251D01*
X192741155Y-35368870D01*
X192884184Y-35441747D01*
X192965616Y-35483239D01*
X192965618Y-35483239D01*
X192965621Y-35483241D01*
X193205215Y-35561090D01*
X193454038Y-35600500D01*
X193454039Y-35600500D01*
X193705961Y-35600500D01*
X193705962Y-35600500D01*
X193954785Y-35561090D01*
X194194379Y-35483241D01*
X194418845Y-35368870D01*
X194622656Y-35220793D01*
X194800793Y-35042656D01*
X194948870Y-34838845D01*
X195063241Y-34614379D01*
X195141090Y-34374785D01*
X195180500Y-34125962D01*
X195180500Y-33874038D01*
X195141090Y-33625215D01*
X195063241Y-33385621D01*
X195063239Y-33385618D01*
X195063239Y-33385616D01*
X195001761Y-33264960D01*
X194948870Y-33161155D01*
X194824309Y-32989711D01*
X194800798Y-32957350D01*
X194800794Y-32957345D01*
X194622654Y-32779205D01*
X194622649Y-32779201D01*
X194418848Y-32631132D01*
X194418847Y-32631131D01*
X194418845Y-32631130D01*
X194341453Y-32591697D01*
X194194383Y-32516760D01*
X193954785Y-32438910D01*
X193705962Y-32399500D01*
X193454038Y-32399500D01*
X193329626Y-32419205D01*
X193205214Y-32438910D01*
X192965616Y-32516760D01*
X192741151Y-32631132D01*
X192537350Y-32779201D01*
X192537345Y-32779205D01*
X192359205Y-32957345D01*
X192359201Y-32957350D01*
X192211132Y-33161151D01*
X192096760Y-33385616D01*
X192033977Y-33578844D01*
X192018910Y-33625215D01*
X191979500Y-33874038D01*
X185020499Y-33874038D01*
X185020499Y-32852128D01*
X185014091Y-32792517D01*
X185013379Y-32790609D01*
X184963797Y-32657671D01*
X184963793Y-32657664D01*
X184877547Y-32542455D01*
X184877544Y-32542452D01*
X184762335Y-32456206D01*
X184762328Y-32456202D01*
X184627482Y-32405908D01*
X184627483Y-32405908D01*
X184567883Y-32399501D01*
X184567881Y-32399500D01*
X184567873Y-32399500D01*
X184567864Y-32399500D01*
X182272129Y-32399500D01*
X182272123Y-32399501D01*
X182212516Y-32405908D01*
X182077671Y-32456202D01*
X182077664Y-32456206D01*
X181962455Y-32542452D01*
X181962452Y-32542455D01*
X181876206Y-32657664D01*
X181876202Y-32657671D01*
X181825908Y-32792517D01*
X181819501Y-32852116D01*
X181819501Y-32852123D01*
X181819500Y-32852135D01*
X168711264Y-32852135D01*
X168619185Y-32790609D01*
X168619172Y-32790602D01*
X168473501Y-32730264D01*
X168473491Y-32730261D01*
X168318149Y-32699361D01*
X168256238Y-32666976D01*
X168254660Y-32665425D01*
X167227590Y-31638355D01*
X167227588Y-31638352D01*
X167108717Y-31519481D01*
X167108716Y-31519480D01*
X167021904Y-31469360D01*
X167021904Y-31469359D01*
X167021900Y-31469358D01*
X166971785Y-31440423D01*
X166819057Y-31399499D01*
X166660943Y-31399499D01*
X166653347Y-31399499D01*
X166653331Y-31399500D01*
X158300097Y-31399500D01*
X158233058Y-31379815D01*
X158212416Y-31363181D01*
X155987590Y-29138355D01*
X155987588Y-29138352D01*
X155868717Y-29019481D01*
X155868716Y-29019480D01*
X155781904Y-28969360D01*
X155781904Y-28969359D01*
X155781900Y-28969358D01*
X155731785Y-28940423D01*
X155579057Y-28899499D01*
X155420943Y-28899499D01*
X155413347Y-28899499D01*
X155413331Y-28899500D01*
X153079766Y-28899500D01*
X153012727Y-28879815D01*
X153010875Y-28878602D01*
X152879185Y-28790609D01*
X152879172Y-28790602D01*
X152733501Y-28730264D01*
X152733489Y-28730261D01*
X152578845Y-28699500D01*
X152578842Y-28699500D01*
X152421158Y-28699500D01*
X152421155Y-28699500D01*
X152266510Y-28730261D01*
X152266498Y-28730264D01*
X152120827Y-28790602D01*
X152120814Y-28790609D01*
X151989711Y-28878210D01*
X151989707Y-28878213D01*
X151878213Y-28989707D01*
X151878210Y-28989711D01*
X151790609Y-29120814D01*
X151790602Y-29120827D01*
X151730264Y-29266498D01*
X151730261Y-29266510D01*
X151699500Y-29421153D01*
X104000500Y-29421153D01*
X104000500Y-27354234D01*
X131424500Y-27354234D01*
X131424500Y-27505765D01*
X131463719Y-27652136D01*
X131501602Y-27717750D01*
X131539485Y-27783365D01*
X131646635Y-27890515D01*
X131777865Y-27966281D01*
X131924234Y-28005500D01*
X131924236Y-28005500D01*
X132075764Y-28005500D01*
X132075766Y-28005500D01*
X132222135Y-27966281D01*
X132353365Y-27890515D01*
X132460515Y-27783365D01*
X132536281Y-27652135D01*
X132575500Y-27505766D01*
X132575500Y-27354234D01*
X137204500Y-27354234D01*
X137204500Y-27505765D01*
X137243719Y-27652136D01*
X137281602Y-27717750D01*
X137319485Y-27783365D01*
X137426635Y-27890515D01*
X137557865Y-27966281D01*
X137704234Y-28005500D01*
X137704236Y-28005500D01*
X137855764Y-28005500D01*
X137855766Y-28005500D01*
X138002135Y-27966281D01*
X138133365Y-27890515D01*
X138240515Y-27783365D01*
X138316281Y-27652135D01*
X138355500Y-27505766D01*
X138355500Y-27354234D01*
X138316281Y-27207865D01*
X138314485Y-27204755D01*
X138264773Y-27118651D01*
X138240515Y-27076635D01*
X138133365Y-26969485D01*
X138042999Y-26917312D01*
X138002136Y-26893719D01*
X137928950Y-26874109D01*
X137855766Y-26854500D01*
X137704234Y-26854500D01*
X137557863Y-26893719D01*
X137426635Y-26969485D01*
X137426632Y-26969487D01*
X137319487Y-27076632D01*
X137319485Y-27076635D01*
X137243719Y-27207863D01*
X137204500Y-27354234D01*
X132575500Y-27354234D01*
X132536281Y-27207865D01*
X132534485Y-27204755D01*
X132526129Y-27190281D01*
X132460515Y-27076635D01*
X132353365Y-26969485D01*
X132262999Y-26917312D01*
X132222136Y-26893719D01*
X132148950Y-26874109D01*
X132075766Y-26854500D01*
X131924234Y-26854500D01*
X131777863Y-26893719D01*
X131646635Y-26969485D01*
X131646632Y-26969487D01*
X131539487Y-27076632D01*
X131539485Y-27076635D01*
X131463719Y-27207863D01*
X131424500Y-27354234D01*
X104000500Y-27354234D01*
X104000500Y-25897682D01*
X164905100Y-25897682D01*
X164905100Y-26102317D01*
X164937109Y-26304417D01*
X165000344Y-26499031D01*
X165093241Y-26681350D01*
X165093247Y-26681359D01*
X165125623Y-26725921D01*
X165125624Y-26725922D01*
X165805100Y-26046446D01*
X165805100Y-26052661D01*
X165832359Y-26154394D01*
X165885020Y-26245606D01*
X165959494Y-26320080D01*
X166050706Y-26372741D01*
X166152439Y-26400000D01*
X166158653Y-26400000D01*
X165479176Y-27079474D01*
X165523750Y-27111859D01*
X165706068Y-27204755D01*
X165900682Y-27267990D01*
X166102783Y-27300000D01*
X166307417Y-27300000D01*
X166509517Y-27267990D01*
X166704131Y-27204755D01*
X166886449Y-27111859D01*
X166931021Y-27079474D01*
X166251547Y-26400000D01*
X166257761Y-26400000D01*
X166359494Y-26372741D01*
X166450706Y-26320080D01*
X166525180Y-26245606D01*
X166577841Y-26154394D01*
X166605100Y-26052661D01*
X166605100Y-26046447D01*
X167289583Y-26730931D01*
X167339247Y-26741364D01*
X167389005Y-26790415D01*
X167403100Y-26844634D01*
X167404199Y-26844576D01*
X167404246Y-26844571D01*
X167404246Y-26844573D01*
X167404424Y-26844564D01*
X167404601Y-26847876D01*
X167411008Y-26907483D01*
X167461302Y-27042328D01*
X167461306Y-27042335D01*
X167547552Y-27157544D01*
X167547555Y-27157547D01*
X167662764Y-27243793D01*
X167662771Y-27243797D01*
X167797617Y-27294091D01*
X167797616Y-27294091D01*
X167804544Y-27294835D01*
X167857227Y-27300500D01*
X169552972Y-27300499D01*
X169612583Y-27294091D01*
X169747431Y-27243796D01*
X169862646Y-27157546D01*
X169948896Y-27042331D01*
X169999191Y-26907483D01*
X170005600Y-26847873D01*
X170005599Y-26000000D01*
X170005599Y-25397682D01*
X172200000Y-25397682D01*
X172200000Y-25602317D01*
X172232009Y-25804417D01*
X172295244Y-25999031D01*
X172388141Y-26181350D01*
X172388147Y-26181359D01*
X172420523Y-26225921D01*
X172420524Y-26225922D01*
X173100000Y-25546446D01*
X173100000Y-25552661D01*
X173127259Y-25654394D01*
X173179920Y-25745606D01*
X173254394Y-25820080D01*
X173345606Y-25872741D01*
X173447339Y-25900000D01*
X173453553Y-25900000D01*
X172774076Y-26579474D01*
X172818650Y-26611859D01*
X173000968Y-26704755D01*
X173195582Y-26767990D01*
X173397683Y-26800000D01*
X173602317Y-26800000D01*
X173804417Y-26767990D01*
X173999031Y-26704755D01*
X174181349Y-26611859D01*
X174225921Y-26579474D01*
X173546447Y-25900000D01*
X173552661Y-25900000D01*
X173654394Y-25872741D01*
X173745606Y-25820080D01*
X173820080Y-25745606D01*
X173872741Y-25654394D01*
X173900000Y-25552661D01*
X173900000Y-25546448D01*
X174584483Y-26230931D01*
X174634147Y-26241364D01*
X174683905Y-26290415D01*
X174698000Y-26344634D01*
X174699099Y-26344576D01*
X174699146Y-26344571D01*
X174699146Y-26344573D01*
X174699324Y-26344564D01*
X174699501Y-26347876D01*
X174705908Y-26407483D01*
X174756202Y-26542328D01*
X174756206Y-26542335D01*
X174842452Y-26657544D01*
X174842455Y-26657547D01*
X174957664Y-26743793D01*
X174957671Y-26743797D01*
X175092517Y-26794091D01*
X175092516Y-26794091D01*
X175099444Y-26794835D01*
X175152127Y-26800500D01*
X176847872Y-26800499D01*
X176907483Y-26794091D01*
X177042331Y-26743796D01*
X177157546Y-26657546D01*
X177243796Y-26542331D01*
X177294091Y-26407483D01*
X177300500Y-26347873D01*
X177300499Y-25375466D01*
X183600000Y-25375466D01*
X183600000Y-25624533D01*
X183632508Y-25871463D01*
X183696973Y-26112049D01*
X183792283Y-26342148D01*
X183792288Y-26342159D01*
X183916813Y-26557841D01*
X183916819Y-26557849D01*
X183991400Y-26655045D01*
X184898958Y-25747487D01*
X184923978Y-25807890D01*
X184995112Y-25914351D01*
X185085649Y-26004888D01*
X185192110Y-26076022D01*
X185252511Y-26101041D01*
X184344953Y-27008598D01*
X184442150Y-27083180D01*
X184442158Y-27083186D01*
X184657840Y-27207711D01*
X184657851Y-27207716D01*
X184887950Y-27303026D01*
X185128536Y-27367491D01*
X185375466Y-27400000D01*
X185624534Y-27400000D01*
X185871463Y-27367491D01*
X186112049Y-27303026D01*
X186342148Y-27207716D01*
X186342159Y-27207711D01*
X186557855Y-27083178D01*
X186655045Y-27008600D01*
X186655045Y-27008597D01*
X185747488Y-26101041D01*
X185807890Y-26076022D01*
X185914351Y-26004888D01*
X186004888Y-25914351D01*
X186076022Y-25807890D01*
X186101041Y-25747489D01*
X187008597Y-26655045D01*
X187008600Y-26655045D01*
X187083178Y-26557855D01*
X187207711Y-26342159D01*
X187207716Y-26342148D01*
X187303026Y-26112049D01*
X187367491Y-25871463D01*
X187400000Y-25624533D01*
X187400000Y-25375466D01*
X187367491Y-25128536D01*
X187303026Y-24887950D01*
X187207716Y-24657851D01*
X187207711Y-24657840D01*
X187083186Y-24442158D01*
X187083174Y-24442140D01*
X187029600Y-24372322D01*
X187029599Y-24372321D01*
X187008598Y-24344953D01*
X186101041Y-25252510D01*
X186076022Y-25192110D01*
X186004888Y-25085649D01*
X185914351Y-24995112D01*
X185807890Y-24923978D01*
X185747487Y-24898957D01*
X186346461Y-24299984D01*
X188599500Y-24299984D01*
X188599500Y-26700015D01*
X188610000Y-26802795D01*
X188610001Y-26802797D01*
X188624938Y-26847873D01*
X188665186Y-26969335D01*
X188665187Y-26969337D01*
X188757286Y-27118651D01*
X188757289Y-27118655D01*
X188881344Y-27242710D01*
X188881348Y-27242713D01*
X189030662Y-27334812D01*
X189030664Y-27334813D01*
X189030666Y-27334814D01*
X189197203Y-27389999D01*
X189299992Y-27400500D01*
X189299997Y-27400500D01*
X191700003Y-27400500D01*
X191700008Y-27400500D01*
X191802797Y-27389999D01*
X191969334Y-27334814D01*
X192118655Y-27242711D01*
X192242711Y-27118655D01*
X192334814Y-26969334D01*
X192389999Y-26802797D01*
X192400500Y-26700008D01*
X192400500Y-24299992D01*
X192389999Y-24197203D01*
X192334814Y-24030666D01*
X192310594Y-23991400D01*
X192242713Y-23881348D01*
X192242710Y-23881344D01*
X192118655Y-23757289D01*
X192118651Y-23757286D01*
X191969337Y-23665187D01*
X191969335Y-23665186D01*
X191886065Y-23637593D01*
X191802797Y-23610001D01*
X191802795Y-23610000D01*
X191700015Y-23599500D01*
X191700008Y-23599500D01*
X189299992Y-23599500D01*
X189299984Y-23599500D01*
X189197204Y-23610000D01*
X189197203Y-23610001D01*
X189030664Y-23665186D01*
X189030662Y-23665187D01*
X188881348Y-23757286D01*
X188881344Y-23757289D01*
X188757289Y-23881344D01*
X188757286Y-23881348D01*
X188665187Y-24030662D01*
X188665186Y-24030664D01*
X188610001Y-24197203D01*
X188610000Y-24197204D01*
X188599500Y-24299984D01*
X186346461Y-24299984D01*
X186655045Y-23991400D01*
X186557849Y-23916819D01*
X186557841Y-23916813D01*
X186342159Y-23792288D01*
X186342148Y-23792283D01*
X186112049Y-23696973D01*
X185871463Y-23632508D01*
X185624534Y-23600000D01*
X185375466Y-23600000D01*
X185128536Y-23632508D01*
X184887950Y-23696973D01*
X184657851Y-23792283D01*
X184657847Y-23792285D01*
X184442143Y-23916823D01*
X184344953Y-23991399D01*
X184344953Y-23991400D01*
X185252511Y-24898958D01*
X185192110Y-24923978D01*
X185085649Y-24995112D01*
X184995112Y-25085649D01*
X184923978Y-25192110D01*
X184898958Y-25252511D01*
X183991400Y-24344953D01*
X183991399Y-24344953D01*
X183916823Y-24442143D01*
X183792285Y-24657847D01*
X183792283Y-24657851D01*
X183696973Y-24887950D01*
X183632508Y-25128536D01*
X183600000Y-25375466D01*
X177300499Y-25375466D01*
X177300499Y-24652128D01*
X177294091Y-24592517D01*
X177243796Y-24457669D01*
X177243795Y-24457668D01*
X177243793Y-24457664D01*
X177157547Y-24342455D01*
X177157544Y-24342452D01*
X177042335Y-24256206D01*
X177042328Y-24256202D01*
X176907482Y-24205908D01*
X176907483Y-24205908D01*
X176847883Y-24199501D01*
X176847881Y-24199500D01*
X176847873Y-24199500D01*
X176847864Y-24199500D01*
X175152129Y-24199500D01*
X175152123Y-24199501D01*
X175092516Y-24205908D01*
X174957671Y-24256202D01*
X174957664Y-24256206D01*
X174842455Y-24342452D01*
X174842452Y-24342455D01*
X174756206Y-24457664D01*
X174756202Y-24457671D01*
X174705908Y-24592517D01*
X174699501Y-24652116D01*
X174699501Y-24652123D01*
X174699322Y-24655452D01*
X174697741Y-24655367D01*
X174679815Y-24716419D01*
X174627011Y-24762174D01*
X174583726Y-24769824D01*
X173900000Y-25453551D01*
X173900000Y-25447339D01*
X173872741Y-25345606D01*
X173820080Y-25254394D01*
X173745606Y-25179920D01*
X173654394Y-25127259D01*
X173552661Y-25100000D01*
X173546446Y-25100000D01*
X174225922Y-24420524D01*
X174225921Y-24420523D01*
X174181359Y-24388147D01*
X174181350Y-24388141D01*
X173999031Y-24295244D01*
X173804417Y-24232009D01*
X173602317Y-24200000D01*
X173397683Y-24200000D01*
X173195582Y-24232009D01*
X173000968Y-24295244D01*
X172818644Y-24388143D01*
X172774077Y-24420523D01*
X172774077Y-24420524D01*
X173453554Y-25100000D01*
X173447339Y-25100000D01*
X173345606Y-25127259D01*
X173254394Y-25179920D01*
X173179920Y-25254394D01*
X173127259Y-25345606D01*
X173100000Y-25447339D01*
X173100000Y-25453553D01*
X172420524Y-24774077D01*
X172420523Y-24774077D01*
X172388143Y-24818644D01*
X172295244Y-25000968D01*
X172232009Y-25195582D01*
X172200000Y-25397682D01*
X170005599Y-25397682D01*
X170005599Y-25392816D01*
X170005599Y-25152129D01*
X170005598Y-25152123D01*
X170005597Y-25152116D01*
X169999191Y-25092517D01*
X169996629Y-25085649D01*
X169948897Y-24957671D01*
X169948893Y-24957664D01*
X169862647Y-24842455D01*
X169862644Y-24842452D01*
X169747435Y-24756206D01*
X169747428Y-24756202D01*
X169612582Y-24705908D01*
X169612583Y-24705908D01*
X169552983Y-24699501D01*
X169552981Y-24699500D01*
X169552973Y-24699500D01*
X169552964Y-24699500D01*
X167857229Y-24699500D01*
X167857223Y-24699501D01*
X167797616Y-24705908D01*
X167662771Y-24756202D01*
X167662764Y-24756206D01*
X167547555Y-24842452D01*
X167547552Y-24842455D01*
X167461306Y-24957664D01*
X167461302Y-24957671D01*
X167411008Y-25092517D01*
X167407136Y-25128536D01*
X167404601Y-25152123D01*
X167404422Y-25155452D01*
X167402841Y-25155367D01*
X167384915Y-25216419D01*
X167332111Y-25262174D01*
X167288826Y-25269824D01*
X166605100Y-25953551D01*
X166605100Y-25947339D01*
X166577841Y-25845606D01*
X166525180Y-25754394D01*
X166450706Y-25679920D01*
X166359494Y-25627259D01*
X166257761Y-25600000D01*
X166251546Y-25600000D01*
X166931022Y-24920524D01*
X166931021Y-24920523D01*
X166886459Y-24888147D01*
X166886450Y-24888141D01*
X166704131Y-24795244D01*
X166509517Y-24732009D01*
X166307417Y-24700000D01*
X166102783Y-24700000D01*
X165900682Y-24732009D01*
X165706068Y-24795244D01*
X165523744Y-24888143D01*
X165479177Y-24920523D01*
X165479177Y-24920524D01*
X166158654Y-25600000D01*
X166152439Y-25600000D01*
X166050706Y-25627259D01*
X165959494Y-25679920D01*
X165885020Y-25754394D01*
X165832359Y-25845606D01*
X165805100Y-25947339D01*
X165805100Y-25953553D01*
X165125624Y-25274077D01*
X165125623Y-25274077D01*
X165093243Y-25318644D01*
X165000344Y-25500968D01*
X164937109Y-25695582D01*
X164905100Y-25897682D01*
X104000500Y-25897682D01*
X104000500Y-21124500D01*
X104020185Y-21057461D01*
X104072989Y-21011706D01*
X104124500Y-21000500D01*
X201875500Y-21000500D01*
X201942539Y-21020185D01*
G37*
%TD.AperFunction*%
%TD*%
M02*
