%TF.GenerationSoftware,KiCad,Pcbnew,9.0.1*%
%TF.CreationDate,2026-04-13T18:53:09-07:00*%
%TF.ProjectId,V67_cycletron,5636375f-6379-4636-9c65-74726f6e2e6b,rev?*%
%TF.SameCoordinates,Original*%
%TF.FileFunction,Copper,L2,Bot*%
%TF.FilePolarity,Positive*%
%FSLAX46Y46*%
G04 Gerber Fmt 4.6, Leading zero omitted, Abs format (unit mm)*
G04 Created by KiCad (PCBNEW 9.0.1) date 2026-04-13 18:53:09*
%MOMM*%
%LPD*%
G01*
G04 APERTURE LIST*
G04 Aperture macros list*
%AMRoundRect*
0 Rectangle with rounded corners*
0 $1 Rounding radius*
0 $2 $3 $4 $5 $6 $7 $8 $9 X,Y pos of 4 corners*
0 Add a 4 corners polygon primitive as box body*
4,1,4,$2,$3,$4,$5,$6,$7,$8,$9,$2,$3,0*
0 Add four circle primitives for the rounded corners*
1,1,$1+$1,$2,$3*
1,1,$1+$1,$4,$5*
1,1,$1+$1,$6,$7*
1,1,$1+$1,$8,$9*
0 Add four rect primitives between the rounded corners*
20,1,$1+$1,$2,$3,$4,$5,0*
20,1,$1+$1,$4,$5,$6,$7,0*
20,1,$1+$1,$6,$7,$8,$9,0*
20,1,$1+$1,$8,$9,$2,$3,0*%
G04 Aperture macros list end*
%TA.AperFunction,HeatsinkPad*%
%ADD10O,1.000000X2.100000*%
%TD*%
%TA.AperFunction,HeatsinkPad*%
%ADD11O,1.000000X1.600000*%
%TD*%
%TA.AperFunction,HeatsinkPad*%
%ADD12C,0.600000*%
%TD*%
%TA.AperFunction,ComponentPad*%
%ADD13RoundRect,0.250001X1.149999X-1.149999X1.149999X1.149999X-1.149999X1.149999X-1.149999X-1.149999X0*%
%TD*%
%TA.AperFunction,ComponentPad*%
%ADD14C,2.800000*%
%TD*%
%TA.AperFunction,ComponentPad*%
%ADD15C,1.600000*%
%TD*%
%TA.AperFunction,ComponentPad*%
%ADD16O,1.600000X1.600000*%
%TD*%
%TA.AperFunction,ComponentPad*%
%ADD17RoundRect,0.250001X-1.149999X-1.149999X1.149999X-1.149999X1.149999X1.149999X-1.149999X1.149999X0*%
%TD*%
%TA.AperFunction,ComponentPad*%
%ADD18R,1.600000X1.600000*%
%TD*%
%TA.AperFunction,ComponentPad*%
%ADD19RoundRect,0.250001X1.149999X1.149999X-1.149999X1.149999X-1.149999X-1.149999X1.149999X-1.149999X0*%
%TD*%
%TA.AperFunction,ViaPad*%
%ADD20C,0.600000*%
%TD*%
%TA.AperFunction,ViaPad*%
%ADD21C,0.800000*%
%TD*%
%TA.AperFunction,ViaPad*%
%ADD22C,1.000000*%
%TD*%
%TA.AperFunction,Conductor*%
%ADD23C,0.500000*%
%TD*%
%TA.AperFunction,Conductor*%
%ADD24C,0.200000*%
%TD*%
%TA.AperFunction,Conductor*%
%ADD25C,0.800000*%
%TD*%
G04 APERTURE END LIST*
D10*
%TO.P,J1,S1,SHIELD*%
%TO.N,GND*%
X138320000Y-27630000D03*
D11*
X138320000Y-23450000D03*
D10*
X129680000Y-27630000D03*
D11*
X129680000Y-23450000D03*
%TD*%
D12*
%TO.P,U4,41,GND*%
%TO.N,GND*%
X143270000Y-71412000D03*
X143270000Y-70012000D03*
X142570000Y-72112000D03*
X142570000Y-70712000D03*
X142570000Y-69312000D03*
X141870000Y-71412000D03*
X141870000Y-70012000D03*
X141170000Y-72112000D03*
X141170000Y-70712000D03*
X141170000Y-69312000D03*
X140470000Y-71412000D03*
X140470000Y-70012000D03*
%TD*%
D13*
%TO.P,J3,1,Pin_1*%
%TO.N,I20*%
X106680000Y-120824000D03*
D14*
%TO.P,J3,2,Pin_2*%
%TO.N,I19*%
X106680000Y-115824000D03*
%TO.P,J3,3,Pin_3*%
%TO.N,I18*%
X106680000Y-110824000D03*
%TO.P,J3,4,Pin_4*%
%TO.N,I17*%
X106680000Y-105824000D03*
%TO.P,J3,5,Pin_5*%
%TO.N,I16*%
X106680000Y-100824000D03*
%TO.P,J3,6,Pin_6*%
%TO.N,I15*%
X106680000Y-95824000D03*
%TO.P,J3,7,Pin_7*%
%TO.N,I12*%
X106680000Y-90824000D03*
%TO.P,J3,8,Pin_8*%
%TO.N,I11*%
X106680000Y-85824000D03*
%TO.P,J3,9,Pin_9*%
%TO.N,I10*%
X106680000Y-80824000D03*
%TO.P,J3,10,Pin_10*%
%TO.N,I09*%
X106680000Y-75824000D03*
%TO.P,J3,11,Pin_11*%
%TO.N,I08*%
X106680000Y-70824000D03*
%TD*%
D15*
%TO.P,vd_r1,1*%
%TO.N,Therm-*%
X146812000Y-104648000D03*
D16*
%TO.P,vd_r1,2*%
%TO.N,GND*%
X154432000Y-104648000D03*
%TD*%
D14*
%TO.P,Rails1,6,Pin_6*%
%TO.N,+12V*%
X139620000Y-123952000D03*
%TO.P,Rails1,5,Pin_5*%
%TO.N,3V3*%
X134620000Y-123952000D03*
%TO.P,Rails1,4,Pin_4*%
%TO.N,GND*%
X129620000Y-123952000D03*
%TO.P,Rails1,3,Pin_3*%
X124620000Y-123952000D03*
%TO.P,Rails1,2,Pin_2*%
X119620000Y-123952000D03*
D17*
%TO.P,Rails1,1,Pin_1*%
X114620000Y-123952000D03*
%TD*%
D16*
%TO.P,Motor_2,16,DIR*%
%TO.N,Motor2_DIR*%
X176610000Y-46640000D03*
%TO.P,Motor_2,15,STEP*%
%TO.N,Motor2_STEP*%
X179150000Y-46640000D03*
%TO.P,Motor_2,14,~{SLP}*%
%TO.N,3V3*%
X181690000Y-46640000D03*
%TO.P,Motor_2,13,~{RST}*%
X184230000Y-46640000D03*
%TO.P,Motor_2,12,M2*%
%TO.N,Motor2_M2*%
X186770000Y-46640000D03*
%TO.P,Motor_2,11,M1*%
%TO.N,Motor2_M1*%
X189310000Y-46640000D03*
%TO.P,Motor_2,10,M0*%
%TO.N,Motor2_M0*%
X191850000Y-46640000D03*
%TO.P,Motor_2,9,~{EN}*%
%TO.N,Motor2_EN*%
X194390000Y-46640000D03*
%TO.P,Motor_2,8,VMOT*%
%TO.N,+12V*%
X194390000Y-59340000D03*
%TO.P,Motor_2,7,GND*%
%TO.N,GND*%
X191850000Y-59340000D03*
%TO.P,Motor_2,6,B2*%
%TO.N,Motor2_B2*%
X189310000Y-59340000D03*
%TO.P,Motor_2,5,B1*%
%TO.N,Motor2_B1*%
X186770000Y-59340000D03*
%TO.P,Motor_2,4,A1*%
%TO.N,Motor2_A1*%
X184230000Y-59340000D03*
%TO.P,Motor_2,3,A2*%
%TO.N,Motor2_A2*%
X181690000Y-59340000D03*
%TO.P,Motor_2,2,~{FLT}*%
%TO.N,Motor2_FLT*%
X179150000Y-59340000D03*
D18*
%TO.P,Motor_2,1,GND*%
%TO.N,GND*%
X176610000Y-59340000D03*
%TD*%
D14*
%TO.P,power5,2,Pin_2*%
%TO.N,GND*%
X156762000Y-23400500D03*
D19*
%TO.P,power5,1,Pin_1*%
%TO.N,+5V*%
X161762000Y-23400500D03*
%TD*%
D16*
%TO.P,Motor_1,16,DIR*%
%TO.N,Motor1_DIR*%
X159258000Y-73640000D03*
%TO.P,Motor_1,15,STEP*%
%TO.N,Motor1_STEP*%
X161798000Y-73640000D03*
%TO.P,Motor_1,14,~{SLP}*%
%TO.N,3V3*%
X164338000Y-73640000D03*
%TO.P,Motor_1,13,~{RST}*%
X166878000Y-73640000D03*
%TO.P,Motor_1,12,M2*%
%TO.N,Motor1_M2*%
X169418000Y-73640000D03*
%TO.P,Motor_1,11,M1*%
%TO.N,Motor1_M1*%
X171958000Y-73640000D03*
%TO.P,Motor_1,10,M0*%
%TO.N,Motor1_M0*%
X174498000Y-73640000D03*
%TO.P,Motor_1,9,~{EN}*%
%TO.N,Motor1_EN*%
X177038000Y-73640000D03*
%TO.P,Motor_1,8,VMOT*%
%TO.N,+12V*%
X177038000Y-86340000D03*
%TO.P,Motor_1,7,GND*%
%TO.N,GND*%
X174498000Y-86340000D03*
%TO.P,Motor_1,6,B2*%
%TO.N,Motor1_B2*%
X171958000Y-86340000D03*
%TO.P,Motor_1,5,B1*%
%TO.N,Motor1_B1*%
X169418000Y-86340000D03*
%TO.P,Motor_1,4,A1*%
%TO.N,Motor1_A1*%
X166878000Y-86340000D03*
%TO.P,Motor_1,3,A2*%
%TO.N,Motor1_A2*%
X164338000Y-86340000D03*
%TO.P,Motor_1,2,~{FLT}*%
%TO.N,Motor1_FLT*%
X161798000Y-86340000D03*
D18*
%TO.P,Motor_1,1,GND*%
%TO.N,GND*%
X159258000Y-86340000D03*
%TD*%
D14*
%TO.P,power3,2,Pin_2*%
%TO.N,GND*%
X144062000Y-23400500D03*
D19*
%TO.P,power3,1,Pin_1*%
%TO.N,3V3*%
X149062000Y-23400500D03*
%TD*%
D20*
%TO.N,GND*%
X181864000Y-40640000D03*
X180816000Y-35560000D03*
X110717000Y-51292001D03*
D21*
X184912000Y-81540000D03*
D20*
X170622000Y-106329000D03*
X130750000Y-28545000D03*
D21*
X175756000Y-25500000D03*
D20*
X131000000Y-33500000D03*
X127000000Y-62484000D03*
X123952000Y-23833000D03*
X134606000Y-63084000D03*
X174540000Y-35780000D03*
X172996000Y-41148000D03*
X144272000Y-101600000D03*
X181864000Y-106758500D03*
X130048000Y-62484000D03*
X138500000Y-35000000D03*
X142488000Y-35052000D03*
X161504000Y-36824000D03*
D22*
X188489998Y-27831999D03*
D20*
X110717000Y-28940001D03*
X151850000Y-62880000D03*
X137250000Y-28545000D03*
D21*
X194044000Y-38608000D03*
D20*
X170964000Y-26000000D03*
X110717000Y-40116001D03*
X117856000Y-23876000D03*
X110717000Y-61960001D03*
X195006000Y-106329000D03*
X123952000Y-62484000D03*
%TO.N,+5V*%
X161544000Y-32264000D03*
X161544000Y-26162000D03*
X148088000Y-35052000D03*
%TO.N,D-*%
X133000000Y-78000000D03*
X120500000Y-40000000D03*
%TO.N,D+*%
X120500000Y-39000000D03*
X133000000Y-79500000D03*
%TO.N,BOOT*%
X118500000Y-61000000D03*
X152000000Y-79500000D03*
D21*
%TO.N,+12V*%
X142200000Y-126532000D03*
X166116000Y-103124000D03*
X164084000Y-120396000D03*
X168148000Y-93472000D03*
D20*
%TO.N,3V3*%
X149860000Y-73660000D03*
X164592000Y-72136000D03*
X153000000Y-91500000D03*
%TD*%
D23*
%TO.N,+5V*%
X161544000Y-32264000D02*
X161544000Y-26162000D01*
X158756000Y-35052000D02*
X161544000Y-32264000D01*
X148088000Y-35052000D02*
X158756000Y-35052000D01*
D24*
%TO.N,D-*%
X117725000Y-64406802D02*
X131593198Y-78275000D01*
X118593197Y-39725001D02*
X117725000Y-40593198D01*
X120500000Y-40000000D02*
X120225001Y-39725001D01*
X120225001Y-39725001D02*
X118593197Y-39725001D01*
X117725000Y-40593198D02*
X117725000Y-64406802D01*
X132000000Y-78275000D02*
X132725000Y-78275000D01*
X131593198Y-78275000D02*
X132000000Y-78275000D01*
X132725000Y-78275000D02*
X133000000Y-78000000D01*
%TO.N,D+*%
X120225001Y-39274999D02*
X118406803Y-39274999D01*
X117275000Y-40406802D02*
X117275000Y-64593198D01*
X117275000Y-64593198D02*
X131406802Y-78725000D01*
X131406802Y-78725000D02*
X132000000Y-78725000D01*
X120500000Y-39000000D02*
X120225001Y-39274999D01*
X132225000Y-78725000D02*
X133000000Y-79500000D01*
X132000000Y-78725000D02*
X132225000Y-78725000D01*
X118406803Y-39274999D02*
X117275000Y-40406802D01*
%TO.N,BOOT*%
X150500000Y-78000000D02*
X152000000Y-79500000D01*
X134500000Y-78000000D02*
X150500000Y-78000000D01*
X119174265Y-61674265D02*
X119174265Y-62674265D01*
X119174265Y-62674265D02*
X134500000Y-78000000D01*
X118500000Y-61000000D02*
X119174265Y-61674265D01*
D25*
%TO.N,+12V*%
X157948000Y-126532000D02*
X142200000Y-126532000D01*
X166116000Y-95504000D02*
X166116000Y-103124000D01*
X164084000Y-120396000D02*
X157948000Y-126532000D01*
X168148000Y-93472000D02*
X166116000Y-95504000D01*
D24*
%TO.N,3V3*%
X155930000Y-72142000D02*
X154432000Y-73640000D01*
X164592000Y-72136000D02*
X162846000Y-72136000D01*
X153000000Y-77500000D02*
X153000000Y-91500000D01*
X162840000Y-72142000D02*
X155930000Y-72142000D01*
X162846000Y-72136000D02*
X162840000Y-72142000D01*
X154432000Y-73640000D02*
X149880000Y-73640000D01*
X154432000Y-76068000D02*
X153000000Y-77500000D01*
X154432000Y-73640000D02*
X154432000Y-76068000D01*
X149880000Y-73640000D02*
X149860000Y-73660000D01*
%TD*%
%TA.AperFunction,Conductor*%
%TO.N,GND*%
G36*
X200235698Y-19301033D02*
G01*
X200251782Y-19300574D01*
X200268532Y-19310674D01*
X200287298Y-19316185D01*
X200297833Y-19328343D01*
X200311615Y-19336654D01*
X200320246Y-19354209D01*
X200333053Y-19368989D01*
X200335342Y-19384913D01*
X200342443Y-19399355D01*
X200340213Y-19418786D01*
X200342997Y-19438147D01*
X200336312Y-19452784D01*
X200334478Y-19468769D01*
X200322098Y-19483908D01*
X200313972Y-19501703D01*
X200299941Y-19511005D01*
X200290250Y-19522858D01*
X200258578Y-19538430D01*
X200141588Y-19576443D01*
X200141585Y-19576444D01*
X199952179Y-19672951D01*
X199780213Y-19797890D01*
X199629890Y-19948213D01*
X199504951Y-20120179D01*
X199408444Y-20309585D01*
X199342753Y-20511760D01*
X199309500Y-20721713D01*
X199309500Y-20934287D01*
X199342754Y-21144243D01*
X199370430Y-21229422D01*
X199408444Y-21346414D01*
X199504951Y-21535820D01*
X199629890Y-21707786D01*
X199780213Y-21858109D01*
X199952179Y-21983048D01*
X199952181Y-21983049D01*
X199952184Y-21983051D01*
X200141588Y-22079557D01*
X200343757Y-22145246D01*
X200553713Y-22178500D01*
X200553714Y-22178500D01*
X200766286Y-22178500D01*
X200766287Y-22178500D01*
X200976243Y-22145246D01*
X201178412Y-22079557D01*
X201367816Y-21983051D01*
X201439236Y-21931162D01*
X201539786Y-21858109D01*
X201539788Y-21858106D01*
X201539792Y-21858104D01*
X201690104Y-21707792D01*
X201690106Y-21707788D01*
X201690109Y-21707786D01*
X201815048Y-21535820D01*
X201815047Y-21535820D01*
X201815051Y-21535816D01*
X201911557Y-21346412D01*
X201949570Y-21229420D01*
X201989006Y-21171746D01*
X202053365Y-21144548D01*
X202122211Y-21156463D01*
X202173687Y-21203707D01*
X202191500Y-21267740D01*
X202191500Y-126052259D01*
X202171815Y-126119298D01*
X202119011Y-126165053D01*
X202049853Y-126174997D01*
X201986297Y-126145972D01*
X201949569Y-126090577D01*
X201911557Y-125973588D01*
X201815051Y-125784184D01*
X201815049Y-125784181D01*
X201815048Y-125784179D01*
X201690109Y-125612213D01*
X201539786Y-125461890D01*
X201367820Y-125336951D01*
X201178414Y-125240444D01*
X201178413Y-125240443D01*
X201178412Y-125240443D01*
X200976243Y-125174754D01*
X200976241Y-125174753D01*
X200976240Y-125174753D01*
X200814957Y-125149208D01*
X200766287Y-125141500D01*
X200553713Y-125141500D01*
X200505042Y-125149208D01*
X200343760Y-125174753D01*
X200141585Y-125240444D01*
X199952179Y-125336951D01*
X199780213Y-125461890D01*
X199629890Y-125612213D01*
X199504951Y-125784179D01*
X199408444Y-125973585D01*
X199342753Y-126175760D01*
X199309501Y-126385706D01*
X199309500Y-126385713D01*
X199309500Y-126598287D01*
X199313049Y-126620695D01*
X199340603Y-126794667D01*
X199342754Y-126808243D01*
X199370430Y-126893422D01*
X199408444Y-127010414D01*
X199504951Y-127199820D01*
X199629890Y-127371786D01*
X199780213Y-127522109D01*
X199952179Y-127647048D01*
X199952181Y-127647049D01*
X199952184Y-127647051D01*
X200141588Y-127743557D01*
X200343757Y-127809246D01*
X200553713Y-127842500D01*
X200553714Y-127842500D01*
X200766286Y-127842500D01*
X200766287Y-127842500D01*
X200976243Y-127809246D01*
X201178412Y-127743557D01*
X201367816Y-127647051D01*
X201389789Y-127631086D01*
X201539786Y-127522109D01*
X201539788Y-127522106D01*
X201539792Y-127522104D01*
X201690104Y-127371792D01*
X201690106Y-127371788D01*
X201690109Y-127371786D01*
X201815048Y-127199820D01*
X201815047Y-127199820D01*
X201815051Y-127199816D01*
X201911557Y-127010412D01*
X201949570Y-126893420D01*
X201989006Y-126835746D01*
X202053365Y-126808548D01*
X202122211Y-126820463D01*
X202173687Y-126867707D01*
X202191500Y-126931740D01*
X202191500Y-128315500D01*
X202171815Y-128382539D01*
X202119011Y-128428294D01*
X202067500Y-128439500D01*
X101208500Y-128439500D01*
X101141461Y-128419815D01*
X101095706Y-128367011D01*
X101084500Y-128315500D01*
X101084500Y-126385713D01*
X101773500Y-126385713D01*
X101773500Y-126598287D01*
X101777049Y-126620695D01*
X101804603Y-126794667D01*
X101806754Y-126808243D01*
X101834430Y-126893422D01*
X101872444Y-127010414D01*
X101968951Y-127199820D01*
X102093890Y-127371786D01*
X102244213Y-127522109D01*
X102416179Y-127647048D01*
X102416181Y-127647049D01*
X102416184Y-127647051D01*
X102605588Y-127743557D01*
X102807757Y-127809246D01*
X103017713Y-127842500D01*
X103017714Y-127842500D01*
X103230286Y-127842500D01*
X103230287Y-127842500D01*
X103440243Y-127809246D01*
X103642412Y-127743557D01*
X103831816Y-127647051D01*
X103853789Y-127631086D01*
X104003786Y-127522109D01*
X104003788Y-127522106D01*
X104003792Y-127522104D01*
X104154104Y-127371792D01*
X104154106Y-127371788D01*
X104154109Y-127371786D01*
X104279048Y-127199820D01*
X104279047Y-127199820D01*
X104279051Y-127199816D01*
X104375557Y-127010412D01*
X104441246Y-126808243D01*
X104474500Y-126598287D01*
X104474500Y-126443304D01*
X141299500Y-126443304D01*
X141299500Y-126620695D01*
X141334103Y-126794658D01*
X141334106Y-126794667D01*
X141401983Y-126958540D01*
X141401990Y-126958553D01*
X141500535Y-127106034D01*
X141500538Y-127106038D01*
X141625961Y-127231461D01*
X141625965Y-127231464D01*
X141773446Y-127330009D01*
X141773459Y-127330016D01*
X141896363Y-127380923D01*
X141937334Y-127397894D01*
X141937336Y-127397894D01*
X141937341Y-127397896D01*
X142111304Y-127432499D01*
X142111307Y-127432500D01*
X142111309Y-127432500D01*
X158036693Y-127432500D01*
X158036694Y-127432499D01*
X158210666Y-127397895D01*
X158292606Y-127363953D01*
X158374547Y-127330013D01*
X158488820Y-127253658D01*
X158522036Y-127231464D01*
X164783463Y-120970036D01*
X164783464Y-120970035D01*
X164882013Y-120822547D01*
X164949894Y-120658666D01*
X164984500Y-120484691D01*
X164984500Y-120307309D01*
X164984500Y-120307306D01*
X164984499Y-120307304D01*
X164949896Y-120133341D01*
X164949893Y-120133332D01*
X164882016Y-119969459D01*
X164882009Y-119969446D01*
X164783464Y-119821965D01*
X164783461Y-119821961D01*
X164658037Y-119696537D01*
X164658034Y-119696535D01*
X164510553Y-119597990D01*
X164510540Y-119597983D01*
X164346667Y-119530106D01*
X164346658Y-119530103D01*
X164172694Y-119495500D01*
X164172691Y-119495500D01*
X163995309Y-119495500D01*
X163995306Y-119495500D01*
X163821341Y-119530103D01*
X163821332Y-119530106D01*
X163657459Y-119597983D01*
X163657446Y-119597990D01*
X163509966Y-119696534D01*
X163509964Y-119696537D01*
X157611319Y-125595181D01*
X157549996Y-125628666D01*
X157523638Y-125631500D01*
X142111306Y-125631500D01*
X141937341Y-125666103D01*
X141937332Y-125666106D01*
X141773459Y-125733983D01*
X141773446Y-125733990D01*
X141625965Y-125832535D01*
X141625961Y-125832538D01*
X141500538Y-125957961D01*
X141500535Y-125957965D01*
X141401990Y-126105446D01*
X141401983Y-126105459D01*
X141334106Y-126269332D01*
X141334103Y-126269341D01*
X141299500Y-126443304D01*
X104474500Y-126443304D01*
X104474500Y-126385713D01*
X104441246Y-126175757D01*
X104375557Y-125973588D01*
X104279051Y-125784184D01*
X104279049Y-125784181D01*
X104279048Y-125784179D01*
X104154109Y-125612213D01*
X104003786Y-125461890D01*
X103831820Y-125336951D01*
X103642414Y-125240444D01*
X103642413Y-125240443D01*
X103642412Y-125240443D01*
X103440243Y-125174754D01*
X103440241Y-125174753D01*
X103440240Y-125174753D01*
X103278957Y-125149208D01*
X103230287Y-125141500D01*
X103017713Y-125141500D01*
X102969042Y-125149208D01*
X102807760Y-125174753D01*
X102605585Y-125240444D01*
X102416179Y-125336951D01*
X102244213Y-125461890D01*
X102093890Y-125612213D01*
X101968951Y-125784179D01*
X101872444Y-125973585D01*
X101806753Y-126175760D01*
X101773501Y-126385706D01*
X101773500Y-126385713D01*
X101084500Y-126385713D01*
X101084500Y-122752014D01*
X112720000Y-122752014D01*
X112720000Y-123702000D01*
X114019999Y-123702000D01*
X113994979Y-123762402D01*
X113970000Y-123887981D01*
X113970000Y-124016019D01*
X113994979Y-124141598D01*
X114019999Y-124202000D01*
X112720000Y-124202000D01*
X112720000Y-125151985D01*
X112730493Y-125254689D01*
X112730494Y-125254696D01*
X112785641Y-125421118D01*
X112785643Y-125421123D01*
X112877684Y-125570344D01*
X113001655Y-125694315D01*
X113150876Y-125786356D01*
X113150881Y-125786358D01*
X113317303Y-125841505D01*
X113317310Y-125841506D01*
X113420014Y-125851999D01*
X113420027Y-125852000D01*
X114370000Y-125852000D01*
X114370000Y-124552001D01*
X114430402Y-124577021D01*
X114555981Y-124602000D01*
X114684019Y-124602000D01*
X114809598Y-124577021D01*
X114870000Y-124552001D01*
X114870000Y-125852000D01*
X115819973Y-125852000D01*
X115819985Y-125851999D01*
X115922689Y-125841506D01*
X115922696Y-125841505D01*
X116089118Y-125786358D01*
X116089123Y-125786356D01*
X116238344Y-125694315D01*
X116362315Y-125570344D01*
X116454356Y-125421123D01*
X116454357Y-125421120D01*
X116470091Y-125373641D01*
X116470092Y-125373639D01*
X116509504Y-125254699D01*
X116509506Y-125254689D01*
X116519999Y-125151985D01*
X116520000Y-125151972D01*
X116520000Y-124202000D01*
X115220001Y-124202000D01*
X115245021Y-124141598D01*
X115270000Y-124016019D01*
X115270000Y-123887981D01*
X115257963Y-123827466D01*
X117720000Y-123827466D01*
X117720000Y-124076533D01*
X117752508Y-124323463D01*
X117816973Y-124564049D01*
X117912283Y-124794148D01*
X117912288Y-124794159D01*
X118036813Y-125009841D01*
X118036819Y-125009849D01*
X118111400Y-125107045D01*
X119018958Y-124199487D01*
X119043978Y-124259890D01*
X119115112Y-124366351D01*
X119205649Y-124456888D01*
X119312110Y-124528022D01*
X119372511Y-124553041D01*
X118464953Y-125460598D01*
X118562150Y-125535180D01*
X118562158Y-125535186D01*
X118777840Y-125659711D01*
X118777851Y-125659716D01*
X119007950Y-125755026D01*
X119248536Y-125819491D01*
X119495466Y-125852000D01*
X119744534Y-125852000D01*
X119991463Y-125819491D01*
X120232049Y-125755026D01*
X120462148Y-125659716D01*
X120462159Y-125659711D01*
X120677855Y-125535178D01*
X120775045Y-125460600D01*
X120775045Y-125460597D01*
X119867488Y-124553041D01*
X119927890Y-124528022D01*
X120034351Y-124456888D01*
X120124888Y-124366351D01*
X120196022Y-124259890D01*
X120221041Y-124199489D01*
X121128597Y-125107045D01*
X121128600Y-125107045D01*
X121203178Y-125009855D01*
X121327711Y-124794159D01*
X121327716Y-124794148D01*
X121423026Y-124564049D01*
X121487491Y-124323463D01*
X121520000Y-124076533D01*
X121520000Y-123827466D01*
X122720000Y-123827466D01*
X122720000Y-124076533D01*
X122752508Y-124323463D01*
X122816973Y-124564049D01*
X122912283Y-124794148D01*
X122912288Y-124794159D01*
X123036813Y-125009841D01*
X123036819Y-125009849D01*
X123111400Y-125107045D01*
X124018958Y-124199487D01*
X124043978Y-124259890D01*
X124115112Y-124366351D01*
X124205649Y-124456888D01*
X124312110Y-124528022D01*
X124372511Y-124553041D01*
X123464953Y-125460598D01*
X123562150Y-125535180D01*
X123562158Y-125535186D01*
X123777840Y-125659711D01*
X123777851Y-125659716D01*
X124007950Y-125755026D01*
X124248536Y-125819491D01*
X124495466Y-125852000D01*
X124744534Y-125852000D01*
X124991463Y-125819491D01*
X125232049Y-125755026D01*
X125462148Y-125659716D01*
X125462159Y-125659711D01*
X125677855Y-125535178D01*
X125775045Y-125460600D01*
X125775045Y-125460597D01*
X124867488Y-124553041D01*
X124927890Y-124528022D01*
X125034351Y-124456888D01*
X125124888Y-124366351D01*
X125196022Y-124259890D01*
X125221041Y-124199489D01*
X126128597Y-125107045D01*
X126128600Y-125107045D01*
X126203178Y-125009855D01*
X126327711Y-124794159D01*
X126327716Y-124794148D01*
X126423026Y-124564049D01*
X126487491Y-124323463D01*
X126520000Y-124076533D01*
X126520000Y-123827466D01*
X127720000Y-123827466D01*
X127720000Y-124076533D01*
X127752508Y-124323463D01*
X127816973Y-124564049D01*
X127912283Y-124794148D01*
X127912288Y-124794159D01*
X128036813Y-125009841D01*
X128036819Y-125009849D01*
X128111400Y-125107045D01*
X129018958Y-124199487D01*
X129043978Y-124259890D01*
X129115112Y-124366351D01*
X129205649Y-124456888D01*
X129312110Y-124528022D01*
X129372511Y-124553041D01*
X128464953Y-125460598D01*
X128562150Y-125535180D01*
X128562158Y-125535186D01*
X128777840Y-125659711D01*
X128777851Y-125659716D01*
X129007950Y-125755026D01*
X129248536Y-125819491D01*
X129495466Y-125852000D01*
X129744534Y-125852000D01*
X129991463Y-125819491D01*
X130232049Y-125755026D01*
X130462148Y-125659716D01*
X130462159Y-125659711D01*
X130677855Y-125535178D01*
X130775045Y-125460600D01*
X130775045Y-125460597D01*
X129867488Y-124553041D01*
X129927890Y-124528022D01*
X130034351Y-124456888D01*
X130124888Y-124366351D01*
X130196022Y-124259890D01*
X130221041Y-124199489D01*
X131128597Y-125107045D01*
X131128600Y-125107045D01*
X131203178Y-125009855D01*
X131327711Y-124794159D01*
X131327716Y-124794148D01*
X131423026Y-124564049D01*
X131487491Y-124323463D01*
X131520000Y-124076533D01*
X131520000Y-123827466D01*
X131519997Y-123827441D01*
X132719500Y-123827441D01*
X132719500Y-124076558D01*
X132719501Y-124076575D01*
X132752017Y-124323561D01*
X132816498Y-124564207D01*
X132911830Y-124794361D01*
X132911837Y-124794376D01*
X133036400Y-125010126D01*
X133188060Y-125207774D01*
X133188066Y-125207781D01*
X133364218Y-125383933D01*
X133364225Y-125383939D01*
X133561873Y-125535599D01*
X133777623Y-125660162D01*
X133777638Y-125660169D01*
X133860075Y-125694315D01*
X134007793Y-125755502D01*
X134248435Y-125819982D01*
X134495435Y-125852500D01*
X134495442Y-125852500D01*
X134744558Y-125852500D01*
X134744565Y-125852500D01*
X134991565Y-125819982D01*
X135232207Y-125755502D01*
X135462373Y-125660164D01*
X135678127Y-125535599D01*
X135875776Y-125383938D01*
X136051938Y-125207776D01*
X136203599Y-125010127D01*
X136328164Y-124794373D01*
X136423502Y-124564207D01*
X136487982Y-124323565D01*
X136520500Y-124076565D01*
X136520500Y-123827441D01*
X137719500Y-123827441D01*
X137719500Y-124076558D01*
X137719501Y-124076575D01*
X137752017Y-124323561D01*
X137816498Y-124564207D01*
X137911830Y-124794361D01*
X137911837Y-124794376D01*
X138036400Y-125010126D01*
X138188060Y-125207774D01*
X138188066Y-125207781D01*
X138364218Y-125383933D01*
X138364225Y-125383939D01*
X138561873Y-125535599D01*
X138777623Y-125660162D01*
X138777638Y-125660169D01*
X138860075Y-125694315D01*
X139007793Y-125755502D01*
X139248435Y-125819982D01*
X139495435Y-125852500D01*
X139495442Y-125852500D01*
X139744558Y-125852500D01*
X139744565Y-125852500D01*
X139991565Y-125819982D01*
X140232207Y-125755502D01*
X140462373Y-125660164D01*
X140678127Y-125535599D01*
X140875776Y-125383938D01*
X141051938Y-125207776D01*
X141203599Y-125010127D01*
X141328164Y-124794373D01*
X141423502Y-124564207D01*
X141487982Y-124323565D01*
X141520500Y-124076565D01*
X141520500Y-123827435D01*
X141487982Y-123580435D01*
X141423502Y-123339793D01*
X141328257Y-123109851D01*
X141328169Y-123109638D01*
X141328162Y-123109623D01*
X141203599Y-122893873D01*
X141051939Y-122696225D01*
X141051933Y-122696218D01*
X140875781Y-122520066D01*
X140875774Y-122520060D01*
X140678126Y-122368400D01*
X140462376Y-122243837D01*
X140462361Y-122243830D01*
X140232207Y-122148498D01*
X140151214Y-122126796D01*
X139991565Y-122084018D01*
X139991564Y-122084017D01*
X139991561Y-122084017D01*
X139744575Y-122051501D01*
X139744570Y-122051500D01*
X139744565Y-122051500D01*
X139495435Y-122051500D01*
X139495429Y-122051500D01*
X139495424Y-122051501D01*
X139248438Y-122084017D01*
X139007792Y-122148498D01*
X138777638Y-122243830D01*
X138777623Y-122243837D01*
X138561873Y-122368400D01*
X138364225Y-122520060D01*
X138364218Y-122520066D01*
X138188066Y-122696218D01*
X138188060Y-122696225D01*
X138036400Y-122893873D01*
X137911837Y-123109623D01*
X137911830Y-123109638D01*
X137816498Y-123339792D01*
X137752017Y-123580438D01*
X137719501Y-123827424D01*
X137719500Y-123827441D01*
X136520500Y-123827441D01*
X136520500Y-123827435D01*
X136487982Y-123580435D01*
X136423502Y-123339793D01*
X136328257Y-123109851D01*
X136328169Y-123109638D01*
X136328162Y-123109623D01*
X136203599Y-122893873D01*
X136051939Y-122696225D01*
X136051933Y-122696218D01*
X135875781Y-122520066D01*
X135875774Y-122520060D01*
X135678126Y-122368400D01*
X135462376Y-122243837D01*
X135462361Y-122243830D01*
X135232207Y-122148498D01*
X135151214Y-122126796D01*
X134991565Y-122084018D01*
X134991564Y-122084017D01*
X134991561Y-122084017D01*
X134744575Y-122051501D01*
X134744570Y-122051500D01*
X134744565Y-122051500D01*
X134495435Y-122051500D01*
X134495429Y-122051500D01*
X134495424Y-122051501D01*
X134248438Y-122084017D01*
X134007792Y-122148498D01*
X133777638Y-122243830D01*
X133777623Y-122243837D01*
X133561873Y-122368400D01*
X133364225Y-122520060D01*
X133364218Y-122520066D01*
X133188066Y-122696218D01*
X133188060Y-122696225D01*
X133036400Y-122893873D01*
X132911837Y-123109623D01*
X132911830Y-123109638D01*
X132816498Y-123339792D01*
X132752017Y-123580438D01*
X132719501Y-123827424D01*
X132719500Y-123827441D01*
X131519997Y-123827441D01*
X131487491Y-123580536D01*
X131423026Y-123339950D01*
X131327716Y-123109851D01*
X131327711Y-123109840D01*
X131203186Y-122894158D01*
X131203180Y-122894150D01*
X131128598Y-122796953D01*
X130221041Y-123704510D01*
X130196022Y-123644110D01*
X130124888Y-123537649D01*
X130034351Y-123447112D01*
X129927890Y-123375978D01*
X129867487Y-123350957D01*
X130775045Y-122443400D01*
X130677849Y-122368819D01*
X130677841Y-122368813D01*
X130462159Y-122244288D01*
X130462148Y-122244283D01*
X130232049Y-122148973D01*
X129991463Y-122084508D01*
X129744534Y-122052000D01*
X129495466Y-122052000D01*
X129248536Y-122084508D01*
X129007950Y-122148973D01*
X128777851Y-122244283D01*
X128777847Y-122244285D01*
X128562143Y-122368823D01*
X128464953Y-122443399D01*
X128464953Y-122443400D01*
X129372511Y-123350958D01*
X129312110Y-123375978D01*
X129205649Y-123447112D01*
X129115112Y-123537649D01*
X129043978Y-123644110D01*
X129018958Y-123704511D01*
X128111400Y-122796953D01*
X128111399Y-122796953D01*
X128036823Y-122894143D01*
X127912285Y-123109847D01*
X127912283Y-123109851D01*
X127816973Y-123339950D01*
X127752508Y-123580536D01*
X127720000Y-123827466D01*
X126520000Y-123827466D01*
X126487491Y-123580536D01*
X126423026Y-123339950D01*
X126327716Y-123109851D01*
X126327711Y-123109840D01*
X126203186Y-122894158D01*
X126203180Y-122894150D01*
X126128598Y-122796953D01*
X125221041Y-123704510D01*
X125196022Y-123644110D01*
X125124888Y-123537649D01*
X125034351Y-123447112D01*
X124927890Y-123375978D01*
X124867487Y-123350957D01*
X125775045Y-122443400D01*
X125677849Y-122368819D01*
X125677841Y-122368813D01*
X125462159Y-122244288D01*
X125462148Y-122244283D01*
X125232049Y-122148973D01*
X124991463Y-122084508D01*
X124744534Y-122052000D01*
X124495466Y-122052000D01*
X124248536Y-122084508D01*
X124007950Y-122148973D01*
X123777851Y-122244283D01*
X123777847Y-122244285D01*
X123562143Y-122368823D01*
X123464953Y-122443399D01*
X123464953Y-122443400D01*
X124372511Y-123350958D01*
X124312110Y-123375978D01*
X124205649Y-123447112D01*
X124115112Y-123537649D01*
X124043978Y-123644110D01*
X124018958Y-123704511D01*
X123111400Y-122796953D01*
X123111399Y-122796953D01*
X123036823Y-122894143D01*
X122912285Y-123109847D01*
X122912283Y-123109851D01*
X122816973Y-123339950D01*
X122752508Y-123580536D01*
X122720000Y-123827466D01*
X121520000Y-123827466D01*
X121487491Y-123580536D01*
X121423026Y-123339950D01*
X121327716Y-123109851D01*
X121327711Y-123109840D01*
X121203186Y-122894158D01*
X121203180Y-122894150D01*
X121128598Y-122796953D01*
X120221041Y-123704510D01*
X120196022Y-123644110D01*
X120124888Y-123537649D01*
X120034351Y-123447112D01*
X119927890Y-123375978D01*
X119867487Y-123350957D01*
X120775045Y-122443400D01*
X120677849Y-122368819D01*
X120677841Y-122368813D01*
X120462159Y-122244288D01*
X120462148Y-122244283D01*
X120232049Y-122148973D01*
X119991463Y-122084508D01*
X119744534Y-122052000D01*
X119495466Y-122052000D01*
X119248536Y-122084508D01*
X119007950Y-122148973D01*
X118777851Y-122244283D01*
X118777847Y-122244285D01*
X118562143Y-122368823D01*
X118464953Y-122443399D01*
X118464953Y-122443400D01*
X119372511Y-123350958D01*
X119312110Y-123375978D01*
X119205649Y-123447112D01*
X119115112Y-123537649D01*
X119043978Y-123644110D01*
X119018958Y-123704511D01*
X118111400Y-122796953D01*
X118111399Y-122796953D01*
X118036823Y-122894143D01*
X117912285Y-123109847D01*
X117912283Y-123109851D01*
X117816973Y-123339950D01*
X117752508Y-123580536D01*
X117720000Y-123827466D01*
X115257963Y-123827466D01*
X115245021Y-123762402D01*
X115220001Y-123702000D01*
X116520000Y-123702000D01*
X116520000Y-122752027D01*
X116519999Y-122752014D01*
X116509506Y-122649310D01*
X116509505Y-122649303D01*
X116470090Y-122530357D01*
X116454358Y-122482881D01*
X116454356Y-122482876D01*
X116362315Y-122333655D01*
X116238344Y-122209684D01*
X116089123Y-122117643D01*
X116089118Y-122117641D01*
X115922696Y-122062494D01*
X115922689Y-122062493D01*
X115819985Y-122052000D01*
X114870000Y-122052000D01*
X114870000Y-123351998D01*
X114809598Y-123326979D01*
X114684019Y-123302000D01*
X114555981Y-123302000D01*
X114430402Y-123326979D01*
X114370000Y-123351998D01*
X114370000Y-122052000D01*
X113420014Y-122052000D01*
X113317310Y-122062493D01*
X113317303Y-122062494D01*
X113150881Y-122117641D01*
X113150876Y-122117643D01*
X113001655Y-122209684D01*
X112877684Y-122333655D01*
X112785643Y-122482876D01*
X112785641Y-122482881D01*
X112730494Y-122649303D01*
X112730493Y-122649310D01*
X112720000Y-122752014D01*
X101084500Y-122752014D01*
X101084500Y-119623984D01*
X104779500Y-119623984D01*
X104779500Y-122024015D01*
X104790000Y-122126795D01*
X104790001Y-122126797D01*
X104817467Y-122209684D01*
X104845186Y-122293335D01*
X104845187Y-122293337D01*
X104937286Y-122442651D01*
X104937289Y-122442655D01*
X105061344Y-122566710D01*
X105061348Y-122566713D01*
X105210662Y-122658812D01*
X105210664Y-122658813D01*
X105210666Y-122658814D01*
X105377203Y-122713999D01*
X105479992Y-122724500D01*
X105479997Y-122724500D01*
X107880003Y-122724500D01*
X107880008Y-122724500D01*
X107982797Y-122713999D01*
X108149334Y-122658814D01*
X108154821Y-122655429D01*
X108174443Y-122643327D01*
X108240750Y-122602427D01*
X108298655Y-122566711D01*
X108422711Y-122442655D01*
X108514814Y-122293334D01*
X108569999Y-122126797D01*
X108580500Y-122024008D01*
X108580500Y-119623992D01*
X108569999Y-119521203D01*
X108514814Y-119354666D01*
X108422711Y-119205345D01*
X108298655Y-119081289D01*
X108298651Y-119081286D01*
X108149337Y-118989187D01*
X108149335Y-118989186D01*
X108066065Y-118961593D01*
X107982797Y-118934001D01*
X107982795Y-118934000D01*
X107880015Y-118923500D01*
X107880008Y-118923500D01*
X105479992Y-118923500D01*
X105479984Y-118923500D01*
X105377204Y-118934000D01*
X105377203Y-118934001D01*
X105210664Y-118989186D01*
X105210662Y-118989187D01*
X105061348Y-119081286D01*
X105061344Y-119081289D01*
X104937289Y-119205344D01*
X104937286Y-119205348D01*
X104845187Y-119354662D01*
X104845186Y-119354664D01*
X104790001Y-119521203D01*
X104790000Y-119521204D01*
X104779500Y-119623984D01*
X101084500Y-119623984D01*
X101084500Y-115699441D01*
X104779500Y-115699441D01*
X104779500Y-115948558D01*
X104779501Y-115948575D01*
X104812017Y-116195561D01*
X104876498Y-116436207D01*
X104971830Y-116666361D01*
X104971837Y-116666376D01*
X105096400Y-116882126D01*
X105248060Y-117079774D01*
X105248066Y-117079781D01*
X105424218Y-117255933D01*
X105424225Y-117255939D01*
X105621873Y-117407599D01*
X105837623Y-117532162D01*
X105837638Y-117532169D01*
X105936825Y-117573253D01*
X106067793Y-117627502D01*
X106308435Y-117691982D01*
X106555435Y-117724500D01*
X106555442Y-117724500D01*
X106804558Y-117724500D01*
X106804565Y-117724500D01*
X107051565Y-117691982D01*
X107292207Y-117627502D01*
X107522373Y-117532164D01*
X107738127Y-117407599D01*
X107935776Y-117255938D01*
X108111938Y-117079776D01*
X108263599Y-116882127D01*
X108388164Y-116666373D01*
X108483502Y-116436207D01*
X108547982Y-116195565D01*
X108580500Y-115948565D01*
X108580500Y-115699435D01*
X108547982Y-115452435D01*
X108483502Y-115211793D01*
X108388164Y-114981627D01*
X108263599Y-114765873D01*
X108111938Y-114568224D01*
X108111933Y-114568218D01*
X107935781Y-114392066D01*
X107935774Y-114392060D01*
X107738126Y-114240400D01*
X107522376Y-114115837D01*
X107522361Y-114115830D01*
X107292207Y-114020498D01*
X107051561Y-113956017D01*
X106804575Y-113923501D01*
X106804570Y-113923500D01*
X106804565Y-113923500D01*
X106555435Y-113923500D01*
X106555429Y-113923500D01*
X106555424Y-113923501D01*
X106308438Y-113956017D01*
X106067792Y-114020498D01*
X105837638Y-114115830D01*
X105837623Y-114115837D01*
X105621873Y-114240400D01*
X105424225Y-114392060D01*
X105424218Y-114392066D01*
X105248066Y-114568218D01*
X105248060Y-114568225D01*
X105096400Y-114765873D01*
X104971837Y-114981623D01*
X104971830Y-114981638D01*
X104876498Y-115211792D01*
X104812017Y-115452438D01*
X104779501Y-115699424D01*
X104779500Y-115699441D01*
X101084500Y-115699441D01*
X101084500Y-110699441D01*
X104779500Y-110699441D01*
X104779500Y-110948558D01*
X104779501Y-110948575D01*
X104812017Y-111195561D01*
X104876498Y-111436207D01*
X104971830Y-111666361D01*
X104971837Y-111666376D01*
X105096400Y-111882126D01*
X105248060Y-112079774D01*
X105248066Y-112079781D01*
X105424218Y-112255933D01*
X105424225Y-112255939D01*
X105621873Y-112407599D01*
X105837623Y-112532162D01*
X105837638Y-112532169D01*
X105936825Y-112573253D01*
X106067793Y-112627502D01*
X106308435Y-112691982D01*
X106555435Y-112724500D01*
X106555442Y-112724500D01*
X106804558Y-112724500D01*
X106804565Y-112724500D01*
X107051565Y-112691982D01*
X107292207Y-112627502D01*
X107522373Y-112532164D01*
X107738127Y-112407599D01*
X107935776Y-112255938D01*
X108111938Y-112079776D01*
X108263599Y-111882127D01*
X108388164Y-111666373D01*
X108483502Y-111436207D01*
X108547982Y-111195565D01*
X108580500Y-110948565D01*
X108580500Y-110699435D01*
X108547982Y-110452435D01*
X108483502Y-110211793D01*
X108388164Y-109981627D01*
X108263599Y-109765873D01*
X108111938Y-109568224D01*
X108111933Y-109568218D01*
X107935781Y-109392066D01*
X107935774Y-109392060D01*
X107738126Y-109240400D01*
X107522376Y-109115837D01*
X107522361Y-109115830D01*
X107292207Y-109020498D01*
X107051561Y-108956017D01*
X106804575Y-108923501D01*
X106804570Y-108923500D01*
X106804565Y-108923500D01*
X106555435Y-108923500D01*
X106555429Y-108923500D01*
X106555424Y-108923501D01*
X106308438Y-108956017D01*
X106067792Y-109020498D01*
X105837638Y-109115830D01*
X105837623Y-109115837D01*
X105621873Y-109240400D01*
X105424225Y-109392060D01*
X105424218Y-109392066D01*
X105248066Y-109568218D01*
X105248060Y-109568225D01*
X105096400Y-109765873D01*
X104971837Y-109981623D01*
X104971830Y-109981638D01*
X104876498Y-110211792D01*
X104812017Y-110452438D01*
X104779501Y-110699424D01*
X104779500Y-110699441D01*
X101084500Y-110699441D01*
X101084500Y-105699441D01*
X104779500Y-105699441D01*
X104779500Y-105948558D01*
X104779501Y-105948575D01*
X104812017Y-106195561D01*
X104876498Y-106436207D01*
X104971830Y-106666361D01*
X104971837Y-106666376D01*
X105096400Y-106882126D01*
X105248060Y-107079774D01*
X105248066Y-107079781D01*
X105424218Y-107255933D01*
X105424225Y-107255939D01*
X105621873Y-107407599D01*
X105837623Y-107532162D01*
X105837638Y-107532169D01*
X105936825Y-107573253D01*
X106067793Y-107627502D01*
X106308435Y-107691982D01*
X106555435Y-107724500D01*
X106555442Y-107724500D01*
X106804558Y-107724500D01*
X106804565Y-107724500D01*
X107051565Y-107691982D01*
X107292207Y-107627502D01*
X107522373Y-107532164D01*
X107738127Y-107407599D01*
X107935776Y-107255938D01*
X108111938Y-107079776D01*
X108263599Y-106882127D01*
X108388164Y-106666373D01*
X108483502Y-106436207D01*
X108547982Y-106195565D01*
X108580500Y-105948565D01*
X108580500Y-105699435D01*
X108547982Y-105452435D01*
X108483502Y-105211793D01*
X108388164Y-104981627D01*
X108371367Y-104952534D01*
X108263599Y-104765873D01*
X108148799Y-104616262D01*
X108111939Y-104568225D01*
X108111933Y-104568218D01*
X108089363Y-104545648D01*
X145511500Y-104545648D01*
X145511500Y-104750351D01*
X145543522Y-104952534D01*
X145606781Y-105147223D01*
X145699715Y-105329613D01*
X145820028Y-105495213D01*
X145964786Y-105639971D01*
X146119749Y-105752556D01*
X146130390Y-105760287D01*
X146246607Y-105819503D01*
X146312776Y-105853218D01*
X146312778Y-105853218D01*
X146312781Y-105853220D01*
X146417137Y-105887127D01*
X146507465Y-105916477D01*
X146608557Y-105932488D01*
X146709648Y-105948500D01*
X146709649Y-105948500D01*
X146914351Y-105948500D01*
X146914352Y-105948500D01*
X147116534Y-105916477D01*
X147311219Y-105853220D01*
X147493610Y-105760287D01*
X147586590Y-105692732D01*
X147659213Y-105639971D01*
X147659215Y-105639968D01*
X147659219Y-105639966D01*
X147803966Y-105495219D01*
X147803968Y-105495215D01*
X147803971Y-105495213D01*
X147856732Y-105422590D01*
X147924287Y-105329610D01*
X148017220Y-105147219D01*
X148080477Y-104952534D01*
X148112500Y-104750352D01*
X148112500Y-104545648D01*
X148089114Y-104398000D01*
X153155391Y-104398000D01*
X154116314Y-104398000D01*
X154111920Y-104402394D01*
X154059259Y-104493606D01*
X154032000Y-104595339D01*
X154032000Y-104700661D01*
X154059259Y-104802394D01*
X154111920Y-104893606D01*
X154116314Y-104898000D01*
X153155391Y-104898000D01*
X153164009Y-104952413D01*
X153227244Y-105147029D01*
X153320140Y-105329349D01*
X153440417Y-105494894D01*
X153440417Y-105494895D01*
X153585104Y-105639582D01*
X153750650Y-105759859D01*
X153932968Y-105852754D01*
X154127578Y-105915988D01*
X154182000Y-105924607D01*
X154182000Y-104963686D01*
X154186394Y-104968080D01*
X154277606Y-105020741D01*
X154379339Y-105048000D01*
X154484661Y-105048000D01*
X154586394Y-105020741D01*
X154677606Y-104968080D01*
X154682000Y-104963686D01*
X154682000Y-105924606D01*
X154736421Y-105915988D01*
X154931031Y-105852754D01*
X155113349Y-105759859D01*
X155278894Y-105639582D01*
X155278895Y-105639582D01*
X155423582Y-105494895D01*
X155423582Y-105494894D01*
X155543859Y-105329349D01*
X155636755Y-105147029D01*
X155699990Y-104952413D01*
X155708609Y-104898000D01*
X154747686Y-104898000D01*
X154752080Y-104893606D01*
X154804741Y-104802394D01*
X154832000Y-104700661D01*
X154832000Y-104595339D01*
X154804741Y-104493606D01*
X154752080Y-104402394D01*
X154747686Y-104398000D01*
X155708609Y-104398000D01*
X155699990Y-104343586D01*
X155636755Y-104148970D01*
X155543859Y-103966650D01*
X155423582Y-103801105D01*
X155423582Y-103801104D01*
X155278895Y-103656417D01*
X155113349Y-103536140D01*
X154931029Y-103443244D01*
X154736413Y-103380009D01*
X154682000Y-103371390D01*
X154682000Y-104332314D01*
X154677606Y-104327920D01*
X154586394Y-104275259D01*
X154484661Y-104248000D01*
X154379339Y-104248000D01*
X154277606Y-104275259D01*
X154186394Y-104327920D01*
X154182000Y-104332314D01*
X154182000Y-103371390D01*
X154127586Y-103380009D01*
X153932970Y-103443244D01*
X153750650Y-103536140D01*
X153585105Y-103656417D01*
X153585104Y-103656417D01*
X153440417Y-103801104D01*
X153440417Y-103801105D01*
X153320140Y-103966650D01*
X153227244Y-104148970D01*
X153164009Y-104343586D01*
X153155391Y-104398000D01*
X148089114Y-104398000D01*
X148080477Y-104343466D01*
X148017220Y-104148781D01*
X148017218Y-104148778D01*
X148017218Y-104148776D01*
X147983503Y-104082607D01*
X147924287Y-103966390D01*
X147892048Y-103922016D01*
X147803971Y-103800786D01*
X147659213Y-103656028D01*
X147493613Y-103535715D01*
X147493612Y-103535714D01*
X147493610Y-103535713D01*
X147436653Y-103506691D01*
X147311223Y-103442781D01*
X147116534Y-103379522D01*
X146941995Y-103351878D01*
X146914352Y-103347500D01*
X146709648Y-103347500D01*
X146685329Y-103351351D01*
X146507465Y-103379522D01*
X146312776Y-103442781D01*
X146130386Y-103535715D01*
X145964786Y-103656028D01*
X145820028Y-103800786D01*
X145699715Y-103966386D01*
X145606781Y-104148776D01*
X145543522Y-104343465D01*
X145511500Y-104545648D01*
X108089363Y-104545648D01*
X107935781Y-104392066D01*
X107935774Y-104392060D01*
X107738126Y-104240400D01*
X107522376Y-104115837D01*
X107522361Y-104115830D01*
X107292207Y-104020498D01*
X107177999Y-103989896D01*
X107051565Y-103956018D01*
X107051564Y-103956017D01*
X107051561Y-103956017D01*
X106804575Y-103923501D01*
X106804570Y-103923500D01*
X106804565Y-103923500D01*
X106555435Y-103923500D01*
X106555429Y-103923500D01*
X106555424Y-103923501D01*
X106308438Y-103956017D01*
X106067792Y-104020498D01*
X105837638Y-104115830D01*
X105837623Y-104115837D01*
X105621873Y-104240400D01*
X105424225Y-104392060D01*
X105424218Y-104392066D01*
X105248066Y-104568218D01*
X105248060Y-104568225D01*
X105096400Y-104765873D01*
X104971837Y-104981623D01*
X104971830Y-104981638D01*
X104876498Y-105211792D01*
X104812017Y-105452438D01*
X104779501Y-105699424D01*
X104779500Y-105699441D01*
X101084500Y-105699441D01*
X101084500Y-100699441D01*
X104779500Y-100699441D01*
X104779500Y-100948558D01*
X104779501Y-100948575D01*
X104812017Y-101195561D01*
X104876498Y-101436207D01*
X104971830Y-101666361D01*
X104971837Y-101666376D01*
X105096400Y-101882126D01*
X105248060Y-102079774D01*
X105248066Y-102079781D01*
X105424218Y-102255933D01*
X105424225Y-102255939D01*
X105621873Y-102407599D01*
X105837623Y-102532162D01*
X105837638Y-102532169D01*
X105936825Y-102573253D01*
X106067793Y-102627502D01*
X106308435Y-102691982D01*
X106555435Y-102724500D01*
X106555442Y-102724500D01*
X106804558Y-102724500D01*
X106804565Y-102724500D01*
X107051565Y-102691982D01*
X107292207Y-102627502D01*
X107522373Y-102532164D01*
X107738127Y-102407599D01*
X107935776Y-102255938D01*
X108111938Y-102079776D01*
X108263599Y-101882127D01*
X108388164Y-101666373D01*
X108483502Y-101436207D01*
X108547982Y-101195565D01*
X108580500Y-100948565D01*
X108580500Y-100699435D01*
X108547982Y-100452435D01*
X108483502Y-100211793D01*
X108388164Y-99981627D01*
X108263599Y-99765873D01*
X108111938Y-99568224D01*
X108111933Y-99568218D01*
X107935781Y-99392066D01*
X107935774Y-99392060D01*
X107738126Y-99240400D01*
X107522376Y-99115837D01*
X107522361Y-99115830D01*
X107292207Y-99020498D01*
X107051561Y-98956017D01*
X106804575Y-98923501D01*
X106804570Y-98923500D01*
X106804565Y-98923500D01*
X106555435Y-98923500D01*
X106555429Y-98923500D01*
X106555424Y-98923501D01*
X106308438Y-98956017D01*
X106067792Y-99020498D01*
X105837638Y-99115830D01*
X105837623Y-99115837D01*
X105621873Y-99240400D01*
X105424225Y-99392060D01*
X105424218Y-99392066D01*
X105248066Y-99568218D01*
X105248060Y-99568225D01*
X105096400Y-99765873D01*
X104971837Y-99981623D01*
X104971830Y-99981638D01*
X104876498Y-100211792D01*
X104812017Y-100452438D01*
X104779501Y-100699424D01*
X104779500Y-100699441D01*
X101084500Y-100699441D01*
X101084500Y-95699441D01*
X104779500Y-95699441D01*
X104779500Y-95948558D01*
X104779501Y-95948575D01*
X104812017Y-96195561D01*
X104876498Y-96436207D01*
X104971830Y-96666361D01*
X104971837Y-96666376D01*
X105096400Y-96882126D01*
X105248060Y-97079774D01*
X105248066Y-97079781D01*
X105424218Y-97255933D01*
X105424225Y-97255939D01*
X105621873Y-97407599D01*
X105837623Y-97532162D01*
X105837638Y-97532169D01*
X105936825Y-97573253D01*
X106067793Y-97627502D01*
X106308435Y-97691982D01*
X106555435Y-97724500D01*
X106555442Y-97724500D01*
X106804558Y-97724500D01*
X106804565Y-97724500D01*
X107051565Y-97691982D01*
X107292207Y-97627502D01*
X107522373Y-97532164D01*
X107738127Y-97407599D01*
X107935776Y-97255938D01*
X108111938Y-97079776D01*
X108263599Y-96882127D01*
X108388164Y-96666373D01*
X108483502Y-96436207D01*
X108547982Y-96195565D01*
X108580500Y-95948565D01*
X108580500Y-95699435D01*
X108547982Y-95452435D01*
X108538032Y-95415303D01*
X165215500Y-95415303D01*
X165215500Y-103212695D01*
X165250103Y-103386658D01*
X165250106Y-103386667D01*
X165317983Y-103550540D01*
X165317990Y-103550553D01*
X165416535Y-103698034D01*
X165416538Y-103698038D01*
X165541961Y-103823461D01*
X165541965Y-103823464D01*
X165689446Y-103922009D01*
X165689459Y-103922016D01*
X165771549Y-103956018D01*
X165853334Y-103989894D01*
X165853336Y-103989894D01*
X165853341Y-103989896D01*
X166027304Y-104024499D01*
X166027307Y-104024500D01*
X166027309Y-104024500D01*
X166204693Y-104024500D01*
X166204694Y-104024499D01*
X166262682Y-104012964D01*
X166378658Y-103989896D01*
X166378661Y-103989894D01*
X166378666Y-103989894D01*
X166542547Y-103922013D01*
X166690035Y-103823464D01*
X166815464Y-103698035D01*
X166914013Y-103550547D01*
X166981894Y-103386666D01*
X166983219Y-103380009D01*
X167016499Y-103212695D01*
X167016500Y-103212693D01*
X167016500Y-95928362D01*
X167036185Y-95861323D01*
X167052819Y-95840681D01*
X167947055Y-94946445D01*
X168847464Y-94046036D01*
X168886936Y-93986959D01*
X168946013Y-93898547D01*
X168979953Y-93816606D01*
X169013895Y-93734666D01*
X169048500Y-93560692D01*
X169048500Y-93383308D01*
X169013895Y-93209334D01*
X168975443Y-93116505D01*
X168946013Y-93045453D01*
X168886936Y-92957040D01*
X168884029Y-92952689D01*
X168847466Y-92897966D01*
X168722035Y-92772535D01*
X168722030Y-92772531D01*
X168667622Y-92736178D01*
X168667616Y-92736175D01*
X168662959Y-92733063D01*
X168574547Y-92673987D01*
X168492606Y-92640046D01*
X168462322Y-92627502D01*
X168410666Y-92606105D01*
X168410658Y-92606103D01*
X168236696Y-92571500D01*
X168236692Y-92571500D01*
X168059308Y-92571500D01*
X168059303Y-92571500D01*
X167885341Y-92606103D01*
X167885329Y-92606106D01*
X167803392Y-92640045D01*
X167803393Y-92640046D01*
X167721455Y-92673985D01*
X167633040Y-92733063D01*
X167633039Y-92733064D01*
X167573961Y-92772537D01*
X167573960Y-92772538D01*
X165416538Y-94929961D01*
X165416536Y-94929964D01*
X165405523Y-94946447D01*
X165317985Y-95077455D01*
X165284046Y-95159393D01*
X165250106Y-95241329D01*
X165250103Y-95241341D01*
X165215500Y-95415303D01*
X108538032Y-95415303D01*
X108483502Y-95211793D01*
X108427857Y-95077455D01*
X108388169Y-94981638D01*
X108388162Y-94981623D01*
X108263599Y-94765873D01*
X108111939Y-94568225D01*
X108111933Y-94568218D01*
X107935781Y-94392066D01*
X107935774Y-94392060D01*
X107738126Y-94240400D01*
X107522376Y-94115837D01*
X107522361Y-94115830D01*
X107292207Y-94020498D01*
X107051561Y-93956017D01*
X106804575Y-93923501D01*
X106804570Y-93923500D01*
X106804565Y-93923500D01*
X106555435Y-93923500D01*
X106555429Y-93923500D01*
X106555424Y-93923501D01*
X106308438Y-93956017D01*
X106067792Y-94020498D01*
X105837638Y-94115830D01*
X105837623Y-94115837D01*
X105621873Y-94240400D01*
X105424225Y-94392060D01*
X105424218Y-94392066D01*
X105248066Y-94568218D01*
X105248060Y-94568225D01*
X105096400Y-94765873D01*
X104971837Y-94981623D01*
X104971830Y-94981638D01*
X104876498Y-95211792D01*
X104812017Y-95452438D01*
X104779501Y-95699424D01*
X104779500Y-95699441D01*
X101084500Y-95699441D01*
X101084500Y-90699441D01*
X104779500Y-90699441D01*
X104779500Y-90948558D01*
X104779501Y-90948575D01*
X104802178Y-91120827D01*
X104812018Y-91195565D01*
X104831026Y-91266503D01*
X104876498Y-91436207D01*
X104971830Y-91666361D01*
X104971837Y-91666376D01*
X105096400Y-91882126D01*
X105248060Y-92079774D01*
X105248066Y-92079781D01*
X105424218Y-92255933D01*
X105424225Y-92255939D01*
X105621873Y-92407599D01*
X105837623Y-92532162D01*
X105837638Y-92532169D01*
X105932592Y-92571500D01*
X106067793Y-92627502D01*
X106308435Y-92691982D01*
X106555435Y-92724500D01*
X106555442Y-92724500D01*
X106804558Y-92724500D01*
X106804565Y-92724500D01*
X107051565Y-92691982D01*
X107292207Y-92627502D01*
X107522373Y-92532164D01*
X107738127Y-92407599D01*
X107935776Y-92255938D01*
X108111938Y-92079776D01*
X108263599Y-91882127D01*
X108388164Y-91666373D01*
X108483502Y-91436207D01*
X108547982Y-91195565D01*
X108580500Y-90948565D01*
X108580500Y-90699435D01*
X108547982Y-90452435D01*
X108483502Y-90211793D01*
X108388164Y-89981627D01*
X108263599Y-89765873D01*
X108111938Y-89568224D01*
X108111933Y-89568218D01*
X107935781Y-89392066D01*
X107935774Y-89392060D01*
X107738126Y-89240400D01*
X107522376Y-89115837D01*
X107522361Y-89115830D01*
X107292207Y-89020498D01*
X107051561Y-88956017D01*
X106804575Y-88923501D01*
X106804570Y-88923500D01*
X106804565Y-88923500D01*
X106555435Y-88923500D01*
X106555429Y-88923500D01*
X106555424Y-88923501D01*
X106308438Y-88956017D01*
X106067792Y-89020498D01*
X105837638Y-89115830D01*
X105837623Y-89115837D01*
X105621873Y-89240400D01*
X105424225Y-89392060D01*
X105424218Y-89392066D01*
X105248066Y-89568218D01*
X105248060Y-89568225D01*
X105096400Y-89765873D01*
X104971837Y-89981623D01*
X104971830Y-89981638D01*
X104876498Y-90211792D01*
X104812017Y-90452438D01*
X104779501Y-90699424D01*
X104779500Y-90699441D01*
X101084500Y-90699441D01*
X101084500Y-85699441D01*
X104779500Y-85699441D01*
X104779500Y-85948558D01*
X104779501Y-85948575D01*
X104812017Y-86195561D01*
X104876498Y-86436207D01*
X104971830Y-86666361D01*
X104971837Y-86666376D01*
X105096400Y-86882126D01*
X105248060Y-87079774D01*
X105248066Y-87079781D01*
X105424218Y-87255933D01*
X105424225Y-87255939D01*
X105621873Y-87407599D01*
X105837623Y-87532162D01*
X105837638Y-87532169D01*
X105936825Y-87573253D01*
X106067793Y-87627502D01*
X106308435Y-87691982D01*
X106555435Y-87724500D01*
X106555442Y-87724500D01*
X106804558Y-87724500D01*
X106804565Y-87724500D01*
X107051565Y-87691982D01*
X107292207Y-87627502D01*
X107522373Y-87532164D01*
X107738127Y-87407599D01*
X107935776Y-87255938D01*
X108111938Y-87079776D01*
X108263599Y-86882127D01*
X108388164Y-86666373D01*
X108483502Y-86436207D01*
X108547982Y-86195565D01*
X108580500Y-85948565D01*
X108580500Y-85699435D01*
X108547982Y-85452435D01*
X108483502Y-85211793D01*
X108429253Y-85080825D01*
X108388169Y-84981638D01*
X108388162Y-84981623D01*
X108263599Y-84765873D01*
X108111939Y-84568225D01*
X108111933Y-84568218D01*
X107935781Y-84392066D01*
X107935774Y-84392060D01*
X107738126Y-84240400D01*
X107522376Y-84115837D01*
X107522361Y-84115830D01*
X107292207Y-84020498D01*
X107051561Y-83956017D01*
X106804575Y-83923501D01*
X106804570Y-83923500D01*
X106804565Y-83923500D01*
X106555435Y-83923500D01*
X106555429Y-83923500D01*
X106555424Y-83923501D01*
X106308438Y-83956017D01*
X106067792Y-84020498D01*
X105837638Y-84115830D01*
X105837623Y-84115837D01*
X105621873Y-84240400D01*
X105424225Y-84392060D01*
X105424218Y-84392066D01*
X105248066Y-84568218D01*
X105248060Y-84568225D01*
X105096400Y-84765873D01*
X104971837Y-84981623D01*
X104971830Y-84981638D01*
X104876498Y-85211792D01*
X104812017Y-85452438D01*
X104779501Y-85699424D01*
X104779500Y-85699441D01*
X101084500Y-85699441D01*
X101084500Y-80699441D01*
X104779500Y-80699441D01*
X104779500Y-80948558D01*
X104779501Y-80948575D01*
X104812017Y-81195561D01*
X104876498Y-81436207D01*
X104971830Y-81666361D01*
X104971837Y-81666376D01*
X105096400Y-81882126D01*
X105248060Y-82079774D01*
X105248066Y-82079781D01*
X105424218Y-82255933D01*
X105424225Y-82255939D01*
X105621873Y-82407599D01*
X105837623Y-82532162D01*
X105837638Y-82532169D01*
X105936825Y-82573253D01*
X106067793Y-82627502D01*
X106308435Y-82691982D01*
X106555435Y-82724500D01*
X106555442Y-82724500D01*
X106804558Y-82724500D01*
X106804565Y-82724500D01*
X107051565Y-82691982D01*
X107292207Y-82627502D01*
X107522373Y-82532164D01*
X107738127Y-82407599D01*
X107935776Y-82255938D01*
X108111938Y-82079776D01*
X108263599Y-81882127D01*
X108388164Y-81666373D01*
X108483502Y-81436207D01*
X108547982Y-81195565D01*
X108580500Y-80948565D01*
X108580500Y-80699435D01*
X108547982Y-80452435D01*
X108483502Y-80211793D01*
X108429253Y-80080825D01*
X108388169Y-79981638D01*
X108388162Y-79981623D01*
X108263599Y-79765873D01*
X108111939Y-79568225D01*
X108111933Y-79568218D01*
X107935781Y-79392066D01*
X107935774Y-79392060D01*
X107738126Y-79240400D01*
X107522376Y-79115837D01*
X107522361Y-79115830D01*
X107292207Y-79020498D01*
X107051561Y-78956017D01*
X106804575Y-78923501D01*
X106804570Y-78923500D01*
X106804565Y-78923500D01*
X106555435Y-78923500D01*
X106555429Y-78923500D01*
X106555424Y-78923501D01*
X106308438Y-78956017D01*
X106067792Y-79020498D01*
X105837638Y-79115830D01*
X105837623Y-79115837D01*
X105621873Y-79240400D01*
X105424225Y-79392060D01*
X105424218Y-79392066D01*
X105248066Y-79568218D01*
X105248060Y-79568225D01*
X105096400Y-79765873D01*
X104971837Y-79981623D01*
X104971830Y-79981638D01*
X104876498Y-80211792D01*
X104812017Y-80452438D01*
X104779501Y-80699424D01*
X104779500Y-80699441D01*
X101084500Y-80699441D01*
X101084500Y-75699441D01*
X104779500Y-75699441D01*
X104779500Y-75948558D01*
X104779501Y-75948575D01*
X104812017Y-76195561D01*
X104876498Y-76436207D01*
X104971830Y-76666361D01*
X104971837Y-76666376D01*
X105096400Y-76882126D01*
X105248060Y-77079774D01*
X105248066Y-77079781D01*
X105424218Y-77255933D01*
X105424225Y-77255939D01*
X105621873Y-77407599D01*
X105837623Y-77532162D01*
X105837638Y-77532169D01*
X105936825Y-77573253D01*
X106067793Y-77627502D01*
X106308435Y-77691982D01*
X106555435Y-77724500D01*
X106555442Y-77724500D01*
X106804558Y-77724500D01*
X106804565Y-77724500D01*
X107051565Y-77691982D01*
X107292207Y-77627502D01*
X107522373Y-77532164D01*
X107738127Y-77407599D01*
X107935776Y-77255938D01*
X108111938Y-77079776D01*
X108263599Y-76882127D01*
X108388164Y-76666373D01*
X108483502Y-76436207D01*
X108547982Y-76195565D01*
X108580500Y-75948565D01*
X108580500Y-75699435D01*
X108547982Y-75452435D01*
X108483502Y-75211793D01*
X108388164Y-74981627D01*
X108364419Y-74940500D01*
X108263599Y-74765873D01*
X108111939Y-74568225D01*
X108111933Y-74568218D01*
X107935781Y-74392066D01*
X107935774Y-74392060D01*
X107738126Y-74240400D01*
X107522376Y-74115837D01*
X107522361Y-74115830D01*
X107292207Y-74020498D01*
X107051561Y-73956017D01*
X106804575Y-73923501D01*
X106804570Y-73923500D01*
X106804565Y-73923500D01*
X106555435Y-73923500D01*
X106555429Y-73923500D01*
X106555424Y-73923501D01*
X106308438Y-73956017D01*
X106067792Y-74020498D01*
X105837638Y-74115830D01*
X105837623Y-74115837D01*
X105621873Y-74240400D01*
X105424225Y-74392060D01*
X105424218Y-74392066D01*
X105248066Y-74568218D01*
X105248060Y-74568225D01*
X105096400Y-74765873D01*
X104971837Y-74981623D01*
X104971830Y-74981638D01*
X104876498Y-75211792D01*
X104812017Y-75452438D01*
X104779501Y-75699424D01*
X104779500Y-75699441D01*
X101084500Y-75699441D01*
X101084500Y-70699441D01*
X104779500Y-70699441D01*
X104779500Y-70948558D01*
X104779501Y-70948575D01*
X104812017Y-71195561D01*
X104876498Y-71436207D01*
X104971830Y-71666361D01*
X104971837Y-71666376D01*
X105096400Y-71882126D01*
X105248060Y-72079774D01*
X105248066Y-72079781D01*
X105424218Y-72255933D01*
X105424225Y-72255939D01*
X105621873Y-72407599D01*
X105837623Y-72532162D01*
X105837638Y-72532169D01*
X105936825Y-72573253D01*
X106067793Y-72627502D01*
X106308435Y-72691982D01*
X106555435Y-72724500D01*
X106555442Y-72724500D01*
X106804558Y-72724500D01*
X106804565Y-72724500D01*
X107051565Y-72691982D01*
X107292207Y-72627502D01*
X107522373Y-72532164D01*
X107738127Y-72407599D01*
X107935776Y-72255938D01*
X108111938Y-72079776D01*
X108263599Y-71882127D01*
X108388164Y-71666373D01*
X108483502Y-71436207D01*
X108547982Y-71195565D01*
X108580500Y-70948565D01*
X108580500Y-70699435D01*
X108547982Y-70452435D01*
X108483502Y-70211793D01*
X108388164Y-69981627D01*
X108263599Y-69765873D01*
X108111938Y-69568224D01*
X108111933Y-69568218D01*
X107935781Y-69392066D01*
X107935774Y-69392060D01*
X107738126Y-69240400D01*
X107522376Y-69115837D01*
X107522361Y-69115830D01*
X107292207Y-69020498D01*
X107051561Y-68956017D01*
X106804575Y-68923501D01*
X106804570Y-68923500D01*
X106804565Y-68923500D01*
X106555435Y-68923500D01*
X106555429Y-68923500D01*
X106555424Y-68923501D01*
X106308438Y-68956017D01*
X106067792Y-69020498D01*
X105837638Y-69115830D01*
X105837623Y-69115837D01*
X105621873Y-69240400D01*
X105424225Y-69392060D01*
X105424218Y-69392066D01*
X105248066Y-69568218D01*
X105248060Y-69568225D01*
X105096400Y-69765873D01*
X104971837Y-69981623D01*
X104971830Y-69981638D01*
X104876498Y-70211792D01*
X104812017Y-70452438D01*
X104779501Y-70699424D01*
X104779500Y-70699441D01*
X101084500Y-70699441D01*
X101084500Y-64672252D01*
X116674498Y-64672252D01*
X116715423Y-64824983D01*
X116744358Y-64875098D01*
X116744359Y-64875102D01*
X116744360Y-64875102D01*
X116794479Y-64961912D01*
X116794481Y-64961915D01*
X116913349Y-65080783D01*
X116913355Y-65080788D01*
X130921941Y-79089374D01*
X130921951Y-79089385D01*
X130926281Y-79093715D01*
X130926282Y-79093716D01*
X131038086Y-79205520D01*
X131124897Y-79255639D01*
X131124899Y-79255641D01*
X131143725Y-79266510D01*
X131175017Y-79284577D01*
X131327745Y-79325500D01*
X131920943Y-79325500D01*
X131924903Y-79325500D01*
X131954343Y-79334144D01*
X131984330Y-79340668D01*
X131989345Y-79344422D01*
X131991942Y-79345185D01*
X132012584Y-79361819D01*
X132165425Y-79514660D01*
X132198910Y-79575983D01*
X132199361Y-79578149D01*
X132230261Y-79733491D01*
X132230264Y-79733501D01*
X132290602Y-79879172D01*
X132290609Y-79879185D01*
X132378210Y-80010288D01*
X132378213Y-80010292D01*
X132489707Y-80121786D01*
X132489711Y-80121789D01*
X132620814Y-80209390D01*
X132620827Y-80209397D01*
X132766498Y-80269735D01*
X132766503Y-80269737D01*
X132896982Y-80295691D01*
X132921153Y-80300499D01*
X132921156Y-80300500D01*
X132921158Y-80300500D01*
X133078844Y-80300500D01*
X133078845Y-80300499D01*
X133233497Y-80269737D01*
X133379179Y-80209394D01*
X133510289Y-80121789D01*
X133621789Y-80010289D01*
X133709394Y-79879179D01*
X133769737Y-79733497D01*
X133800500Y-79578842D01*
X133800500Y-79421158D01*
X133800500Y-79421155D01*
X133800499Y-79421153D01*
X133784489Y-79340668D01*
X133769737Y-79266503D01*
X133744477Y-79205520D01*
X133709397Y-79120827D01*
X133709390Y-79120814D01*
X133621789Y-78989711D01*
X133621786Y-78989707D01*
X133510292Y-78878213D01*
X133510284Y-78878207D01*
X133472712Y-78853102D01*
X133427906Y-78799490D01*
X133419199Y-78730165D01*
X133449353Y-78667138D01*
X133472712Y-78646898D01*
X133499279Y-78629145D01*
X133510289Y-78621789D01*
X133621789Y-78510289D01*
X133709394Y-78379179D01*
X133715522Y-78364385D01*
X133732263Y-78323969D01*
X133752845Y-78298427D01*
X133772514Y-78272154D01*
X133774663Y-78271352D01*
X133776104Y-78269565D01*
X133807238Y-78259202D01*
X133837978Y-78247737D01*
X133840220Y-78248224D01*
X133842398Y-78247500D01*
X133874193Y-78255615D01*
X133906251Y-78262589D01*
X133908700Y-78264422D01*
X133910097Y-78264779D01*
X133934505Y-78283740D01*
X134015139Y-78364374D01*
X134015149Y-78364385D01*
X134019479Y-78368715D01*
X134019480Y-78368716D01*
X134131284Y-78480520D01*
X134182845Y-78510288D01*
X134218095Y-78530639D01*
X134218097Y-78530641D01*
X134268213Y-78559576D01*
X134268215Y-78559577D01*
X134420942Y-78600500D01*
X134420943Y-78600500D01*
X150199903Y-78600500D01*
X150266942Y-78620185D01*
X150287584Y-78636819D01*
X151165425Y-79514660D01*
X151198910Y-79575983D01*
X151199361Y-79578149D01*
X151230261Y-79733491D01*
X151230264Y-79733501D01*
X151290602Y-79879172D01*
X151290609Y-79879185D01*
X151378210Y-80010288D01*
X151378213Y-80010292D01*
X151489707Y-80121786D01*
X151489711Y-80121789D01*
X151620814Y-80209390D01*
X151620827Y-80209397D01*
X151766498Y-80269735D01*
X151766503Y-80269737D01*
X151896982Y-80295691D01*
X151921153Y-80300499D01*
X151921156Y-80300500D01*
X151921158Y-80300500D01*
X152078844Y-80300500D01*
X152078845Y-80300499D01*
X152233497Y-80269737D01*
X152233509Y-80269731D01*
X152239324Y-80267969D01*
X152240158Y-80270720D01*
X152297359Y-80264497D01*
X152359878Y-80295691D01*
X152395608Y-80355734D01*
X152399500Y-80386555D01*
X152399500Y-90920234D01*
X152379815Y-90987273D01*
X152378602Y-90989125D01*
X152290609Y-91120814D01*
X152290602Y-91120827D01*
X152230264Y-91266498D01*
X152230261Y-91266510D01*
X152199500Y-91421153D01*
X152199500Y-91578846D01*
X152230261Y-91733489D01*
X152230264Y-91733501D01*
X152290602Y-91879172D01*
X152290609Y-91879185D01*
X152378210Y-92010288D01*
X152378213Y-92010292D01*
X152489707Y-92121786D01*
X152489711Y-92121789D01*
X152620814Y-92209390D01*
X152620827Y-92209397D01*
X152733177Y-92255933D01*
X152766503Y-92269737D01*
X152921153Y-92300499D01*
X152921156Y-92300500D01*
X152921158Y-92300500D01*
X153078844Y-92300500D01*
X153078845Y-92300499D01*
X153233497Y-92269737D01*
X153379179Y-92209394D01*
X153510289Y-92121789D01*
X153621789Y-92010289D01*
X153709394Y-91879179D01*
X153769737Y-91733497D01*
X153800500Y-91578842D01*
X153800500Y-91421158D01*
X153800500Y-91421155D01*
X153800499Y-91421153D01*
X153769738Y-91266510D01*
X153769737Y-91266503D01*
X153740352Y-91195561D01*
X153709397Y-91120827D01*
X153709390Y-91120814D01*
X153621398Y-90989125D01*
X153600520Y-90922447D01*
X153600500Y-90920234D01*
X153600500Y-85492155D01*
X157958000Y-85492155D01*
X157958000Y-86090000D01*
X158942314Y-86090000D01*
X158937920Y-86094394D01*
X158885259Y-86185606D01*
X158858000Y-86287339D01*
X158858000Y-86392661D01*
X158885259Y-86494394D01*
X158937920Y-86585606D01*
X158942314Y-86590000D01*
X157958000Y-86590000D01*
X157958000Y-87187844D01*
X157964401Y-87247372D01*
X157964403Y-87247379D01*
X158014645Y-87382086D01*
X158014649Y-87382093D01*
X158100809Y-87497187D01*
X158100812Y-87497190D01*
X158215906Y-87583350D01*
X158215913Y-87583354D01*
X158350620Y-87633596D01*
X158350627Y-87633598D01*
X158410155Y-87639999D01*
X158410172Y-87640000D01*
X159008000Y-87640000D01*
X159008000Y-86655686D01*
X159012394Y-86660080D01*
X159103606Y-86712741D01*
X159205339Y-86740000D01*
X159310661Y-86740000D01*
X159412394Y-86712741D01*
X159503606Y-86660080D01*
X159508000Y-86655686D01*
X159508000Y-87640000D01*
X160105828Y-87640000D01*
X160105844Y-87639999D01*
X160165372Y-87633598D01*
X160165379Y-87633596D01*
X160300086Y-87583354D01*
X160300093Y-87583350D01*
X160415187Y-87497190D01*
X160415190Y-87497187D01*
X160501350Y-87382093D01*
X160501354Y-87382086D01*
X160551596Y-87247379D01*
X160555620Y-87209956D01*
X160582358Y-87145404D01*
X160639750Y-87105556D01*
X160709575Y-87103062D01*
X160769664Y-87138714D01*
X160779228Y-87150325D01*
X160806028Y-87187212D01*
X160806032Y-87187217D01*
X160950786Y-87331971D01*
X161105749Y-87444556D01*
X161116390Y-87452287D01*
X161204517Y-87497190D01*
X161298776Y-87545218D01*
X161298778Y-87545218D01*
X161298781Y-87545220D01*
X161403137Y-87579127D01*
X161493465Y-87608477D01*
X161594557Y-87624488D01*
X161695648Y-87640500D01*
X161695649Y-87640500D01*
X161900351Y-87640500D01*
X161900352Y-87640500D01*
X162102534Y-87608477D01*
X162297219Y-87545220D01*
X162479610Y-87452287D01*
X162576234Y-87382086D01*
X162645213Y-87331971D01*
X162645215Y-87331968D01*
X162645219Y-87331966D01*
X162789966Y-87187219D01*
X162789968Y-87187215D01*
X162789971Y-87187213D01*
X162910284Y-87021614D01*
X162910286Y-87021611D01*
X162910287Y-87021610D01*
X162957516Y-86928917D01*
X163005489Y-86878123D01*
X163073310Y-86861328D01*
X163139445Y-86883865D01*
X163178485Y-86928919D01*
X163225715Y-87021614D01*
X163346028Y-87187213D01*
X163490786Y-87331971D01*
X163645749Y-87444556D01*
X163656390Y-87452287D01*
X163744517Y-87497190D01*
X163838776Y-87545218D01*
X163838778Y-87545218D01*
X163838781Y-87545220D01*
X163943137Y-87579127D01*
X164033465Y-87608477D01*
X164134557Y-87624488D01*
X164235648Y-87640500D01*
X164235649Y-87640500D01*
X164440351Y-87640500D01*
X164440352Y-87640500D01*
X164642534Y-87608477D01*
X164837219Y-87545220D01*
X165019610Y-87452287D01*
X165116234Y-87382086D01*
X165185213Y-87331971D01*
X165185215Y-87331968D01*
X165185219Y-87331966D01*
X165329966Y-87187219D01*
X165329968Y-87187215D01*
X165329971Y-87187213D01*
X165450284Y-87021614D01*
X165450286Y-87021611D01*
X165450287Y-87021610D01*
X165497516Y-86928917D01*
X165545489Y-86878123D01*
X165613310Y-86861328D01*
X165679445Y-86883865D01*
X165718485Y-86928919D01*
X165765715Y-87021614D01*
X165886028Y-87187213D01*
X166030786Y-87331971D01*
X166185749Y-87444556D01*
X166196390Y-87452287D01*
X166284517Y-87497190D01*
X166378776Y-87545218D01*
X166378778Y-87545218D01*
X166378781Y-87545220D01*
X166483137Y-87579127D01*
X166573465Y-87608477D01*
X166674557Y-87624488D01*
X166775648Y-87640500D01*
X166775649Y-87640500D01*
X166980351Y-87640500D01*
X166980352Y-87640500D01*
X167182534Y-87608477D01*
X167377219Y-87545220D01*
X167559610Y-87452287D01*
X167656234Y-87382086D01*
X167725213Y-87331971D01*
X167725215Y-87331968D01*
X167725219Y-87331966D01*
X167869966Y-87187219D01*
X167869968Y-87187215D01*
X167869971Y-87187213D01*
X167990284Y-87021614D01*
X167990286Y-87021611D01*
X167990287Y-87021610D01*
X168037516Y-86928917D01*
X168085489Y-86878123D01*
X168153310Y-86861328D01*
X168219445Y-86883865D01*
X168258485Y-86928919D01*
X168305715Y-87021614D01*
X168426028Y-87187213D01*
X168570786Y-87331971D01*
X168725749Y-87444556D01*
X168736390Y-87452287D01*
X168824517Y-87497190D01*
X168918776Y-87545218D01*
X168918778Y-87545218D01*
X168918781Y-87545220D01*
X169023137Y-87579127D01*
X169113465Y-87608477D01*
X169214557Y-87624488D01*
X169315648Y-87640500D01*
X169315649Y-87640500D01*
X169520351Y-87640500D01*
X169520352Y-87640500D01*
X169722534Y-87608477D01*
X169917219Y-87545220D01*
X170099610Y-87452287D01*
X170196234Y-87382086D01*
X170265213Y-87331971D01*
X170265215Y-87331968D01*
X170265219Y-87331966D01*
X170409966Y-87187219D01*
X170409968Y-87187215D01*
X170409971Y-87187213D01*
X170530284Y-87021614D01*
X170530286Y-87021611D01*
X170530287Y-87021610D01*
X170577516Y-86928917D01*
X170625489Y-86878123D01*
X170693310Y-86861328D01*
X170759445Y-86883865D01*
X170798485Y-86928919D01*
X170845715Y-87021614D01*
X170966028Y-87187213D01*
X171110786Y-87331971D01*
X171265749Y-87444556D01*
X171276390Y-87452287D01*
X171364517Y-87497190D01*
X171458776Y-87545218D01*
X171458778Y-87545218D01*
X171458781Y-87545220D01*
X171563137Y-87579127D01*
X171653465Y-87608477D01*
X171754557Y-87624488D01*
X171855648Y-87640500D01*
X171855649Y-87640500D01*
X172060351Y-87640500D01*
X172060352Y-87640500D01*
X172262534Y-87608477D01*
X172457219Y-87545220D01*
X172639610Y-87452287D01*
X172736234Y-87382086D01*
X172805213Y-87331971D01*
X172805215Y-87331968D01*
X172805219Y-87331966D01*
X172949966Y-87187219D01*
X172949968Y-87187215D01*
X172949971Y-87187213D01*
X173070284Y-87021614D01*
X173070286Y-87021611D01*
X173070287Y-87021610D01*
X173117795Y-86928369D01*
X173165770Y-86877574D01*
X173233591Y-86860779D01*
X173299725Y-86883316D01*
X173338765Y-86928370D01*
X173386140Y-87021349D01*
X173506417Y-87186894D01*
X173506417Y-87186895D01*
X173651104Y-87331582D01*
X173816650Y-87451859D01*
X173998968Y-87544754D01*
X174193578Y-87607988D01*
X174248000Y-87616607D01*
X174248000Y-86655686D01*
X174252394Y-86660080D01*
X174343606Y-86712741D01*
X174445339Y-86740000D01*
X174550661Y-86740000D01*
X174652394Y-86712741D01*
X174743606Y-86660080D01*
X174748000Y-86655686D01*
X174748000Y-87616606D01*
X174802421Y-87607988D01*
X174997031Y-87544754D01*
X175179349Y-87451859D01*
X175344894Y-87331582D01*
X175344895Y-87331582D01*
X175489582Y-87186895D01*
X175489582Y-87186894D01*
X175609861Y-87021347D01*
X175657234Y-86928371D01*
X175705208Y-86877575D01*
X175773028Y-86860779D01*
X175839164Y-86883316D01*
X175878203Y-86928369D01*
X175925713Y-87021611D01*
X176046028Y-87187213D01*
X176190786Y-87331971D01*
X176345749Y-87444556D01*
X176356390Y-87452287D01*
X176444517Y-87497190D01*
X176538776Y-87545218D01*
X176538778Y-87545218D01*
X176538781Y-87545220D01*
X176643137Y-87579127D01*
X176733465Y-87608477D01*
X176834557Y-87624488D01*
X176935648Y-87640500D01*
X176935649Y-87640500D01*
X177140351Y-87640500D01*
X177140352Y-87640500D01*
X177342534Y-87608477D01*
X177537219Y-87545220D01*
X177719610Y-87452287D01*
X177816234Y-87382086D01*
X177885213Y-87331971D01*
X177885215Y-87331968D01*
X177885219Y-87331966D01*
X178029966Y-87187219D01*
X178029968Y-87187215D01*
X178029971Y-87187213D01*
X178091109Y-87103062D01*
X178150287Y-87021610D01*
X178243220Y-86839219D01*
X178306477Y-86644534D01*
X178338500Y-86442352D01*
X178338500Y-86237648D01*
X178330257Y-86185606D01*
X178306477Y-86035465D01*
X178243218Y-85840776D01*
X178197515Y-85751080D01*
X178150287Y-85658390D01*
X178142556Y-85647749D01*
X178029971Y-85492786D01*
X177885213Y-85348028D01*
X177719613Y-85227715D01*
X177719612Y-85227714D01*
X177719610Y-85227713D01*
X177631487Y-85182812D01*
X177537223Y-85134781D01*
X177342534Y-85071522D01*
X177167995Y-85043878D01*
X177140352Y-85039500D01*
X176935648Y-85039500D01*
X176911329Y-85043351D01*
X176733465Y-85071522D01*
X176538776Y-85134781D01*
X176356386Y-85227715D01*
X176190786Y-85348028D01*
X176046028Y-85492786D01*
X175925713Y-85658388D01*
X175878203Y-85751630D01*
X175830228Y-85802426D01*
X175762407Y-85819220D01*
X175696272Y-85796682D01*
X175657234Y-85751628D01*
X175609861Y-85658652D01*
X175489582Y-85493105D01*
X175489582Y-85493104D01*
X175344895Y-85348417D01*
X175179349Y-85228140D01*
X174997029Y-85135244D01*
X174802413Y-85072009D01*
X174748000Y-85063390D01*
X174748000Y-86024314D01*
X174743606Y-86019920D01*
X174652394Y-85967259D01*
X174550661Y-85940000D01*
X174445339Y-85940000D01*
X174343606Y-85967259D01*
X174252394Y-86019920D01*
X174248000Y-86024314D01*
X174248000Y-85063390D01*
X174193586Y-85072009D01*
X173998970Y-85135244D01*
X173816650Y-85228140D01*
X173651105Y-85348417D01*
X173651104Y-85348417D01*
X173506417Y-85493104D01*
X173506417Y-85493105D01*
X173386140Y-85658650D01*
X173338765Y-85751629D01*
X173290790Y-85802425D01*
X173222969Y-85819220D01*
X173156834Y-85796682D01*
X173117795Y-85751629D01*
X173106990Y-85730424D01*
X173070287Y-85658390D01*
X173062556Y-85647749D01*
X172949971Y-85492786D01*
X172805213Y-85348028D01*
X172639613Y-85227715D01*
X172639612Y-85227714D01*
X172639610Y-85227713D01*
X172551487Y-85182812D01*
X172457223Y-85134781D01*
X172262534Y-85071522D01*
X172087995Y-85043878D01*
X172060352Y-85039500D01*
X171855648Y-85039500D01*
X171831329Y-85043351D01*
X171653465Y-85071522D01*
X171458776Y-85134781D01*
X171276386Y-85227715D01*
X171110786Y-85348028D01*
X170966028Y-85492786D01*
X170845715Y-85658386D01*
X170798485Y-85751080D01*
X170750510Y-85801876D01*
X170682689Y-85818671D01*
X170616554Y-85796134D01*
X170577515Y-85751080D01*
X170576883Y-85749840D01*
X170530287Y-85658390D01*
X170522556Y-85647749D01*
X170409971Y-85492786D01*
X170265213Y-85348028D01*
X170099613Y-85227715D01*
X170099612Y-85227714D01*
X170099610Y-85227713D01*
X170011487Y-85182812D01*
X169917223Y-85134781D01*
X169722534Y-85071522D01*
X169547995Y-85043878D01*
X169520352Y-85039500D01*
X169315648Y-85039500D01*
X169291329Y-85043351D01*
X169113465Y-85071522D01*
X168918776Y-85134781D01*
X168736386Y-85227715D01*
X168570786Y-85348028D01*
X168426028Y-85492786D01*
X168305715Y-85658386D01*
X168258485Y-85751080D01*
X168210510Y-85801876D01*
X168142689Y-85818671D01*
X168076554Y-85796134D01*
X168037515Y-85751080D01*
X168036883Y-85749840D01*
X167990287Y-85658390D01*
X167982556Y-85647749D01*
X167869971Y-85492786D01*
X167725213Y-85348028D01*
X167559613Y-85227715D01*
X167559612Y-85227714D01*
X167559610Y-85227713D01*
X167471487Y-85182812D01*
X167377223Y-85134781D01*
X167182534Y-85071522D01*
X167007995Y-85043878D01*
X166980352Y-85039500D01*
X166775648Y-85039500D01*
X166751329Y-85043351D01*
X166573465Y-85071522D01*
X166378776Y-85134781D01*
X166196386Y-85227715D01*
X166030786Y-85348028D01*
X165886028Y-85492786D01*
X165765715Y-85658386D01*
X165718485Y-85751080D01*
X165670510Y-85801876D01*
X165602689Y-85818671D01*
X165536554Y-85796134D01*
X165497515Y-85751080D01*
X165496883Y-85749840D01*
X165450287Y-85658390D01*
X165442556Y-85647749D01*
X165329971Y-85492786D01*
X165185213Y-85348028D01*
X165019613Y-85227715D01*
X165019612Y-85227714D01*
X165019610Y-85227713D01*
X164931487Y-85182812D01*
X164837223Y-85134781D01*
X164642534Y-85071522D01*
X164467995Y-85043878D01*
X164440352Y-85039500D01*
X164235648Y-85039500D01*
X164211329Y-85043351D01*
X164033465Y-85071522D01*
X163838776Y-85134781D01*
X163656386Y-85227715D01*
X163490786Y-85348028D01*
X163346028Y-85492786D01*
X163225715Y-85658386D01*
X163178485Y-85751080D01*
X163130510Y-85801876D01*
X163062689Y-85818671D01*
X162996554Y-85796134D01*
X162957515Y-85751080D01*
X162956883Y-85749840D01*
X162910287Y-85658390D01*
X162902556Y-85647749D01*
X162789971Y-85492786D01*
X162645213Y-85348028D01*
X162479613Y-85227715D01*
X162479612Y-85227714D01*
X162479610Y-85227713D01*
X162391487Y-85182812D01*
X162297223Y-85134781D01*
X162102534Y-85071522D01*
X161927995Y-85043878D01*
X161900352Y-85039500D01*
X161695648Y-85039500D01*
X161671329Y-85043351D01*
X161493465Y-85071522D01*
X161298776Y-85134781D01*
X161116386Y-85227715D01*
X160950786Y-85348028D01*
X160806032Y-85492782D01*
X160806026Y-85492789D01*
X160779227Y-85529675D01*
X160723897Y-85572341D01*
X160654284Y-85578319D01*
X160592489Y-85545712D01*
X160558132Y-85484873D01*
X160555620Y-85470043D01*
X160551596Y-85432620D01*
X160501354Y-85297913D01*
X160501350Y-85297906D01*
X160415190Y-85182812D01*
X160415187Y-85182809D01*
X160300093Y-85096649D01*
X160300086Y-85096645D01*
X160165379Y-85046403D01*
X160165372Y-85046401D01*
X160105844Y-85040000D01*
X159508000Y-85040000D01*
X159508000Y-86024314D01*
X159503606Y-86019920D01*
X159412394Y-85967259D01*
X159310661Y-85940000D01*
X159205339Y-85940000D01*
X159103606Y-85967259D01*
X159012394Y-86019920D01*
X159008000Y-86024314D01*
X159008000Y-85040000D01*
X158410155Y-85040000D01*
X158350627Y-85046401D01*
X158350620Y-85046403D01*
X158215913Y-85096645D01*
X158215906Y-85096649D01*
X158100812Y-85182809D01*
X158100809Y-85182812D01*
X158014649Y-85297906D01*
X158014645Y-85297913D01*
X157964403Y-85432620D01*
X157964401Y-85432627D01*
X157958000Y-85492155D01*
X153600500Y-85492155D01*
X153600500Y-77800096D01*
X153620185Y-77733057D01*
X153636814Y-77712419D01*
X154800713Y-76548521D01*
X154800716Y-76548520D01*
X154912520Y-76436716D01*
X154962639Y-76349904D01*
X154991577Y-76299785D01*
X155032501Y-76147057D01*
X155032501Y-75988943D01*
X155032501Y-75981348D01*
X155032500Y-75981330D01*
X155032500Y-73940097D01*
X155052185Y-73873058D01*
X155068819Y-73852416D01*
X156142416Y-72778819D01*
X156203739Y-72745334D01*
X156230097Y-72742500D01*
X158059202Y-72742500D01*
X158126241Y-72762185D01*
X158171996Y-72814989D01*
X158181940Y-72884147D01*
X158159521Y-72939385D01*
X158145712Y-72958390D01*
X158052781Y-73140776D01*
X157989522Y-73335465D01*
X157957500Y-73537648D01*
X157957500Y-73742351D01*
X157989522Y-73944534D01*
X158052781Y-74139223D01*
X158104334Y-74240400D01*
X158141320Y-74312989D01*
X158145715Y-74321613D01*
X158266028Y-74487213D01*
X158410786Y-74631971D01*
X158565749Y-74744556D01*
X158576390Y-74752287D01*
X158692607Y-74811503D01*
X158758776Y-74845218D01*
X158758778Y-74845218D01*
X158758781Y-74845220D01*
X158863137Y-74879127D01*
X158953465Y-74908477D01*
X159054557Y-74924488D01*
X159155648Y-74940500D01*
X159155649Y-74940500D01*
X159360351Y-74940500D01*
X159360352Y-74940500D01*
X159562534Y-74908477D01*
X159757219Y-74845220D01*
X159939610Y-74752287D01*
X160032590Y-74684732D01*
X160105213Y-74631971D01*
X160105215Y-74631968D01*
X160105219Y-74631966D01*
X160249966Y-74487219D01*
X160249968Y-74487215D01*
X160249971Y-74487213D01*
X160370284Y-74321614D01*
X160370285Y-74321613D01*
X160370287Y-74321610D01*
X160417516Y-74228917D01*
X160465489Y-74178123D01*
X160533310Y-74161328D01*
X160599445Y-74183865D01*
X160638483Y-74228917D01*
X160662891Y-74276819D01*
X160685715Y-74321614D01*
X160806028Y-74487213D01*
X160950786Y-74631971D01*
X161105749Y-74744556D01*
X161116390Y-74752287D01*
X161232607Y-74811503D01*
X161298776Y-74845218D01*
X161298778Y-74845218D01*
X161298781Y-74845220D01*
X161403137Y-74879127D01*
X161493465Y-74908477D01*
X161594557Y-74924488D01*
X161695648Y-74940500D01*
X161695649Y-74940500D01*
X161900351Y-74940500D01*
X161900352Y-74940500D01*
X162102534Y-74908477D01*
X162297219Y-74845220D01*
X162479610Y-74752287D01*
X162572590Y-74684732D01*
X162645213Y-74631971D01*
X162645215Y-74631968D01*
X162645219Y-74631966D01*
X162789966Y-74487219D01*
X162789968Y-74487215D01*
X162789971Y-74487213D01*
X162910284Y-74321614D01*
X162910285Y-74321613D01*
X162910287Y-74321610D01*
X162957516Y-74228917D01*
X163005489Y-74178123D01*
X163073310Y-74161328D01*
X163139445Y-74183865D01*
X163178483Y-74228917D01*
X163202891Y-74276819D01*
X163225715Y-74321614D01*
X163346028Y-74487213D01*
X163490786Y-74631971D01*
X163645749Y-74744556D01*
X163656390Y-74752287D01*
X163772607Y-74811503D01*
X163838776Y-74845218D01*
X163838778Y-74845218D01*
X163838781Y-74845220D01*
X163943137Y-74879127D01*
X164033465Y-74908477D01*
X164134557Y-74924488D01*
X164235648Y-74940500D01*
X164235649Y-74940500D01*
X164440351Y-74940500D01*
X164440352Y-74940500D01*
X164642534Y-74908477D01*
X164837219Y-74845220D01*
X165019610Y-74752287D01*
X165112590Y-74684732D01*
X165185213Y-74631971D01*
X165185215Y-74631968D01*
X165185219Y-74631966D01*
X165329966Y-74487219D01*
X165329968Y-74487215D01*
X165329971Y-74487213D01*
X165450284Y-74321614D01*
X165450285Y-74321613D01*
X165450287Y-74321610D01*
X165497516Y-74228917D01*
X165545489Y-74178123D01*
X165613310Y-74161328D01*
X165679445Y-74183865D01*
X165718483Y-74228917D01*
X165742891Y-74276819D01*
X165765715Y-74321614D01*
X165886028Y-74487213D01*
X166030786Y-74631971D01*
X166185749Y-74744556D01*
X166196390Y-74752287D01*
X166312607Y-74811503D01*
X166378776Y-74845218D01*
X166378778Y-74845218D01*
X166378781Y-74845220D01*
X166483137Y-74879127D01*
X166573465Y-74908477D01*
X166674557Y-74924488D01*
X166775648Y-74940500D01*
X166775649Y-74940500D01*
X166980351Y-74940500D01*
X166980352Y-74940500D01*
X167182534Y-74908477D01*
X167377219Y-74845220D01*
X167559610Y-74752287D01*
X167652590Y-74684732D01*
X167725213Y-74631971D01*
X167725215Y-74631968D01*
X167725219Y-74631966D01*
X167869966Y-74487219D01*
X167869968Y-74487215D01*
X167869971Y-74487213D01*
X167990284Y-74321614D01*
X167990285Y-74321613D01*
X167990287Y-74321610D01*
X168037516Y-74228917D01*
X168085489Y-74178123D01*
X168153310Y-74161328D01*
X168219445Y-74183865D01*
X168258483Y-74228917D01*
X168282891Y-74276819D01*
X168305715Y-74321614D01*
X168426028Y-74487213D01*
X168570786Y-74631971D01*
X168725749Y-74744556D01*
X168736390Y-74752287D01*
X168852607Y-74811503D01*
X168918776Y-74845218D01*
X168918778Y-74845218D01*
X168918781Y-74845220D01*
X169023137Y-74879127D01*
X169113465Y-74908477D01*
X169214557Y-74924488D01*
X169315648Y-74940500D01*
X169315649Y-74940500D01*
X169520351Y-74940500D01*
X169520352Y-74940500D01*
X169722534Y-74908477D01*
X169917219Y-74845220D01*
X170099610Y-74752287D01*
X170192590Y-74684732D01*
X170265213Y-74631971D01*
X170265215Y-74631968D01*
X170265219Y-74631966D01*
X170409966Y-74487219D01*
X170409968Y-74487215D01*
X170409971Y-74487213D01*
X170530284Y-74321614D01*
X170530285Y-74321613D01*
X170530287Y-74321610D01*
X170577516Y-74228917D01*
X170625489Y-74178123D01*
X170693310Y-74161328D01*
X170759445Y-74183865D01*
X170798483Y-74228917D01*
X170822891Y-74276819D01*
X170845715Y-74321614D01*
X170966028Y-74487213D01*
X171110786Y-74631971D01*
X171265749Y-74744556D01*
X171276390Y-74752287D01*
X171392607Y-74811503D01*
X171458776Y-74845218D01*
X171458778Y-74845218D01*
X171458781Y-74845220D01*
X171563137Y-74879127D01*
X171653465Y-74908477D01*
X171754557Y-74924488D01*
X171855648Y-74940500D01*
X171855649Y-74940500D01*
X172060351Y-74940500D01*
X172060352Y-74940500D01*
X172262534Y-74908477D01*
X172457219Y-74845220D01*
X172639610Y-74752287D01*
X172732590Y-74684732D01*
X172805213Y-74631971D01*
X172805215Y-74631968D01*
X172805219Y-74631966D01*
X172949966Y-74487219D01*
X172949968Y-74487215D01*
X172949971Y-74487213D01*
X173070284Y-74321614D01*
X173070285Y-74321613D01*
X173070287Y-74321610D01*
X173117516Y-74228917D01*
X173165489Y-74178123D01*
X173233310Y-74161328D01*
X173299445Y-74183865D01*
X173338483Y-74228917D01*
X173362891Y-74276819D01*
X173385715Y-74321614D01*
X173506028Y-74487213D01*
X173650786Y-74631971D01*
X173805749Y-74744556D01*
X173816390Y-74752287D01*
X173932607Y-74811503D01*
X173998776Y-74845218D01*
X173998778Y-74845218D01*
X173998781Y-74845220D01*
X174103137Y-74879127D01*
X174193465Y-74908477D01*
X174294557Y-74924488D01*
X174395648Y-74940500D01*
X174395649Y-74940500D01*
X174600351Y-74940500D01*
X174600352Y-74940500D01*
X174802534Y-74908477D01*
X174997219Y-74845220D01*
X175179610Y-74752287D01*
X175272590Y-74684732D01*
X175345213Y-74631971D01*
X175345215Y-74631968D01*
X175345219Y-74631966D01*
X175489966Y-74487219D01*
X175489968Y-74487215D01*
X175489971Y-74487213D01*
X175610284Y-74321614D01*
X175610285Y-74321613D01*
X175610287Y-74321610D01*
X175657516Y-74228917D01*
X175705489Y-74178123D01*
X175773310Y-74161328D01*
X175839445Y-74183865D01*
X175878483Y-74228917D01*
X175902891Y-74276819D01*
X175925715Y-74321614D01*
X176046028Y-74487213D01*
X176190786Y-74631971D01*
X176345749Y-74744556D01*
X176356390Y-74752287D01*
X176472607Y-74811503D01*
X176538776Y-74845218D01*
X176538778Y-74845218D01*
X176538781Y-74845220D01*
X176643137Y-74879127D01*
X176733465Y-74908477D01*
X176834557Y-74924488D01*
X176935648Y-74940500D01*
X176935649Y-74940500D01*
X177140351Y-74940500D01*
X177140352Y-74940500D01*
X177342534Y-74908477D01*
X177537219Y-74845220D01*
X177719610Y-74752287D01*
X177812590Y-74684732D01*
X177885213Y-74631971D01*
X177885215Y-74631968D01*
X177885219Y-74631966D01*
X178029966Y-74487219D01*
X178029968Y-74487215D01*
X178029971Y-74487213D01*
X178115573Y-74369390D01*
X178150287Y-74321610D01*
X178243220Y-74139219D01*
X178306477Y-73944534D01*
X178338500Y-73742352D01*
X178338500Y-73537648D01*
X178306477Y-73335466D01*
X178288719Y-73280814D01*
X178277127Y-73245137D01*
X178243220Y-73140781D01*
X178243218Y-73140778D01*
X178243218Y-73140776D01*
X178197515Y-73051080D01*
X178150287Y-72958390D01*
X178100791Y-72890264D01*
X178029971Y-72792786D01*
X177885213Y-72648028D01*
X177719613Y-72527715D01*
X177719612Y-72527714D01*
X177719610Y-72527713D01*
X177662653Y-72498691D01*
X177537223Y-72434781D01*
X177342534Y-72371522D01*
X177167995Y-72343878D01*
X177140352Y-72339500D01*
X176935648Y-72339500D01*
X176911329Y-72343351D01*
X176733465Y-72371522D01*
X176538776Y-72434781D01*
X176356386Y-72527715D01*
X176190786Y-72648028D01*
X176046028Y-72792786D01*
X175925715Y-72958386D01*
X175878485Y-73051080D01*
X175830510Y-73101876D01*
X175762689Y-73118671D01*
X175696554Y-73096134D01*
X175657515Y-73051080D01*
X175650171Y-73036666D01*
X175610287Y-72958390D01*
X175560791Y-72890264D01*
X175489971Y-72792786D01*
X175345213Y-72648028D01*
X175179613Y-72527715D01*
X175179612Y-72527714D01*
X175179610Y-72527713D01*
X175122653Y-72498691D01*
X174997223Y-72434781D01*
X174802534Y-72371522D01*
X174627995Y-72343878D01*
X174600352Y-72339500D01*
X174395648Y-72339500D01*
X174371329Y-72343351D01*
X174193465Y-72371522D01*
X173998776Y-72434781D01*
X173816386Y-72527715D01*
X173650786Y-72648028D01*
X173506028Y-72792786D01*
X173385715Y-72958386D01*
X173338485Y-73051080D01*
X173290510Y-73101876D01*
X173222689Y-73118671D01*
X173156554Y-73096134D01*
X173117515Y-73051080D01*
X173110171Y-73036666D01*
X173070287Y-72958390D01*
X173020791Y-72890264D01*
X172949971Y-72792786D01*
X172805213Y-72648028D01*
X172639613Y-72527715D01*
X172639612Y-72527714D01*
X172639610Y-72527713D01*
X172582653Y-72498691D01*
X172457223Y-72434781D01*
X172262534Y-72371522D01*
X172087995Y-72343878D01*
X172060352Y-72339500D01*
X171855648Y-72339500D01*
X171831329Y-72343351D01*
X171653465Y-72371522D01*
X171458776Y-72434781D01*
X171276386Y-72527715D01*
X171110786Y-72648028D01*
X170966028Y-72792786D01*
X170845715Y-72958386D01*
X170798485Y-73051080D01*
X170750510Y-73101876D01*
X170682689Y-73118671D01*
X170616554Y-73096134D01*
X170577515Y-73051080D01*
X170570171Y-73036666D01*
X170530287Y-72958390D01*
X170480791Y-72890264D01*
X170409971Y-72792786D01*
X170265213Y-72648028D01*
X170099613Y-72527715D01*
X170099612Y-72527714D01*
X170099610Y-72527713D01*
X170042653Y-72498691D01*
X169917223Y-72434781D01*
X169722534Y-72371522D01*
X169547995Y-72343878D01*
X169520352Y-72339500D01*
X169315648Y-72339500D01*
X169291329Y-72343351D01*
X169113465Y-72371522D01*
X168918776Y-72434781D01*
X168736386Y-72527715D01*
X168570786Y-72648028D01*
X168426028Y-72792786D01*
X168305715Y-72958386D01*
X168258485Y-73051080D01*
X168210510Y-73101876D01*
X168142689Y-73118671D01*
X168076554Y-73096134D01*
X168037515Y-73051080D01*
X168030171Y-73036666D01*
X167990287Y-72958390D01*
X167940791Y-72890264D01*
X167869971Y-72792786D01*
X167725213Y-72648028D01*
X167559613Y-72527715D01*
X167559612Y-72527714D01*
X167559610Y-72527713D01*
X167502653Y-72498691D01*
X167377223Y-72434781D01*
X167182534Y-72371522D01*
X167007995Y-72343878D01*
X166980352Y-72339500D01*
X166775648Y-72339500D01*
X166751329Y-72343351D01*
X166573465Y-72371522D01*
X166378776Y-72434781D01*
X166196386Y-72527715D01*
X166030786Y-72648028D01*
X165886028Y-72792786D01*
X165765715Y-72958386D01*
X165718485Y-73051080D01*
X165670510Y-73101876D01*
X165602689Y-73118671D01*
X165536554Y-73096134D01*
X165497515Y-73051080D01*
X165490171Y-73036666D01*
X165450287Y-72958390D01*
X165400791Y-72890264D01*
X165329971Y-72792786D01*
X165273604Y-72736419D01*
X165240119Y-72675096D01*
X165245103Y-72605404D01*
X165258179Y-72579854D01*
X165301394Y-72515179D01*
X165361737Y-72369497D01*
X165392500Y-72214842D01*
X165392500Y-72057158D01*
X165392500Y-72057155D01*
X165392499Y-72057153D01*
X165361738Y-71902510D01*
X165361737Y-71902503D01*
X165308214Y-71773286D01*
X165301397Y-71756827D01*
X165301390Y-71756814D01*
X165213789Y-71625711D01*
X165213786Y-71625707D01*
X165102292Y-71514213D01*
X165102288Y-71514210D01*
X164971185Y-71426609D01*
X164971172Y-71426602D01*
X164825501Y-71366264D01*
X164825489Y-71366261D01*
X164670845Y-71335500D01*
X164670842Y-71335500D01*
X164513158Y-71335500D01*
X164513155Y-71335500D01*
X164358510Y-71366261D01*
X164358498Y-71366264D01*
X164212827Y-71426602D01*
X164212814Y-71426609D01*
X164081125Y-71514602D01*
X164014447Y-71535480D01*
X164012234Y-71535500D01*
X162766937Y-71535500D01*
X162760316Y-71537275D01*
X162728225Y-71541500D01*
X156016669Y-71541500D01*
X156016653Y-71541499D01*
X156009057Y-71541499D01*
X155850943Y-71541499D01*
X155743587Y-71570265D01*
X155698210Y-71582424D01*
X155698209Y-71582425D01*
X155648096Y-71611359D01*
X155648095Y-71611360D01*
X155623245Y-71625707D01*
X155561285Y-71661479D01*
X155561282Y-71661481D01*
X155449478Y-71773286D01*
X154219584Y-73003181D01*
X154158261Y-73036666D01*
X154131903Y-73039500D01*
X150409834Y-73039500D01*
X150342795Y-73019815D01*
X150340943Y-73018602D01*
X150239185Y-72950609D01*
X150239172Y-72950602D01*
X150093501Y-72890264D01*
X150093489Y-72890261D01*
X149938845Y-72859500D01*
X149938842Y-72859500D01*
X149781158Y-72859500D01*
X149781155Y-72859500D01*
X149626510Y-72890261D01*
X149626498Y-72890264D01*
X149480827Y-72950602D01*
X149480814Y-72950609D01*
X149349711Y-73038210D01*
X149349707Y-73038213D01*
X149238213Y-73149707D01*
X149238210Y-73149711D01*
X149150609Y-73280814D01*
X149150602Y-73280827D01*
X149090264Y-73426498D01*
X149090261Y-73426510D01*
X149059500Y-73581153D01*
X149059500Y-73738846D01*
X149090261Y-73893489D01*
X149090264Y-73893501D01*
X149150602Y-74039172D01*
X149150609Y-74039185D01*
X149238210Y-74170288D01*
X149238213Y-74170292D01*
X149349707Y-74281786D01*
X149349711Y-74281789D01*
X149480814Y-74369390D01*
X149480827Y-74369397D01*
X149535556Y-74392066D01*
X149626503Y-74429737D01*
X149781153Y-74460499D01*
X149781156Y-74460500D01*
X149781158Y-74460500D01*
X149938844Y-74460500D01*
X149938845Y-74460499D01*
X150093497Y-74429737D01*
X150239179Y-74369394D01*
X150370289Y-74281789D01*
X150370292Y-74281786D01*
X150375260Y-74276819D01*
X150436583Y-74243334D01*
X150462941Y-74240500D01*
X153707500Y-74240500D01*
X153774539Y-74260185D01*
X153820294Y-74312989D01*
X153831500Y-74364500D01*
X153831500Y-75767902D01*
X153811815Y-75834941D01*
X153795181Y-75855583D01*
X152519481Y-77131282D01*
X152519479Y-77131284D01*
X152491797Y-77179232D01*
X152480096Y-77199500D01*
X152440423Y-77268215D01*
X152399499Y-77420943D01*
X152399499Y-77420945D01*
X152399499Y-77589046D01*
X152399500Y-77589059D01*
X152399500Y-78613444D01*
X152379815Y-78680483D01*
X152327011Y-78726238D01*
X152257853Y-78736182D01*
X152250462Y-78734890D01*
X152238925Y-78732511D01*
X152233497Y-78730263D01*
X152078842Y-78699500D01*
X152078807Y-78699500D01*
X152077303Y-78699190D01*
X152046835Y-78682981D01*
X152016238Y-78666976D01*
X152015633Y-78666381D01*
X152015619Y-78666374D01*
X152015611Y-78666359D01*
X152014660Y-78665425D01*
X150987590Y-77638355D01*
X150987588Y-77638352D01*
X150868717Y-77519481D01*
X150868716Y-77519480D01*
X150781904Y-77469360D01*
X150781904Y-77469359D01*
X150781900Y-77469358D01*
X150731785Y-77440423D01*
X150579057Y-77399499D01*
X150420943Y-77399499D01*
X150413347Y-77399499D01*
X150413331Y-77399500D01*
X134800097Y-77399500D01*
X134733058Y-77379815D01*
X134712416Y-77363181D01*
X119811084Y-62461849D01*
X119777599Y-62400526D01*
X119774765Y-62374168D01*
X119774765Y-61763324D01*
X119774765Y-61753325D01*
X119774766Y-61753323D01*
X119774766Y-61625999D01*
X119794451Y-61558960D01*
X119847255Y-61513205D01*
X119847268Y-61513203D01*
X119898766Y-61502000D01*
X167370000Y-61502000D01*
X167370000Y-58492155D01*
X175310000Y-58492155D01*
X175310000Y-59090000D01*
X176294314Y-59090000D01*
X176289920Y-59094394D01*
X176237259Y-59185606D01*
X176210000Y-59287339D01*
X176210000Y-59392661D01*
X176237259Y-59494394D01*
X176289920Y-59585606D01*
X176294314Y-59590000D01*
X175310000Y-59590000D01*
X175310000Y-60187844D01*
X175316401Y-60247372D01*
X175316403Y-60247379D01*
X175366645Y-60382086D01*
X175366649Y-60382093D01*
X175452809Y-60497187D01*
X175452812Y-60497190D01*
X175567906Y-60583350D01*
X175567913Y-60583354D01*
X175702620Y-60633596D01*
X175702627Y-60633598D01*
X175762155Y-60639999D01*
X175762172Y-60640000D01*
X176360000Y-60640000D01*
X176360000Y-59655686D01*
X176364394Y-59660080D01*
X176455606Y-59712741D01*
X176557339Y-59740000D01*
X176662661Y-59740000D01*
X176764394Y-59712741D01*
X176855606Y-59660080D01*
X176860000Y-59655686D01*
X176860000Y-60640000D01*
X177457828Y-60640000D01*
X177457844Y-60639999D01*
X177517372Y-60633598D01*
X177517379Y-60633596D01*
X177652086Y-60583354D01*
X177652093Y-60583350D01*
X177767187Y-60497190D01*
X177767190Y-60497187D01*
X177853350Y-60382093D01*
X177853354Y-60382086D01*
X177903596Y-60247379D01*
X177907620Y-60209956D01*
X177934358Y-60145404D01*
X177991750Y-60105556D01*
X178061575Y-60103062D01*
X178121664Y-60138714D01*
X178131228Y-60150325D01*
X178158028Y-60187212D01*
X178158032Y-60187217D01*
X178302786Y-60331971D01*
X178457749Y-60444556D01*
X178468390Y-60452287D01*
X178556517Y-60497190D01*
X178650776Y-60545218D01*
X178650778Y-60545218D01*
X178650781Y-60545220D01*
X178742893Y-60575149D01*
X178845465Y-60608477D01*
X178946557Y-60624488D01*
X179047648Y-60640500D01*
X179047649Y-60640500D01*
X179252351Y-60640500D01*
X179252352Y-60640500D01*
X179454534Y-60608477D01*
X179649219Y-60545220D01*
X179831610Y-60452287D01*
X179933569Y-60378210D01*
X179997213Y-60331971D01*
X179997215Y-60331968D01*
X179997219Y-60331966D01*
X180141966Y-60187219D01*
X180141968Y-60187215D01*
X180141971Y-60187213D01*
X180262284Y-60021614D01*
X180262286Y-60021611D01*
X180262287Y-60021610D01*
X180309516Y-59928917D01*
X180357489Y-59878123D01*
X180425310Y-59861328D01*
X180491445Y-59883865D01*
X180530485Y-59928919D01*
X180577715Y-60021614D01*
X180698028Y-60187213D01*
X180842786Y-60331971D01*
X180997749Y-60444556D01*
X181008390Y-60452287D01*
X181096517Y-60497190D01*
X181190776Y-60545218D01*
X181190778Y-60545218D01*
X181190781Y-60545220D01*
X181282893Y-60575149D01*
X181385465Y-60608477D01*
X181486557Y-60624488D01*
X181587648Y-60640500D01*
X181587649Y-60640500D01*
X181792351Y-60640500D01*
X181792352Y-60640500D01*
X181994534Y-60608477D01*
X182189219Y-60545220D01*
X182371610Y-60452287D01*
X182473569Y-60378210D01*
X182537213Y-60331971D01*
X182537215Y-60331968D01*
X182537219Y-60331966D01*
X182681966Y-60187219D01*
X182681968Y-60187215D01*
X182681971Y-60187213D01*
X182802284Y-60021614D01*
X182802286Y-60021611D01*
X182802287Y-60021610D01*
X182849516Y-59928917D01*
X182897489Y-59878123D01*
X182965310Y-59861328D01*
X183031445Y-59883865D01*
X183070485Y-59928919D01*
X183117715Y-60021614D01*
X183238028Y-60187213D01*
X183382786Y-60331971D01*
X183537749Y-60444556D01*
X183548390Y-60452287D01*
X183636517Y-60497190D01*
X183730776Y-60545218D01*
X183730778Y-60545218D01*
X183730781Y-60545220D01*
X183822893Y-60575149D01*
X183925465Y-60608477D01*
X184026557Y-60624488D01*
X184127648Y-60640500D01*
X184127649Y-60640500D01*
X184332351Y-60640500D01*
X184332352Y-60640500D01*
X184534534Y-60608477D01*
X184729219Y-60545220D01*
X184911610Y-60452287D01*
X185013569Y-60378210D01*
X185077213Y-60331971D01*
X185077215Y-60331968D01*
X185077219Y-60331966D01*
X185221966Y-60187219D01*
X185221968Y-60187215D01*
X185221971Y-60187213D01*
X185342284Y-60021614D01*
X185342286Y-60021611D01*
X185342287Y-60021610D01*
X185389516Y-59928917D01*
X185437489Y-59878123D01*
X185505310Y-59861328D01*
X185571445Y-59883865D01*
X185610485Y-59928919D01*
X185657715Y-60021614D01*
X185778028Y-60187213D01*
X185922786Y-60331971D01*
X186077749Y-60444556D01*
X186088390Y-60452287D01*
X186176517Y-60497190D01*
X186270776Y-60545218D01*
X186270778Y-60545218D01*
X186270781Y-60545220D01*
X186362893Y-60575149D01*
X186465465Y-60608477D01*
X186566557Y-60624488D01*
X186667648Y-60640500D01*
X186667649Y-60640500D01*
X186872351Y-60640500D01*
X186872352Y-60640500D01*
X187074534Y-60608477D01*
X187269219Y-60545220D01*
X187451610Y-60452287D01*
X187553569Y-60378210D01*
X187617213Y-60331971D01*
X187617215Y-60331968D01*
X187617219Y-60331966D01*
X187761966Y-60187219D01*
X187761968Y-60187215D01*
X187761971Y-60187213D01*
X187882284Y-60021614D01*
X187882286Y-60021611D01*
X187882287Y-60021610D01*
X187929516Y-59928917D01*
X187977489Y-59878123D01*
X188045310Y-59861328D01*
X188111445Y-59883865D01*
X188150485Y-59928919D01*
X188197715Y-60021614D01*
X188318028Y-60187213D01*
X188462786Y-60331971D01*
X188617749Y-60444556D01*
X188628390Y-60452287D01*
X188716517Y-60497190D01*
X188810776Y-60545218D01*
X188810778Y-60545218D01*
X188810781Y-60545220D01*
X188902893Y-60575149D01*
X189005465Y-60608477D01*
X189106557Y-60624488D01*
X189207648Y-60640500D01*
X189207649Y-60640500D01*
X189412351Y-60640500D01*
X189412352Y-60640500D01*
X189614534Y-60608477D01*
X189809219Y-60545220D01*
X189991610Y-60452287D01*
X190093569Y-60378210D01*
X190157213Y-60331971D01*
X190157215Y-60331968D01*
X190157219Y-60331966D01*
X190301966Y-60187219D01*
X190301968Y-60187215D01*
X190301971Y-60187213D01*
X190422284Y-60021614D01*
X190422286Y-60021611D01*
X190422287Y-60021610D01*
X190469795Y-59928369D01*
X190517770Y-59877574D01*
X190585591Y-59860779D01*
X190651725Y-59883316D01*
X190690765Y-59928370D01*
X190738140Y-60021349D01*
X190858417Y-60186894D01*
X190858417Y-60186895D01*
X191003104Y-60331582D01*
X191168650Y-60451859D01*
X191350968Y-60544754D01*
X191545578Y-60607988D01*
X191600000Y-60616607D01*
X191600000Y-59655686D01*
X191604394Y-59660080D01*
X191695606Y-59712741D01*
X191797339Y-59740000D01*
X191902661Y-59740000D01*
X192004394Y-59712741D01*
X192095606Y-59660080D01*
X192100000Y-59655686D01*
X192100000Y-60616606D01*
X192154421Y-60607988D01*
X192349031Y-60544754D01*
X192531349Y-60451859D01*
X192696894Y-60331582D01*
X192696895Y-60331582D01*
X192841582Y-60186895D01*
X192841582Y-60186894D01*
X192961861Y-60021347D01*
X193009234Y-59928371D01*
X193057208Y-59877575D01*
X193125028Y-59860779D01*
X193191164Y-59883316D01*
X193230203Y-59928369D01*
X193277713Y-60021611D01*
X193398028Y-60187213D01*
X193542786Y-60331971D01*
X193697749Y-60444556D01*
X193708390Y-60452287D01*
X193796517Y-60497190D01*
X193890776Y-60545218D01*
X193890778Y-60545218D01*
X193890781Y-60545220D01*
X193982893Y-60575149D01*
X194085465Y-60608477D01*
X194186557Y-60624488D01*
X194287648Y-60640500D01*
X194287649Y-60640500D01*
X194492351Y-60640500D01*
X194492352Y-60640500D01*
X194694534Y-60608477D01*
X194889219Y-60545220D01*
X195071610Y-60452287D01*
X195173569Y-60378210D01*
X195237213Y-60331971D01*
X195237215Y-60331968D01*
X195237219Y-60331966D01*
X195381966Y-60187219D01*
X195381968Y-60187215D01*
X195381971Y-60187213D01*
X195463134Y-60075500D01*
X195502287Y-60021610D01*
X195595220Y-59839219D01*
X195658477Y-59644534D01*
X195690500Y-59442352D01*
X195690500Y-59237648D01*
X195682257Y-59185606D01*
X195658477Y-59035465D01*
X195595218Y-58840776D01*
X195502419Y-58658650D01*
X195502287Y-58658390D01*
X195494556Y-58647749D01*
X195381971Y-58492786D01*
X195237213Y-58348028D01*
X195071613Y-58227715D01*
X195071612Y-58227714D01*
X195071610Y-58227713D01*
X194983487Y-58182812D01*
X194889223Y-58134781D01*
X194694534Y-58071522D01*
X194519995Y-58043878D01*
X194492352Y-58039500D01*
X194287648Y-58039500D01*
X194263329Y-58043351D01*
X194085465Y-58071522D01*
X193890776Y-58134781D01*
X193708386Y-58227715D01*
X193542786Y-58348028D01*
X193398028Y-58492786D01*
X193277713Y-58658388D01*
X193230203Y-58751630D01*
X193182228Y-58802426D01*
X193114407Y-58819220D01*
X193048272Y-58796682D01*
X193009234Y-58751628D01*
X192961861Y-58658652D01*
X192841582Y-58493105D01*
X192841582Y-58493104D01*
X192696895Y-58348417D01*
X192531349Y-58228140D01*
X192349029Y-58135244D01*
X192154413Y-58072009D01*
X192100000Y-58063390D01*
X192100000Y-59024314D01*
X192095606Y-59019920D01*
X192004394Y-58967259D01*
X191902661Y-58940000D01*
X191797339Y-58940000D01*
X191695606Y-58967259D01*
X191604394Y-59019920D01*
X191600000Y-59024314D01*
X191600000Y-58063390D01*
X191545586Y-58072009D01*
X191350970Y-58135244D01*
X191168650Y-58228140D01*
X191003105Y-58348417D01*
X191003104Y-58348417D01*
X190858417Y-58493104D01*
X190858417Y-58493105D01*
X190738140Y-58658650D01*
X190690765Y-58751629D01*
X190642790Y-58802425D01*
X190574969Y-58819220D01*
X190508834Y-58796682D01*
X190469795Y-58751629D01*
X190422419Y-58658650D01*
X190422287Y-58658390D01*
X190414556Y-58647749D01*
X190301971Y-58492786D01*
X190157213Y-58348028D01*
X189991613Y-58227715D01*
X189991612Y-58227714D01*
X189991610Y-58227713D01*
X189903487Y-58182812D01*
X189809223Y-58134781D01*
X189614534Y-58071522D01*
X189439995Y-58043878D01*
X189412352Y-58039500D01*
X189207648Y-58039500D01*
X189183329Y-58043351D01*
X189005465Y-58071522D01*
X188810776Y-58134781D01*
X188628386Y-58227715D01*
X188462786Y-58348028D01*
X188318028Y-58492786D01*
X188197715Y-58658386D01*
X188150485Y-58751080D01*
X188102510Y-58801876D01*
X188034689Y-58818671D01*
X187968554Y-58796134D01*
X187929515Y-58751080D01*
X187882419Y-58658650D01*
X187882287Y-58658390D01*
X187874556Y-58647749D01*
X187761971Y-58492786D01*
X187617213Y-58348028D01*
X187451613Y-58227715D01*
X187451612Y-58227714D01*
X187451610Y-58227713D01*
X187363487Y-58182812D01*
X187269223Y-58134781D01*
X187074534Y-58071522D01*
X186899995Y-58043878D01*
X186872352Y-58039500D01*
X186667648Y-58039500D01*
X186643329Y-58043351D01*
X186465465Y-58071522D01*
X186270776Y-58134781D01*
X186088386Y-58227715D01*
X185922786Y-58348028D01*
X185778028Y-58492786D01*
X185657715Y-58658386D01*
X185610485Y-58751080D01*
X185562510Y-58801876D01*
X185494689Y-58818671D01*
X185428554Y-58796134D01*
X185389515Y-58751080D01*
X185342419Y-58658650D01*
X185342287Y-58658390D01*
X185334556Y-58647749D01*
X185221971Y-58492786D01*
X185077213Y-58348028D01*
X184911613Y-58227715D01*
X184911612Y-58227714D01*
X184911610Y-58227713D01*
X184823487Y-58182812D01*
X184729223Y-58134781D01*
X184534534Y-58071522D01*
X184359995Y-58043878D01*
X184332352Y-58039500D01*
X184127648Y-58039500D01*
X184103329Y-58043351D01*
X183925465Y-58071522D01*
X183730776Y-58134781D01*
X183548386Y-58227715D01*
X183382786Y-58348028D01*
X183238028Y-58492786D01*
X183117715Y-58658386D01*
X183070485Y-58751080D01*
X183022510Y-58801876D01*
X182954689Y-58818671D01*
X182888554Y-58796134D01*
X182849515Y-58751080D01*
X182802419Y-58658650D01*
X182802287Y-58658390D01*
X182794556Y-58647749D01*
X182681971Y-58492786D01*
X182537213Y-58348028D01*
X182371613Y-58227715D01*
X182371612Y-58227714D01*
X182371610Y-58227713D01*
X182283487Y-58182812D01*
X182189223Y-58134781D01*
X181994534Y-58071522D01*
X181819995Y-58043878D01*
X181792352Y-58039500D01*
X181587648Y-58039500D01*
X181563329Y-58043351D01*
X181385465Y-58071522D01*
X181190776Y-58134781D01*
X181008386Y-58227715D01*
X180842786Y-58348028D01*
X180698028Y-58492786D01*
X180577715Y-58658386D01*
X180530485Y-58751080D01*
X180482510Y-58801876D01*
X180414689Y-58818671D01*
X180348554Y-58796134D01*
X180309515Y-58751080D01*
X180262419Y-58658650D01*
X180262287Y-58658390D01*
X180254556Y-58647749D01*
X180141971Y-58492786D01*
X179997213Y-58348028D01*
X179831613Y-58227715D01*
X179831612Y-58227714D01*
X179831610Y-58227713D01*
X179743487Y-58182812D01*
X179649223Y-58134781D01*
X179454534Y-58071522D01*
X179279995Y-58043878D01*
X179252352Y-58039500D01*
X179047648Y-58039500D01*
X179023329Y-58043351D01*
X178845465Y-58071522D01*
X178650776Y-58134781D01*
X178468386Y-58227715D01*
X178302786Y-58348028D01*
X178158032Y-58492782D01*
X178158026Y-58492789D01*
X178131227Y-58529675D01*
X178075897Y-58572341D01*
X178006284Y-58578319D01*
X177944489Y-58545712D01*
X177910132Y-58484873D01*
X177907620Y-58470043D01*
X177903596Y-58432620D01*
X177853354Y-58297913D01*
X177853350Y-58297906D01*
X177767190Y-58182812D01*
X177767187Y-58182809D01*
X177652093Y-58096649D01*
X177652086Y-58096645D01*
X177517379Y-58046403D01*
X177517372Y-58046401D01*
X177457844Y-58040000D01*
X176860000Y-58040000D01*
X176860000Y-59024314D01*
X176855606Y-59019920D01*
X176764394Y-58967259D01*
X176662661Y-58940000D01*
X176557339Y-58940000D01*
X176455606Y-58967259D01*
X176364394Y-59019920D01*
X176360000Y-59024314D01*
X176360000Y-58040000D01*
X175762155Y-58040000D01*
X175702627Y-58046401D01*
X175702620Y-58046403D01*
X175567913Y-58096645D01*
X175567906Y-58096649D01*
X175452812Y-58182809D01*
X175452809Y-58182812D01*
X175366649Y-58297906D01*
X175366645Y-58297913D01*
X175316403Y-58432620D01*
X175316401Y-58432627D01*
X175310000Y-58492155D01*
X167370000Y-58492155D01*
X167370000Y-46537648D01*
X175309500Y-46537648D01*
X175309500Y-46742351D01*
X175341522Y-46944534D01*
X175404781Y-47139223D01*
X175497715Y-47321613D01*
X175618028Y-47487213D01*
X175762786Y-47631971D01*
X175917749Y-47744556D01*
X175928390Y-47752287D01*
X176044607Y-47811503D01*
X176110776Y-47845218D01*
X176110778Y-47845218D01*
X176110781Y-47845220D01*
X176215137Y-47879127D01*
X176305465Y-47908477D01*
X176406557Y-47924488D01*
X176507648Y-47940500D01*
X176507649Y-47940500D01*
X176712351Y-47940500D01*
X176712352Y-47940500D01*
X176914534Y-47908477D01*
X177109219Y-47845220D01*
X177291610Y-47752287D01*
X177384590Y-47684732D01*
X177457213Y-47631971D01*
X177457215Y-47631968D01*
X177457219Y-47631966D01*
X177601966Y-47487219D01*
X177601968Y-47487215D01*
X177601971Y-47487213D01*
X177722284Y-47321614D01*
X177722285Y-47321613D01*
X177722287Y-47321610D01*
X177769516Y-47228917D01*
X177817489Y-47178123D01*
X177885310Y-47161328D01*
X177951445Y-47183865D01*
X177990485Y-47228919D01*
X178037715Y-47321614D01*
X178158028Y-47487213D01*
X178302786Y-47631971D01*
X178457749Y-47744556D01*
X178468390Y-47752287D01*
X178584607Y-47811503D01*
X178650776Y-47845218D01*
X178650778Y-47845218D01*
X178650781Y-47845220D01*
X178755137Y-47879127D01*
X178845465Y-47908477D01*
X178946557Y-47924488D01*
X179047648Y-47940500D01*
X179047649Y-47940500D01*
X179252351Y-47940500D01*
X179252352Y-47940500D01*
X179454534Y-47908477D01*
X179649219Y-47845220D01*
X179831610Y-47752287D01*
X179924590Y-47684732D01*
X179997213Y-47631971D01*
X179997215Y-47631968D01*
X179997219Y-47631966D01*
X180141966Y-47487219D01*
X180141968Y-47487215D01*
X180141971Y-47487213D01*
X180262284Y-47321614D01*
X180262285Y-47321613D01*
X180262287Y-47321610D01*
X180309516Y-47228917D01*
X180357489Y-47178123D01*
X180425310Y-47161328D01*
X180491445Y-47183865D01*
X180530485Y-47228919D01*
X180577715Y-47321614D01*
X180698028Y-47487213D01*
X180842786Y-47631971D01*
X180997749Y-47744556D01*
X181008390Y-47752287D01*
X181124607Y-47811503D01*
X181190776Y-47845218D01*
X181190778Y-47845218D01*
X181190781Y-47845220D01*
X181295137Y-47879127D01*
X181385465Y-47908477D01*
X181486557Y-47924488D01*
X181587648Y-47940500D01*
X181587649Y-47940500D01*
X181792351Y-47940500D01*
X181792352Y-47940500D01*
X181994534Y-47908477D01*
X182189219Y-47845220D01*
X182371610Y-47752287D01*
X182464590Y-47684732D01*
X182537213Y-47631971D01*
X182537215Y-47631968D01*
X182537219Y-47631966D01*
X182681966Y-47487219D01*
X182681968Y-47487215D01*
X182681971Y-47487213D01*
X182802284Y-47321614D01*
X182802285Y-47321613D01*
X182802287Y-47321610D01*
X182849516Y-47228917D01*
X182897489Y-47178123D01*
X182965310Y-47161328D01*
X183031445Y-47183865D01*
X183070485Y-47228919D01*
X183117715Y-47321614D01*
X183238028Y-47487213D01*
X183382786Y-47631971D01*
X183537749Y-47744556D01*
X183548390Y-47752287D01*
X183664607Y-47811503D01*
X183730776Y-47845218D01*
X183730778Y-47845218D01*
X183730781Y-47845220D01*
X183835137Y-47879127D01*
X183925465Y-47908477D01*
X184026557Y-47924488D01*
X184127648Y-47940500D01*
X184127649Y-47940500D01*
X184332351Y-47940500D01*
X184332352Y-47940500D01*
X184534534Y-47908477D01*
X184729219Y-47845220D01*
X184911610Y-47752287D01*
X185004590Y-47684732D01*
X185077213Y-47631971D01*
X185077215Y-47631968D01*
X185077219Y-47631966D01*
X185221966Y-47487219D01*
X185221968Y-47487215D01*
X185221971Y-47487213D01*
X185342284Y-47321614D01*
X185342285Y-47321613D01*
X185342287Y-47321610D01*
X185389516Y-47228917D01*
X185437489Y-47178123D01*
X185505310Y-47161328D01*
X185571445Y-47183865D01*
X185610485Y-47228919D01*
X185657715Y-47321614D01*
X185778028Y-47487213D01*
X185922786Y-47631971D01*
X186077749Y-47744556D01*
X186088390Y-47752287D01*
X186204607Y-47811503D01*
X186270776Y-47845218D01*
X186270778Y-47845218D01*
X186270781Y-47845220D01*
X186375137Y-47879127D01*
X186465465Y-47908477D01*
X186566557Y-47924488D01*
X186667648Y-47940500D01*
X186667649Y-47940500D01*
X186872351Y-47940500D01*
X186872352Y-47940500D01*
X187074534Y-47908477D01*
X187269219Y-47845220D01*
X187451610Y-47752287D01*
X187544590Y-47684732D01*
X187617213Y-47631971D01*
X187617215Y-47631968D01*
X187617219Y-47631966D01*
X187761966Y-47487219D01*
X187761968Y-47487215D01*
X187761971Y-47487213D01*
X187882284Y-47321614D01*
X187882285Y-47321613D01*
X187882287Y-47321610D01*
X187929516Y-47228917D01*
X187977489Y-47178123D01*
X188045310Y-47161328D01*
X188111445Y-47183865D01*
X188150485Y-47228919D01*
X188197715Y-47321614D01*
X188318028Y-47487213D01*
X188462786Y-47631971D01*
X188617749Y-47744556D01*
X188628390Y-47752287D01*
X188744607Y-47811503D01*
X188810776Y-47845218D01*
X188810778Y-47845218D01*
X188810781Y-47845220D01*
X188915137Y-47879127D01*
X189005465Y-47908477D01*
X189106557Y-47924488D01*
X189207648Y-47940500D01*
X189207649Y-47940500D01*
X189412351Y-47940500D01*
X189412352Y-47940500D01*
X189614534Y-47908477D01*
X189809219Y-47845220D01*
X189991610Y-47752287D01*
X190084590Y-47684732D01*
X190157213Y-47631971D01*
X190157215Y-47631968D01*
X190157219Y-47631966D01*
X190301966Y-47487219D01*
X190301968Y-47487215D01*
X190301971Y-47487213D01*
X190422284Y-47321614D01*
X190422285Y-47321613D01*
X190422287Y-47321610D01*
X190469516Y-47228917D01*
X190517489Y-47178123D01*
X190585310Y-47161328D01*
X190651445Y-47183865D01*
X190690485Y-47228919D01*
X190737715Y-47321614D01*
X190858028Y-47487213D01*
X191002786Y-47631971D01*
X191157749Y-47744556D01*
X191168390Y-47752287D01*
X191284607Y-47811503D01*
X191350776Y-47845218D01*
X191350778Y-47845218D01*
X191350781Y-47845220D01*
X191455137Y-47879127D01*
X191545465Y-47908477D01*
X191646557Y-47924488D01*
X191747648Y-47940500D01*
X191747649Y-47940500D01*
X191952351Y-47940500D01*
X191952352Y-47940500D01*
X192154534Y-47908477D01*
X192349219Y-47845220D01*
X192531610Y-47752287D01*
X192624590Y-47684732D01*
X192697213Y-47631971D01*
X192697215Y-47631968D01*
X192697219Y-47631966D01*
X192841966Y-47487219D01*
X192841968Y-47487215D01*
X192841971Y-47487213D01*
X192962284Y-47321614D01*
X192962285Y-47321613D01*
X192962287Y-47321610D01*
X193009516Y-47228917D01*
X193057489Y-47178123D01*
X193125310Y-47161328D01*
X193191445Y-47183865D01*
X193230485Y-47228919D01*
X193277715Y-47321614D01*
X193398028Y-47487213D01*
X193542786Y-47631971D01*
X193697749Y-47744556D01*
X193708390Y-47752287D01*
X193824607Y-47811503D01*
X193890776Y-47845218D01*
X193890778Y-47845218D01*
X193890781Y-47845220D01*
X193995137Y-47879127D01*
X194085465Y-47908477D01*
X194186557Y-47924488D01*
X194287648Y-47940500D01*
X194287649Y-47940500D01*
X194492351Y-47940500D01*
X194492352Y-47940500D01*
X194694534Y-47908477D01*
X194889219Y-47845220D01*
X195071610Y-47752287D01*
X195164590Y-47684732D01*
X195237213Y-47631971D01*
X195237215Y-47631968D01*
X195237219Y-47631966D01*
X195381966Y-47487219D01*
X195381968Y-47487215D01*
X195381971Y-47487213D01*
X195434732Y-47414590D01*
X195502287Y-47321610D01*
X195595220Y-47139219D01*
X195658477Y-46944534D01*
X195690500Y-46742352D01*
X195690500Y-46537648D01*
X195658477Y-46335466D01*
X195595220Y-46140781D01*
X195595218Y-46140778D01*
X195595218Y-46140776D01*
X195549515Y-46051080D01*
X195502287Y-45958390D01*
X195494556Y-45947749D01*
X195381971Y-45792786D01*
X195237213Y-45648028D01*
X195071613Y-45527715D01*
X195071612Y-45527714D01*
X195071610Y-45527713D01*
X195014653Y-45498691D01*
X194889223Y-45434781D01*
X194694534Y-45371522D01*
X194519995Y-45343878D01*
X194492352Y-45339500D01*
X194287648Y-45339500D01*
X194263329Y-45343351D01*
X194085465Y-45371522D01*
X193890776Y-45434781D01*
X193708386Y-45527715D01*
X193542786Y-45648028D01*
X193398028Y-45792786D01*
X193277715Y-45958386D01*
X193230485Y-46051080D01*
X193182510Y-46101876D01*
X193114689Y-46118671D01*
X193048554Y-46096134D01*
X193009515Y-46051080D01*
X193008883Y-46049840D01*
X192962287Y-45958390D01*
X192954556Y-45947749D01*
X192841971Y-45792786D01*
X192697213Y-45648028D01*
X192531613Y-45527715D01*
X192531612Y-45527714D01*
X192531610Y-45527713D01*
X192474653Y-45498691D01*
X192349223Y-45434781D01*
X192154534Y-45371522D01*
X191979995Y-45343878D01*
X191952352Y-45339500D01*
X191747648Y-45339500D01*
X191723329Y-45343351D01*
X191545465Y-45371522D01*
X191350776Y-45434781D01*
X191168386Y-45527715D01*
X191002786Y-45648028D01*
X190858028Y-45792786D01*
X190737715Y-45958386D01*
X190690485Y-46051080D01*
X190642510Y-46101876D01*
X190574689Y-46118671D01*
X190508554Y-46096134D01*
X190469515Y-46051080D01*
X190468883Y-46049840D01*
X190422287Y-45958390D01*
X190414556Y-45947749D01*
X190301971Y-45792786D01*
X190157213Y-45648028D01*
X189991613Y-45527715D01*
X189991612Y-45527714D01*
X189991610Y-45527713D01*
X189934653Y-45498691D01*
X189809223Y-45434781D01*
X189614534Y-45371522D01*
X189439995Y-45343878D01*
X189412352Y-45339500D01*
X189207648Y-45339500D01*
X189183329Y-45343351D01*
X189005465Y-45371522D01*
X188810776Y-45434781D01*
X188628386Y-45527715D01*
X188462786Y-45648028D01*
X188318028Y-45792786D01*
X188197715Y-45958386D01*
X188150485Y-46051080D01*
X188102510Y-46101876D01*
X188034689Y-46118671D01*
X187968554Y-46096134D01*
X187929515Y-46051080D01*
X187928883Y-46049840D01*
X187882287Y-45958390D01*
X187874556Y-45947749D01*
X187761971Y-45792786D01*
X187617213Y-45648028D01*
X187451613Y-45527715D01*
X187451612Y-45527714D01*
X187451610Y-45527713D01*
X187394653Y-45498691D01*
X187269223Y-45434781D01*
X187074534Y-45371522D01*
X186899995Y-45343878D01*
X186872352Y-45339500D01*
X186667648Y-45339500D01*
X186643329Y-45343351D01*
X186465465Y-45371522D01*
X186270776Y-45434781D01*
X186088386Y-45527715D01*
X185922786Y-45648028D01*
X185778028Y-45792786D01*
X185657715Y-45958386D01*
X185610485Y-46051080D01*
X185562510Y-46101876D01*
X185494689Y-46118671D01*
X185428554Y-46096134D01*
X185389515Y-46051080D01*
X185388883Y-46049840D01*
X185342287Y-45958390D01*
X185334556Y-45947749D01*
X185221971Y-45792786D01*
X185077213Y-45648028D01*
X184911613Y-45527715D01*
X184911612Y-45527714D01*
X184911610Y-45527713D01*
X184854653Y-45498691D01*
X184729223Y-45434781D01*
X184534534Y-45371522D01*
X184359995Y-45343878D01*
X184332352Y-45339500D01*
X184127648Y-45339500D01*
X184103329Y-45343351D01*
X183925465Y-45371522D01*
X183730776Y-45434781D01*
X183548386Y-45527715D01*
X183382786Y-45648028D01*
X183238028Y-45792786D01*
X183117715Y-45958386D01*
X183070485Y-46051080D01*
X183022510Y-46101876D01*
X182954689Y-46118671D01*
X182888554Y-46096134D01*
X182849515Y-46051080D01*
X182848883Y-46049840D01*
X182802287Y-45958390D01*
X182794556Y-45947749D01*
X182681971Y-45792786D01*
X182537213Y-45648028D01*
X182371613Y-45527715D01*
X182371612Y-45527714D01*
X182371610Y-45527713D01*
X182314653Y-45498691D01*
X182189223Y-45434781D01*
X181994534Y-45371522D01*
X181819995Y-45343878D01*
X181792352Y-45339500D01*
X181587648Y-45339500D01*
X181563329Y-45343351D01*
X181385465Y-45371522D01*
X181190776Y-45434781D01*
X181008386Y-45527715D01*
X180842786Y-45648028D01*
X180698028Y-45792786D01*
X180577715Y-45958386D01*
X180530485Y-46051080D01*
X180482510Y-46101876D01*
X180414689Y-46118671D01*
X180348554Y-46096134D01*
X180309515Y-46051080D01*
X180308883Y-46049840D01*
X180262287Y-45958390D01*
X180254556Y-45947749D01*
X180141971Y-45792786D01*
X179997213Y-45648028D01*
X179831613Y-45527715D01*
X179831612Y-45527714D01*
X179831610Y-45527713D01*
X179774653Y-45498691D01*
X179649223Y-45434781D01*
X179454534Y-45371522D01*
X179279995Y-45343878D01*
X179252352Y-45339500D01*
X179047648Y-45339500D01*
X179023329Y-45343351D01*
X178845465Y-45371522D01*
X178650776Y-45434781D01*
X178468386Y-45527715D01*
X178302786Y-45648028D01*
X178158028Y-45792786D01*
X178037715Y-45958386D01*
X177990485Y-46051080D01*
X177942510Y-46101876D01*
X177874689Y-46118671D01*
X177808554Y-46096134D01*
X177769515Y-46051080D01*
X177768883Y-46049840D01*
X177722287Y-45958390D01*
X177714556Y-45947749D01*
X177601971Y-45792786D01*
X177457213Y-45648028D01*
X177291613Y-45527715D01*
X177291612Y-45527714D01*
X177291610Y-45527713D01*
X177234653Y-45498691D01*
X177109223Y-45434781D01*
X176914534Y-45371522D01*
X176739995Y-45343878D01*
X176712352Y-45339500D01*
X176507648Y-45339500D01*
X176483329Y-45343351D01*
X176305465Y-45371522D01*
X176110776Y-45434781D01*
X175928386Y-45527715D01*
X175762786Y-45648028D01*
X175618028Y-45792786D01*
X175497715Y-45958386D01*
X175404781Y-46140776D01*
X175341522Y-46335465D01*
X175309500Y-46537648D01*
X167370000Y-46537648D01*
X167370000Y-40502000D01*
X121344099Y-40502000D01*
X121277060Y-40482315D01*
X121231305Y-40429511D01*
X121221361Y-40360353D01*
X121229538Y-40330548D01*
X121269735Y-40233501D01*
X121269737Y-40233497D01*
X121300500Y-40078842D01*
X121300500Y-39921158D01*
X121300500Y-39921155D01*
X121300499Y-39921153D01*
X121269738Y-39766510D01*
X121269737Y-39766503D01*
X121209394Y-39620821D01*
X121174694Y-39568889D01*
X121153816Y-39502215D01*
X121172300Y-39434835D01*
X121174676Y-39431136D01*
X121209394Y-39379179D01*
X121269737Y-39233497D01*
X121300500Y-39078842D01*
X121300500Y-38921158D01*
X121300500Y-38921155D01*
X121300499Y-38921153D01*
X121275302Y-38794480D01*
X121269737Y-38766503D01*
X121227360Y-38664195D01*
X121209397Y-38620827D01*
X121209390Y-38620814D01*
X121121789Y-38489711D01*
X121121786Y-38489707D01*
X121010292Y-38378213D01*
X121010288Y-38378210D01*
X120879185Y-38290609D01*
X120879172Y-38290602D01*
X120733501Y-38230264D01*
X120733489Y-38230261D01*
X120578845Y-38199500D01*
X120578842Y-38199500D01*
X120421158Y-38199500D01*
X120421155Y-38199500D01*
X120266510Y-38230261D01*
X120266498Y-38230264D01*
X120120827Y-38290602D01*
X120120814Y-38290609D01*
X119989711Y-38378210D01*
X119989707Y-38378213D01*
X119878213Y-38489707D01*
X119878210Y-38489711D01*
X119791562Y-38619390D01*
X119737950Y-38664195D01*
X119688460Y-38674499D01*
X118485860Y-38674499D01*
X118327746Y-38674499D01*
X118175018Y-38715422D01*
X118175017Y-38715422D01*
X118175015Y-38715423D01*
X118175012Y-38715424D01*
X118124899Y-38744358D01*
X118124898Y-38744359D01*
X118086552Y-38766498D01*
X118038088Y-38794478D01*
X118038085Y-38794480D01*
X116794479Y-40038086D01*
X116777940Y-40066733D01*
X116770950Y-40078842D01*
X116715423Y-40175017D01*
X116674499Y-40327745D01*
X116674499Y-40485859D01*
X116674499Y-40485861D01*
X116674500Y-40495855D01*
X116674500Y-64506528D01*
X116674499Y-64506546D01*
X116674499Y-64672252D01*
X116674498Y-64672252D01*
X101084500Y-64672252D01*
X101084500Y-34973153D01*
X147287500Y-34973153D01*
X147287500Y-35130846D01*
X147318261Y-35285489D01*
X147318264Y-35285501D01*
X147378602Y-35431172D01*
X147378609Y-35431185D01*
X147466210Y-35562288D01*
X147466213Y-35562292D01*
X147577707Y-35673786D01*
X147577711Y-35673789D01*
X147708814Y-35761390D01*
X147708827Y-35761397D01*
X147808060Y-35802500D01*
X147854503Y-35821737D01*
X148009153Y-35852499D01*
X148009156Y-35852500D01*
X148009158Y-35852500D01*
X148166844Y-35852500D01*
X148166845Y-35852499D01*
X148243152Y-35837320D01*
X148321488Y-35821739D01*
X148321489Y-35821738D01*
X148321497Y-35821737D01*
X148345155Y-35811937D01*
X148392604Y-35802500D01*
X158829920Y-35802500D01*
X158927462Y-35783096D01*
X158974913Y-35773658D01*
X159111495Y-35717084D01*
X159176291Y-35673789D01*
X159176294Y-35673786D01*
X159176296Y-35673786D01*
X159205547Y-35654240D01*
X159234416Y-35634952D01*
X161859295Y-33010070D01*
X161899519Y-32983193D01*
X161923179Y-32973394D01*
X162054289Y-32885789D01*
X162165789Y-32774289D01*
X162253394Y-32643179D01*
X162313737Y-32497497D01*
X162344500Y-32342842D01*
X162344500Y-32185158D01*
X162344500Y-32185155D01*
X162344499Y-32185153D01*
X162313739Y-32030511D01*
X162313738Y-32030508D01*
X162313737Y-32030503D01*
X162303937Y-32006844D01*
X162294500Y-31959396D01*
X162294500Y-26466604D01*
X162303939Y-26419151D01*
X162313737Y-26395497D01*
X162344500Y-26240842D01*
X162344500Y-26083158D01*
X162344500Y-26083155D01*
X162344499Y-26083153D01*
X162313738Y-25928510D01*
X162313737Y-25928503D01*
X162313735Y-25928498D01*
X162253397Y-25782827D01*
X162253390Y-25782814D01*
X162165789Y-25651711D01*
X162165786Y-25651707D01*
X162054289Y-25540210D01*
X162036167Y-25528102D01*
X161991362Y-25474490D01*
X161982655Y-25405165D01*
X162012809Y-25342138D01*
X162072252Y-25305418D01*
X162105058Y-25301000D01*
X162962003Y-25301000D01*
X162962008Y-25301000D01*
X163064797Y-25290499D01*
X163231334Y-25235314D01*
X163380655Y-25143211D01*
X163504711Y-25019155D01*
X163596814Y-24869834D01*
X163651999Y-24703297D01*
X163662500Y-24600508D01*
X163662500Y-22200492D01*
X163651999Y-22097703D01*
X163596814Y-21931166D01*
X163572594Y-21891900D01*
X163504713Y-21781848D01*
X163504710Y-21781844D01*
X163380655Y-21657789D01*
X163380651Y-21657786D01*
X163231337Y-21565687D01*
X163231335Y-21565686D01*
X163148065Y-21538093D01*
X163064797Y-21510501D01*
X163064795Y-21510500D01*
X162962015Y-21500000D01*
X162962008Y-21500000D01*
X160561992Y-21500000D01*
X160561984Y-21500000D01*
X160459204Y-21510500D01*
X160459203Y-21510501D01*
X160292664Y-21565686D01*
X160292662Y-21565687D01*
X160143348Y-21657786D01*
X160143344Y-21657789D01*
X160019289Y-21781844D01*
X160019286Y-21781848D01*
X159927187Y-21931162D01*
X159927186Y-21931164D01*
X159872001Y-22097703D01*
X159872000Y-22097704D01*
X159861500Y-22200484D01*
X159861500Y-24600515D01*
X159872000Y-24703295D01*
X159872001Y-24703296D01*
X159927186Y-24869835D01*
X159927187Y-24869837D01*
X160019286Y-25019151D01*
X160019289Y-25019155D01*
X160143344Y-25143210D01*
X160143348Y-25143213D01*
X160292662Y-25235312D01*
X160292664Y-25235313D01*
X160292666Y-25235314D01*
X160459203Y-25290499D01*
X160561992Y-25301000D01*
X160561997Y-25301000D01*
X160982942Y-25301000D01*
X161049981Y-25320685D01*
X161095736Y-25373489D01*
X161105680Y-25442647D01*
X161076655Y-25506203D01*
X161051833Y-25528102D01*
X161033710Y-25540210D01*
X160922213Y-25651707D01*
X160922210Y-25651711D01*
X160834609Y-25782814D01*
X160834602Y-25782827D01*
X160774264Y-25928498D01*
X160774261Y-25928510D01*
X160743500Y-26083153D01*
X160743500Y-26240846D01*
X160774261Y-26395489D01*
X160774263Y-26395497D01*
X160784061Y-26419151D01*
X160793500Y-26466604D01*
X160793500Y-31901770D01*
X160773815Y-31968809D01*
X160757181Y-31989451D01*
X158481451Y-34265181D01*
X158420128Y-34298666D01*
X158393770Y-34301500D01*
X148392604Y-34301500D01*
X148345155Y-34292062D01*
X148321497Y-34282263D01*
X148321493Y-34282262D01*
X148321488Y-34282260D01*
X148166845Y-34251500D01*
X148166842Y-34251500D01*
X148009158Y-34251500D01*
X148009155Y-34251500D01*
X147854510Y-34282261D01*
X147854498Y-34282264D01*
X147708827Y-34342602D01*
X147708814Y-34342609D01*
X147577711Y-34430210D01*
X147577707Y-34430213D01*
X147466213Y-34541707D01*
X147466210Y-34541711D01*
X147378609Y-34672814D01*
X147378602Y-34672827D01*
X147318264Y-34818498D01*
X147318261Y-34818510D01*
X147287500Y-34973153D01*
X101084500Y-34973153D01*
X101084500Y-26981504D01*
X128680000Y-26981504D01*
X128680000Y-27380000D01*
X129380000Y-27380000D01*
X129380000Y-27880000D01*
X128680000Y-27880000D01*
X128680000Y-28278495D01*
X128718427Y-28471681D01*
X128718430Y-28471693D01*
X128793807Y-28653671D01*
X128793814Y-28653684D01*
X128903248Y-28817462D01*
X128903251Y-28817466D01*
X129042533Y-28956748D01*
X129042537Y-28956751D01*
X129206315Y-29066185D01*
X129206328Y-29066192D01*
X129388308Y-29141569D01*
X129430000Y-29149862D01*
X129430000Y-28346988D01*
X129439940Y-28364205D01*
X129495795Y-28420060D01*
X129564204Y-28459556D01*
X129640504Y-28480000D01*
X129719496Y-28480000D01*
X129795796Y-28459556D01*
X129864205Y-28420060D01*
X129920060Y-28364205D01*
X129930000Y-28346988D01*
X129930000Y-29149862D01*
X129971690Y-29141569D01*
X129971692Y-29141569D01*
X130153671Y-29066192D01*
X130153684Y-29066185D01*
X130317462Y-28956751D01*
X130317466Y-28956748D01*
X130456748Y-28817466D01*
X130456751Y-28817462D01*
X130566185Y-28653684D01*
X130566192Y-28653671D01*
X130641569Y-28471693D01*
X130641572Y-28471681D01*
X130679999Y-28278495D01*
X130680000Y-28278492D01*
X130680000Y-27880000D01*
X129980000Y-27880000D01*
X129980000Y-27380000D01*
X130535536Y-27380000D01*
X130602575Y-27399685D01*
X130642923Y-27442000D01*
X130649482Y-27453361D01*
X130649484Y-27453364D01*
X130649485Y-27453365D01*
X130756635Y-27560515D01*
X130887865Y-27636281D01*
X131034234Y-27675500D01*
X131034236Y-27675500D01*
X131185764Y-27675500D01*
X131185766Y-27675500D01*
X131332135Y-27636281D01*
X131463365Y-27560515D01*
X131570515Y-27453365D01*
X131646281Y-27322135D01*
X131685500Y-27175766D01*
X131685500Y-27024234D01*
X136314500Y-27024234D01*
X136314500Y-27175765D01*
X136353719Y-27322136D01*
X136391602Y-27387750D01*
X136429485Y-27453365D01*
X136536635Y-27560515D01*
X136667865Y-27636281D01*
X136814234Y-27675500D01*
X136814236Y-27675500D01*
X136965764Y-27675500D01*
X136965766Y-27675500D01*
X137112135Y-27636281D01*
X137243365Y-27560515D01*
X137350515Y-27453365D01*
X137357077Y-27442000D01*
X137407644Y-27393784D01*
X137464464Y-27380000D01*
X138020000Y-27380000D01*
X138020000Y-27880000D01*
X137320000Y-27880000D01*
X137320000Y-28278495D01*
X137358427Y-28471681D01*
X137358430Y-28471693D01*
X137433807Y-28653671D01*
X137433814Y-28653684D01*
X137543248Y-28817462D01*
X137543251Y-28817466D01*
X137682533Y-28956748D01*
X137682537Y-28956751D01*
X137846315Y-29066185D01*
X137846328Y-29066192D01*
X138028308Y-29141569D01*
X138070000Y-29149862D01*
X138070000Y-28346988D01*
X138079940Y-28364205D01*
X138135795Y-28420060D01*
X138204204Y-28459556D01*
X138280504Y-28480000D01*
X138359496Y-28480000D01*
X138435796Y-28459556D01*
X138504205Y-28420060D01*
X138560060Y-28364205D01*
X138570000Y-28346988D01*
X138570000Y-29149862D01*
X138611690Y-29141569D01*
X138611692Y-29141569D01*
X138793671Y-29066192D01*
X138793684Y-29066185D01*
X138957462Y-28956751D01*
X138957466Y-28956748D01*
X139096748Y-28817466D01*
X139096751Y-28817462D01*
X139206185Y-28653684D01*
X139206192Y-28653671D01*
X139281569Y-28471693D01*
X139281572Y-28471681D01*
X139319999Y-28278495D01*
X139320000Y-28278492D01*
X139320000Y-27880000D01*
X138620000Y-27880000D01*
X138620000Y-27380000D01*
X139320000Y-27380000D01*
X139320000Y-26981508D01*
X139319999Y-26981504D01*
X139281572Y-26788318D01*
X139281569Y-26788306D01*
X139206192Y-26606328D01*
X139206185Y-26606315D01*
X139096751Y-26442537D01*
X139096748Y-26442533D01*
X138957466Y-26303251D01*
X138957462Y-26303248D01*
X138793684Y-26193814D01*
X138793671Y-26193807D01*
X138611691Y-26118429D01*
X138611683Y-26118427D01*
X138570000Y-26110135D01*
X138570000Y-26913011D01*
X138560060Y-26895795D01*
X138504205Y-26839940D01*
X138435796Y-26800444D01*
X138359496Y-26780000D01*
X138280504Y-26780000D01*
X138204204Y-26800444D01*
X138135795Y-26839940D01*
X138079940Y-26895795D01*
X138070000Y-26913011D01*
X138070000Y-26110136D01*
X138069999Y-26110135D01*
X138028316Y-26118427D01*
X138028308Y-26118429D01*
X137846328Y-26193807D01*
X137846315Y-26193814D01*
X137682537Y-26303248D01*
X137682533Y-26303251D01*
X137543248Y-26442536D01*
X137430427Y-26611387D01*
X137429003Y-26610435D01*
X137385742Y-26654451D01*
X137317600Y-26669892D01*
X137251927Y-26646041D01*
X137249907Y-26644306D01*
X137249811Y-26644432D01*
X137243367Y-26639487D01*
X137243365Y-26639485D01*
X137177750Y-26601602D01*
X137112136Y-26563719D01*
X137038950Y-26544109D01*
X136965766Y-26524500D01*
X136814234Y-26524500D01*
X136667863Y-26563719D01*
X136536635Y-26639485D01*
X136536632Y-26639487D01*
X136429487Y-26746632D01*
X136429485Y-26746635D01*
X136353719Y-26877863D01*
X136314500Y-27024234D01*
X131685500Y-27024234D01*
X131646281Y-26877865D01*
X131570515Y-26746635D01*
X131463365Y-26639485D01*
X131397750Y-26601602D01*
X131332136Y-26563719D01*
X131258950Y-26544109D01*
X131185766Y-26524500D01*
X131034234Y-26524500D01*
X130887863Y-26563719D01*
X130756635Y-26639485D01*
X130750189Y-26644432D01*
X130748099Y-26641709D01*
X130700217Y-26667466D01*
X130630558Y-26662043D01*
X130574888Y-26619821D01*
X130569299Y-26610976D01*
X130456751Y-26442537D01*
X130456748Y-26442533D01*
X130317466Y-26303251D01*
X130317462Y-26303248D01*
X130153684Y-26193814D01*
X130153671Y-26193807D01*
X129971691Y-26118429D01*
X129971683Y-26118427D01*
X129930000Y-26110135D01*
X129930000Y-26913011D01*
X129920060Y-26895795D01*
X129864205Y-26839940D01*
X129795796Y-26800444D01*
X129719496Y-26780000D01*
X129640504Y-26780000D01*
X129564204Y-26800444D01*
X129495795Y-26839940D01*
X129439940Y-26895795D01*
X129430000Y-26913011D01*
X129430000Y-26110136D01*
X129429999Y-26110135D01*
X129388316Y-26118427D01*
X129388308Y-26118429D01*
X129206328Y-26193807D01*
X129206315Y-26193814D01*
X129042537Y-26303248D01*
X129042533Y-26303251D01*
X128903251Y-26442533D01*
X128903248Y-26442537D01*
X128793814Y-26606315D01*
X128793807Y-26606328D01*
X128718430Y-26788306D01*
X128718427Y-26788318D01*
X128680000Y-26981504D01*
X101084500Y-26981504D01*
X101084500Y-23051504D01*
X128680000Y-23051504D01*
X128680000Y-23200000D01*
X129380000Y-23200000D01*
X129380000Y-23700000D01*
X128680000Y-23700000D01*
X128680000Y-23848495D01*
X128718427Y-24041681D01*
X128718430Y-24041693D01*
X128793807Y-24223671D01*
X128793814Y-24223684D01*
X128903248Y-24387462D01*
X128903251Y-24387466D01*
X129042533Y-24526748D01*
X129042537Y-24526751D01*
X129206315Y-24636185D01*
X129206328Y-24636192D01*
X129388308Y-24711569D01*
X129430000Y-24719862D01*
X129430000Y-23916988D01*
X129439940Y-23934205D01*
X129495795Y-23990060D01*
X129564204Y-24029556D01*
X129640504Y-24050000D01*
X129719496Y-24050000D01*
X129795796Y-24029556D01*
X129864205Y-23990060D01*
X129920060Y-23934205D01*
X129930000Y-23916988D01*
X129930000Y-24719862D01*
X129971690Y-24711569D01*
X129971692Y-24711569D01*
X130153671Y-24636192D01*
X130153684Y-24636185D01*
X130317462Y-24526751D01*
X130317466Y-24526748D01*
X130456748Y-24387466D01*
X130456751Y-24387462D01*
X130566185Y-24223684D01*
X130566192Y-24223671D01*
X130641569Y-24041693D01*
X130641572Y-24041681D01*
X130679999Y-23848495D01*
X130680000Y-23848492D01*
X130680000Y-23700000D01*
X129980000Y-23700000D01*
X129980000Y-23200000D01*
X130680000Y-23200000D01*
X130680000Y-23051508D01*
X130679999Y-23051504D01*
X137320000Y-23051504D01*
X137320000Y-23200000D01*
X138020000Y-23200000D01*
X138020000Y-23700000D01*
X137320000Y-23700000D01*
X137320000Y-23848495D01*
X137358427Y-24041681D01*
X137358430Y-24041693D01*
X137433807Y-24223671D01*
X137433814Y-24223684D01*
X137543248Y-24387462D01*
X137543251Y-24387466D01*
X137682533Y-24526748D01*
X137682537Y-24526751D01*
X137846315Y-24636185D01*
X137846328Y-24636192D01*
X138028308Y-24711569D01*
X138070000Y-24719862D01*
X138070000Y-23916988D01*
X138079940Y-23934205D01*
X138135795Y-23990060D01*
X138204204Y-24029556D01*
X138280504Y-24050000D01*
X138359496Y-24050000D01*
X138435796Y-24029556D01*
X138504205Y-23990060D01*
X138560060Y-23934205D01*
X138570000Y-23916988D01*
X138570000Y-24719862D01*
X138611690Y-24711569D01*
X138611692Y-24711569D01*
X138793671Y-24636192D01*
X138793684Y-24636185D01*
X138957462Y-24526751D01*
X138957466Y-24526748D01*
X139096748Y-24387466D01*
X139096751Y-24387462D01*
X139206185Y-24223684D01*
X139206192Y-24223671D01*
X139281569Y-24041693D01*
X139281572Y-24041681D01*
X139319999Y-23848495D01*
X139320000Y-23848492D01*
X139320000Y-23700000D01*
X138620000Y-23700000D01*
X138620000Y-23275966D01*
X142162000Y-23275966D01*
X142162000Y-23525033D01*
X142194508Y-23771963D01*
X142258973Y-24012549D01*
X142354283Y-24242648D01*
X142354288Y-24242659D01*
X142478813Y-24458341D01*
X142478819Y-24458349D01*
X142553400Y-24555545D01*
X143460958Y-23647987D01*
X143485978Y-23708390D01*
X143557112Y-23814851D01*
X143647649Y-23905388D01*
X143754110Y-23976522D01*
X143814511Y-24001541D01*
X142906953Y-24909098D01*
X143004150Y-24983680D01*
X143004158Y-24983686D01*
X143219840Y-25108211D01*
X143219851Y-25108216D01*
X143449950Y-25203526D01*
X143690536Y-25267991D01*
X143937466Y-25300500D01*
X144186534Y-25300500D01*
X144433463Y-25267991D01*
X144674049Y-25203526D01*
X144904148Y-25108216D01*
X144904159Y-25108211D01*
X145119855Y-24983678D01*
X145217045Y-24909100D01*
X145217045Y-24909097D01*
X144309488Y-24001541D01*
X144369890Y-23976522D01*
X144476351Y-23905388D01*
X144566888Y-23814851D01*
X144638022Y-23708390D01*
X144663041Y-23647989D01*
X145570597Y-24555545D01*
X145570600Y-24555545D01*
X145645178Y-24458355D01*
X145769711Y-24242659D01*
X145769716Y-24242648D01*
X145865026Y-24012549D01*
X145929491Y-23771963D01*
X145962000Y-23525033D01*
X145962000Y-23275966D01*
X145929491Y-23029036D01*
X145865026Y-22788450D01*
X145769716Y-22558351D01*
X145769711Y-22558340D01*
X145645186Y-22342658D01*
X145645174Y-22342640D01*
X145591600Y-22272822D01*
X145591599Y-22272821D01*
X145570598Y-22245453D01*
X144663041Y-23153010D01*
X144638022Y-23092610D01*
X144566888Y-22986149D01*
X144476351Y-22895612D01*
X144369890Y-22824478D01*
X144309487Y-22799457D01*
X144908461Y-22200484D01*
X147161500Y-22200484D01*
X147161500Y-24600515D01*
X147172000Y-24703295D01*
X147172001Y-24703296D01*
X147227186Y-24869835D01*
X147227187Y-24869837D01*
X147319286Y-25019151D01*
X147319289Y-25019155D01*
X147443344Y-25143210D01*
X147443348Y-25143213D01*
X147592662Y-25235312D01*
X147592664Y-25235313D01*
X147592666Y-25235314D01*
X147759203Y-25290499D01*
X147861992Y-25301000D01*
X147861997Y-25301000D01*
X150262003Y-25301000D01*
X150262008Y-25301000D01*
X150364797Y-25290499D01*
X150531334Y-25235314D01*
X150680655Y-25143211D01*
X150804711Y-25019155D01*
X150896814Y-24869834D01*
X150951999Y-24703297D01*
X150962500Y-24600508D01*
X150962500Y-23275966D01*
X154862000Y-23275966D01*
X154862000Y-23525033D01*
X154894508Y-23771963D01*
X154958973Y-24012549D01*
X155054283Y-24242648D01*
X155054288Y-24242659D01*
X155178813Y-24458341D01*
X155178819Y-24458349D01*
X155253400Y-24555545D01*
X156160958Y-23647987D01*
X156185978Y-23708390D01*
X156257112Y-23814851D01*
X156347649Y-23905388D01*
X156454110Y-23976522D01*
X156514511Y-24001541D01*
X155606953Y-24909098D01*
X155704150Y-24983680D01*
X155704158Y-24983686D01*
X155919840Y-25108211D01*
X155919851Y-25108216D01*
X156149950Y-25203526D01*
X156390536Y-25267991D01*
X156637466Y-25300500D01*
X156886534Y-25300500D01*
X157133463Y-25267991D01*
X157374049Y-25203526D01*
X157604148Y-25108216D01*
X157604159Y-25108211D01*
X157819855Y-24983678D01*
X157917045Y-24909100D01*
X157917045Y-24909097D01*
X157009488Y-24001541D01*
X157069890Y-23976522D01*
X157176351Y-23905388D01*
X157266888Y-23814851D01*
X157338022Y-23708390D01*
X157363041Y-23647989D01*
X158270597Y-24555545D01*
X158270600Y-24555545D01*
X158345178Y-24458355D01*
X158469711Y-24242659D01*
X158469716Y-24242648D01*
X158565026Y-24012549D01*
X158629491Y-23771963D01*
X158662000Y-23525033D01*
X158662000Y-23275966D01*
X158629491Y-23029036D01*
X158565026Y-22788450D01*
X158469716Y-22558351D01*
X158469711Y-22558340D01*
X158345186Y-22342658D01*
X158345180Y-22342650D01*
X158270598Y-22245453D01*
X157363041Y-23153010D01*
X157338022Y-23092610D01*
X157266888Y-22986149D01*
X157176351Y-22895612D01*
X157069890Y-22824478D01*
X157009487Y-22799457D01*
X157917045Y-21891900D01*
X157819849Y-21817319D01*
X157819841Y-21817313D01*
X157604159Y-21692788D01*
X157604148Y-21692783D01*
X157374049Y-21597473D01*
X157133463Y-21533008D01*
X156886534Y-21500500D01*
X156637466Y-21500500D01*
X156390536Y-21533008D01*
X156149950Y-21597473D01*
X155919851Y-21692783D01*
X155919847Y-21692785D01*
X155704143Y-21817323D01*
X155606953Y-21891899D01*
X155606953Y-21891900D01*
X156514511Y-22799458D01*
X156454110Y-22824478D01*
X156347649Y-22895612D01*
X156257112Y-22986149D01*
X156185978Y-23092610D01*
X156160958Y-23153011D01*
X155253400Y-22245453D01*
X155253399Y-22245453D01*
X155178823Y-22342643D01*
X155054285Y-22558347D01*
X155054283Y-22558351D01*
X154958973Y-22788450D01*
X154894508Y-23029036D01*
X154862000Y-23275966D01*
X150962500Y-23275966D01*
X150962500Y-22200492D01*
X150951999Y-22097703D01*
X150896814Y-21931166D01*
X150872594Y-21891900D01*
X150804713Y-21781848D01*
X150804710Y-21781844D01*
X150680655Y-21657789D01*
X150680651Y-21657786D01*
X150531337Y-21565687D01*
X150531335Y-21565686D01*
X150448065Y-21538093D01*
X150364797Y-21510501D01*
X150364795Y-21510500D01*
X150262015Y-21500000D01*
X150262008Y-21500000D01*
X147861992Y-21500000D01*
X147861984Y-21500000D01*
X147759204Y-21510500D01*
X147759203Y-21510501D01*
X147592664Y-21565686D01*
X147592662Y-21565687D01*
X147443348Y-21657786D01*
X147443344Y-21657789D01*
X147319289Y-21781844D01*
X147319286Y-21781848D01*
X147227187Y-21931162D01*
X147227186Y-21931164D01*
X147172001Y-22097703D01*
X147172000Y-22097704D01*
X147161500Y-22200484D01*
X144908461Y-22200484D01*
X145217045Y-21891900D01*
X145119849Y-21817319D01*
X145119841Y-21817313D01*
X144904159Y-21692788D01*
X144904148Y-21692783D01*
X144674049Y-21597473D01*
X144433463Y-21533008D01*
X144186534Y-21500500D01*
X143937466Y-21500500D01*
X143690536Y-21533008D01*
X143449950Y-21597473D01*
X143219851Y-21692783D01*
X143219847Y-21692785D01*
X143004143Y-21817323D01*
X142906953Y-21891899D01*
X142906953Y-21891900D01*
X143814511Y-22799458D01*
X143754110Y-22824478D01*
X143647649Y-22895612D01*
X143557112Y-22986149D01*
X143485978Y-23092610D01*
X143460958Y-23153011D01*
X142553400Y-22245453D01*
X142553399Y-22245453D01*
X142478823Y-22342643D01*
X142354285Y-22558347D01*
X142354283Y-22558351D01*
X142258973Y-22788450D01*
X142194508Y-23029036D01*
X142162000Y-23275966D01*
X138620000Y-23275966D01*
X138620000Y-23200000D01*
X139320000Y-23200000D01*
X139320000Y-23051508D01*
X139319999Y-23051504D01*
X139281572Y-22858318D01*
X139281569Y-22858306D01*
X139206192Y-22676328D01*
X139206185Y-22676315D01*
X139096751Y-22512537D01*
X139096748Y-22512533D01*
X138957466Y-22373251D01*
X138957462Y-22373248D01*
X138793684Y-22263814D01*
X138793671Y-22263807D01*
X138611691Y-22188429D01*
X138611683Y-22188427D01*
X138570000Y-22180135D01*
X138570000Y-22983011D01*
X138560060Y-22965795D01*
X138504205Y-22909940D01*
X138435796Y-22870444D01*
X138359496Y-22850000D01*
X138280504Y-22850000D01*
X138204204Y-22870444D01*
X138135795Y-22909940D01*
X138079940Y-22965795D01*
X138070000Y-22983011D01*
X138070000Y-22180136D01*
X138069999Y-22180135D01*
X138028316Y-22188427D01*
X138028308Y-22188429D01*
X137846328Y-22263807D01*
X137846315Y-22263814D01*
X137682537Y-22373248D01*
X137682533Y-22373251D01*
X137543251Y-22512533D01*
X137543248Y-22512537D01*
X137433814Y-22676315D01*
X137433807Y-22676328D01*
X137358430Y-22858306D01*
X137358427Y-22858318D01*
X137320000Y-23051504D01*
X130679999Y-23051504D01*
X130641572Y-22858318D01*
X130641569Y-22858306D01*
X130566192Y-22676328D01*
X130566185Y-22676315D01*
X130456751Y-22512537D01*
X130456748Y-22512533D01*
X130317466Y-22373251D01*
X130317462Y-22373248D01*
X130153684Y-22263814D01*
X130153671Y-22263807D01*
X129971691Y-22188429D01*
X129971683Y-22188427D01*
X129930000Y-22180135D01*
X129930000Y-22983011D01*
X129920060Y-22965795D01*
X129864205Y-22909940D01*
X129795796Y-22870444D01*
X129719496Y-22850000D01*
X129640504Y-22850000D01*
X129564204Y-22870444D01*
X129495795Y-22909940D01*
X129439940Y-22965795D01*
X129430000Y-22983011D01*
X129430000Y-22180136D01*
X129429999Y-22180135D01*
X129388316Y-22188427D01*
X129388308Y-22188429D01*
X129206328Y-22263807D01*
X129206315Y-22263814D01*
X129042537Y-22373248D01*
X129042533Y-22373251D01*
X128903251Y-22512533D01*
X128903248Y-22512537D01*
X128793814Y-22676315D01*
X128793807Y-22676328D01*
X128718430Y-22858306D01*
X128718427Y-22858318D01*
X128680000Y-23051504D01*
X101084500Y-23051504D01*
X101084500Y-21229713D01*
X101773500Y-21229713D01*
X101773500Y-21442286D01*
X101793044Y-21565686D01*
X101806754Y-21652243D01*
X101848865Y-21781848D01*
X101872444Y-21854414D01*
X101968951Y-22043820D01*
X102093890Y-22215786D01*
X102244213Y-22366109D01*
X102416179Y-22491048D01*
X102416181Y-22491049D01*
X102416184Y-22491051D01*
X102605588Y-22587557D01*
X102807757Y-22653246D01*
X103017713Y-22686500D01*
X103017714Y-22686500D01*
X103230286Y-22686500D01*
X103230287Y-22686500D01*
X103440243Y-22653246D01*
X103642412Y-22587557D01*
X103831816Y-22491051D01*
X103853789Y-22475086D01*
X104003786Y-22366109D01*
X104003788Y-22366106D01*
X104003792Y-22366104D01*
X104154104Y-22215792D01*
X104154106Y-22215788D01*
X104154109Y-22215786D01*
X104279048Y-22043820D01*
X104279047Y-22043820D01*
X104279051Y-22043816D01*
X104375557Y-21854412D01*
X104441246Y-21652243D01*
X104474500Y-21442287D01*
X104474500Y-21229713D01*
X104441246Y-21019757D01*
X104375557Y-20817588D01*
X104279051Y-20628184D01*
X104279049Y-20628181D01*
X104279048Y-20628179D01*
X104154109Y-20456213D01*
X104003786Y-20305890D01*
X103831820Y-20180951D01*
X103642414Y-20084444D01*
X103642413Y-20084443D01*
X103642412Y-20084443D01*
X103440243Y-20018754D01*
X103440241Y-20018753D01*
X103440240Y-20018753D01*
X103278957Y-19993208D01*
X103230287Y-19985500D01*
X103017713Y-19985500D01*
X102969042Y-19993208D01*
X102807760Y-20018753D01*
X102605585Y-20084444D01*
X102416179Y-20180951D01*
X102244213Y-20305890D01*
X102093890Y-20456213D01*
X101968951Y-20628179D01*
X101872444Y-20817585D01*
X101806753Y-21019760D01*
X101773500Y-21229713D01*
X101084500Y-21229713D01*
X101084500Y-19420500D01*
X101104185Y-19353461D01*
X101156989Y-19307706D01*
X101208500Y-19296500D01*
X200220259Y-19296500D01*
X200235698Y-19301033D01*
G37*
%TD.AperFunction*%
%TD*%
M02*
