%TF.GenerationSoftware,KiCad,Pcbnew,9.0.1*%
%TF.CreationDate,2026-04-13T18:53:09-07:00*%
%TF.ProjectId,V67_cycletron,5636375f-6379-4636-9c65-74726f6e2e6b,rev?*%
%TF.SameCoordinates,Original*%
%TF.FileFunction,Soldermask,Top*%
%TF.FilePolarity,Negative*%
%FSLAX46Y46*%
G04 Gerber Fmt 4.6, Leading zero omitted, Abs format (unit mm)*
G04 Created by KiCad (PCBNEW 9.0.1) date 2026-04-13 18:53:09*
%MOMM*%
%LPD*%
G01*
G04 APERTURE LIST*
G04 Aperture macros list*
%AMRoundRect*
0 Rectangle with rounded corners*
0 $1 Rounding radius*
0 $2 $3 $4 $5 $6 $7 $8 $9 X,Y pos of 4 corners*
0 Add a 4 corners polygon primitive as box body*
4,1,4,$2,$3,$4,$5,$6,$7,$8,$9,$2,$3,0*
0 Add four circle primitives for the rounded corners*
1,1,$1+$1,$2,$3*
1,1,$1+$1,$4,$5*
1,1,$1+$1,$6,$7*
1,1,$1+$1,$8,$9*
0 Add four rect primitives between the rounded corners*
20,1,$1+$1,$2,$3,$4,$5,0*
20,1,$1+$1,$4,$5,$6,$7,0*
20,1,$1+$1,$6,$7,$8,$9,0*
20,1,$1+$1,$8,$9,$2,$3,0*%
G04 Aperture macros list end*
%ADD10RoundRect,0.250000X-0.350000X-0.450000X0.350000X-0.450000X0.350000X0.450000X-0.350000X0.450000X0*%
%ADD11RoundRect,0.237500X0.287500X0.237500X-0.287500X0.237500X-0.287500X-0.237500X0.287500X-0.237500X0*%
%ADD12RoundRect,0.250000X0.350000X0.450000X-0.350000X0.450000X-0.350000X-0.450000X0.350000X-0.450000X0*%
%ADD13R,5.359400X1.752600*%
%ADD14R,3.251200X1.244600*%
%ADD15R,1.752600X5.359400*%
%ADD16R,1.244600X3.251200*%
%ADD17R,0.600000X1.450000*%
%ADD18R,0.300000X1.450000*%
%ADD19O,1.000000X2.100000*%
%ADD20O,1.000000X1.600000*%
%ADD21RoundRect,0.250000X0.850000X0.350000X-0.850000X0.350000X-0.850000X-0.350000X0.850000X-0.350000X0*%
%ADD22RoundRect,0.249997X2.950003X2.650003X-2.950003X2.650003X-2.950003X-2.650003X2.950003X-2.650003X0*%
%ADD23C,0.600000*%
%ADD24R,3.900000X3.900000*%
%ADD25R,1.500000X0.900000*%
%ADD26R,0.900000X1.500000*%
%ADD27RoundRect,0.250000X1.500000X0.550000X-1.500000X0.550000X-1.500000X-0.550000X1.500000X-0.550000X0*%
%ADD28RoundRect,0.250001X1.149999X-1.149999X1.149999X1.149999X-1.149999X1.149999X-1.149999X-1.149999X0*%
%ADD29C,2.800000*%
%ADD30RoundRect,0.250000X0.475000X-0.337500X0.475000X0.337500X-0.475000X0.337500X-0.475000X-0.337500X0*%
%ADD31C,1.600000*%
%ADD32O,1.600000X1.600000*%
%ADD33RoundRect,0.250000X0.450000X-0.350000X0.450000X0.350000X-0.450000X0.350000X-0.450000X-0.350000X0*%
%ADD34RoundRect,0.250001X-1.149999X-1.149999X1.149999X-1.149999X1.149999X1.149999X-1.149999X1.149999X0*%
%ADD35R,1.600000X1.600000*%
%ADD36RoundRect,0.250000X-0.450000X0.350000X-0.450000X-0.350000X0.450000X-0.350000X0.450000X0.350000X0*%
%ADD37RoundRect,0.250000X-0.550000X1.500000X-0.550000X-1.500000X0.550000X-1.500000X0.550000X1.500000X0*%
%ADD38RoundRect,0.250001X1.149999X1.149999X-1.149999X1.149999X-1.149999X-1.149999X1.149999X-1.149999X0*%
%ADD39RoundRect,0.150000X-0.150000X0.587500X-0.150000X-0.587500X0.150000X-0.587500X0.150000X0.587500X0*%
%ADD40RoundRect,0.250000X0.337500X0.475000X-0.337500X0.475000X-0.337500X-0.475000X0.337500X-0.475000X0*%
%ADD41RoundRect,0.250000X-1.000000X-0.650000X1.000000X-0.650000X1.000000X0.650000X-1.000000X0.650000X0*%
%ADD42RoundRect,0.250000X-1.050000X-0.550000X1.050000X-0.550000X1.050000X0.550000X-1.050000X0.550000X0*%
%ADD43RoundRect,0.102000X0.900000X-0.675000X0.900000X0.675000X-0.900000X0.675000X-0.900000X-0.675000X0*%
G04 APERTURE END LIST*
D10*
%TO.C,R4*%
X181864000Y-40640000D03*
X183864000Y-40640000D03*
%TD*%
D11*
%TO.C,D5*%
X183614000Y-38100000D03*
X181864000Y-38100000D03*
%TD*%
D12*
%TO.C,R3*%
X180816000Y-35560000D03*
X178816000Y-35560000D03*
%TD*%
D11*
%TO.C,D4*%
X178534000Y-38100000D03*
X176784000Y-38100000D03*
%TD*%
D13*
%TO.C,IO4*%
X105237001Y-64510001D03*
X105237001Y-57409999D03*
D14*
X110717000Y-61960001D03*
X110717000Y-59959999D03*
%TD*%
D13*
%TO.C,IO3*%
X105237001Y-53842001D03*
X105237001Y-46741999D03*
D14*
X110717000Y-51292001D03*
X110717000Y-49291999D03*
%TD*%
D13*
%TO.C,IO2*%
X105237001Y-42666001D03*
X105237001Y-35565999D03*
D14*
X110717000Y-40116001D03*
X110717000Y-38115999D03*
%TD*%
D13*
%TO.C,Motor2*%
X197250799Y-63950001D03*
X197250799Y-75049999D03*
D14*
X191770800Y-66500001D03*
X191770800Y-68499999D03*
X191770800Y-70500001D03*
X191770800Y-72499999D03*
%TD*%
D13*
%TO.C,Motor1*%
X198038999Y-84874001D03*
X198038999Y-95973999D03*
D14*
X192559000Y-87424001D03*
X192559000Y-89423999D03*
X192559000Y-91424001D03*
X192559000Y-93423999D03*
%TD*%
D15*
%TO.C,mosfet3*%
X196770001Y-124674999D03*
X189669999Y-124674999D03*
D16*
X194220001Y-119195000D03*
X192219999Y-119195000D03*
%TD*%
D15*
%TO.C,mosfet2*%
X183722001Y-124775999D03*
X176621999Y-124775999D03*
D16*
X181172001Y-119296000D03*
X179171999Y-119296000D03*
%TD*%
D15*
%TO.C,mosfet1*%
X170222001Y-124866999D03*
X163121999Y-124866999D03*
D16*
X167672001Y-119387000D03*
X165671999Y-119387000D03*
%TD*%
D15*
%TO.C,vdo1*%
X152394001Y-124378999D03*
X145293999Y-124378999D03*
D16*
X149844001Y-118899000D03*
X147843999Y-118899000D03*
%TD*%
D15*
%TO.C,input1*%
X185939998Y-22352000D03*
X193040000Y-22352000D03*
D16*
X188489998Y-27831999D03*
X190490000Y-27831999D03*
%TD*%
D13*
%TO.C,IO1*%
X105237001Y-31490001D03*
X105237001Y-24389999D03*
D14*
X110717000Y-28940001D03*
X110717000Y-26939999D03*
%TD*%
D17*
%TO.C,J1*%
X137250000Y-28545000D03*
X136450000Y-28545000D03*
D18*
X135250000Y-28545000D03*
X134250000Y-28545000D03*
X133750000Y-28545000D03*
X132750000Y-28545000D03*
D17*
X131550000Y-28545000D03*
X130750000Y-28545000D03*
X130750000Y-28545000D03*
X131550000Y-28545000D03*
D18*
X132250000Y-28545000D03*
X133250000Y-28545000D03*
X134750000Y-28545000D03*
X135750000Y-28545000D03*
D17*
X136450000Y-28545000D03*
X137250000Y-28545000D03*
D19*
X138320000Y-27630000D03*
D20*
X138320000Y-23450000D03*
D19*
X129680000Y-27630000D03*
D20*
X129680000Y-23450000D03*
%TD*%
D21*
%TO.C,U1*%
X174540000Y-35780000D03*
X174540000Y-33500000D03*
D22*
X168240000Y-33500000D03*
D21*
X174540000Y-31220000D03*
%TD*%
%TO.C,U2*%
X161504000Y-36824000D03*
X161504000Y-34544000D03*
D22*
X155204000Y-34544000D03*
D21*
X161504000Y-32264000D03*
%TD*%
D23*
%TO.C,U4*%
X143270000Y-71412000D03*
X143270000Y-70012000D03*
X142570000Y-72112000D03*
X142570000Y-70712000D03*
X142570000Y-69312000D03*
X141870000Y-71412000D03*
D24*
X141870000Y-70712000D03*
D23*
X141870000Y-70012000D03*
X141170000Y-72112000D03*
X141170000Y-70712000D03*
X141170000Y-69312000D03*
X140470000Y-71412000D03*
X140470000Y-70012000D03*
D25*
X152120000Y-62992000D03*
X152120000Y-64262000D03*
X152120000Y-65532000D03*
X152120000Y-66802000D03*
X152120000Y-68072000D03*
X152120000Y-69342000D03*
X152120000Y-70612000D03*
X152120000Y-71882000D03*
X152120000Y-73152000D03*
X152120000Y-74422000D03*
X152120000Y-75692000D03*
X152120000Y-76962000D03*
X152120000Y-78232000D03*
X152120000Y-79502000D03*
D26*
X150355000Y-80752000D03*
X149085000Y-80752000D03*
X147815000Y-80752000D03*
X146545000Y-80752000D03*
X145275000Y-80752000D03*
X144005000Y-80752000D03*
X142735000Y-80752000D03*
X141465000Y-80752000D03*
X140195000Y-80752000D03*
X138925000Y-80752000D03*
X137655000Y-80752000D03*
X136385000Y-80752000D03*
D25*
X134620000Y-79502000D03*
X134620000Y-78232000D03*
X134620000Y-76962000D03*
X134620000Y-75692000D03*
X134620000Y-74422000D03*
X134620000Y-73152000D03*
X134620000Y-71882000D03*
X134620000Y-70612000D03*
X134620000Y-69342000D03*
X134620000Y-68072000D03*
X134620000Y-66802000D03*
X134620000Y-65532000D03*
X134620000Y-64262000D03*
X134620000Y-62992000D03*
%TD*%
D27*
%TO.C,3v3in1*%
X148088000Y-35052000D03*
X142488000Y-35052000D03*
%TD*%
%TO.C,5Vin1*%
X181356000Y-25500000D03*
X175756000Y-25500000D03*
%TD*%
D28*
%TO.C,J3*%
X106680000Y-120824000D03*
D29*
X106680000Y-115824000D03*
X106680000Y-110824000D03*
X106680000Y-105824000D03*
X106680000Y-100824000D03*
X106680000Y-95824000D03*
X106680000Y-90824000D03*
X106680000Y-85824000D03*
X106680000Y-80824000D03*
X106680000Y-75824000D03*
X106680000Y-70824000D03*
%TD*%
D30*
%TO.C,mccap1*%
X131572000Y-64559000D03*
X131572000Y-62484000D03*
%TD*%
%TO.C,mccap2*%
X128524000Y-64650000D03*
X128524000Y-62575000D03*
%TD*%
D31*
%TO.C,vd_r1*%
X146812000Y-104648000D03*
D32*
X154432000Y-104648000D03*
%TD*%
D33*
%TO.C,R_En1*%
X117856000Y-30480000D03*
X117856000Y-32480000D03*
%TD*%
D29*
%TO.C,Rails1*%
X139620000Y-123952000D03*
X134620000Y-123952000D03*
X129620000Y-123952000D03*
X124620000Y-123952000D03*
X119620000Y-123952000D03*
D34*
X114620000Y-123952000D03*
%TD*%
D32*
%TO.C,Motor_2*%
X176610000Y-46640000D03*
X179150000Y-46640000D03*
X181690000Y-46640000D03*
X184230000Y-46640000D03*
X186770000Y-46640000D03*
X189310000Y-46640000D03*
X191850000Y-46640000D03*
X194390000Y-46640000D03*
X194390000Y-59340000D03*
X191850000Y-59340000D03*
X189310000Y-59340000D03*
X186770000Y-59340000D03*
X184230000Y-59340000D03*
X181690000Y-59340000D03*
X179150000Y-59340000D03*
D35*
X176610000Y-59340000D03*
%TD*%
D36*
%TO.C,R2*%
X138500000Y-35000000D03*
X138500000Y-33000000D03*
%TD*%
D10*
%TO.C,tr3*%
X168624000Y-101092000D03*
X166624000Y-101092000D03*
%TD*%
%TO.C,tr2*%
X179800000Y-101188000D03*
X177800000Y-101188000D03*
%TD*%
D37*
%TO.C,motorc1*%
X184912000Y-81540000D03*
X184912000Y-75940000D03*
%TD*%
D29*
%TO.C,power5*%
X156762000Y-23400500D03*
D38*
X161762000Y-23400500D03*
%TD*%
D27*
%TO.C,motorc2*%
X194044000Y-38608000D03*
X199644000Y-38608000D03*
%TD*%
D36*
%TO.C,R_boot1*%
X123952000Y-32988000D03*
X123952000Y-30988000D03*
%TD*%
D39*
%TO.C,mosfet4*%
X169672000Y-108204000D03*
X168722000Y-106329000D03*
X170622000Y-106329000D03*
%TD*%
D10*
%TO.C,tr1*%
X192500000Y-102108000D03*
X190500000Y-102108000D03*
%TD*%
D32*
%TO.C,Motor_1*%
X159258000Y-73640000D03*
X161798000Y-73640000D03*
X164338000Y-73640000D03*
X166878000Y-73640000D03*
X169418000Y-73640000D03*
X171958000Y-73640000D03*
X174498000Y-73640000D03*
X177038000Y-73640000D03*
X177038000Y-86340000D03*
X174498000Y-86340000D03*
X171958000Y-86340000D03*
X169418000Y-86340000D03*
X166878000Y-86340000D03*
X164338000Y-86340000D03*
X161798000Y-86340000D03*
D35*
X159258000Y-86340000D03*
%TD*%
D40*
%TO.C,vd_c2*%
X146812000Y-100076000D03*
X148887000Y-100076000D03*
%TD*%
D30*
%TO.C,C2*%
X122500000Y-62582685D03*
X122500000Y-64657685D03*
%TD*%
D41*
%TO.C,Dpower1*%
X190436000Y-33528000D03*
X186436000Y-33528000D03*
%TD*%
D42*
%TO.C,5Vout1*%
X170964000Y-26000000D03*
X167364000Y-26000000D03*
%TD*%
D30*
%TO.C,C1*%
X125500000Y-62575000D03*
X125500000Y-64650000D03*
%TD*%
D41*
%TO.C,D3*%
X193992000Y-114808000D03*
X189992000Y-114808000D03*
%TD*%
D39*
%TO.C,mosfet5*%
X180914000Y-108633500D03*
X179964000Y-106758500D03*
X181864000Y-106758500D03*
%TD*%
D43*
%TO.C,En1*%
X117856000Y-23833000D03*
X117856000Y-27983000D03*
%TD*%
D42*
%TO.C,3v3out1*%
X172996000Y-41148000D03*
X169396000Y-41148000D03*
%TD*%
D43*
%TO.C,Boot1*%
X123952000Y-23833000D03*
X123952000Y-27983000D03*
%TD*%
D39*
%TO.C,mosfet6*%
X194056000Y-108204000D03*
X193106000Y-106329000D03*
X195006000Y-106329000D03*
%TD*%
D30*
%TO.C,vd_c1*%
X144272000Y-101600000D03*
X144272000Y-103675000D03*
%TD*%
D41*
%TO.C,D2*%
X180784000Y-115316000D03*
X176784000Y-115316000D03*
%TD*%
D29*
%TO.C,power3*%
X144062000Y-23400500D03*
D38*
X149062000Y-23400500D03*
%TD*%
D41*
%TO.C,D1*%
X169608000Y-114808000D03*
X165608000Y-114808000D03*
%TD*%
D36*
%TO.C,R1*%
X131000000Y-33500000D03*
X131000000Y-31500000D03*
%TD*%
M02*
