%TF.GenerationSoftware,KiCad,Pcbnew,10.0.5*%
%TF.CreationDate,2026-09-04T15:37:05-07:00*%
%TF.ProjectId,V67_cycletron,5636375f-6379-4636-9c65-74726f6e2e6b,rev?*%
%TF.SameCoordinates,Original*%
%TF.FileFunction,Paste,Top*%
%TF.FilePolarity,Positive*%
%FSLAX46Y46*%
G04 Gerber Fmt 4.6, Leading zero omitted, Abs format (unit mm)*
G04 Created by KiCad (PCBNEW 10.0.5) date 2026-09-04 15:37:05*
%MOMM*%
%LPD*%
G01*
G04 APERTURE LIST*
G04 Aperture macros list*
%AMRoundRect*
0 Rectangle with rounded corners*
0 $1 Rounding radius*
0 $2 $3 $4 $5 $6 $7 $8 $9 X,Y pos of 4 corners*
0 Add a 4 corners polygon primitive as box body*
4,1,4,$2,$3,$4,$5,$6,$7,$8,$9,$2,$3,0*
0 Add four circle primitives for the rounded corners*
1,1,$1+$1,$2,$3*
1,1,$1+$1,$4,$5*
1,1,$1+$1,$6,$7*
1,1,$1+$1,$8,$9*
0 Add four rect primitives between the rounded corners*
20,1,$1+$1,$2,$3,$4,$5,0*
20,1,$1+$1,$4,$5,$6,$7,0*
20,1,$1+$1,$6,$7,$8,$9,0*
20,1,$1+$1,$8,$9,$2,$3,0*%
G04 Aperture macros list end*
%ADD10RoundRect,0.250000X-1.000000X-0.650000X1.000000X-0.650000X1.000000X0.650000X-1.000000X0.650000X0*%
%ADD11RoundRect,0.250000X0.475000X-0.337500X0.475000X0.337500X-0.475000X0.337500X-0.475000X-0.337500X0*%
%ADD12RoundRect,0.250000X0.350000X0.450000X-0.350000X0.450000X-0.350000X-0.450000X0.350000X-0.450000X0*%
%ADD13RoundRect,0.237500X0.287500X0.237500X-0.287500X0.237500X-0.287500X-0.237500X0.287500X-0.237500X0*%
%ADD14RoundRect,0.250000X-0.350000X-0.450000X0.350000X-0.450000X0.350000X0.450000X-0.350000X0.450000X0*%
%ADD15RoundRect,0.250000X-0.550000X1.500000X-0.550000X-1.500000X0.550000X-1.500000X0.550000X1.500000X0*%
%ADD16RoundRect,0.250000X0.337500X0.475000X-0.337500X0.475000X-0.337500X-0.475000X0.337500X-0.475000X0*%
%ADD17R,0.600000X1.450000*%
%ADD18R,0.300000X1.450000*%
%ADD19RoundRect,0.250000X0.450000X-0.350000X0.450000X0.350000X-0.450000X0.350000X-0.450000X-0.350000X0*%
%ADD20RoundRect,0.250000X1.000000X0.650000X-1.000000X0.650000X-1.000000X-0.650000X1.000000X-0.650000X0*%
%ADD21RoundRect,0.250000X-1.125000X1.275000X-1.125000X-1.275000X1.125000X-1.275000X1.125000X1.275000X0*%
%ADD22RoundRect,0.250000X-0.350000X0.850000X-0.350000X-0.850000X0.350000X-0.850000X0.350000X0.850000X0*%
%ADD23RoundRect,0.250000X1.050000X0.550000X-1.050000X0.550000X-1.050000X-0.550000X1.050000X-0.550000X0*%
%ADD24RoundRect,0.250000X1.500000X0.550000X-1.500000X0.550000X-1.500000X-0.550000X1.500000X-0.550000X0*%
%ADD25R,1.350000X1.800000*%
%ADD26R,0.900000X0.900000*%
%ADD27R,1.500000X0.900000*%
%ADD28R,0.900000X1.500000*%
G04 APERTURE END LIST*
D10*
%TO.C,D1*%
X79300000Y-109400000D03*
X83300000Y-109400000D03*
%TD*%
D11*
%TO.C,mccap2*%
X113800000Y-82037500D03*
X113800000Y-79962500D03*
%TD*%
D12*
%TO.C,R_En1*%
X151500000Y-85250000D03*
X149500000Y-85250000D03*
%TD*%
D13*
%TO.C,D4*%
X107442000Y-80264000D03*
X105692000Y-80264000D03*
%TD*%
D14*
%TO.C,R2*%
X106661200Y-83362800D03*
X108661200Y-83362800D03*
%TD*%
D11*
%TO.C,hall2*%
X117500000Y-114287500D03*
X117500000Y-112212500D03*
%TD*%
D15*
%TO.C,motorc1*%
X49022000Y-104642000D03*
X49022000Y-110242000D03*
%TD*%
D16*
%TO.C,vd_c2*%
X134200000Y-107800000D03*
X132125000Y-107800000D03*
%TD*%
D15*
%TO.C,motorc2*%
X49500000Y-88650000D03*
X49500000Y-94250000D03*
%TD*%
D16*
%TO.C,vd_c1*%
X132821500Y-111500000D03*
X130746500Y-111500000D03*
%TD*%
D14*
%TO.C,R7*%
X137000000Y-111300000D03*
X139000000Y-111300000D03*
%TD*%
D17*
%TO.C,J1*%
X102116000Y-80583000D03*
X101316000Y-80583000D03*
D18*
X100116000Y-80583000D03*
X99116000Y-80583000D03*
X98616000Y-80583000D03*
X97616000Y-80583000D03*
D17*
X96416000Y-80583000D03*
X95616000Y-80583000D03*
X95616000Y-80583000D03*
X96416000Y-80583000D03*
D18*
X97116000Y-80583000D03*
X98116000Y-80583000D03*
X99616000Y-80583000D03*
X100616000Y-80583000D03*
D17*
X101316000Y-80583000D03*
X102116000Y-80583000D03*
%TD*%
D19*
%TO.C,R_boot1*%
X149200000Y-89400000D03*
X149200000Y-87400000D03*
%TD*%
%TO.C,R4*%
X146900000Y-94700000D03*
X146900000Y-92700000D03*
%TD*%
D14*
%TO.C,R6*%
X89871000Y-79536000D03*
X91871000Y-79536000D03*
%TD*%
D11*
%TO.C,C2*%
X140614400Y-81983400D03*
X140614400Y-79908400D03*
%TD*%
D20*
%TO.C,Dpower1*%
X84000000Y-84250000D03*
X80000000Y-84250000D03*
%TD*%
D21*
%TO.C,U2*%
X102638500Y-90413000D03*
X99588500Y-90413000D03*
X102638500Y-93763000D03*
X99588500Y-93763000D03*
D22*
X103393500Y-85788000D03*
X101113500Y-85788000D03*
X98833500Y-85788000D03*
%TD*%
D19*
%TO.C,R5*%
X147000000Y-98700000D03*
X147000000Y-96700000D03*
%TD*%
D23*
%TO.C,5Vout1*%
X95550000Y-100500000D03*
X91950000Y-100500000D03*
%TD*%
D11*
%TO.C,C1*%
X142814400Y-81983400D03*
X142814400Y-79908400D03*
%TD*%
D15*
%TO.C,5Vin1*%
X81000000Y-89200000D03*
X81000000Y-94800000D03*
%TD*%
D24*
%TO.C,3v3in1*%
X85550000Y-101250000D03*
X79950000Y-101250000D03*
%TD*%
D11*
%TO.C,mccap1*%
X116848000Y-81946500D03*
X116848000Y-79871500D03*
%TD*%
D25*
%TO.C,En1*%
X146675000Y-85200000D03*
X142525000Y-85200000D03*
%TD*%
D12*
%TO.C,R3*%
X111220000Y-80264000D03*
X109220000Y-80264000D03*
%TD*%
D26*
%TO.C,U4*%
X125600000Y-86600000D03*
X125600000Y-88000000D03*
X125600000Y-89400000D03*
X127000000Y-86600000D03*
X127000000Y-88000000D03*
X127000000Y-89400000D03*
X128400000Y-86600000D03*
X128400000Y-88000000D03*
X128400000Y-89400000D03*
D27*
X119750000Y-80280000D03*
X119750000Y-81550000D03*
X119750000Y-82820000D03*
X119750000Y-84090000D03*
X119750000Y-85360000D03*
X119750000Y-86630000D03*
X119750000Y-87900000D03*
X119750000Y-89170000D03*
X119750000Y-90440000D03*
X119750000Y-91710000D03*
X119750000Y-92980000D03*
X119750000Y-94250000D03*
X119750000Y-95520000D03*
X119750000Y-96790000D03*
D28*
X121515000Y-98040000D03*
X122785000Y-98040000D03*
X124055000Y-98040000D03*
X125325000Y-98040000D03*
X126595000Y-98040000D03*
X127865000Y-98040000D03*
X129135000Y-98040000D03*
X130405000Y-98040000D03*
X131675000Y-98040000D03*
X132945000Y-98040000D03*
X134215000Y-98040000D03*
X135485000Y-98040000D03*
D27*
X137250000Y-96790000D03*
X137250000Y-95520000D03*
X137250000Y-94250000D03*
X137250000Y-92980000D03*
X137250000Y-91710000D03*
X137250000Y-90440000D03*
X137250000Y-89170000D03*
X137250000Y-87900000D03*
X137250000Y-86630000D03*
X137250000Y-85360000D03*
X137250000Y-84090000D03*
X137250000Y-82820000D03*
X137250000Y-81550000D03*
X137250000Y-80280000D03*
%TD*%
D23*
%TO.C,3v3out1*%
X103400000Y-100300000D03*
X99800000Y-100300000D03*
%TD*%
D13*
%TO.C,D5*%
X91875000Y-77250000D03*
X90125000Y-77250000D03*
%TD*%
D14*
%TO.C,tr3*%
X100700000Y-107600000D03*
X102700000Y-107600000D03*
%TD*%
D12*
%TO.C,R1*%
X97186000Y-82988000D03*
X95186000Y-82988000D03*
%TD*%
D25*
%TO.C,Boot1*%
X146875000Y-88800000D03*
X142725000Y-88800000D03*
%TD*%
M02*
