M48
; DRILL file {KiCad 9.0.1} date 2026-07-19T18:30:06-0700
; FORMAT={-:-/ absolute / inch / decimal}
; #@! TF.CreationDate,2026-07-19T18:30:06-07:00
; #@! TF.GenerationSoftware,Kicad,Pcbnew,9.0.1
; #@! TF.FileFunction,Plated,1,4,PTH
FMAT,2
INCH
; #@! TA.AperFunction,Plated,PTH,ComponentDrill
T1C0.0079
; #@! TA.AperFunction,Plated,PTH,ViaDrill
T2C0.0118
; #@! TA.AperFunction,Plated,PTH,ComponentDrill
T3C0.0236
; #@! TA.AperFunction,Plated,PTH,ComponentDrill
T4C0.0256
; #@! TA.AperFunction,Plated,PTH,ComponentDrill
T5C0.0315
; #@! TA.AperFunction,Plated,PTH,ComponentDrill
T6C0.0320
; #@! TA.AperFunction,Plated,PTH,ComponentDrill
T7C0.0512
; #@! TA.AperFunction,Plated,PTH,ComponentDrill
T8C0.0520
%
G90
G05
T1
X4.9449Y-3.437
X4.9449Y-3.4921
X4.9724Y-3.4094
X4.9724Y-3.4646
X4.9724Y-3.5197
X5.0Y-3.437
X5.0Y-3.4921
X5.0276Y-3.4094
X5.0276Y-3.4646
X5.0276Y-3.5197
X5.0551Y-3.437
X5.0551Y-3.4921
T2
X1.98Y-3.6512
X1.99Y-4.3605
X3.0626Y-3.585
X3.3098Y-3.89
X3.3774Y-4.2262
X3.43Y-3.08
X3.5092Y-4.225
X3.5691Y-3.387
X3.5842Y-4.1
X3.6658Y-4.1
X3.7475Y-3.2672
X3.7644Y-3.1726
X3.95Y-3.224
X3.98Y-3.38
X3.9808Y-3.6255
X4.0203Y-3.1726
X4.0706Y-3.3775
X4.1611Y-3.16
X4.1993Y-3.2835
X4.2551Y-3.5982
X4.2593Y-3.4523
X4.278Y-3.282
X4.3787Y-3.16
X4.4802Y-3.2299
X4.4803Y-3.1481
X4.6003Y-3.1445
X4.6003Y-3.2262
X4.714Y-3.46
X4.7146Y-3.1606
X4.7146Y-3.2106
X4.7146Y-3.2606
X4.7146Y-3.3106
X4.7146Y-3.3606
X4.7146Y-3.4106
X4.7146Y-3.5106
X4.7146Y-3.5606
X4.7146Y-3.6106
X4.7146Y-3.6606
X4.7146Y-3.7106
X4.7841Y-3.8598
X4.84Y-3.86
X4.8841Y-3.8598
X4.9341Y-3.8598
X4.9523Y-4.218
X4.9841Y-3.8598
X5.034Y-4.218
X5.328Y-4.1507
X5.4035Y-3.1606
X5.4035Y-3.2106
X5.4035Y-3.2606
X5.4035Y-3.3106
X5.4035Y-3.3606
X5.4035Y-3.4106
X5.4035Y-3.4606
X5.4035Y-3.7106
X5.4035Y-3.7606
X5.4599Y-3.2001
X5.49Y-3.76
X5.5Y-3.6
X5.506Y-4.036
X5.5197Y-3.3858
X5.538Y-3.146
X5.578Y-4.092
X5.578Y-4.1707
X5.582Y-3.9326
X5.582Y-4.0114
X5.6246Y-3.1445
X5.7825Y-3.3465
X5.7825Y-3.4961
T4
X5.6Y-3.67
X5.6Y-3.72
X5.6Y-3.77
X5.6Y-3.82
X5.75Y-3.675
X5.75Y-3.725
X5.75Y-3.775
X5.75Y-3.825
T5
X2.21Y-3.3704
X2.21Y-3.8704
X2.21Y-4.0104
X2.21Y-4.5104
X2.31Y-3.3704
X2.31Y-3.8704
X2.31Y-4.0104
X2.31Y-4.5104
X2.41Y-3.3704
X2.41Y-3.8704
X2.41Y-4.0104
X2.41Y-4.5104
X2.51Y-3.3704
X2.51Y-3.8704
X2.51Y-4.0104
X2.51Y-4.5104
X2.61Y-3.3704
X2.61Y-3.8704
X2.61Y-4.0104
X2.61Y-4.5104
X2.71Y-3.3704
X2.71Y-3.8704
X2.71Y-4.0104
X2.71Y-4.5104
X2.81Y-3.3704
X2.81Y-3.8704
X2.81Y-4.0104
X2.81Y-4.5104
X2.91Y-3.3704
X2.91Y-3.8704
X2.91Y-4.0104
X2.91Y-4.5104
X3.1773Y-4.486
X3.1813Y-2.93
X3.256Y-4.486
X3.26Y-2.93
X3.544Y-4.508
X3.6227Y-4.508
X3.825Y-3.85
X3.825Y-4.15
X3.9363Y-4.51
X4.015Y-4.51
X4.0938Y-4.51
X4.1725Y-4.51
X4.2513Y-4.51
X4.33Y-4.51
X4.6213Y-4.5
X4.7Y-4.5
T6
X1.666Y-4.0938
X1.666Y-4.1725
X1.666Y-4.2513
X1.666Y-4.33
X1.668Y-3.4438
X1.668Y-3.5225
X1.668Y-3.6013
X1.668Y-3.68
X4.9053Y-4.5
X4.984Y-4.5
X5.0627Y-4.5
X5.316Y-4.494
X5.3947Y-4.494
X5.4735Y-4.494
X5.5522Y-4.494
X5.7515Y-3.9989
X5.7515Y-4.0776
X5.7515Y-4.1564
X5.7515Y-4.2351
T7
X1.8731Y-3.026
X2.07Y-3.026
X2.2669Y-3.026
X2.4637Y-3.026
X2.6606Y-3.026
X2.8574Y-3.026
T8
X3.49Y-3.65
X3.5904Y-3.65
X3.6908Y-3.65
T3
G00X3.7223Y-2.9838
M15
G01X3.7223Y-2.9602
M16
G05
G00X3.7223Y-3.1582
M15
G01X3.7223Y-3.1149
M16
G05
G00X4.0624Y-2.9838
M15
G01X4.0624Y-2.9602
M16
G05
G00X4.0624Y-3.1582
M15
G01X4.0624Y-3.1149
M16
G05
M30
