%TF.GenerationSoftware,KiCad,Pcbnew,10.0.5*%
%TF.CreationDate,2026-09-04T15:37:05-07:00*%
%TF.ProjectId,V67_cycletron,5636375f-6379-4636-9c65-74726f6e2e6b,rev?*%
%TF.SameCoordinates,Original*%
%TF.FileFunction,Copper,L1,Top*%
%TF.FilePolarity,Positive*%
%FSLAX46Y46*%
G04 Gerber Fmt 4.6, Leading zero omitted, Abs format (unit mm)*
G04 Created by KiCad (PCBNEW 10.0.5) date 2026-09-04 15:37:05*
%MOMM*%
%LPD*%
G01*
G04 APERTURE LIST*
G04 Aperture macros list*
%AMRoundRect*
0 Rectangle with rounded corners*
0 $1 Rounding radius*
0 $2 $3 $4 $5 $6 $7 $8 $9 X,Y pos of 4 corners*
0 Add a 4 corners polygon primitive as box body*
4,1,4,$2,$3,$4,$5,$6,$7,$8,$9,$2,$3,0*
0 Add four circle primitives for the rounded corners*
1,1,$1+$1,$2,$3*
1,1,$1+$1,$4,$5*
1,1,$1+$1,$6,$7*
1,1,$1+$1,$8,$9*
0 Add four rect primitives between the rounded corners*
20,1,$1+$1,$2,$3,$4,$5,0*
20,1,$1+$1,$4,$5,$6,$7,0*
20,1,$1+$1,$6,$7,$8,$9,0*
20,1,$1+$1,$8,$9,$2,$3,0*%
G04 Aperture macros list end*
%TA.AperFunction,ComponentPad*%
%ADD10R,1.700000X1.700000*%
%TD*%
%TA.AperFunction,ComponentPad*%
%ADD11C,1.700000*%
%TD*%
%TA.AperFunction,SMDPad,CuDef*%
%ADD12RoundRect,0.250000X-1.000000X-0.650000X1.000000X-0.650000X1.000000X0.650000X-1.000000X0.650000X0*%
%TD*%
%TA.AperFunction,SMDPad,CuDef*%
%ADD13RoundRect,0.250000X0.475000X-0.337500X0.475000X0.337500X-0.475000X0.337500X-0.475000X-0.337500X0*%
%TD*%
%TA.AperFunction,SMDPad,CuDef*%
%ADD14RoundRect,0.250000X0.350000X0.450000X-0.350000X0.450000X-0.350000X-0.450000X0.350000X-0.450000X0*%
%TD*%
%TA.AperFunction,SMDPad,CuDef*%
%ADD15RoundRect,0.237500X0.287500X0.237500X-0.287500X0.237500X-0.287500X-0.237500X0.287500X-0.237500X0*%
%TD*%
%TA.AperFunction,ComponentPad*%
%ADD16C,1.600000*%
%TD*%
%TA.AperFunction,ComponentPad*%
%ADD17O,1.600000X1.600000*%
%TD*%
%TA.AperFunction,ComponentPad*%
%ADD18RoundRect,0.250001X-1.149999X-1.149999X1.149999X-1.149999X1.149999X1.149999X-1.149999X1.149999X0*%
%TD*%
%TA.AperFunction,ComponentPad*%
%ADD19C,2.800000*%
%TD*%
%TA.AperFunction,ComponentPad*%
%ADD20R,1.600000X1.600000*%
%TD*%
%TA.AperFunction,SMDPad,CuDef*%
%ADD21RoundRect,0.250000X-0.350000X-0.450000X0.350000X-0.450000X0.350000X0.450000X-0.350000X0.450000X0*%
%TD*%
%TA.AperFunction,SMDPad,CuDef*%
%ADD22RoundRect,0.250000X-0.550000X1.500000X-0.550000X-1.500000X0.550000X-1.500000X0.550000X1.500000X0*%
%TD*%
%TA.AperFunction,ComponentPad*%
%ADD23R,1.980000X1.980000*%
%TD*%
%TA.AperFunction,ComponentPad*%
%ADD24C,1.980000*%
%TD*%
%TA.AperFunction,SMDPad,CuDef*%
%ADD25RoundRect,0.250000X0.337500X0.475000X-0.337500X0.475000X-0.337500X-0.475000X0.337500X-0.475000X0*%
%TD*%
%TA.AperFunction,SMDPad,CuDef*%
%ADD26R,0.600000X1.450000*%
%TD*%
%TA.AperFunction,SMDPad,CuDef*%
%ADD27R,0.300000X1.450000*%
%TD*%
%TA.AperFunction,HeatsinkPad*%
%ADD28O,1.000000X2.100000*%
%TD*%
%TA.AperFunction,HeatsinkPad*%
%ADD29O,1.000000X1.600000*%
%TD*%
%TA.AperFunction,SMDPad,CuDef*%
%ADD30RoundRect,0.250000X0.450000X-0.350000X0.450000X0.350000X-0.450000X0.350000X-0.450000X-0.350000X0*%
%TD*%
%TA.AperFunction,SMDPad,CuDef*%
%ADD31RoundRect,0.250000X1.000000X0.650000X-1.000000X0.650000X-1.000000X-0.650000X1.000000X-0.650000X0*%
%TD*%
%TA.AperFunction,SMDPad,CuDef*%
%ADD32RoundRect,0.250000X-0.350000X0.850000X-0.350000X-0.850000X0.350000X-0.850000X0.350000X0.850000X0*%
%TD*%
%TA.AperFunction,SMDPad,CuDef*%
%ADD33RoundRect,0.249997X-2.650003X2.950003X-2.650003X-2.950003X2.650003X-2.950003X2.650003X2.950003X0*%
%TD*%
%TA.AperFunction,SMDPad,CuDef*%
%ADD34RoundRect,0.250000X1.050000X0.550000X-1.050000X0.550000X-1.050000X-0.550000X1.050000X-0.550000X0*%
%TD*%
%TA.AperFunction,ComponentPad*%
%ADD35R,1.905000X2.000000*%
%TD*%
%TA.AperFunction,ComponentPad*%
%ADD36O,1.905000X2.000000*%
%TD*%
%TA.AperFunction,SMDPad,CuDef*%
%ADD37RoundRect,0.250000X1.500000X0.550000X-1.500000X0.550000X-1.500000X-0.550000X1.500000X-0.550000X0*%
%TD*%
%TA.AperFunction,SMDPad,CuDef*%
%ADD38R,1.350000X1.800000*%
%TD*%
%TA.AperFunction,SMDPad,CuDef*%
%ADD39R,1.500000X0.900000*%
%TD*%
%TA.AperFunction,SMDPad,CuDef*%
%ADD40R,0.900000X1.500000*%
%TD*%
%TA.AperFunction,HeatsinkPad*%
%ADD41C,0.600000*%
%TD*%
%TA.AperFunction,HeatsinkPad*%
%ADD42R,3.900000X3.900000*%
%TD*%
%TA.AperFunction,ViaPad*%
%ADD43C,0.800000*%
%TD*%
%TA.AperFunction,ViaPad*%
%ADD44C,0.600000*%
%TD*%
%TA.AperFunction,Conductor*%
%ADD45C,0.250000*%
%TD*%
%TA.AperFunction,Conductor*%
%ADD46C,0.300000*%
%TD*%
%TA.AperFunction,Conductor*%
%ADD47C,0.500000*%
%TD*%
%TA.AperFunction,Conductor*%
%ADD48C,0.200000*%
%TD*%
%TA.AperFunction,Conductor*%
%ADD49C,1.000000*%
%TD*%
%TA.AperFunction,Conductor*%
%ADD50C,0.381000*%
%TD*%
G04 APERTURE END LIST*
D10*
%TO.P,J12,1*%
%TO.N,TX*%
X145250000Y-104725000D03*
D11*
%TO.P,J12,2*%
%TO.N,RX*%
X145250000Y-107265000D03*
%TD*%
D10*
%TO.P,J3,1*%
%TO.N,mosfet1_o*%
X83375000Y-114800000D03*
D11*
%TO.P,J3,2*%
%TO.N,+24V*%
X80835000Y-114800000D03*
%TD*%
D12*
%TO.P,D1,1,K_1*%
%TO.N,+24V*%
X79300000Y-109400000D03*
%TO.P,D1,2,A_2*%
%TO.N,mosfet1_o*%
X83300000Y-109400000D03*
%TD*%
D13*
%TO.P,mccap2,1*%
%TO.N,3V3*%
X113800000Y-82037500D03*
%TO.P,mccap2,2*%
%TO.N,GND*%
X113800000Y-79962500D03*
%TD*%
D10*
%TO.P,J4,1*%
%TO.N,SCL*%
X150500000Y-92670000D03*
D11*
%TO.P,J4,2*%
%TO.N,SDA*%
X150500000Y-95210000D03*
%TO.P,J4,3*%
%TO.N,GND*%
X150500000Y-97750000D03*
%TO.P,J4,4*%
%TO.N,3V3*%
X150500000Y-100290000D03*
%TD*%
D14*
%TO.P,R_En1,1*%
%TO.N,3V3*%
X151500000Y-85250000D03*
%TO.P,R_En1,2*%
%TO.N,En*%
X149500000Y-85250000D03*
%TD*%
D15*
%TO.P,D4,1,K_1*%
%TO.N,Net-(D4-K)*%
X107442000Y-80264000D03*
%TO.P,D4,2,A_2*%
%TO.N,3V3*%
X105692000Y-80264000D03*
%TD*%
D16*
%TO.P,vd_r1,1*%
%TO.N,Therm-*%
X138610000Y-101500000D03*
D17*
%TO.P,vd_r1,2*%
%TO.N,GND*%
X130990000Y-101500000D03*
%TD*%
D18*
%TO.P,Rails1,1,Pin_1_1*%
%TO.N,GND*%
X47000000Y-77000000D03*
D19*
%TO.P,Rails1,2,Pin_2_2*%
X52000000Y-77000000D03*
%TO.P,Rails1,3,Pin_3_3*%
X57000000Y-77000000D03*
%TO.P,Rails1,4,Pin_4_4*%
X62000000Y-77000000D03*
%TO.P,Rails1,5,Pin_5_5*%
%TO.N,3V3*%
X67000000Y-77000000D03*
%TO.P,Rails1,6,Pin_6_6*%
%TO.N,+24V*%
X72000000Y-77000000D03*
%TD*%
D20*
%TO.P,Motor_2,1,GND_1*%
%TO.N,GND*%
X73914000Y-85608000D03*
D17*
%TO.P,Motor_2,2,~{FLT}_2*%
%TO.N,Motor2_FLT*%
X71374000Y-85608000D03*
%TO.P,Motor_2,3,A2_3*%
%TO.N,Motor2_A2*%
X68834000Y-85608000D03*
%TO.P,Motor_2,4,A1_4*%
%TO.N,Motor2_A1*%
X66294000Y-85608000D03*
%TO.P,Motor_2,5,B1_5*%
%TO.N,Motor2_B1*%
X63754000Y-85608000D03*
%TO.P,Motor_2,6,B2_6*%
%TO.N,Motor2_B2*%
X61214000Y-85608000D03*
%TO.P,Motor_2,7,GND_7*%
%TO.N,GND*%
X58674000Y-85608000D03*
%TO.P,Motor_2,8,VMOT_8*%
%TO.N,+24V*%
X56134000Y-85608000D03*
%TO.P,Motor_2,9,~{EN}_9*%
%TO.N,Motor2_EN*%
X56134000Y-98308000D03*
%TO.P,Motor_2,10,M0_10*%
%TO.N,Motor2_M0*%
X58674000Y-98308000D03*
%TO.P,Motor_2,11,M1_11*%
%TO.N,Motor2_M1*%
X61214000Y-98308000D03*
%TO.P,Motor_2,12,M2_12*%
%TO.N,Motor2_M2*%
X63754000Y-98308000D03*
%TO.P,Motor_2,13,~{RST}_13*%
%TO.N,3V3*%
X66294000Y-98308000D03*
%TO.P,Motor_2,14,~{SLP}_14*%
X68834000Y-98308000D03*
%TO.P,Motor_2,15,STEP_15*%
%TO.N,Motor2_STEP*%
X71374000Y-98308000D03*
%TO.P,Motor_2,16,DIR_16*%
%TO.N,Motor2_DIR*%
X73914000Y-98308000D03*
%TD*%
D10*
%TO.P,J7,1*%
%TO.N,FAN_Tach_i*%
X138920000Y-114100000D03*
D11*
%TO.P,J7,2*%
%TO.N,FAN_En_o*%
X141460000Y-114100000D03*
%TO.P,J7,3*%
%TO.N,GND*%
X144000000Y-114100000D03*
%TO.P,J7,4*%
%TO.N,+24V*%
X146540000Y-114100000D03*
%TD*%
D10*
%TO.P,J5,1*%
%TO.N,Motor2_A2*%
X40000000Y-94060000D03*
D11*
%TO.P,J5,2*%
%TO.N,Motor2_A1*%
X40000000Y-91520000D03*
%TO.P,J5,3*%
%TO.N,Motor2_B1*%
X40000000Y-88980000D03*
%TO.P,J5,4*%
%TO.N,Motor2_B2*%
X40000000Y-86440000D03*
%TD*%
D21*
%TO.P,R2,1*%
%TO.N,Net-(J1-CC1)*%
X106661200Y-83362800D03*
%TO.P,R2,2*%
%TO.N,GND*%
X108661200Y-83362800D03*
%TD*%
D18*
%TO.P,J10,1,Pin_1_1*%
%TO.N,24V_unsafe*%
X80000000Y-76717500D03*
D19*
%TO.P,J10,2,Pin_2_2*%
%TO.N,GND*%
X85000000Y-76717500D03*
%TD*%
D13*
%TO.P,hall2,1*%
%TO.N,GND*%
X117500000Y-114287500D03*
%TO.P,hall2,2*%
%TO.N,3V3*%
X117500000Y-112212500D03*
%TD*%
D22*
%TO.P,motorc1,1*%
%TO.N,+24V*%
X49022000Y-104642000D03*
%TO.P,motorc1,2*%
%TO.N,GND*%
X49022000Y-110242000D03*
%TD*%
D23*
%TO.P,U3,1,IN_1*%
%TO.N,+24V*%
X88646000Y-92710000D03*
D24*
%TO.P,U3,2,GND_2*%
%TO.N,GND*%
X91196000Y-92710000D03*
%TO.P,U3,3,OUT_3*%
%TO.N,+5V*%
X93746000Y-92710000D03*
%TD*%
D25*
%TO.P,vd_c2,1*%
%TO.N,Therm-*%
X134200000Y-107800000D03*
%TO.P,vd_c2,2*%
%TO.N,3V3*%
X132125000Y-107800000D03*
%TD*%
D22*
%TO.P,motorc2,1*%
%TO.N,+24V*%
X49500000Y-88650000D03*
%TO.P,motorc2,2*%
%TO.N,GND*%
X49500000Y-94250000D03*
%TD*%
D25*
%TO.P,vd_c1,1*%
%TO.N,3V3*%
X132821500Y-111500000D03*
%TO.P,vd_c1,2*%
%TO.N,GND*%
X130746500Y-111500000D03*
%TD*%
D21*
%TO.P,R7,1*%
%TO.N,3V3*%
X137000000Y-111300000D03*
%TO.P,R7,2*%
%TO.N,FAN_Tach_i*%
X139000000Y-111300000D03*
%TD*%
D10*
%TO.P,J9,1*%
%TO.N,Hall_i*%
X120720000Y-114400000D03*
D11*
%TO.P,J9,2*%
%TO.N,GND*%
X123260000Y-114400000D03*
%TO.P,J9,3*%
%TO.N,3V3*%
X125800000Y-114400000D03*
%TD*%
D26*
%TO.P,J1,A1,GND_A1*%
%TO.N,GND*%
X102116000Y-80583000D03*
%TO.P,J1,A4,VBUS_A4*%
%TO.N,+5V*%
X101316000Y-80583000D03*
D27*
%TO.P,J1,A5,CC1_A5*%
%TO.N,Net-(J1-CC1)*%
X100116000Y-80583000D03*
%TO.P,J1,A6,D+_A6*%
%TO.N,D+*%
X99116000Y-80583000D03*
%TO.P,J1,A7,D-_A7*%
%TO.N,D-*%
X98616000Y-80583000D03*
%TO.P,J1,A8,SBU1_A8*%
%TO.N,unconnected-(J1-SBU1-PadA8)*%
X97616000Y-80583000D03*
D26*
%TO.P,J1,A9,VBUS_A9*%
%TO.N,+5V*%
X96416000Y-80583000D03*
%TO.P,J1,A12,GND_A12*%
%TO.N,GND*%
X95616000Y-80583000D03*
%TO.P,J1,B1,GND_B1*%
X95616000Y-80583000D03*
%TO.P,J1,B4,VBUS_B4*%
%TO.N,+5V*%
X96416000Y-80583000D03*
D27*
%TO.P,J1,B5,CC2_B5*%
%TO.N,Net-(J1-CC2)*%
X97116000Y-80583000D03*
%TO.P,J1,B6,D+_B6*%
%TO.N,D+*%
X98116000Y-80583000D03*
%TO.P,J1,B7,D-_B7*%
%TO.N,D-*%
X99616000Y-80583000D03*
%TO.P,J1,B8,SBU2_B8*%
%TO.N,unconnected-(J1-SBU2-PadB8)*%
X100616000Y-80583000D03*
D26*
%TO.P,J1,B9,VBUS_B9*%
%TO.N,+5V*%
X101316000Y-80583000D03*
%TO.P,J1,B12,GND_B12*%
%TO.N,GND*%
X102116000Y-80583000D03*
D28*
%TO.P,J1,S1,SHIELD_S1*%
X103186000Y-79668000D03*
D29*
X103186000Y-75488000D03*
D28*
X94546000Y-79668000D03*
D29*
X94546000Y-75488000D03*
%TD*%
D30*
%TO.P,R_boot1,1*%
%TO.N,Net-(Boot1-Pad1)*%
X149200000Y-89400000D03*
%TO.P,R_boot1,2*%
%TO.N,BOOT*%
X149200000Y-87400000D03*
%TD*%
D20*
%TO.P,Motor_1,1,GND_1*%
%TO.N,GND*%
X73914000Y-101864000D03*
D17*
%TO.P,Motor_1,2,~{FLT}_2*%
%TO.N,Motor1_FLT*%
X71374000Y-101864000D03*
%TO.P,Motor_1,3,A2_3*%
%TO.N,Motor1_A2*%
X68834000Y-101864000D03*
%TO.P,Motor_1,4,A1_4*%
%TO.N,Motor1_A1*%
X66294000Y-101864000D03*
%TO.P,Motor_1,5,B1_5*%
%TO.N,Motor1_B1*%
X63754000Y-101864000D03*
%TO.P,Motor_1,6,B2_6*%
%TO.N,Motor1_B2*%
X61214000Y-101864000D03*
%TO.P,Motor_1,7,GND_7*%
%TO.N,GND*%
X58674000Y-101864000D03*
%TO.P,Motor_1,8,VMOT_8*%
%TO.N,+24V*%
X56134000Y-101864000D03*
%TO.P,Motor_1,9,~{EN}_9*%
%TO.N,Motor1_EN*%
X56134000Y-114564000D03*
%TO.P,Motor_1,10,M0_10*%
%TO.N,Motor1_M0*%
X58674000Y-114564000D03*
%TO.P,Motor_1,11,M1_11*%
%TO.N,Motor1_M1*%
X61214000Y-114564000D03*
%TO.P,Motor_1,12,M2_12*%
%TO.N,Motor1_M2*%
X63754000Y-114564000D03*
%TO.P,Motor_1,13,~{RST}_13*%
%TO.N,3V3*%
X66294000Y-114564000D03*
%TO.P,Motor_1,14,~{SLP}_14*%
X68834000Y-114564000D03*
%TO.P,Motor_1,15,STEP_15*%
%TO.N,Motor1_STEP*%
X71374000Y-114564000D03*
%TO.P,Motor_1,16,DIR_16*%
%TO.N,Motor1_DIR*%
X73914000Y-114564000D03*
%TD*%
D30*
%TO.P,R4,1*%
%TO.N,3V3*%
X146900000Y-94700000D03*
%TO.P,R4,2*%
%TO.N,SCL*%
X146900000Y-92700000D03*
%TD*%
D21*
%TO.P,R6,1*%
%TO.N,GND*%
X89871000Y-79536000D03*
%TO.P,R6,2*%
%TO.N,Net-(D5-K)*%
X91871000Y-79536000D03*
%TD*%
D13*
%TO.P,C2,1*%
%TO.N,En*%
X140614400Y-81983400D03*
%TO.P,C2,2*%
%TO.N,GND*%
X140614400Y-79908400D03*
%TD*%
D31*
%TO.P,Dpower1,1,K_1*%
%TO.N,+24V*%
X84000000Y-84250000D03*
%TO.P,Dpower1,2,A_2*%
%TO.N,24V_unsafe*%
X80000000Y-84250000D03*
%TD*%
D32*
%TO.P,U2,1,GND_1*%
%TO.N,GND*%
X103393500Y-85788000D03*
%TO.P,U2,2,VO_2*%
%TO.N,3V3*%
X101113500Y-85788000D03*
D33*
X101113500Y-92088000D03*
D32*
%TO.P,U2,3,VI_3*%
%TO.N,+5V*%
X98833500Y-85788000D03*
%TD*%
D30*
%TO.P,R5,1*%
%TO.N,3V3*%
X147000000Y-98700000D03*
%TO.P,R5,2*%
%TO.N,SDA*%
X147000000Y-96700000D03*
%TD*%
D34*
%TO.P,5Vout1,1*%
%TO.N,+5V*%
X95550000Y-100500000D03*
%TO.P,5Vout1,2*%
%TO.N,GND*%
X91950000Y-100500000D03*
%TD*%
D35*
%TO.P,Q1,1,G_1*%
%TO.N,Net-(Q1-G)*%
X97680000Y-111200000D03*
D36*
%TO.P,Q1,2,D_2*%
%TO.N,mosfet1_o*%
X95140000Y-111200000D03*
%TO.P,Q1,3,S_3*%
%TO.N,GND*%
X92600000Y-111200000D03*
%TD*%
D13*
%TO.P,C1,1*%
%TO.N,En*%
X142814400Y-81983400D03*
%TO.P,C1,2*%
%TO.N,GND*%
X142814400Y-79908400D03*
%TD*%
D22*
%TO.P,5Vin1,1*%
%TO.N,+24V*%
X81000000Y-89200000D03*
%TO.P,5Vin1,2*%
%TO.N,GND*%
X81000000Y-94800000D03*
%TD*%
D10*
%TO.P,J8,1*%
%TO.N,GND*%
X106860000Y-114440000D03*
D11*
%TO.P,J8,2*%
%TO.N,3V3*%
X106860000Y-111900000D03*
%TO.P,J8,3*%
%TO.N,L_IS*%
X109400000Y-114440000D03*
%TO.P,J8,4*%
%TO.N,R_IS*%
X109400000Y-111900000D03*
%TO.P,J8,5*%
%TO.N,L_EN*%
X111940000Y-114440000D03*
%TO.P,J8,6*%
%TO.N,R_EN*%
X111940000Y-111900000D03*
%TO.P,J8,7*%
%TO.N,LPWM*%
X114480000Y-114440000D03*
%TO.P,J8,8*%
%TO.N,RPWM*%
X114480000Y-111900000D03*
%TD*%
D37*
%TO.P,3v3in1,1*%
%TO.N,+5V*%
X85550000Y-101250000D03*
%TO.P,3v3in1,2*%
%TO.N,GND*%
X79950000Y-101250000D03*
%TD*%
D13*
%TO.P,mccap1,1*%
%TO.N,3V3*%
X116848000Y-81946500D03*
%TO.P,mccap1,2*%
%TO.N,GND*%
X116848000Y-79871500D03*
%TD*%
D38*
%TO.P,En1,1*%
%TO.N,En*%
X146675000Y-85200000D03*
%TO.P,En1,2*%
%TO.N,GND*%
X142525000Y-85200000D03*
%TD*%
D14*
%TO.P,R3,1*%
%TO.N,GND*%
X111220000Y-80264000D03*
%TO.P,R3,2*%
%TO.N,Net-(D4-K)*%
X109220000Y-80264000D03*
%TD*%
D10*
%TO.P,J2,1*%
%TO.N,3V3*%
X132275000Y-114500000D03*
D11*
%TO.P,J2,2*%
%TO.N,Therm-*%
X129735000Y-114500000D03*
%TD*%
D39*
%TO.P,U4,1,GND_1*%
%TO.N,GND*%
X119750000Y-80280000D03*
%TO.P,U4,2,3V3_2*%
%TO.N,3V3*%
X119750000Y-81550000D03*
%TO.P,U4,3,EN_3*%
%TO.N,En*%
X119750000Y-82820000D03*
%TO.P,U4,4,IO4_4*%
%TO.N,Motor2_FLT*%
X119750000Y-84090000D03*
%TO.P,U4,5,IO5_5*%
%TO.N,Motor2_EN*%
X119750000Y-85360000D03*
%TO.P,U4,6,IO6_6*%
%TO.N,Motor2_M0*%
X119750000Y-86630000D03*
%TO.P,U4,7,IO7_7*%
%TO.N,Motor2_M1*%
X119750000Y-87900000D03*
%TO.P,U4,8,IO15_8*%
%TO.N,Motor2_M2*%
X119750000Y-89170000D03*
%TO.P,U4,9,IO16_9*%
%TO.N,Motor2_STEP*%
X119750000Y-90440000D03*
%TO.P,U4,10,IO17_10*%
%TO.N,Motor2_DIR*%
X119750000Y-91710000D03*
%TO.P,U4,11,IO18_11*%
%TO.N,Motor1_FLT*%
X119750000Y-92980000D03*
%TO.P,U4,12,IO8_12*%
%TO.N,Motor1_EN*%
X119750000Y-94250000D03*
%TO.P,U4,13,USB_D-_13*%
%TO.N,D-*%
X119750000Y-95520000D03*
%TO.P,U4,14,USB_D+_14*%
%TO.N,D+*%
X119750000Y-96790000D03*
D40*
%TO.P,U4,15,IO3_15*%
%TO.N,Motor1_M0*%
X121515000Y-98040000D03*
%TO.P,U4,16,IO46_16*%
%TO.N,Motor1_M1*%
X122785000Y-98040000D03*
%TO.P,U4,17,IO9_17*%
%TO.N,Motor1_M2*%
X124055000Y-98040000D03*
%TO.P,U4,18,IO10_18*%
%TO.N,Motor1_STEP*%
X125325000Y-98040000D03*
%TO.P,U4,19,IO11_19*%
%TO.N,Motor1_DIR*%
X126595000Y-98040000D03*
%TO.P,U4,20,IO12_20*%
%TO.N,mosfet1_i*%
X127865000Y-98040000D03*
%TO.P,U4,21,IO13_21*%
%TO.N,R_IS*%
X129135000Y-98040000D03*
%TO.P,U4,22,IO14_22*%
%TO.N,L_IS*%
X130405000Y-98040000D03*
%TO.P,U4,23,IO21_23*%
%TO.N,R_EN*%
X131675000Y-98040000D03*
%TO.P,U4,24,IO47_24*%
%TO.N,L_EN*%
X132945000Y-98040000D03*
%TO.P,U4,25,IO48_25*%
%TO.N,RPWM*%
X134215000Y-98040000D03*
%TO.P,U4,26,IO45_26*%
%TO.N,LPWM*%
X135485000Y-98040000D03*
D39*
%TO.P,U4,27,IO0_27*%
%TO.N,BOOT*%
X137250000Y-96790000D03*
%TO.P,U4,28,IO35_28*%
%TO.N,unconnected-(U4-IO35-Pad28)*%
X137250000Y-95520000D03*
%TO.P,U4,29,IO36_29*%
%TO.N,unconnected-(U4-IO36-Pad29)*%
X137250000Y-94250000D03*
%TO.P,U4,30,IO37_30*%
%TO.N,unconnected-(U4-IO37-Pad30)*%
X137250000Y-92980000D03*
%TO.P,U4,31,IO38_31*%
%TO.N,FAN_Tach_i*%
X137250000Y-91710000D03*
%TO.P,U4,32,IO39_32*%
%TO.N,FAN_En_o*%
X137250000Y-90440000D03*
%TO.P,U4,33,IO40_33*%
%TO.N,Heat_o*%
X137250000Y-89170000D03*
%TO.P,U4,34,IO41_34*%
%TO.N,SDA*%
X137250000Y-87900000D03*
%TO.P,U4,35,IO42_35*%
%TO.N,SCL*%
X137250000Y-86630000D03*
%TO.P,U4,36,RXD0_36*%
%TO.N,RX*%
X137250000Y-85360000D03*
%TO.P,U4,37,TXD0_37*%
%TO.N,TX*%
X137250000Y-84090000D03*
%TO.P,U4,38,IO2_38*%
%TO.N,Hall_i*%
X137250000Y-82820000D03*
%TO.P,U4,39,IO1_39*%
%TO.N,Therm-*%
X137250000Y-81550000D03*
%TO.P,U4,40,GND_40*%
%TO.N,GND*%
X137250000Y-80280000D03*
D41*
%TO.P,U4,41,GND_41*%
X125600000Y-87300000D03*
X125600000Y-88700000D03*
X126300000Y-86600000D03*
X126300000Y-88000000D03*
X126300000Y-89400000D03*
X127000000Y-87300000D03*
D42*
X127000000Y-88000000D03*
D41*
X127000000Y-88700000D03*
X127700000Y-86600000D03*
X127700000Y-88000000D03*
X127700000Y-89400000D03*
X128400000Y-87300000D03*
X128400000Y-88700000D03*
%TD*%
D34*
%TO.P,3v3out1,1*%
%TO.N,3V3*%
X103400000Y-100300000D03*
%TO.P,3v3out1,2*%
%TO.N,GND*%
X99800000Y-100300000D03*
%TD*%
D15*
%TO.P,D5,1,K_1*%
%TO.N,Net-(D5-K)*%
X91875000Y-77250000D03*
%TO.P,D5,2,A_2*%
%TO.N,24V_unsafe*%
X90125000Y-77250000D03*
%TD*%
D10*
%TO.P,J11,1*%
%TO.N,GND*%
X150605000Y-107405000D03*
D11*
%TO.P,J11,2*%
%TO.N,Heat_o*%
X150605000Y-104865000D03*
%TD*%
D21*
%TO.P,tr3,1*%
%TO.N,Net-(Q1-G)*%
X100700000Y-107600000D03*
%TO.P,tr3,2*%
%TO.N,mosfet1_i*%
X102700000Y-107600000D03*
%TD*%
D10*
%TO.P,J6,1*%
%TO.N,Motor1_A2*%
X40000000Y-109790000D03*
D11*
%TO.P,J6,2*%
%TO.N,Motor1_A1*%
X40000000Y-107250000D03*
%TO.P,J6,3*%
%TO.N,Motor1_B1*%
X40000000Y-104710000D03*
%TO.P,J6,4*%
%TO.N,Motor1_B2*%
X40000000Y-102170000D03*
%TD*%
D14*
%TO.P,R1,1*%
%TO.N,Net-(J1-CC2)*%
X97186000Y-82988000D03*
%TO.P,R1,2*%
%TO.N,GND*%
X95186000Y-82988000D03*
%TD*%
D38*
%TO.P,Boot1,1*%
%TO.N,Net-(Boot1-Pad1)*%
X146875000Y-88800000D03*
%TO.P,Boot1,2*%
%TO.N,GND*%
X142725000Y-88800000D03*
%TD*%
D43*
%TO.N,LPWM*%
X135500000Y-98000000D03*
%TO.N,RX*%
X139750000Y-86000000D03*
%TO.N,TX*%
X139750000Y-84000000D03*
%TO.N,Hall_i*%
X134000000Y-85500000D03*
%TO.N,Therm-*%
X137250000Y-81550000D03*
%TO.N,GND*%
X137750000Y-102750000D03*
%TO.N,3V3*%
X151500000Y-85250000D03*
X132125000Y-107800000D03*
D44*
X146900000Y-94700000D03*
X105692000Y-80264000D03*
X116848000Y-81946500D03*
X132800000Y-111500000D03*
X146924000Y-98692000D03*
X103400000Y-100300000D03*
X119750000Y-81550000D03*
X101113500Y-92088000D03*
X137000000Y-111300000D03*
X117500000Y-112212500D03*
X112500000Y-82000000D03*
X101092000Y-85852000D03*
%TO.N,GND*%
X142814400Y-79908400D03*
X95186000Y-82988000D03*
X49022000Y-110236000D03*
X140665200Y-79908400D03*
X89871000Y-79536000D03*
X49500000Y-94250000D03*
D43*
X128800000Y-111700000D03*
D44*
X116848000Y-79871500D03*
X108661200Y-83362800D03*
X113800000Y-79962500D03*
X111220000Y-80264000D03*
X91950000Y-100500000D03*
X102116000Y-80583000D03*
X99800000Y-100300000D03*
X80000000Y-101250000D03*
X81000000Y-94750000D03*
X130768000Y-111500000D03*
X103393500Y-85788000D03*
X119750000Y-80280000D03*
X95616000Y-80583000D03*
D43*
X142525000Y-85200000D03*
D44*
X117500000Y-114287500D03*
X137250000Y-80280000D03*
%TO.N,En*%
X119750000Y-82820000D03*
X139200000Y-79600000D03*
%TO.N,Motor2_FLT*%
X119750000Y-84090000D03*
%TO.N,Motor2_EN*%
X119750000Y-85360000D03*
%TO.N,Motor2_M0*%
X119750000Y-86630000D03*
%TO.N,Motor2_M1*%
X119735600Y-87884000D03*
%TO.N,Motor2_M2*%
X119750000Y-89170000D03*
%TO.N,Motor2_STEP*%
X119750000Y-90440000D03*
%TO.N,Motor2_DIR*%
X119750000Y-91710000D03*
%TO.N,Net-(J1-CC1)*%
X106661200Y-83400000D03*
X100330000Y-81889600D03*
D43*
%TO.N,Net-(Boot1-Pad1)*%
X146875000Y-88800000D03*
X149200000Y-89400000D03*
%TO.N,BOOT*%
X149250000Y-87350000D03*
X137250000Y-96790000D03*
D44*
%TO.N,Motor1_FLT*%
X119750000Y-92980000D03*
%TO.N,Motor1_EN*%
X119750000Y-94250000D03*
%TO.N,Motor1_M0*%
X121515000Y-98040000D03*
%TO.N,Motor1_M1*%
X122785000Y-98040000D03*
%TO.N,Motor1_M2*%
X124055000Y-98040000D03*
%TO.N,Motor1_STEP*%
X125325000Y-98040000D03*
%TO.N,Motor1_DIR*%
X126595000Y-98040000D03*
%TO.N,GND*%
X142725000Y-88800000D03*
%TD*%
%TO.N,Hall_i*%
D45*
X134000000Y-85500000D02*
X136680000Y-82820000D01*
X136680000Y-82820000D02*
X137250000Y-82820000D01*
%TO.N,RX*%
X139110000Y-85360000D02*
X139750000Y-86000000D01*
X137250000Y-85360000D02*
X139110000Y-85360000D01*
%TO.N,TX*%
X139660000Y-84090000D02*
X139750000Y-84000000D01*
X137250000Y-84090000D02*
X139660000Y-84090000D01*
%TO.N,FAN_En_o*%
X142100000Y-110300000D02*
X142100000Y-113460000D01*
X142100000Y-113460000D02*
X141460000Y-114100000D01*
X140750000Y-108950000D02*
X142100000Y-110300000D01*
X140750000Y-92940000D02*
X140750000Y-108950000D01*
X138250000Y-90440000D02*
X140750000Y-92940000D01*
X137250000Y-90440000D02*
X138250000Y-90440000D01*
%TO.N,FAN_Tach_i*%
X138250000Y-91710000D02*
X137250000Y-91710000D01*
X140250000Y-109950000D02*
X140250000Y-93710000D01*
X140250000Y-93710000D02*
X138250000Y-91710000D01*
X138900000Y-111300000D02*
X140250000Y-109950000D01*
X138900000Y-114080000D02*
X138900000Y-111300000D01*
X138920000Y-114100000D02*
X138900000Y-114080000D01*
%TO.N,En*%
X147400000Y-81700000D02*
X143097800Y-81700000D01*
X149500000Y-83800000D02*
X147400000Y-81700000D01*
X149500000Y-85200000D02*
X149500000Y-83800000D01*
X143097800Y-81700000D02*
X142814400Y-81983400D01*
X146675000Y-85200000D02*
X149500000Y-85200000D01*
%TO.N,+24V*%
D46*
X144690000Y-115950000D02*
X146540000Y-114100000D01*
X89200000Y-115950000D02*
X144690000Y-115950000D01*
X88250000Y-115000000D02*
X89200000Y-115950000D01*
D45*
X146500000Y-114140000D02*
X146500000Y-114250000D01*
X146540000Y-114100000D02*
X146500000Y-114140000D01*
%TO.N,RPWM*%
X134215000Y-101385000D02*
X134215000Y-98040000D01*
X130200000Y-105400000D02*
X134215000Y-101385000D01*
X120980000Y-105400000D02*
X130200000Y-105400000D01*
X114480000Y-111900000D02*
X120980000Y-105400000D01*
%TO.N,L_EN*%
X120418299Y-104300000D02*
X129780991Y-104300000D01*
X132945000Y-101135991D02*
X132945000Y-98040000D01*
X113305000Y-111413299D02*
X120418299Y-104300000D01*
X129780991Y-104300000D02*
X132945000Y-101135991D01*
X113305000Y-113075000D02*
X113305000Y-111413299D01*
X111940000Y-114440000D02*
X113305000Y-113075000D01*
%TO.N,R_EN*%
X131675000Y-99225000D02*
X131675000Y-98040000D01*
X131600000Y-99300000D02*
X131675000Y-99225000D01*
%TO.N,L_IS*%
X130405000Y-99195000D02*
X130405000Y-98040000D01*
X127000000Y-102600000D02*
X130405000Y-99195000D01*
X119578299Y-102600000D02*
X127000000Y-102600000D01*
X110765000Y-111413299D02*
X119578299Y-102600000D01*
X110765000Y-113075000D02*
X110765000Y-111413299D01*
X109400000Y-114440000D02*
X110765000Y-113075000D01*
%TO.N,R_IS*%
X119500000Y-101800000D02*
X109400000Y-111900000D01*
X126400000Y-101800000D02*
X119500000Y-101800000D01*
X129135000Y-99065000D02*
X126400000Y-101800000D01*
X129135000Y-98040000D02*
X129135000Y-99065000D01*
%TO.N,+24V*%
D47*
X55890000Y-85852000D02*
X56134000Y-85608000D01*
D48*
X55642000Y-86100000D02*
X56134000Y-85608000D01*
X56472000Y-85608000D02*
X56134000Y-85608000D01*
X56632000Y-85608000D02*
X56134000Y-85608000D01*
%TO.N,mosfet1_o*%
D45*
X83375000Y-114800000D02*
X83400000Y-114775000D01*
D47*
X83375000Y-109475000D02*
X83300000Y-109400000D01*
X93340000Y-109400000D02*
X95140000Y-111200000D01*
X83300000Y-109400000D02*
X93340000Y-109400000D01*
X83375000Y-114800000D02*
X83375000Y-109475000D01*
%TO.N,3V3*%
D45*
X113762500Y-82000000D02*
X113800000Y-82037500D01*
D47*
X101113500Y-92088000D02*
X101113500Y-85873500D01*
X101113500Y-85873500D02*
X101092000Y-85852000D01*
D45*
X112500000Y-82000000D02*
X113762500Y-82000000D01*
%TO.N,En*%
X140614400Y-81983400D02*
X139200000Y-80569000D01*
D48*
X142814400Y-81983400D02*
X140614400Y-81983400D01*
D45*
X139200000Y-80569000D02*
X139200000Y-79600000D01*
D48*
X139200000Y-79600000D02*
X139190000Y-79610000D01*
%TO.N,Net-(D4-K)*%
X107442000Y-80264000D02*
X109220000Y-80264000D01*
%TO.N,Therm-*%
D45*
X134200000Y-107800000D02*
X131550000Y-110450000D01*
X138610000Y-103390000D02*
X134200000Y-107800000D01*
X131550000Y-110450000D02*
X130163900Y-110450000D01*
X138610000Y-101500000D02*
X138610000Y-103390000D01*
X129735000Y-110878900D02*
X129735000Y-114500000D01*
X130163900Y-110450000D02*
X129735000Y-110878900D01*
%TO.N,Net-(J1-CC1)*%
D48*
X100116000Y-80583000D02*
X100116000Y-81675600D01*
X100116000Y-81675600D02*
X100330000Y-81889600D01*
%TO.N,24V_unsafe*%
D45*
X87875000Y-79500000D02*
X90125000Y-77250000D01*
X80000000Y-79500000D02*
X87875000Y-79500000D01*
D49*
X80000000Y-76717500D02*
X80000000Y-79500000D01*
X80000000Y-79500000D02*
X80000000Y-84250000D01*
%TO.N,+5V*%
D50*
X97234000Y-78988000D02*
X100498000Y-78988000D01*
D48*
X101285000Y-80614000D02*
X101316000Y-80583000D01*
D50*
X93472000Y-85322000D02*
X93472000Y-82705920D01*
D47*
X94256000Y-86106000D02*
X94256000Y-90269600D01*
X93746000Y-92710000D02*
X95550000Y-94514000D01*
D50*
X94440720Y-81737200D02*
X96186800Y-81737200D01*
X94256000Y-86106000D02*
X93472000Y-85322000D01*
D48*
X98833500Y-85788000D02*
X98972160Y-85788000D01*
D47*
X93746000Y-93054000D02*
X85550000Y-101250000D01*
D50*
X96186800Y-81737200D02*
X96416000Y-81508000D01*
D47*
X93746000Y-90875500D02*
X93746000Y-92710000D01*
D50*
X93472000Y-82705920D02*
X94440720Y-81737200D01*
X100498000Y-78988000D02*
X101316000Y-79806000D01*
X96416000Y-80583000D02*
X96416000Y-79806000D01*
X101316000Y-79806000D02*
X101316000Y-80583000D01*
D47*
X95550000Y-94514000D02*
X95550000Y-100500000D01*
D50*
X96416000Y-81508000D02*
X96416000Y-80583000D01*
D47*
X98833500Y-85788000D02*
X93746000Y-90875500D01*
D50*
X96416000Y-79806000D02*
X97234000Y-78988000D01*
D47*
X93746000Y-92710000D02*
X93746000Y-93054000D01*
%TO.N,D+*%
D48*
X98529552Y-81936000D02*
X98166000Y-81572448D01*
X116661802Y-96380000D02*
X102339782Y-82057980D01*
X98165000Y-79557000D02*
X99067000Y-79557000D01*
X119750000Y-96790000D02*
X118624999Y-96790000D01*
X99116000Y-79606000D02*
X99116000Y-80583000D01*
X99166000Y-80633000D02*
X99116000Y-80583000D01*
X101618232Y-82057980D02*
X100756632Y-82919580D01*
X100756632Y-82919580D02*
X99903368Y-82919580D01*
X99067000Y-79557000D02*
X99116000Y-79606000D01*
X99066000Y-81282000D02*
X99166000Y-81282000D01*
X98166000Y-81572448D02*
X98166000Y-79558000D01*
X98166000Y-79558000D02*
X99066000Y-79558000D01*
X98919788Y-81936000D02*
X98529552Y-81936000D01*
X118624999Y-96790000D02*
X118214999Y-96380000D01*
X99066000Y-79558000D02*
X99066000Y-81282000D01*
X102339782Y-82057980D02*
X101618232Y-82057980D01*
X118214999Y-96380000D02*
X116661802Y-96380000D01*
X98116000Y-80583000D02*
X98116000Y-79606000D01*
X99903368Y-82919580D02*
X98919788Y-81936000D01*
X98116000Y-79606000D02*
X98165000Y-79557000D01*
X99166000Y-81282000D02*
X99166000Y-80633000D01*
%TO.N,D-*%
X100570244Y-82469600D02*
X100089756Y-82469600D01*
X99567000Y-81609000D02*
X99616000Y-81560000D01*
X118214999Y-95930000D02*
X116848198Y-95930000D01*
X116848198Y-95930000D02*
X102526198Y-81608000D01*
X100089756Y-82469600D02*
X99666000Y-82045844D01*
X98616000Y-81560000D02*
X98665000Y-81609000D01*
X98665000Y-80583000D02*
X98665000Y-81609000D01*
X99110800Y-81609000D02*
X99567000Y-81609000D01*
X98616000Y-80583000D02*
X98665000Y-80583000D01*
X98665000Y-81609000D02*
X99110800Y-81609000D01*
X102526198Y-81608000D02*
X101431844Y-81608000D01*
X99616000Y-81560000D02*
X99616000Y-80583000D01*
X119750000Y-95520000D02*
X118624999Y-95520000D01*
X98616000Y-80583000D02*
X98616000Y-81560000D01*
X99666000Y-82045844D02*
X99666000Y-80583000D01*
X101431844Y-81608000D02*
X100570244Y-82469600D01*
X118624999Y-95520000D02*
X118214999Y-95930000D01*
X99666000Y-80583000D02*
X99616000Y-80583000D01*
%TO.N,Net-(J1-CC2)*%
X96686000Y-82988000D02*
X97116000Y-82558000D01*
X97116000Y-82558000D02*
X97116000Y-80583000D01*
%TO.N,SCL*%
D45*
X144400000Y-92700000D02*
X146900000Y-92700000D01*
X138330000Y-86630000D02*
X144400000Y-92700000D01*
X146930000Y-92670000D02*
X150500000Y-92670000D01*
X146900000Y-92700000D02*
X146930000Y-92670000D01*
X137250000Y-86630000D02*
X138330000Y-86630000D01*
%TO.N,Net-(D5-K)*%
X91875000Y-79532000D02*
X91871000Y-79536000D01*
X91875000Y-77250000D02*
X91875000Y-79532000D01*
%TO.N,SDA*%
X149010000Y-96700000D02*
X150500000Y-95210000D01*
X147000000Y-96700000D02*
X146630000Y-96700000D01*
X137830000Y-87900000D02*
X137250000Y-87900000D01*
X147000000Y-96700000D02*
X149010000Y-96700000D01*
X146630000Y-96700000D02*
X137830000Y-87900000D01*
%TO.N,mosfet1_i*%
X102700000Y-107600000D02*
X102700000Y-106900000D01*
X109600000Y-100000000D02*
X126700000Y-100000000D01*
X102700000Y-106900000D02*
X109600000Y-100000000D01*
X126700000Y-100000000D02*
X127865000Y-98835000D01*
X127865000Y-98835000D02*
X127865000Y-98040000D01*
%TO.N,Heat_o*%
X138250000Y-89170000D02*
X145975000Y-96895000D01*
X137250000Y-89170000D02*
X138250000Y-89170000D01*
X145975000Y-96895000D02*
X145975000Y-100235000D01*
X145975000Y-100235000D02*
X150605000Y-104865000D01*
%TO.N,Net-(Q1-G)*%
X97680000Y-111200000D02*
X100700000Y-108180000D01*
X100700000Y-108180000D02*
X100700000Y-107600000D01*
%TO.N,R_EN*%
X131599009Y-99300000D02*
X131600000Y-99300000D01*
X127399009Y-103500000D02*
X131599009Y-99300000D01*
X120340000Y-103500000D02*
X127399009Y-103500000D01*
X111940000Y-111900000D02*
X120340000Y-103500000D01*
%TO.N,R_IS*%
D48*
X128821000Y-98095000D02*
X128892000Y-98024000D01*
%TD*%
%TA.AperFunction,Conductor*%
%TO.N,+24V*%
G36*
X91878502Y-72270185D02*
G01*
X91924257Y-72322989D01*
X91935390Y-72378762D01*
X91805534Y-76154762D01*
X91783557Y-76221085D01*
X91729211Y-76264998D01*
X91681608Y-76274500D01*
X91538331Y-76274500D01*
X91538312Y-76274501D01*
X91437247Y-76284825D01*
X91273484Y-76339092D01*
X91273481Y-76339093D01*
X91126648Y-76429661D01*
X91087681Y-76468629D01*
X91026358Y-76502114D01*
X90956666Y-76497130D01*
X90912319Y-76468629D01*
X90873351Y-76429661D01*
X90873350Y-76429660D01*
X90737615Y-76345938D01*
X90726518Y-76339093D01*
X90726513Y-76339091D01*
X90725069Y-76338612D01*
X90562753Y-76284826D01*
X90562751Y-76284825D01*
X90461678Y-76274500D01*
X89788330Y-76274500D01*
X89788312Y-76274501D01*
X89687247Y-76284825D01*
X89523484Y-76339092D01*
X89523481Y-76339093D01*
X89376648Y-76429661D01*
X89254661Y-76551648D01*
X89164093Y-76698481D01*
X89164092Y-76698484D01*
X89109826Y-76862247D01*
X89109826Y-76862248D01*
X89109825Y-76862248D01*
X89099500Y-76963315D01*
X89099500Y-77339546D01*
X89079815Y-77406585D01*
X89063181Y-77427227D01*
X88688893Y-77801516D01*
X87997121Y-78493289D01*
X87652229Y-78838181D01*
X87590906Y-78871666D01*
X87564548Y-78874500D01*
X81124500Y-78874500D01*
X81057461Y-78854815D01*
X81011706Y-78802011D01*
X81000500Y-78750500D01*
X81000500Y-78742000D01*
X81020185Y-78674961D01*
X81072989Y-78629206D01*
X81124500Y-78618000D01*
X81200003Y-78618000D01*
X81200008Y-78618000D01*
X81302797Y-78607499D01*
X81469334Y-78552314D01*
X81618655Y-78460211D01*
X81742711Y-78336155D01*
X81834814Y-78186834D01*
X81889999Y-78020297D01*
X81900500Y-77917508D01*
X81900500Y-76592941D01*
X83099500Y-76592941D01*
X83099500Y-76842058D01*
X83099501Y-76842075D01*
X83132017Y-77089061D01*
X83196498Y-77329707D01*
X83291830Y-77559861D01*
X83291837Y-77559876D01*
X83416400Y-77775626D01*
X83568060Y-77973274D01*
X83568066Y-77973281D01*
X83744218Y-78149433D01*
X83744225Y-78149439D01*
X83941873Y-78301099D01*
X84157623Y-78425662D01*
X84157638Y-78425669D01*
X84256825Y-78466753D01*
X84387793Y-78521002D01*
X84628435Y-78585482D01*
X84875435Y-78618000D01*
X84875442Y-78618000D01*
X85124558Y-78618000D01*
X85124565Y-78618000D01*
X85371565Y-78585482D01*
X85612207Y-78521002D01*
X85842373Y-78425664D01*
X86058127Y-78301099D01*
X86255776Y-78149438D01*
X86431938Y-77973276D01*
X86583599Y-77775627D01*
X86708164Y-77559873D01*
X86803502Y-77329707D01*
X86867982Y-77089065D01*
X86900500Y-76842065D01*
X86900500Y-76592935D01*
X86867982Y-76345935D01*
X86803502Y-76105293D01*
X86708164Y-75875127D01*
X86664780Y-75799984D01*
X86583599Y-75659373D01*
X86431939Y-75461725D01*
X86431933Y-75461718D01*
X86255781Y-75285566D01*
X86255774Y-75285560D01*
X86058126Y-75133900D01*
X85842376Y-75009337D01*
X85842361Y-75009330D01*
X85612207Y-74913998D01*
X85371561Y-74849517D01*
X85124575Y-74817001D01*
X85124570Y-74817000D01*
X85124565Y-74817000D01*
X84875435Y-74817000D01*
X84875429Y-74817000D01*
X84875424Y-74817001D01*
X84628438Y-74849517D01*
X84387792Y-74913998D01*
X84157638Y-75009330D01*
X84157623Y-75009337D01*
X83941873Y-75133900D01*
X83744225Y-75285560D01*
X83744218Y-75285566D01*
X83568066Y-75461718D01*
X83568060Y-75461725D01*
X83416400Y-75659373D01*
X83291837Y-75875123D01*
X83291830Y-75875138D01*
X83196498Y-76105292D01*
X83132017Y-76345938D01*
X83099501Y-76592924D01*
X83099500Y-76592941D01*
X81900500Y-76592941D01*
X81900500Y-75517492D01*
X81889999Y-75414703D01*
X81834814Y-75248166D01*
X81764333Y-75133900D01*
X81742713Y-75098848D01*
X81742710Y-75098844D01*
X81618655Y-74974789D01*
X81618651Y-74974786D01*
X81469337Y-74882687D01*
X81469335Y-74882686D01*
X81369237Y-74849517D01*
X81302797Y-74827501D01*
X81302795Y-74827500D01*
X81200015Y-74817000D01*
X81200008Y-74817000D01*
X78799992Y-74817000D01*
X78799984Y-74817000D01*
X78697204Y-74827500D01*
X78697203Y-74827501D01*
X78530664Y-74882686D01*
X78530662Y-74882687D01*
X78381348Y-74974786D01*
X78381344Y-74974789D01*
X78257289Y-75098844D01*
X78257286Y-75098848D01*
X78165187Y-75248162D01*
X78165186Y-75248164D01*
X78110001Y-75414703D01*
X78110000Y-75414704D01*
X78099500Y-75517484D01*
X78099500Y-77917515D01*
X78110000Y-78020295D01*
X78110001Y-78020296D01*
X78165186Y-78186835D01*
X78165187Y-78186837D01*
X78257286Y-78336151D01*
X78257289Y-78336155D01*
X78381344Y-78460210D01*
X78381348Y-78460213D01*
X78530662Y-78552312D01*
X78530664Y-78552313D01*
X78530666Y-78552314D01*
X78697203Y-78607499D01*
X78799992Y-78618000D01*
X78875500Y-78618000D01*
X78942539Y-78637685D01*
X78988294Y-78690489D01*
X78999500Y-78742000D01*
X78999500Y-82732465D01*
X78979815Y-82799504D01*
X78927011Y-82845259D01*
X78888102Y-82855823D01*
X78847202Y-82860001D01*
X78847200Y-82860001D01*
X78680668Y-82915185D01*
X78680663Y-82915187D01*
X78531342Y-83007289D01*
X78407289Y-83131342D01*
X78315187Y-83280663D01*
X78315185Y-83280668D01*
X78315115Y-83280880D01*
X78260001Y-83447203D01*
X78260001Y-83447204D01*
X78260000Y-83447204D01*
X78249500Y-83549983D01*
X78249500Y-84950001D01*
X78249501Y-84950018D01*
X78260000Y-85052796D01*
X78260001Y-85052799D01*
X78315185Y-85219331D01*
X78315187Y-85219336D01*
X78350069Y-85275888D01*
X78407288Y-85368656D01*
X78531344Y-85492712D01*
X78680666Y-85584814D01*
X78847203Y-85639999D01*
X78949991Y-85650500D01*
X81050008Y-85650499D01*
X81152797Y-85639999D01*
X81319334Y-85584814D01*
X81468656Y-85492712D01*
X81592712Y-85368656D01*
X81684814Y-85219334D01*
X81739999Y-85052797D01*
X81750500Y-84950009D01*
X81750500Y-84949986D01*
X82250001Y-84949986D01*
X82260494Y-85052697D01*
X82315641Y-85219119D01*
X82315643Y-85219124D01*
X82407684Y-85368345D01*
X82531654Y-85492315D01*
X82680875Y-85584356D01*
X82680880Y-85584358D01*
X82847302Y-85639505D01*
X82847309Y-85639506D01*
X82950019Y-85649999D01*
X83749999Y-85649999D01*
X84250000Y-85649999D01*
X85049972Y-85649999D01*
X85049986Y-85649998D01*
X85152697Y-85639505D01*
X85319119Y-85584358D01*
X85319124Y-85584356D01*
X85468345Y-85492315D01*
X85592315Y-85368345D01*
X85684356Y-85219124D01*
X85684358Y-85219119D01*
X85739505Y-85052697D01*
X85739506Y-85052690D01*
X85749999Y-84949986D01*
X85750000Y-84949973D01*
X85750000Y-84500000D01*
X84250000Y-84500000D01*
X84250000Y-85649999D01*
X83749999Y-85649999D01*
X83750000Y-85649998D01*
X83750000Y-84500000D01*
X82250001Y-84500000D01*
X82250001Y-84949986D01*
X81750500Y-84949986D01*
X81750499Y-84000000D01*
X81750499Y-83550013D01*
X82250000Y-83550013D01*
X82250000Y-84000000D01*
X83750000Y-84000000D01*
X84250000Y-84000000D01*
X85749999Y-84000000D01*
X85749999Y-83550028D01*
X85749998Y-83550013D01*
X85739505Y-83447302D01*
X85684358Y-83280880D01*
X85684356Y-83280875D01*
X85592315Y-83131654D01*
X85468345Y-83007684D01*
X85319124Y-82915643D01*
X85319119Y-82915641D01*
X85152697Y-82860494D01*
X85152690Y-82860493D01*
X85049986Y-82850000D01*
X84250000Y-82850000D01*
X84250000Y-84000000D01*
X83750000Y-84000000D01*
X83750000Y-82850000D01*
X82950028Y-82850000D01*
X82950012Y-82850001D01*
X82847302Y-82860494D01*
X82680880Y-82915641D01*
X82680875Y-82915643D01*
X82531654Y-83007684D01*
X82407684Y-83131654D01*
X82315643Y-83280875D01*
X82315641Y-83280880D01*
X82260494Y-83447302D01*
X82260493Y-83447309D01*
X82250000Y-83550013D01*
X81750499Y-83550013D01*
X81750499Y-83549998D01*
X81750498Y-83549981D01*
X81739999Y-83447203D01*
X81739998Y-83447200D01*
X81684814Y-83280666D01*
X81592712Y-83131344D01*
X81468656Y-83007288D01*
X81319334Y-82915186D01*
X81152797Y-82860001D01*
X81152795Y-82860000D01*
X81111896Y-82855822D01*
X81047205Y-82829425D01*
X81007054Y-82772244D01*
X81000500Y-82732464D01*
X81000500Y-80249500D01*
X81020185Y-80182461D01*
X81072989Y-80136706D01*
X81124500Y-80125500D01*
X87936608Y-80125500D01*
X87936608Y-80125499D01*
X88002139Y-80112465D01*
X88002140Y-80112465D01*
X88016061Y-80109695D01*
X88057452Y-80101463D01*
X88094032Y-80086311D01*
X88171286Y-80054312D01*
X88225842Y-80017858D01*
X88273733Y-79985858D01*
X88360858Y-79898733D01*
X88360858Y-79898731D01*
X88371066Y-79888524D01*
X88371068Y-79888521D01*
X88558821Y-79700767D01*
X88620142Y-79667284D01*
X88689834Y-79672268D01*
X88745767Y-79714140D01*
X88770184Y-79779604D01*
X88770500Y-79788450D01*
X88770500Y-80036000D01*
X88770501Y-80036019D01*
X88781000Y-80138796D01*
X88781001Y-80138799D01*
X88817684Y-80249500D01*
X88836186Y-80305334D01*
X88928288Y-80454656D01*
X89052344Y-80578712D01*
X89201666Y-80670814D01*
X89368203Y-80725999D01*
X89470991Y-80736500D01*
X90271008Y-80736499D01*
X90271016Y-80736498D01*
X90271019Y-80736498D01*
X90327302Y-80730748D01*
X90373797Y-80725999D01*
X90540334Y-80670814D01*
X90689656Y-80578712D01*
X90783319Y-80485049D01*
X90844642Y-80451564D01*
X90914334Y-80456548D01*
X90958681Y-80485049D01*
X91052344Y-80578712D01*
X91201666Y-80670814D01*
X91368203Y-80725999D01*
X91470991Y-80736500D01*
X91519634Y-80736499D01*
X91586670Y-80756182D01*
X91632426Y-80808985D01*
X91643560Y-80864761D01*
X91291585Y-91099762D01*
X91269608Y-91166085D01*
X91215262Y-91209998D01*
X91167658Y-91219500D01*
X91078695Y-91219500D01*
X91001454Y-91231733D01*
X90846972Y-91256201D01*
X90623849Y-91328697D01*
X90414808Y-91435209D01*
X90270377Y-91540144D01*
X90204570Y-91563623D01*
X90136516Y-91547797D01*
X90087822Y-91497691D01*
X90081309Y-91483155D01*
X90079353Y-91477912D01*
X90079350Y-91477906D01*
X89993190Y-91362812D01*
X89993187Y-91362809D01*
X89878093Y-91276649D01*
X89878086Y-91276645D01*
X89743379Y-91226403D01*
X89743372Y-91226401D01*
X89683844Y-91220000D01*
X88896000Y-91220000D01*
X88896000Y-92099175D01*
X88838515Y-92075364D01*
X88711004Y-92050000D01*
X88580996Y-92050000D01*
X88453485Y-92075364D01*
X88396000Y-92099175D01*
X88396000Y-91220000D01*
X87608155Y-91220000D01*
X87548627Y-91226401D01*
X87548620Y-91226403D01*
X87413913Y-91276645D01*
X87413906Y-91276649D01*
X87298812Y-91362809D01*
X87298809Y-91362812D01*
X87212649Y-91477906D01*
X87212645Y-91477913D01*
X87162403Y-91612620D01*
X87162401Y-91612627D01*
X87156000Y-91672155D01*
X87156000Y-92460000D01*
X88035175Y-92460000D01*
X88011364Y-92517485D01*
X87986000Y-92644996D01*
X87986000Y-92775004D01*
X88011364Y-92902515D01*
X88035175Y-92960000D01*
X87156000Y-92960000D01*
X87156000Y-93747844D01*
X87162401Y-93807372D01*
X87162403Y-93807379D01*
X87212645Y-93942086D01*
X87212649Y-93942093D01*
X87298809Y-94057187D01*
X87298812Y-94057190D01*
X87413906Y-94143350D01*
X87413913Y-94143354D01*
X87548620Y-94193596D01*
X87548627Y-94193598D01*
X87608155Y-94199999D01*
X87608172Y-94200000D01*
X88396000Y-94200000D01*
X88396000Y-93320824D01*
X88453485Y-93344636D01*
X88580996Y-93370000D01*
X88711004Y-93370000D01*
X88838515Y-93344636D01*
X88896000Y-93320824D01*
X88896000Y-94200000D01*
X89683828Y-94200000D01*
X89683844Y-94199999D01*
X89743372Y-94193598D01*
X89743379Y-94193596D01*
X89878086Y-94143354D01*
X89878093Y-94143350D01*
X89993187Y-94057190D01*
X89993190Y-94057187D01*
X90079350Y-93942093D01*
X90079353Y-93942087D01*
X90081308Y-93936847D01*
X90123176Y-93880911D01*
X90188639Y-93856490D01*
X90256913Y-93871338D01*
X90270377Y-93879856D01*
X90356032Y-93942087D01*
X90414808Y-93984790D01*
X90556895Y-94057187D01*
X90623849Y-94091302D01*
X90735410Y-94127550D01*
X90846974Y-94163799D01*
X91076079Y-94200085D01*
X91139212Y-94230014D01*
X91176144Y-94289325D01*
X91180607Y-94326819D01*
X91174054Y-94517402D01*
X91152077Y-94583726D01*
X91137808Y-94600822D01*
X85825449Y-99913181D01*
X85764126Y-99946666D01*
X85737768Y-99949500D01*
X83999998Y-99949500D01*
X83999981Y-99949501D01*
X83897203Y-99960000D01*
X83897200Y-99960001D01*
X83730668Y-100015185D01*
X83730663Y-100015187D01*
X83581342Y-100107289D01*
X83457289Y-100231342D01*
X83365187Y-100380663D01*
X83365186Y-100380666D01*
X83310001Y-100547203D01*
X83310001Y-100547204D01*
X83310000Y-100547204D01*
X83299500Y-100649983D01*
X83299500Y-101850001D01*
X83299501Y-101850018D01*
X83310000Y-101952796D01*
X83310001Y-101952799D01*
X83351818Y-102078992D01*
X83365186Y-102119334D01*
X83457288Y-102268656D01*
X83581344Y-102392712D01*
X83730666Y-102484814D01*
X83897203Y-102539999D01*
X83999991Y-102550500D01*
X87100008Y-102550499D01*
X87107987Y-102549684D01*
X87147829Y-102545614D01*
X87202797Y-102539999D01*
X87369334Y-102484814D01*
X87518656Y-102392712D01*
X87642712Y-102268656D01*
X87734814Y-102119334D01*
X87789999Y-101952797D01*
X87800500Y-101850009D01*
X87800499Y-100649992D01*
X87789999Y-100547203D01*
X87734814Y-100380666D01*
X87734810Y-100380660D01*
X87734809Y-100380657D01*
X87689342Y-100306944D01*
X87670901Y-100239552D01*
X87691823Y-100172888D01*
X87707194Y-100154171D01*
X90874360Y-96987005D01*
X90935678Y-96953524D01*
X91005370Y-96958508D01*
X91061303Y-97000380D01*
X91085720Y-97065844D01*
X91085963Y-97078952D01*
X91017156Y-99079762D01*
X90995179Y-99146085D01*
X90940833Y-99189998D01*
X90893232Y-99199500D01*
X90850000Y-99199500D01*
X90849980Y-99199501D01*
X90747203Y-99210000D01*
X90747200Y-99210001D01*
X90580668Y-99265185D01*
X90580663Y-99265187D01*
X90431342Y-99357289D01*
X90307289Y-99481342D01*
X90215187Y-99630663D01*
X90215186Y-99630666D01*
X90160001Y-99797203D01*
X90160001Y-99797204D01*
X90160000Y-99797204D01*
X90149500Y-99899983D01*
X90149500Y-101100001D01*
X90149501Y-101100018D01*
X90160000Y-101202796D01*
X90160001Y-101202799D01*
X90206351Y-101342671D01*
X90215186Y-101369334D01*
X90307288Y-101518656D01*
X90431344Y-101642712D01*
X90580666Y-101734814D01*
X90747203Y-101789999D01*
X90808025Y-101796212D01*
X90872716Y-101822607D01*
X90912868Y-101879788D01*
X90919350Y-101923832D01*
X90692177Y-108529762D01*
X90670200Y-108596085D01*
X90615854Y-108639998D01*
X90568250Y-108649500D01*
X85146870Y-108649500D01*
X85079831Y-108629815D01*
X85034076Y-108577011D01*
X85029164Y-108564505D01*
X85017651Y-108529762D01*
X84984814Y-108430666D01*
X84892712Y-108281344D01*
X84768656Y-108157288D01*
X84619334Y-108065186D01*
X84452797Y-108010001D01*
X84452795Y-108010000D01*
X84350010Y-107999500D01*
X82249998Y-107999500D01*
X82249981Y-107999501D01*
X82147203Y-108010000D01*
X82147200Y-108010001D01*
X81980668Y-108065185D01*
X81980663Y-108065187D01*
X81831342Y-108157289D01*
X81707289Y-108281342D01*
X81615187Y-108430663D01*
X81615185Y-108430668D01*
X81615115Y-108430880D01*
X81560001Y-108597203D01*
X81560001Y-108597204D01*
X81560000Y-108597204D01*
X81549500Y-108699983D01*
X81549500Y-110100001D01*
X81549501Y-110100018D01*
X81560000Y-110202796D01*
X81560001Y-110202799D01*
X81570836Y-110235496D01*
X81615186Y-110369334D01*
X81707288Y-110518656D01*
X81831344Y-110642712D01*
X81980666Y-110734814D01*
X82147203Y-110789999D01*
X82249991Y-110800500D01*
X82500501Y-110800499D01*
X82567539Y-110820183D01*
X82613294Y-110872987D01*
X82624500Y-110924499D01*
X82624500Y-113325500D01*
X82604815Y-113392539D01*
X82552011Y-113438294D01*
X82500505Y-113449500D01*
X82477132Y-113449500D01*
X82477123Y-113449501D01*
X82417516Y-113455908D01*
X82282671Y-113506202D01*
X82282664Y-113506206D01*
X82167455Y-113592452D01*
X82167452Y-113592455D01*
X82081206Y-113707664D01*
X82081202Y-113707671D01*
X82030908Y-113842517D01*
X82026622Y-113882386D01*
X82024501Y-113902123D01*
X82024500Y-113902135D01*
X82024500Y-113912690D01*
X82004815Y-113979729D01*
X81988181Y-114000371D01*
X81317962Y-114670590D01*
X81300925Y-114607007D01*
X81235099Y-114492993D01*
X81142007Y-114399901D01*
X81027993Y-114334075D01*
X80964409Y-114317037D01*
X81596716Y-113684728D01*
X81542550Y-113645375D01*
X81353217Y-113548904D01*
X81151129Y-113483242D01*
X80941246Y-113450000D01*
X80728754Y-113450000D01*
X80518872Y-113483242D01*
X80518869Y-113483242D01*
X80316782Y-113548904D01*
X80127439Y-113645380D01*
X80073282Y-113684727D01*
X80073282Y-113684728D01*
X80705591Y-114317037D01*
X80642007Y-114334075D01*
X80527993Y-114399901D01*
X80434901Y-114492993D01*
X80369075Y-114607007D01*
X80352037Y-114670591D01*
X79719728Y-114038282D01*
X79719727Y-114038282D01*
X79680380Y-114092439D01*
X79583904Y-114281782D01*
X79518242Y-114483869D01*
X79518242Y-114483872D01*
X79485000Y-114693753D01*
X79485000Y-114906246D01*
X79518242Y-115116127D01*
X79518242Y-115116130D01*
X79583904Y-115318217D01*
X79680375Y-115507550D01*
X79719728Y-115561716D01*
X80352037Y-114929408D01*
X80369075Y-114992993D01*
X80434901Y-115107007D01*
X80527993Y-115200099D01*
X80642007Y-115265925D01*
X80705590Y-115282962D01*
X80073282Y-115915269D01*
X80073282Y-115915270D01*
X80127449Y-115954624D01*
X80316782Y-116051095D01*
X80518870Y-116116757D01*
X80728754Y-116150000D01*
X80941246Y-116150000D01*
X81151127Y-116116757D01*
X81151130Y-116116757D01*
X81353217Y-116051095D01*
X81542554Y-115954622D01*
X81596716Y-115915270D01*
X81596717Y-115915270D01*
X80964408Y-115282962D01*
X81027993Y-115265925D01*
X81142007Y-115200099D01*
X81235099Y-115107007D01*
X81300925Y-114992993D01*
X81317962Y-114929408D01*
X81988181Y-115599628D01*
X82021666Y-115660951D01*
X82024500Y-115687300D01*
X82024500Y-115697865D01*
X82024501Y-115697876D01*
X82030908Y-115757483D01*
X82081202Y-115892328D01*
X82081206Y-115892335D01*
X82167452Y-116007544D01*
X82167455Y-116007547D01*
X82282664Y-116093793D01*
X82282671Y-116093797D01*
X82417517Y-116144091D01*
X82417516Y-116144091D01*
X82424444Y-116144835D01*
X82477127Y-116150500D01*
X84272872Y-116150499D01*
X84332483Y-116144091D01*
X84467331Y-116093796D01*
X84582546Y-116007546D01*
X84668796Y-115892331D01*
X84719091Y-115757483D01*
X84725500Y-115697873D01*
X84725499Y-113902128D01*
X84719091Y-113842517D01*
X84705051Y-113804875D01*
X84668797Y-113707671D01*
X84668793Y-113707664D01*
X84582547Y-113592455D01*
X84582544Y-113592452D01*
X84467335Y-113506206D01*
X84467328Y-113506202D01*
X84332482Y-113455908D01*
X84332483Y-113455908D01*
X84272883Y-113449501D01*
X84272881Y-113449500D01*
X84272873Y-113449500D01*
X84272865Y-113449500D01*
X84249500Y-113449500D01*
X84182461Y-113429815D01*
X84136706Y-113377011D01*
X84125500Y-113325500D01*
X84125500Y-110924499D01*
X84145185Y-110857460D01*
X84197989Y-110811705D01*
X84249500Y-110800499D01*
X84350002Y-110800499D01*
X84350008Y-110800499D01*
X84452797Y-110789999D01*
X84619334Y-110734814D01*
X84768656Y-110642712D01*
X84892712Y-110518656D01*
X84984814Y-110369334D01*
X85029164Y-110235494D01*
X85068936Y-110178051D01*
X85133451Y-110151228D01*
X85146869Y-110150500D01*
X90508103Y-110150500D01*
X90575142Y-110170185D01*
X90620897Y-110222989D01*
X90632029Y-110278761D01*
X90446940Y-115660951D01*
X90423630Y-116338762D01*
X90401653Y-116405085D01*
X90347307Y-116448998D01*
X90299703Y-116458500D01*
X44303219Y-116458500D01*
X44236180Y-116438815D01*
X44190425Y-116386011D01*
X44179236Y-116336555D01*
X44148160Y-114461648D01*
X54833500Y-114461648D01*
X54833500Y-114666351D01*
X54865522Y-114868534D01*
X54928781Y-115063223D01*
X55021715Y-115245613D01*
X55142028Y-115411213D01*
X55286786Y-115555971D01*
X55431282Y-115660951D01*
X55452390Y-115676287D01*
X55568607Y-115735503D01*
X55634776Y-115769218D01*
X55634778Y-115769218D01*
X55634781Y-115769220D01*
X55739137Y-115803127D01*
X55829465Y-115832477D01*
X55930557Y-115848488D01*
X56031648Y-115864500D01*
X56031649Y-115864500D01*
X56236351Y-115864500D01*
X56236352Y-115864500D01*
X56438534Y-115832477D01*
X56633219Y-115769220D01*
X56815610Y-115676287D01*
X56921123Y-115599628D01*
X56981213Y-115555971D01*
X56981215Y-115555968D01*
X56981219Y-115555966D01*
X57125966Y-115411219D01*
X57125968Y-115411215D01*
X57125971Y-115411213D01*
X57246284Y-115245614D01*
X57246285Y-115245613D01*
X57246287Y-115245610D01*
X57293516Y-115152917D01*
X57341489Y-115102123D01*
X57409310Y-115085328D01*
X57475445Y-115107865D01*
X57514483Y-115152917D01*
X57538524Y-115200099D01*
X57561715Y-115245614D01*
X57682028Y-115411213D01*
X57826786Y-115555971D01*
X57971282Y-115660951D01*
X57992390Y-115676287D01*
X58108607Y-115735503D01*
X58174776Y-115769218D01*
X58174778Y-115769218D01*
X58174781Y-115769220D01*
X58279137Y-115803127D01*
X58369465Y-115832477D01*
X58470557Y-115848488D01*
X58571648Y-115864500D01*
X58571649Y-115864500D01*
X58776351Y-115864500D01*
X58776352Y-115864500D01*
X58978534Y-115832477D01*
X59173219Y-115769220D01*
X59355610Y-115676287D01*
X59461123Y-115599628D01*
X59521213Y-115555971D01*
X59521215Y-115555968D01*
X59521219Y-115555966D01*
X59665966Y-115411219D01*
X59665968Y-115411215D01*
X59665971Y-115411213D01*
X59786284Y-115245614D01*
X59786285Y-115245613D01*
X59786287Y-115245610D01*
X59833516Y-115152917D01*
X59881489Y-115102123D01*
X59949310Y-115085328D01*
X60015445Y-115107865D01*
X60054483Y-115152917D01*
X60078524Y-115200099D01*
X60101715Y-115245614D01*
X60222028Y-115411213D01*
X60366786Y-115555971D01*
X60511282Y-115660951D01*
X60532390Y-115676287D01*
X60648607Y-115735503D01*
X60714776Y-115769218D01*
X60714778Y-115769218D01*
X60714781Y-115769220D01*
X60819137Y-115803127D01*
X60909465Y-115832477D01*
X61010557Y-115848488D01*
X61111648Y-115864500D01*
X61111649Y-115864500D01*
X61316351Y-115864500D01*
X61316352Y-115864500D01*
X61518534Y-115832477D01*
X61713219Y-115769220D01*
X61895610Y-115676287D01*
X62001123Y-115599628D01*
X62061213Y-115555971D01*
X62061215Y-115555968D01*
X62061219Y-115555966D01*
X62205966Y-115411219D01*
X62205968Y-115411215D01*
X62205971Y-115411213D01*
X62326284Y-115245614D01*
X62326285Y-115245613D01*
X62326287Y-115245610D01*
X62373516Y-115152917D01*
X62421489Y-115102123D01*
X62489310Y-115085328D01*
X62555445Y-115107865D01*
X62594483Y-115152917D01*
X62618524Y-115200099D01*
X62641715Y-115245614D01*
X62762028Y-115411213D01*
X62906786Y-115555971D01*
X63051282Y-115660951D01*
X63072390Y-115676287D01*
X63188607Y-115735503D01*
X63254776Y-115769218D01*
X63254778Y-115769218D01*
X63254781Y-115769220D01*
X63359137Y-115803127D01*
X63449465Y-115832477D01*
X63550557Y-115848488D01*
X63651648Y-115864500D01*
X63651649Y-115864500D01*
X63856351Y-115864500D01*
X63856352Y-115864500D01*
X64058534Y-115832477D01*
X64253219Y-115769220D01*
X64435610Y-115676287D01*
X64541123Y-115599628D01*
X64601213Y-115555971D01*
X64601215Y-115555968D01*
X64601219Y-115555966D01*
X64745966Y-115411219D01*
X64745968Y-115411215D01*
X64745971Y-115411213D01*
X64866284Y-115245614D01*
X64866285Y-115245613D01*
X64866287Y-115245610D01*
X64913516Y-115152917D01*
X64961489Y-115102123D01*
X65029310Y-115085328D01*
X65095445Y-115107865D01*
X65134483Y-115152917D01*
X65158524Y-115200099D01*
X65181715Y-115245614D01*
X65302028Y-115411213D01*
X65446786Y-115555971D01*
X65591282Y-115660951D01*
X65612390Y-115676287D01*
X65728607Y-115735503D01*
X65794776Y-115769218D01*
X65794778Y-115769218D01*
X65794781Y-115769220D01*
X65899137Y-115803127D01*
X65989465Y-115832477D01*
X66090557Y-115848488D01*
X66191648Y-115864500D01*
X66191649Y-115864500D01*
X66396351Y-115864500D01*
X66396352Y-115864500D01*
X66598534Y-115832477D01*
X66793219Y-115769220D01*
X66975610Y-115676287D01*
X67081123Y-115599628D01*
X67141213Y-115555971D01*
X67141215Y-115555968D01*
X67141219Y-115555966D01*
X67285966Y-115411219D01*
X67285968Y-115411215D01*
X67285971Y-115411213D01*
X67406284Y-115245614D01*
X67406285Y-115245613D01*
X67406287Y-115245610D01*
X67453516Y-115152917D01*
X67501489Y-115102123D01*
X67569310Y-115085328D01*
X67635445Y-115107865D01*
X67674483Y-115152917D01*
X67698524Y-115200099D01*
X67721715Y-115245614D01*
X67842028Y-115411213D01*
X67986786Y-115555971D01*
X68131282Y-115660951D01*
X68152390Y-115676287D01*
X68268607Y-115735503D01*
X68334776Y-115769218D01*
X68334778Y-115769218D01*
X68334781Y-115769220D01*
X68439137Y-115803127D01*
X68529465Y-115832477D01*
X68630557Y-115848488D01*
X68731648Y-115864500D01*
X68731649Y-115864500D01*
X68936351Y-115864500D01*
X68936352Y-115864500D01*
X69138534Y-115832477D01*
X69333219Y-115769220D01*
X69515610Y-115676287D01*
X69621123Y-115599628D01*
X69681213Y-115555971D01*
X69681215Y-115555968D01*
X69681219Y-115555966D01*
X69825966Y-115411219D01*
X69825968Y-115411215D01*
X69825971Y-115411213D01*
X69946284Y-115245614D01*
X69946285Y-115245613D01*
X69946287Y-115245610D01*
X69993516Y-115152917D01*
X70041489Y-115102123D01*
X70109310Y-115085328D01*
X70175445Y-115107865D01*
X70214483Y-115152917D01*
X70238524Y-115200099D01*
X70261715Y-115245614D01*
X70382028Y-115411213D01*
X70526786Y-115555971D01*
X70671282Y-115660951D01*
X70692390Y-115676287D01*
X70808607Y-115735503D01*
X70874776Y-115769218D01*
X70874778Y-115769218D01*
X70874781Y-115769220D01*
X70979137Y-115803127D01*
X71069465Y-115832477D01*
X71170557Y-115848488D01*
X71271648Y-115864500D01*
X71271649Y-115864500D01*
X71476351Y-115864500D01*
X71476352Y-115864500D01*
X71678534Y-115832477D01*
X71873219Y-115769220D01*
X72055610Y-115676287D01*
X72161123Y-115599628D01*
X72221213Y-115555971D01*
X72221215Y-115555968D01*
X72221219Y-115555966D01*
X72365966Y-115411219D01*
X72365968Y-115411215D01*
X72365971Y-115411213D01*
X72486284Y-115245614D01*
X72486285Y-115245613D01*
X72486287Y-115245610D01*
X72533516Y-115152917D01*
X72581489Y-115102123D01*
X72649310Y-115085328D01*
X72715445Y-115107865D01*
X72754483Y-115152917D01*
X72778524Y-115200099D01*
X72801715Y-115245614D01*
X72922028Y-115411213D01*
X73066786Y-115555971D01*
X73211282Y-115660951D01*
X73232390Y-115676287D01*
X73348607Y-115735503D01*
X73414776Y-115769218D01*
X73414778Y-115769218D01*
X73414781Y-115769220D01*
X73519137Y-115803127D01*
X73609465Y-115832477D01*
X73710557Y-115848488D01*
X73811648Y-115864500D01*
X73811649Y-115864500D01*
X74016351Y-115864500D01*
X74016352Y-115864500D01*
X74218534Y-115832477D01*
X74413219Y-115769220D01*
X74595610Y-115676287D01*
X74701123Y-115599628D01*
X74761213Y-115555971D01*
X74761215Y-115555968D01*
X74761219Y-115555966D01*
X74905966Y-115411219D01*
X74905968Y-115411215D01*
X74905971Y-115411213D01*
X74973535Y-115318217D01*
X75026287Y-115245610D01*
X75119220Y-115063219D01*
X75182477Y-114868534D01*
X75214500Y-114666352D01*
X75214500Y-114461648D01*
X75182477Y-114259466D01*
X75119220Y-114064781D01*
X75119218Y-114064778D01*
X75119218Y-114064776D01*
X75073515Y-113975080D01*
X75026287Y-113882390D01*
X74905966Y-113716781D01*
X74761219Y-113572034D01*
X74761213Y-113572028D01*
X74595613Y-113451715D01*
X74595612Y-113451714D01*
X74595610Y-113451713D01*
X74538653Y-113422691D01*
X74413223Y-113358781D01*
X74218534Y-113295522D01*
X74043995Y-113267878D01*
X74016352Y-113263500D01*
X73811648Y-113263500D01*
X73787329Y-113267351D01*
X73609465Y-113295522D01*
X73414776Y-113358781D01*
X73232386Y-113451715D01*
X73066786Y-113572028D01*
X72922028Y-113716786D01*
X72801715Y-113882386D01*
X72754485Y-113975080D01*
X72706510Y-114025876D01*
X72638689Y-114042671D01*
X72572554Y-114020134D01*
X72533515Y-113975080D01*
X72532883Y-113973840D01*
X72486287Y-113882390D01*
X72429970Y-113804875D01*
X72365971Y-113716786D01*
X72221213Y-113572028D01*
X72055613Y-113451715D01*
X72055612Y-113451714D01*
X72055610Y-113451713D01*
X71998653Y-113422691D01*
X71873223Y-113358781D01*
X71678534Y-113295522D01*
X71503995Y-113267878D01*
X71476352Y-113263500D01*
X71271648Y-113263500D01*
X71247329Y-113267351D01*
X71069465Y-113295522D01*
X70874776Y-113358781D01*
X70692386Y-113451715D01*
X70526786Y-113572028D01*
X70382028Y-113716786D01*
X70261715Y-113882386D01*
X70214485Y-113975080D01*
X70166510Y-114025876D01*
X70098689Y-114042671D01*
X70032554Y-114020134D01*
X69993515Y-113975080D01*
X69992883Y-113973840D01*
X69946287Y-113882390D01*
X69889970Y-113804875D01*
X69825971Y-113716786D01*
X69681213Y-113572028D01*
X69515613Y-113451715D01*
X69515612Y-113451714D01*
X69515610Y-113451713D01*
X69458653Y-113422691D01*
X69333223Y-113358781D01*
X69138534Y-113295522D01*
X68963995Y-113267878D01*
X68936352Y-113263500D01*
X68731648Y-113263500D01*
X68707329Y-113267351D01*
X68529465Y-113295522D01*
X68334776Y-113358781D01*
X68152386Y-113451715D01*
X67986786Y-113572028D01*
X67842028Y-113716786D01*
X67721715Y-113882386D01*
X67674485Y-113975080D01*
X67626510Y-114025876D01*
X67558689Y-114042671D01*
X67492554Y-114020134D01*
X67453515Y-113975080D01*
X67452883Y-113973840D01*
X67406287Y-113882390D01*
X67349970Y-113804875D01*
X67285971Y-113716786D01*
X67141213Y-113572028D01*
X66975613Y-113451715D01*
X66975612Y-113451714D01*
X66975610Y-113451713D01*
X66918653Y-113422691D01*
X66793223Y-113358781D01*
X66598534Y-113295522D01*
X66423995Y-113267878D01*
X66396352Y-113263500D01*
X66191648Y-113263500D01*
X66167329Y-113267351D01*
X65989465Y-113295522D01*
X65794776Y-113358781D01*
X65612386Y-113451715D01*
X65446786Y-113572028D01*
X65302028Y-113716786D01*
X65181715Y-113882386D01*
X65134485Y-113975080D01*
X65086510Y-114025876D01*
X65018689Y-114042671D01*
X64952554Y-114020134D01*
X64913515Y-113975080D01*
X64912883Y-113973840D01*
X64866287Y-113882390D01*
X64809970Y-113804875D01*
X64745971Y-113716786D01*
X64601213Y-113572028D01*
X64435613Y-113451715D01*
X64435612Y-113451714D01*
X64435610Y-113451713D01*
X64378653Y-113422691D01*
X64253223Y-113358781D01*
X64058534Y-113295522D01*
X63883995Y-113267878D01*
X63856352Y-113263500D01*
X63651648Y-113263500D01*
X63627329Y-113267351D01*
X63449465Y-113295522D01*
X63254776Y-113358781D01*
X63072386Y-113451715D01*
X62906786Y-113572028D01*
X62762028Y-113716786D01*
X62641715Y-113882386D01*
X62594485Y-113975080D01*
X62546510Y-114025876D01*
X62478689Y-114042671D01*
X62412554Y-114020134D01*
X62373515Y-113975080D01*
X62372883Y-113973840D01*
X62326287Y-113882390D01*
X62269970Y-113804875D01*
X62205971Y-113716786D01*
X62061213Y-113572028D01*
X61895613Y-113451715D01*
X61895612Y-113451714D01*
X61895610Y-113451713D01*
X61838653Y-113422691D01*
X61713223Y-113358781D01*
X61518534Y-113295522D01*
X61343995Y-113267878D01*
X61316352Y-113263500D01*
X61111648Y-113263500D01*
X61087329Y-113267351D01*
X60909465Y-113295522D01*
X60714776Y-113358781D01*
X60532386Y-113451715D01*
X60366786Y-113572028D01*
X60222028Y-113716786D01*
X60101715Y-113882386D01*
X60054485Y-113975080D01*
X60006510Y-114025876D01*
X59938689Y-114042671D01*
X59872554Y-114020134D01*
X59833515Y-113975080D01*
X59832883Y-113973840D01*
X59786287Y-113882390D01*
X59729970Y-113804875D01*
X59665971Y-113716786D01*
X59521213Y-113572028D01*
X59355613Y-113451715D01*
X59355612Y-113451714D01*
X59355610Y-113451713D01*
X59298653Y-113422691D01*
X59173223Y-113358781D01*
X58978534Y-113295522D01*
X58803995Y-113267878D01*
X58776352Y-113263500D01*
X58571648Y-113263500D01*
X58547329Y-113267351D01*
X58369465Y-113295522D01*
X58174776Y-113358781D01*
X57992386Y-113451715D01*
X57826786Y-113572028D01*
X57682028Y-113716786D01*
X57561715Y-113882386D01*
X57514485Y-113975080D01*
X57466510Y-114025876D01*
X57398689Y-114042671D01*
X57332554Y-114020134D01*
X57293515Y-113975080D01*
X57292883Y-113973840D01*
X57246287Y-113882390D01*
X57189970Y-113804875D01*
X57125971Y-113716786D01*
X56981213Y-113572028D01*
X56815613Y-113451715D01*
X56815612Y-113451714D01*
X56815610Y-113451713D01*
X56758653Y-113422691D01*
X56633223Y-113358781D01*
X56438534Y-113295522D01*
X56263995Y-113267878D01*
X56236352Y-113263500D01*
X56031648Y-113263500D01*
X56007329Y-113267351D01*
X55829465Y-113295522D01*
X55634776Y-113358781D01*
X55452386Y-113451715D01*
X55286786Y-113572028D01*
X55142028Y-113716786D01*
X55021715Y-113882386D01*
X54928781Y-114064776D01*
X54865522Y-114259465D01*
X54833500Y-114461648D01*
X44148160Y-114461648D01*
X44148113Y-114458831D01*
X44145178Y-114281782D01*
X44131490Y-113455908D01*
X44052530Y-108691983D01*
X47721500Y-108691983D01*
X47721500Y-111792001D01*
X47721501Y-111792018D01*
X47732000Y-111894796D01*
X47732001Y-111894799D01*
X47769857Y-112009038D01*
X47787186Y-112061334D01*
X47879288Y-112210656D01*
X48003344Y-112334712D01*
X48152666Y-112426814D01*
X48319203Y-112481999D01*
X48421991Y-112492500D01*
X49622008Y-112492499D01*
X49724797Y-112481999D01*
X49891334Y-112426814D01*
X50040656Y-112334712D01*
X50164712Y-112210656D01*
X50256814Y-112061334D01*
X50311999Y-111894797D01*
X50322500Y-111792009D01*
X50322499Y-110099986D01*
X77550001Y-110099986D01*
X77560494Y-110202697D01*
X77615641Y-110369119D01*
X77615643Y-110369124D01*
X77707684Y-110518345D01*
X77831654Y-110642315D01*
X77980875Y-110734356D01*
X77980880Y-110734358D01*
X78147302Y-110789505D01*
X78147309Y-110789506D01*
X78250019Y-110799999D01*
X79049999Y-110799999D01*
X79550000Y-110799999D01*
X80349972Y-110799999D01*
X80349986Y-110799998D01*
X80452697Y-110789505D01*
X80619119Y-110734358D01*
X80619124Y-110734356D01*
X80768345Y-110642315D01*
X80892315Y-110518345D01*
X80984356Y-110369124D01*
X80984358Y-110369119D01*
X81039505Y-110202697D01*
X81039506Y-110202690D01*
X81049999Y-110099986D01*
X81050000Y-110099973D01*
X81050000Y-109650000D01*
X79550000Y-109650000D01*
X79550000Y-110799999D01*
X79049999Y-110799999D01*
X79050000Y-110799998D01*
X79050000Y-109650000D01*
X77550001Y-109650000D01*
X77550001Y-110099986D01*
X50322499Y-110099986D01*
X50322499Y-108700013D01*
X77550000Y-108700013D01*
X77550000Y-109150000D01*
X79050000Y-109150000D01*
X79550000Y-109150000D01*
X81049999Y-109150000D01*
X81049999Y-108700028D01*
X81049998Y-108700013D01*
X81039505Y-108597302D01*
X80984358Y-108430880D01*
X80984356Y-108430875D01*
X80892315Y-108281654D01*
X80768345Y-108157684D01*
X80619124Y-108065643D01*
X80619119Y-108065641D01*
X80452697Y-108010494D01*
X80452690Y-108010493D01*
X80349986Y-108000000D01*
X79550000Y-108000000D01*
X79550000Y-109150000D01*
X79050000Y-109150000D01*
X79050000Y-108000000D01*
X78250028Y-108000000D01*
X78250012Y-108000001D01*
X78147302Y-108010494D01*
X77980880Y-108065641D01*
X77980875Y-108065643D01*
X77831654Y-108157684D01*
X77707684Y-108281654D01*
X77615643Y-108430875D01*
X77615641Y-108430880D01*
X77560494Y-108597302D01*
X77560493Y-108597309D01*
X77550000Y-108700013D01*
X50322499Y-108700013D01*
X50322499Y-108691992D01*
X50311999Y-108589203D01*
X50256814Y-108422666D01*
X50164712Y-108273344D01*
X50040656Y-108149288D01*
X49891334Y-108057186D01*
X49724797Y-108002001D01*
X49724795Y-108002000D01*
X49622010Y-107991500D01*
X48421998Y-107991500D01*
X48421981Y-107991501D01*
X48319203Y-108002000D01*
X48319200Y-108002001D01*
X48152668Y-108057185D01*
X48152663Y-108057187D01*
X48003342Y-108149289D01*
X47879289Y-108273342D01*
X47787187Y-108422663D01*
X47787185Y-108422668D01*
X47784464Y-108430880D01*
X47732001Y-108589203D01*
X47732001Y-108589204D01*
X47732000Y-108589204D01*
X47721500Y-108691983D01*
X44052530Y-108691983D01*
X44052512Y-108690889D01*
X44011094Y-106191986D01*
X47722001Y-106191986D01*
X47732494Y-106294697D01*
X47787641Y-106461119D01*
X47787643Y-106461124D01*
X47879684Y-106610345D01*
X48003654Y-106734315D01*
X48152875Y-106826356D01*
X48152880Y-106826358D01*
X48319302Y-106881505D01*
X48319309Y-106881506D01*
X48422019Y-106891999D01*
X48771999Y-106891999D01*
X49272000Y-106891999D01*
X49621972Y-106891999D01*
X49621986Y-106891998D01*
X49724697Y-106881505D01*
X49891119Y-106826358D01*
X49891124Y-106826356D01*
X50040345Y-106734315D01*
X50164315Y-106610345D01*
X50256356Y-106461124D01*
X50256358Y-106461119D01*
X50311505Y-106294697D01*
X50311506Y-106294690D01*
X50321999Y-106191986D01*
X50322000Y-106191973D01*
X50322000Y-104892000D01*
X49272000Y-104892000D01*
X49272000Y-106891999D01*
X48771999Y-106891999D01*
X48772000Y-106891998D01*
X48772000Y-104892000D01*
X47722001Y-104892000D01*
X47722001Y-106191986D01*
X44011094Y-106191986D01*
X43988730Y-104842693D01*
X43959713Y-103092013D01*
X47722000Y-103092013D01*
X47722000Y-104392000D01*
X48772000Y-104392000D01*
X49272000Y-104392000D01*
X50321999Y-104392000D01*
X50321999Y-103092028D01*
X50321998Y-103092013D01*
X50311505Y-102989302D01*
X50256358Y-102822880D01*
X50256356Y-102822875D01*
X50164315Y-102673654D01*
X50040345Y-102549684D01*
X49891124Y-102457643D01*
X49891119Y-102457641D01*
X49724697Y-102402494D01*
X49724690Y-102402493D01*
X49621986Y-102392000D01*
X49272000Y-102392000D01*
X49272000Y-104392000D01*
X48772000Y-104392000D01*
X48772000Y-102392000D01*
X48422028Y-102392000D01*
X48422012Y-102392001D01*
X48319302Y-102402494D01*
X48152880Y-102457641D01*
X48152875Y-102457643D01*
X48003654Y-102549684D01*
X47879684Y-102673654D01*
X47787643Y-102822875D01*
X47787641Y-102822880D01*
X47732494Y-102989302D01*
X47732493Y-102989309D01*
X47722000Y-103092013D01*
X43959713Y-103092013D01*
X43959695Y-103090919D01*
X43942923Y-102078992D01*
X43935864Y-101653118D01*
X43935216Y-101614000D01*
X54857391Y-101614000D01*
X55818314Y-101614000D01*
X55813920Y-101618394D01*
X55761259Y-101709606D01*
X55734000Y-101811339D01*
X55734000Y-101916661D01*
X55761259Y-102018394D01*
X55813920Y-102109606D01*
X55818314Y-102114000D01*
X54857391Y-102114000D01*
X54866009Y-102168413D01*
X54929244Y-102363029D01*
X55022140Y-102545349D01*
X55142417Y-102710894D01*
X55142417Y-102710895D01*
X55287104Y-102855582D01*
X55452650Y-102975859D01*
X55634968Y-103068754D01*
X55829578Y-103131988D01*
X55884000Y-103140607D01*
X55884000Y-102179686D01*
X55888394Y-102184080D01*
X55979606Y-102236741D01*
X56081339Y-102264000D01*
X56186661Y-102264000D01*
X56288394Y-102236741D01*
X56379606Y-102184080D01*
X56384000Y-102179686D01*
X56384000Y-103140606D01*
X56438421Y-103131988D01*
X56633031Y-103068754D01*
X56815349Y-102975859D01*
X56980894Y-102855582D01*
X56980895Y-102855582D01*
X57125582Y-102710895D01*
X57125582Y-102710894D01*
X57245861Y-102545347D01*
X57293234Y-102452371D01*
X57341208Y-102401575D01*
X57409028Y-102384779D01*
X57475164Y-102407316D01*
X57514203Y-102452369D01*
X57561713Y-102545611D01*
X57682028Y-102711213D01*
X57826786Y-102855971D01*
X57981749Y-102968556D01*
X57992390Y-102976287D01*
X58081212Y-103021544D01*
X58174776Y-103069218D01*
X58174778Y-103069218D01*
X58174781Y-103069220D01*
X58241564Y-103090919D01*
X58369465Y-103132477D01*
X58470557Y-103148488D01*
X58571648Y-103164500D01*
X58571649Y-103164500D01*
X58776351Y-103164500D01*
X58776352Y-103164500D01*
X58978534Y-103132477D01*
X59173219Y-103069220D01*
X59355610Y-102976287D01*
X59451901Y-102906328D01*
X59521213Y-102855971D01*
X59521215Y-102855968D01*
X59521219Y-102855966D01*
X59665966Y-102711219D01*
X59665968Y-102711215D01*
X59665971Y-102711213D01*
X59786284Y-102545614D01*
X59786286Y-102545611D01*
X59786287Y-102545610D01*
X59833516Y-102452917D01*
X59881489Y-102402123D01*
X59949310Y-102385328D01*
X60015445Y-102407865D01*
X60054483Y-102452917D01*
X60056892Y-102457643D01*
X60101715Y-102545614D01*
X60222028Y-102711213D01*
X60366786Y-102855971D01*
X60521749Y-102968556D01*
X60532390Y-102976287D01*
X60621212Y-103021544D01*
X60714776Y-103069218D01*
X60714778Y-103069218D01*
X60714781Y-103069220D01*
X60781564Y-103090919D01*
X60909465Y-103132477D01*
X61010557Y-103148488D01*
X61111648Y-103164500D01*
X61111649Y-103164500D01*
X61316351Y-103164500D01*
X61316352Y-103164500D01*
X61518534Y-103132477D01*
X61713219Y-103069220D01*
X61895610Y-102976287D01*
X61991901Y-102906328D01*
X62061213Y-102855971D01*
X62061215Y-102855968D01*
X62061219Y-102855966D01*
X62205966Y-102711219D01*
X62205968Y-102711215D01*
X62205971Y-102711213D01*
X62326284Y-102545614D01*
X62326286Y-102545611D01*
X62326287Y-102545610D01*
X62373516Y-102452917D01*
X62421489Y-102402123D01*
X62489310Y-102385328D01*
X62555445Y-102407865D01*
X62594483Y-102452917D01*
X62596892Y-102457643D01*
X62641715Y-102545614D01*
X62762028Y-102711213D01*
X62906786Y-102855971D01*
X63061749Y-102968556D01*
X63072390Y-102976287D01*
X63161212Y-103021544D01*
X63254776Y-103069218D01*
X63254778Y-103069218D01*
X63254781Y-103069220D01*
X63321564Y-103090919D01*
X63449465Y-103132477D01*
X63550557Y-103148488D01*
X63651648Y-103164500D01*
X63651649Y-103164500D01*
X63856351Y-103164500D01*
X63856352Y-103164500D01*
X64058534Y-103132477D01*
X64253219Y-103069220D01*
X64435610Y-102976287D01*
X64531901Y-102906328D01*
X64601213Y-102855971D01*
X64601215Y-102855968D01*
X64601219Y-102855966D01*
X64745966Y-102711219D01*
X64745968Y-102711215D01*
X64745971Y-102711213D01*
X64866284Y-102545614D01*
X64866286Y-102545611D01*
X64866287Y-102545610D01*
X64913516Y-102452917D01*
X64961489Y-102402123D01*
X65029310Y-102385328D01*
X65095445Y-102407865D01*
X65134483Y-102452917D01*
X65136892Y-102457643D01*
X65181715Y-102545614D01*
X65302028Y-102711213D01*
X65446786Y-102855971D01*
X65601749Y-102968556D01*
X65612390Y-102976287D01*
X65701212Y-103021544D01*
X65794776Y-103069218D01*
X65794778Y-103069218D01*
X65794781Y-103069220D01*
X65861564Y-103090919D01*
X65989465Y-103132477D01*
X66090557Y-103148488D01*
X66191648Y-103164500D01*
X66191649Y-103164500D01*
X66396351Y-103164500D01*
X66396352Y-103164500D01*
X66598534Y-103132477D01*
X66793219Y-103069220D01*
X66975610Y-102976287D01*
X67071901Y-102906328D01*
X67141213Y-102855971D01*
X67141215Y-102855968D01*
X67141219Y-102855966D01*
X67285966Y-102711219D01*
X67285968Y-102711215D01*
X67285971Y-102711213D01*
X67406284Y-102545614D01*
X67406286Y-102545611D01*
X67406287Y-102545610D01*
X67453516Y-102452917D01*
X67501489Y-102402123D01*
X67569310Y-102385328D01*
X67635445Y-102407865D01*
X67674483Y-102452917D01*
X67676892Y-102457643D01*
X67721715Y-102545614D01*
X67842028Y-102711213D01*
X67986786Y-102855971D01*
X68141749Y-102968556D01*
X68152390Y-102976287D01*
X68241212Y-103021544D01*
X68334776Y-103069218D01*
X68334778Y-103069218D01*
X68334781Y-103069220D01*
X68401564Y-103090919D01*
X68529465Y-103132477D01*
X68630557Y-103148488D01*
X68731648Y-103164500D01*
X68731649Y-103164500D01*
X68936351Y-103164500D01*
X68936352Y-103164500D01*
X69138534Y-103132477D01*
X69333219Y-103069220D01*
X69515610Y-102976287D01*
X69611901Y-102906328D01*
X69681213Y-102855971D01*
X69681215Y-102855968D01*
X69681219Y-102855966D01*
X69825966Y-102711219D01*
X69825968Y-102711215D01*
X69825971Y-102711213D01*
X69946284Y-102545614D01*
X69946286Y-102545611D01*
X69946287Y-102545610D01*
X69993516Y-102452917D01*
X70041489Y-102402123D01*
X70109310Y-102385328D01*
X70175445Y-102407865D01*
X70214483Y-102452917D01*
X70216892Y-102457643D01*
X70261715Y-102545614D01*
X70382028Y-102711213D01*
X70526786Y-102855971D01*
X70681749Y-102968556D01*
X70692390Y-102976287D01*
X70781212Y-103021544D01*
X70874776Y-103069218D01*
X70874778Y-103069218D01*
X70874781Y-103069220D01*
X70941564Y-103090919D01*
X71069465Y-103132477D01*
X71170557Y-103148488D01*
X71271648Y-103164500D01*
X71271649Y-103164500D01*
X71476351Y-103164500D01*
X71476352Y-103164500D01*
X71678534Y-103132477D01*
X71873219Y-103069220D01*
X72055610Y-102976287D01*
X72151901Y-102906328D01*
X72221213Y-102855971D01*
X72221215Y-102855968D01*
X72221219Y-102855966D01*
X72365966Y-102711219D01*
X72392330Y-102674930D01*
X72447658Y-102632265D01*
X72517271Y-102626284D01*
X72579067Y-102658889D01*
X72613426Y-102719726D01*
X72615938Y-102734559D01*
X72619907Y-102771480D01*
X72670202Y-102906328D01*
X72670206Y-102906335D01*
X72756452Y-103021544D01*
X72756455Y-103021547D01*
X72871664Y-103107793D01*
X72871671Y-103107797D01*
X73006517Y-103158091D01*
X73006516Y-103158091D01*
X73013444Y-103158835D01*
X73066127Y-103164500D01*
X74761872Y-103164499D01*
X74821483Y-103158091D01*
X74956331Y-103107796D01*
X75071546Y-103021546D01*
X75157796Y-102906331D01*
X75208091Y-102771483D01*
X75214500Y-102711873D01*
X75214499Y-101016128D01*
X75208091Y-100956517D01*
X75157796Y-100821669D01*
X75157795Y-100821668D01*
X75157793Y-100821664D01*
X75082546Y-100721148D01*
X75082545Y-100721147D01*
X75071546Y-100706454D01*
X75008482Y-100659244D01*
X74996111Y-100649983D01*
X77699500Y-100649983D01*
X77699500Y-101850001D01*
X77699501Y-101850018D01*
X77710000Y-101952796D01*
X77710001Y-101952799D01*
X77751818Y-102078992D01*
X77765186Y-102119334D01*
X77857288Y-102268656D01*
X77981344Y-102392712D01*
X78130666Y-102484814D01*
X78297203Y-102539999D01*
X78399991Y-102550500D01*
X81500008Y-102550499D01*
X81507987Y-102549684D01*
X81547829Y-102545614D01*
X81602797Y-102539999D01*
X81769334Y-102484814D01*
X81918656Y-102392712D01*
X82042712Y-102268656D01*
X82134814Y-102119334D01*
X82189999Y-101952797D01*
X82200500Y-101850009D01*
X82200499Y-100649992D01*
X82189999Y-100547203D01*
X82134814Y-100380666D01*
X82042712Y-100231344D01*
X81918656Y-100107288D01*
X81769334Y-100015186D01*
X81602797Y-99960001D01*
X81602795Y-99960000D01*
X81500010Y-99949500D01*
X78399998Y-99949500D01*
X78399981Y-99949501D01*
X78297203Y-99960000D01*
X78297200Y-99960001D01*
X78130668Y-100015185D01*
X78130663Y-100015187D01*
X77981342Y-100107289D01*
X77857289Y-100231342D01*
X77765187Y-100380663D01*
X77765186Y-100380666D01*
X77710001Y-100547203D01*
X77710001Y-100547204D01*
X77710000Y-100547204D01*
X77699500Y-100649983D01*
X74996111Y-100649983D01*
X74956335Y-100620206D01*
X74956328Y-100620202D01*
X74821482Y-100569908D01*
X74821483Y-100569908D01*
X74761883Y-100563501D01*
X74761881Y-100563500D01*
X74761873Y-100563500D01*
X74761864Y-100563500D01*
X73066129Y-100563500D01*
X73066123Y-100563501D01*
X73006516Y-100569908D01*
X72871671Y-100620202D01*
X72871664Y-100620206D01*
X72756455Y-100706452D01*
X72756452Y-100706455D01*
X72670206Y-100821664D01*
X72670202Y-100821671D01*
X72619908Y-100956516D01*
X72615939Y-100993440D01*
X72589201Y-101057991D01*
X72531809Y-101097839D01*
X72461983Y-101100332D01*
X72401895Y-101064679D01*
X72392332Y-101053070D01*
X72365967Y-101016782D01*
X72221213Y-100872028D01*
X72055613Y-100751715D01*
X72055612Y-100751714D01*
X72055610Y-100751713D01*
X71995617Y-100721145D01*
X71873223Y-100658781D01*
X71678534Y-100595522D01*
X71503995Y-100567878D01*
X71476352Y-100563500D01*
X71271648Y-100563500D01*
X71247329Y-100567351D01*
X71069465Y-100595522D01*
X70874776Y-100658781D01*
X70692386Y-100751715D01*
X70526786Y-100872028D01*
X70382028Y-101016786D01*
X70261715Y-101182386D01*
X70214485Y-101275080D01*
X70166510Y-101325876D01*
X70098689Y-101342671D01*
X70032554Y-101320134D01*
X69993515Y-101275080D01*
X69992883Y-101273840D01*
X69946287Y-101182390D01*
X69886441Y-101100018D01*
X69825971Y-101016786D01*
X69681213Y-100872028D01*
X69515613Y-100751715D01*
X69515612Y-100751714D01*
X69515610Y-100751713D01*
X69455617Y-100721145D01*
X69333223Y-100658781D01*
X69138534Y-100595522D01*
X68963995Y-100567878D01*
X68936352Y-100563500D01*
X68731648Y-100563500D01*
X68707329Y-100567351D01*
X68529465Y-100595522D01*
X68334776Y-100658781D01*
X68152386Y-100751715D01*
X67986786Y-100872028D01*
X67842028Y-101016786D01*
X67721715Y-101182386D01*
X67674485Y-101275080D01*
X67626510Y-101325876D01*
X67558689Y-101342671D01*
X67492554Y-101320134D01*
X67453515Y-101275080D01*
X67452883Y-101273840D01*
X67406287Y-101182390D01*
X67346441Y-101100018D01*
X67285971Y-101016786D01*
X67141213Y-100872028D01*
X66975613Y-100751715D01*
X66975612Y-100751714D01*
X66975610Y-100751713D01*
X66915617Y-100721145D01*
X66793223Y-100658781D01*
X66598534Y-100595522D01*
X66423995Y-100567878D01*
X66396352Y-100563500D01*
X66191648Y-100563500D01*
X66167329Y-100567351D01*
X65989465Y-100595522D01*
X65794776Y-100658781D01*
X65612386Y-100751715D01*
X65446786Y-100872028D01*
X65302028Y-101016786D01*
X65181715Y-101182386D01*
X65134485Y-101275080D01*
X65086510Y-101325876D01*
X65018689Y-101342671D01*
X64952554Y-101320134D01*
X64913515Y-101275080D01*
X64912883Y-101273840D01*
X64866287Y-101182390D01*
X64806441Y-101100018D01*
X64745971Y-101016786D01*
X64601213Y-100872028D01*
X64435613Y-100751715D01*
X64435612Y-100751714D01*
X64435610Y-100751713D01*
X64375617Y-100721145D01*
X64253223Y-100658781D01*
X64058534Y-100595522D01*
X63883995Y-100567878D01*
X63856352Y-100563500D01*
X63651648Y-100563500D01*
X63627329Y-100567351D01*
X63449465Y-100595522D01*
X63254776Y-100658781D01*
X63072386Y-100751715D01*
X62906786Y-100872028D01*
X62762028Y-101016786D01*
X62641715Y-101182386D01*
X62594485Y-101275080D01*
X62546510Y-101325876D01*
X62478689Y-101342671D01*
X62412554Y-101320134D01*
X62373515Y-101275080D01*
X62372883Y-101273840D01*
X62326287Y-101182390D01*
X62266441Y-101100018D01*
X62205971Y-101016786D01*
X62061213Y-100872028D01*
X61895613Y-100751715D01*
X61895612Y-100751714D01*
X61895610Y-100751713D01*
X61835617Y-100721145D01*
X61713223Y-100658781D01*
X61518534Y-100595522D01*
X61343995Y-100567878D01*
X61316352Y-100563500D01*
X61111648Y-100563500D01*
X61087329Y-100567351D01*
X60909465Y-100595522D01*
X60714776Y-100658781D01*
X60532386Y-100751715D01*
X60366786Y-100872028D01*
X60222028Y-101016786D01*
X60101715Y-101182386D01*
X60054485Y-101275080D01*
X60006510Y-101325876D01*
X59938689Y-101342671D01*
X59872554Y-101320134D01*
X59833515Y-101275080D01*
X59832883Y-101273840D01*
X59786287Y-101182390D01*
X59726441Y-101100018D01*
X59665971Y-101016786D01*
X59521213Y-100872028D01*
X59355613Y-100751715D01*
X59355612Y-100751714D01*
X59355610Y-100751713D01*
X59295617Y-100721145D01*
X59173223Y-100658781D01*
X58978534Y-100595522D01*
X58803995Y-100567878D01*
X58776352Y-100563500D01*
X58571648Y-100563500D01*
X58547329Y-100567351D01*
X58369465Y-100595522D01*
X58174776Y-100658781D01*
X57992386Y-100751715D01*
X57826786Y-100872028D01*
X57682028Y-101016786D01*
X57561713Y-101182388D01*
X57514203Y-101275630D01*
X57466228Y-101326426D01*
X57398407Y-101343220D01*
X57332272Y-101320682D01*
X57293234Y-101275628D01*
X57245861Y-101182652D01*
X57125582Y-101017105D01*
X57125582Y-101017104D01*
X56980895Y-100872417D01*
X56815349Y-100752140D01*
X56633029Y-100659244D01*
X56438413Y-100596009D01*
X56384000Y-100587390D01*
X56384000Y-101548314D01*
X56379606Y-101543920D01*
X56288394Y-101491259D01*
X56186661Y-101464000D01*
X56081339Y-101464000D01*
X55979606Y-101491259D01*
X55888394Y-101543920D01*
X55884000Y-101548314D01*
X55884000Y-100587390D01*
X55829586Y-100596009D01*
X55634970Y-100659244D01*
X55452650Y-100752140D01*
X55287105Y-100872417D01*
X55287104Y-100872417D01*
X55142417Y-101017104D01*
X55142417Y-101017105D01*
X55022140Y-101182650D01*
X54929244Y-101364970D01*
X54866009Y-101559586D01*
X54857391Y-101614000D01*
X43935216Y-101614000D01*
X43878724Y-98205648D01*
X54833500Y-98205648D01*
X54833500Y-98410351D01*
X54865522Y-98612534D01*
X54928781Y-98807223D01*
X55021715Y-98989613D01*
X55142028Y-99155213D01*
X55286786Y-99299971D01*
X55441749Y-99412556D01*
X55452390Y-99420287D01*
X55568607Y-99479503D01*
X55634776Y-99513218D01*
X55634778Y-99513218D01*
X55634781Y-99513220D01*
X55739137Y-99547127D01*
X55829465Y-99576477D01*
X55930557Y-99592488D01*
X56031648Y-99608500D01*
X56031649Y-99608500D01*
X56236351Y-99608500D01*
X56236352Y-99608500D01*
X56438534Y-99576477D01*
X56633219Y-99513220D01*
X56815610Y-99420287D01*
X56908590Y-99352732D01*
X56981213Y-99299971D01*
X56981215Y-99299968D01*
X56981219Y-99299966D01*
X57125966Y-99155219D01*
X57125968Y-99155215D01*
X57125971Y-99155213D01*
X57246284Y-98989614D01*
X57246285Y-98989613D01*
X57246287Y-98989610D01*
X57293516Y-98896917D01*
X57341489Y-98846123D01*
X57409310Y-98829328D01*
X57475445Y-98851865D01*
X57514485Y-98896919D01*
X57561715Y-98989614D01*
X57682028Y-99155213D01*
X57826786Y-99299971D01*
X57981749Y-99412556D01*
X57992390Y-99420287D01*
X58108607Y-99479503D01*
X58174776Y-99513218D01*
X58174778Y-99513218D01*
X58174781Y-99513220D01*
X58279137Y-99547127D01*
X58369465Y-99576477D01*
X58470557Y-99592488D01*
X58571648Y-99608500D01*
X58571649Y-99608500D01*
X58776351Y-99608500D01*
X58776352Y-99608500D01*
X58978534Y-99576477D01*
X59173219Y-99513220D01*
X59355610Y-99420287D01*
X59448590Y-99352732D01*
X59521213Y-99299971D01*
X59521215Y-99299968D01*
X59521219Y-99299966D01*
X59665966Y-99155219D01*
X59665968Y-99155215D01*
X59665971Y-99155213D01*
X59786284Y-98989614D01*
X59786285Y-98989613D01*
X59786287Y-98989610D01*
X59833516Y-98896917D01*
X59881489Y-98846123D01*
X59949310Y-98829328D01*
X60015445Y-98851865D01*
X60054485Y-98896919D01*
X60101715Y-98989614D01*
X60222028Y-99155213D01*
X60366786Y-99299971D01*
X60521749Y-99412556D01*
X60532390Y-99420287D01*
X60648607Y-99479503D01*
X60714776Y-99513218D01*
X60714778Y-99513218D01*
X60714781Y-99513220D01*
X60819137Y-99547127D01*
X60909465Y-99576477D01*
X61010557Y-99592488D01*
X61111648Y-99608500D01*
X61111649Y-99608500D01*
X61316351Y-99608500D01*
X61316352Y-99608500D01*
X61518534Y-99576477D01*
X61713219Y-99513220D01*
X61895610Y-99420287D01*
X61988590Y-99352732D01*
X62061213Y-99299971D01*
X62061215Y-99299968D01*
X62061219Y-99299966D01*
X62205966Y-99155219D01*
X62205968Y-99155215D01*
X62205971Y-99155213D01*
X62326284Y-98989614D01*
X62326285Y-98989613D01*
X62326287Y-98989610D01*
X62373516Y-98896917D01*
X62421489Y-98846123D01*
X62489310Y-98829328D01*
X62555445Y-98851865D01*
X62594485Y-98896919D01*
X62641715Y-98989614D01*
X62762028Y-99155213D01*
X62906786Y-99299971D01*
X63061749Y-99412556D01*
X63072390Y-99420287D01*
X63188607Y-99479503D01*
X63254776Y-99513218D01*
X63254778Y-99513218D01*
X63254781Y-99513220D01*
X63359137Y-99547127D01*
X63449465Y-99576477D01*
X63550557Y-99592488D01*
X63651648Y-99608500D01*
X63651649Y-99608500D01*
X63856351Y-99608500D01*
X63856352Y-99608500D01*
X64058534Y-99576477D01*
X64253219Y-99513220D01*
X64435610Y-99420287D01*
X64528590Y-99352732D01*
X64601213Y-99299971D01*
X64601215Y-99299968D01*
X64601219Y-99299966D01*
X64745966Y-99155219D01*
X64745968Y-99155215D01*
X64745971Y-99155213D01*
X64866284Y-98989614D01*
X64866285Y-98989613D01*
X64866287Y-98989610D01*
X64913516Y-98896917D01*
X64961489Y-98846123D01*
X65029310Y-98829328D01*
X65095445Y-98851865D01*
X65134485Y-98896919D01*
X65181715Y-98989614D01*
X65302028Y-99155213D01*
X65446786Y-99299971D01*
X65601749Y-99412556D01*
X65612390Y-99420287D01*
X65728607Y-99479503D01*
X65794776Y-99513218D01*
X65794778Y-99513218D01*
X65794781Y-99513220D01*
X65899137Y-99547127D01*
X65989465Y-99576477D01*
X66090557Y-99592488D01*
X66191648Y-99608500D01*
X66191649Y-99608500D01*
X66396351Y-99608500D01*
X66396352Y-99608500D01*
X66598534Y-99576477D01*
X66793219Y-99513220D01*
X66975610Y-99420287D01*
X67068590Y-99352732D01*
X67141213Y-99299971D01*
X67141215Y-99299968D01*
X67141219Y-99299966D01*
X67285966Y-99155219D01*
X67285968Y-99155215D01*
X67285971Y-99155213D01*
X67406284Y-98989614D01*
X67406285Y-98989613D01*
X67406287Y-98989610D01*
X67453516Y-98896917D01*
X67501489Y-98846123D01*
X67569310Y-98829328D01*
X67635445Y-98851865D01*
X67674485Y-98896919D01*
X67721715Y-98989614D01*
X67842028Y-99155213D01*
X67986786Y-99299971D01*
X68141749Y-99412556D01*
X68152390Y-99420287D01*
X68268607Y-99479503D01*
X68334776Y-99513218D01*
X68334778Y-99513218D01*
X68334781Y-99513220D01*
X68439137Y-99547127D01*
X68529465Y-99576477D01*
X68630557Y-99592488D01*
X68731648Y-99608500D01*
X68731649Y-99608500D01*
X68936351Y-99608500D01*
X68936352Y-99608500D01*
X69138534Y-99576477D01*
X69333219Y-99513220D01*
X69515610Y-99420287D01*
X69608590Y-99352732D01*
X69681213Y-99299971D01*
X69681215Y-99299968D01*
X69681219Y-99299966D01*
X69825966Y-99155219D01*
X69825968Y-99155215D01*
X69825971Y-99155213D01*
X69946284Y-98989614D01*
X69946285Y-98989613D01*
X69946287Y-98989610D01*
X69993516Y-98896917D01*
X70041489Y-98846123D01*
X70109310Y-98829328D01*
X70175445Y-98851865D01*
X70214485Y-98896919D01*
X70261715Y-98989614D01*
X70382028Y-99155213D01*
X70526786Y-99299971D01*
X70681749Y-99412556D01*
X70692390Y-99420287D01*
X70808607Y-99479503D01*
X70874776Y-99513218D01*
X70874778Y-99513218D01*
X70874781Y-99513220D01*
X70979137Y-99547127D01*
X71069465Y-99576477D01*
X71170557Y-99592488D01*
X71271648Y-99608500D01*
X71271649Y-99608500D01*
X71476351Y-99608500D01*
X71476352Y-99608500D01*
X71678534Y-99576477D01*
X71873219Y-99513220D01*
X72055610Y-99420287D01*
X72148590Y-99352732D01*
X72221213Y-99299971D01*
X72221215Y-99299968D01*
X72221219Y-99299966D01*
X72365966Y-99155219D01*
X72365968Y-99155215D01*
X72365971Y-99155213D01*
X72486284Y-98989614D01*
X72486285Y-98989613D01*
X72486287Y-98989610D01*
X72533516Y-98896917D01*
X72581489Y-98846123D01*
X72649310Y-98829328D01*
X72715445Y-98851865D01*
X72754485Y-98896919D01*
X72801715Y-98989614D01*
X72922028Y-99155213D01*
X73066786Y-99299971D01*
X73221749Y-99412556D01*
X73232390Y-99420287D01*
X73348607Y-99479503D01*
X73414776Y-99513218D01*
X73414778Y-99513218D01*
X73414781Y-99513220D01*
X73519137Y-99547127D01*
X73609465Y-99576477D01*
X73710557Y-99592488D01*
X73811648Y-99608500D01*
X73811649Y-99608500D01*
X74016351Y-99608500D01*
X74016352Y-99608500D01*
X74218534Y-99576477D01*
X74413219Y-99513220D01*
X74595610Y-99420287D01*
X74688590Y-99352732D01*
X74761213Y-99299971D01*
X74761215Y-99299968D01*
X74761219Y-99299966D01*
X74905966Y-99155219D01*
X74905968Y-99155215D01*
X74905971Y-99155213D01*
X74960788Y-99079762D01*
X75026287Y-98989610D01*
X75119220Y-98807219D01*
X75182477Y-98612534D01*
X75214500Y-98410352D01*
X75214500Y-98205648D01*
X75182477Y-98003466D01*
X75119220Y-97808781D01*
X75119218Y-97808778D01*
X75119218Y-97808776D01*
X75073515Y-97719080D01*
X75026287Y-97626390D01*
X75018556Y-97615749D01*
X74905971Y-97460786D01*
X74761213Y-97316028D01*
X74595613Y-97195715D01*
X74595612Y-97195714D01*
X74595610Y-97195713D01*
X74538653Y-97166691D01*
X74413223Y-97102781D01*
X74218534Y-97039522D01*
X74043995Y-97011878D01*
X74016352Y-97007500D01*
X73811648Y-97007500D01*
X73787329Y-97011351D01*
X73609465Y-97039522D01*
X73414776Y-97102781D01*
X73232386Y-97195715D01*
X73066786Y-97316028D01*
X72922028Y-97460786D01*
X72801715Y-97626386D01*
X72754485Y-97719080D01*
X72706510Y-97769876D01*
X72638689Y-97786671D01*
X72572554Y-97764134D01*
X72533515Y-97719080D01*
X72532883Y-97717840D01*
X72486287Y-97626390D01*
X72478556Y-97615749D01*
X72365971Y-97460786D01*
X72221213Y-97316028D01*
X72055613Y-97195715D01*
X72055612Y-97195714D01*
X72055610Y-97195713D01*
X71998653Y-97166691D01*
X71873223Y-97102781D01*
X71678534Y-97039522D01*
X71503995Y-97011878D01*
X71476352Y-97007500D01*
X71271648Y-97007500D01*
X71247329Y-97011351D01*
X71069465Y-97039522D01*
X70874776Y-97102781D01*
X70692386Y-97195715D01*
X70526786Y-97316028D01*
X70382028Y-97460786D01*
X70261715Y-97626386D01*
X70214485Y-97719080D01*
X70166510Y-97769876D01*
X70098689Y-97786671D01*
X70032554Y-97764134D01*
X69993515Y-97719080D01*
X69992883Y-97717840D01*
X69946287Y-97626390D01*
X69938556Y-97615749D01*
X69825971Y-97460786D01*
X69681213Y-97316028D01*
X69515613Y-97195715D01*
X69515612Y-97195714D01*
X69515610Y-97195713D01*
X69458653Y-97166691D01*
X69333223Y-97102781D01*
X69138534Y-97039522D01*
X68963995Y-97011878D01*
X68936352Y-97007500D01*
X68731648Y-97007500D01*
X68707329Y-97011351D01*
X68529465Y-97039522D01*
X68334776Y-97102781D01*
X68152386Y-97195715D01*
X67986786Y-97316028D01*
X67842028Y-97460786D01*
X67721715Y-97626386D01*
X67674485Y-97719080D01*
X67626510Y-97769876D01*
X67558689Y-97786671D01*
X67492554Y-97764134D01*
X67453515Y-97719080D01*
X67452883Y-97717840D01*
X67406287Y-97626390D01*
X67398556Y-97615749D01*
X67285971Y-97460786D01*
X67141213Y-97316028D01*
X66975613Y-97195715D01*
X66975612Y-97195714D01*
X66975610Y-97195713D01*
X66918653Y-97166691D01*
X66793223Y-97102781D01*
X66598534Y-97039522D01*
X66423995Y-97011878D01*
X66396352Y-97007500D01*
X66191648Y-97007500D01*
X66167329Y-97011351D01*
X65989465Y-97039522D01*
X65794776Y-97102781D01*
X65612386Y-97195715D01*
X65446786Y-97316028D01*
X65302028Y-97460786D01*
X65181715Y-97626386D01*
X65134485Y-97719080D01*
X65086510Y-97769876D01*
X65018689Y-97786671D01*
X64952554Y-97764134D01*
X64913515Y-97719080D01*
X64912883Y-97717840D01*
X64866287Y-97626390D01*
X64858556Y-97615749D01*
X64745971Y-97460786D01*
X64601213Y-97316028D01*
X64435613Y-97195715D01*
X64435612Y-97195714D01*
X64435610Y-97195713D01*
X64378653Y-97166691D01*
X64253223Y-97102781D01*
X64058534Y-97039522D01*
X63883995Y-97011878D01*
X63856352Y-97007500D01*
X63651648Y-97007500D01*
X63627329Y-97011351D01*
X63449465Y-97039522D01*
X63254776Y-97102781D01*
X63072386Y-97195715D01*
X62906786Y-97316028D01*
X62762028Y-97460786D01*
X62641715Y-97626386D01*
X62594485Y-97719080D01*
X62546510Y-97769876D01*
X62478689Y-97786671D01*
X62412554Y-97764134D01*
X62373515Y-97719080D01*
X62372883Y-97717840D01*
X62326287Y-97626390D01*
X62318556Y-97615749D01*
X62205971Y-97460786D01*
X62061213Y-97316028D01*
X61895613Y-97195715D01*
X61895612Y-97195714D01*
X61895610Y-97195713D01*
X61838653Y-97166691D01*
X61713223Y-97102781D01*
X61518534Y-97039522D01*
X61343995Y-97011878D01*
X61316352Y-97007500D01*
X61111648Y-97007500D01*
X61087329Y-97011351D01*
X60909465Y-97039522D01*
X60714776Y-97102781D01*
X60532386Y-97195715D01*
X60366786Y-97316028D01*
X60222028Y-97460786D01*
X60101715Y-97626386D01*
X60054485Y-97719080D01*
X60006510Y-97769876D01*
X59938689Y-97786671D01*
X59872554Y-97764134D01*
X59833515Y-97719080D01*
X59832883Y-97717840D01*
X59786287Y-97626390D01*
X59778556Y-97615749D01*
X59665971Y-97460786D01*
X59521213Y-97316028D01*
X59355613Y-97195715D01*
X59355612Y-97195714D01*
X59355610Y-97195713D01*
X59298653Y-97166691D01*
X59173223Y-97102781D01*
X58978534Y-97039522D01*
X58803995Y-97011878D01*
X58776352Y-97007500D01*
X58571648Y-97007500D01*
X58547329Y-97011351D01*
X58369465Y-97039522D01*
X58174776Y-97102781D01*
X57992386Y-97195715D01*
X57826786Y-97316028D01*
X57682028Y-97460786D01*
X57561715Y-97626386D01*
X57514485Y-97719080D01*
X57466510Y-97769876D01*
X57398689Y-97786671D01*
X57332554Y-97764134D01*
X57293515Y-97719080D01*
X57292883Y-97717840D01*
X57246287Y-97626390D01*
X57238556Y-97615749D01*
X57125971Y-97460786D01*
X56981213Y-97316028D01*
X56815613Y-97195715D01*
X56815612Y-97195714D01*
X56815610Y-97195713D01*
X56758653Y-97166691D01*
X56633223Y-97102781D01*
X56438534Y-97039522D01*
X56263995Y-97011878D01*
X56236352Y-97007500D01*
X56031648Y-97007500D01*
X56007329Y-97011351D01*
X55829465Y-97039522D01*
X55634776Y-97102781D01*
X55452386Y-97195715D01*
X55286786Y-97316028D01*
X55142028Y-97460786D01*
X55021715Y-97626386D01*
X54928781Y-97808776D01*
X54865522Y-98003465D01*
X54833500Y-98205648D01*
X43878724Y-98205648D01*
X43878677Y-98202831D01*
X43787469Y-92699983D01*
X48199500Y-92699983D01*
X48199500Y-95800001D01*
X48199501Y-95800018D01*
X48210000Y-95902796D01*
X48210001Y-95902799D01*
X48265185Y-96069331D01*
X48265186Y-96069334D01*
X48357288Y-96218656D01*
X48481344Y-96342712D01*
X48630666Y-96434814D01*
X48797203Y-96489999D01*
X48899991Y-96500500D01*
X50100008Y-96500499D01*
X50202797Y-96489999D01*
X50369334Y-96434814D01*
X50518656Y-96342712D01*
X50642712Y-96218656D01*
X50734814Y-96069334D01*
X50789999Y-95902797D01*
X50800500Y-95800009D01*
X50800499Y-93249983D01*
X79699500Y-93249983D01*
X79699500Y-96350001D01*
X79699501Y-96350018D01*
X79710000Y-96452796D01*
X79710001Y-96452799D01*
X79725808Y-96500500D01*
X79765186Y-96619334D01*
X79857288Y-96768656D01*
X79981344Y-96892712D01*
X80130666Y-96984814D01*
X80297203Y-97039999D01*
X80399991Y-97050500D01*
X81600008Y-97050499D01*
X81702797Y-97039999D01*
X81869334Y-96984814D01*
X82018656Y-96892712D01*
X82142712Y-96768656D01*
X82234814Y-96619334D01*
X82289999Y-96452797D01*
X82300500Y-96350009D01*
X82300499Y-93249992D01*
X82297706Y-93222655D01*
X82289999Y-93147203D01*
X82289998Y-93147200D01*
X82260780Y-93059026D01*
X82234814Y-92980666D01*
X82142712Y-92831344D01*
X82018656Y-92707288D01*
X81869334Y-92615186D01*
X81702797Y-92560001D01*
X81702795Y-92560000D01*
X81600010Y-92549500D01*
X80399998Y-92549500D01*
X80399981Y-92549501D01*
X80297203Y-92560000D01*
X80297200Y-92560001D01*
X80130668Y-92615185D01*
X80130663Y-92615187D01*
X79981342Y-92707289D01*
X79857289Y-92831342D01*
X79765187Y-92980663D01*
X79765186Y-92980666D01*
X79710001Y-93147203D01*
X79710001Y-93147204D01*
X79710000Y-93147204D01*
X79699500Y-93249983D01*
X50800499Y-93249983D01*
X50800499Y-92699992D01*
X50789999Y-92597203D01*
X50734814Y-92430666D01*
X50642712Y-92281344D01*
X50518656Y-92157288D01*
X50425888Y-92100069D01*
X50369336Y-92065187D01*
X50369331Y-92065185D01*
X50367862Y-92064698D01*
X50202797Y-92010001D01*
X50202795Y-92010000D01*
X50100010Y-91999500D01*
X48899998Y-91999500D01*
X48899981Y-91999501D01*
X48797203Y-92010000D01*
X48797200Y-92010001D01*
X48630668Y-92065185D01*
X48630663Y-92065187D01*
X48481342Y-92157289D01*
X48357289Y-92281342D01*
X48265187Y-92430663D01*
X48265185Y-92430668D01*
X48237349Y-92514670D01*
X48210001Y-92597203D01*
X48210001Y-92597204D01*
X48210000Y-92597204D01*
X48199500Y-92699983D01*
X43787469Y-92699983D01*
X43787451Y-92698889D01*
X43770413Y-91670906D01*
X43746033Y-90199986D01*
X48200001Y-90199986D01*
X48210494Y-90302697D01*
X48265641Y-90469119D01*
X48265643Y-90469124D01*
X48357684Y-90618345D01*
X48481654Y-90742315D01*
X48630875Y-90834356D01*
X48630880Y-90834358D01*
X48797302Y-90889505D01*
X48797309Y-90889506D01*
X48900019Y-90899999D01*
X49249999Y-90899999D01*
X49750000Y-90899999D01*
X50099972Y-90899999D01*
X50099986Y-90899998D01*
X50202697Y-90889505D01*
X50369119Y-90834358D01*
X50369124Y-90834356D01*
X50505908Y-90749986D01*
X79700001Y-90749986D01*
X79710494Y-90852697D01*
X79765641Y-91019119D01*
X79765643Y-91019124D01*
X79857684Y-91168345D01*
X79981654Y-91292315D01*
X80130875Y-91384356D01*
X80130880Y-91384358D01*
X80297302Y-91439505D01*
X80297309Y-91439506D01*
X80400019Y-91449999D01*
X80749999Y-91449999D01*
X81250000Y-91449999D01*
X81599972Y-91449999D01*
X81599986Y-91449998D01*
X81702697Y-91439505D01*
X81869119Y-91384358D01*
X81869124Y-91384356D01*
X82018345Y-91292315D01*
X82142315Y-91168345D01*
X82234356Y-91019124D01*
X82234358Y-91019119D01*
X82289505Y-90852697D01*
X82289506Y-90852690D01*
X82299999Y-90749986D01*
X82300000Y-90749973D01*
X82300000Y-89450000D01*
X81250000Y-89450000D01*
X81250000Y-91449999D01*
X80749999Y-91449999D01*
X80750000Y-91449998D01*
X80750000Y-89450000D01*
X79700001Y-89450000D01*
X79700001Y-90749986D01*
X50505908Y-90749986D01*
X50518345Y-90742315D01*
X50642315Y-90618345D01*
X50734356Y-90469124D01*
X50734358Y-90469119D01*
X50789505Y-90302697D01*
X50789506Y-90302690D01*
X50799999Y-90199986D01*
X50800000Y-90199973D01*
X50800000Y-88900000D01*
X49750000Y-88900000D01*
X49750000Y-90899999D01*
X49249999Y-90899999D01*
X49250000Y-90899998D01*
X49250000Y-88900000D01*
X48200001Y-88900000D01*
X48200001Y-90199986D01*
X43746033Y-90199986D01*
X43723669Y-88850693D01*
X43694652Y-87100013D01*
X48200000Y-87100013D01*
X48200000Y-88400000D01*
X49250000Y-88400000D01*
X49750000Y-88400000D01*
X50799999Y-88400000D01*
X50799999Y-87650013D01*
X79700000Y-87650013D01*
X79700000Y-88950000D01*
X80750000Y-88950000D01*
X81250000Y-88950000D01*
X82299999Y-88950000D01*
X82299999Y-87650028D01*
X82299998Y-87650013D01*
X82289505Y-87547302D01*
X82234358Y-87380880D01*
X82234356Y-87380875D01*
X82142315Y-87231654D01*
X82018345Y-87107684D01*
X81869124Y-87015643D01*
X81869119Y-87015641D01*
X81702697Y-86960494D01*
X81702690Y-86960493D01*
X81599986Y-86950000D01*
X81250000Y-86950000D01*
X81250000Y-88950000D01*
X80750000Y-88950000D01*
X80750000Y-86950000D01*
X80400028Y-86950000D01*
X80400012Y-86950001D01*
X80297302Y-86960494D01*
X80130880Y-87015641D01*
X80130875Y-87015643D01*
X79981654Y-87107684D01*
X79857684Y-87231654D01*
X79765643Y-87380875D01*
X79765641Y-87380880D01*
X79710494Y-87547302D01*
X79710493Y-87547309D01*
X79700000Y-87650013D01*
X50799999Y-87650013D01*
X50799999Y-87100028D01*
X50799998Y-87100013D01*
X50789505Y-86997302D01*
X50734358Y-86830880D01*
X50734356Y-86830875D01*
X50642315Y-86681654D01*
X50518345Y-86557684D01*
X50369124Y-86465643D01*
X50369119Y-86465641D01*
X50202697Y-86410494D01*
X50202690Y-86410493D01*
X50099986Y-86400000D01*
X49750000Y-86400000D01*
X49750000Y-88400000D01*
X49250000Y-88400000D01*
X49250000Y-86400000D01*
X48900028Y-86400000D01*
X48900012Y-86400001D01*
X48797302Y-86410494D01*
X48630880Y-86465641D01*
X48630875Y-86465643D01*
X48481654Y-86557684D01*
X48357684Y-86681654D01*
X48265643Y-86830875D01*
X48265641Y-86830880D01*
X48210494Y-86997302D01*
X48210493Y-86997309D01*
X48200000Y-87100013D01*
X43694652Y-87100013D01*
X43694634Y-87098919D01*
X43673486Y-85822992D01*
X43666427Y-85397118D01*
X43665779Y-85358000D01*
X54857391Y-85358000D01*
X55818314Y-85358000D01*
X55813920Y-85362394D01*
X55761259Y-85453606D01*
X55734000Y-85555339D01*
X55734000Y-85660661D01*
X55761259Y-85762394D01*
X55813920Y-85853606D01*
X55818314Y-85858000D01*
X54857391Y-85858000D01*
X54866009Y-85912413D01*
X54929244Y-86107029D01*
X55022140Y-86289349D01*
X55142417Y-86454894D01*
X55142417Y-86454895D01*
X55287104Y-86599582D01*
X55452650Y-86719859D01*
X55634968Y-86812754D01*
X55829578Y-86875988D01*
X55884000Y-86884607D01*
X55884000Y-85923686D01*
X55888394Y-85928080D01*
X55979606Y-85980741D01*
X56081339Y-86008000D01*
X56186661Y-86008000D01*
X56288394Y-85980741D01*
X56379606Y-85928080D01*
X56384000Y-85923686D01*
X56384000Y-86884606D01*
X56438421Y-86875988D01*
X56633031Y-86812754D01*
X56815349Y-86719859D01*
X56980894Y-86599582D01*
X56980895Y-86599582D01*
X57125582Y-86454895D01*
X57125582Y-86454894D01*
X57245861Y-86289347D01*
X57293234Y-86196371D01*
X57341208Y-86145575D01*
X57409028Y-86128779D01*
X57475164Y-86151316D01*
X57514203Y-86196369D01*
X57561713Y-86289611D01*
X57682028Y-86455213D01*
X57826786Y-86599971D01*
X57981749Y-86712556D01*
X57992390Y-86720287D01*
X58081212Y-86765544D01*
X58174776Y-86813218D01*
X58174778Y-86813218D01*
X58174781Y-86813220D01*
X58229133Y-86830880D01*
X58369465Y-86876477D01*
X58470557Y-86892488D01*
X58571648Y-86908500D01*
X58571649Y-86908500D01*
X58776351Y-86908500D01*
X58776352Y-86908500D01*
X58978534Y-86876477D01*
X59173219Y-86813220D01*
X59355610Y-86720287D01*
X59451901Y-86650328D01*
X59521213Y-86599971D01*
X59521215Y-86599968D01*
X59521219Y-86599966D01*
X59665966Y-86455219D01*
X59665968Y-86455215D01*
X59665971Y-86455213D01*
X59786284Y-86289614D01*
X59786286Y-86289611D01*
X59786287Y-86289610D01*
X59833516Y-86196917D01*
X59881489Y-86146123D01*
X59949310Y-86129328D01*
X60015445Y-86151865D01*
X60054485Y-86196919D01*
X60101715Y-86289614D01*
X60222028Y-86455213D01*
X60366786Y-86599971D01*
X60521749Y-86712556D01*
X60532390Y-86720287D01*
X60621212Y-86765544D01*
X60714776Y-86813218D01*
X60714778Y-86813218D01*
X60714781Y-86813220D01*
X60769133Y-86830880D01*
X60909465Y-86876477D01*
X61010557Y-86892488D01*
X61111648Y-86908500D01*
X61111649Y-86908500D01*
X61316351Y-86908500D01*
X61316352Y-86908500D01*
X61518534Y-86876477D01*
X61713219Y-86813220D01*
X61895610Y-86720287D01*
X61991901Y-86650328D01*
X62061213Y-86599971D01*
X62061215Y-86599968D01*
X62061219Y-86599966D01*
X62205966Y-86455219D01*
X62205968Y-86455215D01*
X62205971Y-86455213D01*
X62326284Y-86289614D01*
X62326286Y-86289611D01*
X62326287Y-86289610D01*
X62373516Y-86196917D01*
X62421489Y-86146123D01*
X62489310Y-86129328D01*
X62555445Y-86151865D01*
X62594485Y-86196919D01*
X62641715Y-86289614D01*
X62762028Y-86455213D01*
X62906786Y-86599971D01*
X63061749Y-86712556D01*
X63072390Y-86720287D01*
X63161212Y-86765544D01*
X63254776Y-86813218D01*
X63254778Y-86813218D01*
X63254781Y-86813220D01*
X63309133Y-86830880D01*
X63449465Y-86876477D01*
X63550557Y-86892488D01*
X63651648Y-86908500D01*
X63651649Y-86908500D01*
X63856351Y-86908500D01*
X63856352Y-86908500D01*
X64058534Y-86876477D01*
X64253219Y-86813220D01*
X64435610Y-86720287D01*
X64531901Y-86650328D01*
X64601213Y-86599971D01*
X64601215Y-86599968D01*
X64601219Y-86599966D01*
X64745966Y-86455219D01*
X64745968Y-86455215D01*
X64745971Y-86455213D01*
X64866284Y-86289614D01*
X64866286Y-86289611D01*
X64866287Y-86289610D01*
X64913516Y-86196917D01*
X64961489Y-86146123D01*
X65029310Y-86129328D01*
X65095445Y-86151865D01*
X65134485Y-86196919D01*
X65181715Y-86289614D01*
X65302028Y-86455213D01*
X65446786Y-86599971D01*
X65601749Y-86712556D01*
X65612390Y-86720287D01*
X65701212Y-86765544D01*
X65794776Y-86813218D01*
X65794778Y-86813218D01*
X65794781Y-86813220D01*
X65849133Y-86830880D01*
X65989465Y-86876477D01*
X66090557Y-86892488D01*
X66191648Y-86908500D01*
X66191649Y-86908500D01*
X66396351Y-86908500D01*
X66396352Y-86908500D01*
X66598534Y-86876477D01*
X66793219Y-86813220D01*
X66975610Y-86720287D01*
X67071901Y-86650328D01*
X67141213Y-86599971D01*
X67141215Y-86599968D01*
X67141219Y-86599966D01*
X67285966Y-86455219D01*
X67285968Y-86455215D01*
X67285971Y-86455213D01*
X67406284Y-86289614D01*
X67406286Y-86289611D01*
X67406287Y-86289610D01*
X67453516Y-86196917D01*
X67501489Y-86146123D01*
X67569310Y-86129328D01*
X67635445Y-86151865D01*
X67674485Y-86196919D01*
X67721715Y-86289614D01*
X67842028Y-86455213D01*
X67986786Y-86599971D01*
X68141749Y-86712556D01*
X68152390Y-86720287D01*
X68241212Y-86765544D01*
X68334776Y-86813218D01*
X68334778Y-86813218D01*
X68334781Y-86813220D01*
X68389133Y-86830880D01*
X68529465Y-86876477D01*
X68630557Y-86892488D01*
X68731648Y-86908500D01*
X68731649Y-86908500D01*
X68936351Y-86908500D01*
X68936352Y-86908500D01*
X69138534Y-86876477D01*
X69333219Y-86813220D01*
X69515610Y-86720287D01*
X69611901Y-86650328D01*
X69681213Y-86599971D01*
X69681215Y-86599968D01*
X69681219Y-86599966D01*
X69825966Y-86455219D01*
X69825968Y-86455215D01*
X69825971Y-86455213D01*
X69946284Y-86289614D01*
X69946286Y-86289611D01*
X69946287Y-86289610D01*
X69993516Y-86196917D01*
X70041489Y-86146123D01*
X70109310Y-86129328D01*
X70175445Y-86151865D01*
X70214485Y-86196919D01*
X70261715Y-86289614D01*
X70382028Y-86455213D01*
X70526786Y-86599971D01*
X70681749Y-86712556D01*
X70692390Y-86720287D01*
X70781212Y-86765544D01*
X70874776Y-86813218D01*
X70874778Y-86813218D01*
X70874781Y-86813220D01*
X70929133Y-86830880D01*
X71069465Y-86876477D01*
X71170557Y-86892488D01*
X71271648Y-86908500D01*
X71271649Y-86908500D01*
X71476351Y-86908500D01*
X71476352Y-86908500D01*
X71678534Y-86876477D01*
X71873219Y-86813220D01*
X72055610Y-86720287D01*
X72151901Y-86650328D01*
X72221213Y-86599971D01*
X72221215Y-86599968D01*
X72221219Y-86599966D01*
X72365966Y-86455219D01*
X72392330Y-86418930D01*
X72447658Y-86376265D01*
X72517271Y-86370284D01*
X72579067Y-86402889D01*
X72613426Y-86463726D01*
X72615938Y-86478559D01*
X72619907Y-86515480D01*
X72670202Y-86650328D01*
X72670206Y-86650335D01*
X72756452Y-86765544D01*
X72756455Y-86765547D01*
X72871664Y-86851793D01*
X72871671Y-86851797D01*
X73006517Y-86902091D01*
X73006516Y-86902091D01*
X73013444Y-86902835D01*
X73066127Y-86908500D01*
X74761872Y-86908499D01*
X74821483Y-86902091D01*
X74956331Y-86851796D01*
X75071546Y-86765546D01*
X75157796Y-86650331D01*
X75208091Y-86515483D01*
X75214500Y-86455873D01*
X75214499Y-84760128D01*
X75208091Y-84700517D01*
X75157796Y-84565669D01*
X75157795Y-84565668D01*
X75157793Y-84565664D01*
X75071547Y-84450455D01*
X75071544Y-84450452D01*
X74956335Y-84364206D01*
X74956328Y-84364202D01*
X74821482Y-84313908D01*
X74821483Y-84313908D01*
X74761883Y-84307501D01*
X74761881Y-84307500D01*
X74761873Y-84307500D01*
X74761864Y-84307500D01*
X73066129Y-84307500D01*
X73066123Y-84307501D01*
X73006516Y-84313908D01*
X72871671Y-84364202D01*
X72871664Y-84364206D01*
X72756455Y-84450452D01*
X72756452Y-84450455D01*
X72670206Y-84565664D01*
X72670202Y-84565671D01*
X72619908Y-84700516D01*
X72615939Y-84737440D01*
X72589201Y-84801991D01*
X72531809Y-84841839D01*
X72461983Y-84844332D01*
X72401895Y-84808679D01*
X72392332Y-84797070D01*
X72365967Y-84760782D01*
X72221213Y-84616028D01*
X72055613Y-84495715D01*
X72055612Y-84495714D01*
X72055610Y-84495713D01*
X71998653Y-84466691D01*
X71873223Y-84402781D01*
X71678534Y-84339522D01*
X71503995Y-84311878D01*
X71476352Y-84307500D01*
X71271648Y-84307500D01*
X71247329Y-84311351D01*
X71069465Y-84339522D01*
X70874776Y-84402781D01*
X70692386Y-84495715D01*
X70526786Y-84616028D01*
X70382028Y-84760786D01*
X70261715Y-84926386D01*
X70214485Y-85019080D01*
X70166510Y-85069876D01*
X70098689Y-85086671D01*
X70032554Y-85064134D01*
X69993515Y-85019080D01*
X69992883Y-85017840D01*
X69946287Y-84926390D01*
X69884858Y-84841839D01*
X69825971Y-84760786D01*
X69681213Y-84616028D01*
X69515613Y-84495715D01*
X69515612Y-84495714D01*
X69515610Y-84495713D01*
X69458653Y-84466691D01*
X69333223Y-84402781D01*
X69138534Y-84339522D01*
X68963995Y-84311878D01*
X68936352Y-84307500D01*
X68731648Y-84307500D01*
X68707329Y-84311351D01*
X68529465Y-84339522D01*
X68334776Y-84402781D01*
X68152386Y-84495715D01*
X67986786Y-84616028D01*
X67842028Y-84760786D01*
X67721715Y-84926386D01*
X67674485Y-85019080D01*
X67626510Y-85069876D01*
X67558689Y-85086671D01*
X67492554Y-85064134D01*
X67453515Y-85019080D01*
X67452883Y-85017840D01*
X67406287Y-84926390D01*
X67344858Y-84841839D01*
X67285971Y-84760786D01*
X67141213Y-84616028D01*
X66975613Y-84495715D01*
X66975612Y-84495714D01*
X66975610Y-84495713D01*
X66918653Y-84466691D01*
X66793223Y-84402781D01*
X66598534Y-84339522D01*
X66423995Y-84311878D01*
X66396352Y-84307500D01*
X66191648Y-84307500D01*
X66167329Y-84311351D01*
X65989465Y-84339522D01*
X65794776Y-84402781D01*
X65612386Y-84495715D01*
X65446786Y-84616028D01*
X65302028Y-84760786D01*
X65181715Y-84926386D01*
X65134485Y-85019080D01*
X65086510Y-85069876D01*
X65018689Y-85086671D01*
X64952554Y-85064134D01*
X64913515Y-85019080D01*
X64912883Y-85017840D01*
X64866287Y-84926390D01*
X64804858Y-84841839D01*
X64745971Y-84760786D01*
X64601213Y-84616028D01*
X64435613Y-84495715D01*
X64435612Y-84495714D01*
X64435610Y-84495713D01*
X64378653Y-84466691D01*
X64253223Y-84402781D01*
X64058534Y-84339522D01*
X63883995Y-84311878D01*
X63856352Y-84307500D01*
X63651648Y-84307500D01*
X63627329Y-84311351D01*
X63449465Y-84339522D01*
X63254776Y-84402781D01*
X63072386Y-84495715D01*
X62906786Y-84616028D01*
X62762028Y-84760786D01*
X62641715Y-84926386D01*
X62594485Y-85019080D01*
X62546510Y-85069876D01*
X62478689Y-85086671D01*
X62412554Y-85064134D01*
X62373515Y-85019080D01*
X62372883Y-85017840D01*
X62326287Y-84926390D01*
X62264858Y-84841839D01*
X62205971Y-84760786D01*
X62061213Y-84616028D01*
X61895613Y-84495715D01*
X61895612Y-84495714D01*
X61895610Y-84495713D01*
X61838653Y-84466691D01*
X61713223Y-84402781D01*
X61518534Y-84339522D01*
X61343995Y-84311878D01*
X61316352Y-84307500D01*
X61111648Y-84307500D01*
X61087329Y-84311351D01*
X60909465Y-84339522D01*
X60714776Y-84402781D01*
X60532386Y-84495715D01*
X60366786Y-84616028D01*
X60222028Y-84760786D01*
X60101715Y-84926386D01*
X60054485Y-85019080D01*
X60006510Y-85069876D01*
X59938689Y-85086671D01*
X59872554Y-85064134D01*
X59833515Y-85019080D01*
X59832883Y-85017840D01*
X59786287Y-84926390D01*
X59724858Y-84841839D01*
X59665971Y-84760786D01*
X59521213Y-84616028D01*
X59355613Y-84495715D01*
X59355612Y-84495714D01*
X59355610Y-84495713D01*
X59298653Y-84466691D01*
X59173223Y-84402781D01*
X58978534Y-84339522D01*
X58803995Y-84311878D01*
X58776352Y-84307500D01*
X58571648Y-84307500D01*
X58547329Y-84311351D01*
X58369465Y-84339522D01*
X58174776Y-84402781D01*
X57992386Y-84495715D01*
X57826786Y-84616028D01*
X57682028Y-84760786D01*
X57561713Y-84926388D01*
X57514203Y-85019630D01*
X57466228Y-85070426D01*
X57398407Y-85087220D01*
X57332272Y-85064682D01*
X57293234Y-85019628D01*
X57245861Y-84926652D01*
X57125582Y-84761105D01*
X57125582Y-84761104D01*
X56980895Y-84616417D01*
X56815349Y-84496140D01*
X56633029Y-84403244D01*
X56438413Y-84340009D01*
X56384000Y-84331390D01*
X56384000Y-85292314D01*
X56379606Y-85287920D01*
X56288394Y-85235259D01*
X56186661Y-85208000D01*
X56081339Y-85208000D01*
X55979606Y-85235259D01*
X55888394Y-85287920D01*
X55884000Y-85292314D01*
X55884000Y-84331390D01*
X55829586Y-84340009D01*
X55634970Y-84403244D01*
X55452650Y-84496140D01*
X55287105Y-84616417D01*
X55287104Y-84616417D01*
X55142417Y-84761104D01*
X55142417Y-84761105D01*
X55022140Y-84926650D01*
X54929244Y-85108970D01*
X54866009Y-85303586D01*
X54857391Y-85358000D01*
X43665779Y-85358000D01*
X43661291Y-85087220D01*
X43507358Y-75799984D01*
X45099500Y-75799984D01*
X45099500Y-78200015D01*
X45110000Y-78302795D01*
X45110001Y-78302797D01*
X45132109Y-78369513D01*
X45165186Y-78469335D01*
X45165187Y-78469337D01*
X45257286Y-78618651D01*
X45257289Y-78618655D01*
X45381344Y-78742710D01*
X45381348Y-78742713D01*
X45530662Y-78834812D01*
X45530664Y-78834813D01*
X45530666Y-78834814D01*
X45697203Y-78889999D01*
X45799992Y-78900500D01*
X45799997Y-78900500D01*
X48200003Y-78900500D01*
X48200008Y-78900500D01*
X48302797Y-78889999D01*
X48469334Y-78834814D01*
X48618655Y-78742711D01*
X48742711Y-78618655D01*
X48834814Y-78469334D01*
X48889999Y-78302797D01*
X48900500Y-78200008D01*
X48900500Y-76875441D01*
X50099500Y-76875441D01*
X50099500Y-77124558D01*
X50099501Y-77124575D01*
X50132017Y-77371561D01*
X50196498Y-77612207D01*
X50291830Y-77842361D01*
X50291837Y-77842376D01*
X50416400Y-78058126D01*
X50568060Y-78255774D01*
X50568066Y-78255781D01*
X50744218Y-78431933D01*
X50744225Y-78431939D01*
X50941873Y-78583599D01*
X51157623Y-78708162D01*
X51157638Y-78708169D01*
X51256825Y-78749253D01*
X51387793Y-78803502D01*
X51628435Y-78867982D01*
X51875435Y-78900500D01*
X51875442Y-78900500D01*
X52124558Y-78900500D01*
X52124565Y-78900500D01*
X52371565Y-78867982D01*
X52612207Y-78803502D01*
X52842373Y-78708164D01*
X53058127Y-78583599D01*
X53255776Y-78431938D01*
X53431938Y-78255776D01*
X53583599Y-78058127D01*
X53708164Y-77842373D01*
X53803502Y-77612207D01*
X53867982Y-77371565D01*
X53900500Y-77124565D01*
X53900500Y-76875441D01*
X55099500Y-76875441D01*
X55099500Y-77124558D01*
X55099501Y-77124575D01*
X55132017Y-77371561D01*
X55196498Y-77612207D01*
X55291830Y-77842361D01*
X55291837Y-77842376D01*
X55416400Y-78058126D01*
X55568060Y-78255774D01*
X55568066Y-78255781D01*
X55744218Y-78431933D01*
X55744225Y-78431939D01*
X55941873Y-78583599D01*
X56157623Y-78708162D01*
X56157638Y-78708169D01*
X56256825Y-78749253D01*
X56387793Y-78803502D01*
X56628435Y-78867982D01*
X56875435Y-78900500D01*
X56875442Y-78900500D01*
X57124558Y-78900500D01*
X57124565Y-78900500D01*
X57371565Y-78867982D01*
X57612207Y-78803502D01*
X57842373Y-78708164D01*
X58058127Y-78583599D01*
X58255776Y-78431938D01*
X58431938Y-78255776D01*
X58583599Y-78058127D01*
X58708164Y-77842373D01*
X58803502Y-77612207D01*
X58867982Y-77371565D01*
X58900500Y-77124565D01*
X58900500Y-76875441D01*
X60099500Y-76875441D01*
X60099500Y-77124558D01*
X60099501Y-77124575D01*
X60132017Y-77371561D01*
X60196498Y-77612207D01*
X60291830Y-77842361D01*
X60291837Y-77842376D01*
X60416400Y-78058126D01*
X60568060Y-78255774D01*
X60568066Y-78255781D01*
X60744218Y-78431933D01*
X60744225Y-78431939D01*
X60941873Y-78583599D01*
X61157623Y-78708162D01*
X61157638Y-78708169D01*
X61256825Y-78749253D01*
X61387793Y-78803502D01*
X61628435Y-78867982D01*
X61875435Y-78900500D01*
X61875442Y-78900500D01*
X62124558Y-78900500D01*
X62124565Y-78900500D01*
X62371565Y-78867982D01*
X62612207Y-78803502D01*
X62842373Y-78708164D01*
X63058127Y-78583599D01*
X63255776Y-78431938D01*
X63431938Y-78255776D01*
X63583599Y-78058127D01*
X63708164Y-77842373D01*
X63803502Y-77612207D01*
X63867982Y-77371565D01*
X63900500Y-77124565D01*
X63900500Y-76875441D01*
X65099500Y-76875441D01*
X65099500Y-77124558D01*
X65099501Y-77124575D01*
X65132017Y-77371561D01*
X65196498Y-77612207D01*
X65291830Y-77842361D01*
X65291837Y-77842376D01*
X65416400Y-78058126D01*
X65568060Y-78255774D01*
X65568066Y-78255781D01*
X65744218Y-78431933D01*
X65744225Y-78431939D01*
X65941873Y-78583599D01*
X66157623Y-78708162D01*
X66157638Y-78708169D01*
X66256825Y-78749253D01*
X66387793Y-78803502D01*
X66628435Y-78867982D01*
X66875435Y-78900500D01*
X66875442Y-78900500D01*
X67124558Y-78900500D01*
X67124565Y-78900500D01*
X67371565Y-78867982D01*
X67612207Y-78803502D01*
X67842373Y-78708164D01*
X68058127Y-78583599D01*
X68255776Y-78431938D01*
X68279701Y-78408013D01*
X68314750Y-78372965D01*
X68431933Y-78255781D01*
X68431938Y-78255776D01*
X68583599Y-78058127D01*
X68708164Y-77842373D01*
X68803502Y-77612207D01*
X68867982Y-77371565D01*
X68900500Y-77124565D01*
X68900500Y-76875466D01*
X70100000Y-76875466D01*
X70100000Y-77124533D01*
X70132508Y-77371463D01*
X70196973Y-77612049D01*
X70292283Y-77842148D01*
X70292288Y-77842159D01*
X70416813Y-78057841D01*
X70416819Y-78057849D01*
X70491400Y-78155045D01*
X71398958Y-77247487D01*
X71423978Y-77307890D01*
X71495112Y-77414351D01*
X71585649Y-77504888D01*
X71692110Y-77576022D01*
X71752511Y-77601041D01*
X70844953Y-78508598D01*
X70942150Y-78583180D01*
X70942158Y-78583186D01*
X71157840Y-78707711D01*
X71157851Y-78707716D01*
X71387950Y-78803026D01*
X71628536Y-78867491D01*
X71875466Y-78900000D01*
X72124534Y-78900000D01*
X72371463Y-78867491D01*
X72612049Y-78803026D01*
X72842148Y-78707716D01*
X72842159Y-78707711D01*
X73057855Y-78583178D01*
X73155045Y-78508600D01*
X73155045Y-78508597D01*
X72247488Y-77601041D01*
X72307890Y-77576022D01*
X72414351Y-77504888D01*
X72504888Y-77414351D01*
X72576022Y-77307890D01*
X72601041Y-77247489D01*
X73508597Y-78155045D01*
X73508600Y-78155045D01*
X73583178Y-78057855D01*
X73707711Y-77842159D01*
X73707716Y-77842148D01*
X73803026Y-77612049D01*
X73867491Y-77371463D01*
X73900000Y-77124533D01*
X73900000Y-76875466D01*
X73867491Y-76628536D01*
X73803026Y-76387950D01*
X73707716Y-76157851D01*
X73707711Y-76157840D01*
X73583186Y-75942158D01*
X73583180Y-75942150D01*
X73508598Y-75844953D01*
X72601041Y-76752510D01*
X72576022Y-76692110D01*
X72504888Y-76585649D01*
X72414351Y-76495112D01*
X72307890Y-76423978D01*
X72247487Y-76398957D01*
X73155045Y-75491400D01*
X73057849Y-75416819D01*
X73057841Y-75416813D01*
X72842159Y-75292288D01*
X72842148Y-75292283D01*
X72612049Y-75196973D01*
X72371463Y-75132508D01*
X72124534Y-75100000D01*
X71875466Y-75100000D01*
X71628536Y-75132508D01*
X71387950Y-75196973D01*
X71157851Y-75292283D01*
X71157847Y-75292285D01*
X70942143Y-75416823D01*
X70844953Y-75491399D01*
X70844953Y-75491400D01*
X71752511Y-76398958D01*
X71692110Y-76423978D01*
X71585649Y-76495112D01*
X71495112Y-76585649D01*
X71423978Y-76692110D01*
X71398958Y-76752511D01*
X70491400Y-75844953D01*
X70491399Y-75844953D01*
X70416823Y-75942143D01*
X70292285Y-76157847D01*
X70292283Y-76157851D01*
X70196973Y-76387950D01*
X70132508Y-76628536D01*
X70100000Y-76875466D01*
X68900500Y-76875466D01*
X68900500Y-76875435D01*
X68867982Y-76628435D01*
X68803502Y-76387793D01*
X68708257Y-76157851D01*
X68708169Y-76157638D01*
X68708162Y-76157623D01*
X68583599Y-75941873D01*
X68431939Y-75744225D01*
X68431933Y-75744218D01*
X68255781Y-75568066D01*
X68255774Y-75568060D01*
X68058126Y-75416400D01*
X67842376Y-75291837D01*
X67842361Y-75291830D01*
X67612207Y-75196498D01*
X67378592Y-75133901D01*
X67371565Y-75132018D01*
X67371564Y-75132017D01*
X67371561Y-75132017D01*
X67124575Y-75099501D01*
X67124570Y-75099500D01*
X67124565Y-75099500D01*
X66875435Y-75099500D01*
X66875429Y-75099500D01*
X66875424Y-75099501D01*
X66628438Y-75132017D01*
X66387792Y-75196498D01*
X66157638Y-75291830D01*
X66157623Y-75291837D01*
X65941873Y-75416400D01*
X65744225Y-75568060D01*
X65744218Y-75568066D01*
X65568066Y-75744218D01*
X65568060Y-75744225D01*
X65416400Y-75941873D01*
X65291837Y-76157623D01*
X65291830Y-76157638D01*
X65196498Y-76387792D01*
X65132017Y-76628438D01*
X65099501Y-76875424D01*
X65099500Y-76875441D01*
X63900500Y-76875441D01*
X63900500Y-76875435D01*
X63867982Y-76628435D01*
X63803502Y-76387793D01*
X63708257Y-76157851D01*
X63708169Y-76157638D01*
X63708162Y-76157623D01*
X63583599Y-75941873D01*
X63431939Y-75744225D01*
X63431933Y-75744218D01*
X63255781Y-75568066D01*
X63255774Y-75568060D01*
X63058126Y-75416400D01*
X62842376Y-75291837D01*
X62842361Y-75291830D01*
X62612207Y-75196498D01*
X62378592Y-75133901D01*
X62371565Y-75132018D01*
X62371564Y-75132017D01*
X62371561Y-75132017D01*
X62124575Y-75099501D01*
X62124570Y-75099500D01*
X62124565Y-75099500D01*
X61875435Y-75099500D01*
X61875429Y-75099500D01*
X61875424Y-75099501D01*
X61628438Y-75132017D01*
X61387792Y-75196498D01*
X61157638Y-75291830D01*
X61157623Y-75291837D01*
X60941873Y-75416400D01*
X60744225Y-75568060D01*
X60744218Y-75568066D01*
X60568066Y-75744218D01*
X60568060Y-75744225D01*
X60416400Y-75941873D01*
X60291837Y-76157623D01*
X60291830Y-76157638D01*
X60196498Y-76387792D01*
X60132017Y-76628438D01*
X60099501Y-76875424D01*
X60099500Y-76875441D01*
X58900500Y-76875441D01*
X58900500Y-76875435D01*
X58867982Y-76628435D01*
X58803502Y-76387793D01*
X58708257Y-76157851D01*
X58708169Y-76157638D01*
X58708162Y-76157623D01*
X58583599Y-75941873D01*
X58431939Y-75744225D01*
X58431933Y-75744218D01*
X58255781Y-75568066D01*
X58255774Y-75568060D01*
X58058126Y-75416400D01*
X57842376Y-75291837D01*
X57842361Y-75291830D01*
X57612207Y-75196498D01*
X57378592Y-75133901D01*
X57371565Y-75132018D01*
X57371564Y-75132017D01*
X57371561Y-75132017D01*
X57124575Y-75099501D01*
X57124570Y-75099500D01*
X57124565Y-75099500D01*
X56875435Y-75099500D01*
X56875429Y-75099500D01*
X56875424Y-75099501D01*
X56628438Y-75132017D01*
X56387792Y-75196498D01*
X56157638Y-75291830D01*
X56157623Y-75291837D01*
X55941873Y-75416400D01*
X55744225Y-75568060D01*
X55744218Y-75568066D01*
X55568066Y-75744218D01*
X55568060Y-75744225D01*
X55416400Y-75941873D01*
X55291837Y-76157623D01*
X55291830Y-76157638D01*
X55196498Y-76387792D01*
X55132017Y-76628438D01*
X55099501Y-76875424D01*
X55099500Y-76875441D01*
X53900500Y-76875441D01*
X53900500Y-76875435D01*
X53867982Y-76628435D01*
X53803502Y-76387793D01*
X53708257Y-76157851D01*
X53708169Y-76157638D01*
X53708162Y-76157623D01*
X53583599Y-75941873D01*
X53431939Y-75744225D01*
X53431933Y-75744218D01*
X53255781Y-75568066D01*
X53255774Y-75568060D01*
X53058126Y-75416400D01*
X52842376Y-75291837D01*
X52842361Y-75291830D01*
X52612207Y-75196498D01*
X52378592Y-75133901D01*
X52371565Y-75132018D01*
X52371564Y-75132017D01*
X52371561Y-75132017D01*
X52124575Y-75099501D01*
X52124570Y-75099500D01*
X52124565Y-75099500D01*
X51875435Y-75099500D01*
X51875429Y-75099500D01*
X51875424Y-75099501D01*
X51628438Y-75132017D01*
X51387792Y-75196498D01*
X51157638Y-75291830D01*
X51157623Y-75291837D01*
X50941873Y-75416400D01*
X50744225Y-75568060D01*
X50744218Y-75568066D01*
X50568066Y-75744218D01*
X50568060Y-75744225D01*
X50416400Y-75941873D01*
X50291837Y-76157623D01*
X50291830Y-76157638D01*
X50196498Y-76387792D01*
X50132017Y-76628438D01*
X50099501Y-76875424D01*
X50099500Y-76875441D01*
X48900500Y-76875441D01*
X48900500Y-75799992D01*
X48889999Y-75697203D01*
X48834814Y-75530666D01*
X48826691Y-75517497D01*
X48742713Y-75381348D01*
X48742710Y-75381344D01*
X48618655Y-75257289D01*
X48618651Y-75257286D01*
X48469337Y-75165187D01*
X48469335Y-75165186D01*
X48374919Y-75133900D01*
X48302797Y-75110001D01*
X48302795Y-75110000D01*
X48200015Y-75099500D01*
X48200008Y-75099500D01*
X45799992Y-75099500D01*
X45799984Y-75099500D01*
X45697204Y-75110000D01*
X45697203Y-75110001D01*
X45530664Y-75165186D01*
X45530662Y-75165187D01*
X45381348Y-75257286D01*
X45381344Y-75257289D01*
X45257289Y-75381344D01*
X45257286Y-75381348D01*
X45165187Y-75530662D01*
X45165186Y-75530664D01*
X45110001Y-75697203D01*
X45110000Y-75697204D01*
X45099500Y-75799984D01*
X43507358Y-75799984D01*
X43450616Y-72376552D01*
X43469187Y-72309198D01*
X43521225Y-72262575D01*
X43574599Y-72250500D01*
X91811463Y-72250500D01*
X91878502Y-72270185D01*
G37*
%TD.AperFunction*%
%TD*%
M02*
