%TF.GenerationSoftware,KiCad,Pcbnew,9.0.1*%
%TF.CreationDate,2026-07-19T18:30:06-07:00*%
%TF.ProjectId,V67_cycletron,5636375f-6379-4636-9c65-74726f6e2e6b,rev?*%
%TF.SameCoordinates,Original*%
%TF.FileFunction,Legend,Bot*%
%TF.FilePolarity,Positive*%
%FSLAX46Y46*%
G04 Gerber Fmt 4.6, Leading zero omitted, Abs format (unit mm)*
G04 Created by KiCad (PCBNEW 9.0.1) date 2026-07-19 18:30:06*
%MOMM*%
%LPD*%
G01*
G04 APERTURE LIST*
G04 Aperture macros list*
%AMRoundRect*
0 Rectangle with rounded corners*
0 $1 Rounding radius*
0 $2 $3 $4 $5 $6 $7 $8 $9 X,Y pos of 4 corners*
0 Add a 4 corners polygon primitive as box body*
4,1,4,$2,$3,$4,$5,$6,$7,$8,$9,$2,$3,0*
0 Add four circle primitives for the rounded corners*
1,1,$1+$1,$2,$3*
1,1,$1+$1,$4,$5*
1,1,$1+$1,$6,$7*
1,1,$1+$1,$8,$9*
0 Add four rect primitives between the rounded corners*
20,1,$1+$1,$2,$3,$4,$5,0*
20,1,$1+$1,$4,$5,$6,$7,0*
20,1,$1+$1,$6,$7,$8,$9,0*
20,1,$1+$1,$8,$9,$2,$3,0*%
G04 Aperture macros list end*
%ADD10C,1.320800*%
%ADD11RoundRect,0.102000X-0.654000X-0.654000X0.654000X-0.654000X0.654000X0.654000X-0.654000X0.654000X0*%
%ADD12C,1.512000*%
%ADD13O,1.000000X1.600000*%
%ADD14O,1.000000X2.100000*%
%ADD15C,0.650000*%
%ADD16R,1.000000X1.000000*%
%ADD17C,1.000000*%
%ADD18C,1.600000*%
%ADD19O,1.600000X1.600000*%
%ADD20RoundRect,0.250001X-1.149999X-1.149999X1.149999X-1.149999X1.149999X1.149999X-1.149999X1.149999X0*%
%ADD21C,2.800000*%
%ADD22R,1.600000X1.600000*%
%ADD23RoundRect,0.102000X0.654000X0.654000X-0.654000X0.654000X-0.654000X-0.654000X0.654000X-0.654000X0*%
%ADD24C,2.200000*%
%ADD25R,1.980000X1.980000*%
%ADD26C,1.980000*%
G04 APERTURE END LIST*
%LPC*%
D10*
%TO.C,Motor2*%
X42367200Y-87472002D03*
X42367200Y-89472000D03*
X42367200Y-91472001D03*
X42367200Y-93472000D03*
%TD*%
%TO.C,Motor1*%
X42316400Y-103982002D03*
X42316400Y-105982000D03*
X42316400Y-107982001D03*
X42316400Y-109982000D03*
%TD*%
%TO.C,Fan1*%
X135026400Y-114147600D03*
X137026398Y-114147600D03*
X139026399Y-114147600D03*
X141026398Y-114147600D03*
%TD*%
%TO.C,Hall1*%
X124593601Y-114300000D03*
X126593600Y-114300000D03*
X128593601Y-114300000D03*
%TD*%
D11*
%TO.C,hb2*%
X119380000Y-114300000D03*
D12*
X117380000Y-114300000D03*
%TD*%
D11*
%TO.C,hb1*%
X109982000Y-114554000D03*
D12*
X107982000Y-114554000D03*
X105982000Y-114554000D03*
X103982000Y-114554000D03*
X101982000Y-114554000D03*
X99982000Y-114554000D03*
%TD*%
D13*
%TO.C,J1*%
X94546000Y-75488000D03*
D14*
X94546000Y-79668000D03*
D13*
X103186000Y-75488000D03*
D14*
X103186000Y-79668000D03*
D15*
X95976000Y-79138000D03*
X101756000Y-79138000D03*
%TD*%
D16*
%TO.C,J3*%
X142240000Y-93218000D03*
D17*
X142240000Y-94488000D03*
X142240000Y-95758000D03*
X142240000Y-97028000D03*
%TD*%
D18*
%TO.C,vd_r1*%
X97155000Y-105410000D03*
D19*
X97155000Y-97790000D03*
%TD*%
D20*
%TO.C,Rails1*%
X47578000Y-76860400D03*
D21*
X52578000Y-76860400D03*
X57578000Y-76860400D03*
X62578000Y-76860400D03*
X67578000Y-76860400D03*
X72578000Y-76860400D03*
%TD*%
D22*
%TO.C,Motor_2*%
X73914000Y-85608000D03*
D19*
X71374000Y-85608000D03*
X68834000Y-85608000D03*
X66294000Y-85608000D03*
X63754000Y-85608000D03*
X61214000Y-85608000D03*
X58674000Y-85608000D03*
X56134000Y-85608000D03*
X56134000Y-98308000D03*
X58674000Y-98308000D03*
X61214000Y-98308000D03*
X63754000Y-98308000D03*
X66294000Y-98308000D03*
X68834000Y-98308000D03*
X71374000Y-98308000D03*
X73914000Y-98308000D03*
%TD*%
D23*
%TO.C,Input1*%
X80804000Y-74422000D03*
D12*
X82804000Y-74422000D03*
%TD*%
D16*
%TO.C,J2*%
X146050000Y-93345000D03*
D17*
X146050000Y-94615000D03*
X146050000Y-95885000D03*
X146050000Y-97155000D03*
%TD*%
D24*
%TO.C,*%
X145592800Y-114046000D03*
%TD*%
%TO.C,*%
X42824400Y-80314800D03*
%TD*%
D25*
%TO.C,U3*%
X88646000Y-92710000D03*
D26*
X91196000Y-92710000D03*
X93746000Y-92710000D03*
%TD*%
D22*
%TO.C,Motor_1*%
X73914000Y-101864000D03*
D19*
X71374000Y-101864000D03*
X68834000Y-101864000D03*
X66294000Y-101864000D03*
X63754000Y-101864000D03*
X61214000Y-101864000D03*
X58674000Y-101864000D03*
X56134000Y-101864000D03*
X56134000Y-114564000D03*
X58674000Y-114564000D03*
X61214000Y-114564000D03*
X63754000Y-114564000D03*
X66294000Y-114564000D03*
X68834000Y-114564000D03*
X71374000Y-114564000D03*
X73914000Y-114564000D03*
%TD*%
D11*
%TO.C,Therm1*%
X92017600Y-114503200D03*
D12*
X90017600Y-114503200D03*
%TD*%
D11*
%TO.C,Mos1*%
X82702400Y-113944400D03*
D12*
X80702400Y-113944400D03*
%TD*%
D10*
%TO.C,I2C1*%
X146089000Y-101571801D03*
X146089000Y-103571800D03*
X146089000Y-105571801D03*
X146089000Y-107571799D03*
%TD*%
D24*
%TO.C,*%
X145592800Y-80416400D03*
%TD*%
%TO.C,*%
X42824400Y-114046000D03*
%TD*%
%LPD*%
M02*
