%TF.GenerationSoftware,KiCad,Pcbnew,9.0.1*%
%TF.CreationDate,2026-07-11T13:11:06-07:00*%
%TF.ProjectId,V67_cycletron,5636375f-6379-4636-9c65-74726f6e2e6b,rev?*%
%TF.SameCoordinates,Original*%
%TF.FileFunction,Copper,L1,Top*%
%TF.FilePolarity,Positive*%
%FSLAX46Y46*%
G04 Gerber Fmt 4.6, Leading zero omitted, Abs format (unit mm)*
G04 Created by KiCad (PCBNEW 9.0.1) date 2026-07-11 13:11:06*
%MOMM*%
%LPD*%
G01*
G04 APERTURE LIST*
G04 Aperture macros list*
%AMRoundRect*
0 Rectangle with rounded corners*
0 $1 Rounding radius*
0 $2 $3 $4 $5 $6 $7 $8 $9 X,Y pos of 4 corners*
0 Add a 4 corners polygon primitive as box body*
4,1,4,$2,$3,$4,$5,$6,$7,$8,$9,$2,$3,0*
0 Add four circle primitives for the rounded corners*
1,1,$1+$1,$2,$3*
1,1,$1+$1,$4,$5*
1,1,$1+$1,$6,$7*
1,1,$1+$1,$8,$9*
0 Add four rect primitives between the rounded corners*
20,1,$1+$1,$2,$3,$4,$5,0*
20,1,$1+$1,$4,$5,$6,$7,0*
20,1,$1+$1,$6,$7,$8,$9,0*
20,1,$1+$1,$8,$9,$2,$3,0*%
G04 Aperture macros list end*
%TA.AperFunction,HeatsinkPad*%
%ADD10C,0.600000*%
%TD*%
%TA.AperFunction,HeatsinkPad*%
%ADD11R,3.900000X3.900000*%
%TD*%
%TA.AperFunction,SMDPad,CuDef*%
%ADD12R,1.500000X0.900000*%
%TD*%
%TA.AperFunction,SMDPad,CuDef*%
%ADD13R,0.900000X1.500000*%
%TD*%
%TA.AperFunction,SMDPad,CuDef*%
%ADD14RoundRect,0.250000X-0.350000X0.850000X-0.350000X-0.850000X0.350000X-0.850000X0.350000X0.850000X0*%
%TD*%
%TA.AperFunction,SMDPad,CuDef*%
%ADD15RoundRect,0.249997X-2.650003X2.950003X-2.650003X-2.950003X2.650003X-2.950003X2.650003X2.950003X0*%
%TD*%
%TA.AperFunction,HeatsinkPad*%
%ADD16O,1.000000X1.600000*%
%TD*%
%TA.AperFunction,HeatsinkPad*%
%ADD17O,1.000000X2.100000*%
%TD*%
%TA.AperFunction,SMDPad,CuDef*%
%ADD18R,0.600000X1.450000*%
%TD*%
%TA.AperFunction,SMDPad,CuDef*%
%ADD19R,0.300000X1.450000*%
%TD*%
%TA.AperFunction,SMDPad,CuDef*%
%ADD20RoundRect,0.250000X-0.650000X1.000000X-0.650000X-1.000000X0.650000X-1.000000X0.650000X1.000000X0*%
%TD*%
%TA.AperFunction,SMDPad,CuDef*%
%ADD21RoundRect,0.250000X0.475000X-0.337500X0.475000X0.337500X-0.475000X0.337500X-0.475000X-0.337500X0*%
%TD*%
%TA.AperFunction,SMDPad,CuDef*%
%ADD22RoundRect,0.250000X0.450000X-0.350000X0.450000X0.350000X-0.450000X0.350000X-0.450000X-0.350000X0*%
%TD*%
%TA.AperFunction,SMDPad,CuDef*%
%ADD23RoundRect,0.237500X0.287500X0.237500X-0.287500X0.237500X-0.287500X-0.237500X0.287500X-0.237500X0*%
%TD*%
%TA.AperFunction,ComponentPad*%
%ADD24C,1.320800*%
%TD*%
%TA.AperFunction,ComponentPad*%
%ADD25R,1.000000X1.000000*%
%TD*%
%TA.AperFunction,ComponentPad*%
%ADD26C,1.000000*%
%TD*%
%TA.AperFunction,ComponentPad*%
%ADD27C,1.600000*%
%TD*%
%TA.AperFunction,ComponentPad*%
%ADD28O,1.600000X1.600000*%
%TD*%
%TA.AperFunction,ComponentPad*%
%ADD29RoundRect,0.250001X-1.149999X-1.149999X1.149999X-1.149999X1.149999X1.149999X-1.149999X1.149999X0*%
%TD*%
%TA.AperFunction,ComponentPad*%
%ADD30C,2.800000*%
%TD*%
%TA.AperFunction,ComponentPad*%
%ADD31R,1.600000X1.600000*%
%TD*%
%TA.AperFunction,SMDPad,CuDef*%
%ADD32RoundRect,0.250000X-0.350000X-0.450000X0.350000X-0.450000X0.350000X0.450000X-0.350000X0.450000X0*%
%TD*%
%TA.AperFunction,SMDPad,CuDef*%
%ADD33RoundRect,0.250000X0.550000X-1.500000X0.550000X1.500000X-0.550000X1.500000X-0.550000X-1.500000X0*%
%TD*%
%TA.AperFunction,SMDPad,CuDef*%
%ADD34RoundRect,0.250000X0.337500X0.475000X-0.337500X0.475000X-0.337500X-0.475000X0.337500X-0.475000X0*%
%TD*%
%TA.AperFunction,SMDPad,CuDef*%
%ADD35RoundRect,0.250000X-0.550000X1.500000X-0.550000X-1.500000X0.550000X-1.500000X0.550000X1.500000X0*%
%TD*%
%TA.AperFunction,SMDPad,CuDef*%
%ADD36RoundRect,0.250000X-0.337500X-0.475000X0.337500X-0.475000X0.337500X0.475000X-0.337500X0.475000X0*%
%TD*%
%TA.AperFunction,SMDPad,CuDef*%
%ADD37RoundRect,0.250000X-0.450000X0.350000X-0.450000X-0.350000X0.450000X-0.350000X0.450000X0.350000X0*%
%TD*%
%TA.AperFunction,SMDPad,CuDef*%
%ADD38RoundRect,0.250000X-1.000000X-0.650000X1.000000X-0.650000X1.000000X0.650000X-1.000000X0.650000X0*%
%TD*%
%TA.AperFunction,SMDPad,CuDef*%
%ADD39RoundRect,0.250000X0.550000X-1.050000X0.550000X1.050000X-0.550000X1.050000X-0.550000X-1.050000X0*%
%TD*%
%TA.AperFunction,ComponentPad*%
%ADD40C,1.270000*%
%TD*%
%TA.AperFunction,SMDPad,CuDef*%
%ADD41RoundRect,0.250000X1.500000X0.550000X-1.500000X0.550000X-1.500000X-0.550000X1.500000X-0.550000X0*%
%TD*%
%TA.AperFunction,SMDPad,CuDef*%
%ADD42R,1.350000X1.800000*%
%TD*%
%TA.AperFunction,SMDPad,CuDef*%
%ADD43RoundRect,0.150000X-0.150000X0.587500X-0.150000X-0.587500X0.150000X-0.587500X0.150000X0.587500X0*%
%TD*%
%TA.AperFunction,SMDPad,CuDef*%
%ADD44RoundRect,0.250000X0.350000X0.450000X-0.350000X0.450000X-0.350000X-0.450000X0.350000X-0.450000X0*%
%TD*%
%TA.AperFunction,ViaPad*%
%ADD45C,0.600000*%
%TD*%
%TA.AperFunction,Conductor*%
%ADD46C,1.000000*%
%TD*%
%TA.AperFunction,Conductor*%
%ADD47C,0.200000*%
%TD*%
%TA.AperFunction,Conductor*%
%ADD48C,0.500000*%
%TD*%
%TA.AperFunction,Conductor*%
%ADD49C,0.300000*%
%TD*%
%TA.AperFunction,Conductor*%
%ADD50C,0.400000*%
%TD*%
%TA.AperFunction,Conductor*%
%ADD51C,0.800000*%
%TD*%
G04 APERTURE END LIST*
D10*
%TO.P,U4,41,GND*%
%TO.N,GND*%
X128400000Y-88700000D03*
X128400000Y-87300000D03*
X127700000Y-89400000D03*
X127700000Y-88000000D03*
X127700000Y-86600000D03*
X127000000Y-88700000D03*
D11*
X127000000Y-88000000D03*
D10*
X127000000Y-87300000D03*
X126300000Y-89400000D03*
X126300000Y-88000000D03*
X126300000Y-86600000D03*
X125600000Y-88700000D03*
X125600000Y-87300000D03*
D12*
%TO.P,U4,40,GND*%
X137250000Y-80280000D03*
%TO.P,U4,39,IO1*%
%TO.N,IO1*%
X137250000Y-81550000D03*
%TO.P,U4,38,IO2*%
%TO.N,IO2*%
X137250000Y-82820000D03*
%TO.P,U4,37,TXD0*%
%TO.N,TX*%
X137250000Y-84090000D03*
%TO.P,U4,36,RXD0*%
%TO.N,RX*%
X137250000Y-85360000D03*
%TO.P,U4,35,IO42*%
%TO.N,SDA*%
X137250000Y-86630000D03*
%TO.P,U4,34,IO41*%
%TO.N,SCL*%
X137250000Y-87900000D03*
%TO.P,U4,33,IO40*%
%TO.N,IO40*%
X137250000Y-89170000D03*
%TO.P,U4,32,IO39*%
%TO.N,IO39*%
X137250000Y-90440000D03*
%TO.P,U4,31,IO38*%
%TO.N,IO38*%
X137250000Y-91710000D03*
%TO.P,U4,30,IO37*%
%TO.N,IO37*%
X137250000Y-92980000D03*
%TO.P,U4,29,IO36*%
%TO.N,FAN_Tach_i*%
X137250000Y-94250000D03*
%TO.P,U4,28,IO35*%
%TO.N,FAN_En_o*%
X137250000Y-95520000D03*
%TO.P,U4,27,IO0*%
%TO.N,BOOT*%
X137250000Y-96790000D03*
D13*
%TO.P,U4,26,IO45*%
%TO.N,Hall_i*%
X135485000Y-98040000D03*
%TO.P,U4,25,IO48*%
%TO.N,RPWM*%
X134215000Y-98040000D03*
%TO.P,U4,24,IO47*%
%TO.N,LPWM*%
X132945000Y-98040000D03*
%TO.P,U4,23,IO21*%
%TO.N,R_EN*%
X131675000Y-98040000D03*
%TO.P,U4,22,IO14*%
%TO.N,L_EN*%
X130405000Y-98040000D03*
%TO.P,U4,21,IO13*%
%TO.N,Therm-*%
X129135000Y-98040000D03*
%TO.P,U4,20,IO12*%
%TO.N,mosfet1_i*%
X127865000Y-98040000D03*
%TO.P,U4,19,IO11*%
%TO.N,Motor1_DIR*%
X126595000Y-98040000D03*
%TO.P,U4,18,IO10*%
%TO.N,Motor1_STEP*%
X125325000Y-98040000D03*
%TO.P,U4,17,IO9*%
%TO.N,Motor1_M2*%
X124055000Y-98040000D03*
%TO.P,U4,16,IO46*%
%TO.N,Motor1_M1*%
X122785000Y-98040000D03*
%TO.P,U4,15,IO3*%
%TO.N,Motor1_M0*%
X121515000Y-98040000D03*
D12*
%TO.P,U4,14,USB_D+*%
%TO.N,D+*%
X119750000Y-96790000D03*
%TO.P,U4,13,USB_D-*%
%TO.N,D-*%
X119750000Y-95520000D03*
%TO.P,U4,12,IO8*%
%TO.N,Motor1_EN*%
X119750000Y-94250000D03*
%TO.P,U4,11,IO18*%
%TO.N,Motor1_FLT*%
X119750000Y-92980000D03*
%TO.P,U4,10,IO17*%
%TO.N,Motor2_DIR*%
X119750000Y-91710000D03*
%TO.P,U4,9,IO16*%
%TO.N,Motor2_STEP*%
X119750000Y-90440000D03*
%TO.P,U4,8,IO15*%
%TO.N,Motor2_M2*%
X119750000Y-89170000D03*
%TO.P,U4,7,IO7*%
%TO.N,Motor2_M1*%
X119750000Y-87900000D03*
%TO.P,U4,6,IO6*%
%TO.N,Motor2_M0*%
X119750000Y-86630000D03*
%TO.P,U4,5,IO5*%
%TO.N,Motor2_EN*%
X119750000Y-85360000D03*
%TO.P,U4,4,IO4*%
%TO.N,Motor2_FLT*%
X119750000Y-84090000D03*
%TO.P,U4,3,EN*%
%TO.N,En*%
X119750000Y-82820000D03*
%TO.P,U4,2,3V3*%
%TO.N,3V3*%
X119750000Y-81550000D03*
%TO.P,U4,1,GND*%
%TO.N,GND*%
X119750000Y-80280000D03*
%TD*%
D14*
%TO.P,U2,3,VI*%
%TO.N,+5V*%
X98833500Y-85788000D03*
D15*
%TO.P,U2,2,VO*%
%TO.N,3V3*%
X101113500Y-92088000D03*
D14*
X101113500Y-85788000D03*
%TO.P,U2,1,GND*%
%TO.N,GND*%
X103393500Y-85788000D03*
%TD*%
%TO.P,U1,3,VI*%
%TO.N,+12V*%
X89881000Y-85948000D03*
D15*
%TO.P,U1,2,VO*%
%TO.N,+5V*%
X92161000Y-92248000D03*
D14*
X92161000Y-85948000D03*
%TO.P,U1,1,GND*%
%TO.N,GND*%
X94441000Y-85948000D03*
%TD*%
D16*
%TO.P,J1,S1,SHIELD*%
%TO.N,GND*%
X94546000Y-75488000D03*
D17*
X94546000Y-79668000D03*
D16*
X103186000Y-75488000D03*
D17*
X103186000Y-79668000D03*
D18*
%TO.P,J1,B12,GND*%
X102116000Y-80583000D03*
%TO.P,J1,B9,VBUS*%
%TO.N,+5V*%
X101316000Y-80583000D03*
D19*
%TO.P,J1,B8,SBU2*%
%TO.N,unconnected-(J1-SBU2-PadB8)*%
X100616000Y-80583000D03*
%TO.P,J1,B7,D-*%
%TO.N,D-*%
X99616000Y-80583000D03*
%TO.P,J1,B6,D+*%
%TO.N,D+*%
X98116000Y-80583000D03*
%TO.P,J1,B5,CC2*%
%TO.N,Net-(J1-CC2)*%
X97116000Y-80583000D03*
D18*
%TO.P,J1,B4,VBUS*%
%TO.N,+5V*%
X96416000Y-80583000D03*
%TO.P,J1,B1,GND*%
%TO.N,GND*%
X95616000Y-80583000D03*
%TO.P,J1,A12,GND*%
X95616000Y-80583000D03*
%TO.P,J1,A9,VBUS*%
%TO.N,+5V*%
X96416000Y-80583000D03*
D19*
%TO.P,J1,A8,SBU1*%
%TO.N,unconnected-(J1-SBU1-PadA8)*%
X97616000Y-80583000D03*
%TO.P,J1,A7,D-*%
%TO.N,D-*%
X98616000Y-80583000D03*
%TO.P,J1,A6,D+*%
%TO.N,D+*%
X99116000Y-80583000D03*
%TO.P,J1,A5,CC1*%
%TO.N,Net-(J1-CC1)*%
X100116000Y-80583000D03*
D18*
%TO.P,J1,A4,VBUS*%
%TO.N,+5V*%
X101316000Y-80583000D03*
%TO.P,J1,A1,GND*%
%TO.N,GND*%
X102116000Y-80583000D03*
%TD*%
D20*
%TO.P,D1,1,K*%
%TO.N,+12V*%
X79756000Y-105220000D03*
%TO.P,D1,2,A*%
%TO.N,mosfet1_o*%
X79756000Y-109220000D03*
%TD*%
D21*
%TO.P,mccap2,1*%
%TO.N,3V3*%
X113800000Y-82037500D03*
%TO.P,mccap2,2*%
%TO.N,GND*%
X113800000Y-79962500D03*
%TD*%
D22*
%TO.P,R_En1,1*%
%TO.N,3V3*%
X140200000Y-86000000D03*
%TO.P,R_En1,2*%
%TO.N,En*%
X140200000Y-84000000D03*
%TD*%
D23*
%TO.P,D4,1,K*%
%TO.N,Net-(D4-K)*%
X108686000Y-93988000D03*
%TO.P,D4,2,A*%
%TO.N,3V3*%
X106936000Y-93988000D03*
%TD*%
D24*
%TO.P,HBridge1,1,1*%
%TO.N,L_EN*%
X101514900Y-113372000D03*
%TO.P,HBridge1,2,2*%
%TO.N,R_EN*%
X103514901Y-113372000D03*
%TO.P,HBridge1,3,3*%
%TO.N,LPWM*%
X105514900Y-113372000D03*
%TO.P,HBridge1,4,4*%
%TO.N,RPWM*%
X107514901Y-113372000D03*
%TO.P,HBridge1,5,5*%
%TO.N,GND*%
X109514899Y-113372000D03*
%TO.P,HBridge1,6,6*%
%TO.N,3V3*%
X111514900Y-113372000D03*
%TD*%
D25*
%TO.P,J3,1,Pin_1*%
%TO.N,IO40*%
X142240000Y-93218000D03*
D26*
%TO.P,J3,2,Pin_2*%
%TO.N,IO39*%
X142240000Y-94488000D03*
%TO.P,J3,3,Pin_3*%
%TO.N,IO38*%
X142240000Y-95758000D03*
%TO.P,J3,4,Pin_4*%
%TO.N,IO37*%
X142240000Y-97028000D03*
%TD*%
D27*
%TO.P,vd_r1,1*%
%TO.N,Therm-*%
X97155000Y-105410000D03*
D28*
%TO.P,vd_r1,2*%
%TO.N,GND*%
X97155000Y-97790000D03*
%TD*%
D29*
%TO.P,Rails1,1,Pin_1*%
%TO.N,GND*%
X43600000Y-76800000D03*
D30*
%TO.P,Rails1,2,Pin_2*%
X48600000Y-76800000D03*
%TO.P,Rails1,3,Pin_3*%
X53600000Y-76800000D03*
%TO.P,Rails1,4,Pin_4*%
X58600000Y-76800000D03*
%TO.P,Rails1,5,Pin_5*%
%TO.N,3V3*%
X63600000Y-76800000D03*
%TO.P,Rails1,6,Pin_6*%
%TO.N,+12V*%
X68600000Y-76800000D03*
%TD*%
D31*
%TO.P,Motor_2,1,GND*%
%TO.N,GND*%
X73914000Y-85608000D03*
D28*
%TO.P,Motor_2,2,~{FLT}*%
%TO.N,Motor2_FLT*%
X71374000Y-85608000D03*
%TO.P,Motor_2,3,A2*%
%TO.N,Motor2_A2*%
X68834000Y-85608000D03*
%TO.P,Motor_2,4,A1*%
%TO.N,Motor2_A1*%
X66294000Y-85608000D03*
%TO.P,Motor_2,5,B1*%
%TO.N,Motor2_B1*%
X63754000Y-85608000D03*
%TO.P,Motor_2,6,B2*%
%TO.N,Motor2_B2*%
X61214000Y-85608000D03*
%TO.P,Motor_2,7,GND*%
%TO.N,GND*%
X58674000Y-85608000D03*
%TO.P,Motor_2,8,VMOT*%
%TO.N,+12V*%
X56134000Y-85608000D03*
%TO.P,Motor_2,9,~{EN}*%
%TO.N,Motor2_EN*%
X56134000Y-98308000D03*
%TO.P,Motor_2,10,M0*%
%TO.N,Motor2_M0*%
X58674000Y-98308000D03*
%TO.P,Motor_2,11,M1*%
%TO.N,Motor2_M1*%
X61214000Y-98308000D03*
%TO.P,Motor_2,12,M2*%
%TO.N,Motor2_M2*%
X63754000Y-98308000D03*
%TO.P,Motor_2,13,~{RST}*%
%TO.N,3V3*%
X66294000Y-98308000D03*
%TO.P,Motor_2,14,~{SLP}*%
X68834000Y-98308000D03*
%TO.P,Motor_2,15,STEP*%
%TO.N,Motor2_STEP*%
X71374000Y-98308000D03*
%TO.P,Motor_2,16,DIR*%
%TO.N,Motor2_DIR*%
X73914000Y-98308000D03*
%TD*%
D32*
%TO.P,R2,1*%
%TO.N,Net-(J1-CC1)*%
X100186000Y-82988000D03*
%TO.P,R2,2*%
%TO.N,GND*%
X102186000Y-82988000D03*
%TD*%
D25*
%TO.P,J2,1,Pin_1*%
%TO.N,IO1*%
X146050000Y-93345000D03*
D26*
%TO.P,J2,2,Pin_2*%
%TO.N,IO2*%
X146050000Y-94615000D03*
%TO.P,J2,3,Pin_3*%
%TO.N,TX*%
X146050000Y-95885000D03*
%TO.P,J2,4,Pin_4*%
%TO.N,RX*%
X146050000Y-97155000D03*
%TD*%
D33*
%TO.P,motorc1,1*%
%TO.N,+12V*%
X50800000Y-103892000D03*
%TO.P,motorc1,2*%
%TO.N,GND*%
X50800000Y-98292000D03*
%TD*%
D34*
%TO.P,vd_c2,1*%
%TO.N,Therm-*%
X91207500Y-107315000D03*
%TO.P,vd_c2,2*%
%TO.N,3V3*%
X89132500Y-107315000D03*
%TD*%
D35*
%TO.P,motorc2,1*%
%TO.N,+12V*%
X50800000Y-86100000D03*
%TO.P,motorc2,2*%
%TO.N,GND*%
X50800000Y-91700000D03*
%TD*%
D36*
%TO.P,vd_c1,1*%
%TO.N,3V3*%
X91037500Y-104140000D03*
%TO.P,vd_c1,2*%
%TO.N,GND*%
X93112500Y-104140000D03*
%TD*%
D37*
%TO.P,R_boot1,1*%
%TO.N,Net-(Boot1-Pad1)*%
X140000000Y-88200000D03*
%TO.P,R_boot1,2*%
%TO.N,BOOT*%
X140000000Y-90200000D03*
%TD*%
D31*
%TO.P,Motor_1,1,GND*%
%TO.N,GND*%
X73914000Y-101864000D03*
D28*
%TO.P,Motor_1,2,~{FLT}*%
%TO.N,Motor1_FLT*%
X71374000Y-101864000D03*
%TO.P,Motor_1,3,A2*%
%TO.N,Motor1_A2*%
X68834000Y-101864000D03*
%TO.P,Motor_1,4,A1*%
%TO.N,Motor1_A1*%
X66294000Y-101864000D03*
%TO.P,Motor_1,5,B1*%
%TO.N,Motor1_B1*%
X63754000Y-101864000D03*
%TO.P,Motor_1,6,B2*%
%TO.N,Motor1_B2*%
X61214000Y-101864000D03*
%TO.P,Motor_1,7,GND*%
%TO.N,GND*%
X58674000Y-101864000D03*
%TO.P,Motor_1,8,VMOT*%
%TO.N,+12V*%
X56134000Y-101864000D03*
%TO.P,Motor_1,9,~{EN}*%
%TO.N,Motor1_EN*%
X56134000Y-114564000D03*
%TO.P,Motor_1,10,M0*%
%TO.N,Motor1_M0*%
X58674000Y-114564000D03*
%TO.P,Motor_1,11,M1*%
%TO.N,Motor1_M1*%
X61214000Y-114564000D03*
%TO.P,Motor_1,12,M2*%
%TO.N,Motor1_M2*%
X63754000Y-114564000D03*
%TO.P,Motor_1,13,~{RST}*%
%TO.N,3V3*%
X66294000Y-114564000D03*
%TO.P,Motor_1,14,~{SLP}*%
X68834000Y-114564000D03*
%TO.P,Motor_1,15,STEP*%
%TO.N,Motor1_STEP*%
X71374000Y-114564000D03*
%TO.P,Motor_1,16,DIR*%
%TO.N,Motor1_DIR*%
X73914000Y-114564000D03*
%TD*%
D22*
%TO.P,R4,1*%
%TO.N,3V3*%
X141732000Y-108172000D03*
%TO.P,R4,2*%
%TO.N,SCL*%
X141732000Y-106172000D03*
%TD*%
D21*
%TO.P,C2,1*%
%TO.N,En*%
X141600000Y-82075000D03*
%TO.P,C2,2*%
%TO.N,GND*%
X141600000Y-80000000D03*
%TD*%
D38*
%TO.P,Dpower1,1,K*%
%TO.N,+12V*%
X79186000Y-85488000D03*
%TO.P,Dpower1,2,A*%
%TO.N,Net-(Dpower1-A)*%
X83186000Y-85488000D03*
%TD*%
D37*
%TO.P,R5,1*%
%TO.N,3V3*%
X141732000Y-99092000D03*
%TO.P,R5,2*%
%TO.N,SDA*%
X141732000Y-101092000D03*
%TD*%
D39*
%TO.P,5Vout1,1*%
%TO.N,+5V*%
X90686000Y-80588000D03*
%TO.P,5Vout1,2*%
%TO.N,GND*%
X90686000Y-76988000D03*
%TD*%
D21*
%TO.P,C1,1*%
%TO.N,En*%
X143800000Y-82075000D03*
%TO.P,C1,2*%
%TO.N,GND*%
X143800000Y-80000000D03*
%TD*%
D40*
%TO.P,Therm1,1,1*%
%TO.N,3V3*%
X92100400Y-113385600D03*
%TO.P,Therm1,2,2*%
%TO.N,Therm-*%
X90100399Y-113385600D03*
%TD*%
D41*
%TO.P,5Vin1,1*%
%TO.N,+12V*%
X84986000Y-90988000D03*
%TO.P,5Vin1,2*%
%TO.N,GND*%
X79386000Y-90988000D03*
%TD*%
D40*
%TO.P,Mos1,1,1*%
%TO.N,mosfet1_o*%
X80010000Y-114300000D03*
%TO.P,Mos1,2,2*%
%TO.N,+12V*%
X82010001Y-114300000D03*
%TD*%
D41*
%TO.P,3v3in1,1*%
%TO.N,+5V*%
X84986000Y-98488000D03*
%TO.P,3v3in1,2*%
%TO.N,GND*%
X79386000Y-98488000D03*
%TD*%
D21*
%TO.P,mccap1,1*%
%TO.N,3V3*%
X116848000Y-81946500D03*
%TO.P,mccap1,2*%
%TO.N,GND*%
X116848000Y-79871500D03*
%TD*%
D42*
%TO.P,En1,1*%
%TO.N,En*%
X142725000Y-85000000D03*
%TO.P,En1,2*%
%TO.N,GND*%
X146875000Y-85000000D03*
%TD*%
D32*
%TO.P,R3,1*%
%TO.N,GND*%
X106712000Y-96520000D03*
%TO.P,R3,2*%
%TO.N,Net-(D4-K)*%
X108712000Y-96520000D03*
%TD*%
D39*
%TO.P,3v3out1,1*%
%TO.N,3V3*%
X108186000Y-91288000D03*
%TO.P,3v3out1,2*%
%TO.N,GND*%
X108186000Y-87688000D03*
%TD*%
D42*
%TO.P,Boot1,1*%
%TO.N,Net-(Boot1-Pad1)*%
X142725000Y-88800000D03*
%TO.P,Boot1,2*%
%TO.N,GND*%
X146875000Y-88800000D03*
%TD*%
D43*
%TO.P,mosfet4,1,S*%
%TO.N,GND*%
X85786000Y-107345000D03*
%TO.P,mosfet4,2,G*%
%TO.N,Net-(mosfet4-G)*%
X83886000Y-107345000D03*
%TO.P,mosfet4,3,D*%
%TO.N,mosfet1_o*%
X84836000Y-109220000D03*
%TD*%
D40*
%TO.P,HBridge2,1,1*%
%TO.N,GND*%
X119287800Y-113397400D03*
%TO.P,HBridge2,2,2*%
%TO.N,+12V*%
X117287799Y-113397400D03*
%TD*%
D44*
%TO.P,tr3,1*%
%TO.N,mosfet1_i*%
X86360000Y-103632000D03*
%TO.P,tr3,2*%
%TO.N,Net-(mosfet4-G)*%
X84360000Y-103632000D03*
%TD*%
%TO.P,R1,1*%
%TO.N,Net-(J1-CC2)*%
X97186000Y-82988000D03*
%TO.P,R1,2*%
%TO.N,GND*%
X95186000Y-82988000D03*
%TD*%
D24*
%TO.P,Fan1,1,1*%
%TO.N,FAN_En_o*%
X137510002Y-113436400D03*
%TO.P,Fan1,2,2*%
%TO.N,FAN_Tach_i*%
X139510001Y-113436400D03*
%TO.P,Fan1,3,3*%
%TO.N,GND*%
X141510002Y-113436400D03*
%TO.P,Fan1,4,4*%
%TO.N,3V3*%
X143510000Y-113436400D03*
%TD*%
%TO.P,Hall1,1,1*%
%TO.N,Hall_i*%
X126777999Y-113385600D03*
%TO.P,Hall1,2,2*%
%TO.N,GND*%
X128778000Y-113385600D03*
%TO.P,Hall1,3,3*%
%TO.N,3V3*%
X130777999Y-113385600D03*
%TD*%
%TO.P,I2C1,1,1*%
%TO.N,SCL*%
X145122000Y-107876599D03*
%TO.P,I2C1,2,2*%
%TO.N,SDA*%
X145122000Y-105876600D03*
%TO.P,I2C1,3,3*%
%TO.N,GND*%
X145122000Y-103876599D03*
%TO.P,I2C1,4,4*%
%TO.N,3V3*%
X145122000Y-101876601D03*
%TD*%
D40*
%TO.P,Input1,1,1*%
%TO.N,Net-(Dpower1-A)*%
X82711800Y-75043399D03*
%TO.P,Input1,2,2*%
%TO.N,GND*%
X80711799Y-75043399D03*
%TD*%
D24*
%TO.P,Motor1,1,1*%
%TO.N,Motor1_A2*%
X42418000Y-113187998D03*
%TO.P,Motor1,2,2*%
%TO.N,Motor1_A1*%
X42418000Y-111187999D03*
%TO.P,Motor1,3,3*%
%TO.N,Motor1_B1*%
X42418000Y-109187998D03*
%TO.P,Motor1,4,4*%
%TO.N,Motor1_B2*%
X42418000Y-107188000D03*
%TD*%
%TO.P,Motor2,1,1*%
%TO.N,Motor2_A2*%
X42367200Y-93472000D03*
%TO.P,Motor2,2,2*%
%TO.N,Motor2_A1*%
X42367200Y-91472001D03*
%TO.P,Motor2,3,3*%
%TO.N,Motor2_B1*%
X42367200Y-89472000D03*
%TO.P,Motor2,4,4*%
%TO.N,Motor2_B2*%
X42367200Y-87472002D03*
%TD*%
D45*
%TO.N,GND*%
X143800000Y-80000000D03*
X95186000Y-82988000D03*
X141600000Y-80037500D03*
X146875000Y-85000000D03*
X93112500Y-104140000D03*
X116848000Y-79871500D03*
X102186000Y-82988000D03*
X113800000Y-79962500D03*
X106712000Y-96520000D03*
X94441000Y-85948000D03*
X90686000Y-76988000D03*
X102116000Y-80583000D03*
X108186000Y-87688000D03*
X50800000Y-91700000D03*
X146875000Y-88800000D03*
X50800000Y-98292000D03*
X103393500Y-85788000D03*
X79386000Y-90988000D03*
X85786000Y-107345000D03*
X119750000Y-80280000D03*
X95616000Y-80583000D03*
X79386000Y-98488000D03*
X137250000Y-80280000D03*
%TO.N,En*%
X119750000Y-82820000D03*
X138682000Y-81282000D03*
%TO.N,D-*%
X108600000Y-81574997D03*
X99052465Y-82201935D03*
%TO.N,D+*%
X108600000Y-82375000D03*
X99086000Y-83207177D03*
%TO.N,BOOT*%
X139700000Y-91440000D03*
X139446000Y-95504000D03*
%TO.N,Motor1_M0*%
X121515000Y-98040000D03*
%TO.N,Motor1_EN*%
X119750000Y-94250000D03*
%TO.N,Motor1_FLT*%
X119750000Y-92980000D03*
%TO.N,Motor1_STEP*%
X125325000Y-98040000D03*
%TO.N,Motor1_M2*%
X124055000Y-98040000D03*
%TO.N,Motor1_M1*%
X122936000Y-98044000D03*
%TO.N,Motor1_DIR*%
X126595000Y-98040000D03*
%TO.N,Motor2_EN*%
X119750000Y-85360000D03*
%TO.N,Motor2_M1*%
X119750000Y-87900000D03*
%TO.N,Motor2_DIR*%
X119750000Y-91710000D03*
%TO.N,Motor2_STEP*%
X119750000Y-90440000D03*
%TO.N,Motor2_FLT*%
X119750000Y-84090000D03*
%TO.N,Motor2_M2*%
X119750000Y-89170000D03*
%TO.N,Motor2_M0*%
X119750000Y-86630000D03*
%TO.N,SCL*%
X137250000Y-87900000D03*
X141732000Y-106172000D03*
%TO.N,SDA*%
X141732000Y-101092000D03*
X137250000Y-86630000D03*
%TO.N,FAN_Tach_i*%
X137250000Y-94250000D03*
%TO.N,FAN_En_o*%
X137250000Y-95520000D03*
%TO.N,3V3*%
X106936000Y-93988000D03*
X141732000Y-108172000D03*
X91037500Y-104140000D03*
X140200000Y-86000000D03*
X116848000Y-81946500D03*
X141732000Y-99092000D03*
X108079235Y-91394765D03*
X119750000Y-81550000D03*
X101113500Y-92088000D03*
X89132500Y-107315000D03*
X113796658Y-82040185D03*
X101092000Y-85852000D03*
%TO.N,TX*%
X137250000Y-84090000D03*
%TO.N,RX*%
X137250000Y-85360000D03*
%TO.N,IO2*%
X137250000Y-82820000D03*
%TO.N,IO1*%
X137250000Y-81550000D03*
%TD*%
D46*
%TO.N,Net-(Dpower1-A)*%
X82711800Y-80892199D02*
X82711800Y-75043399D01*
D47*
X82636000Y-80967999D02*
X82711800Y-80892199D01*
%TO.N,En*%
X138682000Y-81282000D02*
X139190000Y-81790000D01*
X143800000Y-82075000D02*
X141600000Y-82075000D01*
X141600000Y-82400000D02*
X142725000Y-83525000D01*
X139190000Y-82990000D02*
X141200000Y-85000000D01*
X141600000Y-82075000D02*
X141600000Y-82400000D01*
X141200000Y-85000000D02*
X142725000Y-85000000D01*
X139190000Y-81790000D02*
X139190000Y-82990000D01*
X142725000Y-83525000D02*
X142725000Y-85000000D01*
%TO.N,+5V*%
X94978840Y-81609000D02*
X96315000Y-81609000D01*
X92161000Y-85948000D02*
X92161000Y-84426840D01*
X97234000Y-78988000D02*
X100498000Y-78988000D01*
X101285000Y-80614000D02*
X101316000Y-80583000D01*
D48*
X84986000Y-98488000D02*
X91226000Y-92248000D01*
D47*
X91226000Y-92248000D02*
X92161000Y-92248000D01*
D48*
X92161000Y-85948000D02*
X92161000Y-82063000D01*
X92161000Y-82063000D02*
X90686000Y-80588000D01*
D47*
X98972160Y-85788000D02*
X101285000Y-83475160D01*
X96315000Y-81609000D02*
X96416000Y-81508000D01*
D48*
X92373500Y-92248000D02*
X98833500Y-85788000D01*
D47*
X98833500Y-85788000D02*
X98972160Y-85788000D01*
X92161000Y-92248000D02*
X92161000Y-85948000D01*
D49*
X92161000Y-84016920D02*
X94568920Y-81609000D01*
D47*
X96416000Y-81508000D02*
X96416000Y-80583000D01*
X100498000Y-78988000D02*
X101316000Y-79806000D01*
X96416000Y-80583000D02*
X96416000Y-79806000D01*
X92161000Y-92248000D02*
X92373500Y-92248000D01*
X101316000Y-79806000D02*
X101316000Y-80583000D01*
X101285000Y-83475160D02*
X101285000Y-80614000D01*
D49*
X92161000Y-84426840D02*
X92161000Y-84016920D01*
X94568920Y-81609000D02*
X94978840Y-81609000D01*
D47*
X96416000Y-79806000D02*
X97234000Y-78988000D01*
%TO.N,D-*%
X99060000Y-82194400D02*
X99060000Y-81659800D01*
X99567000Y-81609000D02*
X99616000Y-81560000D01*
X108799003Y-81774000D02*
X108848943Y-81774000D01*
X109201000Y-82126057D02*
X109201000Y-82623943D01*
X108848943Y-81774000D02*
X109201000Y-82126057D01*
X98616000Y-81560000D02*
X98665000Y-81609000D01*
X119116397Y-95520000D02*
X119750000Y-95520000D01*
X99110800Y-81609000D02*
X99567000Y-81609000D01*
X98665000Y-81609000D02*
X99110800Y-81609000D01*
X109050000Y-82774943D02*
X109050000Y-85453603D01*
X99052465Y-82201935D02*
X99060000Y-82194400D01*
X109050000Y-85453603D02*
X119116397Y-95520000D01*
X99616000Y-81560000D02*
X99616000Y-80583000D01*
X98616000Y-80583000D02*
X98616000Y-81560000D01*
X108600000Y-81574997D02*
X108799003Y-81774000D01*
X109201000Y-82623943D02*
X109050000Y-82774943D01*
X99060000Y-81659800D02*
X99110800Y-81609000D01*
%TO.N,Net-(J1-CC1)*%
X100686000Y-82988000D02*
X100116000Y-82418000D01*
X100116000Y-82418000D02*
X100116000Y-80583000D01*
%TO.N,Net-(J1-CC2)*%
X96686000Y-82988000D02*
X97116000Y-82558000D01*
X97116000Y-82558000D02*
X97116000Y-80583000D01*
%TO.N,D+*%
X99086000Y-83207177D02*
X98958400Y-83079577D01*
X119231000Y-96271000D02*
X119750000Y-96790000D01*
X98165000Y-79557000D02*
X99067000Y-79557000D01*
X99116000Y-79606000D02*
X99116000Y-80583000D01*
X118699000Y-95739000D02*
X118699000Y-96271000D01*
X98116000Y-82114000D02*
X98116000Y-80583000D01*
X99067000Y-79557000D02*
X99116000Y-79606000D01*
X108600000Y-85640000D02*
X118699000Y-95739000D01*
X108600000Y-82375000D02*
X108600000Y-85640000D01*
X98958400Y-82956400D02*
X98116000Y-82114000D01*
X98116000Y-80583000D02*
X98116000Y-79606000D01*
X98958400Y-83079577D02*
X98958400Y-82956400D01*
X118699000Y-96271000D02*
X119231000Y-96271000D01*
X98116000Y-79606000D02*
X98165000Y-79557000D01*
%TO.N,BOOT*%
X140000000Y-90200000D02*
X139700000Y-90500000D01*
X140000000Y-90200000D02*
X140000000Y-91140000D01*
X140000000Y-91140000D02*
X139700000Y-91440000D01*
X138200000Y-96790000D02*
X137250000Y-96790000D01*
X139446000Y-95544000D02*
X138200000Y-96790000D01*
D48*
%TO.N,+12V*%
X55890000Y-85852000D02*
X56134000Y-85608000D01*
D50*
X113893600Y-115570000D02*
X115115199Y-115570000D01*
D47*
X79686000Y-85488000D02*
X79686000Y-85688000D01*
X55642000Y-86100000D02*
X56134000Y-85608000D01*
X89881000Y-86093000D02*
X89881000Y-85948000D01*
D50*
X115115199Y-115570000D02*
X117287799Y-113397400D01*
D47*
X56472000Y-85608000D02*
X56134000Y-85608000D01*
D51*
X84986000Y-90988000D02*
X89881000Y-86093000D01*
D47*
X56632000Y-85608000D02*
X56134000Y-85608000D01*
X117379999Y-113665000D02*
X117287799Y-113757200D01*
D50*
X113893600Y-115570000D02*
X85293200Y-115570000D01*
D47*
%TO.N,Net-(Boot1-Pad1)*%
X140000000Y-88200000D02*
X142125000Y-88200000D01*
X142125000Y-88200000D02*
X142725000Y-88800000D01*
D46*
%TO.N,Net-(Dpower1-A)*%
X82636000Y-80967999D02*
X82636000Y-84938000D01*
D47*
X82636000Y-84938000D02*
X83186000Y-85488000D01*
%TO.N,Net-(D4-K)*%
X108686000Y-96494000D02*
X108712000Y-96520000D01*
X108686000Y-93988000D02*
X108686000Y-96494000D01*
%TO.N,Hall_i*%
X126777999Y-113632999D02*
X126777999Y-107918001D01*
X135485000Y-99211000D02*
X135485000Y-98040000D01*
X126777999Y-107918001D02*
X135485000Y-99211000D01*
X126810000Y-113665000D02*
X126777999Y-113632999D01*
%TO.N,R_EN*%
X131675000Y-98990000D02*
X131675000Y-98040000D01*
X128557000Y-102108000D02*
X131675000Y-98990000D01*
X103514901Y-113372000D02*
X114778901Y-102108000D01*
X114778901Y-102108000D02*
X128557000Y-102108000D01*
%TO.N,LPWM*%
X115762900Y-103124000D02*
X128811000Y-103124000D01*
X105514900Y-113372000D02*
X115762900Y-103124000D01*
X132945000Y-98990000D02*
X132945000Y-98040000D01*
X128811000Y-103124000D02*
X132945000Y-98990000D01*
%TO.N,RPWM*%
X107514901Y-112957099D02*
X116332000Y-104140000D01*
X134215000Y-98990000D02*
X134215000Y-98040000D01*
X129065000Y-104140000D02*
X134215000Y-98990000D01*
X107514901Y-113372000D02*
X107514901Y-112957099D01*
X116332000Y-104140000D02*
X129065000Y-104140000D01*
%TO.N,L_EN*%
X130405000Y-98990000D02*
X130405000Y-98040000D01*
X128303000Y-101092000D02*
X130405000Y-98990000D01*
X101514900Y-113372000D02*
X113794900Y-101092000D01*
X113794900Y-101092000D02*
X128303000Y-101092000D01*
%TO.N,mosfet1_o*%
X84836000Y-108712000D02*
X84836000Y-109220000D01*
X79756000Y-109188000D02*
X79756000Y-114268001D01*
X84836000Y-109220000D02*
X79756000Y-109220000D01*
X79756000Y-114268001D02*
X79787999Y-114300000D01*
%TO.N,Therm-*%
X90170000Y-113665000D02*
X91207500Y-112627500D01*
X104140000Y-100076000D02*
X128016000Y-100076000D01*
X128821000Y-98095000D02*
X128892000Y-98024000D01*
X128016000Y-100076000D02*
X129135000Y-98957000D01*
X91207500Y-107315000D02*
X95250000Y-107315000D01*
X91207500Y-112627500D02*
X91207500Y-107315000D01*
X129135000Y-98957000D02*
X129135000Y-98040000D01*
X98806000Y-105410000D02*
X104140000Y-100076000D01*
X95250000Y-107315000D02*
X97155000Y-105410000D01*
X97155000Y-105410000D02*
X98806000Y-105410000D01*
%TO.N,Net-(mosfet4-G)*%
X83886000Y-104106000D02*
X84360000Y-103632000D01*
X83886000Y-107345000D02*
X83886000Y-104106000D01*
%TO.N,mosfet1_i*%
X127397500Y-99457500D02*
X127865000Y-98990000D01*
X127865000Y-98990000D02*
X127865000Y-98040000D01*
X90534500Y-99457500D02*
X127397500Y-99457500D01*
X86360000Y-103632000D02*
X90534500Y-99457500D01*
D48*
%TO.N,3V3*%
X101113500Y-92088000D02*
X101113500Y-85788000D01*
D47*
%TO.N,IO38*%
X141859000Y-95758000D02*
X142240000Y-95758000D01*
X137811000Y-91710000D02*
X141859000Y-95758000D01*
X137250000Y-91710000D02*
X137811000Y-91710000D01*
%TO.N,IO40*%
X137782000Y-89170000D02*
X138999000Y-90387000D01*
X138999000Y-91588943D02*
X140628057Y-93218000D01*
X140628057Y-93218000D02*
X142240000Y-93218000D01*
X138999000Y-90387000D02*
X138999000Y-91588943D01*
X137250000Y-89170000D02*
X137782000Y-89170000D01*
%TO.N,IO39*%
X141224000Y-94488000D02*
X142240000Y-94488000D01*
X137250000Y-90440000D02*
X138200000Y-90440000D01*
X138200000Y-90440000D02*
X138557000Y-90797000D01*
X138557000Y-91821000D02*
X141224000Y-94488000D01*
X138557000Y-90797000D02*
X138557000Y-91821000D01*
%TO.N,IO37*%
X138192000Y-92980000D02*
X142240000Y-97028000D01*
X137250000Y-92980000D02*
X138192000Y-92980000D01*
%TD*%
%TA.AperFunction,Conductor*%
%TO.N,+12V*%
G36*
X87518358Y-73037185D02*
G01*
X87564113Y-73089989D01*
X87575302Y-73143483D01*
X87536889Y-75544225D01*
X87307101Y-89905346D01*
X87286347Y-89972062D01*
X87232817Y-90016966D01*
X87163509Y-90025802D01*
X87100425Y-89995764D01*
X87083113Y-89975073D01*
X87082798Y-89975323D01*
X87078316Y-89969655D01*
X86954345Y-89845684D01*
X86805124Y-89753643D01*
X86805119Y-89753641D01*
X86638697Y-89698494D01*
X86638690Y-89698493D01*
X86535986Y-89688000D01*
X85236000Y-89688000D01*
X85236000Y-92287999D01*
X86535972Y-92287999D01*
X86535986Y-92287998D01*
X86638697Y-92277505D01*
X86805119Y-92222358D01*
X86805124Y-92222356D01*
X86954342Y-92130317D01*
X87060091Y-92024568D01*
X87121414Y-91991083D01*
X87191106Y-91996067D01*
X87247040Y-92037938D01*
X87271457Y-92103402D01*
X87271757Y-92114233D01*
X87223345Y-95139891D01*
X87202591Y-95206607D01*
X87187042Y-95225588D01*
X85261449Y-97151181D01*
X85200126Y-97184666D01*
X85173768Y-97187500D01*
X83435998Y-97187500D01*
X83435981Y-97187501D01*
X83333203Y-97198000D01*
X83333200Y-97198001D01*
X83166668Y-97253185D01*
X83166663Y-97253187D01*
X83017342Y-97345289D01*
X82893289Y-97469342D01*
X82801187Y-97618663D01*
X82801185Y-97618668D01*
X82773349Y-97702670D01*
X82746001Y-97785203D01*
X82746001Y-97785204D01*
X82746000Y-97785204D01*
X82735500Y-97887983D01*
X82735500Y-99088001D01*
X82735501Y-99088018D01*
X82746000Y-99190796D01*
X82746001Y-99190799D01*
X82782176Y-99299966D01*
X82801186Y-99357334D01*
X82893288Y-99506656D01*
X83017344Y-99630712D01*
X83166666Y-99722814D01*
X83333203Y-99777999D01*
X83435991Y-99788500D01*
X86536008Y-99788499D01*
X86638797Y-99777999D01*
X86805334Y-99722814D01*
X86954656Y-99630712D01*
X86954658Y-99630709D01*
X86960747Y-99626954D01*
X87028140Y-99608514D01*
X87094803Y-99629437D01*
X87139573Y-99683079D01*
X87149828Y-99734477D01*
X87113907Y-101979461D01*
X87093153Y-102046177D01*
X87077604Y-102065158D01*
X86747582Y-102395181D01*
X86686259Y-102428666D01*
X86659901Y-102431500D01*
X85959998Y-102431500D01*
X85959980Y-102431501D01*
X85857203Y-102442000D01*
X85857200Y-102442001D01*
X85690668Y-102497185D01*
X85690663Y-102497187D01*
X85541342Y-102589289D01*
X85447681Y-102682951D01*
X85386358Y-102716436D01*
X85316666Y-102711452D01*
X85272319Y-102682951D01*
X85178657Y-102589289D01*
X85178656Y-102589288D01*
X85029334Y-102497186D01*
X84862797Y-102442001D01*
X84862795Y-102442000D01*
X84760010Y-102431500D01*
X83959998Y-102431500D01*
X83959980Y-102431501D01*
X83857203Y-102442000D01*
X83857200Y-102442001D01*
X83690668Y-102497185D01*
X83690663Y-102497187D01*
X83541342Y-102589289D01*
X83417289Y-102713342D01*
X83325187Y-102862663D01*
X83325186Y-102862666D01*
X83270001Y-103029203D01*
X83270001Y-103029204D01*
X83270000Y-103029204D01*
X83259500Y-103131983D01*
X83259500Y-104132001D01*
X83259501Y-104132019D01*
X83270000Y-104234793D01*
X83270001Y-104234796D01*
X83279206Y-104262575D01*
X83285500Y-104301579D01*
X83285500Y-106236691D01*
X83265815Y-106303730D01*
X83249181Y-106324372D01*
X83217923Y-106355629D01*
X83217917Y-106355637D01*
X83134255Y-106497103D01*
X83134254Y-106497106D01*
X83088402Y-106654926D01*
X83088401Y-106654932D01*
X83085500Y-106691798D01*
X83085500Y-107998201D01*
X83088401Y-108035067D01*
X83088402Y-108035073D01*
X83134254Y-108192893D01*
X83134255Y-108192896D01*
X83217917Y-108334362D01*
X83217923Y-108334370D01*
X83291372Y-108407819D01*
X83324857Y-108469142D01*
X83319873Y-108538834D01*
X83278001Y-108594767D01*
X83212537Y-108619184D01*
X83203691Y-108619500D01*
X81280499Y-108619500D01*
X81213460Y-108599815D01*
X81167705Y-108547011D01*
X81156499Y-108495500D01*
X81156499Y-108169998D01*
X81156498Y-108169981D01*
X81145999Y-108067203D01*
X81145998Y-108067200D01*
X81123134Y-107998201D01*
X81090814Y-107900666D01*
X80998712Y-107751344D01*
X80874656Y-107627288D01*
X80725334Y-107535186D01*
X80558797Y-107480001D01*
X80558795Y-107480000D01*
X80456010Y-107469500D01*
X79055998Y-107469500D01*
X79055981Y-107469501D01*
X78953203Y-107480000D01*
X78953200Y-107480001D01*
X78786668Y-107535185D01*
X78786663Y-107535187D01*
X78637342Y-107627289D01*
X78513289Y-107751342D01*
X78421187Y-107900663D01*
X78421185Y-107900668D01*
X78397948Y-107970794D01*
X78366001Y-108067203D01*
X78366001Y-108067204D01*
X78366000Y-108067204D01*
X78355500Y-108169983D01*
X78355500Y-110270001D01*
X78355501Y-110270018D01*
X78366000Y-110372796D01*
X78366001Y-110372799D01*
X78421185Y-110539331D01*
X78421186Y-110539334D01*
X78513288Y-110688656D01*
X78637344Y-110812712D01*
X78786666Y-110904814D01*
X78953203Y-110959999D01*
X79044103Y-110969285D01*
X79108794Y-110995681D01*
X79148945Y-111052861D01*
X79155500Y-111092643D01*
X79155500Y-113504000D01*
X79135815Y-113571039D01*
X79131818Y-113576886D01*
X79038833Y-113704867D01*
X78957691Y-113864118D01*
X78957689Y-113864121D01*
X78902460Y-114034098D01*
X78902460Y-114034101D01*
X78874500Y-114210634D01*
X78874500Y-114389365D01*
X78902460Y-114565898D01*
X78902460Y-114565901D01*
X78957689Y-114735878D01*
X78957691Y-114735881D01*
X79038833Y-114895132D01*
X79143889Y-115039728D01*
X79270272Y-115166111D01*
X79414868Y-115271167D01*
X79574119Y-115352309D01*
X79574121Y-115352310D01*
X79732670Y-115403825D01*
X79744103Y-115407540D01*
X79920634Y-115435500D01*
X79920635Y-115435500D01*
X80099365Y-115435500D01*
X80099366Y-115435500D01*
X80275897Y-115407540D01*
X80275900Y-115407539D01*
X80275901Y-115407539D01*
X80445878Y-115352310D01*
X80445878Y-115352309D01*
X80445881Y-115352309D01*
X80605132Y-115271167D01*
X80749728Y-115166111D01*
X80876111Y-115039728D01*
X80938421Y-114953965D01*
X80941899Y-114949952D01*
X80966999Y-114933819D01*
X80990627Y-114915600D01*
X80996750Y-114914697D01*
X81000675Y-114912175D01*
X81013862Y-114912174D01*
X81045345Y-114907533D01*
X81048653Y-114907793D01*
X81629001Y-114327445D01*
X81629001Y-114350160D01*
X81654965Y-114447061D01*
X81705125Y-114533940D01*
X81776061Y-114604876D01*
X81862940Y-114655036D01*
X81959841Y-114681000D01*
X81982555Y-114681000D01*
X81402206Y-115261347D01*
X81402206Y-115261348D01*
X81415130Y-115270738D01*
X81574307Y-115351844D01*
X81744220Y-115407053D01*
X81920670Y-115435000D01*
X82099332Y-115435000D01*
X82275781Y-115407053D01*
X82445694Y-115351844D01*
X82604868Y-115270739D01*
X82604873Y-115270737D01*
X82617795Y-115261347D01*
X82037448Y-114681000D01*
X82060161Y-114681000D01*
X82157062Y-114655036D01*
X82243941Y-114604876D01*
X82314877Y-114533940D01*
X82365037Y-114447061D01*
X82391001Y-114350160D01*
X82391001Y-114327446D01*
X82971348Y-114907794D01*
X82980738Y-114894872D01*
X82980740Y-114894867D01*
X83061845Y-114735693D01*
X83117054Y-114565780D01*
X83145001Y-114389331D01*
X83145001Y-114210668D01*
X83117054Y-114034219D01*
X83061845Y-113864306D01*
X82980739Y-113705129D01*
X82971348Y-113692205D01*
X82391001Y-114272552D01*
X82391001Y-114249840D01*
X82365037Y-114152939D01*
X82314877Y-114066060D01*
X82243941Y-113995124D01*
X82157062Y-113944964D01*
X82060161Y-113919000D01*
X82037448Y-113919000D01*
X82617795Y-113338652D01*
X82617794Y-113338651D01*
X82604870Y-113329260D01*
X82445694Y-113248155D01*
X82275781Y-113192946D01*
X82099332Y-113165000D01*
X81920670Y-113165000D01*
X81744220Y-113192946D01*
X81574307Y-113248155D01*
X81415128Y-113329262D01*
X81402206Y-113338651D01*
X81402205Y-113338651D01*
X81982555Y-113919000D01*
X81959841Y-113919000D01*
X81862940Y-113944964D01*
X81776061Y-113995124D01*
X81705125Y-114066060D01*
X81654965Y-114152939D01*
X81629001Y-114249840D01*
X81629001Y-114272553D01*
X81048652Y-113692204D01*
X81045344Y-113692465D01*
X81040427Y-113691432D01*
X81035609Y-113692847D01*
X81006575Y-113684320D01*
X80976967Y-113678101D01*
X80972078Y-113674190D01*
X80968570Y-113673160D01*
X80956275Y-113661547D01*
X80941898Y-113650046D01*
X80938418Y-113646029D01*
X80876111Y-113560272D01*
X80749728Y-113433889D01*
X80605132Y-113328833D01*
X80445881Y-113247691D01*
X80442176Y-113246487D01*
X80384503Y-113207047D01*
X80357308Y-113142687D01*
X80356500Y-113128558D01*
X80356500Y-111092642D01*
X80376185Y-111025603D01*
X80428989Y-110979848D01*
X80467897Y-110969284D01*
X80558797Y-110959999D01*
X80725334Y-110904814D01*
X80874656Y-110812712D01*
X80998712Y-110688656D01*
X81090814Y-110539334D01*
X81145999Y-110372797D01*
X81156500Y-110270009D01*
X81156500Y-109944500D01*
X81176185Y-109877461D01*
X81228989Y-109831706D01*
X81280500Y-109820500D01*
X83919278Y-109820500D01*
X83986317Y-109840185D01*
X84032072Y-109892989D01*
X84038354Y-109909905D01*
X84084254Y-110067893D01*
X84084255Y-110067896D01*
X84167917Y-110209362D01*
X84167923Y-110209370D01*
X84284129Y-110325576D01*
X84284133Y-110325579D01*
X84284135Y-110325581D01*
X84425602Y-110409244D01*
X84467224Y-110421336D01*
X84583426Y-110455097D01*
X84583429Y-110455097D01*
X84583431Y-110455098D01*
X84620306Y-110458000D01*
X84620314Y-110458000D01*
X85051686Y-110458000D01*
X85051694Y-110458000D01*
X85088569Y-110455098D01*
X85088571Y-110455097D01*
X85088573Y-110455097D01*
X85130191Y-110443005D01*
X85246398Y-110409244D01*
X85387865Y-110325581D01*
X85504081Y-110209365D01*
X85587744Y-110067898D01*
X85633598Y-109910069D01*
X85636500Y-109873194D01*
X85636500Y-108707000D01*
X85656185Y-108639961D01*
X85708989Y-108594206D01*
X85760500Y-108583000D01*
X86001686Y-108583000D01*
X86001694Y-108583000D01*
X86038569Y-108580098D01*
X86038571Y-108580097D01*
X86038573Y-108580097D01*
X86080191Y-108568005D01*
X86196398Y-108534244D01*
X86337865Y-108450581D01*
X86454081Y-108334365D01*
X86537744Y-108192898D01*
X86583598Y-108035069D01*
X86586500Y-107998194D01*
X86586500Y-106691806D01*
X86583598Y-106654931D01*
X86537744Y-106497102D01*
X86454081Y-106355635D01*
X86454079Y-106355633D01*
X86454076Y-106355629D01*
X86337870Y-106239423D01*
X86337862Y-106239417D01*
X86196396Y-106155755D01*
X86196393Y-106155754D01*
X86038573Y-106109902D01*
X86038567Y-106109901D01*
X86001701Y-106107000D01*
X86001694Y-106107000D01*
X85570306Y-106107000D01*
X85570298Y-106107000D01*
X85533432Y-106109901D01*
X85533426Y-106109902D01*
X85375606Y-106155754D01*
X85375603Y-106155755D01*
X85234137Y-106239417D01*
X85234129Y-106239423D01*
X85117923Y-106355629D01*
X85117917Y-106355637D01*
X85034255Y-106497103D01*
X85034254Y-106497106D01*
X84988402Y-106654926D01*
X84988401Y-106654932D01*
X84985500Y-106691798D01*
X84985500Y-107858000D01*
X84982949Y-107866685D01*
X84984238Y-107875647D01*
X84973259Y-107899687D01*
X84965815Y-107925039D01*
X84958974Y-107930966D01*
X84955213Y-107939203D01*
X84932978Y-107953492D01*
X84913011Y-107970794D01*
X84902496Y-107973081D01*
X84896435Y-107976977D01*
X84861500Y-107982000D01*
X84810500Y-107982000D01*
X84743461Y-107962315D01*
X84697706Y-107909511D01*
X84686500Y-107858000D01*
X84686500Y-106691813D01*
X84686499Y-106691798D01*
X84686227Y-106688345D01*
X84683598Y-106654931D01*
X84637744Y-106497102D01*
X84554081Y-106355635D01*
X84554079Y-106355633D01*
X84554076Y-106355629D01*
X84522819Y-106324372D01*
X84489334Y-106263049D01*
X84486500Y-106236691D01*
X84486500Y-104956499D01*
X84506185Y-104889460D01*
X84558989Y-104843705D01*
X84610500Y-104832499D01*
X84760002Y-104832499D01*
X84760008Y-104832499D01*
X84862797Y-104821999D01*
X85029334Y-104766814D01*
X85178656Y-104674712D01*
X85272319Y-104581049D01*
X85333642Y-104547564D01*
X85403334Y-104552548D01*
X85447681Y-104581049D01*
X85541344Y-104674712D01*
X85690666Y-104766814D01*
X85857203Y-104821999D01*
X85959991Y-104832500D01*
X86760008Y-104832499D01*
X86760016Y-104832498D01*
X86760019Y-104832498D01*
X86816302Y-104826748D01*
X86862797Y-104821999D01*
X86903736Y-104808432D01*
X86973565Y-104806030D01*
X87033607Y-104841761D01*
X87064800Y-104904281D01*
X87066726Y-104928122D01*
X86890153Y-115963484D01*
X86869399Y-116030200D01*
X86815869Y-116075104D01*
X86766169Y-116085500D01*
X74196578Y-116085500D01*
X74129539Y-116065815D01*
X74083784Y-116013011D01*
X74073840Y-115943853D01*
X74102865Y-115880297D01*
X74161643Y-115842523D01*
X74177180Y-115839027D01*
X74218534Y-115832477D01*
X74413219Y-115769220D01*
X74595610Y-115676287D01*
X74688590Y-115608732D01*
X74761213Y-115555971D01*
X74761215Y-115555968D01*
X74761219Y-115555966D01*
X74905966Y-115411219D01*
X74905968Y-115411215D01*
X74905971Y-115411213D01*
X74958732Y-115338590D01*
X75026287Y-115245610D01*
X75119220Y-115063219D01*
X75182477Y-114868534D01*
X75214500Y-114666352D01*
X75214500Y-114461648D01*
X75212190Y-114447061D01*
X75182477Y-114259465D01*
X75147864Y-114152939D01*
X75119220Y-114064781D01*
X75119218Y-114064778D01*
X75119218Y-114064776D01*
X75058170Y-113944964D01*
X75026287Y-113882390D01*
X75013014Y-113864121D01*
X74905971Y-113716786D01*
X74761213Y-113572028D01*
X74595613Y-113451715D01*
X74595612Y-113451714D01*
X74595610Y-113451713D01*
X74538653Y-113422691D01*
X74413223Y-113358781D01*
X74218534Y-113295522D01*
X74043995Y-113267878D01*
X74016352Y-113263500D01*
X73811648Y-113263500D01*
X73787329Y-113267351D01*
X73609465Y-113295522D01*
X73414776Y-113358781D01*
X73232386Y-113451715D01*
X73066786Y-113572028D01*
X72922028Y-113716786D01*
X72801715Y-113882386D01*
X72754485Y-113975080D01*
X72706510Y-114025876D01*
X72638689Y-114042671D01*
X72572554Y-114020134D01*
X72533515Y-113975080D01*
X72518170Y-113944964D01*
X72486287Y-113882390D01*
X72473014Y-113864121D01*
X72365971Y-113716786D01*
X72221213Y-113572028D01*
X72055613Y-113451715D01*
X72055612Y-113451714D01*
X72055610Y-113451713D01*
X71998653Y-113422691D01*
X71873223Y-113358781D01*
X71678534Y-113295522D01*
X71503995Y-113267878D01*
X71476352Y-113263500D01*
X71271648Y-113263500D01*
X71247329Y-113267351D01*
X71069465Y-113295522D01*
X70874776Y-113358781D01*
X70692386Y-113451715D01*
X70526786Y-113572028D01*
X70382028Y-113716786D01*
X70261715Y-113882386D01*
X70214485Y-113975080D01*
X70166510Y-114025876D01*
X70098689Y-114042671D01*
X70032554Y-114020134D01*
X69993515Y-113975080D01*
X69978170Y-113944964D01*
X69946287Y-113882390D01*
X69933014Y-113864121D01*
X69825971Y-113716786D01*
X69681213Y-113572028D01*
X69515613Y-113451715D01*
X69515612Y-113451714D01*
X69515610Y-113451713D01*
X69458653Y-113422691D01*
X69333223Y-113358781D01*
X69138534Y-113295522D01*
X68963995Y-113267878D01*
X68936352Y-113263500D01*
X68731648Y-113263500D01*
X68707329Y-113267351D01*
X68529465Y-113295522D01*
X68334776Y-113358781D01*
X68152386Y-113451715D01*
X67986786Y-113572028D01*
X67842028Y-113716786D01*
X67721715Y-113882386D01*
X67674485Y-113975080D01*
X67626510Y-114025876D01*
X67558689Y-114042671D01*
X67492554Y-114020134D01*
X67453515Y-113975080D01*
X67438170Y-113944964D01*
X67406287Y-113882390D01*
X67393014Y-113864121D01*
X67285971Y-113716786D01*
X67141213Y-113572028D01*
X66975613Y-113451715D01*
X66975612Y-113451714D01*
X66975610Y-113451713D01*
X66918653Y-113422691D01*
X66793223Y-113358781D01*
X66598534Y-113295522D01*
X66423995Y-113267878D01*
X66396352Y-113263500D01*
X66191648Y-113263500D01*
X66167329Y-113267351D01*
X65989465Y-113295522D01*
X65794776Y-113358781D01*
X65612386Y-113451715D01*
X65446786Y-113572028D01*
X65302028Y-113716786D01*
X65181715Y-113882386D01*
X65134485Y-113975080D01*
X65086510Y-114025876D01*
X65018689Y-114042671D01*
X64952554Y-114020134D01*
X64913515Y-113975080D01*
X64898170Y-113944964D01*
X64866287Y-113882390D01*
X64853014Y-113864121D01*
X64745971Y-113716786D01*
X64601213Y-113572028D01*
X64435613Y-113451715D01*
X64435612Y-113451714D01*
X64435610Y-113451713D01*
X64378653Y-113422691D01*
X64253223Y-113358781D01*
X64058534Y-113295522D01*
X63883995Y-113267878D01*
X63856352Y-113263500D01*
X63651648Y-113263500D01*
X63627329Y-113267351D01*
X63449465Y-113295522D01*
X63254776Y-113358781D01*
X63072386Y-113451715D01*
X62906786Y-113572028D01*
X62762028Y-113716786D01*
X62641715Y-113882386D01*
X62594485Y-113975080D01*
X62546510Y-114025876D01*
X62478689Y-114042671D01*
X62412554Y-114020134D01*
X62373515Y-113975080D01*
X62358170Y-113944964D01*
X62326287Y-113882390D01*
X62313014Y-113864121D01*
X62205971Y-113716786D01*
X62061213Y-113572028D01*
X61895613Y-113451715D01*
X61895612Y-113451714D01*
X61895610Y-113451713D01*
X61838653Y-113422691D01*
X61713223Y-113358781D01*
X61518534Y-113295522D01*
X61343995Y-113267878D01*
X61316352Y-113263500D01*
X61111648Y-113263500D01*
X61087329Y-113267351D01*
X60909465Y-113295522D01*
X60714776Y-113358781D01*
X60532386Y-113451715D01*
X60366786Y-113572028D01*
X60222028Y-113716786D01*
X60101715Y-113882386D01*
X60054485Y-113975080D01*
X60006510Y-114025876D01*
X59938689Y-114042671D01*
X59872554Y-114020134D01*
X59833515Y-113975080D01*
X59818170Y-113944964D01*
X59786287Y-113882390D01*
X59773014Y-113864121D01*
X59665971Y-113716786D01*
X59521213Y-113572028D01*
X59355613Y-113451715D01*
X59355612Y-113451714D01*
X59355610Y-113451713D01*
X59298653Y-113422691D01*
X59173223Y-113358781D01*
X58978534Y-113295522D01*
X58803995Y-113267878D01*
X58776352Y-113263500D01*
X58571648Y-113263500D01*
X58547329Y-113267351D01*
X58369465Y-113295522D01*
X58174776Y-113358781D01*
X57992386Y-113451715D01*
X57826786Y-113572028D01*
X57682028Y-113716786D01*
X57561715Y-113882386D01*
X57514485Y-113975080D01*
X57466510Y-114025876D01*
X57398689Y-114042671D01*
X57332554Y-114020134D01*
X57293515Y-113975080D01*
X57278170Y-113944964D01*
X57246287Y-113882390D01*
X57233014Y-113864121D01*
X57125971Y-113716786D01*
X56981213Y-113572028D01*
X56815613Y-113451715D01*
X56815612Y-113451714D01*
X56815610Y-113451713D01*
X56758653Y-113422691D01*
X56633223Y-113358781D01*
X56438534Y-113295522D01*
X56263995Y-113267878D01*
X56236352Y-113263500D01*
X56031648Y-113263500D01*
X56007329Y-113267351D01*
X55829465Y-113295522D01*
X55634776Y-113358781D01*
X55452386Y-113451715D01*
X55286786Y-113572028D01*
X55142028Y-113716786D01*
X55021715Y-113882386D01*
X54928781Y-114064776D01*
X54865522Y-114259465D01*
X54833500Y-114461648D01*
X54833500Y-114666351D01*
X54865522Y-114868534D01*
X54928781Y-115063223D01*
X55021715Y-115245613D01*
X55142028Y-115411213D01*
X55286786Y-115555971D01*
X55441749Y-115668556D01*
X55452390Y-115676287D01*
X55568607Y-115735503D01*
X55634776Y-115769218D01*
X55634778Y-115769218D01*
X55634781Y-115769220D01*
X55739137Y-115803127D01*
X55829465Y-115832477D01*
X55870820Y-115839027D01*
X55933955Y-115868956D01*
X55970886Y-115928268D01*
X55969888Y-115998130D01*
X55931278Y-116056363D01*
X55867315Y-116084477D01*
X55851422Y-116085500D01*
X47366678Y-116085500D01*
X47299639Y-116065815D01*
X47253884Y-116013011D01*
X47242678Y-115961618D01*
X47238035Y-111092642D01*
X47233437Y-106269986D01*
X78356001Y-106269986D01*
X78366494Y-106372697D01*
X78421641Y-106539119D01*
X78421643Y-106539124D01*
X78513684Y-106688345D01*
X78637654Y-106812315D01*
X78786875Y-106904356D01*
X78786880Y-106904358D01*
X78953302Y-106959505D01*
X78953309Y-106959506D01*
X79056019Y-106969999D01*
X79505999Y-106969999D01*
X80006000Y-106969999D01*
X80455972Y-106969999D01*
X80455986Y-106969998D01*
X80558697Y-106959505D01*
X80725119Y-106904358D01*
X80725124Y-106904356D01*
X80874345Y-106812315D01*
X80998315Y-106688345D01*
X81090356Y-106539124D01*
X81090358Y-106539119D01*
X81145505Y-106372697D01*
X81145506Y-106372690D01*
X81155999Y-106269986D01*
X81156000Y-106269973D01*
X81156000Y-105470000D01*
X80006000Y-105470000D01*
X80006000Y-106969999D01*
X79505999Y-106969999D01*
X79506000Y-106969998D01*
X79506000Y-105470000D01*
X78356001Y-105470000D01*
X78356001Y-106269986D01*
X47233437Y-106269986D01*
X47232648Y-105441986D01*
X49500001Y-105441986D01*
X49510494Y-105544697D01*
X49565641Y-105711119D01*
X49565643Y-105711124D01*
X49657684Y-105860345D01*
X49781654Y-105984315D01*
X49930875Y-106076356D01*
X49930880Y-106076358D01*
X50097302Y-106131505D01*
X50097309Y-106131506D01*
X50200019Y-106141999D01*
X50549999Y-106141999D01*
X51050000Y-106141999D01*
X51399972Y-106141999D01*
X51399986Y-106141998D01*
X51502697Y-106131505D01*
X51669119Y-106076358D01*
X51669124Y-106076356D01*
X51818345Y-105984315D01*
X51942315Y-105860345D01*
X52034356Y-105711124D01*
X52034358Y-105711119D01*
X52089505Y-105544697D01*
X52089506Y-105544690D01*
X52099999Y-105441986D01*
X52100000Y-105441973D01*
X52100000Y-104170013D01*
X78356000Y-104170013D01*
X78356000Y-104970000D01*
X79506000Y-104970000D01*
X80006000Y-104970000D01*
X81155999Y-104970000D01*
X81155999Y-104170028D01*
X81155998Y-104170013D01*
X81145505Y-104067302D01*
X81090358Y-103900880D01*
X81090356Y-103900875D01*
X80998315Y-103751654D01*
X80874345Y-103627684D01*
X80725124Y-103535643D01*
X80725119Y-103535641D01*
X80558697Y-103480494D01*
X80558690Y-103480493D01*
X80455986Y-103470000D01*
X80006000Y-103470000D01*
X80006000Y-104970000D01*
X79506000Y-104970000D01*
X79506000Y-103470000D01*
X79056028Y-103470000D01*
X79056012Y-103470001D01*
X78953302Y-103480494D01*
X78786880Y-103535641D01*
X78786875Y-103535643D01*
X78637654Y-103627684D01*
X78513684Y-103751654D01*
X78421643Y-103900875D01*
X78421641Y-103900880D01*
X78366494Y-104067302D01*
X78366493Y-104067309D01*
X78356000Y-104170013D01*
X52100000Y-104170013D01*
X52100000Y-104142000D01*
X51050000Y-104142000D01*
X51050000Y-106141999D01*
X50549999Y-106141999D01*
X50550000Y-106141998D01*
X50550000Y-104142000D01*
X49500001Y-104142000D01*
X49500001Y-105441986D01*
X47232648Y-105441986D01*
X47229692Y-102342013D01*
X49500000Y-102342013D01*
X49500000Y-103642000D01*
X50550000Y-103642000D01*
X51050000Y-103642000D01*
X52099999Y-103642000D01*
X52099999Y-102342028D01*
X52099998Y-102342013D01*
X52089506Y-102239304D01*
X52048627Y-102115942D01*
X52048626Y-102115939D01*
X52034359Y-102072882D01*
X52034356Y-102072875D01*
X51942315Y-101923654D01*
X51818345Y-101799684D01*
X51748498Y-101756602D01*
X51669124Y-101707643D01*
X51669119Y-101707641D01*
X51502697Y-101652494D01*
X51502690Y-101652493D01*
X51399986Y-101642000D01*
X51050000Y-101642000D01*
X51050000Y-103642000D01*
X50550000Y-103642000D01*
X50550000Y-101642000D01*
X50200028Y-101642000D01*
X50200012Y-101642001D01*
X50097302Y-101652494D01*
X49930880Y-101707641D01*
X49930875Y-101707643D01*
X49781654Y-101799684D01*
X49657684Y-101923654D01*
X49565643Y-102072875D01*
X49565641Y-102072880D01*
X49510494Y-102239302D01*
X49510493Y-102239309D01*
X49500000Y-102342013D01*
X47229692Y-102342013D01*
X47228998Y-101614000D01*
X54857391Y-101614000D01*
X55818314Y-101614000D01*
X55813920Y-101618394D01*
X55761259Y-101709606D01*
X55734000Y-101811339D01*
X55734000Y-101916661D01*
X55761259Y-102018394D01*
X55813920Y-102109606D01*
X55818314Y-102114000D01*
X54857391Y-102114000D01*
X54866009Y-102168413D01*
X54929244Y-102363029D01*
X55022140Y-102545349D01*
X55142417Y-102710894D01*
X55142417Y-102710895D01*
X55287104Y-102855582D01*
X55452650Y-102975859D01*
X55634968Y-103068754D01*
X55829578Y-103131988D01*
X55884000Y-103140607D01*
X55884000Y-102179686D01*
X55888394Y-102184080D01*
X55979606Y-102236741D01*
X56081339Y-102264000D01*
X56186661Y-102264000D01*
X56288394Y-102236741D01*
X56379606Y-102184080D01*
X56384000Y-102179686D01*
X56384000Y-103140606D01*
X56438421Y-103131988D01*
X56633031Y-103068754D01*
X56815349Y-102975859D01*
X56980894Y-102855582D01*
X56980895Y-102855582D01*
X57125582Y-102710895D01*
X57125582Y-102710894D01*
X57245861Y-102545347D01*
X57293234Y-102452371D01*
X57341208Y-102401575D01*
X57409028Y-102384779D01*
X57475164Y-102407316D01*
X57514203Y-102452369D01*
X57561713Y-102545611D01*
X57682028Y-102711213D01*
X57826786Y-102855971D01*
X57981749Y-102968556D01*
X57992390Y-102976287D01*
X58108607Y-103035503D01*
X58174776Y-103069218D01*
X58174778Y-103069218D01*
X58174781Y-103069220D01*
X58279137Y-103103127D01*
X58369465Y-103132477D01*
X58470557Y-103148488D01*
X58571648Y-103164500D01*
X58571649Y-103164500D01*
X58776351Y-103164500D01*
X58776352Y-103164500D01*
X58978534Y-103132477D01*
X59173219Y-103069220D01*
X59355610Y-102976287D01*
X59451901Y-102906328D01*
X59521213Y-102855971D01*
X59521215Y-102855968D01*
X59521219Y-102855966D01*
X59665966Y-102711219D01*
X59665968Y-102711215D01*
X59665971Y-102711213D01*
X59786284Y-102545614D01*
X59786286Y-102545611D01*
X59786287Y-102545610D01*
X59833516Y-102452917D01*
X59881489Y-102402123D01*
X59949310Y-102385328D01*
X60015445Y-102407865D01*
X60054485Y-102452919D01*
X60101715Y-102545614D01*
X60222028Y-102711213D01*
X60366786Y-102855971D01*
X60521749Y-102968556D01*
X60532390Y-102976287D01*
X60648607Y-103035503D01*
X60714776Y-103069218D01*
X60714778Y-103069218D01*
X60714781Y-103069220D01*
X60819137Y-103103127D01*
X60909465Y-103132477D01*
X61010557Y-103148488D01*
X61111648Y-103164500D01*
X61111649Y-103164500D01*
X61316351Y-103164500D01*
X61316352Y-103164500D01*
X61518534Y-103132477D01*
X61713219Y-103069220D01*
X61895610Y-102976287D01*
X61991901Y-102906328D01*
X62061213Y-102855971D01*
X62061215Y-102855968D01*
X62061219Y-102855966D01*
X62205966Y-102711219D01*
X62205968Y-102711215D01*
X62205971Y-102711213D01*
X62326284Y-102545614D01*
X62326286Y-102545611D01*
X62326287Y-102545610D01*
X62373516Y-102452917D01*
X62421489Y-102402123D01*
X62489310Y-102385328D01*
X62555445Y-102407865D01*
X62594485Y-102452919D01*
X62641715Y-102545614D01*
X62762028Y-102711213D01*
X62906786Y-102855971D01*
X63061749Y-102968556D01*
X63072390Y-102976287D01*
X63188607Y-103035503D01*
X63254776Y-103069218D01*
X63254778Y-103069218D01*
X63254781Y-103069220D01*
X63359137Y-103103127D01*
X63449465Y-103132477D01*
X63550557Y-103148488D01*
X63651648Y-103164500D01*
X63651649Y-103164500D01*
X63856351Y-103164500D01*
X63856352Y-103164500D01*
X64058534Y-103132477D01*
X64253219Y-103069220D01*
X64435610Y-102976287D01*
X64531901Y-102906328D01*
X64601213Y-102855971D01*
X64601215Y-102855968D01*
X64601219Y-102855966D01*
X64745966Y-102711219D01*
X64745968Y-102711215D01*
X64745971Y-102711213D01*
X64866284Y-102545614D01*
X64866286Y-102545611D01*
X64866287Y-102545610D01*
X64913516Y-102452917D01*
X64961489Y-102402123D01*
X65029310Y-102385328D01*
X65095445Y-102407865D01*
X65134485Y-102452919D01*
X65181715Y-102545614D01*
X65302028Y-102711213D01*
X65446786Y-102855971D01*
X65601749Y-102968556D01*
X65612390Y-102976287D01*
X65728607Y-103035503D01*
X65794776Y-103069218D01*
X65794778Y-103069218D01*
X65794781Y-103069220D01*
X65899137Y-103103127D01*
X65989465Y-103132477D01*
X66090557Y-103148488D01*
X66191648Y-103164500D01*
X66191649Y-103164500D01*
X66396351Y-103164500D01*
X66396352Y-103164500D01*
X66598534Y-103132477D01*
X66793219Y-103069220D01*
X66975610Y-102976287D01*
X67071901Y-102906328D01*
X67141213Y-102855971D01*
X67141215Y-102855968D01*
X67141219Y-102855966D01*
X67285966Y-102711219D01*
X67285968Y-102711215D01*
X67285971Y-102711213D01*
X67406284Y-102545614D01*
X67406286Y-102545611D01*
X67406287Y-102545610D01*
X67453516Y-102452917D01*
X67501489Y-102402123D01*
X67569310Y-102385328D01*
X67635445Y-102407865D01*
X67674485Y-102452919D01*
X67721715Y-102545614D01*
X67842028Y-102711213D01*
X67986786Y-102855971D01*
X68141749Y-102968556D01*
X68152390Y-102976287D01*
X68268607Y-103035503D01*
X68334776Y-103069218D01*
X68334778Y-103069218D01*
X68334781Y-103069220D01*
X68439137Y-103103127D01*
X68529465Y-103132477D01*
X68630557Y-103148488D01*
X68731648Y-103164500D01*
X68731649Y-103164500D01*
X68936351Y-103164500D01*
X68936352Y-103164500D01*
X69138534Y-103132477D01*
X69333219Y-103069220D01*
X69515610Y-102976287D01*
X69611901Y-102906328D01*
X69681213Y-102855971D01*
X69681215Y-102855968D01*
X69681219Y-102855966D01*
X69825966Y-102711219D01*
X69825968Y-102711215D01*
X69825971Y-102711213D01*
X69946284Y-102545614D01*
X69946286Y-102545611D01*
X69946287Y-102545610D01*
X69993516Y-102452917D01*
X70041489Y-102402123D01*
X70109310Y-102385328D01*
X70175445Y-102407865D01*
X70214485Y-102452919D01*
X70261715Y-102545614D01*
X70382028Y-102711213D01*
X70526786Y-102855971D01*
X70681749Y-102968556D01*
X70692390Y-102976287D01*
X70808607Y-103035503D01*
X70874776Y-103069218D01*
X70874778Y-103069218D01*
X70874781Y-103069220D01*
X70979137Y-103103127D01*
X71069465Y-103132477D01*
X71170557Y-103148488D01*
X71271648Y-103164500D01*
X71271649Y-103164500D01*
X71476351Y-103164500D01*
X71476352Y-103164500D01*
X71678534Y-103132477D01*
X71873219Y-103069220D01*
X72055610Y-102976287D01*
X72151901Y-102906328D01*
X72221213Y-102855971D01*
X72221215Y-102855968D01*
X72221219Y-102855966D01*
X72365966Y-102711219D01*
X72392330Y-102674930D01*
X72447658Y-102632265D01*
X72517271Y-102626284D01*
X72579067Y-102658889D01*
X72613426Y-102719726D01*
X72615938Y-102734559D01*
X72619907Y-102771480D01*
X72670202Y-102906328D01*
X72670206Y-102906335D01*
X72756452Y-103021544D01*
X72756455Y-103021547D01*
X72871664Y-103107793D01*
X72871671Y-103107797D01*
X73006517Y-103158091D01*
X73006516Y-103158091D01*
X73013444Y-103158835D01*
X73066127Y-103164500D01*
X74761872Y-103164499D01*
X74821483Y-103158091D01*
X74956331Y-103107796D01*
X75071546Y-103021546D01*
X75157796Y-102906331D01*
X75208091Y-102771483D01*
X75214500Y-102711873D01*
X75214499Y-101016128D01*
X75208091Y-100956517D01*
X75157796Y-100821669D01*
X75157795Y-100821668D01*
X75157793Y-100821664D01*
X75071547Y-100706455D01*
X75071544Y-100706452D01*
X74956335Y-100620206D01*
X74956328Y-100620202D01*
X74821482Y-100569908D01*
X74821483Y-100569908D01*
X74761883Y-100563501D01*
X74761881Y-100563500D01*
X74761873Y-100563500D01*
X74761864Y-100563500D01*
X73066129Y-100563500D01*
X73066123Y-100563501D01*
X73006516Y-100569908D01*
X72871671Y-100620202D01*
X72871664Y-100620206D01*
X72756455Y-100706452D01*
X72756452Y-100706455D01*
X72670206Y-100821664D01*
X72670202Y-100821671D01*
X72619908Y-100956516D01*
X72615939Y-100993440D01*
X72589201Y-101057991D01*
X72531809Y-101097839D01*
X72461983Y-101100332D01*
X72401895Y-101064679D01*
X72392332Y-101053070D01*
X72365967Y-101016782D01*
X72221213Y-100872028D01*
X72055613Y-100751715D01*
X72055612Y-100751714D01*
X72055610Y-100751713D01*
X71998653Y-100722691D01*
X71873223Y-100658781D01*
X71678534Y-100595522D01*
X71503995Y-100567878D01*
X71476352Y-100563500D01*
X71271648Y-100563500D01*
X71247329Y-100567351D01*
X71069465Y-100595522D01*
X70874776Y-100658781D01*
X70692386Y-100751715D01*
X70526786Y-100872028D01*
X70382028Y-101016786D01*
X70261715Y-101182386D01*
X70214485Y-101275080D01*
X70166510Y-101325876D01*
X70098689Y-101342671D01*
X70032554Y-101320134D01*
X69993515Y-101275080D01*
X69946419Y-101182650D01*
X69946287Y-101182390D01*
X69884858Y-101097839D01*
X69825971Y-101016786D01*
X69681213Y-100872028D01*
X69515613Y-100751715D01*
X69515612Y-100751714D01*
X69515610Y-100751713D01*
X69458653Y-100722691D01*
X69333223Y-100658781D01*
X69138534Y-100595522D01*
X68963995Y-100567878D01*
X68936352Y-100563500D01*
X68731648Y-100563500D01*
X68707329Y-100567351D01*
X68529465Y-100595522D01*
X68334776Y-100658781D01*
X68152386Y-100751715D01*
X67986786Y-100872028D01*
X67842028Y-101016786D01*
X67721715Y-101182386D01*
X67674485Y-101275080D01*
X67626510Y-101325876D01*
X67558689Y-101342671D01*
X67492554Y-101320134D01*
X67453515Y-101275080D01*
X67406419Y-101182650D01*
X67406287Y-101182390D01*
X67344858Y-101097839D01*
X67285971Y-101016786D01*
X67141213Y-100872028D01*
X66975613Y-100751715D01*
X66975612Y-100751714D01*
X66975610Y-100751713D01*
X66918653Y-100722691D01*
X66793223Y-100658781D01*
X66598534Y-100595522D01*
X66423995Y-100567878D01*
X66396352Y-100563500D01*
X66191648Y-100563500D01*
X66167329Y-100567351D01*
X65989465Y-100595522D01*
X65794776Y-100658781D01*
X65612386Y-100751715D01*
X65446786Y-100872028D01*
X65302028Y-101016786D01*
X65181715Y-101182386D01*
X65134485Y-101275080D01*
X65086510Y-101325876D01*
X65018689Y-101342671D01*
X64952554Y-101320134D01*
X64913515Y-101275080D01*
X64866419Y-101182650D01*
X64866287Y-101182390D01*
X64804858Y-101097839D01*
X64745971Y-101016786D01*
X64601213Y-100872028D01*
X64435613Y-100751715D01*
X64435612Y-100751714D01*
X64435610Y-100751713D01*
X64378653Y-100722691D01*
X64253223Y-100658781D01*
X64058534Y-100595522D01*
X63883995Y-100567878D01*
X63856352Y-100563500D01*
X63651648Y-100563500D01*
X63627329Y-100567351D01*
X63449465Y-100595522D01*
X63254776Y-100658781D01*
X63072386Y-100751715D01*
X62906786Y-100872028D01*
X62762028Y-101016786D01*
X62641715Y-101182386D01*
X62594485Y-101275080D01*
X62546510Y-101325876D01*
X62478689Y-101342671D01*
X62412554Y-101320134D01*
X62373515Y-101275080D01*
X62326419Y-101182650D01*
X62326287Y-101182390D01*
X62264858Y-101097839D01*
X62205971Y-101016786D01*
X62061213Y-100872028D01*
X61895613Y-100751715D01*
X61895612Y-100751714D01*
X61895610Y-100751713D01*
X61838653Y-100722691D01*
X61713223Y-100658781D01*
X61518534Y-100595522D01*
X61343995Y-100567878D01*
X61316352Y-100563500D01*
X61111648Y-100563500D01*
X61087329Y-100567351D01*
X60909465Y-100595522D01*
X60714776Y-100658781D01*
X60532386Y-100751715D01*
X60366786Y-100872028D01*
X60222028Y-101016786D01*
X60101715Y-101182386D01*
X60054485Y-101275080D01*
X60006510Y-101325876D01*
X59938689Y-101342671D01*
X59872554Y-101320134D01*
X59833515Y-101275080D01*
X59786419Y-101182650D01*
X59786287Y-101182390D01*
X59724858Y-101097839D01*
X59665971Y-101016786D01*
X59521213Y-100872028D01*
X59355613Y-100751715D01*
X59355612Y-100751714D01*
X59355610Y-100751713D01*
X59298653Y-100722691D01*
X59173223Y-100658781D01*
X58978534Y-100595522D01*
X58803995Y-100567878D01*
X58776352Y-100563500D01*
X58571648Y-100563500D01*
X58547329Y-100567351D01*
X58369465Y-100595522D01*
X58174776Y-100658781D01*
X57992386Y-100751715D01*
X57826786Y-100872028D01*
X57682028Y-101016786D01*
X57561713Y-101182388D01*
X57514203Y-101275630D01*
X57466228Y-101326426D01*
X57398407Y-101343220D01*
X57332272Y-101320682D01*
X57293234Y-101275628D01*
X57245861Y-101182652D01*
X57125582Y-101017105D01*
X57125582Y-101017104D01*
X56980895Y-100872417D01*
X56815349Y-100752140D01*
X56633029Y-100659244D01*
X56438413Y-100596009D01*
X56384000Y-100587390D01*
X56384000Y-101548314D01*
X56379606Y-101543920D01*
X56288394Y-101491259D01*
X56186661Y-101464000D01*
X56081339Y-101464000D01*
X55979606Y-101491259D01*
X55888394Y-101543920D01*
X55884000Y-101548314D01*
X55884000Y-100587390D01*
X55829586Y-100596009D01*
X55634970Y-100659244D01*
X55452650Y-100752140D01*
X55287105Y-100872417D01*
X55287104Y-100872417D01*
X55142417Y-101017104D01*
X55142417Y-101017105D01*
X55022140Y-101182650D01*
X54929244Y-101364970D01*
X54866009Y-101559586D01*
X54857391Y-101614000D01*
X47228998Y-101614000D01*
X47224353Y-96741983D01*
X49499500Y-96741983D01*
X49499500Y-99842001D01*
X49499501Y-99842018D01*
X49510000Y-99944796D01*
X49510001Y-99944799D01*
X49565185Y-100111331D01*
X49565186Y-100111334D01*
X49657288Y-100260656D01*
X49781344Y-100384712D01*
X49930666Y-100476814D01*
X50097203Y-100531999D01*
X50199991Y-100542500D01*
X51400008Y-100542499D01*
X51502797Y-100531999D01*
X51669334Y-100476814D01*
X51818656Y-100384712D01*
X51942712Y-100260656D01*
X52034814Y-100111334D01*
X52089999Y-99944797D01*
X52100500Y-99842009D01*
X52100499Y-98205648D01*
X54833500Y-98205648D01*
X54833500Y-98410351D01*
X54865522Y-98612534D01*
X54928781Y-98807223D01*
X55021715Y-98989613D01*
X55142028Y-99155213D01*
X55286786Y-99299971D01*
X55441749Y-99412556D01*
X55452390Y-99420287D01*
X55568607Y-99479503D01*
X55634776Y-99513218D01*
X55634778Y-99513218D01*
X55634781Y-99513220D01*
X55706605Y-99536557D01*
X55829465Y-99576477D01*
X55930557Y-99592488D01*
X56031648Y-99608500D01*
X56031649Y-99608500D01*
X56236351Y-99608500D01*
X56236352Y-99608500D01*
X56438534Y-99576477D01*
X56633219Y-99513220D01*
X56815610Y-99420287D01*
X56908590Y-99352732D01*
X56981213Y-99299971D01*
X56981215Y-99299968D01*
X56981219Y-99299966D01*
X57125966Y-99155219D01*
X57125968Y-99155215D01*
X57125971Y-99155213D01*
X57246284Y-98989614D01*
X57246285Y-98989613D01*
X57246287Y-98989610D01*
X57293516Y-98896917D01*
X57341489Y-98846123D01*
X57409310Y-98829328D01*
X57475445Y-98851865D01*
X57514483Y-98896917D01*
X57555278Y-98976980D01*
X57561715Y-98989614D01*
X57682028Y-99155213D01*
X57826786Y-99299971D01*
X57981749Y-99412556D01*
X57992390Y-99420287D01*
X58108607Y-99479503D01*
X58174776Y-99513218D01*
X58174778Y-99513218D01*
X58174781Y-99513220D01*
X58246605Y-99536557D01*
X58369465Y-99576477D01*
X58470557Y-99592488D01*
X58571648Y-99608500D01*
X58571649Y-99608500D01*
X58776351Y-99608500D01*
X58776352Y-99608500D01*
X58978534Y-99576477D01*
X59173219Y-99513220D01*
X59355610Y-99420287D01*
X59448590Y-99352732D01*
X59521213Y-99299971D01*
X59521215Y-99299968D01*
X59521219Y-99299966D01*
X59665966Y-99155219D01*
X59665968Y-99155215D01*
X59665971Y-99155213D01*
X59786284Y-98989614D01*
X59786285Y-98989613D01*
X59786287Y-98989610D01*
X59833516Y-98896917D01*
X59881489Y-98846123D01*
X59949310Y-98829328D01*
X60015445Y-98851865D01*
X60054483Y-98896917D01*
X60095278Y-98976980D01*
X60101715Y-98989614D01*
X60222028Y-99155213D01*
X60366786Y-99299971D01*
X60521749Y-99412556D01*
X60532390Y-99420287D01*
X60648607Y-99479503D01*
X60714776Y-99513218D01*
X60714778Y-99513218D01*
X60714781Y-99513220D01*
X60786605Y-99536557D01*
X60909465Y-99576477D01*
X61010557Y-99592488D01*
X61111648Y-99608500D01*
X61111649Y-99608500D01*
X61316351Y-99608500D01*
X61316352Y-99608500D01*
X61518534Y-99576477D01*
X61713219Y-99513220D01*
X61895610Y-99420287D01*
X61988590Y-99352732D01*
X62061213Y-99299971D01*
X62061215Y-99299968D01*
X62061219Y-99299966D01*
X62205966Y-99155219D01*
X62205968Y-99155215D01*
X62205971Y-99155213D01*
X62326284Y-98989614D01*
X62326285Y-98989613D01*
X62326287Y-98989610D01*
X62373516Y-98896917D01*
X62421489Y-98846123D01*
X62489310Y-98829328D01*
X62555445Y-98851865D01*
X62594483Y-98896917D01*
X62635278Y-98976980D01*
X62641715Y-98989614D01*
X62762028Y-99155213D01*
X62906786Y-99299971D01*
X63061749Y-99412556D01*
X63072390Y-99420287D01*
X63188607Y-99479503D01*
X63254776Y-99513218D01*
X63254778Y-99513218D01*
X63254781Y-99513220D01*
X63326605Y-99536557D01*
X63449465Y-99576477D01*
X63550557Y-99592488D01*
X63651648Y-99608500D01*
X63651649Y-99608500D01*
X63856351Y-99608500D01*
X63856352Y-99608500D01*
X64058534Y-99576477D01*
X64253219Y-99513220D01*
X64435610Y-99420287D01*
X64528590Y-99352732D01*
X64601213Y-99299971D01*
X64601215Y-99299968D01*
X64601219Y-99299966D01*
X64745966Y-99155219D01*
X64745968Y-99155215D01*
X64745971Y-99155213D01*
X64866284Y-98989614D01*
X64866285Y-98989613D01*
X64866287Y-98989610D01*
X64913516Y-98896917D01*
X64961489Y-98846123D01*
X65029310Y-98829328D01*
X65095445Y-98851865D01*
X65134483Y-98896917D01*
X65175278Y-98976980D01*
X65181715Y-98989614D01*
X65302028Y-99155213D01*
X65446786Y-99299971D01*
X65601749Y-99412556D01*
X65612390Y-99420287D01*
X65728607Y-99479503D01*
X65794776Y-99513218D01*
X65794778Y-99513218D01*
X65794781Y-99513220D01*
X65866605Y-99536557D01*
X65989465Y-99576477D01*
X66090557Y-99592488D01*
X66191648Y-99608500D01*
X66191649Y-99608500D01*
X66396351Y-99608500D01*
X66396352Y-99608500D01*
X66598534Y-99576477D01*
X66793219Y-99513220D01*
X66975610Y-99420287D01*
X67068590Y-99352732D01*
X67141213Y-99299971D01*
X67141215Y-99299968D01*
X67141219Y-99299966D01*
X67285966Y-99155219D01*
X67285968Y-99155215D01*
X67285971Y-99155213D01*
X67406284Y-98989614D01*
X67406285Y-98989613D01*
X67406287Y-98989610D01*
X67453516Y-98896917D01*
X67501489Y-98846123D01*
X67569310Y-98829328D01*
X67635445Y-98851865D01*
X67674483Y-98896917D01*
X67715278Y-98976980D01*
X67721715Y-98989614D01*
X67842028Y-99155213D01*
X67986786Y-99299971D01*
X68141749Y-99412556D01*
X68152390Y-99420287D01*
X68268607Y-99479503D01*
X68334776Y-99513218D01*
X68334778Y-99513218D01*
X68334781Y-99513220D01*
X68406605Y-99536557D01*
X68529465Y-99576477D01*
X68630557Y-99592488D01*
X68731648Y-99608500D01*
X68731649Y-99608500D01*
X68936351Y-99608500D01*
X68936352Y-99608500D01*
X69138534Y-99576477D01*
X69333219Y-99513220D01*
X69515610Y-99420287D01*
X69608590Y-99352732D01*
X69681213Y-99299971D01*
X69681215Y-99299968D01*
X69681219Y-99299966D01*
X69825966Y-99155219D01*
X69825968Y-99155215D01*
X69825971Y-99155213D01*
X69946284Y-98989614D01*
X69946285Y-98989613D01*
X69946287Y-98989610D01*
X69993516Y-98896917D01*
X70041489Y-98846123D01*
X70109310Y-98829328D01*
X70175445Y-98851865D01*
X70214483Y-98896917D01*
X70255278Y-98976980D01*
X70261715Y-98989614D01*
X70382028Y-99155213D01*
X70526786Y-99299971D01*
X70681749Y-99412556D01*
X70692390Y-99420287D01*
X70808607Y-99479503D01*
X70874776Y-99513218D01*
X70874778Y-99513218D01*
X70874781Y-99513220D01*
X70946605Y-99536557D01*
X71069465Y-99576477D01*
X71170557Y-99592488D01*
X71271648Y-99608500D01*
X71271649Y-99608500D01*
X71476351Y-99608500D01*
X71476352Y-99608500D01*
X71678534Y-99576477D01*
X71873219Y-99513220D01*
X72055610Y-99420287D01*
X72148590Y-99352732D01*
X72221213Y-99299971D01*
X72221215Y-99299968D01*
X72221219Y-99299966D01*
X72365966Y-99155219D01*
X72365968Y-99155215D01*
X72365971Y-99155213D01*
X72486284Y-98989614D01*
X72486285Y-98989613D01*
X72486287Y-98989610D01*
X72533516Y-98896917D01*
X72581489Y-98846123D01*
X72649310Y-98829328D01*
X72715445Y-98851865D01*
X72754483Y-98896917D01*
X72795278Y-98976980D01*
X72801715Y-98989614D01*
X72922028Y-99155213D01*
X73066786Y-99299971D01*
X73221749Y-99412556D01*
X73232390Y-99420287D01*
X73348607Y-99479503D01*
X73414776Y-99513218D01*
X73414778Y-99513218D01*
X73414781Y-99513220D01*
X73486605Y-99536557D01*
X73609465Y-99576477D01*
X73710557Y-99592488D01*
X73811648Y-99608500D01*
X73811649Y-99608500D01*
X74016351Y-99608500D01*
X74016352Y-99608500D01*
X74218534Y-99576477D01*
X74413219Y-99513220D01*
X74595610Y-99420287D01*
X74688590Y-99352732D01*
X74761213Y-99299971D01*
X74761215Y-99299968D01*
X74761219Y-99299966D01*
X74905966Y-99155219D01*
X74905968Y-99155215D01*
X74905971Y-99155213D01*
X74958732Y-99082590D01*
X75026287Y-98989610D01*
X75119220Y-98807219D01*
X75182477Y-98612534D01*
X75214500Y-98410352D01*
X75214500Y-98205648D01*
X75182477Y-98003466D01*
X75182476Y-98003462D01*
X75182476Y-98003461D01*
X75156382Y-97923152D01*
X75144955Y-97887983D01*
X77135500Y-97887983D01*
X77135500Y-99088001D01*
X77135501Y-99088018D01*
X77146000Y-99190796D01*
X77146001Y-99190799D01*
X77182176Y-99299966D01*
X77201186Y-99357334D01*
X77293288Y-99506656D01*
X77417344Y-99630712D01*
X77566666Y-99722814D01*
X77733203Y-99777999D01*
X77835991Y-99788500D01*
X80936008Y-99788499D01*
X81038797Y-99777999D01*
X81205334Y-99722814D01*
X81354656Y-99630712D01*
X81478712Y-99506656D01*
X81570814Y-99357334D01*
X81625999Y-99190797D01*
X81636500Y-99088009D01*
X81636499Y-97887992D01*
X81625999Y-97785203D01*
X81570814Y-97618666D01*
X81478712Y-97469344D01*
X81354656Y-97345288D01*
X81205334Y-97253186D01*
X81038797Y-97198001D01*
X81038795Y-97198000D01*
X80936010Y-97187500D01*
X77835998Y-97187500D01*
X77835981Y-97187501D01*
X77733203Y-97198000D01*
X77733200Y-97198001D01*
X77566668Y-97253185D01*
X77566663Y-97253187D01*
X77417342Y-97345289D01*
X77293289Y-97469342D01*
X77201187Y-97618663D01*
X77201185Y-97618668D01*
X77173349Y-97702670D01*
X77146001Y-97785203D01*
X77146001Y-97785204D01*
X77146000Y-97785204D01*
X77135500Y-97887983D01*
X75144955Y-97887983D01*
X75119218Y-97808776D01*
X75073515Y-97719080D01*
X75026287Y-97626390D01*
X75018556Y-97615749D01*
X74905971Y-97460786D01*
X74761213Y-97316028D01*
X74595613Y-97195715D01*
X74595612Y-97195714D01*
X74595610Y-97195713D01*
X74538653Y-97166691D01*
X74413223Y-97102781D01*
X74218534Y-97039522D01*
X74043995Y-97011878D01*
X74016352Y-97007500D01*
X73811648Y-97007500D01*
X73787329Y-97011351D01*
X73609465Y-97039522D01*
X73414776Y-97102781D01*
X73232386Y-97195715D01*
X73066786Y-97316028D01*
X72922028Y-97460786D01*
X72801715Y-97626386D01*
X72754485Y-97719080D01*
X72706510Y-97769876D01*
X72638689Y-97786671D01*
X72572554Y-97764134D01*
X72533515Y-97719080D01*
X72532883Y-97717840D01*
X72486287Y-97626390D01*
X72478556Y-97615749D01*
X72365971Y-97460786D01*
X72221213Y-97316028D01*
X72055613Y-97195715D01*
X72055612Y-97195714D01*
X72055610Y-97195713D01*
X71998653Y-97166691D01*
X71873223Y-97102781D01*
X71678534Y-97039522D01*
X71503995Y-97011878D01*
X71476352Y-97007500D01*
X71271648Y-97007500D01*
X71247329Y-97011351D01*
X71069465Y-97039522D01*
X70874776Y-97102781D01*
X70692386Y-97195715D01*
X70526786Y-97316028D01*
X70382028Y-97460786D01*
X70261715Y-97626386D01*
X70214485Y-97719080D01*
X70166510Y-97769876D01*
X70098689Y-97786671D01*
X70032554Y-97764134D01*
X69993515Y-97719080D01*
X69992883Y-97717840D01*
X69946287Y-97626390D01*
X69938556Y-97615749D01*
X69825971Y-97460786D01*
X69681213Y-97316028D01*
X69515613Y-97195715D01*
X69515612Y-97195714D01*
X69515610Y-97195713D01*
X69458653Y-97166691D01*
X69333223Y-97102781D01*
X69138534Y-97039522D01*
X68963995Y-97011878D01*
X68936352Y-97007500D01*
X68731648Y-97007500D01*
X68707329Y-97011351D01*
X68529465Y-97039522D01*
X68334776Y-97102781D01*
X68152386Y-97195715D01*
X67986786Y-97316028D01*
X67842028Y-97460786D01*
X67721715Y-97626386D01*
X67674485Y-97719080D01*
X67626510Y-97769876D01*
X67558689Y-97786671D01*
X67492554Y-97764134D01*
X67453515Y-97719080D01*
X67452883Y-97717840D01*
X67406287Y-97626390D01*
X67398556Y-97615749D01*
X67285971Y-97460786D01*
X67141213Y-97316028D01*
X66975613Y-97195715D01*
X66975612Y-97195714D01*
X66975610Y-97195713D01*
X66918653Y-97166691D01*
X66793223Y-97102781D01*
X66598534Y-97039522D01*
X66423995Y-97011878D01*
X66396352Y-97007500D01*
X66191648Y-97007500D01*
X66167329Y-97011351D01*
X65989465Y-97039522D01*
X65794776Y-97102781D01*
X65612386Y-97195715D01*
X65446786Y-97316028D01*
X65302028Y-97460786D01*
X65181715Y-97626386D01*
X65134485Y-97719080D01*
X65086510Y-97769876D01*
X65018689Y-97786671D01*
X64952554Y-97764134D01*
X64913515Y-97719080D01*
X64912883Y-97717840D01*
X64866287Y-97626390D01*
X64858556Y-97615749D01*
X64745971Y-97460786D01*
X64601213Y-97316028D01*
X64435613Y-97195715D01*
X64435612Y-97195714D01*
X64435610Y-97195713D01*
X64378653Y-97166691D01*
X64253223Y-97102781D01*
X64058534Y-97039522D01*
X63883995Y-97011878D01*
X63856352Y-97007500D01*
X63651648Y-97007500D01*
X63627329Y-97011351D01*
X63449465Y-97039522D01*
X63254776Y-97102781D01*
X63072386Y-97195715D01*
X62906786Y-97316028D01*
X62762028Y-97460786D01*
X62641715Y-97626386D01*
X62594485Y-97719080D01*
X62546510Y-97769876D01*
X62478689Y-97786671D01*
X62412554Y-97764134D01*
X62373515Y-97719080D01*
X62372883Y-97717840D01*
X62326287Y-97626390D01*
X62318556Y-97615749D01*
X62205971Y-97460786D01*
X62061213Y-97316028D01*
X61895613Y-97195715D01*
X61895612Y-97195714D01*
X61895610Y-97195713D01*
X61838653Y-97166691D01*
X61713223Y-97102781D01*
X61518534Y-97039522D01*
X61343995Y-97011878D01*
X61316352Y-97007500D01*
X61111648Y-97007500D01*
X61087329Y-97011351D01*
X60909465Y-97039522D01*
X60714776Y-97102781D01*
X60532386Y-97195715D01*
X60366786Y-97316028D01*
X60222028Y-97460786D01*
X60101715Y-97626386D01*
X60054485Y-97719080D01*
X60006510Y-97769876D01*
X59938689Y-97786671D01*
X59872554Y-97764134D01*
X59833515Y-97719080D01*
X59832883Y-97717840D01*
X59786287Y-97626390D01*
X59778556Y-97615749D01*
X59665971Y-97460786D01*
X59521213Y-97316028D01*
X59355613Y-97195715D01*
X59355612Y-97195714D01*
X59355610Y-97195713D01*
X59298653Y-97166691D01*
X59173223Y-97102781D01*
X58978534Y-97039522D01*
X58803995Y-97011878D01*
X58776352Y-97007500D01*
X58571648Y-97007500D01*
X58547329Y-97011351D01*
X58369465Y-97039522D01*
X58174776Y-97102781D01*
X57992386Y-97195715D01*
X57826786Y-97316028D01*
X57682028Y-97460786D01*
X57561715Y-97626386D01*
X57514485Y-97719080D01*
X57466510Y-97769876D01*
X57398689Y-97786671D01*
X57332554Y-97764134D01*
X57293515Y-97719080D01*
X57292883Y-97717840D01*
X57246287Y-97626390D01*
X57238556Y-97615749D01*
X57125971Y-97460786D01*
X56981213Y-97316028D01*
X56815613Y-97195715D01*
X56815612Y-97195714D01*
X56815610Y-97195713D01*
X56758653Y-97166691D01*
X56633223Y-97102781D01*
X56438534Y-97039522D01*
X56263995Y-97011878D01*
X56236352Y-97007500D01*
X56031648Y-97007500D01*
X56007329Y-97011351D01*
X55829465Y-97039522D01*
X55634776Y-97102781D01*
X55452386Y-97195715D01*
X55286786Y-97316028D01*
X55142028Y-97460786D01*
X55021715Y-97626386D01*
X54928781Y-97808776D01*
X54865522Y-98003465D01*
X54833500Y-98205648D01*
X52100499Y-98205648D01*
X52100499Y-96741992D01*
X52089999Y-96639203D01*
X52034814Y-96472666D01*
X51942712Y-96323344D01*
X51818656Y-96199288D01*
X51669334Y-96107186D01*
X51502797Y-96052001D01*
X51502795Y-96052000D01*
X51400010Y-96041500D01*
X50199998Y-96041500D01*
X50199981Y-96041501D01*
X50097203Y-96052000D01*
X50097200Y-96052001D01*
X49930668Y-96107185D01*
X49930663Y-96107187D01*
X49781342Y-96199289D01*
X49657289Y-96323342D01*
X49565187Y-96472663D01*
X49565186Y-96472666D01*
X49510001Y-96639203D01*
X49510001Y-96639204D01*
X49510000Y-96639204D01*
X49499500Y-96741983D01*
X47224353Y-96741983D01*
X47218068Y-90149983D01*
X49499500Y-90149983D01*
X49499500Y-93250001D01*
X49499501Y-93250018D01*
X49510000Y-93352796D01*
X49510001Y-93352799D01*
X49565185Y-93519331D01*
X49565186Y-93519334D01*
X49657288Y-93668656D01*
X49781344Y-93792712D01*
X49930666Y-93884814D01*
X50097203Y-93939999D01*
X50199991Y-93950500D01*
X51400008Y-93950499D01*
X51502797Y-93939999D01*
X51669334Y-93884814D01*
X51818656Y-93792712D01*
X51942712Y-93668656D01*
X52034814Y-93519334D01*
X52089999Y-93352797D01*
X52100500Y-93250009D01*
X52100499Y-90387983D01*
X77135500Y-90387983D01*
X77135500Y-91588001D01*
X77135501Y-91588018D01*
X77146000Y-91690796D01*
X77146001Y-91690799D01*
X77201185Y-91857331D01*
X77201187Y-91857336D01*
X77236069Y-91913888D01*
X77293288Y-92006656D01*
X77417344Y-92130712D01*
X77566666Y-92222814D01*
X77733203Y-92277999D01*
X77835991Y-92288500D01*
X80936008Y-92288499D01*
X81038797Y-92277999D01*
X81205334Y-92222814D01*
X81354656Y-92130712D01*
X81478712Y-92006656D01*
X81570814Y-91857334D01*
X81625999Y-91690797D01*
X81636500Y-91588009D01*
X81636500Y-91587986D01*
X82736001Y-91587986D01*
X82746494Y-91690697D01*
X82801641Y-91857119D01*
X82801643Y-91857124D01*
X82893684Y-92006345D01*
X83017654Y-92130315D01*
X83166875Y-92222356D01*
X83166880Y-92222358D01*
X83333302Y-92277505D01*
X83333309Y-92277506D01*
X83436019Y-92287999D01*
X84735999Y-92287999D01*
X84736000Y-92287998D01*
X84736000Y-91238000D01*
X82736001Y-91238000D01*
X82736001Y-91587986D01*
X81636500Y-91587986D01*
X81636499Y-90388013D01*
X82736000Y-90388013D01*
X82736000Y-90738000D01*
X84736000Y-90738000D01*
X84736000Y-89688000D01*
X83436028Y-89688000D01*
X83436012Y-89688001D01*
X83333302Y-89698494D01*
X83166880Y-89753641D01*
X83166875Y-89753643D01*
X83017654Y-89845684D01*
X82893684Y-89969654D01*
X82801643Y-90118875D01*
X82801641Y-90118880D01*
X82746494Y-90285302D01*
X82746493Y-90285309D01*
X82736000Y-90388013D01*
X81636499Y-90388013D01*
X81636499Y-90387992D01*
X81625999Y-90285203D01*
X81570814Y-90118666D01*
X81478712Y-89969344D01*
X81354656Y-89845288D01*
X81205334Y-89753186D01*
X81038797Y-89698001D01*
X81038795Y-89698000D01*
X80936010Y-89687500D01*
X77835998Y-89687500D01*
X77835981Y-89687501D01*
X77733203Y-89698000D01*
X77733200Y-89698001D01*
X77566668Y-89753185D01*
X77566663Y-89753187D01*
X77417342Y-89845289D01*
X77293289Y-89969342D01*
X77201187Y-90118663D01*
X77201185Y-90118668D01*
X77173349Y-90202670D01*
X77146001Y-90285203D01*
X77146001Y-90285204D01*
X77146000Y-90285204D01*
X77135500Y-90387983D01*
X52100499Y-90387983D01*
X52100499Y-90149992D01*
X52089999Y-90047203D01*
X52034814Y-89880666D01*
X51942712Y-89731344D01*
X51818656Y-89607288D01*
X51669334Y-89515186D01*
X51502797Y-89460001D01*
X51502795Y-89460000D01*
X51400010Y-89449500D01*
X50199998Y-89449500D01*
X50199981Y-89449501D01*
X50097203Y-89460000D01*
X50097200Y-89460001D01*
X49930668Y-89515185D01*
X49930663Y-89515187D01*
X49781342Y-89607289D01*
X49657289Y-89731342D01*
X49565187Y-89880663D01*
X49565186Y-89880666D01*
X49510001Y-90047203D01*
X49510001Y-90047204D01*
X49510000Y-90047204D01*
X49499500Y-90149983D01*
X47218068Y-90149983D01*
X47215685Y-87649986D01*
X49500001Y-87649986D01*
X49510494Y-87752697D01*
X49565641Y-87919119D01*
X49565643Y-87919124D01*
X49657684Y-88068345D01*
X49781654Y-88192315D01*
X49930875Y-88284356D01*
X49930880Y-88284358D01*
X50097302Y-88339505D01*
X50097309Y-88339506D01*
X50200019Y-88349999D01*
X50549999Y-88349999D01*
X51050000Y-88349999D01*
X51399972Y-88349999D01*
X51399986Y-88349998D01*
X51502697Y-88339505D01*
X51669119Y-88284358D01*
X51669124Y-88284356D01*
X51818345Y-88192315D01*
X51942315Y-88068345D01*
X52034356Y-87919124D01*
X52034358Y-87919119D01*
X52089505Y-87752697D01*
X52089506Y-87752690D01*
X52099999Y-87649986D01*
X52100000Y-87649973D01*
X52100000Y-86350000D01*
X51050000Y-86350000D01*
X51050000Y-88349999D01*
X50549999Y-88349999D01*
X50550000Y-88349998D01*
X50550000Y-86350000D01*
X49500001Y-86350000D01*
X49500001Y-87649986D01*
X47215685Y-87649986D01*
X47212729Y-84550013D01*
X49500000Y-84550013D01*
X49500000Y-85850000D01*
X50550000Y-85850000D01*
X51050000Y-85850000D01*
X52099999Y-85850000D01*
X52099999Y-85358000D01*
X54857391Y-85358000D01*
X55818314Y-85358000D01*
X55813920Y-85362394D01*
X55761259Y-85453606D01*
X55734000Y-85555339D01*
X55734000Y-85660661D01*
X55761259Y-85762394D01*
X55813920Y-85853606D01*
X55818314Y-85858000D01*
X54857391Y-85858000D01*
X54866009Y-85912413D01*
X54929244Y-86107029D01*
X55022140Y-86289349D01*
X55142417Y-86454894D01*
X55142417Y-86454895D01*
X55287104Y-86599582D01*
X55452650Y-86719859D01*
X55634968Y-86812754D01*
X55829578Y-86875988D01*
X55884000Y-86884607D01*
X55884000Y-85923686D01*
X55888394Y-85928080D01*
X55979606Y-85980741D01*
X56081339Y-86008000D01*
X56186661Y-86008000D01*
X56288394Y-85980741D01*
X56379606Y-85928080D01*
X56384000Y-85923686D01*
X56384000Y-86884606D01*
X56438421Y-86875988D01*
X56633031Y-86812754D01*
X56815349Y-86719859D01*
X56980894Y-86599582D01*
X56980895Y-86599582D01*
X57125582Y-86454895D01*
X57125582Y-86454894D01*
X57245861Y-86289347D01*
X57293234Y-86196371D01*
X57341208Y-86145575D01*
X57409028Y-86128779D01*
X57475164Y-86151316D01*
X57514203Y-86196369D01*
X57561713Y-86289611D01*
X57682028Y-86455213D01*
X57826786Y-86599971D01*
X57981749Y-86712556D01*
X57992390Y-86720287D01*
X58081212Y-86765544D01*
X58174776Y-86813218D01*
X58174778Y-86813218D01*
X58174781Y-86813220D01*
X58279137Y-86847127D01*
X58369465Y-86876477D01*
X58445375Y-86888500D01*
X58571648Y-86908500D01*
X58571649Y-86908500D01*
X58776351Y-86908500D01*
X58776352Y-86908500D01*
X58978534Y-86876477D01*
X59173219Y-86813220D01*
X59355610Y-86720287D01*
X59512010Y-86606657D01*
X59521213Y-86599971D01*
X59521215Y-86599968D01*
X59521219Y-86599966D01*
X59665966Y-86455219D01*
X59665968Y-86455215D01*
X59665971Y-86455213D01*
X59786284Y-86289614D01*
X59786286Y-86289611D01*
X59786287Y-86289610D01*
X59833516Y-86196917D01*
X59881489Y-86146123D01*
X59949310Y-86129328D01*
X60015445Y-86151865D01*
X60054485Y-86196919D01*
X60101715Y-86289614D01*
X60222028Y-86455213D01*
X60366786Y-86599971D01*
X60521749Y-86712556D01*
X60532390Y-86720287D01*
X60621212Y-86765544D01*
X60714776Y-86813218D01*
X60714778Y-86813218D01*
X60714781Y-86813220D01*
X60819137Y-86847127D01*
X60909465Y-86876477D01*
X60985375Y-86888500D01*
X61111648Y-86908500D01*
X61111649Y-86908500D01*
X61316351Y-86908500D01*
X61316352Y-86908500D01*
X61518534Y-86876477D01*
X61713219Y-86813220D01*
X61895610Y-86720287D01*
X62052010Y-86606657D01*
X62061213Y-86599971D01*
X62061215Y-86599968D01*
X62061219Y-86599966D01*
X62205966Y-86455219D01*
X62205968Y-86455215D01*
X62205971Y-86455213D01*
X62326284Y-86289614D01*
X62326286Y-86289611D01*
X62326287Y-86289610D01*
X62373516Y-86196917D01*
X62421489Y-86146123D01*
X62489310Y-86129328D01*
X62555445Y-86151865D01*
X62594485Y-86196919D01*
X62641715Y-86289614D01*
X62762028Y-86455213D01*
X62906786Y-86599971D01*
X63061749Y-86712556D01*
X63072390Y-86720287D01*
X63161212Y-86765544D01*
X63254776Y-86813218D01*
X63254778Y-86813218D01*
X63254781Y-86813220D01*
X63359137Y-86847127D01*
X63449465Y-86876477D01*
X63525375Y-86888500D01*
X63651648Y-86908500D01*
X63651649Y-86908500D01*
X63856351Y-86908500D01*
X63856352Y-86908500D01*
X64058534Y-86876477D01*
X64253219Y-86813220D01*
X64435610Y-86720287D01*
X64592010Y-86606657D01*
X64601213Y-86599971D01*
X64601215Y-86599968D01*
X64601219Y-86599966D01*
X64745966Y-86455219D01*
X64745968Y-86455215D01*
X64745971Y-86455213D01*
X64866284Y-86289614D01*
X64866286Y-86289611D01*
X64866287Y-86289610D01*
X64913516Y-86196917D01*
X64961489Y-86146123D01*
X65029310Y-86129328D01*
X65095445Y-86151865D01*
X65134485Y-86196919D01*
X65181715Y-86289614D01*
X65302028Y-86455213D01*
X65446786Y-86599971D01*
X65601749Y-86712556D01*
X65612390Y-86720287D01*
X65701212Y-86765544D01*
X65794776Y-86813218D01*
X65794778Y-86813218D01*
X65794781Y-86813220D01*
X65899137Y-86847127D01*
X65989465Y-86876477D01*
X66065375Y-86888500D01*
X66191648Y-86908500D01*
X66191649Y-86908500D01*
X66396351Y-86908500D01*
X66396352Y-86908500D01*
X66598534Y-86876477D01*
X66793219Y-86813220D01*
X66975610Y-86720287D01*
X67132010Y-86606657D01*
X67141213Y-86599971D01*
X67141215Y-86599968D01*
X67141219Y-86599966D01*
X67285966Y-86455219D01*
X67285968Y-86455215D01*
X67285971Y-86455213D01*
X67406284Y-86289614D01*
X67406286Y-86289611D01*
X67406287Y-86289610D01*
X67453516Y-86196917D01*
X67501489Y-86146123D01*
X67569310Y-86129328D01*
X67635445Y-86151865D01*
X67674485Y-86196919D01*
X67721715Y-86289614D01*
X67842028Y-86455213D01*
X67986786Y-86599971D01*
X68141749Y-86712556D01*
X68152390Y-86720287D01*
X68241212Y-86765544D01*
X68334776Y-86813218D01*
X68334778Y-86813218D01*
X68334781Y-86813220D01*
X68439137Y-86847127D01*
X68529465Y-86876477D01*
X68605375Y-86888500D01*
X68731648Y-86908500D01*
X68731649Y-86908500D01*
X68936351Y-86908500D01*
X68936352Y-86908500D01*
X69138534Y-86876477D01*
X69333219Y-86813220D01*
X69515610Y-86720287D01*
X69672010Y-86606657D01*
X69681213Y-86599971D01*
X69681215Y-86599968D01*
X69681219Y-86599966D01*
X69825966Y-86455219D01*
X69825968Y-86455215D01*
X69825971Y-86455213D01*
X69946284Y-86289614D01*
X69946286Y-86289611D01*
X69946287Y-86289610D01*
X69993516Y-86196917D01*
X70041489Y-86146123D01*
X70109310Y-86129328D01*
X70175445Y-86151865D01*
X70214485Y-86196919D01*
X70261715Y-86289614D01*
X70382028Y-86455213D01*
X70526786Y-86599971D01*
X70681749Y-86712556D01*
X70692390Y-86720287D01*
X70781212Y-86765544D01*
X70874776Y-86813218D01*
X70874778Y-86813218D01*
X70874781Y-86813220D01*
X70979137Y-86847127D01*
X71069465Y-86876477D01*
X71145375Y-86888500D01*
X71271648Y-86908500D01*
X71271649Y-86908500D01*
X71476351Y-86908500D01*
X71476352Y-86908500D01*
X71678534Y-86876477D01*
X71873219Y-86813220D01*
X72055610Y-86720287D01*
X72212010Y-86606657D01*
X72221213Y-86599971D01*
X72221215Y-86599968D01*
X72221219Y-86599966D01*
X72365966Y-86455219D01*
X72392330Y-86418930D01*
X72447658Y-86376265D01*
X72517271Y-86370284D01*
X72579067Y-86402889D01*
X72613426Y-86463726D01*
X72615938Y-86478559D01*
X72619907Y-86515480D01*
X72670202Y-86650328D01*
X72670206Y-86650335D01*
X72756452Y-86765544D01*
X72756455Y-86765547D01*
X72871664Y-86851793D01*
X72871671Y-86851797D01*
X73006517Y-86902091D01*
X73006516Y-86902091D01*
X73013444Y-86902835D01*
X73066127Y-86908500D01*
X74761872Y-86908499D01*
X74821483Y-86902091D01*
X74956331Y-86851796D01*
X75071546Y-86765546D01*
X75157796Y-86650331D01*
X75208091Y-86515483D01*
X75214500Y-86455873D01*
X75214500Y-86187986D01*
X77436001Y-86187986D01*
X77446494Y-86290697D01*
X77501641Y-86457119D01*
X77501643Y-86457124D01*
X77593684Y-86606345D01*
X77717654Y-86730315D01*
X77866875Y-86822356D01*
X77866880Y-86822358D01*
X78033302Y-86877505D01*
X78033309Y-86877506D01*
X78136019Y-86887999D01*
X78935999Y-86887999D01*
X79436000Y-86887999D01*
X80235972Y-86887999D01*
X80235986Y-86887998D01*
X80338697Y-86877505D01*
X80505119Y-86822358D01*
X80505124Y-86822356D01*
X80654345Y-86730315D01*
X80778315Y-86606345D01*
X80870356Y-86457124D01*
X80870358Y-86457119D01*
X80925505Y-86290697D01*
X80925506Y-86290690D01*
X80935999Y-86187986D01*
X80936000Y-86187973D01*
X80936000Y-85738000D01*
X79436000Y-85738000D01*
X79436000Y-86887999D01*
X78935999Y-86887999D01*
X78936000Y-86887998D01*
X78936000Y-85738000D01*
X77436001Y-85738000D01*
X77436001Y-86187986D01*
X75214500Y-86187986D01*
X75214499Y-85555339D01*
X75214499Y-84788013D01*
X77436000Y-84788013D01*
X77436000Y-85238000D01*
X78936000Y-85238000D01*
X79436000Y-85238000D01*
X80935999Y-85238000D01*
X80935999Y-84788028D01*
X80935998Y-84788013D01*
X80925505Y-84685302D01*
X80870358Y-84518880D01*
X80870356Y-84518875D01*
X80778315Y-84369654D01*
X80654345Y-84245684D01*
X80505124Y-84153643D01*
X80505119Y-84153641D01*
X80338697Y-84098494D01*
X80338690Y-84098493D01*
X80235986Y-84088000D01*
X79436000Y-84088000D01*
X79436000Y-85238000D01*
X78936000Y-85238000D01*
X78936000Y-84088000D01*
X78136028Y-84088000D01*
X78136012Y-84088001D01*
X78033302Y-84098494D01*
X77866880Y-84153641D01*
X77866875Y-84153643D01*
X77717654Y-84245684D01*
X77593684Y-84369654D01*
X77501643Y-84518875D01*
X77501641Y-84518880D01*
X77446494Y-84685302D01*
X77446493Y-84685309D01*
X77436000Y-84788013D01*
X75214499Y-84788013D01*
X75214499Y-84784864D01*
X75214499Y-84760129D01*
X75214498Y-84760123D01*
X75208091Y-84700516D01*
X75157797Y-84565671D01*
X75157793Y-84565664D01*
X75071547Y-84450455D01*
X75071544Y-84450452D01*
X74956335Y-84364206D01*
X74956328Y-84364202D01*
X74821482Y-84313908D01*
X74821483Y-84313908D01*
X74761883Y-84307501D01*
X74761881Y-84307500D01*
X74761873Y-84307500D01*
X74761864Y-84307500D01*
X73066129Y-84307500D01*
X73066123Y-84307501D01*
X73006516Y-84313908D01*
X72871671Y-84364202D01*
X72871664Y-84364206D01*
X72756455Y-84450452D01*
X72756452Y-84450455D01*
X72670206Y-84565664D01*
X72670202Y-84565671D01*
X72619908Y-84700516D01*
X72615939Y-84737440D01*
X72589201Y-84801991D01*
X72531809Y-84841839D01*
X72461983Y-84844332D01*
X72401895Y-84808679D01*
X72392332Y-84797070D01*
X72365967Y-84760782D01*
X72221213Y-84616028D01*
X72055613Y-84495715D01*
X72055612Y-84495714D01*
X72055610Y-84495713D01*
X71998653Y-84466691D01*
X71873223Y-84402781D01*
X71678534Y-84339522D01*
X71503995Y-84311878D01*
X71476352Y-84307500D01*
X71271648Y-84307500D01*
X71247329Y-84311351D01*
X71069465Y-84339522D01*
X70874776Y-84402781D01*
X70692386Y-84495715D01*
X70526786Y-84616028D01*
X70382028Y-84760786D01*
X70261715Y-84926386D01*
X70214485Y-85019080D01*
X70166510Y-85069876D01*
X70098689Y-85086671D01*
X70032554Y-85064134D01*
X69993515Y-85019080D01*
X69946419Y-84926650D01*
X69946287Y-84926390D01*
X69884858Y-84841839D01*
X69825971Y-84760786D01*
X69681213Y-84616028D01*
X69515613Y-84495715D01*
X69515612Y-84495714D01*
X69515610Y-84495713D01*
X69458653Y-84466691D01*
X69333223Y-84402781D01*
X69138534Y-84339522D01*
X68963995Y-84311878D01*
X68936352Y-84307500D01*
X68731648Y-84307500D01*
X68707329Y-84311351D01*
X68529465Y-84339522D01*
X68334776Y-84402781D01*
X68152386Y-84495715D01*
X67986786Y-84616028D01*
X67842028Y-84760786D01*
X67721715Y-84926386D01*
X67674485Y-85019080D01*
X67626510Y-85069876D01*
X67558689Y-85086671D01*
X67492554Y-85064134D01*
X67453515Y-85019080D01*
X67406419Y-84926650D01*
X67406287Y-84926390D01*
X67344858Y-84841839D01*
X67285971Y-84760786D01*
X67141213Y-84616028D01*
X66975613Y-84495715D01*
X66975612Y-84495714D01*
X66975610Y-84495713D01*
X66918653Y-84466691D01*
X66793223Y-84402781D01*
X66598534Y-84339522D01*
X66423995Y-84311878D01*
X66396352Y-84307500D01*
X66191648Y-84307500D01*
X66167329Y-84311351D01*
X65989465Y-84339522D01*
X65794776Y-84402781D01*
X65612386Y-84495715D01*
X65446786Y-84616028D01*
X65302028Y-84760786D01*
X65181715Y-84926386D01*
X65134485Y-85019080D01*
X65086510Y-85069876D01*
X65018689Y-85086671D01*
X64952554Y-85064134D01*
X64913515Y-85019080D01*
X64866419Y-84926650D01*
X64866287Y-84926390D01*
X64804858Y-84841839D01*
X64745971Y-84760786D01*
X64601213Y-84616028D01*
X64435613Y-84495715D01*
X64435612Y-84495714D01*
X64435610Y-84495713D01*
X64378653Y-84466691D01*
X64253223Y-84402781D01*
X64058534Y-84339522D01*
X63883995Y-84311878D01*
X63856352Y-84307500D01*
X63651648Y-84307500D01*
X63627329Y-84311351D01*
X63449465Y-84339522D01*
X63254776Y-84402781D01*
X63072386Y-84495715D01*
X62906786Y-84616028D01*
X62762028Y-84760786D01*
X62641715Y-84926386D01*
X62594485Y-85019080D01*
X62546510Y-85069876D01*
X62478689Y-85086671D01*
X62412554Y-85064134D01*
X62373515Y-85019080D01*
X62326419Y-84926650D01*
X62326287Y-84926390D01*
X62264858Y-84841839D01*
X62205971Y-84760786D01*
X62061213Y-84616028D01*
X61895613Y-84495715D01*
X61895612Y-84495714D01*
X61895610Y-84495713D01*
X61838653Y-84466691D01*
X61713223Y-84402781D01*
X61518534Y-84339522D01*
X61343995Y-84311878D01*
X61316352Y-84307500D01*
X61111648Y-84307500D01*
X61087329Y-84311351D01*
X60909465Y-84339522D01*
X60714776Y-84402781D01*
X60532386Y-84495715D01*
X60366786Y-84616028D01*
X60222028Y-84760786D01*
X60101715Y-84926386D01*
X60054485Y-85019080D01*
X60006510Y-85069876D01*
X59938689Y-85086671D01*
X59872554Y-85064134D01*
X59833515Y-85019080D01*
X59786419Y-84926650D01*
X59786287Y-84926390D01*
X59724858Y-84841839D01*
X59665971Y-84760786D01*
X59521213Y-84616028D01*
X59355613Y-84495715D01*
X59355612Y-84495714D01*
X59355610Y-84495713D01*
X59298653Y-84466691D01*
X59173223Y-84402781D01*
X58978534Y-84339522D01*
X58803995Y-84311878D01*
X58776352Y-84307500D01*
X58571648Y-84307500D01*
X58547329Y-84311351D01*
X58369465Y-84339522D01*
X58174776Y-84402781D01*
X57992386Y-84495715D01*
X57826786Y-84616028D01*
X57682028Y-84760786D01*
X57561713Y-84926388D01*
X57514203Y-85019630D01*
X57466228Y-85070426D01*
X57398407Y-85087220D01*
X57332272Y-85064682D01*
X57293234Y-85019628D01*
X57245861Y-84926652D01*
X57125582Y-84761105D01*
X57125582Y-84761104D01*
X56980895Y-84616417D01*
X56815349Y-84496140D01*
X56633029Y-84403244D01*
X56438413Y-84340009D01*
X56384000Y-84331390D01*
X56384000Y-85292314D01*
X56379606Y-85287920D01*
X56288394Y-85235259D01*
X56186661Y-85208000D01*
X56081339Y-85208000D01*
X55979606Y-85235259D01*
X55888394Y-85287920D01*
X55884000Y-85292314D01*
X55884000Y-84331390D01*
X55829586Y-84340009D01*
X55634970Y-84403244D01*
X55452650Y-84496140D01*
X55287105Y-84616417D01*
X55287104Y-84616417D01*
X55142417Y-84761104D01*
X55142417Y-84761105D01*
X55022140Y-84926650D01*
X54929244Y-85108970D01*
X54866009Y-85303586D01*
X54857391Y-85358000D01*
X52099999Y-85358000D01*
X52099999Y-84550028D01*
X52099998Y-84550013D01*
X52089505Y-84447302D01*
X52034358Y-84280880D01*
X52034356Y-84280875D01*
X51942315Y-84131654D01*
X51818345Y-84007684D01*
X51669124Y-83915643D01*
X51669119Y-83915641D01*
X51502697Y-83860494D01*
X51502690Y-83860493D01*
X51399986Y-83850000D01*
X51050000Y-83850000D01*
X51050000Y-85850000D01*
X50550000Y-85850000D01*
X50550000Y-83850000D01*
X50200028Y-83850000D01*
X50200012Y-83850001D01*
X50097302Y-83860494D01*
X49930880Y-83915641D01*
X49930875Y-83915643D01*
X49781654Y-84007684D01*
X49657684Y-84131654D01*
X49565643Y-84280875D01*
X49565641Y-84280880D01*
X49510494Y-84447302D01*
X49510493Y-84447309D01*
X49500000Y-84550013D01*
X47212729Y-84550013D01*
X47206844Y-78378082D01*
X47226464Y-78311029D01*
X47279224Y-78265224D01*
X47348373Y-78255214D01*
X47406329Y-78279593D01*
X47541873Y-78383599D01*
X47757623Y-78508162D01*
X47757638Y-78508169D01*
X47856825Y-78549253D01*
X47987793Y-78603502D01*
X48228435Y-78667982D01*
X48475435Y-78700500D01*
X48475442Y-78700500D01*
X48724558Y-78700500D01*
X48724565Y-78700500D01*
X48971565Y-78667982D01*
X49212207Y-78603502D01*
X49442373Y-78508164D01*
X49658127Y-78383599D01*
X49855776Y-78231938D01*
X50031938Y-78055776D01*
X50183599Y-77858127D01*
X50308164Y-77642373D01*
X50403502Y-77412207D01*
X50467982Y-77171565D01*
X50500500Y-76924565D01*
X50500500Y-76675441D01*
X51699500Y-76675441D01*
X51699500Y-76924558D01*
X51699501Y-76924575D01*
X51732017Y-77171561D01*
X51796498Y-77412207D01*
X51891830Y-77642361D01*
X51891837Y-77642376D01*
X52016400Y-77858126D01*
X52168060Y-78055774D01*
X52168066Y-78055781D01*
X52344218Y-78231933D01*
X52344225Y-78231939D01*
X52541873Y-78383599D01*
X52757623Y-78508162D01*
X52757638Y-78508169D01*
X52856825Y-78549253D01*
X52987793Y-78603502D01*
X53228435Y-78667982D01*
X53475435Y-78700500D01*
X53475442Y-78700500D01*
X53724558Y-78700500D01*
X53724565Y-78700500D01*
X53971565Y-78667982D01*
X54212207Y-78603502D01*
X54442373Y-78508164D01*
X54658127Y-78383599D01*
X54855776Y-78231938D01*
X55031938Y-78055776D01*
X55183599Y-77858127D01*
X55308164Y-77642373D01*
X55403502Y-77412207D01*
X55467982Y-77171565D01*
X55500500Y-76924565D01*
X55500500Y-76675441D01*
X56699500Y-76675441D01*
X56699500Y-76924558D01*
X56699501Y-76924575D01*
X56732017Y-77171561D01*
X56796498Y-77412207D01*
X56891830Y-77642361D01*
X56891837Y-77642376D01*
X57016400Y-77858126D01*
X57168060Y-78055774D01*
X57168066Y-78055781D01*
X57344218Y-78231933D01*
X57344225Y-78231939D01*
X57541873Y-78383599D01*
X57757623Y-78508162D01*
X57757638Y-78508169D01*
X57856825Y-78549253D01*
X57987793Y-78603502D01*
X58228435Y-78667982D01*
X58475435Y-78700500D01*
X58475442Y-78700500D01*
X58724558Y-78700500D01*
X58724565Y-78700500D01*
X58971565Y-78667982D01*
X59212207Y-78603502D01*
X59442373Y-78508164D01*
X59658127Y-78383599D01*
X59855776Y-78231938D01*
X60031938Y-78055776D01*
X60183599Y-77858127D01*
X60308164Y-77642373D01*
X60403502Y-77412207D01*
X60467982Y-77171565D01*
X60500500Y-76924565D01*
X60500500Y-76675441D01*
X61699500Y-76675441D01*
X61699500Y-76924558D01*
X61699501Y-76924575D01*
X61732017Y-77171561D01*
X61796498Y-77412207D01*
X61891830Y-77642361D01*
X61891837Y-77642376D01*
X62016400Y-77858126D01*
X62168060Y-78055774D01*
X62168066Y-78055781D01*
X62344218Y-78231933D01*
X62344225Y-78231939D01*
X62541873Y-78383599D01*
X62757623Y-78508162D01*
X62757638Y-78508169D01*
X62856825Y-78549253D01*
X62987793Y-78603502D01*
X63228435Y-78667982D01*
X63475435Y-78700500D01*
X63475442Y-78700500D01*
X63724558Y-78700500D01*
X63724565Y-78700500D01*
X63971565Y-78667982D01*
X64212207Y-78603502D01*
X64442373Y-78508164D01*
X64658127Y-78383599D01*
X64855776Y-78231938D01*
X64855781Y-78231933D01*
X64914750Y-78172965D01*
X65031933Y-78055781D01*
X65031938Y-78055776D01*
X65183599Y-77858127D01*
X65308164Y-77642373D01*
X65403502Y-77412207D01*
X65467982Y-77171565D01*
X65500500Y-76924565D01*
X65500500Y-76675466D01*
X66700000Y-76675466D01*
X66700000Y-76924533D01*
X66732508Y-77171463D01*
X66796973Y-77412049D01*
X66892283Y-77642148D01*
X66892288Y-77642159D01*
X67016813Y-77857841D01*
X67016819Y-77857849D01*
X67091400Y-77955045D01*
X67998958Y-77047487D01*
X68023978Y-77107890D01*
X68095112Y-77214351D01*
X68185649Y-77304888D01*
X68292110Y-77376022D01*
X68352511Y-77401041D01*
X67444953Y-78308598D01*
X67542150Y-78383180D01*
X67542158Y-78383186D01*
X67757840Y-78507711D01*
X67757851Y-78507716D01*
X67987950Y-78603026D01*
X68228536Y-78667491D01*
X68475466Y-78700000D01*
X68724534Y-78700000D01*
X68971463Y-78667491D01*
X69212049Y-78603026D01*
X69442148Y-78507716D01*
X69442159Y-78507711D01*
X69657855Y-78383178D01*
X69755045Y-78308600D01*
X69755045Y-78308597D01*
X68847488Y-77401041D01*
X68907890Y-77376022D01*
X69014351Y-77304888D01*
X69104888Y-77214351D01*
X69176022Y-77107890D01*
X69201041Y-77047488D01*
X70108597Y-77955045D01*
X70108600Y-77955045D01*
X70183178Y-77857855D01*
X70307711Y-77642159D01*
X70307716Y-77642148D01*
X70403026Y-77412049D01*
X70467491Y-77171463D01*
X70500000Y-76924533D01*
X70500000Y-76675466D01*
X70467491Y-76428536D01*
X70403026Y-76187950D01*
X70307716Y-75957851D01*
X70307711Y-75957840D01*
X70183186Y-75742158D01*
X70183180Y-75742150D01*
X70108598Y-75644953D01*
X69201041Y-76552510D01*
X69176022Y-76492110D01*
X69104888Y-76385649D01*
X69014351Y-76295112D01*
X68907890Y-76223978D01*
X68847487Y-76198957D01*
X69755045Y-75291400D01*
X69657849Y-75216819D01*
X69657841Y-75216813D01*
X69442159Y-75092288D01*
X69442143Y-75092280D01*
X69373196Y-75063722D01*
X69373195Y-75063722D01*
X69212049Y-74996973D01*
X69051795Y-74954033D01*
X79576299Y-74954033D01*
X79576299Y-75132764D01*
X79604259Y-75309297D01*
X79604259Y-75309300D01*
X79659488Y-75479277D01*
X79659490Y-75479280D01*
X79740632Y-75638531D01*
X79845688Y-75783127D01*
X79972071Y-75909510D01*
X80116667Y-76014566D01*
X80275918Y-76095708D01*
X80275920Y-76095709D01*
X80434469Y-76147224D01*
X80445902Y-76150939D01*
X80622433Y-76178899D01*
X80622434Y-76178899D01*
X80801164Y-76178899D01*
X80801165Y-76178899D01*
X80977696Y-76150939D01*
X80977699Y-76150938D01*
X80977700Y-76150938D01*
X81147677Y-76095709D01*
X81147677Y-76095708D01*
X81147680Y-76095708D01*
X81306931Y-76014566D01*
X81451527Y-75909510D01*
X81499619Y-75861418D01*
X81560942Y-75827933D01*
X81630634Y-75832917D01*
X81686567Y-75874789D01*
X81710984Y-75940253D01*
X81711300Y-75949099D01*
X81711300Y-80561325D01*
X81701861Y-80608777D01*
X81673950Y-80676159D01*
X81673947Y-80676169D01*
X81635500Y-80869455D01*
X81635500Y-84275770D01*
X81615815Y-84342809D01*
X81599181Y-84363451D01*
X81593289Y-84369342D01*
X81501187Y-84518663D01*
X81501185Y-84518668D01*
X81485612Y-84565664D01*
X81446001Y-84685203D01*
X81446001Y-84685204D01*
X81446000Y-84685204D01*
X81435500Y-84787983D01*
X81435500Y-86188001D01*
X81435501Y-86188018D01*
X81446000Y-86290796D01*
X81446001Y-86290799D01*
X81501185Y-86457331D01*
X81501187Y-86457336D01*
X81536069Y-86513888D01*
X81593288Y-86606656D01*
X81717344Y-86730712D01*
X81866666Y-86822814D01*
X82033203Y-86877999D01*
X82135991Y-86888500D01*
X84236008Y-86888499D01*
X84338797Y-86877999D01*
X84505334Y-86822814D01*
X84654656Y-86730712D01*
X84778712Y-86606656D01*
X84870814Y-86457334D01*
X84925999Y-86290797D01*
X84936500Y-86188009D01*
X84936499Y-84787992D01*
X84936179Y-84784864D01*
X84925999Y-84685203D01*
X84925998Y-84685200D01*
X84870814Y-84518666D01*
X84778712Y-84369344D01*
X84654656Y-84245288D01*
X84505334Y-84153186D01*
X84338797Y-84098001D01*
X84338795Y-84098000D01*
X84236016Y-84087500D01*
X84236009Y-84087500D01*
X83760500Y-84087500D01*
X83693461Y-84067815D01*
X83647706Y-84015011D01*
X83636500Y-83963500D01*
X83636500Y-81298872D01*
X83645939Y-81251419D01*
X83673851Y-81184034D01*
X83712300Y-80990740D01*
X83712300Y-75610731D01*
X83725815Y-75554436D01*
X83731021Y-75544218D01*
X83764109Y-75479280D01*
X83800246Y-75368062D01*
X83819339Y-75309300D01*
X83819339Y-75309299D01*
X83819340Y-75309296D01*
X83847300Y-75132765D01*
X83847300Y-74954033D01*
X83819340Y-74777502D01*
X83819339Y-74777498D01*
X83819339Y-74777497D01*
X83764110Y-74607520D01*
X83764108Y-74607517D01*
X83682966Y-74448266D01*
X83577911Y-74303671D01*
X83451528Y-74177288D01*
X83306932Y-74072232D01*
X83147681Y-73991090D01*
X83147678Y-73991088D01*
X82977699Y-73935859D01*
X82860009Y-73917219D01*
X82801166Y-73907899D01*
X82622434Y-73907899D01*
X82563590Y-73917219D01*
X82445901Y-73935859D01*
X82445898Y-73935859D01*
X82275921Y-73991088D01*
X82275918Y-73991090D01*
X82116667Y-74072232D01*
X81972070Y-74177289D01*
X81845688Y-74303671D01*
X81812116Y-74349879D01*
X81756785Y-74392544D01*
X81687172Y-74398522D01*
X81625377Y-74365915D01*
X81611482Y-74349879D01*
X81577910Y-74303671D01*
X81451527Y-74177288D01*
X81306931Y-74072232D01*
X81147680Y-73991090D01*
X81147677Y-73991088D01*
X80977698Y-73935859D01*
X80860008Y-73917219D01*
X80801165Y-73907899D01*
X80622433Y-73907899D01*
X80563589Y-73917219D01*
X80445900Y-73935859D01*
X80445897Y-73935859D01*
X80275920Y-73991088D01*
X80275917Y-73991090D01*
X80116666Y-74072232D01*
X79972069Y-74177289D01*
X79845689Y-74303669D01*
X79740632Y-74448266D01*
X79659490Y-74607517D01*
X79659488Y-74607520D01*
X79604259Y-74777497D01*
X79604259Y-74777500D01*
X79576299Y-74954033D01*
X69051795Y-74954033D01*
X68971463Y-74932508D01*
X68724534Y-74900000D01*
X68475466Y-74900000D01*
X68228536Y-74932508D01*
X67987950Y-74996973D01*
X67757851Y-75092283D01*
X67757847Y-75092285D01*
X67542143Y-75216823D01*
X67444953Y-75291399D01*
X67444953Y-75291400D01*
X68352511Y-76198958D01*
X68292110Y-76223978D01*
X68185649Y-76295112D01*
X68095112Y-76385649D01*
X68023978Y-76492110D01*
X67998958Y-76552511D01*
X67091400Y-75644953D01*
X67091399Y-75644953D01*
X67016823Y-75742143D01*
X66892285Y-75957847D01*
X66892283Y-75957851D01*
X66796973Y-76187950D01*
X66732508Y-76428536D01*
X66700000Y-76675466D01*
X65500500Y-76675466D01*
X65500500Y-76675435D01*
X65467982Y-76428435D01*
X65403502Y-76187793D01*
X65308257Y-75957851D01*
X65308169Y-75957638D01*
X65308162Y-75957623D01*
X65183599Y-75741873D01*
X65031939Y-75544225D01*
X65031933Y-75544218D01*
X64855781Y-75368066D01*
X64855774Y-75368060D01*
X64658126Y-75216400D01*
X64442376Y-75091837D01*
X64442361Y-75091830D01*
X64212207Y-74996498D01*
X64053726Y-74954033D01*
X63971565Y-74932018D01*
X63971564Y-74932017D01*
X63971561Y-74932017D01*
X63724575Y-74899501D01*
X63724570Y-74899500D01*
X63724565Y-74899500D01*
X63475435Y-74899500D01*
X63475429Y-74899500D01*
X63475424Y-74899501D01*
X63228438Y-74932017D01*
X62987792Y-74996498D01*
X62757638Y-75091830D01*
X62757623Y-75091837D01*
X62541873Y-75216400D01*
X62344225Y-75368060D01*
X62344218Y-75368066D01*
X62168066Y-75544218D01*
X62168060Y-75544225D01*
X62016400Y-75741873D01*
X61891837Y-75957623D01*
X61891830Y-75957638D01*
X61796498Y-76187792D01*
X61732017Y-76428438D01*
X61699501Y-76675424D01*
X61699500Y-76675441D01*
X60500500Y-76675441D01*
X60500500Y-76675435D01*
X60467982Y-76428435D01*
X60403502Y-76187793D01*
X60308257Y-75957851D01*
X60308169Y-75957638D01*
X60308162Y-75957623D01*
X60183599Y-75741873D01*
X60031939Y-75544225D01*
X60031933Y-75544218D01*
X59855781Y-75368066D01*
X59855774Y-75368060D01*
X59658126Y-75216400D01*
X59442376Y-75091837D01*
X59442361Y-75091830D01*
X59212207Y-74996498D01*
X59053726Y-74954033D01*
X58971565Y-74932018D01*
X58971564Y-74932017D01*
X58971561Y-74932017D01*
X58724575Y-74899501D01*
X58724570Y-74899500D01*
X58724565Y-74899500D01*
X58475435Y-74899500D01*
X58475429Y-74899500D01*
X58475424Y-74899501D01*
X58228438Y-74932017D01*
X57987792Y-74996498D01*
X57757638Y-75091830D01*
X57757623Y-75091837D01*
X57541873Y-75216400D01*
X57344225Y-75368060D01*
X57344218Y-75368066D01*
X57168066Y-75544218D01*
X57168060Y-75544225D01*
X57016400Y-75741873D01*
X56891837Y-75957623D01*
X56891830Y-75957638D01*
X56796498Y-76187792D01*
X56732017Y-76428438D01*
X56699501Y-76675424D01*
X56699500Y-76675441D01*
X55500500Y-76675441D01*
X55500500Y-76675435D01*
X55467982Y-76428435D01*
X55403502Y-76187793D01*
X55308257Y-75957851D01*
X55308169Y-75957638D01*
X55308162Y-75957623D01*
X55183599Y-75741873D01*
X55031939Y-75544225D01*
X55031933Y-75544218D01*
X54855781Y-75368066D01*
X54855774Y-75368060D01*
X54658126Y-75216400D01*
X54442376Y-75091837D01*
X54442361Y-75091830D01*
X54212207Y-74996498D01*
X54053726Y-74954033D01*
X53971565Y-74932018D01*
X53971564Y-74932017D01*
X53971561Y-74932017D01*
X53724575Y-74899501D01*
X53724570Y-74899500D01*
X53724565Y-74899500D01*
X53475435Y-74899500D01*
X53475429Y-74899500D01*
X53475424Y-74899501D01*
X53228438Y-74932017D01*
X52987792Y-74996498D01*
X52757638Y-75091830D01*
X52757623Y-75091837D01*
X52541873Y-75216400D01*
X52344225Y-75368060D01*
X52344218Y-75368066D01*
X52168066Y-75544218D01*
X52168060Y-75544225D01*
X52016400Y-75741873D01*
X51891837Y-75957623D01*
X51891830Y-75957638D01*
X51796498Y-76187792D01*
X51732017Y-76428438D01*
X51699501Y-76675424D01*
X51699500Y-76675441D01*
X50500500Y-76675441D01*
X50500500Y-76675435D01*
X50467982Y-76428435D01*
X50403502Y-76187793D01*
X50308257Y-75957851D01*
X50308169Y-75957638D01*
X50308162Y-75957623D01*
X50183599Y-75741873D01*
X50031939Y-75544225D01*
X50031933Y-75544218D01*
X49855781Y-75368066D01*
X49855774Y-75368060D01*
X49658126Y-75216400D01*
X49442376Y-75091837D01*
X49442361Y-75091830D01*
X49212207Y-74996498D01*
X49053726Y-74954033D01*
X48971565Y-74932018D01*
X48971564Y-74932017D01*
X48971561Y-74932017D01*
X48724575Y-74899501D01*
X48724570Y-74899500D01*
X48724565Y-74899500D01*
X48475435Y-74899500D01*
X48475429Y-74899500D01*
X48475424Y-74899501D01*
X48228438Y-74932017D01*
X47987792Y-74996498D01*
X47757638Y-75091830D01*
X47757623Y-75091837D01*
X47541873Y-75216400D01*
X47403322Y-75322713D01*
X47338152Y-75347907D01*
X47269708Y-75333868D01*
X47219718Y-75285054D01*
X47203837Y-75224460D01*
X47201851Y-73141616D01*
X47221472Y-73074560D01*
X47274232Y-73028755D01*
X47325851Y-73017500D01*
X87451319Y-73017500D01*
X87518358Y-73037185D01*
G37*
%TD.AperFunction*%
%TD*%
M02*
