%TF.GenerationSoftware,KiCad,Pcbnew,10.0.5*%
%TF.CreationDate,2026-09-04T15:37:05-07:00*%
%TF.ProjectId,V67_cycletron,5636375f-6379-4636-9c65-74726f6e2e6b,rev?*%
%TF.SameCoordinates,Original*%
%TF.FileFunction,Copper,L4,Bot*%
%TF.FilePolarity,Positive*%
%FSLAX46Y46*%
G04 Gerber Fmt 4.6, Leading zero omitted, Abs format (unit mm)*
G04 Created by KiCad (PCBNEW 10.0.5) date 2026-09-04 15:37:05*
%MOMM*%
%LPD*%
G01*
G04 APERTURE LIST*
G04 Aperture macros list*
%AMRoundRect*
0 Rectangle with rounded corners*
0 $1 Rounding radius*
0 $2 $3 $4 $5 $6 $7 $8 $9 X,Y pos of 4 corners*
0 Add a 4 corners polygon primitive as box body*
4,1,4,$2,$3,$4,$5,$6,$7,$8,$9,$2,$3,0*
0 Add four circle primitives for the rounded corners*
1,1,$1+$1,$2,$3*
1,1,$1+$1,$4,$5*
1,1,$1+$1,$6,$7*
1,1,$1+$1,$8,$9*
0 Add four rect primitives between the rounded corners*
20,1,$1+$1,$2,$3,$4,$5,0*
20,1,$1+$1,$4,$5,$6,$7,0*
20,1,$1+$1,$6,$7,$8,$9,0*
20,1,$1+$1,$8,$9,$2,$3,0*%
G04 Aperture macros list end*
%TA.AperFunction,ComponentPad*%
%ADD10R,1.700000X1.700000*%
%TD*%
%TA.AperFunction,ComponentPad*%
%ADD11C,1.700000*%
%TD*%
%TA.AperFunction,ComponentPad*%
%ADD12C,1.600000*%
%TD*%
%TA.AperFunction,ComponentPad*%
%ADD13O,1.600000X1.600000*%
%TD*%
%TA.AperFunction,ComponentPad*%
%ADD14RoundRect,0.250001X-1.149999X-1.149999X1.149999X-1.149999X1.149999X1.149999X-1.149999X1.149999X0*%
%TD*%
%TA.AperFunction,ComponentPad*%
%ADD15C,2.800000*%
%TD*%
%TA.AperFunction,ComponentPad*%
%ADD16R,1.600000X1.600000*%
%TD*%
%TA.AperFunction,ComponentPad*%
%ADD17R,1.980000X1.980000*%
%TD*%
%TA.AperFunction,ComponentPad*%
%ADD18C,1.980000*%
%TD*%
%TA.AperFunction,HeatsinkPad*%
%ADD19O,1.000000X2.100000*%
%TD*%
%TA.AperFunction,HeatsinkPad*%
%ADD20O,1.000000X1.600000*%
%TD*%
%TA.AperFunction,ComponentPad*%
%ADD21R,1.905000X2.000000*%
%TD*%
%TA.AperFunction,ComponentPad*%
%ADD22O,1.905000X2.000000*%
%TD*%
%TA.AperFunction,HeatsinkPad*%
%ADD23C,0.600000*%
%TD*%
%TA.AperFunction,ViaPad*%
%ADD24C,0.800000*%
%TD*%
%TA.AperFunction,ViaPad*%
%ADD25C,0.600000*%
%TD*%
%TA.AperFunction,Conductor*%
%ADD26C,0.250000*%
%TD*%
%TA.AperFunction,Conductor*%
%ADD27C,0.200000*%
%TD*%
%TA.AperFunction,Conductor*%
%ADD28C,0.400000*%
%TD*%
G04 APERTURE END LIST*
D10*
%TO.P,J12,1*%
%TO.N,TX*%
X145250000Y-104725000D03*
D11*
%TO.P,J12,2*%
%TO.N,RX*%
X145250000Y-107265000D03*
%TD*%
D10*
%TO.P,J3,1*%
%TO.N,mosfet1_o*%
X83375000Y-114800000D03*
D11*
%TO.P,J3,2*%
%TO.N,+24V*%
X80835000Y-114800000D03*
%TD*%
D10*
%TO.P,J4,1*%
%TO.N,SCL*%
X150500000Y-92670000D03*
D11*
%TO.P,J4,2*%
%TO.N,SDA*%
X150500000Y-95210000D03*
%TO.P,J4,3*%
%TO.N,GND*%
X150500000Y-97750000D03*
%TO.P,J4,4*%
%TO.N,3V3*%
X150500000Y-100290000D03*
%TD*%
D12*
%TO.P,vd_r1,1*%
%TO.N,Therm-*%
X138610000Y-101500000D03*
D13*
%TO.P,vd_r1,2*%
%TO.N,GND*%
X130990000Y-101500000D03*
%TD*%
D14*
%TO.P,Rails1,1,Pin_1_1*%
%TO.N,GND*%
X47000000Y-77000000D03*
D15*
%TO.P,Rails1,2,Pin_2_2*%
X52000000Y-77000000D03*
%TO.P,Rails1,3,Pin_3_3*%
X57000000Y-77000000D03*
%TO.P,Rails1,4,Pin_4_4*%
X62000000Y-77000000D03*
%TO.P,Rails1,5,Pin_5_5*%
%TO.N,3V3*%
X67000000Y-77000000D03*
%TO.P,Rails1,6,Pin_6_6*%
%TO.N,+24V*%
X72000000Y-77000000D03*
%TD*%
D16*
%TO.P,Motor_2,1,GND_1*%
%TO.N,GND*%
X73914000Y-85608000D03*
D13*
%TO.P,Motor_2,2,~{FLT}_2*%
%TO.N,Motor2_FLT*%
X71374000Y-85608000D03*
%TO.P,Motor_2,3,A2_3*%
%TO.N,Motor2_A2*%
X68834000Y-85608000D03*
%TO.P,Motor_2,4,A1_4*%
%TO.N,Motor2_A1*%
X66294000Y-85608000D03*
%TO.P,Motor_2,5,B1_5*%
%TO.N,Motor2_B1*%
X63754000Y-85608000D03*
%TO.P,Motor_2,6,B2_6*%
%TO.N,Motor2_B2*%
X61214000Y-85608000D03*
%TO.P,Motor_2,7,GND_7*%
%TO.N,GND*%
X58674000Y-85608000D03*
%TO.P,Motor_2,8,VMOT_8*%
%TO.N,+24V*%
X56134000Y-85608000D03*
%TO.P,Motor_2,9,~{EN}_9*%
%TO.N,Motor2_EN*%
X56134000Y-98308000D03*
%TO.P,Motor_2,10,M0_10*%
%TO.N,Motor2_M0*%
X58674000Y-98308000D03*
%TO.P,Motor_2,11,M1_11*%
%TO.N,Motor2_M1*%
X61214000Y-98308000D03*
%TO.P,Motor_2,12,M2_12*%
%TO.N,Motor2_M2*%
X63754000Y-98308000D03*
%TO.P,Motor_2,13,~{RST}_13*%
%TO.N,3V3*%
X66294000Y-98308000D03*
%TO.P,Motor_2,14,~{SLP}_14*%
X68834000Y-98308000D03*
%TO.P,Motor_2,15,STEP_15*%
%TO.N,Motor2_STEP*%
X71374000Y-98308000D03*
%TO.P,Motor_2,16,DIR_16*%
%TO.N,Motor2_DIR*%
X73914000Y-98308000D03*
%TD*%
D10*
%TO.P,J7,1*%
%TO.N,FAN_Tach_i*%
X138920000Y-114100000D03*
D11*
%TO.P,J7,2*%
%TO.N,FAN_En_o*%
X141460000Y-114100000D03*
%TO.P,J7,3*%
%TO.N,GND*%
X144000000Y-114100000D03*
%TO.P,J7,4*%
%TO.N,+24V*%
X146540000Y-114100000D03*
%TD*%
D10*
%TO.P,J5,1*%
%TO.N,Motor2_A2*%
X40000000Y-94060000D03*
D11*
%TO.P,J5,2*%
%TO.N,Motor2_A1*%
X40000000Y-91520000D03*
%TO.P,J5,3*%
%TO.N,Motor2_B1*%
X40000000Y-88980000D03*
%TO.P,J5,4*%
%TO.N,Motor2_B2*%
X40000000Y-86440000D03*
%TD*%
D14*
%TO.P,J10,1,Pin_1_1*%
%TO.N,24V_unsafe*%
X80000000Y-76717500D03*
D15*
%TO.P,J10,2,Pin_2_2*%
%TO.N,GND*%
X85000000Y-76717500D03*
%TD*%
D17*
%TO.P,U3,1,IN_1*%
%TO.N,+24V*%
X88646000Y-92710000D03*
D18*
%TO.P,U3,2,GND_2*%
%TO.N,GND*%
X91196000Y-92710000D03*
%TO.P,U3,3,OUT_3*%
%TO.N,+5V*%
X93746000Y-92710000D03*
%TD*%
D10*
%TO.P,J9,1*%
%TO.N,Hall_i*%
X120720000Y-114400000D03*
D11*
%TO.P,J9,2*%
%TO.N,GND*%
X123260000Y-114400000D03*
%TO.P,J9,3*%
%TO.N,3V3*%
X125800000Y-114400000D03*
%TD*%
D19*
%TO.P,J1,S1,SHIELD_S1*%
%TO.N,GND*%
X103186000Y-79668000D03*
D20*
X103186000Y-75488000D03*
D19*
X94546000Y-79668000D03*
D20*
X94546000Y-75488000D03*
%TD*%
D16*
%TO.P,Motor_1,1,GND_1*%
%TO.N,GND*%
X73914000Y-101864000D03*
D13*
%TO.P,Motor_1,2,~{FLT}_2*%
%TO.N,Motor1_FLT*%
X71374000Y-101864000D03*
%TO.P,Motor_1,3,A2_3*%
%TO.N,Motor1_A2*%
X68834000Y-101864000D03*
%TO.P,Motor_1,4,A1_4*%
%TO.N,Motor1_A1*%
X66294000Y-101864000D03*
%TO.P,Motor_1,5,B1_5*%
%TO.N,Motor1_B1*%
X63754000Y-101864000D03*
%TO.P,Motor_1,6,B2_6*%
%TO.N,Motor1_B2*%
X61214000Y-101864000D03*
%TO.P,Motor_1,7,GND_7*%
%TO.N,GND*%
X58674000Y-101864000D03*
%TO.P,Motor_1,8,VMOT_8*%
%TO.N,+24V*%
X56134000Y-101864000D03*
%TO.P,Motor_1,9,~{EN}_9*%
%TO.N,Motor1_EN*%
X56134000Y-114564000D03*
%TO.P,Motor_1,10,M0_10*%
%TO.N,Motor1_M0*%
X58674000Y-114564000D03*
%TO.P,Motor_1,11,M1_11*%
%TO.N,Motor1_M1*%
X61214000Y-114564000D03*
%TO.P,Motor_1,12,M2_12*%
%TO.N,Motor1_M2*%
X63754000Y-114564000D03*
%TO.P,Motor_1,13,~{RST}_13*%
%TO.N,3V3*%
X66294000Y-114564000D03*
%TO.P,Motor_1,14,~{SLP}_14*%
X68834000Y-114564000D03*
%TO.P,Motor_1,15,STEP_15*%
%TO.N,Motor1_STEP*%
X71374000Y-114564000D03*
%TO.P,Motor_1,16,DIR_16*%
%TO.N,Motor1_DIR*%
X73914000Y-114564000D03*
%TD*%
D21*
%TO.P,Q1,1,G_1*%
%TO.N,Net-(Q1-G)*%
X97680000Y-111200000D03*
D22*
%TO.P,Q1,2,D_2*%
%TO.N,mosfet1_o*%
X95140000Y-111200000D03*
%TO.P,Q1,3,S_3*%
%TO.N,GND*%
X92600000Y-111200000D03*
%TD*%
D10*
%TO.P,J8,1*%
%TO.N,GND*%
X106860000Y-114440000D03*
D11*
%TO.P,J8,2*%
%TO.N,3V3*%
X106860000Y-111900000D03*
%TO.P,J8,3*%
%TO.N,L_IS*%
X109400000Y-114440000D03*
%TO.P,J8,4*%
%TO.N,R_IS*%
X109400000Y-111900000D03*
%TO.P,J8,5*%
%TO.N,L_EN*%
X111940000Y-114440000D03*
%TO.P,J8,6*%
%TO.N,R_EN*%
X111940000Y-111900000D03*
%TO.P,J8,7*%
%TO.N,LPWM*%
X114480000Y-114440000D03*
%TO.P,J8,8*%
%TO.N,RPWM*%
X114480000Y-111900000D03*
%TD*%
D10*
%TO.P,J2,1*%
%TO.N,3V3*%
X132275000Y-114500000D03*
D11*
%TO.P,J2,2*%
%TO.N,Therm-*%
X129735000Y-114500000D03*
%TD*%
D23*
%TO.P,U4,41,GND_41*%
%TO.N,GND*%
X125600000Y-87300000D03*
X125600000Y-88700000D03*
X126300000Y-86600000D03*
X126300000Y-88000000D03*
X126300000Y-89400000D03*
X127000000Y-87300000D03*
X127000000Y-88700000D03*
X127700000Y-86600000D03*
X127700000Y-88000000D03*
X127700000Y-89400000D03*
X128400000Y-87300000D03*
X128400000Y-88700000D03*
%TD*%
D10*
%TO.P,J11,1*%
%TO.N,GND*%
X150605000Y-107405000D03*
D11*
%TO.P,J11,2*%
%TO.N,Heat_o*%
X150605000Y-104865000D03*
%TD*%
D10*
%TO.P,J6,1*%
%TO.N,Motor1_A2*%
X40000000Y-109790000D03*
D11*
%TO.P,J6,2*%
%TO.N,Motor1_A1*%
X40000000Y-107250000D03*
%TO.P,J6,3*%
%TO.N,Motor1_B1*%
X40000000Y-104710000D03*
%TO.P,J6,4*%
%TO.N,Motor1_B2*%
X40000000Y-102170000D03*
%TD*%
D24*
%TO.N,LPWM*%
X135500000Y-98000000D03*
%TO.N,RX*%
X139750000Y-86000000D03*
%TO.N,TX*%
X139750000Y-84000000D03*
%TO.N,Hall_i*%
X134000000Y-85500000D03*
%TO.N,Therm-*%
X137250000Y-81550000D03*
%TO.N,GND*%
X137750000Y-102750000D03*
%TO.N,3V3*%
X151500000Y-85250000D03*
X132125000Y-107800000D03*
D25*
X146900000Y-94700000D03*
X105692000Y-80264000D03*
X116848000Y-81946500D03*
X132800000Y-111500000D03*
X146924000Y-98692000D03*
X103400000Y-100300000D03*
X119750000Y-81550000D03*
X101113500Y-92088000D03*
X137000000Y-111300000D03*
X117500000Y-112212500D03*
X112500000Y-82000000D03*
X101092000Y-85852000D03*
%TO.N,GND*%
X142814400Y-79908400D03*
X95186000Y-82988000D03*
X49022000Y-110236000D03*
X140665200Y-79908400D03*
X89871000Y-79536000D03*
X49500000Y-94250000D03*
D24*
X128800000Y-111700000D03*
D25*
X116848000Y-79871500D03*
X108661200Y-83362800D03*
X113800000Y-79962500D03*
X111220000Y-80264000D03*
X91950000Y-100500000D03*
X102116000Y-80583000D03*
X99800000Y-100300000D03*
X80000000Y-101250000D03*
X81000000Y-94750000D03*
X130768000Y-111500000D03*
X103393500Y-85788000D03*
X119750000Y-80280000D03*
X95616000Y-80583000D03*
D24*
X142525000Y-85200000D03*
D25*
X117500000Y-114287500D03*
X137250000Y-80280000D03*
%TO.N,En*%
X119750000Y-82820000D03*
X139200000Y-79600000D03*
%TO.N,Motor2_FLT*%
X119750000Y-84090000D03*
%TO.N,Motor2_EN*%
X119750000Y-85360000D03*
%TO.N,Motor2_M0*%
X119750000Y-86630000D03*
%TO.N,Motor2_M1*%
X119735600Y-87884000D03*
%TO.N,Motor2_M2*%
X119750000Y-89170000D03*
%TO.N,Motor2_STEP*%
X119750000Y-90440000D03*
%TO.N,Motor2_DIR*%
X119750000Y-91710000D03*
%TO.N,Net-(J1-CC1)*%
X106661200Y-83400000D03*
X100330000Y-81889600D03*
D24*
%TO.N,Net-(Boot1-Pad1)*%
X146875000Y-88800000D03*
X149200000Y-89400000D03*
%TO.N,BOOT*%
X149250000Y-87350000D03*
X137250000Y-96790000D03*
D25*
%TO.N,Motor1_FLT*%
X119750000Y-92980000D03*
%TO.N,Motor1_EN*%
X119750000Y-94250000D03*
%TO.N,Motor1_M0*%
X121515000Y-98040000D03*
%TO.N,Motor1_M1*%
X122785000Y-98040000D03*
%TO.N,Motor1_M2*%
X124055000Y-98040000D03*
%TO.N,Motor1_STEP*%
X125325000Y-98040000D03*
%TO.N,Motor1_DIR*%
X126595000Y-98040000D03*
%TO.N,GND*%
X142725000Y-88800000D03*
%TD*%
%TO.N,LPWM*%
D26*
X135500000Y-99000000D02*
X135500000Y-98000000D01*
X124000000Y-110500000D02*
X135500000Y-99000000D01*
X118250000Y-110500000D02*
X124000000Y-110500000D01*
X114480000Y-114270000D02*
X118250000Y-110500000D01*
X114480000Y-114440000D02*
X114480000Y-114270000D01*
%TO.N,Hall_i*%
X122773299Y-113225000D02*
X122085000Y-113913299D01*
X136750000Y-100000000D02*
X123525000Y-113225000D01*
X136750000Y-97750000D02*
X136750000Y-100000000D01*
X122085000Y-114400000D02*
X120720000Y-114400000D01*
X134000000Y-95000000D02*
X136750000Y-97750000D01*
X122085000Y-113913299D02*
X122085000Y-114400000D01*
X134000000Y-85500000D02*
X134000000Y-95000000D01*
X123525000Y-113225000D02*
X122773299Y-113225000D01*
%TO.N,RX*%
X142000000Y-104015000D02*
X145250000Y-107265000D01*
X142000000Y-97500000D02*
X142000000Y-104015000D01*
X139750000Y-95250000D02*
X142000000Y-97500000D01*
X139750000Y-86000000D02*
X139750000Y-95250000D01*
X145250000Y-107250000D02*
X145250000Y-107265000D01*
%TO.N,TX*%
X145250000Y-96000000D02*
X145250000Y-104725000D01*
X139750000Y-84250000D02*
X141250000Y-85750000D01*
X139750000Y-84000000D02*
X139750000Y-84250000D01*
X141250000Y-85750000D02*
X141250000Y-92000000D01*
X141250000Y-92000000D02*
X145250000Y-96000000D01*
%TO.N,Therm-*%
X138610000Y-82910000D02*
X138610000Y-101500000D01*
X137250000Y-81550000D02*
X138610000Y-82910000D01*
%TO.N,Motor2_M0*%
D27*
X59200000Y-95400000D02*
X58674000Y-95926000D01*
X67800000Y-95400000D02*
X59200000Y-95400000D01*
X76570000Y-86630000D02*
X67800000Y-95400000D01*
X119750000Y-86630000D02*
X76570000Y-86630000D01*
X58674000Y-95926000D02*
X58674000Y-98308000D01*
%TO.N,En*%
X122970000Y-79600000D02*
X139200000Y-79600000D01*
%TO.N,Motor2_A2*%
D28*
X61442000Y-93000000D02*
X68834000Y-85608000D01*
X41060000Y-93000000D02*
X61442000Y-93000000D01*
X40000000Y-94060000D02*
X41060000Y-93000000D01*
%TO.N,Motor2_B2*%
X59381999Y-87440001D02*
X61214000Y-85608000D01*
X41000001Y-87440001D02*
X59381999Y-87440001D01*
X40000000Y-86440000D02*
X41000001Y-87440001D01*
%TO.N,Motor2_B1*%
X40334000Y-88646000D02*
X60716000Y-88646000D01*
X60716000Y-88646000D02*
X63754000Y-85608000D01*
X40000000Y-88980000D02*
X40334000Y-88646000D01*
%TO.N,Motor2_A1*%
X61288001Y-90613999D02*
X66294000Y-85608000D01*
X40906001Y-90613999D02*
X61288001Y-90613999D01*
X40000000Y-91520000D02*
X40906001Y-90613999D01*
%TO.N,Motor1_B2*%
X60013000Y-103065000D02*
X61214000Y-101864000D01*
X40895000Y-103065000D02*
X60013000Y-103065000D01*
X40000000Y-102170000D02*
X40895000Y-103065000D01*
%TO.N,Motor1_B1*%
X40062000Y-104648000D02*
X60970000Y-104648000D01*
X60970000Y-104648000D02*
X63754000Y-101864000D01*
X40000000Y-104710000D02*
X40062000Y-104648000D01*
%TO.N,Motor1_A1*%
X61478000Y-106680000D02*
X66294000Y-101864000D01*
X40570000Y-106680000D02*
X61478000Y-106680000D01*
X40000000Y-107250000D02*
X40570000Y-106680000D01*
%TO.N,Motor1_A2*%
X42634002Y-108615998D02*
X62082002Y-108615998D01*
X62082002Y-108615998D02*
X68834000Y-101864000D01*
X41460000Y-109790000D02*
X42634002Y-108615998D01*
X40000000Y-109790000D02*
X41460000Y-109790000D01*
%TO.N,En*%
D27*
X119750000Y-82950000D02*
X119800000Y-83000000D01*
X122970000Y-79600000D02*
X119750000Y-82820000D01*
X119750000Y-82820000D02*
X119750000Y-82950000D01*
%TO.N,Motor2_FLT*%
X119660000Y-84000000D02*
X72982000Y-84000000D01*
X72982000Y-84000000D02*
X71374000Y-85608000D01*
X119750000Y-84090000D02*
X119660000Y-84000000D01*
%TO.N,Motor2_EN*%
X119750000Y-85360000D02*
X119750000Y-85350000D01*
X76611600Y-84988400D02*
X67000000Y-94600000D01*
X56134000Y-96883500D02*
X56134000Y-98308000D01*
X119388400Y-84988400D02*
X76611600Y-84988400D01*
X119750000Y-85350000D02*
X119388400Y-84988400D01*
X67000000Y-94600000D02*
X58417500Y-94600000D01*
X58417500Y-94600000D02*
X56134000Y-96883500D01*
%TO.N,Motor2_M1*%
X119651600Y-87800000D02*
X77000000Y-87800000D01*
X119735600Y-87884000D02*
X119651600Y-87800000D01*
X61214000Y-96986000D02*
X61214000Y-98308000D01*
X77000000Y-87800000D02*
X68600000Y-96200000D01*
X62000000Y-96200000D02*
X61214000Y-96986000D01*
X68600000Y-96200000D02*
X62000000Y-96200000D01*
%TO.N,Motor2_M2*%
X77470000Y-89200000D02*
X69896000Y-96774000D01*
X69896000Y-96774000D02*
X65288000Y-96774000D01*
X119720000Y-89200000D02*
X77470000Y-89200000D01*
X119750000Y-89170000D02*
X119720000Y-89200000D01*
X65288000Y-96774000D02*
X63754000Y-98308000D01*
%TO.N,Motor2_STEP*%
X81000000Y-90400000D02*
X80987000Y-90387000D01*
X119710000Y-90400000D02*
X81000000Y-90400000D01*
X80987000Y-90387000D02*
X78363000Y-90387000D01*
X119750000Y-90440000D02*
X119710000Y-90400000D01*
X71374000Y-97376000D02*
X71374000Y-98308000D01*
X78363000Y-90387000D02*
X71374000Y-97376000D01*
%TO.N,Motor2_DIR*%
X119690000Y-91710000D02*
X117300000Y-94100000D01*
X73914000Y-96864000D02*
X73914000Y-98308000D01*
X76678000Y-94100000D02*
X73914000Y-96864000D01*
X117300000Y-94100000D02*
X76678000Y-94100000D01*
X119750000Y-91710000D02*
X119690000Y-91710000D01*
%TO.N,Net-(J1-CC1)*%
X100330000Y-81889600D02*
X105150800Y-81889600D01*
X105150800Y-81889600D02*
X106661200Y-83400000D01*
%TO.N,Net-(Boot1-Pad1)*%
D26*
X148600000Y-88800000D02*
X149200000Y-89400000D01*
X146875000Y-88800000D02*
X148600000Y-88800000D01*
%TO.N,BOOT*%
X149250000Y-87350000D02*
X149400000Y-87500000D01*
D27*
X136790000Y-96790000D02*
X135500000Y-95500000D01*
X148000000Y-83700000D02*
X148000000Y-86100000D01*
X137250000Y-96790000D02*
X136790000Y-96790000D01*
X145200000Y-80900000D02*
X148000000Y-83700000D01*
X148000000Y-86100000D02*
X149250000Y-87350000D01*
X135500000Y-81900000D02*
X136500000Y-80900000D01*
X136500000Y-80900000D02*
X145200000Y-80900000D01*
X135500000Y-95500000D02*
X135500000Y-81900000D01*
%TO.N,Motor1_FLT*%
X72908000Y-100330000D02*
X71374000Y-101864000D01*
X115330000Y-97400000D02*
X77600000Y-97400000D01*
X119750000Y-92980000D02*
X115330000Y-97400000D01*
X74670000Y-100330000D02*
X72908000Y-100330000D01*
X77600000Y-97400000D02*
X74670000Y-100330000D01*
%TO.N,Motor1_EN*%
D26*
X110600000Y-103400000D02*
X119750000Y-94250000D01*
X56134000Y-114564000D02*
X56336000Y-114564000D01*
X62500000Y-110500000D02*
X69600000Y-103400000D01*
X60400000Y-110500000D02*
X62500000Y-110500000D01*
X69600000Y-103400000D02*
X110600000Y-103400000D01*
X56336000Y-114564000D02*
X60400000Y-110500000D01*
%TO.N,Motor1_M0*%
X61900000Y-112700000D02*
X70200000Y-104400000D01*
X114900000Y-104400000D02*
X121260000Y-98040000D01*
X60538000Y-112700000D02*
X61900000Y-112700000D01*
X58674000Y-114564000D02*
X60538000Y-112700000D01*
X121260000Y-98040000D02*
X121515000Y-98040000D01*
D27*
X121515000Y-98040000D02*
X121511000Y-98044000D01*
D26*
X70200000Y-104400000D02*
X114900000Y-104400000D01*
%TO.N,Motor1_M1*%
X61636000Y-114564000D02*
X61214000Y-114564000D01*
X70600000Y-105600000D02*
X61636000Y-114564000D01*
X122800000Y-99400000D02*
X116600000Y-105600000D01*
X122800000Y-98055000D02*
X122800000Y-99400000D01*
X122785000Y-98040000D02*
X122800000Y-98055000D01*
X116600000Y-105600000D02*
X70600000Y-105600000D01*
%TO.N,Motor1_M2*%
X69900000Y-112100000D02*
X75400000Y-106600000D01*
X118400000Y-106600000D02*
X124055000Y-100945000D01*
X124055000Y-100945000D02*
X124055000Y-98040000D01*
X66218000Y-112100000D02*
X69900000Y-112100000D01*
X63754000Y-114564000D02*
X66218000Y-112100000D01*
X75400000Y-106600000D02*
X118400000Y-106600000D01*
%TO.N,Motor1_STEP*%
X71374000Y-114564000D02*
X78438000Y-107500000D01*
X125325000Y-102475000D02*
X125325000Y-98040000D01*
X78438000Y-107500000D02*
X120300000Y-107500000D01*
X120300000Y-107500000D02*
X125325000Y-102475000D01*
%TO.N,Motor1_DIR*%
D27*
X79800000Y-109100000D02*
X79378000Y-109100000D01*
X126595000Y-103305000D02*
X120800000Y-109100000D01*
X79378000Y-109100000D02*
X73914000Y-114564000D01*
X120800000Y-109100000D02*
X79600000Y-109100000D01*
X126595000Y-98040000D02*
X126595000Y-103305000D01*
%TD*%
M02*
