%TF.GenerationSoftware,KiCad,Pcbnew,9.0.1*%
%TF.CreationDate,2026-07-20T09:48:28-07:00*%
%TF.ProjectId,V67_cycletron,5636375f-6379-4636-9c65-74726f6e2e6b,rev?*%
%TF.SameCoordinates,Original*%
%TF.FileFunction,Copper,L1,Top*%
%TF.FilePolarity,Positive*%
%FSLAX46Y46*%
G04 Gerber Fmt 4.6, Leading zero omitted, Abs format (unit mm)*
G04 Created by KiCad (PCBNEW 9.0.1) date 2026-07-20 09:48:28*
%MOMM*%
%LPD*%
G01*
G04 APERTURE LIST*
G04 Aperture macros list*
%AMRoundRect*
0 Rectangle with rounded corners*
0 $1 Rounding radius*
0 $2 $3 $4 $5 $6 $7 $8 $9 X,Y pos of 4 corners*
0 Add a 4 corners polygon primitive as box body*
4,1,4,$2,$3,$4,$5,$6,$7,$8,$9,$2,$3,0*
0 Add four circle primitives for the rounded corners*
1,1,$1+$1,$2,$3*
1,1,$1+$1,$4,$5*
1,1,$1+$1,$6,$7*
1,1,$1+$1,$8,$9*
0 Add four rect primitives between the rounded corners*
20,1,$1+$1,$2,$3,$4,$5,0*
20,1,$1+$1,$4,$5,$6,$7,0*
20,1,$1+$1,$6,$7,$8,$9,0*
20,1,$1+$1,$8,$9,$2,$3,0*%
G04 Aperture macros list end*
%TA.AperFunction,ComponentPad*%
%ADD10C,1.320800*%
%TD*%
%TA.AperFunction,ComponentPad*%
%ADD11R,1.308000X1.308000*%
%TD*%
%TA.AperFunction,ComponentPad*%
%ADD12C,1.308000*%
%TD*%
%TA.AperFunction,SMDPad,CuDef*%
%ADD13RoundRect,0.250000X-0.337500X-0.475000X0.337500X-0.475000X0.337500X0.475000X-0.337500X0.475000X0*%
%TD*%
%TA.AperFunction,HeatsinkPad*%
%ADD14O,1.000000X1.600000*%
%TD*%
%TA.AperFunction,HeatsinkPad*%
%ADD15O,1.000000X2.100000*%
%TD*%
%TA.AperFunction,SMDPad,CuDef*%
%ADD16R,0.600000X1.450000*%
%TD*%
%TA.AperFunction,SMDPad,CuDef*%
%ADD17R,0.300000X1.450000*%
%TD*%
%TA.AperFunction,SMDPad,CuDef*%
%ADD18RoundRect,0.250000X-0.350000X0.850000X-0.350000X-0.850000X0.350000X-0.850000X0.350000X0.850000X0*%
%TD*%
%TA.AperFunction,SMDPad,CuDef*%
%ADD19RoundRect,0.249997X-2.650003X2.950003X-2.650003X-2.950003X2.650003X-2.950003X2.650003X2.950003X0*%
%TD*%
%TA.AperFunction,HeatsinkPad*%
%ADD20C,0.600000*%
%TD*%
%TA.AperFunction,HeatsinkPad*%
%ADD21R,3.900000X3.900000*%
%TD*%
%TA.AperFunction,SMDPad,CuDef*%
%ADD22R,1.500000X0.900000*%
%TD*%
%TA.AperFunction,SMDPad,CuDef*%
%ADD23R,0.900000X1.500000*%
%TD*%
%TA.AperFunction,SMDPad,CuDef*%
%ADD24RoundRect,0.250000X-0.650000X1.000000X-0.650000X-1.000000X0.650000X-1.000000X0.650000X1.000000X0*%
%TD*%
%TA.AperFunction,SMDPad,CuDef*%
%ADD25RoundRect,0.250000X0.475000X-0.337500X0.475000X0.337500X-0.475000X0.337500X-0.475000X-0.337500X0*%
%TD*%
%TA.AperFunction,SMDPad,CuDef*%
%ADD26RoundRect,0.250000X0.450000X-0.350000X0.450000X0.350000X-0.450000X0.350000X-0.450000X-0.350000X0*%
%TD*%
%TA.AperFunction,SMDPad,CuDef*%
%ADD27RoundRect,0.237500X0.287500X0.237500X-0.287500X0.237500X-0.287500X-0.237500X0.287500X-0.237500X0*%
%TD*%
%TA.AperFunction,ComponentPad*%
%ADD28R,1.000000X1.000000*%
%TD*%
%TA.AperFunction,ComponentPad*%
%ADD29C,1.000000*%
%TD*%
%TA.AperFunction,ComponentPad*%
%ADD30C,1.600000*%
%TD*%
%TA.AperFunction,ComponentPad*%
%ADD31O,1.600000X1.600000*%
%TD*%
%TA.AperFunction,ComponentPad*%
%ADD32RoundRect,0.250001X-1.149999X-1.149999X1.149999X-1.149999X1.149999X1.149999X-1.149999X1.149999X0*%
%TD*%
%TA.AperFunction,ComponentPad*%
%ADD33C,2.800000*%
%TD*%
%TA.AperFunction,ComponentPad*%
%ADD34R,1.600000X1.600000*%
%TD*%
%TA.AperFunction,SMDPad,CuDef*%
%ADD35RoundRect,0.250000X-0.350000X-0.450000X0.350000X-0.450000X0.350000X0.450000X-0.350000X0.450000X0*%
%TD*%
%TA.AperFunction,SMDPad,CuDef*%
%ADD36RoundRect,0.250000X-0.550000X1.500000X-0.550000X-1.500000X0.550000X-1.500000X0.550000X1.500000X0*%
%TD*%
%TA.AperFunction,ComponentPad*%
%ADD37R,1.980000X1.980000*%
%TD*%
%TA.AperFunction,ComponentPad*%
%ADD38C,1.980000*%
%TD*%
%TA.AperFunction,SMDPad,CuDef*%
%ADD39RoundRect,0.250000X0.337500X0.475000X-0.337500X0.475000X-0.337500X-0.475000X0.337500X-0.475000X0*%
%TD*%
%TA.AperFunction,SMDPad,CuDef*%
%ADD40RoundRect,0.250000X-0.450000X0.350000X-0.450000X-0.350000X0.450000X-0.350000X0.450000X0.350000X0*%
%TD*%
%TA.AperFunction,SMDPad,CuDef*%
%ADD41RoundRect,0.250000X1.000000X0.650000X-1.000000X0.650000X-1.000000X-0.650000X1.000000X-0.650000X0*%
%TD*%
%TA.AperFunction,SMDPad,CuDef*%
%ADD42RoundRect,0.250000X1.050000X0.550000X-1.050000X0.550000X-1.050000X-0.550000X1.050000X-0.550000X0*%
%TD*%
%TA.AperFunction,SMDPad,CuDef*%
%ADD43RoundRect,0.250000X1.500000X0.550000X-1.500000X0.550000X-1.500000X-0.550000X1.500000X-0.550000X0*%
%TD*%
%TA.AperFunction,SMDPad,CuDef*%
%ADD44R,1.350000X1.800000*%
%TD*%
%TA.AperFunction,SMDPad,CuDef*%
%ADD45RoundRect,0.250000X0.350000X0.450000X-0.350000X0.450000X-0.350000X-0.450000X0.350000X-0.450000X0*%
%TD*%
%TA.AperFunction,SMDPad,CuDef*%
%ADD46RoundRect,0.250000X0.550000X-1.050000X0.550000X1.050000X-0.550000X1.050000X-0.550000X-1.050000X0*%
%TD*%
%TA.AperFunction,SMDPad,CuDef*%
%ADD47RoundRect,0.150000X0.587500X0.150000X-0.587500X0.150000X-0.587500X-0.150000X0.587500X-0.150000X0*%
%TD*%
%TA.AperFunction,ViaPad*%
%ADD48C,0.600000*%
%TD*%
%TA.AperFunction,Conductor*%
%ADD49C,0.200000*%
%TD*%
%TA.AperFunction,Conductor*%
%ADD50C,0.500000*%
%TD*%
%TA.AperFunction,Conductor*%
%ADD51C,1.000000*%
%TD*%
%TA.AperFunction,Conductor*%
%ADD52C,0.381000*%
%TD*%
%TA.AperFunction,Conductor*%
%ADD53C,0.400000*%
%TD*%
G04 APERTURE END LIST*
D10*
%TO.P,Motor2,4,4*%
%TO.N,Motor2_B2*%
X42367200Y-87472002D03*
%TO.P,Motor2,3,3*%
%TO.N,Motor2_B1*%
X42367200Y-89472000D03*
%TO.P,Motor2,2,2*%
%TO.N,Motor2_A1*%
X42367200Y-91472001D03*
%TO.P,Motor2,1,1*%
%TO.N,Motor2_A2*%
X42367200Y-93472000D03*
%TD*%
%TO.P,Motor1,4,4*%
%TO.N,Motor1_B2*%
X42316400Y-103982002D03*
%TO.P,Motor1,3,3*%
%TO.N,Motor1_B1*%
X42316400Y-105982000D03*
%TO.P,Motor1,2,2*%
%TO.N,Motor1_A1*%
X42316400Y-107982001D03*
%TO.P,Motor1,1,1*%
%TO.N,Motor1_A2*%
X42316400Y-109982000D03*
%TD*%
%TO.P,Fan1,4,4*%
%TO.N,+24V*%
X135026400Y-114147600D03*
%TO.P,Fan1,3,3*%
%TO.N,GND*%
X137026398Y-114147600D03*
%TO.P,Fan1,2,2*%
%TO.N,FAN_En_o*%
X139026399Y-114147600D03*
%TO.P,Fan1,1,1*%
%TO.N,FAN_Tach_i*%
X141026398Y-114147600D03*
%TD*%
%TO.P,Hall1,3,3*%
%TO.N,3V3*%
X124593601Y-114300000D03*
%TO.P,Hall1,2,2*%
%TO.N,GND*%
X126593600Y-114300000D03*
%TO.P,Hall1,1,1*%
%TO.N,Hall_i*%
X128593601Y-114300000D03*
%TD*%
D11*
%TO.P,hb2,1,1*%
%TO.N,GND*%
X119380000Y-114300000D03*
D12*
%TO.P,hb2,2,2*%
%TO.N,+24V*%
X117380000Y-114300000D03*
%TD*%
D11*
%TO.P,hb1,1,1*%
%TO.N,RPWM*%
X109982000Y-114554000D03*
D12*
%TO.P,hb1,2,2*%
%TO.N,LPWM*%
X107982000Y-114554000D03*
%TO.P,hb1,3,3*%
%TO.N,R_EN*%
X105982000Y-114554000D03*
%TO.P,hb1,4,4*%
%TO.N,L_EN*%
X103982000Y-114554000D03*
%TO.P,hb1,5,5*%
%TO.N,3V3*%
X101982000Y-114554000D03*
%TO.P,hb1,6,6*%
%TO.N,GND*%
X99982000Y-114554000D03*
%TD*%
D13*
%TO.P,hall2,2*%
%TO.N,3V3*%
X127783500Y-107188000D03*
%TO.P,hall2,1*%
%TO.N,GND*%
X125708500Y-107188000D03*
%TD*%
D14*
%TO.P,J1,S1,SHIELD*%
%TO.N,GND*%
X94546000Y-75488000D03*
D15*
X94546000Y-79668000D03*
D14*
X103186000Y-75488000D03*
D15*
X103186000Y-79668000D03*
D16*
%TO.P,J1,B12,GND*%
X102116000Y-80583000D03*
%TO.P,J1,B9,VBUS*%
%TO.N,+5V*%
X101316000Y-80583000D03*
D17*
%TO.P,J1,B8,SBU2*%
%TO.N,unconnected-(J1-SBU2-PadB8)*%
X100616000Y-80583000D03*
%TO.P,J1,B7,D-*%
%TO.N,D-*%
X99616000Y-80583000D03*
%TO.P,J1,B6,D+*%
%TO.N,D+*%
X98116000Y-80583000D03*
%TO.P,J1,B5,CC2*%
%TO.N,Net-(J1-CC2)*%
X97116000Y-80583000D03*
D16*
%TO.P,J1,B4,VBUS*%
%TO.N,+5V*%
X96416000Y-80583000D03*
%TO.P,J1,B1,GND*%
%TO.N,GND*%
X95616000Y-80583000D03*
%TO.P,J1,A12,GND*%
X95616000Y-80583000D03*
%TO.P,J1,A9,VBUS*%
%TO.N,+5V*%
X96416000Y-80583000D03*
D17*
%TO.P,J1,A8,SBU1*%
%TO.N,unconnected-(J1-SBU1-PadA8)*%
X97616000Y-80583000D03*
%TO.P,J1,A7,D-*%
%TO.N,D-*%
X98616000Y-80583000D03*
%TO.P,J1,A6,D+*%
%TO.N,D+*%
X99116000Y-80583000D03*
%TO.P,J1,A5,CC1*%
%TO.N,Net-(J1-CC1)*%
X100116000Y-80583000D03*
D16*
%TO.P,J1,A4,VBUS*%
%TO.N,+5V*%
X101316000Y-80583000D03*
%TO.P,J1,A1,GND*%
%TO.N,GND*%
X102116000Y-80583000D03*
%TD*%
D18*
%TO.P,U2,3,VI*%
%TO.N,+5V*%
X98833500Y-85788000D03*
D19*
%TO.P,U2,2,VO*%
%TO.N,3V3*%
X101113500Y-92088000D03*
D18*
X101113500Y-85788000D03*
%TO.P,U2,1,GND*%
%TO.N,GND*%
X103393500Y-85788000D03*
%TD*%
D20*
%TO.P,U4,41,GND*%
%TO.N,GND*%
X128400000Y-88700000D03*
X128400000Y-87300000D03*
X127700000Y-89400000D03*
X127700000Y-88000000D03*
X127700000Y-86600000D03*
X127000000Y-88700000D03*
D21*
X127000000Y-88000000D03*
D20*
X127000000Y-87300000D03*
X126300000Y-89400000D03*
X126300000Y-88000000D03*
X126300000Y-86600000D03*
X125600000Y-88700000D03*
X125600000Y-87300000D03*
D22*
%TO.P,U4,40,GND*%
X137250000Y-80280000D03*
%TO.P,U4,39,IO1*%
%TO.N,IO1*%
X137250000Y-81550000D03*
%TO.P,U4,38,IO2*%
%TO.N,IO2*%
X137250000Y-82820000D03*
%TO.P,U4,37,TXD0*%
%TO.N,TX*%
X137250000Y-84090000D03*
%TO.P,U4,36,RXD0*%
%TO.N,RX*%
X137250000Y-85360000D03*
%TO.P,U4,35,IO42*%
%TO.N,SDA*%
X137250000Y-86630000D03*
%TO.P,U4,34,IO41*%
%TO.N,SCL*%
X137250000Y-87900000D03*
%TO.P,U4,33,IO40*%
%TO.N,IO40*%
X137250000Y-89170000D03*
%TO.P,U4,32,IO39*%
%TO.N,IO39*%
X137250000Y-90440000D03*
%TO.P,U4,31,IO38*%
%TO.N,IO38*%
X137250000Y-91710000D03*
%TO.P,U4,30,IO37*%
%TO.N,IO37*%
X137250000Y-92980000D03*
%TO.P,U4,29,IO36*%
%TO.N,FAN_Tach_i*%
X137250000Y-94250000D03*
%TO.P,U4,28,IO35*%
%TO.N,FAN_En_o*%
X137250000Y-95520000D03*
%TO.P,U4,27,IO0*%
%TO.N,BOOT*%
X137250000Y-96790000D03*
D23*
%TO.P,U4,26,IO45*%
%TO.N,Hall_i*%
X135485000Y-98040000D03*
%TO.P,U4,25,IO48*%
%TO.N,RPWM*%
X134215000Y-98040000D03*
%TO.P,U4,24,IO47*%
%TO.N,LPWM*%
X132945000Y-98040000D03*
%TO.P,U4,23,IO21*%
%TO.N,R_EN*%
X131675000Y-98040000D03*
%TO.P,U4,22,IO14*%
%TO.N,L_EN*%
X130405000Y-98040000D03*
%TO.P,U4,21,IO13*%
%TO.N,Therm-*%
X129135000Y-98040000D03*
%TO.P,U4,20,IO12*%
%TO.N,mosfet1_i*%
X127865000Y-98040000D03*
%TO.P,U4,19,IO11*%
%TO.N,Motor1_DIR*%
X126595000Y-98040000D03*
%TO.P,U4,18,IO10*%
%TO.N,Motor1_STEP*%
X125325000Y-98040000D03*
%TO.P,U4,17,IO9*%
%TO.N,Motor1_M2*%
X124055000Y-98040000D03*
%TO.P,U4,16,IO46*%
%TO.N,Motor1_M1*%
X122785000Y-98040000D03*
%TO.P,U4,15,IO3*%
%TO.N,Motor1_M0*%
X121515000Y-98040000D03*
D22*
%TO.P,U4,14,USB_D+*%
%TO.N,D+*%
X119750000Y-96790000D03*
%TO.P,U4,13,USB_D-*%
%TO.N,D-*%
X119750000Y-95520000D03*
%TO.P,U4,12,IO8*%
%TO.N,Motor1_EN*%
X119750000Y-94250000D03*
%TO.P,U4,11,IO18*%
%TO.N,Motor1_FLT*%
X119750000Y-92980000D03*
%TO.P,U4,10,IO17*%
%TO.N,Motor2_DIR*%
X119750000Y-91710000D03*
%TO.P,U4,9,IO16*%
%TO.N,Motor2_STEP*%
X119750000Y-90440000D03*
%TO.P,U4,8,IO15*%
%TO.N,Motor2_M2*%
X119750000Y-89170000D03*
%TO.P,U4,7,IO7*%
%TO.N,Motor2_M1*%
X119750000Y-87900000D03*
%TO.P,U4,6,IO6*%
%TO.N,Motor2_M0*%
X119750000Y-86630000D03*
%TO.P,U4,5,IO5*%
%TO.N,Motor2_EN*%
X119750000Y-85360000D03*
%TO.P,U4,4,IO4*%
%TO.N,Motor2_FLT*%
X119750000Y-84090000D03*
%TO.P,U4,3,EN*%
%TO.N,En*%
X119750000Y-82820000D03*
%TO.P,U4,2,3V3*%
%TO.N,3V3*%
X119750000Y-81550000D03*
%TO.P,U4,1,GND*%
%TO.N,GND*%
X119750000Y-80280000D03*
%TD*%
D24*
%TO.P,D1,1,K*%
%TO.N,+24V*%
X79756000Y-105220000D03*
%TO.P,D1,2,A*%
%TO.N,mosfet1_o*%
X79756000Y-109220000D03*
%TD*%
D25*
%TO.P,mccap2,1*%
%TO.N,3V3*%
X113800000Y-82037500D03*
%TO.P,mccap2,2*%
%TO.N,GND*%
X113800000Y-79962500D03*
%TD*%
D26*
%TO.P,R_En1,1*%
%TO.N,3V3*%
X140200000Y-86000000D03*
%TO.P,R_En1,2*%
%TO.N,En*%
X140200000Y-84000000D03*
%TD*%
D27*
%TO.P,D4,1,K*%
%TO.N,Net-(D4-K)*%
X107442000Y-80264000D03*
%TO.P,D4,2,A*%
%TO.N,3V3*%
X105692000Y-80264000D03*
%TD*%
D28*
%TO.P,J3,1,Pin_1*%
%TO.N,IO40*%
X142240000Y-93218000D03*
D29*
%TO.P,J3,2,Pin_2*%
%TO.N,IO39*%
X142240000Y-94488000D03*
%TO.P,J3,3,Pin_3*%
%TO.N,IO38*%
X142240000Y-95758000D03*
%TO.P,J3,4,Pin_4*%
%TO.N,IO37*%
X142240000Y-97028000D03*
%TD*%
D30*
%TO.P,vd_r1,1*%
%TO.N,Therm-*%
X100838000Y-107442000D03*
D31*
%TO.P,vd_r1,2*%
%TO.N,GND*%
X100838000Y-99822000D03*
%TD*%
D32*
%TO.P,Rails1,1,Pin_1*%
%TO.N,GND*%
X47578000Y-76860400D03*
D33*
%TO.P,Rails1,2,Pin_2*%
X52578000Y-76860400D03*
%TO.P,Rails1,3,Pin_3*%
X57578000Y-76860400D03*
%TO.P,Rails1,4,Pin_4*%
X62578000Y-76860400D03*
%TO.P,Rails1,5,Pin_5*%
%TO.N,3V3*%
X67578000Y-76860400D03*
%TO.P,Rails1,6,Pin_6*%
%TO.N,+24V*%
X72578000Y-76860400D03*
%TD*%
D34*
%TO.P,Motor_2,1,GND*%
%TO.N,GND*%
X73914000Y-85608000D03*
D31*
%TO.P,Motor_2,2,~{FLT}*%
%TO.N,Motor2_FLT*%
X71374000Y-85608000D03*
%TO.P,Motor_2,3,A2*%
%TO.N,Motor2_A2*%
X68834000Y-85608000D03*
%TO.P,Motor_2,4,A1*%
%TO.N,Motor2_A1*%
X66294000Y-85608000D03*
%TO.P,Motor_2,5,B1*%
%TO.N,Motor2_B1*%
X63754000Y-85608000D03*
%TO.P,Motor_2,6,B2*%
%TO.N,Motor2_B2*%
X61214000Y-85608000D03*
%TO.P,Motor_2,7,GND*%
%TO.N,GND*%
X58674000Y-85608000D03*
%TO.P,Motor_2,8,VMOT*%
%TO.N,+24V*%
X56134000Y-85608000D03*
%TO.P,Motor_2,9,~{EN}*%
%TO.N,Motor2_EN*%
X56134000Y-98308000D03*
%TO.P,Motor_2,10,M0*%
%TO.N,Motor2_M0*%
X58674000Y-98308000D03*
%TO.P,Motor_2,11,M1*%
%TO.N,Motor2_M1*%
X61214000Y-98308000D03*
%TO.P,Motor_2,12,M2*%
%TO.N,Motor2_M2*%
X63754000Y-98308000D03*
%TO.P,Motor_2,13,~{RST}*%
%TO.N,3V3*%
X66294000Y-98308000D03*
%TO.P,Motor_2,14,~{SLP}*%
X68834000Y-98308000D03*
%TO.P,Motor_2,15,STEP*%
%TO.N,Motor2_STEP*%
X71374000Y-98308000D03*
%TO.P,Motor_2,16,DIR*%
%TO.N,Motor2_DIR*%
X73914000Y-98308000D03*
%TD*%
D35*
%TO.P,R2,1*%
%TO.N,Net-(J1-CC1)*%
X106661200Y-83362800D03*
%TO.P,R2,2*%
%TO.N,GND*%
X108661200Y-83362800D03*
%TD*%
D11*
%TO.P,Input1,1,1*%
%TO.N,24V_unsafe*%
X80804000Y-74422000D03*
D12*
%TO.P,Input1,2,2*%
%TO.N,GND*%
X82804000Y-74422000D03*
%TD*%
D28*
%TO.P,J2,1,Pin_1*%
%TO.N,IO1*%
X146050000Y-93345000D03*
D29*
%TO.P,J2,2,Pin_2*%
%TO.N,IO2*%
X146050000Y-94615000D03*
%TO.P,J2,3,Pin_3*%
%TO.N,TX*%
X146050000Y-95885000D03*
%TO.P,J2,4,Pin_4*%
%TO.N,RX*%
X146050000Y-97155000D03*
%TD*%
D36*
%TO.P,motorc1,1*%
%TO.N,+24V*%
X50546000Y-105156000D03*
%TO.P,motorc1,2*%
%TO.N,GND*%
X50546000Y-110756000D03*
%TD*%
D37*
%TO.P,U3,1,IN*%
%TO.N,+24V*%
X88646000Y-92710000D03*
D38*
%TO.P,U3,2,GND*%
%TO.N,GND*%
X91196000Y-92710000D03*
%TO.P,U3,3,OUT*%
%TO.N,+5V*%
X93746000Y-92710000D03*
%TD*%
D39*
%TO.P,vd_c2,1*%
%TO.N,Therm-*%
X95525500Y-108458000D03*
%TO.P,vd_c2,2*%
%TO.N,3V3*%
X93450500Y-108458000D03*
%TD*%
D36*
%TO.P,motorc2,1*%
%TO.N,+24V*%
X50292000Y-87376000D03*
%TO.P,motorc2,2*%
%TO.N,GND*%
X50292000Y-92976000D03*
%TD*%
D25*
%TO.P,vd_c1,1*%
%TO.N,3V3*%
X103886000Y-105939500D03*
%TO.P,vd_c1,2*%
%TO.N,GND*%
X103886000Y-103864500D03*
%TD*%
D26*
%TO.P,R7,1*%
%TO.N,3V3*%
X135331200Y-105428800D03*
%TO.P,R7,2*%
%TO.N,FAN_Tach_i*%
X135331200Y-103428800D03*
%TD*%
D40*
%TO.P,R_boot1,1*%
%TO.N,Net-(Boot1-Pad1)*%
X140000000Y-88200000D03*
%TO.P,R_boot1,2*%
%TO.N,BOOT*%
X140000000Y-90200000D03*
%TD*%
D34*
%TO.P,Motor_1,1,GND*%
%TO.N,GND*%
X73914000Y-101864000D03*
D31*
%TO.P,Motor_1,2,~{FLT}*%
%TO.N,Motor1_FLT*%
X71374000Y-101864000D03*
%TO.P,Motor_1,3,A2*%
%TO.N,Motor1_A2*%
X68834000Y-101864000D03*
%TO.P,Motor_1,4,A1*%
%TO.N,Motor1_A1*%
X66294000Y-101864000D03*
%TO.P,Motor_1,5,B1*%
%TO.N,Motor1_B1*%
X63754000Y-101864000D03*
%TO.P,Motor_1,6,B2*%
%TO.N,Motor1_B2*%
X61214000Y-101864000D03*
%TO.P,Motor_1,7,GND*%
%TO.N,GND*%
X58674000Y-101864000D03*
%TO.P,Motor_1,8,VMOT*%
%TO.N,+24V*%
X56134000Y-101864000D03*
%TO.P,Motor_1,9,~{EN}*%
%TO.N,Motor1_EN*%
X56134000Y-114564000D03*
%TO.P,Motor_1,10,M0*%
%TO.N,Motor1_M0*%
X58674000Y-114564000D03*
%TO.P,Motor_1,11,M1*%
%TO.N,Motor1_M1*%
X61214000Y-114564000D03*
%TO.P,Motor_1,12,M2*%
%TO.N,Motor1_M2*%
X63754000Y-114564000D03*
%TO.P,Motor_1,13,~{RST}*%
%TO.N,3V3*%
X66294000Y-114564000D03*
%TO.P,Motor_1,14,~{SLP}*%
X68834000Y-114564000D03*
%TO.P,Motor_1,15,STEP*%
%TO.N,Motor1_STEP*%
X71374000Y-114564000D03*
%TO.P,Motor_1,16,DIR*%
%TO.N,Motor1_DIR*%
X73914000Y-114564000D03*
%TD*%
D26*
%TO.P,R4,1*%
%TO.N,3V3*%
X141782800Y-101888800D03*
%TO.P,R4,2*%
%TO.N,SCL*%
X141782800Y-99888800D03*
%TD*%
D35*
%TO.P,R6,1*%
%TO.N,GND*%
X87122000Y-78232000D03*
%TO.P,R6,2*%
%TO.N,Net-(D5-K)*%
X89122000Y-78232000D03*
%TD*%
D25*
%TO.P,C2,1*%
%TO.N,En*%
X140614400Y-81983400D03*
%TO.P,C2,2*%
%TO.N,GND*%
X140614400Y-79908400D03*
%TD*%
D41*
%TO.P,Dpower1,1,K*%
%TO.N,+24V*%
X86804000Y-82042000D03*
%TO.P,Dpower1,2,A*%
%TO.N,24V_unsafe*%
X82804000Y-82042000D03*
%TD*%
D26*
%TO.P,R5,1*%
%TO.N,3V3*%
X141681200Y-105936800D03*
%TO.P,R5,2*%
%TO.N,SDA*%
X141681200Y-103936800D03*
%TD*%
D42*
%TO.P,5Vout1,1*%
%TO.N,+5V*%
X94256000Y-86106000D03*
%TO.P,5Vout1,2*%
%TO.N,GND*%
X90656000Y-86106000D03*
%TD*%
D25*
%TO.P,C1,1*%
%TO.N,En*%
X142814400Y-81983400D03*
%TO.P,C1,2*%
%TO.N,GND*%
X142814400Y-79908400D03*
%TD*%
D11*
%TO.P,Therm1,1,1*%
%TO.N,3V3*%
X92017600Y-114503200D03*
D12*
%TO.P,Therm1,2,2*%
%TO.N,Therm-*%
X90017600Y-114503200D03*
%TD*%
D36*
%TO.P,5Vin1,1*%
%TO.N,+24V*%
X80772000Y-87878000D03*
%TO.P,5Vin1,2*%
%TO.N,GND*%
X80772000Y-93478000D03*
%TD*%
D11*
%TO.P,Mos1,1,1*%
%TO.N,mosfet1_o*%
X82702400Y-113944400D03*
D12*
%TO.P,Mos1,2,2*%
%TO.N,+24V*%
X80702400Y-113944400D03*
%TD*%
D43*
%TO.P,3v3in1,1*%
%TO.N,+5V*%
X93478000Y-100330000D03*
%TO.P,3v3in1,2*%
%TO.N,GND*%
X87878000Y-100330000D03*
%TD*%
D10*
%TO.P,I2C1,1,1*%
%TO.N,SCL*%
X146089000Y-101571801D03*
%TO.P,I2C1,2,2*%
%TO.N,SDA*%
X146089000Y-103571800D03*
%TO.P,I2C1,3,3*%
%TO.N,GND*%
X146089000Y-105571801D03*
%TO.P,I2C1,4,4*%
%TO.N,3V3*%
X146089000Y-107571799D03*
%TD*%
D25*
%TO.P,mccap1,1*%
%TO.N,3V3*%
X116848000Y-81946500D03*
%TO.P,mccap1,2*%
%TO.N,GND*%
X116848000Y-79871500D03*
%TD*%
D44*
%TO.P,En1,1*%
%TO.N,En*%
X142725000Y-85000000D03*
%TO.P,En1,2*%
%TO.N,GND*%
X146875000Y-85000000D03*
%TD*%
D45*
%TO.P,R3,1*%
%TO.N,GND*%
X111220000Y-80264000D03*
%TO.P,R3,2*%
%TO.N,Net-(D4-K)*%
X109220000Y-80264000D03*
%TD*%
D46*
%TO.P,3v3out1,1*%
%TO.N,3V3*%
X108186000Y-91288000D03*
%TO.P,3v3out1,2*%
%TO.N,GND*%
X108186000Y-87688000D03*
%TD*%
D44*
%TO.P,Boot1,1*%
%TO.N,Net-(Boot1-Pad1)*%
X142725000Y-88800000D03*
%TO.P,Boot1,2*%
%TO.N,GND*%
X146875000Y-88800000D03*
%TD*%
D27*
%TO.P,D5,1,K*%
%TO.N,Net-(D5-K)*%
X89126000Y-75946000D03*
%TO.P,D5,2,A*%
%TO.N,24V_unsafe*%
X87376000Y-75946000D03*
%TD*%
D40*
%TO.P,tr3,1*%
%TO.N,mosfet1_i*%
X89408000Y-107966000D03*
%TO.P,tr3,2*%
%TO.N,Net-(mosfet4-G)*%
X89408000Y-109966000D03*
%TD*%
D45*
%TO.P,R1,1*%
%TO.N,Net-(J1-CC2)*%
X97186000Y-82988000D03*
%TO.P,R1,2*%
%TO.N,GND*%
X95186000Y-82988000D03*
%TD*%
D47*
%TO.P,mosfet4,1,S*%
%TO.N,GND*%
X86281500Y-108646000D03*
%TO.P,mosfet4,2,G*%
%TO.N,Net-(mosfet4-G)*%
X86281500Y-106746000D03*
%TO.P,mosfet4,3,D*%
%TO.N,mosfet1_o*%
X84406500Y-107696000D03*
%TD*%
D48*
%TO.N,GND*%
X86281500Y-108646000D03*
%TO.N,3V3*%
X103886000Y-105918000D03*
%TO.N,GND*%
X103886000Y-103886000D03*
X87884000Y-100330000D03*
X50546000Y-110756000D03*
X87122000Y-78232000D03*
X142865200Y-79870900D03*
X95186000Y-82988000D03*
X140665200Y-79908400D03*
X146875000Y-85000000D03*
X50292000Y-92739999D03*
X116848000Y-79871500D03*
X108661200Y-83362800D03*
X113800000Y-79962500D03*
X111220000Y-80264000D03*
X90656000Y-86030000D03*
X102116000Y-80583000D03*
X108186000Y-87688000D03*
X146875000Y-88800000D03*
X103393500Y-85788000D03*
X80772000Y-93478000D03*
X119750000Y-80280000D03*
X95616000Y-80583000D03*
X125788600Y-107137200D03*
X137250000Y-80280000D03*
%TO.N,En*%
X119750000Y-82820000D03*
X138682000Y-81282000D03*
%TO.N,Net-(J1-CC1)*%
X106661200Y-83400000D03*
X100330000Y-81889600D03*
%TO.N,BOOT*%
X139700000Y-91440000D03*
X139446000Y-95504000D03*
%TO.N,Motor1_M0*%
X121515000Y-98040000D03*
%TO.N,Motor1_EN*%
X119750000Y-94250000D03*
%TO.N,Motor1_FLT*%
X119750000Y-92980000D03*
%TO.N,Motor1_STEP*%
X125325000Y-98040000D03*
%TO.N,Motor1_M2*%
X124055000Y-98040000D03*
%TO.N,Motor1_M1*%
X122936000Y-98044000D03*
%TO.N,Motor1_DIR*%
X126595000Y-98040000D03*
%TO.N,Motor2_EN*%
X119750000Y-85360000D03*
%TO.N,Motor2_M1*%
X119735600Y-87884000D03*
%TO.N,Motor2_DIR*%
X119750000Y-91710000D03*
%TO.N,Motor2_STEP*%
X119750000Y-90440000D03*
%TO.N,Motor2_FLT*%
X119750000Y-84090000D03*
%TO.N,Motor2_M2*%
X119750000Y-89170000D03*
%TO.N,Motor2_M0*%
X119750000Y-86630000D03*
%TO.N,SCL*%
X137250000Y-87900000D03*
X141782800Y-99888800D03*
%TO.N,SDA*%
X141681200Y-103936800D03*
X137250000Y-86630000D03*
%TO.N,FAN_Tach_i*%
X139852400Y-102514400D03*
X137250000Y-94250000D03*
%TO.N,FAN_En_o*%
X137250000Y-95520000D03*
%TO.N,3V3*%
X141782800Y-101888800D03*
X140200000Y-86000000D03*
X105692000Y-80264000D03*
X116848000Y-81946500D03*
X141681200Y-105936800D03*
X108079235Y-91394765D03*
X119750000Y-81550000D03*
X101113500Y-92088000D03*
X135331200Y-105428800D03*
X127863600Y-107137200D03*
X93450500Y-108458000D03*
X113796658Y-82040185D03*
X101092000Y-85852000D03*
%TO.N,TX*%
X137250000Y-84090000D03*
%TO.N,RX*%
X137250000Y-85360000D03*
%TO.N,IO2*%
X137250000Y-82820000D03*
%TO.N,IO1*%
X137250000Y-81550000D03*
%TD*%
D49*
%TO.N,Net-(mosfet4-G)*%
X89408000Y-109872500D02*
X86281500Y-106746000D01*
X89408000Y-109966000D02*
X89408000Y-109872500D01*
%TO.N,mosfet1_o*%
X82882500Y-109220000D02*
X84406500Y-107696000D01*
X79756000Y-109220000D02*
X82882500Y-109220000D01*
%TO.N,mosfet1_i*%
X89408000Y-107966000D02*
X90916000Y-107966000D01*
X90916000Y-107966000D02*
X93345000Y-105537000D01*
%TO.N,Net-(mosfet4-G)*%
X88993500Y-109966000D02*
X89408000Y-109966000D01*
%TO.N,mosfet1_i*%
X127865000Y-98990000D02*
X127865000Y-98040000D01*
X127541000Y-99314000D02*
X127865000Y-98990000D01*
X105156000Y-99314000D02*
X126746000Y-99314000D01*
X104394000Y-98552000D02*
X104648000Y-98806000D01*
X126746000Y-99314000D02*
X127541000Y-99314000D01*
X104648000Y-98806000D02*
X105156000Y-99314000D01*
X100330000Y-98552000D02*
X104394000Y-98552000D01*
%TO.N,Therm-*%
X95525500Y-108995300D02*
X90017600Y-114503200D01*
X95525500Y-108458000D02*
X95525500Y-108995300D01*
X100838000Y-107442000D02*
X96541500Y-107442000D01*
X96541500Y-107442000D02*
X95525500Y-108458000D01*
X100838000Y-103378000D02*
X100838000Y-107442000D01*
X104140000Y-100076000D02*
X100838000Y-103378000D01*
D50*
%TO.N,+5V*%
X93746000Y-92710000D02*
X93746000Y-100062000D01*
X93746000Y-100062000D02*
X93478000Y-100330000D01*
X93746000Y-90875500D02*
X93746000Y-92710000D01*
X98833500Y-85788000D02*
X93746000Y-90875500D01*
D49*
%TO.N,R_EN*%
X128557000Y-102108000D02*
X131675000Y-98990000D01*
X105982000Y-114508801D02*
X118382801Y-102108000D01*
X105982000Y-114554000D02*
X105982000Y-114508801D01*
X118382801Y-102108000D02*
X128557000Y-102108000D01*
X131675000Y-98990000D02*
X131675000Y-98040000D01*
%TO.N,L_EN*%
X117398800Y-101092000D02*
X128303000Y-101092000D01*
X103982000Y-114508800D02*
X117398800Y-101092000D01*
X128303000Y-101092000D02*
X130405000Y-98990000D01*
X130405000Y-98990000D02*
X130405000Y-98040000D01*
X103982000Y-114554000D02*
X103982000Y-114508800D01*
%TO.N,LPWM*%
X132945000Y-98990000D02*
X132945000Y-98040000D01*
X128811000Y-103124000D02*
X132945000Y-98990000D01*
X107982000Y-114508800D02*
X119366800Y-103124000D01*
X119366800Y-103124000D02*
X128811000Y-103124000D01*
X107982000Y-114554000D02*
X107982000Y-114508800D01*
%TO.N,RPWM*%
X129065000Y-104140000D02*
X134215000Y-98990000D01*
X134215000Y-98990000D02*
X134215000Y-98040000D01*
X120345200Y-104140000D02*
X129065000Y-104140000D01*
X109982000Y-114503200D02*
X120345200Y-104140000D01*
X109982000Y-114554000D02*
X109982000Y-114503200D01*
X109931200Y-114604800D02*
X109982000Y-114554000D01*
X109886001Y-114604800D02*
X109931200Y-114604800D01*
%TO.N,24V_unsafe*%
X84111600Y-75946000D02*
X87376000Y-75946000D01*
X82711800Y-77345800D02*
X84111600Y-75946000D01*
%TO.N,Net-(D5-K)*%
X89154000Y-78200000D02*
X89122000Y-78232000D01*
X89154000Y-76200000D02*
X89154000Y-78200000D01*
D51*
%TO.N,24V_unsafe*%
X82711800Y-81949800D02*
X82711800Y-79146400D01*
X82804000Y-82042000D02*
X82711800Y-81949800D01*
D49*
%TO.N,Net-(D4-K)*%
X107442000Y-80264000D02*
X109220000Y-80264000D01*
%TO.N,En*%
X138682000Y-81282000D02*
X139190000Y-81790000D01*
X142814400Y-81983400D02*
X140614400Y-81983400D01*
X141600000Y-82400000D02*
X142725000Y-83525000D01*
X139190000Y-82990000D02*
X141200000Y-85000000D01*
X141600000Y-82075000D02*
X141600000Y-82400000D01*
X141200000Y-85000000D02*
X142725000Y-85000000D01*
X139190000Y-81790000D02*
X139190000Y-82990000D01*
X142725000Y-83525000D02*
X142725000Y-85000000D01*
D52*
%TO.N,+5V*%
X97234000Y-78988000D02*
X100498000Y-78988000D01*
D49*
X101285000Y-80614000D02*
X101316000Y-80583000D01*
D52*
X93472000Y-85322000D02*
X93472000Y-82705920D01*
D50*
X94256000Y-86106000D02*
X94256000Y-90269600D01*
D52*
X94440720Y-81737200D02*
X96186800Y-81737200D01*
X94256000Y-86106000D02*
X93472000Y-85322000D01*
D49*
X98833500Y-85788000D02*
X98972160Y-85788000D01*
D52*
X96186800Y-81737200D02*
X96416000Y-81508000D01*
X93472000Y-82705920D02*
X94440720Y-81737200D01*
X100498000Y-78988000D02*
X101316000Y-79806000D01*
X96416000Y-80583000D02*
X96416000Y-79806000D01*
X101316000Y-79806000D02*
X101316000Y-80583000D01*
X96416000Y-81508000D02*
X96416000Y-80583000D01*
X96416000Y-79806000D02*
X97234000Y-78988000D01*
D49*
%TO.N,D-*%
X107562200Y-83965803D02*
X119116397Y-95520000D01*
X119116397Y-95520000D02*
X119750000Y-95520000D01*
X99199457Y-81609000D02*
X100081057Y-82490600D01*
X99567000Y-81609000D02*
X99616000Y-81560000D01*
X98665000Y-81609000D02*
X99199457Y-81609000D01*
X107562200Y-82677640D02*
X107562200Y-83965803D01*
X98616000Y-81560000D02*
X98665000Y-81609000D01*
X98665000Y-80583000D02*
X98665000Y-81609000D01*
X99110800Y-81609000D02*
X99567000Y-81609000D01*
X107246360Y-82361800D02*
X107562200Y-82677640D01*
X98616000Y-80583000D02*
X98665000Y-80583000D01*
X98665000Y-81609000D02*
X99110800Y-81609000D01*
X106076040Y-82361800D02*
X107246360Y-82361800D01*
X99616000Y-81560000D02*
X99616000Y-80583000D01*
X98616000Y-80583000D02*
X98616000Y-81560000D01*
X105947241Y-82490600D02*
X106076040Y-82361800D01*
X100081057Y-82490600D02*
X105947241Y-82490600D01*
%TO.N,Net-(J1-CC1)*%
X100116000Y-80583000D02*
X100116000Y-81675600D01*
X100116000Y-81675600D02*
X100330000Y-81889600D01*
%TO.N,Net-(J1-CC2)*%
X96686000Y-82988000D02*
X97116000Y-82558000D01*
X97116000Y-82558000D02*
X97116000Y-80583000D01*
%TO.N,D+*%
X98165000Y-81745368D02*
X99360212Y-82940580D01*
X98116000Y-80583000D02*
X98165000Y-80632000D01*
X98165000Y-79557000D02*
X99067000Y-79557000D01*
X98165000Y-80632000D02*
X98165000Y-81745368D01*
X99116000Y-79606000D02*
X99116000Y-80583000D01*
X99067000Y-79557000D02*
X99116000Y-79606000D01*
X118699000Y-96271000D02*
X119231000Y-96271000D01*
X107323800Y-84363800D02*
X118699000Y-95739000D01*
X99360212Y-82940580D02*
X104652820Y-82940580D01*
X104652820Y-82940580D02*
X106076040Y-84363800D01*
X106076040Y-84363800D02*
X107323800Y-84363800D01*
X98116000Y-80583000D02*
X98116000Y-79606000D01*
X118699000Y-95739000D02*
X118699000Y-96271000D01*
X119231000Y-96271000D02*
X119750000Y-96790000D01*
X98116000Y-79606000D02*
X98165000Y-79557000D01*
%TO.N,BOOT*%
X140000000Y-90200000D02*
X139700000Y-90500000D01*
X140000000Y-90200000D02*
X140000000Y-91140000D01*
X140000000Y-91140000D02*
X139700000Y-91440000D01*
X138200000Y-96790000D02*
X137250000Y-96790000D01*
X139446000Y-95544000D02*
X138200000Y-96790000D01*
D50*
%TO.N,+24V*%
X55890000Y-85852000D02*
X56134000Y-85608000D01*
D49*
X55642000Y-86100000D02*
X56134000Y-85608000D01*
D53*
X116078000Y-115925600D02*
X82683600Y-115925600D01*
X82683600Y-115925600D02*
X80702400Y-113944400D01*
D49*
X56472000Y-85608000D02*
X56134000Y-85608000D01*
D53*
X116078000Y-115925600D02*
X117246400Y-114757200D01*
X133248400Y-115925600D02*
X116078000Y-115925600D01*
D49*
X56632000Y-85608000D02*
X56134000Y-85608000D01*
D53*
X117246400Y-114757200D02*
X117246400Y-114350800D01*
X135026400Y-114147600D02*
X133248400Y-115925600D01*
D49*
%TO.N,Net-(Boot1-Pad1)*%
X140000000Y-88200000D02*
X142125000Y-88200000D01*
X142125000Y-88200000D02*
X142725000Y-88800000D01*
%TO.N,SCL*%
X144405999Y-99888800D02*
X146089000Y-101571801D01*
X141782800Y-99888800D02*
X144405999Y-99888800D01*
%TO.N,SDA*%
X145724000Y-103936800D02*
X146089000Y-103571800D01*
X141681200Y-103936800D02*
X145724000Y-103936800D01*
%TO.N,FAN_Tach_i*%
X139852400Y-102514400D02*
X138938000Y-103428800D01*
X138938000Y-103428800D02*
X135331200Y-103428800D01*
%TO.N,Hall_i*%
X130708400Y-103987600D02*
X135485000Y-99211000D01*
X128593601Y-114300000D02*
X130708400Y-112185201D01*
X130708400Y-112185201D02*
X130708400Y-103987600D01*
X135485000Y-99211000D02*
X135485000Y-98040000D01*
%TO.N,mosfet1_o*%
X82702400Y-113639600D02*
X79756000Y-110693200D01*
X82702400Y-113944400D02*
X82702400Y-113639600D01*
X79756000Y-110693200D02*
X79756000Y-109220000D01*
%TO.N,Therm-*%
X104140000Y-100076000D02*
X128016000Y-100076000D01*
X128821000Y-98095000D02*
X128892000Y-98024000D01*
X128016000Y-100076000D02*
X129135000Y-98957000D01*
X129135000Y-98957000D02*
X129135000Y-98040000D01*
D50*
%TO.N,3V3*%
X101113500Y-92088000D02*
X101113500Y-85788000D01*
D49*
%TO.N,IO38*%
X141732000Y-95758000D02*
X142240000Y-95758000D01*
X138229000Y-92255000D02*
X141732000Y-95758000D01*
X138192000Y-91710000D02*
X138229000Y-91747000D01*
X137250000Y-91710000D02*
X138192000Y-91710000D01*
X138229000Y-91747000D02*
X138229000Y-92255000D01*
%TO.N,IO40*%
X137782000Y-89170000D02*
X138999000Y-90387000D01*
X138999000Y-91588943D02*
X140628057Y-93218000D01*
X140628057Y-93218000D02*
X142240000Y-93218000D01*
X138999000Y-90387000D02*
X138999000Y-91588943D01*
X137250000Y-89170000D02*
X137782000Y-89170000D01*
%TO.N,IO39*%
X141224000Y-94488000D02*
X142240000Y-94488000D01*
X137250000Y-90440000D02*
X138200000Y-90440000D01*
X138200000Y-90440000D02*
X138557000Y-90797000D01*
X138557000Y-91821000D02*
X141224000Y-94488000D01*
X138557000Y-90797000D02*
X138557000Y-91821000D01*
%TO.N,IO37*%
X138192000Y-92980000D02*
X142240000Y-97028000D01*
X137250000Y-92980000D02*
X138192000Y-92980000D01*
D51*
%TO.N,24V_unsafe*%
X82711800Y-77345800D02*
X80804000Y-75438000D01*
X80804000Y-75438000D02*
X80804000Y-74422000D01*
X82711800Y-79146400D02*
X82711800Y-77345800D01*
D49*
%TO.N,mosfet1_i*%
X100330000Y-98552000D02*
X93345000Y-105537000D01*
%TD*%
%TA.AperFunction,Conductor*%
%TO.N,+24V*%
G36*
X90709314Y-73037185D02*
G01*
X90755069Y-73089989D01*
X90766270Y-73142591D01*
X90664707Y-84682591D01*
X90644433Y-84749455D01*
X90591229Y-84794743D01*
X90540712Y-84805500D01*
X89555998Y-84805500D01*
X89555980Y-84805501D01*
X89453203Y-84816000D01*
X89453200Y-84816001D01*
X89286668Y-84871185D01*
X89286663Y-84871187D01*
X89137342Y-84963289D01*
X89013289Y-85087342D01*
X88921187Y-85236663D01*
X88921185Y-85236668D01*
X88893349Y-85320670D01*
X88866001Y-85403203D01*
X88866001Y-85403204D01*
X88866000Y-85403204D01*
X88855500Y-85505983D01*
X88855500Y-86706001D01*
X88855501Y-86706018D01*
X88866000Y-86808796D01*
X88866001Y-86808799D01*
X88899039Y-86908499D01*
X88921186Y-86975334D01*
X89013288Y-87124656D01*
X89137344Y-87248712D01*
X89286666Y-87340814D01*
X89453203Y-87395999D01*
X89555991Y-87406500D01*
X90515640Y-87406499D01*
X90582678Y-87426183D01*
X90628433Y-87478987D01*
X90639634Y-87531590D01*
X90606799Y-91262485D01*
X90586525Y-91329349D01*
X90539100Y-91371878D01*
X90414811Y-91435208D01*
X90270377Y-91540144D01*
X90204570Y-91563623D01*
X90136516Y-91547797D01*
X90087822Y-91497691D01*
X90081309Y-91483155D01*
X90079353Y-91477912D01*
X90079350Y-91477906D01*
X89993190Y-91362812D01*
X89993187Y-91362809D01*
X89878093Y-91276649D01*
X89878086Y-91276645D01*
X89743379Y-91226403D01*
X89743372Y-91226401D01*
X89683844Y-91220000D01*
X88896000Y-91220000D01*
X88896000Y-92099175D01*
X88838515Y-92075364D01*
X88711004Y-92050000D01*
X88580996Y-92050000D01*
X88453485Y-92075364D01*
X88396000Y-92099175D01*
X88396000Y-91220000D01*
X87608155Y-91220000D01*
X87548627Y-91226401D01*
X87548620Y-91226403D01*
X87413913Y-91276645D01*
X87413906Y-91276649D01*
X87298812Y-91362809D01*
X87298809Y-91362812D01*
X87212649Y-91477906D01*
X87212645Y-91477913D01*
X87162403Y-91612620D01*
X87162401Y-91612627D01*
X87156000Y-91672155D01*
X87156000Y-92460000D01*
X88035175Y-92460000D01*
X88011364Y-92517485D01*
X87986000Y-92644996D01*
X87986000Y-92775004D01*
X88011364Y-92902515D01*
X88035175Y-92960000D01*
X87156000Y-92960000D01*
X87156000Y-93747844D01*
X87162401Y-93807372D01*
X87162403Y-93807379D01*
X87212645Y-93942086D01*
X87212649Y-93942093D01*
X87298809Y-94057187D01*
X87298812Y-94057190D01*
X87413906Y-94143350D01*
X87413913Y-94143354D01*
X87548620Y-94193596D01*
X87548627Y-94193598D01*
X87608155Y-94199999D01*
X87608172Y-94200000D01*
X88396000Y-94200000D01*
X88396000Y-93320824D01*
X88453485Y-93344636D01*
X88580996Y-93370000D01*
X88711004Y-93370000D01*
X88838515Y-93344636D01*
X88896000Y-93320824D01*
X88896000Y-94200000D01*
X89683828Y-94200000D01*
X89683844Y-94199999D01*
X89743372Y-94193598D01*
X89743379Y-94193596D01*
X89878086Y-94143354D01*
X89878093Y-94143350D01*
X89993187Y-94057190D01*
X89993190Y-94057187D01*
X90079350Y-93942093D01*
X90079353Y-93942087D01*
X90081308Y-93936847D01*
X90123176Y-93880911D01*
X90188639Y-93856490D01*
X90256913Y-93871338D01*
X90270377Y-93879856D01*
X90356032Y-93942087D01*
X90414808Y-93984790D01*
X90513714Y-94035185D01*
X90564510Y-94083160D01*
X90581414Y-94146761D01*
X90469261Y-106890167D01*
X90448987Y-106957031D01*
X90395783Y-107002319D01*
X90326539Y-107011654D01*
X90280170Y-106994615D01*
X90177340Y-106931189D01*
X90177335Y-106931187D01*
X90177334Y-106931186D01*
X90010797Y-106876001D01*
X90010795Y-106876000D01*
X89908010Y-106865500D01*
X88907998Y-106865500D01*
X88907980Y-106865501D01*
X88805203Y-106876000D01*
X88805200Y-106876001D01*
X88638668Y-106931185D01*
X88638663Y-106931187D01*
X88489342Y-107023289D01*
X88365289Y-107147342D01*
X88273187Y-107296663D01*
X88273185Y-107296668D01*
X88258708Y-107340358D01*
X88218001Y-107463203D01*
X88218001Y-107463204D01*
X88218000Y-107463204D01*
X88210219Y-107539368D01*
X88183822Y-107604059D01*
X88126641Y-107644210D01*
X88056830Y-107647072D01*
X87999181Y-107614445D01*
X87780240Y-107395505D01*
X87538445Y-107153709D01*
X87504960Y-107092386D01*
X87507050Y-107031432D01*
X87516598Y-106998569D01*
X87519500Y-106961694D01*
X87519500Y-106530306D01*
X87516598Y-106493431D01*
X87470744Y-106335602D01*
X87387081Y-106194135D01*
X87387079Y-106194133D01*
X87387076Y-106194129D01*
X87270870Y-106077923D01*
X87270862Y-106077917D01*
X87129396Y-105994255D01*
X87129393Y-105994254D01*
X86971573Y-105948402D01*
X86971567Y-105948401D01*
X86934701Y-105945500D01*
X86934694Y-105945500D01*
X85628306Y-105945500D01*
X85628298Y-105945500D01*
X85591432Y-105948401D01*
X85591426Y-105948402D01*
X85433606Y-105994254D01*
X85433603Y-105994255D01*
X85292137Y-106077917D01*
X85292129Y-106077923D01*
X85175923Y-106194129D01*
X85175917Y-106194137D01*
X85092255Y-106335603D01*
X85092254Y-106335606D01*
X85046402Y-106493426D01*
X85046401Y-106493432D01*
X85043500Y-106530298D01*
X85043500Y-106771500D01*
X85023815Y-106838539D01*
X84971011Y-106884294D01*
X84919500Y-106895500D01*
X83753298Y-106895500D01*
X83716432Y-106898401D01*
X83716426Y-106898402D01*
X83558606Y-106944254D01*
X83558603Y-106944255D01*
X83417137Y-107027917D01*
X83417129Y-107027923D01*
X83300923Y-107144129D01*
X83300917Y-107144137D01*
X83217255Y-107285603D01*
X83217254Y-107285606D01*
X83171402Y-107443426D01*
X83171401Y-107443432D01*
X83168500Y-107480298D01*
X83168500Y-107911701D01*
X83171401Y-107948563D01*
X83171403Y-107948572D01*
X83180950Y-107981435D01*
X83180749Y-108051305D01*
X83149554Y-108103709D01*
X82670084Y-108583181D01*
X82608761Y-108616666D01*
X82582403Y-108619500D01*
X81280499Y-108619500D01*
X81213460Y-108599815D01*
X81167705Y-108547011D01*
X81156499Y-108495500D01*
X81156499Y-108169998D01*
X81156498Y-108169981D01*
X81145999Y-108067203D01*
X81145998Y-108067200D01*
X81117578Y-107981435D01*
X81090814Y-107900666D01*
X80998712Y-107751344D01*
X80874656Y-107627288D01*
X80725334Y-107535186D01*
X80558797Y-107480001D01*
X80558795Y-107480000D01*
X80456010Y-107469500D01*
X79055998Y-107469500D01*
X79055981Y-107469501D01*
X78953203Y-107480000D01*
X78953200Y-107480001D01*
X78786668Y-107535185D01*
X78786663Y-107535187D01*
X78637342Y-107627289D01*
X78513289Y-107751342D01*
X78421187Y-107900663D01*
X78421185Y-107900668D01*
X78417529Y-107911701D01*
X78366001Y-108067203D01*
X78366001Y-108067204D01*
X78366000Y-108067204D01*
X78355500Y-108169983D01*
X78355500Y-110270001D01*
X78355501Y-110270018D01*
X78366000Y-110372796D01*
X78366001Y-110372799D01*
X78397812Y-110468796D01*
X78421186Y-110539334D01*
X78513288Y-110688656D01*
X78637344Y-110812712D01*
X78786666Y-110904814D01*
X78953203Y-110959999D01*
X79055991Y-110970500D01*
X79151109Y-110970499D01*
X79218147Y-110990183D01*
X79243544Y-111011844D01*
X79252087Y-111021398D01*
X79275480Y-111061916D01*
X79387284Y-111173720D01*
X79387286Y-111173721D01*
X79396810Y-111183245D01*
X80792284Y-112578719D01*
X80825769Y-112640042D01*
X80820785Y-112709734D01*
X80778913Y-112765667D01*
X80713449Y-112790084D01*
X80704603Y-112790400D01*
X80611579Y-112790400D01*
X80432174Y-112818815D01*
X80259415Y-112874948D01*
X80097570Y-112957412D01*
X80097561Y-112957418D01*
X80081003Y-112969448D01*
X80081002Y-112969449D01*
X80655954Y-113544400D01*
X80649739Y-113544400D01*
X80548006Y-113571659D01*
X80456794Y-113624320D01*
X80382320Y-113698794D01*
X80329659Y-113790006D01*
X80302400Y-113891739D01*
X80302400Y-113897953D01*
X79727449Y-113323002D01*
X79727448Y-113323003D01*
X79715418Y-113339561D01*
X79715412Y-113339570D01*
X79632948Y-113501415D01*
X79576815Y-113674174D01*
X79548400Y-113853578D01*
X79548400Y-114035221D01*
X79576815Y-114214625D01*
X79632948Y-114387384D01*
X79715412Y-114549230D01*
X79715414Y-114549234D01*
X79727448Y-114565795D01*
X79727449Y-114565796D01*
X80302400Y-113990845D01*
X80302400Y-113997061D01*
X80329659Y-114098794D01*
X80382320Y-114190006D01*
X80456794Y-114264480D01*
X80548006Y-114317141D01*
X80649739Y-114344400D01*
X80655954Y-114344400D01*
X80081002Y-114919349D01*
X80081003Y-114919350D01*
X80097565Y-114931385D01*
X80097579Y-114931393D01*
X80259412Y-115013850D01*
X80432174Y-115069984D01*
X80611579Y-115098400D01*
X80793221Y-115098400D01*
X80972625Y-115069984D01*
X81145384Y-115013851D01*
X81307231Y-114931386D01*
X81323796Y-114919349D01*
X80748847Y-114344400D01*
X80755061Y-114344400D01*
X80856794Y-114317141D01*
X80948006Y-114264480D01*
X81022480Y-114190006D01*
X81075141Y-114098794D01*
X81102400Y-113997061D01*
X81102400Y-113990846D01*
X81511581Y-114400027D01*
X81545066Y-114461350D01*
X81547900Y-114487707D01*
X81547900Y-114646269D01*
X81547901Y-114646276D01*
X81554308Y-114705883D01*
X81604602Y-114840728D01*
X81604606Y-114840735D01*
X81690852Y-114955944D01*
X81690855Y-114955947D01*
X81806064Y-115042193D01*
X81806071Y-115042197D01*
X81940917Y-115092491D01*
X81940916Y-115092491D01*
X81947844Y-115093235D01*
X82000527Y-115098900D01*
X83404272Y-115098899D01*
X83463883Y-115092491D01*
X83598731Y-115042196D01*
X83713946Y-114955946D01*
X83800196Y-114840731D01*
X83850491Y-114705883D01*
X83856900Y-114646273D01*
X83856899Y-113242528D01*
X83850491Y-113182917D01*
X83800196Y-113048069D01*
X83800195Y-113048068D01*
X83800193Y-113048064D01*
X83713947Y-112932855D01*
X83713944Y-112932852D01*
X83598735Y-112846606D01*
X83598728Y-112846602D01*
X83463882Y-112796308D01*
X83463883Y-112796308D01*
X83404283Y-112789901D01*
X83404281Y-112789900D01*
X83404273Y-112789900D01*
X83404265Y-112789900D01*
X82753297Y-112789900D01*
X82686258Y-112770215D01*
X82665616Y-112753581D01*
X80887382Y-110975347D01*
X80853897Y-110914024D01*
X80858881Y-110844332D01*
X80887378Y-110799989D01*
X80998712Y-110688656D01*
X81090814Y-110539334D01*
X81145999Y-110372797D01*
X81156500Y-110270009D01*
X81156500Y-109944500D01*
X81176185Y-109877461D01*
X81228989Y-109831706D01*
X81280500Y-109820500D01*
X82795831Y-109820500D01*
X82795847Y-109820501D01*
X82803443Y-109820501D01*
X82961554Y-109820501D01*
X82961557Y-109820501D01*
X83114285Y-109779577D01*
X83192852Y-109734216D01*
X83251216Y-109700520D01*
X83363020Y-109588716D01*
X83363020Y-109588714D01*
X83373224Y-109578511D01*
X83373227Y-109578506D01*
X84418916Y-108532819D01*
X84480239Y-108499334D01*
X84506597Y-108496500D01*
X84919500Y-108496500D01*
X84986539Y-108516185D01*
X85032294Y-108568989D01*
X85043500Y-108620500D01*
X85043500Y-108861701D01*
X85046401Y-108898567D01*
X85046402Y-108898573D01*
X85092254Y-109056393D01*
X85092255Y-109056396D01*
X85175917Y-109197862D01*
X85175923Y-109197870D01*
X85292129Y-109314076D01*
X85292133Y-109314079D01*
X85292135Y-109314081D01*
X85433602Y-109397744D01*
X85475224Y-109409836D01*
X85591426Y-109443597D01*
X85591429Y-109443597D01*
X85591431Y-109443598D01*
X85628306Y-109446500D01*
X85628314Y-109446500D01*
X86934686Y-109446500D01*
X86934694Y-109446500D01*
X86971569Y-109443598D01*
X86971571Y-109443597D01*
X86971573Y-109443597D01*
X87013191Y-109431505D01*
X87129398Y-109397744D01*
X87270865Y-109314081D01*
X87387081Y-109197865D01*
X87470744Y-109056398D01*
X87473462Y-109047041D01*
X87511069Y-108988156D01*
X87574541Y-108958949D01*
X87643728Y-108968695D01*
X87680219Y-108993954D01*
X88171182Y-109484918D01*
X88204666Y-109546239D01*
X88207500Y-109572597D01*
X88207500Y-110366001D01*
X88207501Y-110366019D01*
X88218000Y-110468796D01*
X88218001Y-110468799D01*
X88241375Y-110539336D01*
X88273186Y-110635334D01*
X88365288Y-110784656D01*
X88489344Y-110908712D01*
X88638666Y-111000814D01*
X88805203Y-111055999D01*
X88907991Y-111066500D01*
X89908008Y-111066499D01*
X89908016Y-111066498D01*
X89908019Y-111066498D01*
X89964302Y-111060748D01*
X90010797Y-111055999D01*
X90177334Y-111000814D01*
X90243412Y-110960056D01*
X90310804Y-110941616D01*
X90377468Y-110962538D01*
X90422238Y-111016180D01*
X90432504Y-111066686D01*
X90413662Y-113207623D01*
X90404911Y-113236482D01*
X90398500Y-113265957D01*
X90394254Y-113271627D01*
X90393388Y-113274487D01*
X90377349Y-113294212D01*
X90338224Y-113333338D01*
X90276902Y-113366824D01*
X90231144Y-113368131D01*
X90148220Y-113354997D01*
X90108461Y-113348700D01*
X89926739Y-113348700D01*
X89866910Y-113358176D01*
X89747252Y-113377128D01*
X89747249Y-113377128D01*
X89574428Y-113433281D01*
X89574425Y-113433283D01*
X89412509Y-113515783D01*
X89373122Y-113544400D01*
X89265494Y-113622597D01*
X89265492Y-113622599D01*
X89265491Y-113622599D01*
X89136999Y-113751091D01*
X89136999Y-113751092D01*
X89136997Y-113751094D01*
X89124988Y-113767623D01*
X89030183Y-113898109D01*
X88947683Y-114060025D01*
X88947681Y-114060028D01*
X88891528Y-114232849D01*
X88891528Y-114232852D01*
X88863100Y-114412339D01*
X88863100Y-114594060D01*
X88891528Y-114773547D01*
X88891528Y-114773550D01*
X88947681Y-114946371D01*
X88947683Y-114946374D01*
X89030183Y-115108290D01*
X89136997Y-115255306D01*
X89265494Y-115383803D01*
X89412510Y-115490617D01*
X89574426Y-115573117D01*
X89574428Y-115573118D01*
X89735629Y-115625494D01*
X89747254Y-115629272D01*
X89926739Y-115657700D01*
X89926740Y-115657700D01*
X90108460Y-115657700D01*
X90108461Y-115657700D01*
X90247814Y-115635628D01*
X90317106Y-115644582D01*
X90370558Y-115689578D01*
X90391198Y-115756330D01*
X90391206Y-115759192D01*
X90390504Y-115839027D01*
X90389426Y-115961618D01*
X90389417Y-115962591D01*
X90369144Y-116029454D01*
X90315939Y-116074743D01*
X90265422Y-116085500D01*
X74196578Y-116085500D01*
X74129539Y-116065815D01*
X74083784Y-116013011D01*
X74073840Y-115943853D01*
X74102865Y-115880297D01*
X74161643Y-115842523D01*
X74177180Y-115839027D01*
X74218534Y-115832477D01*
X74413219Y-115769220D01*
X74595610Y-115676287D01*
X74688590Y-115608732D01*
X74761213Y-115555971D01*
X74761215Y-115555968D01*
X74761219Y-115555966D01*
X74905966Y-115411219D01*
X74905968Y-115411215D01*
X74905971Y-115411213D01*
X74958732Y-115338590D01*
X75026287Y-115245610D01*
X75119220Y-115063219D01*
X75182477Y-114868534D01*
X75214500Y-114666352D01*
X75214500Y-114461648D01*
X75202738Y-114387384D01*
X75182477Y-114259465D01*
X75119218Y-114064776D01*
X75037808Y-113905001D01*
X75037807Y-113904999D01*
X75026286Y-113882388D01*
X74905971Y-113716786D01*
X74761213Y-113572028D01*
X74595613Y-113451715D01*
X74595612Y-113451714D01*
X74595610Y-113451713D01*
X74538653Y-113422691D01*
X74413223Y-113358781D01*
X74218534Y-113295522D01*
X74043995Y-113267878D01*
X74016352Y-113263500D01*
X73811648Y-113263500D01*
X73787329Y-113267351D01*
X73609465Y-113295522D01*
X73414776Y-113358781D01*
X73232386Y-113451715D01*
X73066786Y-113572028D01*
X72922028Y-113716786D01*
X72801715Y-113882386D01*
X72754485Y-113975080D01*
X72706510Y-114025876D01*
X72638689Y-114042671D01*
X72572554Y-114020134D01*
X72533515Y-113975080D01*
X72532883Y-113973840D01*
X72486287Y-113882390D01*
X72402905Y-113767623D01*
X72365971Y-113716786D01*
X72221213Y-113572028D01*
X72055613Y-113451715D01*
X72055612Y-113451714D01*
X72055610Y-113451713D01*
X71998653Y-113422691D01*
X71873223Y-113358781D01*
X71678534Y-113295522D01*
X71503995Y-113267878D01*
X71476352Y-113263500D01*
X71271648Y-113263500D01*
X71247329Y-113267351D01*
X71069465Y-113295522D01*
X70874776Y-113358781D01*
X70692386Y-113451715D01*
X70526786Y-113572028D01*
X70382028Y-113716786D01*
X70261715Y-113882386D01*
X70214485Y-113975080D01*
X70166510Y-114025876D01*
X70098689Y-114042671D01*
X70032554Y-114020134D01*
X69993515Y-113975080D01*
X69992883Y-113973840D01*
X69946287Y-113882390D01*
X69862905Y-113767623D01*
X69825971Y-113716786D01*
X69681213Y-113572028D01*
X69515613Y-113451715D01*
X69515612Y-113451714D01*
X69515610Y-113451713D01*
X69458653Y-113422691D01*
X69333223Y-113358781D01*
X69138534Y-113295522D01*
X68963995Y-113267878D01*
X68936352Y-113263500D01*
X68731648Y-113263500D01*
X68707329Y-113267351D01*
X68529465Y-113295522D01*
X68334776Y-113358781D01*
X68152386Y-113451715D01*
X67986786Y-113572028D01*
X67842028Y-113716786D01*
X67721715Y-113882386D01*
X67674485Y-113975080D01*
X67626510Y-114025876D01*
X67558689Y-114042671D01*
X67492554Y-114020134D01*
X67453515Y-113975080D01*
X67452883Y-113973840D01*
X67406287Y-113882390D01*
X67322905Y-113767623D01*
X67285971Y-113716786D01*
X67141213Y-113572028D01*
X66975613Y-113451715D01*
X66975612Y-113451714D01*
X66975610Y-113451713D01*
X66918653Y-113422691D01*
X66793223Y-113358781D01*
X66598534Y-113295522D01*
X66423995Y-113267878D01*
X66396352Y-113263500D01*
X66191648Y-113263500D01*
X66167329Y-113267351D01*
X65989465Y-113295522D01*
X65794776Y-113358781D01*
X65612386Y-113451715D01*
X65446786Y-113572028D01*
X65302028Y-113716786D01*
X65181715Y-113882386D01*
X65134485Y-113975080D01*
X65086510Y-114025876D01*
X65018689Y-114042671D01*
X64952554Y-114020134D01*
X64913515Y-113975080D01*
X64912883Y-113973840D01*
X64866287Y-113882390D01*
X64782905Y-113767623D01*
X64745971Y-113716786D01*
X64601213Y-113572028D01*
X64435613Y-113451715D01*
X64435612Y-113451714D01*
X64435610Y-113451713D01*
X64378653Y-113422691D01*
X64253223Y-113358781D01*
X64058534Y-113295522D01*
X63883995Y-113267878D01*
X63856352Y-113263500D01*
X63651648Y-113263500D01*
X63627329Y-113267351D01*
X63449465Y-113295522D01*
X63254776Y-113358781D01*
X63072386Y-113451715D01*
X62906786Y-113572028D01*
X62762028Y-113716786D01*
X62641715Y-113882386D01*
X62594485Y-113975080D01*
X62546510Y-114025876D01*
X62478689Y-114042671D01*
X62412554Y-114020134D01*
X62373515Y-113975080D01*
X62372883Y-113973840D01*
X62326287Y-113882390D01*
X62242905Y-113767623D01*
X62205971Y-113716786D01*
X62061213Y-113572028D01*
X61895613Y-113451715D01*
X61895612Y-113451714D01*
X61895610Y-113451713D01*
X61838653Y-113422691D01*
X61713223Y-113358781D01*
X61518534Y-113295522D01*
X61343995Y-113267878D01*
X61316352Y-113263500D01*
X61111648Y-113263500D01*
X61087329Y-113267351D01*
X60909465Y-113295522D01*
X60714776Y-113358781D01*
X60532386Y-113451715D01*
X60366786Y-113572028D01*
X60222028Y-113716786D01*
X60101715Y-113882386D01*
X60054485Y-113975080D01*
X60006510Y-114025876D01*
X59938689Y-114042671D01*
X59872554Y-114020134D01*
X59833515Y-113975080D01*
X59832883Y-113973840D01*
X59786287Y-113882390D01*
X59702905Y-113767623D01*
X59665971Y-113716786D01*
X59521213Y-113572028D01*
X59355613Y-113451715D01*
X59355612Y-113451714D01*
X59355610Y-113451713D01*
X59298653Y-113422691D01*
X59173223Y-113358781D01*
X58978534Y-113295522D01*
X58803995Y-113267878D01*
X58776352Y-113263500D01*
X58571648Y-113263500D01*
X58547329Y-113267351D01*
X58369465Y-113295522D01*
X58174776Y-113358781D01*
X57992386Y-113451715D01*
X57826786Y-113572028D01*
X57682028Y-113716786D01*
X57561715Y-113882386D01*
X57514485Y-113975080D01*
X57466510Y-114025876D01*
X57398689Y-114042671D01*
X57332554Y-114020134D01*
X57293515Y-113975080D01*
X57292883Y-113973840D01*
X57246287Y-113882390D01*
X57162905Y-113767623D01*
X57125971Y-113716786D01*
X56981213Y-113572028D01*
X56815613Y-113451715D01*
X56815612Y-113451714D01*
X56815610Y-113451713D01*
X56758653Y-113422691D01*
X56633223Y-113358781D01*
X56438534Y-113295522D01*
X56263995Y-113267878D01*
X56236352Y-113263500D01*
X56031648Y-113263500D01*
X56007329Y-113267351D01*
X55829465Y-113295522D01*
X55634776Y-113358781D01*
X55452386Y-113451715D01*
X55286786Y-113572028D01*
X55142028Y-113716786D01*
X55021715Y-113882386D01*
X54928781Y-114064776D01*
X54865522Y-114259465D01*
X54833500Y-114461648D01*
X54833500Y-114666351D01*
X54865522Y-114868534D01*
X54928781Y-115063223D01*
X55021715Y-115245613D01*
X55142028Y-115411213D01*
X55286786Y-115555971D01*
X55396427Y-115635628D01*
X55452390Y-115676287D01*
X55568607Y-115735503D01*
X55634776Y-115769218D01*
X55634778Y-115769218D01*
X55634781Y-115769220D01*
X55739137Y-115803127D01*
X55829465Y-115832477D01*
X55870820Y-115839027D01*
X55933955Y-115868956D01*
X55970886Y-115928268D01*
X55969888Y-115998130D01*
X55931278Y-116056363D01*
X55867315Y-116084477D01*
X55851422Y-116085500D01*
X47366678Y-116085500D01*
X47299639Y-116065815D01*
X47253884Y-116013011D01*
X47242678Y-115961618D01*
X47236237Y-109205983D01*
X49245500Y-109205983D01*
X49245500Y-112306001D01*
X49245501Y-112306018D01*
X49256000Y-112408796D01*
X49256001Y-112408799D01*
X49311185Y-112575331D01*
X49311186Y-112575334D01*
X49403288Y-112724656D01*
X49527344Y-112848712D01*
X49676666Y-112940814D01*
X49843203Y-112995999D01*
X49945991Y-113006500D01*
X51146008Y-113006499D01*
X51248797Y-112995999D01*
X51415334Y-112940814D01*
X51564656Y-112848712D01*
X51688712Y-112724656D01*
X51780814Y-112575334D01*
X51835999Y-112408797D01*
X51846500Y-112306009D01*
X51846499Y-109205992D01*
X51846188Y-109202952D01*
X51835999Y-109103203D01*
X51835998Y-109103200D01*
X51820489Y-109056397D01*
X51780814Y-108936666D01*
X51688712Y-108787344D01*
X51564656Y-108663288D01*
X51415334Y-108571186D01*
X51248797Y-108516001D01*
X51248795Y-108516000D01*
X51146010Y-108505500D01*
X49945998Y-108505500D01*
X49945981Y-108505501D01*
X49843203Y-108516000D01*
X49843200Y-108516001D01*
X49676668Y-108571185D01*
X49676663Y-108571187D01*
X49527342Y-108663289D01*
X49403289Y-108787342D01*
X49311187Y-108936663D01*
X49311185Y-108936668D01*
X49294124Y-108988156D01*
X49256001Y-109103203D01*
X49256001Y-109103204D01*
X49256000Y-109103204D01*
X49245500Y-109205983D01*
X47236237Y-109205983D01*
X47236234Y-109202952D01*
X47233853Y-106705986D01*
X49246001Y-106705986D01*
X49256494Y-106808697D01*
X49311641Y-106975119D01*
X49311643Y-106975124D01*
X49403684Y-107124345D01*
X49527654Y-107248315D01*
X49676875Y-107340356D01*
X49676880Y-107340358D01*
X49843302Y-107395505D01*
X49843309Y-107395506D01*
X49946019Y-107405999D01*
X50295999Y-107405999D01*
X50796000Y-107405999D01*
X51145972Y-107405999D01*
X51145986Y-107405998D01*
X51248697Y-107395505D01*
X51415119Y-107340358D01*
X51415124Y-107340356D01*
X51564345Y-107248315D01*
X51688315Y-107124345D01*
X51780356Y-106975124D01*
X51780358Y-106975119D01*
X51835505Y-106808697D01*
X51835506Y-106808690D01*
X51845999Y-106705986D01*
X51846000Y-106705973D01*
X51846000Y-106269986D01*
X78356001Y-106269986D01*
X78366494Y-106372697D01*
X78421641Y-106539119D01*
X78421643Y-106539124D01*
X78513684Y-106688345D01*
X78637654Y-106812315D01*
X78786875Y-106904356D01*
X78786880Y-106904358D01*
X78953302Y-106959505D01*
X78953309Y-106959506D01*
X79056019Y-106969999D01*
X79505999Y-106969999D01*
X80006000Y-106969999D01*
X80455972Y-106969999D01*
X80455986Y-106969998D01*
X80558697Y-106959505D01*
X80725119Y-106904358D01*
X80725124Y-106904356D01*
X80874345Y-106812315D01*
X80998315Y-106688345D01*
X81090356Y-106539124D01*
X81090358Y-106539119D01*
X81145505Y-106372697D01*
X81145506Y-106372690D01*
X81155999Y-106269986D01*
X81156000Y-106269973D01*
X81156000Y-105470000D01*
X80006000Y-105470000D01*
X80006000Y-106969999D01*
X79505999Y-106969999D01*
X79506000Y-106969998D01*
X79506000Y-105470000D01*
X78356001Y-105470000D01*
X78356001Y-106269986D01*
X51846000Y-106269986D01*
X51846000Y-105406000D01*
X50796000Y-105406000D01*
X50796000Y-107405999D01*
X50295999Y-107405999D01*
X50296000Y-107405998D01*
X50296000Y-105406000D01*
X49246001Y-105406000D01*
X49246001Y-106705986D01*
X47233853Y-106705986D01*
X47232565Y-105354756D01*
X47230898Y-103606013D01*
X49246000Y-103606013D01*
X49246000Y-104906000D01*
X50296000Y-104906000D01*
X50796000Y-104906000D01*
X51845999Y-104906000D01*
X51845999Y-104170013D01*
X78356000Y-104170013D01*
X78356000Y-104970000D01*
X79506000Y-104970000D01*
X80006000Y-104970000D01*
X81155999Y-104970000D01*
X81155999Y-104170028D01*
X81155998Y-104170013D01*
X81145505Y-104067302D01*
X81090358Y-103900880D01*
X81090356Y-103900875D01*
X80998315Y-103751654D01*
X80874345Y-103627684D01*
X80725124Y-103535643D01*
X80725119Y-103535641D01*
X80558697Y-103480494D01*
X80558690Y-103480493D01*
X80455986Y-103470000D01*
X80006000Y-103470000D01*
X80006000Y-104970000D01*
X79506000Y-104970000D01*
X79506000Y-103470000D01*
X79056028Y-103470000D01*
X79056012Y-103470001D01*
X78953302Y-103480494D01*
X78786880Y-103535641D01*
X78786875Y-103535643D01*
X78637654Y-103627684D01*
X78513684Y-103751654D01*
X78421643Y-103900875D01*
X78421641Y-103900880D01*
X78366494Y-104067302D01*
X78366493Y-104067309D01*
X78356000Y-104170013D01*
X51845999Y-104170013D01*
X51845999Y-103606028D01*
X51845998Y-103606013D01*
X51835505Y-103503302D01*
X51780358Y-103336880D01*
X51780356Y-103336875D01*
X51688315Y-103187654D01*
X51564345Y-103063684D01*
X51415124Y-102971643D01*
X51415119Y-102971641D01*
X51248697Y-102916494D01*
X51248690Y-102916493D01*
X51145986Y-102906000D01*
X50796000Y-102906000D01*
X50796000Y-104906000D01*
X50296000Y-104906000D01*
X50296000Y-102906000D01*
X49946028Y-102906000D01*
X49946012Y-102906001D01*
X49843302Y-102916494D01*
X49676880Y-102971641D01*
X49676875Y-102971643D01*
X49527654Y-103063684D01*
X49403684Y-103187654D01*
X49311643Y-103336875D01*
X49311641Y-103336880D01*
X49256494Y-103503302D01*
X49256493Y-103503309D01*
X49246000Y-103606013D01*
X47230898Y-103606013D01*
X47230895Y-103602982D01*
X47229440Y-102077055D01*
X47229034Y-101651181D01*
X47228999Y-101614000D01*
X54857391Y-101614000D01*
X55818314Y-101614000D01*
X55813920Y-101618394D01*
X55761259Y-101709606D01*
X55734000Y-101811339D01*
X55734000Y-101916661D01*
X55761259Y-102018394D01*
X55813920Y-102109606D01*
X55818314Y-102114000D01*
X54857391Y-102114000D01*
X54866009Y-102168413D01*
X54929244Y-102363029D01*
X55022140Y-102545349D01*
X55142417Y-102710894D01*
X55142417Y-102710895D01*
X55287104Y-102855582D01*
X55452650Y-102975859D01*
X55634968Y-103068754D01*
X55829578Y-103131988D01*
X55884000Y-103140607D01*
X55884000Y-102179686D01*
X55888394Y-102184080D01*
X55979606Y-102236741D01*
X56081339Y-102264000D01*
X56186661Y-102264000D01*
X56288394Y-102236741D01*
X56379606Y-102184080D01*
X56384000Y-102179686D01*
X56384000Y-103140606D01*
X56438421Y-103131988D01*
X56633031Y-103068754D01*
X56815349Y-102975859D01*
X56980894Y-102855582D01*
X56980895Y-102855582D01*
X57125582Y-102710895D01*
X57125582Y-102710894D01*
X57245861Y-102545347D01*
X57293234Y-102452371D01*
X57341208Y-102401575D01*
X57409028Y-102384779D01*
X57475164Y-102407316D01*
X57514203Y-102452369D01*
X57561713Y-102545611D01*
X57682028Y-102711213D01*
X57826786Y-102855971D01*
X57981749Y-102968556D01*
X57992390Y-102976287D01*
X58081212Y-103021544D01*
X58174776Y-103069218D01*
X58174778Y-103069218D01*
X58174781Y-103069220D01*
X58279137Y-103103127D01*
X58369465Y-103132477D01*
X58470557Y-103148488D01*
X58571648Y-103164500D01*
X58571649Y-103164500D01*
X58776351Y-103164500D01*
X58776352Y-103164500D01*
X58978534Y-103132477D01*
X59173219Y-103069220D01*
X59355610Y-102976287D01*
X59452353Y-102906000D01*
X59521213Y-102855971D01*
X59521215Y-102855968D01*
X59521219Y-102855966D01*
X59665966Y-102711219D01*
X59665968Y-102711215D01*
X59665971Y-102711213D01*
X59786284Y-102545614D01*
X59786286Y-102545611D01*
X59786287Y-102545610D01*
X59833516Y-102452917D01*
X59881489Y-102402123D01*
X59949310Y-102385328D01*
X60015445Y-102407865D01*
X60054485Y-102452919D01*
X60101715Y-102545614D01*
X60222028Y-102711213D01*
X60366786Y-102855971D01*
X60521749Y-102968556D01*
X60532390Y-102976287D01*
X60621212Y-103021544D01*
X60714776Y-103069218D01*
X60714778Y-103069218D01*
X60714781Y-103069220D01*
X60819137Y-103103127D01*
X60909465Y-103132477D01*
X61010557Y-103148488D01*
X61111648Y-103164500D01*
X61111649Y-103164500D01*
X61316351Y-103164500D01*
X61316352Y-103164500D01*
X61518534Y-103132477D01*
X61713219Y-103069220D01*
X61895610Y-102976287D01*
X61992353Y-102906000D01*
X62061213Y-102855971D01*
X62061215Y-102855968D01*
X62061219Y-102855966D01*
X62205966Y-102711219D01*
X62205968Y-102711215D01*
X62205971Y-102711213D01*
X62326284Y-102545614D01*
X62326286Y-102545611D01*
X62326287Y-102545610D01*
X62373516Y-102452917D01*
X62421489Y-102402123D01*
X62489310Y-102385328D01*
X62555445Y-102407865D01*
X62594485Y-102452919D01*
X62641715Y-102545614D01*
X62762028Y-102711213D01*
X62906786Y-102855971D01*
X63061749Y-102968556D01*
X63072390Y-102976287D01*
X63161212Y-103021544D01*
X63254776Y-103069218D01*
X63254778Y-103069218D01*
X63254781Y-103069220D01*
X63359137Y-103103127D01*
X63449465Y-103132477D01*
X63550557Y-103148488D01*
X63651648Y-103164500D01*
X63651649Y-103164500D01*
X63856351Y-103164500D01*
X63856352Y-103164500D01*
X64058534Y-103132477D01*
X64253219Y-103069220D01*
X64435610Y-102976287D01*
X64532353Y-102906000D01*
X64601213Y-102855971D01*
X64601215Y-102855968D01*
X64601219Y-102855966D01*
X64745966Y-102711219D01*
X64745968Y-102711215D01*
X64745971Y-102711213D01*
X64866284Y-102545614D01*
X64866286Y-102545611D01*
X64866287Y-102545610D01*
X64913516Y-102452917D01*
X64961489Y-102402123D01*
X65029310Y-102385328D01*
X65095445Y-102407865D01*
X65134485Y-102452919D01*
X65181715Y-102545614D01*
X65302028Y-102711213D01*
X65446786Y-102855971D01*
X65601749Y-102968556D01*
X65612390Y-102976287D01*
X65701212Y-103021544D01*
X65794776Y-103069218D01*
X65794778Y-103069218D01*
X65794781Y-103069220D01*
X65899137Y-103103127D01*
X65989465Y-103132477D01*
X66090557Y-103148488D01*
X66191648Y-103164500D01*
X66191649Y-103164500D01*
X66396351Y-103164500D01*
X66396352Y-103164500D01*
X66598534Y-103132477D01*
X66793219Y-103069220D01*
X66975610Y-102976287D01*
X67072353Y-102906000D01*
X67141213Y-102855971D01*
X67141215Y-102855968D01*
X67141219Y-102855966D01*
X67285966Y-102711219D01*
X67285968Y-102711215D01*
X67285971Y-102711213D01*
X67406284Y-102545614D01*
X67406286Y-102545611D01*
X67406287Y-102545610D01*
X67453516Y-102452917D01*
X67501489Y-102402123D01*
X67569310Y-102385328D01*
X67635445Y-102407865D01*
X67674485Y-102452919D01*
X67721715Y-102545614D01*
X67842028Y-102711213D01*
X67986786Y-102855971D01*
X68141749Y-102968556D01*
X68152390Y-102976287D01*
X68241212Y-103021544D01*
X68334776Y-103069218D01*
X68334778Y-103069218D01*
X68334781Y-103069220D01*
X68439137Y-103103127D01*
X68529465Y-103132477D01*
X68630557Y-103148488D01*
X68731648Y-103164500D01*
X68731649Y-103164500D01*
X68936351Y-103164500D01*
X68936352Y-103164500D01*
X69138534Y-103132477D01*
X69333219Y-103069220D01*
X69515610Y-102976287D01*
X69612353Y-102906000D01*
X69681213Y-102855971D01*
X69681215Y-102855968D01*
X69681219Y-102855966D01*
X69825966Y-102711219D01*
X69825968Y-102711215D01*
X69825971Y-102711213D01*
X69946284Y-102545614D01*
X69946286Y-102545611D01*
X69946287Y-102545610D01*
X69993516Y-102452917D01*
X70041489Y-102402123D01*
X70109310Y-102385328D01*
X70175445Y-102407865D01*
X70214485Y-102452919D01*
X70261715Y-102545614D01*
X70382028Y-102711213D01*
X70526786Y-102855971D01*
X70681749Y-102968556D01*
X70692390Y-102976287D01*
X70781212Y-103021544D01*
X70874776Y-103069218D01*
X70874778Y-103069218D01*
X70874781Y-103069220D01*
X70979137Y-103103127D01*
X71069465Y-103132477D01*
X71170557Y-103148488D01*
X71271648Y-103164500D01*
X71271649Y-103164500D01*
X71476351Y-103164500D01*
X71476352Y-103164500D01*
X71678534Y-103132477D01*
X71873219Y-103069220D01*
X72055610Y-102976287D01*
X72152353Y-102906000D01*
X72221213Y-102855971D01*
X72221215Y-102855968D01*
X72221219Y-102855966D01*
X72365966Y-102711219D01*
X72392330Y-102674930D01*
X72447658Y-102632265D01*
X72517271Y-102626284D01*
X72579067Y-102658889D01*
X72613426Y-102719726D01*
X72615938Y-102734559D01*
X72619907Y-102771480D01*
X72670202Y-102906328D01*
X72670206Y-102906335D01*
X72756452Y-103021544D01*
X72756455Y-103021547D01*
X72871664Y-103107793D01*
X72871671Y-103107797D01*
X73006517Y-103158091D01*
X73006516Y-103158091D01*
X73013444Y-103158835D01*
X73066127Y-103164500D01*
X74761872Y-103164499D01*
X74821483Y-103158091D01*
X74956331Y-103107796D01*
X75071546Y-103021546D01*
X75157796Y-102906331D01*
X75208091Y-102771483D01*
X75214500Y-102711873D01*
X75214499Y-101016128D01*
X75208091Y-100956517D01*
X75198204Y-100930009D01*
X75157797Y-100821671D01*
X75157793Y-100821664D01*
X75071547Y-100706455D01*
X75071544Y-100706452D01*
X74956335Y-100620206D01*
X74956328Y-100620202D01*
X74821482Y-100569908D01*
X74821483Y-100569908D01*
X74761883Y-100563501D01*
X74761881Y-100563500D01*
X74761873Y-100563500D01*
X74761864Y-100563500D01*
X73066129Y-100563500D01*
X73066123Y-100563501D01*
X73006516Y-100569908D01*
X72871671Y-100620202D01*
X72871664Y-100620206D01*
X72756455Y-100706452D01*
X72756452Y-100706455D01*
X72670206Y-100821664D01*
X72670202Y-100821671D01*
X72619908Y-100956516D01*
X72615939Y-100993440D01*
X72589201Y-101057991D01*
X72531809Y-101097839D01*
X72461983Y-101100332D01*
X72401895Y-101064679D01*
X72392332Y-101053070D01*
X72365967Y-101016782D01*
X72221213Y-100872028D01*
X72055613Y-100751715D01*
X72055612Y-100751714D01*
X72055610Y-100751713D01*
X71998653Y-100722691D01*
X71873223Y-100658781D01*
X71678534Y-100595522D01*
X71503995Y-100567878D01*
X71476352Y-100563500D01*
X71271648Y-100563500D01*
X71247329Y-100567351D01*
X71069465Y-100595522D01*
X70874776Y-100658781D01*
X70692386Y-100751715D01*
X70526786Y-100872028D01*
X70382028Y-101016786D01*
X70261715Y-101182386D01*
X70214485Y-101275080D01*
X70166510Y-101325876D01*
X70098689Y-101342671D01*
X70032554Y-101320134D01*
X69993515Y-101275080D01*
X69954920Y-101199334D01*
X69946287Y-101182390D01*
X69884858Y-101097839D01*
X69825971Y-101016786D01*
X69681213Y-100872028D01*
X69515613Y-100751715D01*
X69515612Y-100751714D01*
X69515610Y-100751713D01*
X69458653Y-100722691D01*
X69333223Y-100658781D01*
X69138534Y-100595522D01*
X68963995Y-100567878D01*
X68936352Y-100563500D01*
X68731648Y-100563500D01*
X68707329Y-100567351D01*
X68529465Y-100595522D01*
X68334776Y-100658781D01*
X68152386Y-100751715D01*
X67986786Y-100872028D01*
X67842028Y-101016786D01*
X67721715Y-101182386D01*
X67674485Y-101275080D01*
X67626510Y-101325876D01*
X67558689Y-101342671D01*
X67492554Y-101320134D01*
X67453515Y-101275080D01*
X67414920Y-101199334D01*
X67406287Y-101182390D01*
X67344858Y-101097839D01*
X67285971Y-101016786D01*
X67141213Y-100872028D01*
X66975613Y-100751715D01*
X66975612Y-100751714D01*
X66975610Y-100751713D01*
X66918653Y-100722691D01*
X66793223Y-100658781D01*
X66598534Y-100595522D01*
X66423995Y-100567878D01*
X66396352Y-100563500D01*
X66191648Y-100563500D01*
X66167329Y-100567351D01*
X65989465Y-100595522D01*
X65794776Y-100658781D01*
X65612386Y-100751715D01*
X65446786Y-100872028D01*
X65302028Y-101016786D01*
X65181715Y-101182386D01*
X65134485Y-101275080D01*
X65086510Y-101325876D01*
X65018689Y-101342671D01*
X64952554Y-101320134D01*
X64913515Y-101275080D01*
X64874920Y-101199334D01*
X64866287Y-101182390D01*
X64804858Y-101097839D01*
X64745971Y-101016786D01*
X64601213Y-100872028D01*
X64435613Y-100751715D01*
X64435612Y-100751714D01*
X64435610Y-100751713D01*
X64378653Y-100722691D01*
X64253223Y-100658781D01*
X64058534Y-100595522D01*
X63883995Y-100567878D01*
X63856352Y-100563500D01*
X63651648Y-100563500D01*
X63627329Y-100567351D01*
X63449465Y-100595522D01*
X63254776Y-100658781D01*
X63072386Y-100751715D01*
X62906786Y-100872028D01*
X62762028Y-101016786D01*
X62641715Y-101182386D01*
X62594485Y-101275080D01*
X62546510Y-101325876D01*
X62478689Y-101342671D01*
X62412554Y-101320134D01*
X62373515Y-101275080D01*
X62334920Y-101199334D01*
X62326287Y-101182390D01*
X62264858Y-101097839D01*
X62205971Y-101016786D01*
X62061213Y-100872028D01*
X61895613Y-100751715D01*
X61895612Y-100751714D01*
X61895610Y-100751713D01*
X61838653Y-100722691D01*
X61713223Y-100658781D01*
X61518534Y-100595522D01*
X61343995Y-100567878D01*
X61316352Y-100563500D01*
X61111648Y-100563500D01*
X61087329Y-100567351D01*
X60909465Y-100595522D01*
X60714776Y-100658781D01*
X60532386Y-100751715D01*
X60366786Y-100872028D01*
X60222028Y-101016786D01*
X60101715Y-101182386D01*
X60054485Y-101275080D01*
X60006510Y-101325876D01*
X59938689Y-101342671D01*
X59872554Y-101320134D01*
X59833515Y-101275080D01*
X59794920Y-101199334D01*
X59786287Y-101182390D01*
X59724858Y-101097839D01*
X59665971Y-101016786D01*
X59521213Y-100872028D01*
X59355613Y-100751715D01*
X59355612Y-100751714D01*
X59355610Y-100751713D01*
X59298653Y-100722691D01*
X59173223Y-100658781D01*
X58978534Y-100595522D01*
X58803995Y-100567878D01*
X58776352Y-100563500D01*
X58571648Y-100563500D01*
X58547329Y-100567351D01*
X58369465Y-100595522D01*
X58174776Y-100658781D01*
X57992386Y-100751715D01*
X57826786Y-100872028D01*
X57682028Y-101016786D01*
X57561713Y-101182388D01*
X57514203Y-101275630D01*
X57466228Y-101326426D01*
X57398407Y-101343220D01*
X57332272Y-101320682D01*
X57293234Y-101275628D01*
X57245861Y-101182652D01*
X57125582Y-101017105D01*
X57125582Y-101017104D01*
X56980895Y-100872417D01*
X56815349Y-100752140D01*
X56633029Y-100659244D01*
X56438413Y-100596009D01*
X56384000Y-100587390D01*
X56384000Y-101548314D01*
X56379606Y-101543920D01*
X56288394Y-101491259D01*
X56186661Y-101464000D01*
X56081339Y-101464000D01*
X55979606Y-101491259D01*
X55888394Y-101543920D01*
X55884000Y-101548314D01*
X55884000Y-100587390D01*
X55829586Y-100596009D01*
X55634970Y-100659244D01*
X55452650Y-100752140D01*
X55287105Y-100872417D01*
X55287104Y-100872417D01*
X55142417Y-101017104D01*
X55142417Y-101017105D01*
X55022140Y-101182650D01*
X54929244Y-101364970D01*
X54866009Y-101559586D01*
X54857391Y-101614000D01*
X47228999Y-101614000D01*
X47227203Y-99729983D01*
X85627500Y-99729983D01*
X85627500Y-100930001D01*
X85627501Y-100930018D01*
X85638000Y-101032796D01*
X85638001Y-101032799D01*
X85660380Y-101100332D01*
X85693186Y-101199334D01*
X85785288Y-101348656D01*
X85909344Y-101472712D01*
X86058666Y-101564814D01*
X86225203Y-101619999D01*
X86327991Y-101630500D01*
X89428008Y-101630499D01*
X89530797Y-101619999D01*
X89697334Y-101564814D01*
X89846656Y-101472712D01*
X89970712Y-101348656D01*
X90062814Y-101199334D01*
X90117999Y-101032797D01*
X90128500Y-100930009D01*
X90128499Y-99729992D01*
X90117999Y-99627203D01*
X90062814Y-99460666D01*
X89970712Y-99311344D01*
X89846656Y-99187288D01*
X89697334Y-99095186D01*
X89530797Y-99040001D01*
X89530795Y-99040000D01*
X89428010Y-99029500D01*
X86327998Y-99029500D01*
X86327981Y-99029501D01*
X86225203Y-99040000D01*
X86225200Y-99040001D01*
X86058668Y-99095185D01*
X86058663Y-99095187D01*
X85909342Y-99187289D01*
X85785289Y-99311342D01*
X85693187Y-99460663D01*
X85693186Y-99460666D01*
X85638001Y-99627203D01*
X85638001Y-99627204D01*
X85638000Y-99627204D01*
X85627500Y-99729983D01*
X47227203Y-99729983D01*
X47225749Y-98205648D01*
X54833500Y-98205648D01*
X54833500Y-98410351D01*
X54865522Y-98612534D01*
X54928781Y-98807223D01*
X55021715Y-98989613D01*
X55142028Y-99155213D01*
X55286786Y-99299971D01*
X55441749Y-99412556D01*
X55452390Y-99420287D01*
X55568607Y-99479503D01*
X55634776Y-99513218D01*
X55634778Y-99513218D01*
X55634781Y-99513220D01*
X55739137Y-99547127D01*
X55829465Y-99576477D01*
X55930557Y-99592488D01*
X56031648Y-99608500D01*
X56031649Y-99608500D01*
X56236351Y-99608500D01*
X56236352Y-99608500D01*
X56438534Y-99576477D01*
X56633219Y-99513220D01*
X56815610Y-99420287D01*
X56908590Y-99352732D01*
X56981213Y-99299971D01*
X56981215Y-99299968D01*
X56981219Y-99299966D01*
X57125966Y-99155219D01*
X57125968Y-99155215D01*
X57125971Y-99155213D01*
X57246284Y-98989614D01*
X57246285Y-98989613D01*
X57246287Y-98989610D01*
X57293516Y-98896917D01*
X57341489Y-98846123D01*
X57409310Y-98829328D01*
X57475445Y-98851865D01*
X57514485Y-98896919D01*
X57561715Y-98989614D01*
X57682028Y-99155213D01*
X57826786Y-99299971D01*
X57981749Y-99412556D01*
X57992390Y-99420287D01*
X58108607Y-99479503D01*
X58174776Y-99513218D01*
X58174778Y-99513218D01*
X58174781Y-99513220D01*
X58279137Y-99547127D01*
X58369465Y-99576477D01*
X58470557Y-99592488D01*
X58571648Y-99608500D01*
X58571649Y-99608500D01*
X58776351Y-99608500D01*
X58776352Y-99608500D01*
X58978534Y-99576477D01*
X59173219Y-99513220D01*
X59355610Y-99420287D01*
X59448590Y-99352732D01*
X59521213Y-99299971D01*
X59521215Y-99299968D01*
X59521219Y-99299966D01*
X59665966Y-99155219D01*
X59665968Y-99155215D01*
X59665971Y-99155213D01*
X59786284Y-98989614D01*
X59786285Y-98989613D01*
X59786287Y-98989610D01*
X59833516Y-98896917D01*
X59881489Y-98846123D01*
X59949310Y-98829328D01*
X60015445Y-98851865D01*
X60054485Y-98896919D01*
X60101715Y-98989614D01*
X60222028Y-99155213D01*
X60366786Y-99299971D01*
X60521749Y-99412556D01*
X60532390Y-99420287D01*
X60648607Y-99479503D01*
X60714776Y-99513218D01*
X60714778Y-99513218D01*
X60714781Y-99513220D01*
X60819137Y-99547127D01*
X60909465Y-99576477D01*
X61010557Y-99592488D01*
X61111648Y-99608500D01*
X61111649Y-99608500D01*
X61316351Y-99608500D01*
X61316352Y-99608500D01*
X61518534Y-99576477D01*
X61713219Y-99513220D01*
X61895610Y-99420287D01*
X61988590Y-99352732D01*
X62061213Y-99299971D01*
X62061215Y-99299968D01*
X62061219Y-99299966D01*
X62205966Y-99155219D01*
X62205968Y-99155215D01*
X62205971Y-99155213D01*
X62326284Y-98989614D01*
X62326285Y-98989613D01*
X62326287Y-98989610D01*
X62373516Y-98896917D01*
X62421489Y-98846123D01*
X62489310Y-98829328D01*
X62555445Y-98851865D01*
X62594485Y-98896919D01*
X62641715Y-98989614D01*
X62762028Y-99155213D01*
X62906786Y-99299971D01*
X63061749Y-99412556D01*
X63072390Y-99420287D01*
X63188607Y-99479503D01*
X63254776Y-99513218D01*
X63254778Y-99513218D01*
X63254781Y-99513220D01*
X63359137Y-99547127D01*
X63449465Y-99576477D01*
X63550557Y-99592488D01*
X63651648Y-99608500D01*
X63651649Y-99608500D01*
X63856351Y-99608500D01*
X63856352Y-99608500D01*
X64058534Y-99576477D01*
X64253219Y-99513220D01*
X64435610Y-99420287D01*
X64528590Y-99352732D01*
X64601213Y-99299971D01*
X64601215Y-99299968D01*
X64601219Y-99299966D01*
X64745966Y-99155219D01*
X64745968Y-99155215D01*
X64745971Y-99155213D01*
X64866284Y-98989614D01*
X64866285Y-98989613D01*
X64866287Y-98989610D01*
X64913516Y-98896917D01*
X64961489Y-98846123D01*
X65029310Y-98829328D01*
X65095445Y-98851865D01*
X65134485Y-98896919D01*
X65181715Y-98989614D01*
X65302028Y-99155213D01*
X65446786Y-99299971D01*
X65601749Y-99412556D01*
X65612390Y-99420287D01*
X65728607Y-99479503D01*
X65794776Y-99513218D01*
X65794778Y-99513218D01*
X65794781Y-99513220D01*
X65899137Y-99547127D01*
X65989465Y-99576477D01*
X66090557Y-99592488D01*
X66191648Y-99608500D01*
X66191649Y-99608500D01*
X66396351Y-99608500D01*
X66396352Y-99608500D01*
X66598534Y-99576477D01*
X66793219Y-99513220D01*
X66975610Y-99420287D01*
X67068590Y-99352732D01*
X67141213Y-99299971D01*
X67141215Y-99299968D01*
X67141219Y-99299966D01*
X67285966Y-99155219D01*
X67285968Y-99155215D01*
X67285971Y-99155213D01*
X67406284Y-98989614D01*
X67406285Y-98989613D01*
X67406287Y-98989610D01*
X67453516Y-98896917D01*
X67501489Y-98846123D01*
X67569310Y-98829328D01*
X67635445Y-98851865D01*
X67674485Y-98896919D01*
X67721715Y-98989614D01*
X67842028Y-99155213D01*
X67986786Y-99299971D01*
X68141749Y-99412556D01*
X68152390Y-99420287D01*
X68268607Y-99479503D01*
X68334776Y-99513218D01*
X68334778Y-99513218D01*
X68334781Y-99513220D01*
X68439137Y-99547127D01*
X68529465Y-99576477D01*
X68630557Y-99592488D01*
X68731648Y-99608500D01*
X68731649Y-99608500D01*
X68936351Y-99608500D01*
X68936352Y-99608500D01*
X69138534Y-99576477D01*
X69333219Y-99513220D01*
X69515610Y-99420287D01*
X69608590Y-99352732D01*
X69681213Y-99299971D01*
X69681215Y-99299968D01*
X69681219Y-99299966D01*
X69825966Y-99155219D01*
X69825968Y-99155215D01*
X69825971Y-99155213D01*
X69946284Y-98989614D01*
X69946285Y-98989613D01*
X69946287Y-98989610D01*
X69993516Y-98896917D01*
X70041489Y-98846123D01*
X70109310Y-98829328D01*
X70175445Y-98851865D01*
X70214485Y-98896919D01*
X70261715Y-98989614D01*
X70382028Y-99155213D01*
X70526786Y-99299971D01*
X70681749Y-99412556D01*
X70692390Y-99420287D01*
X70808607Y-99479503D01*
X70874776Y-99513218D01*
X70874778Y-99513218D01*
X70874781Y-99513220D01*
X70979137Y-99547127D01*
X71069465Y-99576477D01*
X71170557Y-99592488D01*
X71271648Y-99608500D01*
X71271649Y-99608500D01*
X71476351Y-99608500D01*
X71476352Y-99608500D01*
X71678534Y-99576477D01*
X71873219Y-99513220D01*
X72055610Y-99420287D01*
X72148590Y-99352732D01*
X72221213Y-99299971D01*
X72221215Y-99299968D01*
X72221219Y-99299966D01*
X72365966Y-99155219D01*
X72365968Y-99155215D01*
X72365971Y-99155213D01*
X72486284Y-98989614D01*
X72486285Y-98989613D01*
X72486287Y-98989610D01*
X72533516Y-98896917D01*
X72581489Y-98846123D01*
X72649310Y-98829328D01*
X72715445Y-98851865D01*
X72754485Y-98896919D01*
X72801715Y-98989614D01*
X72922028Y-99155213D01*
X73066786Y-99299971D01*
X73221749Y-99412556D01*
X73232390Y-99420287D01*
X73348607Y-99479503D01*
X73414776Y-99513218D01*
X73414778Y-99513218D01*
X73414781Y-99513220D01*
X73519137Y-99547127D01*
X73609465Y-99576477D01*
X73710557Y-99592488D01*
X73811648Y-99608500D01*
X73811649Y-99608500D01*
X74016351Y-99608500D01*
X74016352Y-99608500D01*
X74218534Y-99576477D01*
X74413219Y-99513220D01*
X74595610Y-99420287D01*
X74688590Y-99352732D01*
X74761213Y-99299971D01*
X74761215Y-99299968D01*
X74761219Y-99299966D01*
X74905966Y-99155219D01*
X74905968Y-99155215D01*
X74905971Y-99155213D01*
X74989676Y-99040001D01*
X75026287Y-98989610D01*
X75119220Y-98807219D01*
X75182477Y-98612534D01*
X75214500Y-98410352D01*
X75214500Y-98205648D01*
X75182477Y-98003466D01*
X75119220Y-97808781D01*
X75119218Y-97808778D01*
X75119218Y-97808776D01*
X75073515Y-97719080D01*
X75026287Y-97626390D01*
X75018556Y-97615749D01*
X74905971Y-97460786D01*
X74761213Y-97316028D01*
X74595613Y-97195715D01*
X74595612Y-97195714D01*
X74595610Y-97195713D01*
X74538653Y-97166691D01*
X74413223Y-97102781D01*
X74218534Y-97039522D01*
X74043995Y-97011878D01*
X74016352Y-97007500D01*
X73811648Y-97007500D01*
X73787329Y-97011351D01*
X73609465Y-97039522D01*
X73414776Y-97102781D01*
X73232386Y-97195715D01*
X73066786Y-97316028D01*
X72922028Y-97460786D01*
X72801715Y-97626386D01*
X72754485Y-97719080D01*
X72706510Y-97769876D01*
X72638689Y-97786671D01*
X72572554Y-97764134D01*
X72533515Y-97719080D01*
X72532883Y-97717840D01*
X72486287Y-97626390D01*
X72478556Y-97615749D01*
X72365971Y-97460786D01*
X72221213Y-97316028D01*
X72055613Y-97195715D01*
X72055612Y-97195714D01*
X72055610Y-97195713D01*
X71998653Y-97166691D01*
X71873223Y-97102781D01*
X71678534Y-97039522D01*
X71503995Y-97011878D01*
X71476352Y-97007500D01*
X71271648Y-97007500D01*
X71247329Y-97011351D01*
X71069465Y-97039522D01*
X70874776Y-97102781D01*
X70692386Y-97195715D01*
X70526786Y-97316028D01*
X70382028Y-97460786D01*
X70261715Y-97626386D01*
X70214485Y-97719080D01*
X70166510Y-97769876D01*
X70098689Y-97786671D01*
X70032554Y-97764134D01*
X69993515Y-97719080D01*
X69992883Y-97717840D01*
X69946287Y-97626390D01*
X69938556Y-97615749D01*
X69825971Y-97460786D01*
X69681213Y-97316028D01*
X69515613Y-97195715D01*
X69515612Y-97195714D01*
X69515610Y-97195713D01*
X69458653Y-97166691D01*
X69333223Y-97102781D01*
X69138534Y-97039522D01*
X68963995Y-97011878D01*
X68936352Y-97007500D01*
X68731648Y-97007500D01*
X68707329Y-97011351D01*
X68529465Y-97039522D01*
X68334776Y-97102781D01*
X68152386Y-97195715D01*
X67986786Y-97316028D01*
X67842028Y-97460786D01*
X67721715Y-97626386D01*
X67674485Y-97719080D01*
X67626510Y-97769876D01*
X67558689Y-97786671D01*
X67492554Y-97764134D01*
X67453515Y-97719080D01*
X67452883Y-97717840D01*
X67406287Y-97626390D01*
X67398556Y-97615749D01*
X67285971Y-97460786D01*
X67141213Y-97316028D01*
X66975613Y-97195715D01*
X66975612Y-97195714D01*
X66975610Y-97195713D01*
X66918653Y-97166691D01*
X66793223Y-97102781D01*
X66598534Y-97039522D01*
X66423995Y-97011878D01*
X66396352Y-97007500D01*
X66191648Y-97007500D01*
X66167329Y-97011351D01*
X65989465Y-97039522D01*
X65794776Y-97102781D01*
X65612386Y-97195715D01*
X65446786Y-97316028D01*
X65302028Y-97460786D01*
X65181715Y-97626386D01*
X65134485Y-97719080D01*
X65086510Y-97769876D01*
X65018689Y-97786671D01*
X64952554Y-97764134D01*
X64913515Y-97719080D01*
X64912883Y-97717840D01*
X64866287Y-97626390D01*
X64858556Y-97615749D01*
X64745971Y-97460786D01*
X64601213Y-97316028D01*
X64435613Y-97195715D01*
X64435612Y-97195714D01*
X64435610Y-97195713D01*
X64378653Y-97166691D01*
X64253223Y-97102781D01*
X64058534Y-97039522D01*
X63883995Y-97011878D01*
X63856352Y-97007500D01*
X63651648Y-97007500D01*
X63627329Y-97011351D01*
X63449465Y-97039522D01*
X63254776Y-97102781D01*
X63072386Y-97195715D01*
X62906786Y-97316028D01*
X62762028Y-97460786D01*
X62641715Y-97626386D01*
X62594485Y-97719080D01*
X62546510Y-97769876D01*
X62478689Y-97786671D01*
X62412554Y-97764134D01*
X62373515Y-97719080D01*
X62372883Y-97717840D01*
X62326287Y-97626390D01*
X62318556Y-97615749D01*
X62205971Y-97460786D01*
X62061213Y-97316028D01*
X61895613Y-97195715D01*
X61895612Y-97195714D01*
X61895610Y-97195713D01*
X61838653Y-97166691D01*
X61713223Y-97102781D01*
X61518534Y-97039522D01*
X61343995Y-97011878D01*
X61316352Y-97007500D01*
X61111648Y-97007500D01*
X61087329Y-97011351D01*
X60909465Y-97039522D01*
X60714776Y-97102781D01*
X60532386Y-97195715D01*
X60366786Y-97316028D01*
X60222028Y-97460786D01*
X60101715Y-97626386D01*
X60054485Y-97719080D01*
X60006510Y-97769876D01*
X59938689Y-97786671D01*
X59872554Y-97764134D01*
X59833515Y-97719080D01*
X59832883Y-97717840D01*
X59786287Y-97626390D01*
X59778556Y-97615749D01*
X59665971Y-97460786D01*
X59521213Y-97316028D01*
X59355613Y-97195715D01*
X59355612Y-97195714D01*
X59355610Y-97195713D01*
X59298653Y-97166691D01*
X59173223Y-97102781D01*
X58978534Y-97039522D01*
X58803995Y-97011878D01*
X58776352Y-97007500D01*
X58571648Y-97007500D01*
X58547329Y-97011351D01*
X58369465Y-97039522D01*
X58174776Y-97102781D01*
X57992386Y-97195715D01*
X57826786Y-97316028D01*
X57682028Y-97460786D01*
X57561715Y-97626386D01*
X57514485Y-97719080D01*
X57466510Y-97769876D01*
X57398689Y-97786671D01*
X57332554Y-97764134D01*
X57293515Y-97719080D01*
X57292883Y-97717840D01*
X57246287Y-97626390D01*
X57238556Y-97615749D01*
X57125971Y-97460786D01*
X56981213Y-97316028D01*
X56815613Y-97195715D01*
X56815612Y-97195714D01*
X56815610Y-97195713D01*
X56758653Y-97166691D01*
X56633223Y-97102781D01*
X56438534Y-97039522D01*
X56263995Y-97011878D01*
X56236352Y-97007500D01*
X56031648Y-97007500D01*
X56007329Y-97011351D01*
X55829465Y-97039522D01*
X55634776Y-97102781D01*
X55452386Y-97195715D01*
X55286786Y-97316028D01*
X55142028Y-97460786D01*
X55021715Y-97626386D01*
X54928781Y-97808776D01*
X54865522Y-98003465D01*
X54833500Y-98205648D01*
X47225749Y-98205648D01*
X47225744Y-98200894D01*
X47224606Y-97007500D01*
X47219284Y-91425983D01*
X48991500Y-91425983D01*
X48991500Y-94526001D01*
X48991501Y-94526018D01*
X49002000Y-94628796D01*
X49002001Y-94628799D01*
X49057185Y-94795331D01*
X49057186Y-94795334D01*
X49149288Y-94944656D01*
X49273344Y-95068712D01*
X49422666Y-95160814D01*
X49589203Y-95215999D01*
X49691991Y-95226500D01*
X50892008Y-95226499D01*
X50994797Y-95215999D01*
X51161334Y-95160814D01*
X51310656Y-95068712D01*
X51434712Y-94944656D01*
X51526814Y-94795334D01*
X51581999Y-94628797D01*
X51592500Y-94526009D01*
X51592499Y-91927983D01*
X79471500Y-91927983D01*
X79471500Y-95028001D01*
X79471501Y-95028018D01*
X79482000Y-95130796D01*
X79482001Y-95130799D01*
X79513714Y-95226500D01*
X79537186Y-95297334D01*
X79629288Y-95446656D01*
X79753344Y-95570712D01*
X79902666Y-95662814D01*
X80069203Y-95717999D01*
X80171991Y-95728500D01*
X81372008Y-95728499D01*
X81474797Y-95717999D01*
X81641334Y-95662814D01*
X81790656Y-95570712D01*
X81914712Y-95446656D01*
X82006814Y-95297334D01*
X82061999Y-95130797D01*
X82072500Y-95028009D01*
X82072499Y-91927992D01*
X82061999Y-91825203D01*
X82006814Y-91658666D01*
X81914712Y-91509344D01*
X81790656Y-91385288D01*
X81641334Y-91293186D01*
X81474797Y-91238001D01*
X81474795Y-91238000D01*
X81372010Y-91227500D01*
X80171998Y-91227500D01*
X80171981Y-91227501D01*
X80069203Y-91238000D01*
X80069200Y-91238001D01*
X79902668Y-91293185D01*
X79902663Y-91293187D01*
X79753342Y-91385289D01*
X79629289Y-91509342D01*
X79537187Y-91658663D01*
X79537186Y-91658666D01*
X79482001Y-91825203D01*
X79482001Y-91825204D01*
X79482000Y-91825204D01*
X79471500Y-91927983D01*
X51592499Y-91927983D01*
X51592499Y-91425992D01*
X51581999Y-91323203D01*
X51526814Y-91156666D01*
X51434712Y-91007344D01*
X51310656Y-90883288D01*
X51161334Y-90791186D01*
X50994797Y-90736001D01*
X50994795Y-90736000D01*
X50892010Y-90725500D01*
X49691998Y-90725500D01*
X49691981Y-90725501D01*
X49589203Y-90736000D01*
X49589200Y-90736001D01*
X49422668Y-90791185D01*
X49422663Y-90791187D01*
X49273342Y-90883289D01*
X49149289Y-91007342D01*
X49057187Y-91156663D01*
X49057186Y-91156666D01*
X49002001Y-91323203D01*
X49002001Y-91323204D01*
X49002000Y-91323204D01*
X48991500Y-91425983D01*
X47219284Y-91425983D01*
X47216901Y-88925986D01*
X48992001Y-88925986D01*
X49002494Y-89028697D01*
X49057641Y-89195119D01*
X49057643Y-89195124D01*
X49149684Y-89344345D01*
X49273654Y-89468315D01*
X49422875Y-89560356D01*
X49422880Y-89560358D01*
X49589302Y-89615505D01*
X49589309Y-89615506D01*
X49692019Y-89625999D01*
X50041999Y-89625999D01*
X50542000Y-89625999D01*
X50891972Y-89625999D01*
X50891986Y-89625998D01*
X50994697Y-89615505D01*
X51161119Y-89560358D01*
X51161124Y-89560356D01*
X51310345Y-89468315D01*
X51350674Y-89427986D01*
X79472001Y-89427986D01*
X79482494Y-89530697D01*
X79537641Y-89697119D01*
X79537643Y-89697124D01*
X79629684Y-89846345D01*
X79753654Y-89970315D01*
X79902875Y-90062356D01*
X79902880Y-90062358D01*
X80069302Y-90117505D01*
X80069309Y-90117506D01*
X80172019Y-90127999D01*
X80521999Y-90127999D01*
X81022000Y-90127999D01*
X81371972Y-90127999D01*
X81371986Y-90127998D01*
X81474697Y-90117505D01*
X81641119Y-90062358D01*
X81641124Y-90062356D01*
X81790345Y-89970315D01*
X81914315Y-89846345D01*
X82006356Y-89697124D01*
X82006358Y-89697119D01*
X82061505Y-89530697D01*
X82061506Y-89530690D01*
X82071999Y-89427986D01*
X82072000Y-89427973D01*
X82072000Y-88128000D01*
X81022000Y-88128000D01*
X81022000Y-90127999D01*
X80521999Y-90127999D01*
X80522000Y-90127998D01*
X80522000Y-88128000D01*
X79472001Y-88128000D01*
X79472001Y-89427986D01*
X51350674Y-89427986D01*
X51434315Y-89344345D01*
X51526356Y-89195124D01*
X51526358Y-89195119D01*
X51581505Y-89028697D01*
X51581506Y-89028690D01*
X51591999Y-88925986D01*
X51592000Y-88925973D01*
X51592000Y-87626000D01*
X50542000Y-87626000D01*
X50542000Y-89625999D01*
X50041999Y-89625999D01*
X50042000Y-89625998D01*
X50042000Y-87626000D01*
X48992001Y-87626000D01*
X48992001Y-88925986D01*
X47216901Y-88925986D01*
X47213945Y-85826013D01*
X48992000Y-85826013D01*
X48992000Y-87126000D01*
X50042000Y-87126000D01*
X50542000Y-87126000D01*
X51591999Y-87126000D01*
X51591999Y-85826020D01*
X51581505Y-85723302D01*
X51526358Y-85556880D01*
X51526356Y-85556875D01*
X51466701Y-85460160D01*
X51466700Y-85460158D01*
X51434317Y-85407657D01*
X51434316Y-85407655D01*
X51384661Y-85358000D01*
X54857391Y-85358000D01*
X55818314Y-85358000D01*
X55813920Y-85362394D01*
X55761259Y-85453606D01*
X55734000Y-85555339D01*
X55734000Y-85660661D01*
X55761259Y-85762394D01*
X55813920Y-85853606D01*
X55818314Y-85858000D01*
X54857391Y-85858000D01*
X54866009Y-85912413D01*
X54929244Y-86107029D01*
X55022140Y-86289349D01*
X55142417Y-86454894D01*
X55142417Y-86454895D01*
X55287104Y-86599582D01*
X55452650Y-86719859D01*
X55634968Y-86812754D01*
X55829578Y-86875988D01*
X55884000Y-86884607D01*
X55884000Y-85923686D01*
X55888394Y-85928080D01*
X55979606Y-85980741D01*
X56081339Y-86008000D01*
X56186661Y-86008000D01*
X56288394Y-85980741D01*
X56379606Y-85928080D01*
X56384000Y-85923686D01*
X56384000Y-86884606D01*
X56438421Y-86875988D01*
X56633031Y-86812754D01*
X56815349Y-86719859D01*
X56980894Y-86599582D01*
X56980895Y-86599582D01*
X57125582Y-86454895D01*
X57125582Y-86454894D01*
X57245861Y-86289347D01*
X57293234Y-86196371D01*
X57341208Y-86145575D01*
X57409028Y-86128779D01*
X57475164Y-86151316D01*
X57514203Y-86196369D01*
X57561713Y-86289611D01*
X57682028Y-86455213D01*
X57826786Y-86599971D01*
X57972727Y-86706001D01*
X57992390Y-86720287D01*
X58081212Y-86765544D01*
X58174776Y-86813218D01*
X58174778Y-86813218D01*
X58174781Y-86813220D01*
X58279137Y-86847127D01*
X58369465Y-86876477D01*
X58470557Y-86892488D01*
X58571648Y-86908500D01*
X58571649Y-86908500D01*
X58776351Y-86908500D01*
X58776352Y-86908500D01*
X58978534Y-86876477D01*
X59173219Y-86813220D01*
X59355610Y-86720287D01*
X59451901Y-86650328D01*
X59521213Y-86599971D01*
X59521215Y-86599968D01*
X59521219Y-86599966D01*
X59665966Y-86455219D01*
X59665968Y-86455215D01*
X59665971Y-86455213D01*
X59786284Y-86289614D01*
X59786286Y-86289611D01*
X59786287Y-86289610D01*
X59833516Y-86196917D01*
X59881489Y-86146123D01*
X59949310Y-86129328D01*
X60015445Y-86151865D01*
X60054483Y-86196917D01*
X60068950Y-86225309D01*
X60101715Y-86289614D01*
X60222028Y-86455213D01*
X60366786Y-86599971D01*
X60512727Y-86706001D01*
X60532390Y-86720287D01*
X60621212Y-86765544D01*
X60714776Y-86813218D01*
X60714778Y-86813218D01*
X60714781Y-86813220D01*
X60819137Y-86847127D01*
X60909465Y-86876477D01*
X61010557Y-86892488D01*
X61111648Y-86908500D01*
X61111649Y-86908500D01*
X61316351Y-86908500D01*
X61316352Y-86908500D01*
X61518534Y-86876477D01*
X61713219Y-86813220D01*
X61895610Y-86720287D01*
X61991901Y-86650328D01*
X62061213Y-86599971D01*
X62061215Y-86599968D01*
X62061219Y-86599966D01*
X62205966Y-86455219D01*
X62205968Y-86455215D01*
X62205971Y-86455213D01*
X62326284Y-86289614D01*
X62326286Y-86289611D01*
X62326287Y-86289610D01*
X62373516Y-86196917D01*
X62421489Y-86146123D01*
X62489310Y-86129328D01*
X62555445Y-86151865D01*
X62594483Y-86196917D01*
X62608950Y-86225309D01*
X62641715Y-86289614D01*
X62762028Y-86455213D01*
X62906786Y-86599971D01*
X63052727Y-86706001D01*
X63072390Y-86720287D01*
X63161212Y-86765544D01*
X63254776Y-86813218D01*
X63254778Y-86813218D01*
X63254781Y-86813220D01*
X63359137Y-86847127D01*
X63449465Y-86876477D01*
X63550557Y-86892488D01*
X63651648Y-86908500D01*
X63651649Y-86908500D01*
X63856351Y-86908500D01*
X63856352Y-86908500D01*
X64058534Y-86876477D01*
X64253219Y-86813220D01*
X64435610Y-86720287D01*
X64531901Y-86650328D01*
X64601213Y-86599971D01*
X64601215Y-86599968D01*
X64601219Y-86599966D01*
X64745966Y-86455219D01*
X64745968Y-86455215D01*
X64745971Y-86455213D01*
X64866284Y-86289614D01*
X64866286Y-86289611D01*
X64866287Y-86289610D01*
X64913516Y-86196917D01*
X64961489Y-86146123D01*
X65029310Y-86129328D01*
X65095445Y-86151865D01*
X65134483Y-86196917D01*
X65148950Y-86225309D01*
X65181715Y-86289614D01*
X65302028Y-86455213D01*
X65446786Y-86599971D01*
X65592727Y-86706001D01*
X65612390Y-86720287D01*
X65701212Y-86765544D01*
X65794776Y-86813218D01*
X65794778Y-86813218D01*
X65794781Y-86813220D01*
X65899137Y-86847127D01*
X65989465Y-86876477D01*
X66090557Y-86892488D01*
X66191648Y-86908500D01*
X66191649Y-86908500D01*
X66396351Y-86908500D01*
X66396352Y-86908500D01*
X66598534Y-86876477D01*
X66793219Y-86813220D01*
X66975610Y-86720287D01*
X67071901Y-86650328D01*
X67141213Y-86599971D01*
X67141215Y-86599968D01*
X67141219Y-86599966D01*
X67285966Y-86455219D01*
X67285968Y-86455215D01*
X67285971Y-86455213D01*
X67406284Y-86289614D01*
X67406286Y-86289611D01*
X67406287Y-86289610D01*
X67453516Y-86196917D01*
X67501489Y-86146123D01*
X67569310Y-86129328D01*
X67635445Y-86151865D01*
X67674483Y-86196917D01*
X67688950Y-86225309D01*
X67721715Y-86289614D01*
X67842028Y-86455213D01*
X67986786Y-86599971D01*
X68132727Y-86706001D01*
X68152390Y-86720287D01*
X68241212Y-86765544D01*
X68334776Y-86813218D01*
X68334778Y-86813218D01*
X68334781Y-86813220D01*
X68439137Y-86847127D01*
X68529465Y-86876477D01*
X68630557Y-86892488D01*
X68731648Y-86908500D01*
X68731649Y-86908500D01*
X68936351Y-86908500D01*
X68936352Y-86908500D01*
X69138534Y-86876477D01*
X69333219Y-86813220D01*
X69515610Y-86720287D01*
X69611901Y-86650328D01*
X69681213Y-86599971D01*
X69681215Y-86599968D01*
X69681219Y-86599966D01*
X69825966Y-86455219D01*
X69825968Y-86455215D01*
X69825971Y-86455213D01*
X69946284Y-86289614D01*
X69946286Y-86289611D01*
X69946287Y-86289610D01*
X69993516Y-86196917D01*
X70041489Y-86146123D01*
X70109310Y-86129328D01*
X70175445Y-86151865D01*
X70214483Y-86196917D01*
X70228950Y-86225309D01*
X70261715Y-86289614D01*
X70382028Y-86455213D01*
X70526786Y-86599971D01*
X70672727Y-86706001D01*
X70692390Y-86720287D01*
X70781212Y-86765544D01*
X70874776Y-86813218D01*
X70874778Y-86813218D01*
X70874781Y-86813220D01*
X70979137Y-86847127D01*
X71069465Y-86876477D01*
X71170557Y-86892488D01*
X71271648Y-86908500D01*
X71271649Y-86908500D01*
X71476351Y-86908500D01*
X71476352Y-86908500D01*
X71678534Y-86876477D01*
X71873219Y-86813220D01*
X72055610Y-86720287D01*
X72151901Y-86650328D01*
X72221213Y-86599971D01*
X72221215Y-86599968D01*
X72221219Y-86599966D01*
X72365966Y-86455219D01*
X72392330Y-86418930D01*
X72447658Y-86376265D01*
X72517271Y-86370284D01*
X72579067Y-86402889D01*
X72613426Y-86463726D01*
X72615938Y-86478559D01*
X72619907Y-86515480D01*
X72670202Y-86650328D01*
X72670206Y-86650335D01*
X72756452Y-86765544D01*
X72756455Y-86765547D01*
X72871664Y-86851793D01*
X72871671Y-86851797D01*
X73006517Y-86902091D01*
X73006516Y-86902091D01*
X73013444Y-86902835D01*
X73066127Y-86908500D01*
X74761872Y-86908499D01*
X74821483Y-86902091D01*
X74956331Y-86851796D01*
X75071546Y-86765546D01*
X75157796Y-86650331D01*
X75208091Y-86515483D01*
X75214500Y-86455873D01*
X75214500Y-86328013D01*
X79472000Y-86328013D01*
X79472000Y-87628000D01*
X80522000Y-87628000D01*
X81022000Y-87628000D01*
X82071999Y-87628000D01*
X82071999Y-86328028D01*
X82071998Y-86328013D01*
X82061505Y-86225302D01*
X82006358Y-86058880D01*
X82006356Y-86058875D01*
X81914315Y-85909654D01*
X81790345Y-85785684D01*
X81641124Y-85693643D01*
X81641119Y-85693641D01*
X81474697Y-85638494D01*
X81474690Y-85638493D01*
X81371986Y-85628000D01*
X81022000Y-85628000D01*
X81022000Y-87628000D01*
X80522000Y-87628000D01*
X80522000Y-85628000D01*
X80172028Y-85628000D01*
X80172012Y-85628001D01*
X80069302Y-85638494D01*
X79902880Y-85693641D01*
X79902875Y-85693643D01*
X79753654Y-85785684D01*
X79629684Y-85909654D01*
X79537643Y-86058875D01*
X79537641Y-86058880D01*
X79482494Y-86225302D01*
X79482493Y-86225309D01*
X79472000Y-86328013D01*
X75214500Y-86328013D01*
X75214499Y-85556880D01*
X75214499Y-84760129D01*
X75214498Y-84760123D01*
X75213351Y-84749455D01*
X75208091Y-84700517D01*
X75157796Y-84565669D01*
X75157795Y-84565668D01*
X75157793Y-84565664D01*
X75071547Y-84450455D01*
X75071544Y-84450452D01*
X74956335Y-84364206D01*
X74956328Y-84364202D01*
X74821482Y-84313908D01*
X74821483Y-84313908D01*
X74761883Y-84307501D01*
X74761881Y-84307500D01*
X74761873Y-84307500D01*
X74761864Y-84307500D01*
X73066129Y-84307500D01*
X73066123Y-84307501D01*
X73006516Y-84313908D01*
X72871671Y-84364202D01*
X72871664Y-84364206D01*
X72756455Y-84450452D01*
X72756452Y-84450455D01*
X72670206Y-84565664D01*
X72670202Y-84565671D01*
X72619908Y-84700516D01*
X72615939Y-84737440D01*
X72589201Y-84801991D01*
X72531809Y-84841839D01*
X72461983Y-84844332D01*
X72401895Y-84808679D01*
X72392332Y-84797070D01*
X72365967Y-84760782D01*
X72221213Y-84616028D01*
X72055613Y-84495715D01*
X72055612Y-84495714D01*
X72055610Y-84495713D01*
X71998653Y-84466691D01*
X71873223Y-84402781D01*
X71678534Y-84339522D01*
X71503995Y-84311878D01*
X71476352Y-84307500D01*
X71271648Y-84307500D01*
X71247329Y-84311351D01*
X71069465Y-84339522D01*
X70874776Y-84402781D01*
X70692386Y-84495715D01*
X70526786Y-84616028D01*
X70382028Y-84760786D01*
X70261715Y-84926386D01*
X70214485Y-85019080D01*
X70166510Y-85069876D01*
X70098689Y-85086671D01*
X70032554Y-85064134D01*
X69993515Y-85019080D01*
X69992883Y-85017840D01*
X69946287Y-84926390D01*
X69906180Y-84871187D01*
X69825971Y-84760786D01*
X69681213Y-84616028D01*
X69515613Y-84495715D01*
X69515612Y-84495714D01*
X69515610Y-84495713D01*
X69458653Y-84466691D01*
X69333223Y-84402781D01*
X69138534Y-84339522D01*
X68963995Y-84311878D01*
X68936352Y-84307500D01*
X68731648Y-84307500D01*
X68707329Y-84311351D01*
X68529465Y-84339522D01*
X68334776Y-84402781D01*
X68152386Y-84495715D01*
X67986786Y-84616028D01*
X67842028Y-84760786D01*
X67721715Y-84926386D01*
X67674485Y-85019080D01*
X67626510Y-85069876D01*
X67558689Y-85086671D01*
X67492554Y-85064134D01*
X67453515Y-85019080D01*
X67452883Y-85017840D01*
X67406287Y-84926390D01*
X67366180Y-84871187D01*
X67285971Y-84760786D01*
X67141213Y-84616028D01*
X66975613Y-84495715D01*
X66975612Y-84495714D01*
X66975610Y-84495713D01*
X66918653Y-84466691D01*
X66793223Y-84402781D01*
X66598534Y-84339522D01*
X66423995Y-84311878D01*
X66396352Y-84307500D01*
X66191648Y-84307500D01*
X66167329Y-84311351D01*
X65989465Y-84339522D01*
X65794776Y-84402781D01*
X65612386Y-84495715D01*
X65446786Y-84616028D01*
X65302028Y-84760786D01*
X65181715Y-84926386D01*
X65134485Y-85019080D01*
X65086510Y-85069876D01*
X65018689Y-85086671D01*
X64952554Y-85064134D01*
X64913515Y-85019080D01*
X64912883Y-85017840D01*
X64866287Y-84926390D01*
X64826180Y-84871187D01*
X64745971Y-84760786D01*
X64601213Y-84616028D01*
X64435613Y-84495715D01*
X64435612Y-84495714D01*
X64435610Y-84495713D01*
X64378653Y-84466691D01*
X64253223Y-84402781D01*
X64058534Y-84339522D01*
X63883995Y-84311878D01*
X63856352Y-84307500D01*
X63651648Y-84307500D01*
X63627329Y-84311351D01*
X63449465Y-84339522D01*
X63254776Y-84402781D01*
X63072386Y-84495715D01*
X62906786Y-84616028D01*
X62762028Y-84760786D01*
X62641715Y-84926386D01*
X62594485Y-85019080D01*
X62546510Y-85069876D01*
X62478689Y-85086671D01*
X62412554Y-85064134D01*
X62373515Y-85019080D01*
X62372883Y-85017840D01*
X62326287Y-84926390D01*
X62286180Y-84871187D01*
X62205971Y-84760786D01*
X62061213Y-84616028D01*
X61895613Y-84495715D01*
X61895612Y-84495714D01*
X61895610Y-84495713D01*
X61838653Y-84466691D01*
X61713223Y-84402781D01*
X61518534Y-84339522D01*
X61343995Y-84311878D01*
X61316352Y-84307500D01*
X61111648Y-84307500D01*
X61087329Y-84311351D01*
X60909465Y-84339522D01*
X60714776Y-84402781D01*
X60532386Y-84495715D01*
X60366786Y-84616028D01*
X60222028Y-84760786D01*
X60101715Y-84926386D01*
X60054485Y-85019080D01*
X60006510Y-85069876D01*
X59938689Y-85086671D01*
X59872554Y-85064134D01*
X59833515Y-85019080D01*
X59832883Y-85017840D01*
X59786287Y-84926390D01*
X59746180Y-84871187D01*
X59665971Y-84760786D01*
X59521213Y-84616028D01*
X59355613Y-84495715D01*
X59355612Y-84495714D01*
X59355610Y-84495713D01*
X59298653Y-84466691D01*
X59173223Y-84402781D01*
X58978534Y-84339522D01*
X58803995Y-84311878D01*
X58776352Y-84307500D01*
X58571648Y-84307500D01*
X58547329Y-84311351D01*
X58369465Y-84339522D01*
X58174776Y-84402781D01*
X57992386Y-84495715D01*
X57826786Y-84616028D01*
X57682028Y-84760786D01*
X57561713Y-84926388D01*
X57514203Y-85019630D01*
X57466228Y-85070426D01*
X57398407Y-85087220D01*
X57332272Y-85064682D01*
X57293234Y-85019628D01*
X57245861Y-84926652D01*
X57125582Y-84761105D01*
X57125582Y-84761104D01*
X56980895Y-84616417D01*
X56815349Y-84496140D01*
X56633029Y-84403244D01*
X56438413Y-84340009D01*
X56384000Y-84331390D01*
X56384000Y-85292314D01*
X56379606Y-85287920D01*
X56288394Y-85235259D01*
X56186661Y-85208000D01*
X56081339Y-85208000D01*
X55979606Y-85235259D01*
X55888394Y-85287920D01*
X55884000Y-85292314D01*
X55884000Y-84331390D01*
X55829586Y-84340009D01*
X55634970Y-84403244D01*
X55452650Y-84496140D01*
X55287105Y-84616417D01*
X55287104Y-84616417D01*
X55142417Y-84761104D01*
X55142417Y-84761105D01*
X55022140Y-84926650D01*
X54929244Y-85108970D01*
X54866009Y-85303586D01*
X54857391Y-85358000D01*
X51384661Y-85358000D01*
X51310345Y-85283684D01*
X51161124Y-85191643D01*
X51161119Y-85191641D01*
X50994697Y-85136494D01*
X50994690Y-85136493D01*
X50891986Y-85126000D01*
X50542000Y-85126000D01*
X50542000Y-87126000D01*
X50042000Y-87126000D01*
X50042000Y-85126000D01*
X49692028Y-85126000D01*
X49692012Y-85126001D01*
X49589302Y-85136494D01*
X49422880Y-85191641D01*
X49422875Y-85191643D01*
X49273654Y-85283684D01*
X49149684Y-85407654D01*
X49057643Y-85556875D01*
X49057641Y-85556880D01*
X49002494Y-85723302D01*
X49002493Y-85723309D01*
X48992000Y-85826013D01*
X47213945Y-85826013D01*
X47207327Y-78885016D01*
X47226948Y-78817960D01*
X47279708Y-78772155D01*
X47331327Y-78760900D01*
X48778003Y-78760900D01*
X48778008Y-78760900D01*
X48880797Y-78750399D01*
X49047334Y-78695214D01*
X49196655Y-78603111D01*
X49320711Y-78479055D01*
X49412814Y-78329734D01*
X49467999Y-78163197D01*
X49478500Y-78060408D01*
X49478500Y-76735841D01*
X50677500Y-76735841D01*
X50677500Y-76984958D01*
X50677501Y-76984975D01*
X50710004Y-77231863D01*
X50710018Y-77231965D01*
X50732652Y-77316436D01*
X50774498Y-77472607D01*
X50869830Y-77702761D01*
X50869837Y-77702776D01*
X50994400Y-77918526D01*
X51146060Y-78116174D01*
X51146066Y-78116181D01*
X51322218Y-78292333D01*
X51322225Y-78292339D01*
X51519873Y-78443999D01*
X51735623Y-78568562D01*
X51735638Y-78568569D01*
X51834825Y-78609653D01*
X51965793Y-78663902D01*
X52206435Y-78728382D01*
X52453435Y-78760900D01*
X52453442Y-78760900D01*
X52702558Y-78760900D01*
X52702565Y-78760900D01*
X52949565Y-78728382D01*
X53190207Y-78663902D01*
X53420373Y-78568564D01*
X53636127Y-78443999D01*
X53833776Y-78292338D01*
X54009938Y-78116176D01*
X54161599Y-77918527D01*
X54286164Y-77702773D01*
X54381502Y-77472607D01*
X54445982Y-77231965D01*
X54478500Y-76984965D01*
X54478500Y-76735841D01*
X55677500Y-76735841D01*
X55677500Y-76984958D01*
X55677501Y-76984975D01*
X55710004Y-77231863D01*
X55710018Y-77231965D01*
X55732652Y-77316436D01*
X55774498Y-77472607D01*
X55869830Y-77702761D01*
X55869837Y-77702776D01*
X55994400Y-77918526D01*
X56146060Y-78116174D01*
X56146066Y-78116181D01*
X56322218Y-78292333D01*
X56322225Y-78292339D01*
X56519873Y-78443999D01*
X56735623Y-78568562D01*
X56735638Y-78568569D01*
X56834825Y-78609653D01*
X56965793Y-78663902D01*
X57206435Y-78728382D01*
X57453435Y-78760900D01*
X57453442Y-78760900D01*
X57702558Y-78760900D01*
X57702565Y-78760900D01*
X57949565Y-78728382D01*
X58190207Y-78663902D01*
X58420373Y-78568564D01*
X58636127Y-78443999D01*
X58833776Y-78292338D01*
X59009938Y-78116176D01*
X59161599Y-77918527D01*
X59286164Y-77702773D01*
X59381502Y-77472607D01*
X59445982Y-77231965D01*
X59478500Y-76984965D01*
X59478500Y-76735841D01*
X60677500Y-76735841D01*
X60677500Y-76984958D01*
X60677501Y-76984975D01*
X60710004Y-77231863D01*
X60710018Y-77231965D01*
X60732652Y-77316436D01*
X60774498Y-77472607D01*
X60869830Y-77702761D01*
X60869837Y-77702776D01*
X60994400Y-77918526D01*
X61146060Y-78116174D01*
X61146066Y-78116181D01*
X61322218Y-78292333D01*
X61322225Y-78292339D01*
X61519873Y-78443999D01*
X61735623Y-78568562D01*
X61735638Y-78568569D01*
X61834825Y-78609653D01*
X61965793Y-78663902D01*
X62206435Y-78728382D01*
X62453435Y-78760900D01*
X62453442Y-78760900D01*
X62702558Y-78760900D01*
X62702565Y-78760900D01*
X62949565Y-78728382D01*
X63190207Y-78663902D01*
X63420373Y-78568564D01*
X63636127Y-78443999D01*
X63833776Y-78292338D01*
X64009938Y-78116176D01*
X64161599Y-77918527D01*
X64286164Y-77702773D01*
X64381502Y-77472607D01*
X64445982Y-77231965D01*
X64478500Y-76984965D01*
X64478500Y-76735841D01*
X65677500Y-76735841D01*
X65677500Y-76984958D01*
X65677501Y-76984975D01*
X65710004Y-77231863D01*
X65710018Y-77231965D01*
X65732652Y-77316436D01*
X65774498Y-77472607D01*
X65869830Y-77702761D01*
X65869837Y-77702776D01*
X65994400Y-77918526D01*
X66146060Y-78116174D01*
X66146066Y-78116181D01*
X66322218Y-78292333D01*
X66322225Y-78292339D01*
X66519873Y-78443999D01*
X66735623Y-78568562D01*
X66735638Y-78568569D01*
X66834825Y-78609653D01*
X66965793Y-78663902D01*
X67206435Y-78728382D01*
X67453435Y-78760900D01*
X67453442Y-78760900D01*
X67702558Y-78760900D01*
X67702565Y-78760900D01*
X67949565Y-78728382D01*
X68190207Y-78663902D01*
X68420373Y-78568564D01*
X68636127Y-78443999D01*
X68833776Y-78292338D01*
X68833781Y-78292333D01*
X68892750Y-78233365D01*
X69009933Y-78116181D01*
X69009938Y-78116176D01*
X69161599Y-77918527D01*
X69286164Y-77702773D01*
X69381502Y-77472607D01*
X69445982Y-77231965D01*
X69478500Y-76984965D01*
X69478500Y-76735866D01*
X70678000Y-76735866D01*
X70678000Y-76984933D01*
X70710508Y-77231863D01*
X70774973Y-77472449D01*
X70870283Y-77702548D01*
X70870288Y-77702559D01*
X70994813Y-77918241D01*
X70994819Y-77918249D01*
X71069400Y-78015445D01*
X71976958Y-77107887D01*
X72001978Y-77168290D01*
X72073112Y-77274751D01*
X72163649Y-77365288D01*
X72270110Y-77436422D01*
X72330511Y-77461441D01*
X71422953Y-78368998D01*
X71520150Y-78443580D01*
X71520158Y-78443586D01*
X71735840Y-78568111D01*
X71735851Y-78568116D01*
X71965950Y-78663426D01*
X72206536Y-78727891D01*
X72453466Y-78760400D01*
X72702534Y-78760400D01*
X72949463Y-78727891D01*
X73190049Y-78663426D01*
X73420148Y-78568116D01*
X73420159Y-78568111D01*
X73635855Y-78443578D01*
X73733045Y-78369000D01*
X73733045Y-78368997D01*
X72825488Y-77461441D01*
X72885890Y-77436422D01*
X72992351Y-77365288D01*
X73082888Y-77274751D01*
X73154022Y-77168290D01*
X73179041Y-77107888D01*
X74086597Y-78015445D01*
X74086600Y-78015445D01*
X74161178Y-77918255D01*
X74285711Y-77702559D01*
X74285716Y-77702548D01*
X74381026Y-77472449D01*
X74445491Y-77231863D01*
X74478000Y-76984933D01*
X74478000Y-76735866D01*
X74445491Y-76488936D01*
X74381026Y-76248350D01*
X74285716Y-76018251D01*
X74285711Y-76018240D01*
X74161186Y-75802558D01*
X74161180Y-75802550D01*
X74086598Y-75705353D01*
X73179041Y-76612910D01*
X73154022Y-76552510D01*
X73082888Y-76446049D01*
X72992351Y-76355512D01*
X72885890Y-76284378D01*
X72825487Y-76259357D01*
X73733045Y-75351800D01*
X73635849Y-75277219D01*
X73635841Y-75277213D01*
X73420159Y-75152688D01*
X73420148Y-75152683D01*
X73190049Y-75057373D01*
X72949463Y-74992908D01*
X72702534Y-74960400D01*
X72453466Y-74960400D01*
X72206536Y-74992908D01*
X71965950Y-75057373D01*
X71735851Y-75152683D01*
X71735847Y-75152685D01*
X71520143Y-75277223D01*
X71422953Y-75351799D01*
X71422953Y-75351800D01*
X72330511Y-76259358D01*
X72270110Y-76284378D01*
X72163649Y-76355512D01*
X72073112Y-76446049D01*
X72001978Y-76552510D01*
X71976958Y-76612911D01*
X71069400Y-75705353D01*
X71069399Y-75705353D01*
X70994823Y-75802543D01*
X70870285Y-76018247D01*
X70870283Y-76018251D01*
X70774973Y-76248350D01*
X70710508Y-76488936D01*
X70678000Y-76735866D01*
X69478500Y-76735866D01*
X69478500Y-76735835D01*
X69445982Y-76488835D01*
X69381502Y-76248193D01*
X69286257Y-76018251D01*
X69286169Y-76018038D01*
X69286162Y-76018023D01*
X69161599Y-75802273D01*
X69009936Y-75604621D01*
X68833781Y-75428466D01*
X68833774Y-75428460D01*
X68636126Y-75276800D01*
X68420376Y-75152237D01*
X68420361Y-75152230D01*
X68190207Y-75056898D01*
X68073349Y-75025586D01*
X67949565Y-74992418D01*
X67949564Y-74992417D01*
X67949561Y-74992417D01*
X67702575Y-74959901D01*
X67702570Y-74959900D01*
X67702565Y-74959900D01*
X67453435Y-74959900D01*
X67453429Y-74959900D01*
X67453424Y-74959901D01*
X67206438Y-74992417D01*
X66965792Y-75056898D01*
X66735638Y-75152230D01*
X66735623Y-75152237D01*
X66519873Y-75276800D01*
X66322225Y-75428460D01*
X66322218Y-75428466D01*
X66146066Y-75604618D01*
X66146064Y-75604621D01*
X65994400Y-75802273D01*
X65869837Y-76018023D01*
X65869830Y-76018038D01*
X65774498Y-76248192D01*
X65710017Y-76488838D01*
X65677501Y-76735824D01*
X65677500Y-76735841D01*
X64478500Y-76735841D01*
X64478500Y-76735835D01*
X64445982Y-76488835D01*
X64381502Y-76248193D01*
X64286257Y-76018251D01*
X64286169Y-76018038D01*
X64286162Y-76018023D01*
X64161599Y-75802273D01*
X64009936Y-75604621D01*
X63833781Y-75428466D01*
X63833774Y-75428460D01*
X63636126Y-75276800D01*
X63420376Y-75152237D01*
X63420361Y-75152230D01*
X63190207Y-75056898D01*
X63073349Y-75025586D01*
X62949565Y-74992418D01*
X62949564Y-74992417D01*
X62949561Y-74992417D01*
X62702575Y-74959901D01*
X62702570Y-74959900D01*
X62702565Y-74959900D01*
X62453435Y-74959900D01*
X62453429Y-74959900D01*
X62453424Y-74959901D01*
X62206438Y-74992417D01*
X61965792Y-75056898D01*
X61735638Y-75152230D01*
X61735623Y-75152237D01*
X61519873Y-75276800D01*
X61322225Y-75428460D01*
X61322218Y-75428466D01*
X61146066Y-75604618D01*
X61146064Y-75604621D01*
X60994400Y-75802273D01*
X60869837Y-76018023D01*
X60869830Y-76018038D01*
X60774498Y-76248192D01*
X60710017Y-76488838D01*
X60677501Y-76735824D01*
X60677500Y-76735841D01*
X59478500Y-76735841D01*
X59478500Y-76735835D01*
X59445982Y-76488835D01*
X59381502Y-76248193D01*
X59286257Y-76018251D01*
X59286169Y-76018038D01*
X59286162Y-76018023D01*
X59161599Y-75802273D01*
X59009936Y-75604621D01*
X58833781Y-75428466D01*
X58833774Y-75428460D01*
X58636126Y-75276800D01*
X58420376Y-75152237D01*
X58420361Y-75152230D01*
X58190207Y-75056898D01*
X58073349Y-75025586D01*
X57949565Y-74992418D01*
X57949564Y-74992417D01*
X57949561Y-74992417D01*
X57702575Y-74959901D01*
X57702570Y-74959900D01*
X57702565Y-74959900D01*
X57453435Y-74959900D01*
X57453429Y-74959900D01*
X57453424Y-74959901D01*
X57206438Y-74992417D01*
X56965792Y-75056898D01*
X56735638Y-75152230D01*
X56735623Y-75152237D01*
X56519873Y-75276800D01*
X56322225Y-75428460D01*
X56322218Y-75428466D01*
X56146066Y-75604618D01*
X56146064Y-75604621D01*
X55994400Y-75802273D01*
X55869837Y-76018023D01*
X55869830Y-76018038D01*
X55774498Y-76248192D01*
X55710017Y-76488838D01*
X55677501Y-76735824D01*
X55677500Y-76735841D01*
X54478500Y-76735841D01*
X54478500Y-76735835D01*
X54445982Y-76488835D01*
X54381502Y-76248193D01*
X54286257Y-76018251D01*
X54286169Y-76018038D01*
X54286162Y-76018023D01*
X54161599Y-75802273D01*
X54009936Y-75604621D01*
X53833781Y-75428466D01*
X53833774Y-75428460D01*
X53636126Y-75276800D01*
X53420376Y-75152237D01*
X53420361Y-75152230D01*
X53190207Y-75056898D01*
X53073349Y-75025586D01*
X52949565Y-74992418D01*
X52949564Y-74992417D01*
X52949561Y-74992417D01*
X52702575Y-74959901D01*
X52702570Y-74959900D01*
X52702565Y-74959900D01*
X52453435Y-74959900D01*
X52453429Y-74959900D01*
X52453424Y-74959901D01*
X52206438Y-74992417D01*
X51965792Y-75056898D01*
X51735638Y-75152230D01*
X51735623Y-75152237D01*
X51519873Y-75276800D01*
X51322225Y-75428460D01*
X51322218Y-75428466D01*
X51146066Y-75604618D01*
X51146064Y-75604621D01*
X50994400Y-75802273D01*
X50869837Y-76018023D01*
X50869830Y-76018038D01*
X50774498Y-76248192D01*
X50710017Y-76488838D01*
X50677501Y-76735824D01*
X50677500Y-76735841D01*
X49478500Y-76735841D01*
X49478500Y-75660392D01*
X49467999Y-75557603D01*
X49412814Y-75391066D01*
X49409950Y-75386423D01*
X49320713Y-75241748D01*
X49320710Y-75241744D01*
X49196655Y-75117689D01*
X49196651Y-75117686D01*
X49047337Y-75025587D01*
X49047335Y-75025586D01*
X48964065Y-74997993D01*
X48880797Y-74970401D01*
X48880795Y-74970400D01*
X48778015Y-74959900D01*
X48778008Y-74959900D01*
X47327467Y-74959900D01*
X47260428Y-74940215D01*
X47214673Y-74887411D01*
X47203467Y-74836018D01*
X47202986Y-74331139D01*
X47202403Y-73720135D01*
X79649500Y-73720135D01*
X79649500Y-75123870D01*
X79649501Y-75123876D01*
X79655908Y-75183483D01*
X79706202Y-75318328D01*
X79706204Y-75318331D01*
X79778767Y-75415262D01*
X79784770Y-75430370D01*
X79793737Y-75441344D01*
X79798519Y-75464969D01*
X79802697Y-75475482D01*
X79803500Y-75482503D01*
X79803500Y-75536541D01*
X79817043Y-75604624D01*
X79818039Y-75609632D01*
X79818041Y-75609648D01*
X79837982Y-75709897D01*
X79841948Y-75729831D01*
X79841949Y-75729837D01*
X79917364Y-75911907D01*
X79917371Y-75911920D01*
X80026859Y-76075780D01*
X80026860Y-76075781D01*
X80026861Y-76075782D01*
X80166218Y-76215139D01*
X80166219Y-76215139D01*
X80173286Y-76222206D01*
X80173285Y-76222206D01*
X80173289Y-76222209D01*
X81674981Y-77723901D01*
X81708466Y-77785224D01*
X81711300Y-77811582D01*
X81711300Y-80542545D01*
X81691615Y-80609584D01*
X81638811Y-80655339D01*
X81626305Y-80660251D01*
X81484666Y-80707186D01*
X81484663Y-80707187D01*
X81335342Y-80799289D01*
X81211289Y-80923342D01*
X81119187Y-81072663D01*
X81119185Y-81072668D01*
X81119115Y-81072880D01*
X81064001Y-81239203D01*
X81064001Y-81239204D01*
X81064000Y-81239204D01*
X81053500Y-81341983D01*
X81053500Y-82742001D01*
X81053501Y-82742018D01*
X81064000Y-82844796D01*
X81064001Y-82844799D01*
X81119115Y-83011119D01*
X81119186Y-83011334D01*
X81211288Y-83160656D01*
X81335344Y-83284712D01*
X81484666Y-83376814D01*
X81651203Y-83431999D01*
X81753991Y-83442500D01*
X83854008Y-83442499D01*
X83956797Y-83431999D01*
X84123334Y-83376814D01*
X84272656Y-83284712D01*
X84396712Y-83160656D01*
X84488814Y-83011334D01*
X84543999Y-82844797D01*
X84554500Y-82742009D01*
X84554500Y-82741986D01*
X85054001Y-82741986D01*
X85064494Y-82844697D01*
X85119641Y-83011119D01*
X85119643Y-83011124D01*
X85211684Y-83160345D01*
X85335654Y-83284315D01*
X85484875Y-83376356D01*
X85484880Y-83376358D01*
X85651302Y-83431505D01*
X85651309Y-83431506D01*
X85754019Y-83441999D01*
X86553999Y-83441999D01*
X87054000Y-83441999D01*
X87853972Y-83441999D01*
X87853986Y-83441998D01*
X87956697Y-83431505D01*
X88123119Y-83376358D01*
X88123124Y-83376356D01*
X88272345Y-83284315D01*
X88396315Y-83160345D01*
X88488356Y-83011124D01*
X88488358Y-83011119D01*
X88543505Y-82844697D01*
X88543506Y-82844690D01*
X88553999Y-82741986D01*
X88554000Y-82741973D01*
X88554000Y-82292000D01*
X87054000Y-82292000D01*
X87054000Y-83441999D01*
X86553999Y-83441999D01*
X86554000Y-83441998D01*
X86554000Y-82292000D01*
X85054001Y-82292000D01*
X85054001Y-82741986D01*
X84554500Y-82741986D01*
X84554499Y-81792000D01*
X84554499Y-81342013D01*
X85054000Y-81342013D01*
X85054000Y-81792000D01*
X86554000Y-81792000D01*
X87054000Y-81792000D01*
X88553999Y-81792000D01*
X88553999Y-81342028D01*
X88553998Y-81342013D01*
X88543505Y-81239302D01*
X88488358Y-81072880D01*
X88488356Y-81072875D01*
X88396315Y-80923654D01*
X88272345Y-80799684D01*
X88123124Y-80707643D01*
X88123119Y-80707641D01*
X87956697Y-80652494D01*
X87956690Y-80652493D01*
X87853986Y-80642000D01*
X87054000Y-80642000D01*
X87054000Y-81792000D01*
X86554000Y-81792000D01*
X86554000Y-80642000D01*
X85754028Y-80642000D01*
X85754012Y-80642001D01*
X85651302Y-80652494D01*
X85484880Y-80707641D01*
X85484875Y-80707643D01*
X85335654Y-80799684D01*
X85211684Y-80923654D01*
X85119643Y-81072875D01*
X85119641Y-81072880D01*
X85064494Y-81239302D01*
X85064493Y-81239309D01*
X85054000Y-81342013D01*
X84554499Y-81342013D01*
X84554499Y-81341998D01*
X84554498Y-81341981D01*
X84543999Y-81239203D01*
X84543998Y-81239200D01*
X84488814Y-81072666D01*
X84396712Y-80923344D01*
X84272656Y-80799288D01*
X84123334Y-80707186D01*
X83956797Y-80652001D01*
X83956795Y-80652000D01*
X83854016Y-80641500D01*
X83854009Y-80641500D01*
X83836300Y-80641500D01*
X83769261Y-80621815D01*
X83723506Y-80569011D01*
X83712300Y-80517500D01*
X83712300Y-77245896D01*
X83731985Y-77178857D01*
X83748619Y-77158215D01*
X84035237Y-76871598D01*
X84324016Y-76582819D01*
X84385339Y-76549334D01*
X84411697Y-76546500D01*
X86376099Y-76546500D01*
X86443138Y-76566185D01*
X86481638Y-76605404D01*
X86505660Y-76644350D01*
X86627650Y-76766340D01*
X86698952Y-76810320D01*
X86745677Y-76862267D01*
X86756900Y-76931229D01*
X86729057Y-76995311D01*
X86670988Y-77034168D01*
X86646461Y-77039216D01*
X86619201Y-77042001D01*
X86619200Y-77042001D01*
X86452668Y-77097185D01*
X86452663Y-77097187D01*
X86303342Y-77189289D01*
X86179289Y-77313342D01*
X86087187Y-77462663D01*
X86087185Y-77462668D01*
X86071368Y-77510400D01*
X86032001Y-77629203D01*
X86032001Y-77629204D01*
X86032000Y-77629204D01*
X86021500Y-77731983D01*
X86021500Y-78732001D01*
X86021501Y-78732019D01*
X86032000Y-78834796D01*
X86032001Y-78834799D01*
X86087185Y-79001331D01*
X86087186Y-79001334D01*
X86179288Y-79150656D01*
X86303344Y-79274712D01*
X86452666Y-79366814D01*
X86619203Y-79421999D01*
X86721991Y-79432500D01*
X87522008Y-79432499D01*
X87522016Y-79432498D01*
X87522019Y-79432498D01*
X87578302Y-79426748D01*
X87624797Y-79421999D01*
X87791334Y-79366814D01*
X87940656Y-79274712D01*
X88034319Y-79181049D01*
X88095642Y-79147564D01*
X88165334Y-79152548D01*
X88209681Y-79181049D01*
X88303344Y-79274712D01*
X88452666Y-79366814D01*
X88619203Y-79421999D01*
X88721991Y-79432500D01*
X89522008Y-79432499D01*
X89522016Y-79432498D01*
X89522019Y-79432498D01*
X89578302Y-79426748D01*
X89624797Y-79421999D01*
X89791334Y-79366814D01*
X89940656Y-79274712D01*
X90064712Y-79150656D01*
X90156814Y-79001334D01*
X90211999Y-78834797D01*
X90222500Y-78732009D01*
X90222499Y-77731992D01*
X90221672Y-77723901D01*
X90211999Y-77629203D01*
X90211998Y-77629200D01*
X90156814Y-77462666D01*
X90064712Y-77313344D01*
X89940656Y-77189288D01*
X89813403Y-77110798D01*
X89806578Y-77103210D01*
X89797297Y-77098972D01*
X89783608Y-77077672D01*
X89766679Y-77058850D01*
X89764034Y-77047214D01*
X89759523Y-77040194D01*
X89754500Y-77005259D01*
X89754500Y-76909471D01*
X89774185Y-76842432D01*
X89813401Y-76803933D01*
X89874350Y-76766340D01*
X89996340Y-76644350D01*
X90086908Y-76497516D01*
X90141174Y-76333753D01*
X90151500Y-76232677D01*
X90151499Y-75659324D01*
X90145911Y-75604624D01*
X90141174Y-75558247D01*
X90133981Y-75536541D01*
X90086908Y-75394484D01*
X89996340Y-75247650D01*
X89874350Y-75125660D01*
X89727516Y-75035092D01*
X89563753Y-74980826D01*
X89563751Y-74980825D01*
X89462678Y-74970500D01*
X88789330Y-74970500D01*
X88789312Y-74970501D01*
X88688247Y-74980825D01*
X88524484Y-75035092D01*
X88524481Y-75035093D01*
X88377648Y-75125661D01*
X88338681Y-75164629D01*
X88277358Y-75198114D01*
X88207666Y-75193130D01*
X88163319Y-75164629D01*
X88124351Y-75125661D01*
X88124350Y-75125660D01*
X87977516Y-75035092D01*
X87813753Y-74980826D01*
X87813751Y-74980825D01*
X87712678Y-74970500D01*
X87039330Y-74970500D01*
X87039312Y-74970501D01*
X86938247Y-74980825D01*
X86774484Y-75035092D01*
X86774481Y-75035093D01*
X86627648Y-75125661D01*
X86505659Y-75247650D01*
X86481638Y-75286596D01*
X86429690Y-75333321D01*
X86376099Y-75345500D01*
X84032543Y-75345500D01*
X83879813Y-75386423D01*
X83839989Y-75409417D01*
X83839988Y-75409417D01*
X83745250Y-75464113D01*
X83745247Y-75464115D01*
X83742884Y-75465480D01*
X83631080Y-75577284D01*
X83630922Y-75577441D01*
X83082323Y-76126041D01*
X83021000Y-76159526D01*
X82951308Y-76154542D01*
X82906961Y-76126041D01*
X82560331Y-75779411D01*
X82526846Y-75718088D01*
X82531830Y-75648396D01*
X82573702Y-75592463D01*
X82639166Y-75568046D01*
X82667408Y-75569256D01*
X82713139Y-75576500D01*
X82713140Y-75576500D01*
X82894860Y-75576500D01*
X82894861Y-75576500D01*
X83074346Y-75548072D01*
X83074349Y-75548071D01*
X83074350Y-75548071D01*
X83247171Y-75491918D01*
X83247171Y-75491917D01*
X83247174Y-75491917D01*
X83409090Y-75409417D01*
X83556106Y-75302603D01*
X83684603Y-75174106D01*
X83791417Y-75027090D01*
X83873917Y-74865174D01*
X83930072Y-74692346D01*
X83958500Y-74512861D01*
X83958500Y-74331139D01*
X83930072Y-74151654D01*
X83930071Y-74151650D01*
X83930071Y-74151649D01*
X83873918Y-73978828D01*
X83873916Y-73978825D01*
X83791416Y-73816909D01*
X83684603Y-73669894D01*
X83556106Y-73541397D01*
X83409090Y-73434583D01*
X83247174Y-73352083D01*
X83247171Y-73352081D01*
X83074348Y-73295928D01*
X82935319Y-73273908D01*
X82894861Y-73267500D01*
X82713139Y-73267500D01*
X82672681Y-73273908D01*
X82533652Y-73295928D01*
X82533649Y-73295928D01*
X82360828Y-73352081D01*
X82360825Y-73352083D01*
X82198906Y-73434585D01*
X82061194Y-73534639D01*
X81995388Y-73558119D01*
X81927334Y-73542294D01*
X81889043Y-73508632D01*
X81815547Y-73410455D01*
X81815544Y-73410452D01*
X81700335Y-73324206D01*
X81700328Y-73324202D01*
X81565482Y-73273908D01*
X81565483Y-73273908D01*
X81505883Y-73267501D01*
X81505881Y-73267500D01*
X81505873Y-73267500D01*
X81505864Y-73267500D01*
X80102129Y-73267500D01*
X80102123Y-73267501D01*
X80042516Y-73273908D01*
X79907671Y-73324202D01*
X79907664Y-73324206D01*
X79792455Y-73410452D01*
X79792452Y-73410455D01*
X79706206Y-73525664D01*
X79706202Y-73525671D01*
X79655908Y-73660517D01*
X79649501Y-73720116D01*
X79649500Y-73720135D01*
X47202403Y-73720135D01*
X47201851Y-73141616D01*
X47221472Y-73074560D01*
X47274232Y-73028755D01*
X47325851Y-73017500D01*
X90642275Y-73017500D01*
X90709314Y-73037185D01*
G37*
%TD.AperFunction*%
%TD*%
M02*
