%TF.GenerationSoftware,KiCad,Pcbnew,10.0.5*%
%TF.CreationDate,2026-09-04T15:37:05-07:00*%
%TF.ProjectId,V67_cycletron,5636375f-6379-4636-9c65-74726f6e2e6b,rev?*%
%TF.SameCoordinates,Original*%
%TF.FileFunction,Legend,Top*%
%TF.FilePolarity,Positive*%
%FSLAX46Y46*%
G04 Gerber Fmt 4.6, Leading zero omitted, Abs format (unit mm)*
G04 Created by KiCad (PCBNEW 10.0.5) date 2026-09-04 15:37:05*
%MOMM*%
%LPD*%
G01*
G04 APERTURE LIST*
G04 Aperture macros list*
%AMRoundRect*
0 Rectangle with rounded corners*
0 $1 Rounding radius*
0 $2 $3 $4 $5 $6 $7 $8 $9 X,Y pos of 4 corners*
0 Add a 4 corners polygon primitive as box body*
4,1,4,$2,$3,$4,$5,$6,$7,$8,$9,$2,$3,0*
0 Add four circle primitives for the rounded corners*
1,1,$1+$1,$2,$3*
1,1,$1+$1,$4,$5*
1,1,$1+$1,$6,$7*
1,1,$1+$1,$8,$9*
0 Add four rect primitives between the rounded corners*
20,1,$1+$1,$2,$3,$4,$5,0*
20,1,$1+$1,$4,$5,$6,$7,0*
20,1,$1+$1,$6,$7,$8,$9,0*
20,1,$1+$1,$8,$9,$2,$3,0*%
G04 Aperture macros list end*
%ADD10C,0.152400*%
%ADD11C,0.100000*%
%ADD12C,0.150000*%
%ADD13C,0.120000*%
%ADD14C,0.200000*%
%ADD15C,0.127000*%
%ADD16R,1.700000X1.700000*%
%ADD17C,1.700000*%
%ADD18RoundRect,0.250000X-1.000000X-0.650000X1.000000X-0.650000X1.000000X0.650000X-1.000000X0.650000X0*%
%ADD19RoundRect,0.250000X0.475000X-0.337500X0.475000X0.337500X-0.475000X0.337500X-0.475000X-0.337500X0*%
%ADD20RoundRect,0.250000X0.350000X0.450000X-0.350000X0.450000X-0.350000X-0.450000X0.350000X-0.450000X0*%
%ADD21RoundRect,0.237500X0.287500X0.237500X-0.287500X0.237500X-0.287500X-0.237500X0.287500X-0.237500X0*%
%ADD22C,1.600000*%
%ADD23O,1.600000X1.600000*%
%ADD24RoundRect,0.250001X-1.149999X-1.149999X1.149999X-1.149999X1.149999X1.149999X-1.149999X1.149999X0*%
%ADD25C,2.800000*%
%ADD26R,1.600000X1.600000*%
%ADD27RoundRect,0.250000X-0.350000X-0.450000X0.350000X-0.450000X0.350000X0.450000X-0.350000X0.450000X0*%
%ADD28RoundRect,0.250000X-0.550000X1.500000X-0.550000X-1.500000X0.550000X-1.500000X0.550000X1.500000X0*%
%ADD29C,2.200000*%
%ADD30R,1.980000X1.980000*%
%ADD31C,1.980000*%
%ADD32RoundRect,0.250000X0.337500X0.475000X-0.337500X0.475000X-0.337500X-0.475000X0.337500X-0.475000X0*%
%ADD33C,0.650000*%
%ADD34R,0.600000X1.450000*%
%ADD35R,0.300000X1.450000*%
%ADD36O,1.000000X2.100000*%
%ADD37O,1.000000X1.600000*%
%ADD38RoundRect,0.250000X0.450000X-0.350000X0.450000X0.350000X-0.450000X0.350000X-0.450000X-0.350000X0*%
%ADD39RoundRect,0.250000X1.000000X0.650000X-1.000000X0.650000X-1.000000X-0.650000X1.000000X-0.650000X0*%
%ADD40RoundRect,0.250000X-0.350000X0.850000X-0.350000X-0.850000X0.350000X-0.850000X0.350000X0.850000X0*%
%ADD41RoundRect,0.249997X-2.650003X2.950003X-2.650003X-2.950003X2.650003X-2.950003X2.650003X2.950003X0*%
%ADD42RoundRect,0.250000X1.050000X0.550000X-1.050000X0.550000X-1.050000X-0.550000X1.050000X-0.550000X0*%
%ADD43R,1.905000X2.000000*%
%ADD44O,1.905000X2.000000*%
%ADD45RoundRect,0.250000X1.500000X0.550000X-1.500000X0.550000X-1.500000X-0.550000X1.500000X-0.550000X0*%
%ADD46RoundRect,0.102000X0.675000X0.900000X-0.675000X0.900000X-0.675000X-0.900000X0.675000X-0.900000X0*%
%ADD47R,1.500000X0.900000*%
%ADD48R,0.900000X1.500000*%
%ADD49C,0.600000*%
%ADD50R,3.900000X3.900000*%
G04 APERTURE END LIST*
D10*
X139333333Y-85180884D02*
X139666666Y-85180884D01*
X139809523Y-85704694D02*
X139333333Y-85704694D01*
X139333333Y-85704694D02*
X139333333Y-84704694D01*
X139333333Y-84704694D02*
X139809523Y-84704694D01*
X140238095Y-85038027D02*
X140238095Y-85704694D01*
X140238095Y-85133265D02*
X140285714Y-85085646D01*
X140285714Y-85085646D02*
X140380952Y-85038027D01*
X140380952Y-85038027D02*
X140523809Y-85038027D01*
X140523809Y-85038027D02*
X140619047Y-85085646D01*
X140619047Y-85085646D02*
X140666666Y-85180884D01*
X140666666Y-85180884D02*
X140666666Y-85704694D01*
D11*
X53340000Y-95631000D02*
X54254400Y-95631000D01*
X54254400Y-96393000D01*
X53340000Y-96393000D01*
X53340000Y-95631000D01*
X53441600Y-111633000D02*
X54356000Y-111633000D01*
X54356000Y-112395000D01*
X53441600Y-112395000D01*
X53441600Y-111633000D01*
X55575200Y-94996000D02*
X57404000Y-94996000D01*
X57404000Y-96520000D01*
X55575200Y-96520000D01*
X55575200Y-94996000D01*
X55981600Y-110998000D02*
X57810400Y-110998000D01*
X57810400Y-112522000D01*
X55981600Y-112522000D01*
X55981600Y-110998000D01*
D10*
X106614548Y-107359750D02*
X107109786Y-107359750D01*
X107109786Y-107359750D02*
X106843120Y-107740702D01*
X106843120Y-107740702D02*
X106957405Y-107740702D01*
X106957405Y-107740702D02*
X107033596Y-107788321D01*
X107033596Y-107788321D02*
X107071691Y-107835940D01*
X107071691Y-107835940D02*
X107109786Y-107931178D01*
X107109786Y-107931178D02*
X107109786Y-108169273D01*
X107109786Y-108169273D02*
X107071691Y-108264511D01*
X107071691Y-108264511D02*
X107033596Y-108312131D01*
X107033596Y-108312131D02*
X106957405Y-108359750D01*
X106957405Y-108359750D02*
X106728834Y-108359750D01*
X106728834Y-108359750D02*
X106652643Y-108312131D01*
X106652643Y-108312131D02*
X106614548Y-108264511D01*
X107376453Y-107693083D02*
X107566929Y-108359750D01*
X107566929Y-108359750D02*
X107757406Y-107693083D01*
X107985977Y-107359750D02*
X108481215Y-107359750D01*
X108481215Y-107359750D02*
X108214549Y-107740702D01*
X108214549Y-107740702D02*
X108328834Y-107740702D01*
X108328834Y-107740702D02*
X108405025Y-107788321D01*
X108405025Y-107788321D02*
X108443120Y-107835940D01*
X108443120Y-107835940D02*
X108481215Y-107931178D01*
X108481215Y-107931178D02*
X108481215Y-108169273D01*
X108481215Y-108169273D02*
X108443120Y-108264511D01*
X108443120Y-108264511D02*
X108405025Y-108312131D01*
X108405025Y-108312131D02*
X108328834Y-108359750D01*
X108328834Y-108359750D02*
X108100263Y-108359750D01*
X108100263Y-108359750D02*
X108024072Y-108312131D01*
X108024072Y-108312131D02*
X107985977Y-108264511D01*
X109890740Y-108359750D02*
X109624073Y-107883559D01*
X109433597Y-108359750D02*
X109433597Y-107359750D01*
X109433597Y-107359750D02*
X109738359Y-107359750D01*
X109738359Y-107359750D02*
X109814549Y-107407369D01*
X109814549Y-107407369D02*
X109852644Y-107454988D01*
X109852644Y-107454988D02*
X109890740Y-107550226D01*
X109890740Y-107550226D02*
X109890740Y-107693083D01*
X109890740Y-107693083D02*
X109852644Y-107788321D01*
X109852644Y-107788321D02*
X109814549Y-107835940D01*
X109814549Y-107835940D02*
X109738359Y-107883559D01*
X109738359Y-107883559D02*
X109433597Y-107883559D01*
X110233597Y-108359750D02*
X110233597Y-107359750D01*
X110576453Y-108312131D02*
X110690739Y-108359750D01*
X110690739Y-108359750D02*
X110881215Y-108359750D01*
X110881215Y-108359750D02*
X110957406Y-108312131D01*
X110957406Y-108312131D02*
X110995501Y-108264511D01*
X110995501Y-108264511D02*
X111033596Y-108169273D01*
X111033596Y-108169273D02*
X111033596Y-108074035D01*
X111033596Y-108074035D02*
X110995501Y-107978797D01*
X110995501Y-107978797D02*
X110957406Y-107931178D01*
X110957406Y-107931178D02*
X110881215Y-107883559D01*
X110881215Y-107883559D02*
X110728834Y-107835940D01*
X110728834Y-107835940D02*
X110652644Y-107788321D01*
X110652644Y-107788321D02*
X110614549Y-107740702D01*
X110614549Y-107740702D02*
X110576453Y-107645464D01*
X110576453Y-107645464D02*
X110576453Y-107550226D01*
X110576453Y-107550226D02*
X110614549Y-107454988D01*
X110614549Y-107454988D02*
X110652644Y-107407369D01*
X110652644Y-107407369D02*
X110728834Y-107359750D01*
X110728834Y-107359750D02*
X110919311Y-107359750D01*
X110919311Y-107359750D02*
X111033596Y-107407369D01*
X112443121Y-108359750D02*
X112176454Y-107883559D01*
X111985978Y-108359750D02*
X111985978Y-107359750D01*
X111985978Y-107359750D02*
X112290740Y-107359750D01*
X112290740Y-107359750D02*
X112366930Y-107407369D01*
X112366930Y-107407369D02*
X112405025Y-107454988D01*
X112405025Y-107454988D02*
X112443121Y-107550226D01*
X112443121Y-107550226D02*
X112443121Y-107693083D01*
X112443121Y-107693083D02*
X112405025Y-107788321D01*
X112405025Y-107788321D02*
X112366930Y-107835940D01*
X112366930Y-107835940D02*
X112290740Y-107883559D01*
X112290740Y-107883559D02*
X111985978Y-107883559D01*
X112785978Y-107835940D02*
X113052644Y-107835940D01*
X113166930Y-108359750D02*
X112785978Y-108359750D01*
X112785978Y-108359750D02*
X112785978Y-107359750D01*
X112785978Y-107359750D02*
X113166930Y-107359750D01*
X113509788Y-108359750D02*
X113509788Y-107359750D01*
X113509788Y-107359750D02*
X113966931Y-108359750D01*
X113966931Y-108359750D02*
X113966931Y-107359750D01*
X115414550Y-108359750D02*
X115147883Y-107883559D01*
X114957407Y-108359750D02*
X114957407Y-107359750D01*
X114957407Y-107359750D02*
X115262169Y-107359750D01*
X115262169Y-107359750D02*
X115338359Y-107407369D01*
X115338359Y-107407369D02*
X115376454Y-107454988D01*
X115376454Y-107454988D02*
X115414550Y-107550226D01*
X115414550Y-107550226D02*
X115414550Y-107693083D01*
X115414550Y-107693083D02*
X115376454Y-107788321D01*
X115376454Y-107788321D02*
X115338359Y-107835940D01*
X115338359Y-107835940D02*
X115262169Y-107883559D01*
X115262169Y-107883559D02*
X114957407Y-107883559D01*
X115757407Y-108359750D02*
X115757407Y-107359750D01*
X115757407Y-107359750D02*
X116062169Y-107359750D01*
X116062169Y-107359750D02*
X116138359Y-107407369D01*
X116138359Y-107407369D02*
X116176454Y-107454988D01*
X116176454Y-107454988D02*
X116214550Y-107550226D01*
X116214550Y-107550226D02*
X116214550Y-107693083D01*
X116214550Y-107693083D02*
X116176454Y-107788321D01*
X116176454Y-107788321D02*
X116138359Y-107835940D01*
X116138359Y-107835940D02*
X116062169Y-107883559D01*
X116062169Y-107883559D02*
X115757407Y-107883559D01*
X107109786Y-109017313D02*
X107033596Y-108969694D01*
X107033596Y-108969694D02*
X106919310Y-108969694D01*
X106919310Y-108969694D02*
X106805024Y-109017313D01*
X106805024Y-109017313D02*
X106728834Y-109112551D01*
X106728834Y-109112551D02*
X106690739Y-109207789D01*
X106690739Y-109207789D02*
X106652643Y-109398265D01*
X106652643Y-109398265D02*
X106652643Y-109541122D01*
X106652643Y-109541122D02*
X106690739Y-109731598D01*
X106690739Y-109731598D02*
X106728834Y-109826836D01*
X106728834Y-109826836D02*
X106805024Y-109922075D01*
X106805024Y-109922075D02*
X106919310Y-109969694D01*
X106919310Y-109969694D02*
X106995501Y-109969694D01*
X106995501Y-109969694D02*
X107109786Y-109922075D01*
X107109786Y-109922075D02*
X107147882Y-109874455D01*
X107147882Y-109874455D02*
X107147882Y-109541122D01*
X107147882Y-109541122D02*
X106995501Y-109541122D01*
X107490739Y-109969694D02*
X107490739Y-108969694D01*
X107490739Y-108969694D02*
X107947882Y-109969694D01*
X107947882Y-109969694D02*
X107947882Y-108969694D01*
X108328834Y-109969694D02*
X108328834Y-108969694D01*
X108328834Y-108969694D02*
X108519310Y-108969694D01*
X108519310Y-108969694D02*
X108633596Y-109017313D01*
X108633596Y-109017313D02*
X108709786Y-109112551D01*
X108709786Y-109112551D02*
X108747881Y-109207789D01*
X108747881Y-109207789D02*
X108785977Y-109398265D01*
X108785977Y-109398265D02*
X108785977Y-109541122D01*
X108785977Y-109541122D02*
X108747881Y-109731598D01*
X108747881Y-109731598D02*
X108709786Y-109826836D01*
X108709786Y-109826836D02*
X108633596Y-109922075D01*
X108633596Y-109922075D02*
X108519310Y-109969694D01*
X108519310Y-109969694D02*
X108328834Y-109969694D01*
X110119310Y-109969694D02*
X109738358Y-109969694D01*
X109738358Y-109969694D02*
X109738358Y-108969694D01*
X110385977Y-109969694D02*
X110385977Y-108969694D01*
X110728833Y-109922075D02*
X110843119Y-109969694D01*
X110843119Y-109969694D02*
X111033595Y-109969694D01*
X111033595Y-109969694D02*
X111109786Y-109922075D01*
X111109786Y-109922075D02*
X111147881Y-109874455D01*
X111147881Y-109874455D02*
X111185976Y-109779217D01*
X111185976Y-109779217D02*
X111185976Y-109683979D01*
X111185976Y-109683979D02*
X111147881Y-109588741D01*
X111147881Y-109588741D02*
X111109786Y-109541122D01*
X111109786Y-109541122D02*
X111033595Y-109493503D01*
X111033595Y-109493503D02*
X110881214Y-109445884D01*
X110881214Y-109445884D02*
X110805024Y-109398265D01*
X110805024Y-109398265D02*
X110766929Y-109350646D01*
X110766929Y-109350646D02*
X110728833Y-109255408D01*
X110728833Y-109255408D02*
X110728833Y-109160170D01*
X110728833Y-109160170D02*
X110766929Y-109064932D01*
X110766929Y-109064932D02*
X110805024Y-109017313D01*
X110805024Y-109017313D02*
X110881214Y-108969694D01*
X110881214Y-108969694D02*
X111071691Y-108969694D01*
X111071691Y-108969694D02*
X111185976Y-109017313D01*
X112519310Y-109969694D02*
X112138358Y-109969694D01*
X112138358Y-109969694D02*
X112138358Y-108969694D01*
X112785977Y-109445884D02*
X113052643Y-109445884D01*
X113166929Y-109969694D02*
X112785977Y-109969694D01*
X112785977Y-109969694D02*
X112785977Y-108969694D01*
X112785977Y-108969694D02*
X113166929Y-108969694D01*
X113509787Y-109969694D02*
X113509787Y-108969694D01*
X113509787Y-108969694D02*
X113966930Y-109969694D01*
X113966930Y-109969694D02*
X113966930Y-108969694D01*
X115338358Y-109969694D02*
X114957406Y-109969694D01*
X114957406Y-109969694D02*
X114957406Y-108969694D01*
X115605025Y-109969694D02*
X115605025Y-108969694D01*
X115605025Y-108969694D02*
X115909787Y-108969694D01*
X115909787Y-108969694D02*
X115985977Y-109017313D01*
X115985977Y-109017313D02*
X116024072Y-109064932D01*
X116024072Y-109064932D02*
X116062168Y-109160170D01*
X116062168Y-109160170D02*
X116062168Y-109303027D01*
X116062168Y-109303027D02*
X116024072Y-109398265D01*
X116024072Y-109398265D02*
X115985977Y-109445884D01*
X115985977Y-109445884D02*
X115909787Y-109493503D01*
X115909787Y-109493503D02*
X115605025Y-109493503D01*
X119790739Y-112369694D02*
X119790739Y-111369694D01*
X119790739Y-111845884D02*
X120247882Y-111845884D01*
X120247882Y-112369694D02*
X120247882Y-111369694D01*
X120971691Y-112369694D02*
X120971691Y-111845884D01*
X120971691Y-111845884D02*
X120933596Y-111750646D01*
X120933596Y-111750646D02*
X120857405Y-111703027D01*
X120857405Y-111703027D02*
X120705024Y-111703027D01*
X120705024Y-111703027D02*
X120628834Y-111750646D01*
X120971691Y-112322075D02*
X120895500Y-112369694D01*
X120895500Y-112369694D02*
X120705024Y-112369694D01*
X120705024Y-112369694D02*
X120628834Y-112322075D01*
X120628834Y-112322075D02*
X120590738Y-112226836D01*
X120590738Y-112226836D02*
X120590738Y-112131598D01*
X120590738Y-112131598D02*
X120628834Y-112036360D01*
X120628834Y-112036360D02*
X120705024Y-111988741D01*
X120705024Y-111988741D02*
X120895500Y-111988741D01*
X120895500Y-111988741D02*
X120971691Y-111941122D01*
X121466929Y-112369694D02*
X121390739Y-112322075D01*
X121390739Y-112322075D02*
X121352644Y-112226836D01*
X121352644Y-112226836D02*
X121352644Y-111369694D01*
X121885977Y-112369694D02*
X121809787Y-112322075D01*
X121809787Y-112322075D02*
X121771692Y-112226836D01*
X121771692Y-112226836D02*
X121771692Y-111369694D01*
X123219311Y-111417313D02*
X123143121Y-111369694D01*
X123143121Y-111369694D02*
X123028835Y-111369694D01*
X123028835Y-111369694D02*
X122914549Y-111417313D01*
X122914549Y-111417313D02*
X122838359Y-111512551D01*
X122838359Y-111512551D02*
X122800264Y-111607789D01*
X122800264Y-111607789D02*
X122762168Y-111798265D01*
X122762168Y-111798265D02*
X122762168Y-111941122D01*
X122762168Y-111941122D02*
X122800264Y-112131598D01*
X122800264Y-112131598D02*
X122838359Y-112226836D01*
X122838359Y-112226836D02*
X122914549Y-112322075D01*
X122914549Y-112322075D02*
X123028835Y-112369694D01*
X123028835Y-112369694D02*
X123105026Y-112369694D01*
X123105026Y-112369694D02*
X123219311Y-112322075D01*
X123219311Y-112322075D02*
X123257407Y-112274455D01*
X123257407Y-112274455D02*
X123257407Y-111941122D01*
X123257407Y-111941122D02*
X123105026Y-111941122D01*
X123600264Y-112369694D02*
X123600264Y-111369694D01*
X123600264Y-111369694D02*
X124057407Y-112369694D01*
X124057407Y-112369694D02*
X124057407Y-111369694D01*
X124438359Y-112369694D02*
X124438359Y-111369694D01*
X124438359Y-111369694D02*
X124628835Y-111369694D01*
X124628835Y-111369694D02*
X124743121Y-111417313D01*
X124743121Y-111417313D02*
X124819311Y-111512551D01*
X124819311Y-111512551D02*
X124857406Y-111607789D01*
X124857406Y-111607789D02*
X124895502Y-111798265D01*
X124895502Y-111798265D02*
X124895502Y-111941122D01*
X124895502Y-111941122D02*
X124857406Y-112131598D01*
X124857406Y-112131598D02*
X124819311Y-112226836D01*
X124819311Y-112226836D02*
X124743121Y-112322075D01*
X124743121Y-112322075D02*
X124628835Y-112369694D01*
X124628835Y-112369694D02*
X124438359Y-112369694D01*
X125771692Y-111369694D02*
X126266930Y-111369694D01*
X126266930Y-111369694D02*
X126000264Y-111750646D01*
X126000264Y-111750646D02*
X126114549Y-111750646D01*
X126114549Y-111750646D02*
X126190740Y-111798265D01*
X126190740Y-111798265D02*
X126228835Y-111845884D01*
X126228835Y-111845884D02*
X126266930Y-111941122D01*
X126266930Y-111941122D02*
X126266930Y-112179217D01*
X126266930Y-112179217D02*
X126228835Y-112274455D01*
X126228835Y-112274455D02*
X126190740Y-112322075D01*
X126190740Y-112322075D02*
X126114549Y-112369694D01*
X126114549Y-112369694D02*
X125885978Y-112369694D01*
X125885978Y-112369694D02*
X125809787Y-112322075D01*
X125809787Y-112322075D02*
X125771692Y-112274455D01*
X126533597Y-111703027D02*
X126724073Y-112369694D01*
X126724073Y-112369694D02*
X126914550Y-111703027D01*
X127143121Y-111369694D02*
X127638359Y-111369694D01*
X127638359Y-111369694D02*
X127371693Y-111750646D01*
X127371693Y-111750646D02*
X127485978Y-111750646D01*
X127485978Y-111750646D02*
X127562169Y-111798265D01*
X127562169Y-111798265D02*
X127600264Y-111845884D01*
X127600264Y-111845884D02*
X127638359Y-111941122D01*
X127638359Y-111941122D02*
X127638359Y-112179217D01*
X127638359Y-112179217D02*
X127600264Y-112274455D01*
X127600264Y-112274455D02*
X127562169Y-112322075D01*
X127562169Y-112322075D02*
X127485978Y-112369694D01*
X127485978Y-112369694D02*
X127257407Y-112369694D01*
X127257407Y-112369694D02*
X127181216Y-112322075D01*
X127181216Y-112322075D02*
X127143121Y-112274455D01*
X139976453Y-111069694D02*
X140433596Y-111069694D01*
X140205024Y-112069694D02*
X140205024Y-111069694D01*
X141043120Y-112069694D02*
X141043120Y-111545884D01*
X141043120Y-111545884D02*
X141005025Y-111450646D01*
X141005025Y-111450646D02*
X140928834Y-111403027D01*
X140928834Y-111403027D02*
X140776453Y-111403027D01*
X140776453Y-111403027D02*
X140700263Y-111450646D01*
X141043120Y-112022075D02*
X140966929Y-112069694D01*
X140966929Y-112069694D02*
X140776453Y-112069694D01*
X140776453Y-112069694D02*
X140700263Y-112022075D01*
X140700263Y-112022075D02*
X140662167Y-111926836D01*
X140662167Y-111926836D02*
X140662167Y-111831598D01*
X140662167Y-111831598D02*
X140700263Y-111736360D01*
X140700263Y-111736360D02*
X140776453Y-111688741D01*
X140776453Y-111688741D02*
X140966929Y-111688741D01*
X140966929Y-111688741D02*
X141043120Y-111641122D01*
X141766930Y-112022075D02*
X141690739Y-112069694D01*
X141690739Y-112069694D02*
X141538358Y-112069694D01*
X141538358Y-112069694D02*
X141462168Y-112022075D01*
X141462168Y-112022075D02*
X141424073Y-111974455D01*
X141424073Y-111974455D02*
X141385977Y-111879217D01*
X141385977Y-111879217D02*
X141385977Y-111593503D01*
X141385977Y-111593503D02*
X141424073Y-111498265D01*
X141424073Y-111498265D02*
X141462168Y-111450646D01*
X141462168Y-111450646D02*
X141538358Y-111403027D01*
X141538358Y-111403027D02*
X141690739Y-111403027D01*
X141690739Y-111403027D02*
X141766930Y-111450646D01*
X142719311Y-112069694D02*
X142719311Y-111069694D01*
X142719311Y-111069694D02*
X143024073Y-111069694D01*
X143024073Y-111069694D02*
X143100263Y-111117313D01*
X143100263Y-111117313D02*
X143138358Y-111164932D01*
X143138358Y-111164932D02*
X143176454Y-111260170D01*
X143176454Y-111260170D02*
X143176454Y-111403027D01*
X143176454Y-111403027D02*
X143138358Y-111498265D01*
X143138358Y-111498265D02*
X143100263Y-111545884D01*
X143100263Y-111545884D02*
X143024073Y-111593503D01*
X143024073Y-111593503D02*
X142719311Y-111593503D01*
X143443120Y-111069694D02*
X143633596Y-112069694D01*
X143633596Y-112069694D02*
X143785977Y-111355408D01*
X143785977Y-111355408D02*
X143938358Y-112069694D01*
X143938358Y-112069694D02*
X144128835Y-111069694D01*
X144433597Y-112069694D02*
X144433597Y-111069694D01*
X144433597Y-111069694D02*
X144700263Y-111783979D01*
X144700263Y-111783979D02*
X144966930Y-111069694D01*
X144966930Y-111069694D02*
X144966930Y-112069694D01*
X146376454Y-111117313D02*
X146300264Y-111069694D01*
X146300264Y-111069694D02*
X146185978Y-111069694D01*
X146185978Y-111069694D02*
X146071692Y-111117313D01*
X146071692Y-111117313D02*
X145995502Y-111212551D01*
X145995502Y-111212551D02*
X145957407Y-111307789D01*
X145957407Y-111307789D02*
X145919311Y-111498265D01*
X145919311Y-111498265D02*
X145919311Y-111641122D01*
X145919311Y-111641122D02*
X145957407Y-111831598D01*
X145957407Y-111831598D02*
X145995502Y-111926836D01*
X145995502Y-111926836D02*
X146071692Y-112022075D01*
X146071692Y-112022075D02*
X146185978Y-112069694D01*
X146185978Y-112069694D02*
X146262169Y-112069694D01*
X146262169Y-112069694D02*
X146376454Y-112022075D01*
X146376454Y-112022075D02*
X146414550Y-111974455D01*
X146414550Y-111974455D02*
X146414550Y-111641122D01*
X146414550Y-111641122D02*
X146262169Y-111641122D01*
X146757407Y-111403027D02*
X146757407Y-112069694D01*
X146757407Y-111498265D02*
X146795502Y-111450646D01*
X146795502Y-111450646D02*
X146871692Y-111403027D01*
X146871692Y-111403027D02*
X146985978Y-111403027D01*
X146985978Y-111403027D02*
X147062169Y-111450646D01*
X147062169Y-111450646D02*
X147100264Y-111545884D01*
X147100264Y-111545884D02*
X147100264Y-112069694D01*
X147824074Y-112069694D02*
X147824074Y-111069694D01*
X147824074Y-112022075D02*
X147747883Y-112069694D01*
X147747883Y-112069694D02*
X147595502Y-112069694D01*
X147595502Y-112069694D02*
X147519312Y-112022075D01*
X147519312Y-112022075D02*
X147481217Y-111974455D01*
X147481217Y-111974455D02*
X147443121Y-111879217D01*
X147443121Y-111879217D02*
X147443121Y-111593503D01*
X147443121Y-111593503D02*
X147481217Y-111498265D01*
X147481217Y-111498265D02*
X147519312Y-111450646D01*
X147519312Y-111450646D02*
X147595502Y-111403027D01*
X147595502Y-111403027D02*
X147747883Y-111403027D01*
X147747883Y-111403027D02*
X147824074Y-111450646D01*
X148814551Y-112069694D02*
X148814551Y-111069694D01*
X149195503Y-111403027D02*
X149195503Y-112069694D01*
X149195503Y-111498265D02*
X149233598Y-111450646D01*
X149233598Y-111450646D02*
X149309788Y-111403027D01*
X149309788Y-111403027D02*
X149424074Y-111403027D01*
X149424074Y-111403027D02*
X149500265Y-111450646D01*
X149500265Y-111450646D02*
X149538360Y-111545884D01*
X149538360Y-111545884D02*
X149538360Y-112069694D01*
X147617313Y-108090213D02*
X147569694Y-108166403D01*
X147569694Y-108166403D02*
X147569694Y-108280689D01*
X147569694Y-108280689D02*
X147617313Y-108394975D01*
X147617313Y-108394975D02*
X147712551Y-108471165D01*
X147712551Y-108471165D02*
X147807789Y-108509260D01*
X147807789Y-108509260D02*
X147998265Y-108547356D01*
X147998265Y-108547356D02*
X148141122Y-108547356D01*
X148141122Y-108547356D02*
X148331598Y-108509260D01*
X148331598Y-108509260D02*
X148426836Y-108471165D01*
X148426836Y-108471165D02*
X148522075Y-108394975D01*
X148522075Y-108394975D02*
X148569694Y-108280689D01*
X148569694Y-108280689D02*
X148569694Y-108204498D01*
X148569694Y-108204498D02*
X148522075Y-108090213D01*
X148522075Y-108090213D02*
X148474455Y-108052117D01*
X148474455Y-108052117D02*
X148141122Y-108052117D01*
X148141122Y-108052117D02*
X148141122Y-108204498D01*
X147903027Y-107709260D02*
X148569694Y-107709260D01*
X147998265Y-107709260D02*
X147950646Y-107671165D01*
X147950646Y-107671165D02*
X147903027Y-107594975D01*
X147903027Y-107594975D02*
X147903027Y-107480689D01*
X147903027Y-107480689D02*
X147950646Y-107404498D01*
X147950646Y-107404498D02*
X148045884Y-107366403D01*
X148045884Y-107366403D02*
X148569694Y-107366403D01*
X148569694Y-106642593D02*
X147569694Y-106642593D01*
X148522075Y-106642593D02*
X148569694Y-106718784D01*
X148569694Y-106718784D02*
X148569694Y-106871165D01*
X148569694Y-106871165D02*
X148522075Y-106947355D01*
X148522075Y-106947355D02*
X148474455Y-106985450D01*
X148474455Y-106985450D02*
X148379217Y-107023546D01*
X148379217Y-107023546D02*
X148093503Y-107023546D01*
X148093503Y-107023546D02*
X147998265Y-106985450D01*
X147998265Y-106985450D02*
X147950646Y-106947355D01*
X147950646Y-106947355D02*
X147903027Y-106871165D01*
X147903027Y-106871165D02*
X147903027Y-106718784D01*
X147903027Y-106718784D02*
X147950646Y-106642593D01*
X148569694Y-105652116D02*
X147569694Y-105652116D01*
X148045884Y-105652116D02*
X148045884Y-105194973D01*
X148569694Y-105194973D02*
X147569694Y-105194973D01*
X148522075Y-104509259D02*
X148569694Y-104585450D01*
X148569694Y-104585450D02*
X148569694Y-104737831D01*
X148569694Y-104737831D02*
X148522075Y-104814021D01*
X148522075Y-104814021D02*
X148426836Y-104852117D01*
X148426836Y-104852117D02*
X148045884Y-104852117D01*
X148045884Y-104852117D02*
X147950646Y-104814021D01*
X147950646Y-104814021D02*
X147903027Y-104737831D01*
X147903027Y-104737831D02*
X147903027Y-104585450D01*
X147903027Y-104585450D02*
X147950646Y-104509259D01*
X147950646Y-104509259D02*
X148045884Y-104471164D01*
X148045884Y-104471164D02*
X148141122Y-104471164D01*
X148141122Y-104471164D02*
X148236360Y-104852117D01*
X148569694Y-103785450D02*
X148045884Y-103785450D01*
X148045884Y-103785450D02*
X147950646Y-103823545D01*
X147950646Y-103823545D02*
X147903027Y-103899736D01*
X147903027Y-103899736D02*
X147903027Y-104052117D01*
X147903027Y-104052117D02*
X147950646Y-104128307D01*
X148522075Y-103785450D02*
X148569694Y-103861641D01*
X148569694Y-103861641D02*
X148569694Y-104052117D01*
X148569694Y-104052117D02*
X148522075Y-104128307D01*
X148522075Y-104128307D02*
X148426836Y-104166403D01*
X148426836Y-104166403D02*
X148331598Y-104166403D01*
X148331598Y-104166403D02*
X148236360Y-104128307D01*
X148236360Y-104128307D02*
X148188741Y-104052117D01*
X148188741Y-104052117D02*
X148188741Y-103861641D01*
X148188741Y-103861641D02*
X148141122Y-103785450D01*
X147903027Y-103518783D02*
X147903027Y-103214021D01*
X147569694Y-103404497D02*
X148426836Y-103404497D01*
X148426836Y-103404497D02*
X148522075Y-103366402D01*
X148522075Y-103366402D02*
X148569694Y-103290212D01*
X148569694Y-103290212D02*
X148569694Y-103214021D01*
D12*
X75836779Y-76238866D02*
X76598684Y-76238866D01*
X76217731Y-76619819D02*
X76217731Y-75857914D01*
D10*
X46362167Y-82167313D02*
X46266929Y-82119694D01*
X46266929Y-82119694D02*
X46124072Y-82119694D01*
X46124072Y-82119694D02*
X45981215Y-82167313D01*
X45981215Y-82167313D02*
X45885977Y-82262551D01*
X45885977Y-82262551D02*
X45838358Y-82357789D01*
X45838358Y-82357789D02*
X45790739Y-82548265D01*
X45790739Y-82548265D02*
X45790739Y-82691122D01*
X45790739Y-82691122D02*
X45838358Y-82881598D01*
X45838358Y-82881598D02*
X45885977Y-82976836D01*
X45885977Y-82976836D02*
X45981215Y-83072075D01*
X45981215Y-83072075D02*
X46124072Y-83119694D01*
X46124072Y-83119694D02*
X46219310Y-83119694D01*
X46219310Y-83119694D02*
X46362167Y-83072075D01*
X46362167Y-83072075D02*
X46409786Y-83024455D01*
X46409786Y-83024455D02*
X46409786Y-82691122D01*
X46409786Y-82691122D02*
X46219310Y-82691122D01*
X46838358Y-83119694D02*
X46838358Y-82119694D01*
X46838358Y-82119694D02*
X47409786Y-83119694D01*
X47409786Y-83119694D02*
X47409786Y-82119694D01*
X47885977Y-83119694D02*
X47885977Y-82119694D01*
X47885977Y-82119694D02*
X48124072Y-82119694D01*
X48124072Y-82119694D02*
X48266929Y-82167313D01*
X48266929Y-82167313D02*
X48362167Y-82262551D01*
X48362167Y-82262551D02*
X48409786Y-82357789D01*
X48409786Y-82357789D02*
X48457405Y-82548265D01*
X48457405Y-82548265D02*
X48457405Y-82691122D01*
X48457405Y-82691122D02*
X48409786Y-82881598D01*
X48409786Y-82881598D02*
X48362167Y-82976836D01*
X48362167Y-82976836D02*
X48266929Y-83072075D01*
X48266929Y-83072075D02*
X48124072Y-83119694D01*
X48124072Y-83119694D02*
X47885977Y-83119694D01*
X47862167Y-97869694D02*
X47290739Y-97869694D01*
X47576453Y-97869694D02*
X47576453Y-96869694D01*
X47576453Y-96869694D02*
X47481215Y-97012551D01*
X47481215Y-97012551D02*
X47385977Y-97107789D01*
X47385977Y-97107789D02*
X47290739Y-97155408D01*
X48481215Y-96869694D02*
X48576453Y-96869694D01*
X48576453Y-96869694D02*
X48671691Y-96917313D01*
X48671691Y-96917313D02*
X48719310Y-96964932D01*
X48719310Y-96964932D02*
X48766929Y-97060170D01*
X48766929Y-97060170D02*
X48814548Y-97250646D01*
X48814548Y-97250646D02*
X48814548Y-97488741D01*
X48814548Y-97488741D02*
X48766929Y-97679217D01*
X48766929Y-97679217D02*
X48719310Y-97774455D01*
X48719310Y-97774455D02*
X48671691Y-97822075D01*
X48671691Y-97822075D02*
X48576453Y-97869694D01*
X48576453Y-97869694D02*
X48481215Y-97869694D01*
X48481215Y-97869694D02*
X48385977Y-97822075D01*
X48385977Y-97822075D02*
X48338358Y-97774455D01*
X48338358Y-97774455D02*
X48290739Y-97679217D01*
X48290739Y-97679217D02*
X48243120Y-97488741D01*
X48243120Y-97488741D02*
X48243120Y-97250646D01*
X48243120Y-97250646D02*
X48290739Y-97060170D01*
X48290739Y-97060170D02*
X48338358Y-96964932D01*
X48338358Y-96964932D02*
X48385977Y-96917313D01*
X48385977Y-96917313D02*
X48481215Y-96869694D01*
X49433596Y-96869694D02*
X49528834Y-96869694D01*
X49528834Y-96869694D02*
X49624072Y-96917313D01*
X49624072Y-96917313D02*
X49671691Y-96964932D01*
X49671691Y-96964932D02*
X49719310Y-97060170D01*
X49719310Y-97060170D02*
X49766929Y-97250646D01*
X49766929Y-97250646D02*
X49766929Y-97488741D01*
X49766929Y-97488741D02*
X49719310Y-97679217D01*
X49719310Y-97679217D02*
X49671691Y-97774455D01*
X49671691Y-97774455D02*
X49624072Y-97822075D01*
X49624072Y-97822075D02*
X49528834Y-97869694D01*
X49528834Y-97869694D02*
X49433596Y-97869694D01*
X49433596Y-97869694D02*
X49338358Y-97822075D01*
X49338358Y-97822075D02*
X49290739Y-97774455D01*
X49290739Y-97774455D02*
X49243120Y-97679217D01*
X49243120Y-97679217D02*
X49195501Y-97488741D01*
X49195501Y-97488741D02*
X49195501Y-97250646D01*
X49195501Y-97250646D02*
X49243120Y-97060170D01*
X49243120Y-97060170D02*
X49290739Y-96964932D01*
X49290739Y-96964932D02*
X49338358Y-96917313D01*
X49338358Y-96917313D02*
X49433596Y-96869694D01*
X50624072Y-97203027D02*
X50624072Y-97869694D01*
X50195501Y-97203027D02*
X50195501Y-97726836D01*
X50195501Y-97726836D02*
X50243120Y-97822075D01*
X50243120Y-97822075D02*
X50338358Y-97869694D01*
X50338358Y-97869694D02*
X50481215Y-97869694D01*
X50481215Y-97869694D02*
X50576453Y-97822075D01*
X50576453Y-97822075D02*
X50624072Y-97774455D01*
X51433596Y-97345884D02*
X51100263Y-97345884D01*
X51100263Y-97869694D02*
X51100263Y-96869694D01*
X51100263Y-96869694D02*
X51576453Y-96869694D01*
X47598167Y-101977694D02*
X47026739Y-101977694D01*
X47312453Y-101977694D02*
X47312453Y-100977694D01*
X47312453Y-100977694D02*
X47217215Y-101120551D01*
X47217215Y-101120551D02*
X47121977Y-101215789D01*
X47121977Y-101215789D02*
X47026739Y-101263408D01*
X48217215Y-100977694D02*
X48312453Y-100977694D01*
X48312453Y-100977694D02*
X48407691Y-101025313D01*
X48407691Y-101025313D02*
X48455310Y-101072932D01*
X48455310Y-101072932D02*
X48502929Y-101168170D01*
X48502929Y-101168170D02*
X48550548Y-101358646D01*
X48550548Y-101358646D02*
X48550548Y-101596741D01*
X48550548Y-101596741D02*
X48502929Y-101787217D01*
X48502929Y-101787217D02*
X48455310Y-101882455D01*
X48455310Y-101882455D02*
X48407691Y-101930075D01*
X48407691Y-101930075D02*
X48312453Y-101977694D01*
X48312453Y-101977694D02*
X48217215Y-101977694D01*
X48217215Y-101977694D02*
X48121977Y-101930075D01*
X48121977Y-101930075D02*
X48074358Y-101882455D01*
X48074358Y-101882455D02*
X48026739Y-101787217D01*
X48026739Y-101787217D02*
X47979120Y-101596741D01*
X47979120Y-101596741D02*
X47979120Y-101358646D01*
X47979120Y-101358646D02*
X48026739Y-101168170D01*
X48026739Y-101168170D02*
X48074358Y-101072932D01*
X48074358Y-101072932D02*
X48121977Y-101025313D01*
X48121977Y-101025313D02*
X48217215Y-100977694D01*
X49169596Y-100977694D02*
X49264834Y-100977694D01*
X49264834Y-100977694D02*
X49360072Y-101025313D01*
X49360072Y-101025313D02*
X49407691Y-101072932D01*
X49407691Y-101072932D02*
X49455310Y-101168170D01*
X49455310Y-101168170D02*
X49502929Y-101358646D01*
X49502929Y-101358646D02*
X49502929Y-101596741D01*
X49502929Y-101596741D02*
X49455310Y-101787217D01*
X49455310Y-101787217D02*
X49407691Y-101882455D01*
X49407691Y-101882455D02*
X49360072Y-101930075D01*
X49360072Y-101930075D02*
X49264834Y-101977694D01*
X49264834Y-101977694D02*
X49169596Y-101977694D01*
X49169596Y-101977694D02*
X49074358Y-101930075D01*
X49074358Y-101930075D02*
X49026739Y-101882455D01*
X49026739Y-101882455D02*
X48979120Y-101787217D01*
X48979120Y-101787217D02*
X48931501Y-101596741D01*
X48931501Y-101596741D02*
X48931501Y-101358646D01*
X48931501Y-101358646D02*
X48979120Y-101168170D01*
X48979120Y-101168170D02*
X49026739Y-101072932D01*
X49026739Y-101072932D02*
X49074358Y-101025313D01*
X49074358Y-101025313D02*
X49169596Y-100977694D01*
X50360072Y-101311027D02*
X50360072Y-101977694D01*
X49931501Y-101311027D02*
X49931501Y-101834836D01*
X49931501Y-101834836D02*
X49979120Y-101930075D01*
X49979120Y-101930075D02*
X50074358Y-101977694D01*
X50074358Y-101977694D02*
X50217215Y-101977694D01*
X50217215Y-101977694D02*
X50312453Y-101930075D01*
X50312453Y-101930075D02*
X50360072Y-101882455D01*
X51169596Y-101453884D02*
X50836263Y-101453884D01*
X50836263Y-101977694D02*
X50836263Y-100977694D01*
X50836263Y-100977694D02*
X51312453Y-100977694D01*
X51560567Y-81365713D02*
X51465329Y-81318094D01*
X51465329Y-81318094D02*
X51322472Y-81318094D01*
X51322472Y-81318094D02*
X51179615Y-81365713D01*
X51179615Y-81365713D02*
X51084377Y-81460951D01*
X51084377Y-81460951D02*
X51036758Y-81556189D01*
X51036758Y-81556189D02*
X50989139Y-81746665D01*
X50989139Y-81746665D02*
X50989139Y-81889522D01*
X50989139Y-81889522D02*
X51036758Y-82079998D01*
X51036758Y-82079998D02*
X51084377Y-82175236D01*
X51084377Y-82175236D02*
X51179615Y-82270475D01*
X51179615Y-82270475D02*
X51322472Y-82318094D01*
X51322472Y-82318094D02*
X51417710Y-82318094D01*
X51417710Y-82318094D02*
X51560567Y-82270475D01*
X51560567Y-82270475D02*
X51608186Y-82222855D01*
X51608186Y-82222855D02*
X51608186Y-81889522D01*
X51608186Y-81889522D02*
X51417710Y-81889522D01*
X52036758Y-82318094D02*
X52036758Y-81318094D01*
X52036758Y-81318094D02*
X52608186Y-82318094D01*
X52608186Y-82318094D02*
X52608186Y-81318094D01*
X53084377Y-82318094D02*
X53084377Y-81318094D01*
X53084377Y-81318094D02*
X53322472Y-81318094D01*
X53322472Y-81318094D02*
X53465329Y-81365713D01*
X53465329Y-81365713D02*
X53560567Y-81460951D01*
X53560567Y-81460951D02*
X53608186Y-81556189D01*
X53608186Y-81556189D02*
X53655805Y-81746665D01*
X53655805Y-81746665D02*
X53655805Y-81889522D01*
X53655805Y-81889522D02*
X53608186Y-82079998D01*
X53608186Y-82079998D02*
X53560567Y-82175236D01*
X53560567Y-82175236D02*
X53465329Y-82270475D01*
X53465329Y-82270475D02*
X53322472Y-82318094D01*
X53322472Y-82318094D02*
X53084377Y-82318094D01*
X56386567Y-81365713D02*
X56291329Y-81318094D01*
X56291329Y-81318094D02*
X56148472Y-81318094D01*
X56148472Y-81318094D02*
X56005615Y-81365713D01*
X56005615Y-81365713D02*
X55910377Y-81460951D01*
X55910377Y-81460951D02*
X55862758Y-81556189D01*
X55862758Y-81556189D02*
X55815139Y-81746665D01*
X55815139Y-81746665D02*
X55815139Y-81889522D01*
X55815139Y-81889522D02*
X55862758Y-82079998D01*
X55862758Y-82079998D02*
X55910377Y-82175236D01*
X55910377Y-82175236D02*
X56005615Y-82270475D01*
X56005615Y-82270475D02*
X56148472Y-82318094D01*
X56148472Y-82318094D02*
X56243710Y-82318094D01*
X56243710Y-82318094D02*
X56386567Y-82270475D01*
X56386567Y-82270475D02*
X56434186Y-82222855D01*
X56434186Y-82222855D02*
X56434186Y-81889522D01*
X56434186Y-81889522D02*
X56243710Y-81889522D01*
X56862758Y-82318094D02*
X56862758Y-81318094D01*
X56862758Y-81318094D02*
X57434186Y-82318094D01*
X57434186Y-82318094D02*
X57434186Y-81318094D01*
X57910377Y-82318094D02*
X57910377Y-81318094D01*
X57910377Y-81318094D02*
X58148472Y-81318094D01*
X58148472Y-81318094D02*
X58291329Y-81365713D01*
X58291329Y-81365713D02*
X58386567Y-81460951D01*
X58386567Y-81460951D02*
X58434186Y-81556189D01*
X58434186Y-81556189D02*
X58481805Y-81746665D01*
X58481805Y-81746665D02*
X58481805Y-81889522D01*
X58481805Y-81889522D02*
X58434186Y-82079998D01*
X58434186Y-82079998D02*
X58386567Y-82175236D01*
X58386567Y-82175236D02*
X58291329Y-82270475D01*
X58291329Y-82270475D02*
X58148472Y-82318094D01*
X58148472Y-82318094D02*
X57910377Y-82318094D01*
X61364967Y-81365713D02*
X61269729Y-81318094D01*
X61269729Y-81318094D02*
X61126872Y-81318094D01*
X61126872Y-81318094D02*
X60984015Y-81365713D01*
X60984015Y-81365713D02*
X60888777Y-81460951D01*
X60888777Y-81460951D02*
X60841158Y-81556189D01*
X60841158Y-81556189D02*
X60793539Y-81746665D01*
X60793539Y-81746665D02*
X60793539Y-81889522D01*
X60793539Y-81889522D02*
X60841158Y-82079998D01*
X60841158Y-82079998D02*
X60888777Y-82175236D01*
X60888777Y-82175236D02*
X60984015Y-82270475D01*
X60984015Y-82270475D02*
X61126872Y-82318094D01*
X61126872Y-82318094D02*
X61222110Y-82318094D01*
X61222110Y-82318094D02*
X61364967Y-82270475D01*
X61364967Y-82270475D02*
X61412586Y-82222855D01*
X61412586Y-82222855D02*
X61412586Y-81889522D01*
X61412586Y-81889522D02*
X61222110Y-81889522D01*
X61841158Y-82318094D02*
X61841158Y-81318094D01*
X61841158Y-81318094D02*
X62412586Y-82318094D01*
X62412586Y-82318094D02*
X62412586Y-81318094D01*
X62888777Y-82318094D02*
X62888777Y-81318094D01*
X62888777Y-81318094D02*
X63126872Y-81318094D01*
X63126872Y-81318094D02*
X63269729Y-81365713D01*
X63269729Y-81365713D02*
X63364967Y-81460951D01*
X63364967Y-81460951D02*
X63412586Y-81556189D01*
X63412586Y-81556189D02*
X63460205Y-81746665D01*
X63460205Y-81746665D02*
X63460205Y-81889522D01*
X63460205Y-81889522D02*
X63412586Y-82079998D01*
X63412586Y-82079998D02*
X63364967Y-82175236D01*
X63364967Y-82175236D02*
X63269729Y-82270475D01*
X63269729Y-82270475D02*
X63126872Y-82318094D01*
X63126872Y-82318094D02*
X62888777Y-82318094D01*
X66537120Y-81165694D02*
X67156167Y-81165694D01*
X67156167Y-81165694D02*
X66822834Y-81546646D01*
X66822834Y-81546646D02*
X66965691Y-81546646D01*
X66965691Y-81546646D02*
X67060929Y-81594265D01*
X67060929Y-81594265D02*
X67108548Y-81641884D01*
X67108548Y-81641884D02*
X67156167Y-81737122D01*
X67156167Y-81737122D02*
X67156167Y-81975217D01*
X67156167Y-81975217D02*
X67108548Y-82070455D01*
X67108548Y-82070455D02*
X67060929Y-82118075D01*
X67060929Y-82118075D02*
X66965691Y-82165694D01*
X66965691Y-82165694D02*
X66679977Y-82165694D01*
X66679977Y-82165694D02*
X66584739Y-82118075D01*
X66584739Y-82118075D02*
X66537120Y-82070455D01*
X67489501Y-81499027D02*
X67727596Y-82165694D01*
X67727596Y-82165694D02*
X67965691Y-81499027D01*
X68251406Y-81165694D02*
X68870453Y-81165694D01*
X68870453Y-81165694D02*
X68537120Y-81546646D01*
X68537120Y-81546646D02*
X68679977Y-81546646D01*
X68679977Y-81546646D02*
X68775215Y-81594265D01*
X68775215Y-81594265D02*
X68822834Y-81641884D01*
X68822834Y-81641884D02*
X68870453Y-81737122D01*
X68870453Y-81737122D02*
X68870453Y-81975217D01*
X68870453Y-81975217D02*
X68822834Y-82070455D01*
X68822834Y-82070455D02*
X68775215Y-82118075D01*
X68775215Y-82118075D02*
X68679977Y-82165694D01*
X68679977Y-82165694D02*
X68394263Y-82165694D01*
X68394263Y-82165694D02*
X68299025Y-82118075D01*
X68299025Y-82118075D02*
X68251406Y-82070455D01*
X70899558Y-82165694D02*
X70899558Y-81165694D01*
X71375748Y-81499027D02*
X71375748Y-82165694D01*
X71375748Y-81594265D02*
X71423367Y-81546646D01*
X71423367Y-81546646D02*
X71518605Y-81499027D01*
X71518605Y-81499027D02*
X71661462Y-81499027D01*
X71661462Y-81499027D02*
X71756700Y-81546646D01*
X71756700Y-81546646D02*
X71804319Y-81641884D01*
X71804319Y-81641884D02*
X71804319Y-82165694D01*
X72280510Y-81499027D02*
X72280510Y-82499027D01*
X72280510Y-81546646D02*
X72375748Y-81499027D01*
X72375748Y-81499027D02*
X72566224Y-81499027D01*
X72566224Y-81499027D02*
X72661462Y-81546646D01*
X72661462Y-81546646D02*
X72709081Y-81594265D01*
X72709081Y-81594265D02*
X72756700Y-81689503D01*
X72756700Y-81689503D02*
X72756700Y-81975217D01*
X72756700Y-81975217D02*
X72709081Y-82070455D01*
X72709081Y-82070455D02*
X72661462Y-82118075D01*
X72661462Y-82118075D02*
X72566224Y-82165694D01*
X72566224Y-82165694D02*
X72375748Y-82165694D01*
X72375748Y-82165694D02*
X72280510Y-82118075D01*
X73613843Y-81499027D02*
X73613843Y-82165694D01*
X73185272Y-81499027D02*
X73185272Y-82022836D01*
X73185272Y-82022836D02*
X73232891Y-82118075D01*
X73232891Y-82118075D02*
X73328129Y-82165694D01*
X73328129Y-82165694D02*
X73470986Y-82165694D01*
X73470986Y-82165694D02*
X73566224Y-82118075D01*
X73566224Y-82118075D02*
X73613843Y-82070455D01*
X73947177Y-81499027D02*
X74328129Y-81499027D01*
X74090034Y-81165694D02*
X74090034Y-82022836D01*
X74090034Y-82022836D02*
X74137653Y-82118075D01*
X74137653Y-82118075D02*
X74232891Y-82165694D01*
X74232891Y-82165694D02*
X74328129Y-82165694D01*
X87968358Y-74291694D02*
X87968358Y-73291694D01*
X88444548Y-73625027D02*
X88444548Y-74291694D01*
X88444548Y-73720265D02*
X88492167Y-73672646D01*
X88492167Y-73672646D02*
X88587405Y-73625027D01*
X88587405Y-73625027D02*
X88730262Y-73625027D01*
X88730262Y-73625027D02*
X88825500Y-73672646D01*
X88825500Y-73672646D02*
X88873119Y-73767884D01*
X88873119Y-73767884D02*
X88873119Y-74291694D01*
X89349310Y-73625027D02*
X89349310Y-74625027D01*
X89349310Y-73672646D02*
X89444548Y-73625027D01*
X89444548Y-73625027D02*
X89635024Y-73625027D01*
X89635024Y-73625027D02*
X89730262Y-73672646D01*
X89730262Y-73672646D02*
X89777881Y-73720265D01*
X89777881Y-73720265D02*
X89825500Y-73815503D01*
X89825500Y-73815503D02*
X89825500Y-74101217D01*
X89825500Y-74101217D02*
X89777881Y-74196455D01*
X89777881Y-74196455D02*
X89730262Y-74244075D01*
X89730262Y-74244075D02*
X89635024Y-74291694D01*
X89635024Y-74291694D02*
X89444548Y-74291694D01*
X89444548Y-74291694D02*
X89349310Y-74244075D01*
X90682643Y-73625027D02*
X90682643Y-74291694D01*
X90254072Y-73625027D02*
X90254072Y-74148836D01*
X90254072Y-74148836D02*
X90301691Y-74244075D01*
X90301691Y-74244075D02*
X90396929Y-74291694D01*
X90396929Y-74291694D02*
X90539786Y-74291694D01*
X90539786Y-74291694D02*
X90635024Y-74244075D01*
X90635024Y-74244075D02*
X90682643Y-74196455D01*
X91015977Y-73625027D02*
X91396929Y-73625027D01*
X91158834Y-73291694D02*
X91158834Y-74148836D01*
X91158834Y-74148836D02*
X91206453Y-74244075D01*
X91206453Y-74244075D02*
X91301691Y-74291694D01*
X91301691Y-74291694D02*
X91396929Y-74291694D01*
X88088358Y-76738741D02*
X88850263Y-76738741D01*
X90778167Y-83435694D02*
X90206739Y-83435694D01*
X90492453Y-83435694D02*
X90492453Y-82435694D01*
X90492453Y-82435694D02*
X90397215Y-82578551D01*
X90397215Y-82578551D02*
X90301977Y-82673789D01*
X90301977Y-82673789D02*
X90206739Y-82721408D01*
X91397215Y-82435694D02*
X91492453Y-82435694D01*
X91492453Y-82435694D02*
X91587691Y-82483313D01*
X91587691Y-82483313D02*
X91635310Y-82530932D01*
X91635310Y-82530932D02*
X91682929Y-82626170D01*
X91682929Y-82626170D02*
X91730548Y-82816646D01*
X91730548Y-82816646D02*
X91730548Y-83054741D01*
X91730548Y-83054741D02*
X91682929Y-83245217D01*
X91682929Y-83245217D02*
X91635310Y-83340455D01*
X91635310Y-83340455D02*
X91587691Y-83388075D01*
X91587691Y-83388075D02*
X91492453Y-83435694D01*
X91492453Y-83435694D02*
X91397215Y-83435694D01*
X91397215Y-83435694D02*
X91301977Y-83388075D01*
X91301977Y-83388075D02*
X91254358Y-83340455D01*
X91254358Y-83340455D02*
X91206739Y-83245217D01*
X91206739Y-83245217D02*
X91159120Y-83054741D01*
X91159120Y-83054741D02*
X91159120Y-82816646D01*
X91159120Y-82816646D02*
X91206739Y-82626170D01*
X91206739Y-82626170D02*
X91254358Y-82530932D01*
X91254358Y-82530932D02*
X91301977Y-82483313D01*
X91301977Y-82483313D02*
X91397215Y-82435694D01*
X92587691Y-82769027D02*
X92587691Y-83435694D01*
X92159120Y-82769027D02*
X92159120Y-83292836D01*
X92159120Y-83292836D02*
X92206739Y-83388075D01*
X92206739Y-83388075D02*
X92301977Y-83435694D01*
X92301977Y-83435694D02*
X92444834Y-83435694D01*
X92444834Y-83435694D02*
X92540072Y-83388075D01*
X92540072Y-83388075D02*
X92587691Y-83340455D01*
X93397215Y-82911884D02*
X93063882Y-82911884D01*
X93063882Y-83435694D02*
X93063882Y-82435694D01*
X93063882Y-82435694D02*
X93540072Y-82435694D01*
X98858548Y-82943694D02*
X98382358Y-82943694D01*
X98382358Y-82943694D02*
X98334739Y-83419884D01*
X98334739Y-83419884D02*
X98382358Y-83372265D01*
X98382358Y-83372265D02*
X98477596Y-83324646D01*
X98477596Y-83324646D02*
X98715691Y-83324646D01*
X98715691Y-83324646D02*
X98810929Y-83372265D01*
X98810929Y-83372265D02*
X98858548Y-83419884D01*
X98858548Y-83419884D02*
X98906167Y-83515122D01*
X98906167Y-83515122D02*
X98906167Y-83753217D01*
X98906167Y-83753217D02*
X98858548Y-83848455D01*
X98858548Y-83848455D02*
X98810929Y-83896075D01*
X98810929Y-83896075D02*
X98715691Y-83943694D01*
X98715691Y-83943694D02*
X98477596Y-83943694D01*
X98477596Y-83943694D02*
X98382358Y-83896075D01*
X98382358Y-83896075D02*
X98334739Y-83848455D01*
X99334739Y-83848455D02*
X99382358Y-83896075D01*
X99382358Y-83896075D02*
X99334739Y-83943694D01*
X99334739Y-83943694D02*
X99287120Y-83896075D01*
X99287120Y-83896075D02*
X99334739Y-83848455D01*
X99334739Y-83848455D02*
X99334739Y-83943694D01*
X100334738Y-83943694D02*
X99763310Y-83943694D01*
X100049024Y-83943694D02*
X100049024Y-82943694D01*
X100049024Y-82943694D02*
X99953786Y-83086551D01*
X99953786Y-83086551D02*
X99858548Y-83181789D01*
X99858548Y-83181789D02*
X99763310Y-83229408D01*
X100763310Y-83943694D02*
X100763310Y-82943694D01*
X100858548Y-83562741D02*
X101144262Y-83943694D01*
X101144262Y-83277027D02*
X100763310Y-83657979D01*
X101762167Y-109769694D02*
X101190739Y-109769694D01*
X101476453Y-109769694D02*
X101476453Y-108769694D01*
X101476453Y-108769694D02*
X101381215Y-108912551D01*
X101381215Y-108912551D02*
X101285977Y-109007789D01*
X101285977Y-109007789D02*
X101190739Y-109055408D01*
X102190739Y-109769694D02*
X102190739Y-108769694D01*
X102285977Y-109388741D02*
X102571691Y-109769694D01*
X102571691Y-109103027D02*
X102190739Y-109483979D01*
X106161120Y-81419694D02*
X106780167Y-81419694D01*
X106780167Y-81419694D02*
X106446834Y-81800646D01*
X106446834Y-81800646D02*
X106589691Y-81800646D01*
X106589691Y-81800646D02*
X106684929Y-81848265D01*
X106684929Y-81848265D02*
X106732548Y-81895884D01*
X106732548Y-81895884D02*
X106780167Y-81991122D01*
X106780167Y-81991122D02*
X106780167Y-82229217D01*
X106780167Y-82229217D02*
X106732548Y-82324455D01*
X106732548Y-82324455D02*
X106684929Y-82372075D01*
X106684929Y-82372075D02*
X106589691Y-82419694D01*
X106589691Y-82419694D02*
X106303977Y-82419694D01*
X106303977Y-82419694D02*
X106208739Y-82372075D01*
X106208739Y-82372075D02*
X106161120Y-82324455D01*
X107113501Y-81753027D02*
X107351596Y-82419694D01*
X107351596Y-82419694D02*
X107589691Y-81753027D01*
X107875406Y-81419694D02*
X108494453Y-81419694D01*
X108494453Y-81419694D02*
X108161120Y-81800646D01*
X108161120Y-81800646D02*
X108303977Y-81800646D01*
X108303977Y-81800646D02*
X108399215Y-81848265D01*
X108399215Y-81848265D02*
X108446834Y-81895884D01*
X108446834Y-81895884D02*
X108494453Y-81991122D01*
X108494453Y-81991122D02*
X108494453Y-82229217D01*
X108494453Y-82229217D02*
X108446834Y-82324455D01*
X108446834Y-82324455D02*
X108399215Y-82372075D01*
X108399215Y-82372075D02*
X108303977Y-82419694D01*
X108303977Y-82419694D02*
X108018263Y-82419694D01*
X108018263Y-82419694D02*
X107923025Y-82372075D01*
X107923025Y-82372075D02*
X107875406Y-82324455D01*
X106815158Y-74967750D02*
X106815158Y-73967750D01*
X106815158Y-73967750D02*
X107053253Y-73967750D01*
X107053253Y-73967750D02*
X107196110Y-74015369D01*
X107196110Y-74015369D02*
X107291348Y-74110607D01*
X107291348Y-74110607D02*
X107338967Y-74205845D01*
X107338967Y-74205845D02*
X107386586Y-74396321D01*
X107386586Y-74396321D02*
X107386586Y-74539178D01*
X107386586Y-74539178D02*
X107338967Y-74729654D01*
X107338967Y-74729654D02*
X107291348Y-74824892D01*
X107291348Y-74824892D02*
X107196110Y-74920131D01*
X107196110Y-74920131D02*
X107053253Y-74967750D01*
X107053253Y-74967750D02*
X106815158Y-74967750D01*
X108196110Y-74920131D02*
X108100872Y-74967750D01*
X108100872Y-74967750D02*
X107910396Y-74967750D01*
X107910396Y-74967750D02*
X107815158Y-74920131D01*
X107815158Y-74920131D02*
X107767539Y-74824892D01*
X107767539Y-74824892D02*
X107767539Y-74443940D01*
X107767539Y-74443940D02*
X107815158Y-74348702D01*
X107815158Y-74348702D02*
X107910396Y-74301083D01*
X107910396Y-74301083D02*
X108100872Y-74301083D01*
X108100872Y-74301083D02*
X108196110Y-74348702D01*
X108196110Y-74348702D02*
X108243729Y-74443940D01*
X108243729Y-74443940D02*
X108243729Y-74539178D01*
X108243729Y-74539178D02*
X107767539Y-74634416D01*
X108577063Y-74301083D02*
X108815158Y-74967750D01*
X108815158Y-74967750D02*
X109053253Y-74301083D01*
X109434206Y-74872511D02*
X109481825Y-74920131D01*
X109481825Y-74920131D02*
X109434206Y-74967750D01*
X109434206Y-74967750D02*
X109386587Y-74920131D01*
X109386587Y-74920131D02*
X109434206Y-74872511D01*
X109434206Y-74872511D02*
X109434206Y-74967750D01*
X109434206Y-74348702D02*
X109481825Y-74396321D01*
X109481825Y-74396321D02*
X109434206Y-74443940D01*
X109434206Y-74443940D02*
X109386587Y-74396321D01*
X109386587Y-74396321D02*
X109434206Y-74348702D01*
X109434206Y-74348702D02*
X109434206Y-74443940D01*
X107386586Y-76577694D02*
X107053253Y-76101503D01*
X106815158Y-76577694D02*
X106815158Y-75577694D01*
X106815158Y-75577694D02*
X107196110Y-75577694D01*
X107196110Y-75577694D02*
X107291348Y-75625313D01*
X107291348Y-75625313D02*
X107338967Y-75672932D01*
X107338967Y-75672932D02*
X107386586Y-75768170D01*
X107386586Y-75768170D02*
X107386586Y-75911027D01*
X107386586Y-75911027D02*
X107338967Y-76006265D01*
X107338967Y-76006265D02*
X107291348Y-76053884D01*
X107291348Y-76053884D02*
X107196110Y-76101503D01*
X107196110Y-76101503D02*
X106815158Y-76101503D01*
X107719920Y-75911027D02*
X107958015Y-76577694D01*
X108196110Y-75911027D02*
X107958015Y-76577694D01*
X107958015Y-76577694D02*
X107862777Y-76815789D01*
X107862777Y-76815789D02*
X107815158Y-76863408D01*
X107815158Y-76863408D02*
X107719920Y-76911027D01*
X109005634Y-76577694D02*
X109005634Y-76053884D01*
X109005634Y-76053884D02*
X108958015Y-75958646D01*
X108958015Y-75958646D02*
X108862777Y-75911027D01*
X108862777Y-75911027D02*
X108672301Y-75911027D01*
X108672301Y-75911027D02*
X108577063Y-75958646D01*
X109005634Y-76530075D02*
X108910396Y-76577694D01*
X108910396Y-76577694D02*
X108672301Y-76577694D01*
X108672301Y-76577694D02*
X108577063Y-76530075D01*
X108577063Y-76530075D02*
X108529444Y-76434836D01*
X108529444Y-76434836D02*
X108529444Y-76339598D01*
X108529444Y-76339598D02*
X108577063Y-76244360D01*
X108577063Y-76244360D02*
X108672301Y-76196741D01*
X108672301Y-76196741D02*
X108910396Y-76196741D01*
X108910396Y-76196741D02*
X109005634Y-76149122D01*
X109481825Y-75911027D02*
X109481825Y-76577694D01*
X109481825Y-76006265D02*
X109529444Y-75958646D01*
X109529444Y-75958646D02*
X109624682Y-75911027D01*
X109624682Y-75911027D02*
X109767539Y-75911027D01*
X109767539Y-75911027D02*
X109862777Y-75958646D01*
X109862777Y-75958646D02*
X109910396Y-76053884D01*
X109910396Y-76053884D02*
X109910396Y-76577694D01*
X111005635Y-75577694D02*
X111577063Y-75577694D01*
X111291349Y-76577694D02*
X111291349Y-75577694D01*
X112338968Y-76577694D02*
X112338968Y-76053884D01*
X112338968Y-76053884D02*
X112291349Y-75958646D01*
X112291349Y-75958646D02*
X112196111Y-75911027D01*
X112196111Y-75911027D02*
X112005635Y-75911027D01*
X112005635Y-75911027D02*
X111910397Y-75958646D01*
X112338968Y-76530075D02*
X112243730Y-76577694D01*
X112243730Y-76577694D02*
X112005635Y-76577694D01*
X112005635Y-76577694D02*
X111910397Y-76530075D01*
X111910397Y-76530075D02*
X111862778Y-76434836D01*
X111862778Y-76434836D02*
X111862778Y-76339598D01*
X111862778Y-76339598D02*
X111910397Y-76244360D01*
X111910397Y-76244360D02*
X112005635Y-76196741D01*
X112005635Y-76196741D02*
X112243730Y-76196741D01*
X112243730Y-76196741D02*
X112338968Y-76149122D01*
X112719921Y-75911027D02*
X112958016Y-76577694D01*
X113196111Y-75911027D02*
X112958016Y-76577694D01*
X112958016Y-76577694D02*
X112862778Y-76815789D01*
X112862778Y-76815789D02*
X112815159Y-76863408D01*
X112815159Y-76863408D02*
X112719921Y-76911027D01*
X113719921Y-76577694D02*
X113624683Y-76530075D01*
X113624683Y-76530075D02*
X113577064Y-76434836D01*
X113577064Y-76434836D02*
X113577064Y-75577694D01*
X114243731Y-76577694D02*
X114148493Y-76530075D01*
X114148493Y-76530075D02*
X114100874Y-76482455D01*
X114100874Y-76482455D02*
X114053255Y-76387217D01*
X114053255Y-76387217D02*
X114053255Y-76101503D01*
X114053255Y-76101503D02*
X114100874Y-76006265D01*
X114100874Y-76006265D02*
X114148493Y-75958646D01*
X114148493Y-75958646D02*
X114243731Y-75911027D01*
X114243731Y-75911027D02*
X114386588Y-75911027D01*
X114386588Y-75911027D02*
X114481826Y-75958646D01*
X114481826Y-75958646D02*
X114529445Y-76006265D01*
X114529445Y-76006265D02*
X114577064Y-76101503D01*
X114577064Y-76101503D02*
X114577064Y-76387217D01*
X114577064Y-76387217D02*
X114529445Y-76482455D01*
X114529445Y-76482455D02*
X114481826Y-76530075D01*
X114481826Y-76530075D02*
X114386588Y-76577694D01*
X114386588Y-76577694D02*
X114243731Y-76577694D01*
X115005636Y-76577694D02*
X115005636Y-75911027D01*
X115005636Y-76101503D02*
X115053255Y-76006265D01*
X115053255Y-76006265D02*
X115100874Y-75958646D01*
X115100874Y-75958646D02*
X115196112Y-75911027D01*
X115196112Y-75911027D02*
X115291350Y-75911027D01*
X107542167Y-85874094D02*
X106970739Y-85874094D01*
X107256453Y-85874094D02*
X107256453Y-84874094D01*
X107256453Y-84874094D02*
X107161215Y-85016951D01*
X107161215Y-85016951D02*
X107065977Y-85112189D01*
X107065977Y-85112189D02*
X106970739Y-85159808D01*
X108161215Y-84874094D02*
X108256453Y-84874094D01*
X108256453Y-84874094D02*
X108351691Y-84921713D01*
X108351691Y-84921713D02*
X108399310Y-84969332D01*
X108399310Y-84969332D02*
X108446929Y-85064570D01*
X108446929Y-85064570D02*
X108494548Y-85255046D01*
X108494548Y-85255046D02*
X108494548Y-85493141D01*
X108494548Y-85493141D02*
X108446929Y-85683617D01*
X108446929Y-85683617D02*
X108399310Y-85778855D01*
X108399310Y-85778855D02*
X108351691Y-85826475D01*
X108351691Y-85826475D02*
X108256453Y-85874094D01*
X108256453Y-85874094D02*
X108161215Y-85874094D01*
X108161215Y-85874094D02*
X108065977Y-85826475D01*
X108065977Y-85826475D02*
X108018358Y-85778855D01*
X108018358Y-85778855D02*
X107970739Y-85683617D01*
X107970739Y-85683617D02*
X107923120Y-85493141D01*
X107923120Y-85493141D02*
X107923120Y-85255046D01*
X107923120Y-85255046D02*
X107970739Y-85064570D01*
X107970739Y-85064570D02*
X108018358Y-84969332D01*
X108018358Y-84969332D02*
X108065977Y-84921713D01*
X108065977Y-84921713D02*
X108161215Y-84874094D01*
X109351691Y-85207427D02*
X109351691Y-85874094D01*
X108923120Y-85207427D02*
X108923120Y-85731236D01*
X108923120Y-85731236D02*
X108970739Y-85826475D01*
X108970739Y-85826475D02*
X109065977Y-85874094D01*
X109065977Y-85874094D02*
X109208834Y-85874094D01*
X109208834Y-85874094D02*
X109304072Y-85826475D01*
X109304072Y-85826475D02*
X109351691Y-85778855D01*
X110161215Y-85350284D02*
X109827882Y-85350284D01*
X109827882Y-85874094D02*
X109827882Y-84874094D01*
X109827882Y-84874094D02*
X110304072Y-84874094D01*
X126862167Y-108369694D02*
X126290739Y-108369694D01*
X126576453Y-108369694D02*
X126576453Y-107369694D01*
X126576453Y-107369694D02*
X126481215Y-107512551D01*
X126481215Y-107512551D02*
X126385977Y-107607789D01*
X126385977Y-107607789D02*
X126290739Y-107655408D01*
X127481215Y-107369694D02*
X127576453Y-107369694D01*
X127576453Y-107369694D02*
X127671691Y-107417313D01*
X127671691Y-107417313D02*
X127719310Y-107464932D01*
X127719310Y-107464932D02*
X127766929Y-107560170D01*
X127766929Y-107560170D02*
X127814548Y-107750646D01*
X127814548Y-107750646D02*
X127814548Y-107988741D01*
X127814548Y-107988741D02*
X127766929Y-108179217D01*
X127766929Y-108179217D02*
X127719310Y-108274455D01*
X127719310Y-108274455D02*
X127671691Y-108322075D01*
X127671691Y-108322075D02*
X127576453Y-108369694D01*
X127576453Y-108369694D02*
X127481215Y-108369694D01*
X127481215Y-108369694D02*
X127385977Y-108322075D01*
X127385977Y-108322075D02*
X127338358Y-108274455D01*
X127338358Y-108274455D02*
X127290739Y-108179217D01*
X127290739Y-108179217D02*
X127243120Y-107988741D01*
X127243120Y-107988741D02*
X127243120Y-107750646D01*
X127243120Y-107750646D02*
X127290739Y-107560170D01*
X127290739Y-107560170D02*
X127338358Y-107464932D01*
X127338358Y-107464932D02*
X127385977Y-107417313D01*
X127385977Y-107417313D02*
X127481215Y-107369694D01*
X128433596Y-107369694D02*
X128528834Y-107369694D01*
X128528834Y-107369694D02*
X128624072Y-107417313D01*
X128624072Y-107417313D02*
X128671691Y-107464932D01*
X128671691Y-107464932D02*
X128719310Y-107560170D01*
X128719310Y-107560170D02*
X128766929Y-107750646D01*
X128766929Y-107750646D02*
X128766929Y-107988741D01*
X128766929Y-107988741D02*
X128719310Y-108179217D01*
X128719310Y-108179217D02*
X128671691Y-108274455D01*
X128671691Y-108274455D02*
X128624072Y-108322075D01*
X128624072Y-108322075D02*
X128528834Y-108369694D01*
X128528834Y-108369694D02*
X128433596Y-108369694D01*
X128433596Y-108369694D02*
X128338358Y-108322075D01*
X128338358Y-108322075D02*
X128290739Y-108274455D01*
X128290739Y-108274455D02*
X128243120Y-108179217D01*
X128243120Y-108179217D02*
X128195501Y-107988741D01*
X128195501Y-107988741D02*
X128195501Y-107750646D01*
X128195501Y-107750646D02*
X128243120Y-107560170D01*
X128243120Y-107560170D02*
X128290739Y-107464932D01*
X128290739Y-107464932D02*
X128338358Y-107417313D01*
X128338358Y-107417313D02*
X128433596Y-107369694D01*
X129195501Y-107703027D02*
X129195501Y-108369694D01*
X129195501Y-107798265D02*
X129243120Y-107750646D01*
X129243120Y-107750646D02*
X129338358Y-107703027D01*
X129338358Y-107703027D02*
X129481215Y-107703027D01*
X129481215Y-107703027D02*
X129576453Y-107750646D01*
X129576453Y-107750646D02*
X129624072Y-107845884D01*
X129624072Y-107845884D02*
X129624072Y-108369694D01*
X130433596Y-107845884D02*
X130100263Y-107845884D01*
X130100263Y-108369694D02*
X130100263Y-107369694D01*
X130100263Y-107369694D02*
X130576453Y-107369694D01*
X142239939Y-95299275D02*
X142382796Y-95346894D01*
X142382796Y-95346894D02*
X142620891Y-95346894D01*
X142620891Y-95346894D02*
X142716129Y-95299275D01*
X142716129Y-95299275D02*
X142763748Y-95251655D01*
X142763748Y-95251655D02*
X142811367Y-95156417D01*
X142811367Y-95156417D02*
X142811367Y-95061179D01*
X142811367Y-95061179D02*
X142763748Y-94965941D01*
X142763748Y-94965941D02*
X142716129Y-94918322D01*
X142716129Y-94918322D02*
X142620891Y-94870703D01*
X142620891Y-94870703D02*
X142430415Y-94823084D01*
X142430415Y-94823084D02*
X142335177Y-94775465D01*
X142335177Y-94775465D02*
X142287558Y-94727846D01*
X142287558Y-94727846D02*
X142239939Y-94632608D01*
X142239939Y-94632608D02*
X142239939Y-94537370D01*
X142239939Y-94537370D02*
X142287558Y-94442132D01*
X142287558Y-94442132D02*
X142335177Y-94394513D01*
X142335177Y-94394513D02*
X142430415Y-94346894D01*
X142430415Y-94346894D02*
X142668510Y-94346894D01*
X142668510Y-94346894D02*
X142811367Y-94394513D01*
X143811367Y-95251655D02*
X143763748Y-95299275D01*
X143763748Y-95299275D02*
X143620891Y-95346894D01*
X143620891Y-95346894D02*
X143525653Y-95346894D01*
X143525653Y-95346894D02*
X143382796Y-95299275D01*
X143382796Y-95299275D02*
X143287558Y-95204036D01*
X143287558Y-95204036D02*
X143239939Y-95108798D01*
X143239939Y-95108798D02*
X143192320Y-94918322D01*
X143192320Y-94918322D02*
X143192320Y-94775465D01*
X143192320Y-94775465D02*
X143239939Y-94584989D01*
X143239939Y-94584989D02*
X143287558Y-94489751D01*
X143287558Y-94489751D02*
X143382796Y-94394513D01*
X143382796Y-94394513D02*
X143525653Y-94346894D01*
X143525653Y-94346894D02*
X143620891Y-94346894D01*
X143620891Y-94346894D02*
X143763748Y-94394513D01*
X143763748Y-94394513D02*
X143811367Y-94442132D01*
X144716129Y-95346894D02*
X144239939Y-95346894D01*
X144239939Y-95346894D02*
X144239939Y-94346894D01*
X142239939Y-96823275D02*
X142382796Y-96870894D01*
X142382796Y-96870894D02*
X142620891Y-96870894D01*
X142620891Y-96870894D02*
X142716129Y-96823275D01*
X142716129Y-96823275D02*
X142763748Y-96775655D01*
X142763748Y-96775655D02*
X142811367Y-96680417D01*
X142811367Y-96680417D02*
X142811367Y-96585179D01*
X142811367Y-96585179D02*
X142763748Y-96489941D01*
X142763748Y-96489941D02*
X142716129Y-96442322D01*
X142716129Y-96442322D02*
X142620891Y-96394703D01*
X142620891Y-96394703D02*
X142430415Y-96347084D01*
X142430415Y-96347084D02*
X142335177Y-96299465D01*
X142335177Y-96299465D02*
X142287558Y-96251846D01*
X142287558Y-96251846D02*
X142239939Y-96156608D01*
X142239939Y-96156608D02*
X142239939Y-96061370D01*
X142239939Y-96061370D02*
X142287558Y-95966132D01*
X142287558Y-95966132D02*
X142335177Y-95918513D01*
X142335177Y-95918513D02*
X142430415Y-95870894D01*
X142430415Y-95870894D02*
X142668510Y-95870894D01*
X142668510Y-95870894D02*
X142811367Y-95918513D01*
X143239939Y-96870894D02*
X143239939Y-95870894D01*
X143239939Y-95870894D02*
X143478034Y-95870894D01*
X143478034Y-95870894D02*
X143620891Y-95918513D01*
X143620891Y-95918513D02*
X143716129Y-96013751D01*
X143716129Y-96013751D02*
X143763748Y-96108989D01*
X143763748Y-96108989D02*
X143811367Y-96299465D01*
X143811367Y-96299465D02*
X143811367Y-96442322D01*
X143811367Y-96442322D02*
X143763748Y-96632798D01*
X143763748Y-96632798D02*
X143716129Y-96728036D01*
X143716129Y-96728036D02*
X143620891Y-96823275D01*
X143620891Y-96823275D02*
X143478034Y-96870894D01*
X143478034Y-96870894D02*
X143239939Y-96870894D01*
X144192320Y-96585179D02*
X144668510Y-96585179D01*
X144097082Y-96870894D02*
X144430415Y-95870894D01*
X144430415Y-95870894D02*
X144763748Y-96870894D01*
X142811367Y-97442513D02*
X142716129Y-97394894D01*
X142716129Y-97394894D02*
X142573272Y-97394894D01*
X142573272Y-97394894D02*
X142430415Y-97442513D01*
X142430415Y-97442513D02*
X142335177Y-97537751D01*
X142335177Y-97537751D02*
X142287558Y-97632989D01*
X142287558Y-97632989D02*
X142239939Y-97823465D01*
X142239939Y-97823465D02*
X142239939Y-97966322D01*
X142239939Y-97966322D02*
X142287558Y-98156798D01*
X142287558Y-98156798D02*
X142335177Y-98252036D01*
X142335177Y-98252036D02*
X142430415Y-98347275D01*
X142430415Y-98347275D02*
X142573272Y-98394894D01*
X142573272Y-98394894D02*
X142668510Y-98394894D01*
X142668510Y-98394894D02*
X142811367Y-98347275D01*
X142811367Y-98347275D02*
X142858986Y-98299655D01*
X142858986Y-98299655D02*
X142858986Y-97966322D01*
X142858986Y-97966322D02*
X142668510Y-97966322D01*
X143287558Y-98394894D02*
X143287558Y-97394894D01*
X143287558Y-97394894D02*
X143858986Y-98394894D01*
X143858986Y-98394894D02*
X143858986Y-97394894D01*
X144335177Y-98394894D02*
X144335177Y-97394894D01*
X144335177Y-97394894D02*
X144573272Y-97394894D01*
X144573272Y-97394894D02*
X144716129Y-97442513D01*
X144716129Y-97442513D02*
X144811367Y-97537751D01*
X144811367Y-97537751D02*
X144858986Y-97632989D01*
X144858986Y-97632989D02*
X144906605Y-97823465D01*
X144906605Y-97823465D02*
X144906605Y-97966322D01*
X144906605Y-97966322D02*
X144858986Y-98156798D01*
X144858986Y-98156798D02*
X144811367Y-98252036D01*
X144811367Y-98252036D02*
X144716129Y-98347275D01*
X144716129Y-98347275D02*
X144573272Y-98394894D01*
X144573272Y-98394894D02*
X144335177Y-98394894D01*
X142192320Y-98918894D02*
X142811367Y-98918894D01*
X142811367Y-98918894D02*
X142478034Y-99299846D01*
X142478034Y-99299846D02*
X142620891Y-99299846D01*
X142620891Y-99299846D02*
X142716129Y-99347465D01*
X142716129Y-99347465D02*
X142763748Y-99395084D01*
X142763748Y-99395084D02*
X142811367Y-99490322D01*
X142811367Y-99490322D02*
X142811367Y-99728417D01*
X142811367Y-99728417D02*
X142763748Y-99823655D01*
X142763748Y-99823655D02*
X142716129Y-99871275D01*
X142716129Y-99871275D02*
X142620891Y-99918894D01*
X142620891Y-99918894D02*
X142335177Y-99918894D01*
X142335177Y-99918894D02*
X142239939Y-99871275D01*
X142239939Y-99871275D02*
X142192320Y-99823655D01*
X143144701Y-99252227D02*
X143382796Y-99918894D01*
X143382796Y-99918894D02*
X143620891Y-99252227D01*
X143906606Y-98918894D02*
X144525653Y-98918894D01*
X144525653Y-98918894D02*
X144192320Y-99299846D01*
X144192320Y-99299846D02*
X144335177Y-99299846D01*
X144335177Y-99299846D02*
X144430415Y-99347465D01*
X144430415Y-99347465D02*
X144478034Y-99395084D01*
X144478034Y-99395084D02*
X144525653Y-99490322D01*
X144525653Y-99490322D02*
X144525653Y-99728417D01*
X144525653Y-99728417D02*
X144478034Y-99823655D01*
X144478034Y-99823655D02*
X144430415Y-99871275D01*
X144430415Y-99871275D02*
X144335177Y-99918894D01*
X144335177Y-99918894D02*
X144049463Y-99918894D01*
X144049463Y-99918894D02*
X143954225Y-99871275D01*
X143954225Y-99871275D02*
X143906606Y-99823655D01*
X146466929Y-100003027D02*
X146466929Y-100669694D01*
X146228834Y-99622075D02*
X145990739Y-100336360D01*
X145990739Y-100336360D02*
X146609786Y-100336360D01*
X146990739Y-100574455D02*
X147038358Y-100622075D01*
X147038358Y-100622075D02*
X146990739Y-100669694D01*
X146990739Y-100669694D02*
X146943120Y-100622075D01*
X146943120Y-100622075D02*
X146990739Y-100574455D01*
X146990739Y-100574455D02*
X146990739Y-100669694D01*
X147371691Y-99669694D02*
X148038357Y-99669694D01*
X148038357Y-99669694D02*
X147609786Y-100669694D01*
X148419310Y-100669694D02*
X148419310Y-99669694D01*
X148514548Y-100288741D02*
X148800262Y-100669694D01*
X148800262Y-100003027D02*
X148419310Y-100383979D01*
X76780894Y-99620232D02*
X76780894Y-100191660D01*
X76780894Y-99905946D02*
X75780894Y-99905946D01*
X75780894Y-99905946D02*
X75923751Y-100001184D01*
X75923751Y-100001184D02*
X76018989Y-100096422D01*
X76018989Y-100096422D02*
X76066608Y-100191660D01*
X75780894Y-99001184D02*
X75780894Y-98905946D01*
X75780894Y-98905946D02*
X75828513Y-98810708D01*
X75828513Y-98810708D02*
X75876132Y-98763089D01*
X75876132Y-98763089D02*
X75971370Y-98715470D01*
X75971370Y-98715470D02*
X76161846Y-98667851D01*
X76161846Y-98667851D02*
X76399941Y-98667851D01*
X76399941Y-98667851D02*
X76590417Y-98715470D01*
X76590417Y-98715470D02*
X76685655Y-98763089D01*
X76685655Y-98763089D02*
X76733275Y-98810708D01*
X76733275Y-98810708D02*
X76780894Y-98905946D01*
X76780894Y-98905946D02*
X76780894Y-99001184D01*
X76780894Y-99001184D02*
X76733275Y-99096422D01*
X76733275Y-99096422D02*
X76685655Y-99144041D01*
X76685655Y-99144041D02*
X76590417Y-99191660D01*
X76590417Y-99191660D02*
X76399941Y-99239279D01*
X76399941Y-99239279D02*
X76161846Y-99239279D01*
X76161846Y-99239279D02*
X75971370Y-99191660D01*
X75971370Y-99191660D02*
X75876132Y-99144041D01*
X75876132Y-99144041D02*
X75828513Y-99096422D01*
X75828513Y-99096422D02*
X75780894Y-99001184D01*
X75780894Y-98048803D02*
X75780894Y-97953565D01*
X75780894Y-97953565D02*
X75828513Y-97858327D01*
X75828513Y-97858327D02*
X75876132Y-97810708D01*
X75876132Y-97810708D02*
X75971370Y-97763089D01*
X75971370Y-97763089D02*
X76161846Y-97715470D01*
X76161846Y-97715470D02*
X76399941Y-97715470D01*
X76399941Y-97715470D02*
X76590417Y-97763089D01*
X76590417Y-97763089D02*
X76685655Y-97810708D01*
X76685655Y-97810708D02*
X76733275Y-97858327D01*
X76733275Y-97858327D02*
X76780894Y-97953565D01*
X76780894Y-97953565D02*
X76780894Y-98048803D01*
X76780894Y-98048803D02*
X76733275Y-98144041D01*
X76733275Y-98144041D02*
X76685655Y-98191660D01*
X76685655Y-98191660D02*
X76590417Y-98239279D01*
X76590417Y-98239279D02*
X76399941Y-98286898D01*
X76399941Y-98286898D02*
X76161846Y-98286898D01*
X76161846Y-98286898D02*
X75971370Y-98239279D01*
X75971370Y-98239279D02*
X75876132Y-98191660D01*
X75876132Y-98191660D02*
X75828513Y-98144041D01*
X75828513Y-98144041D02*
X75780894Y-98048803D01*
X76114227Y-96858327D02*
X76780894Y-96858327D01*
X76114227Y-97286898D02*
X76638036Y-97286898D01*
X76638036Y-97286898D02*
X76733275Y-97239279D01*
X76733275Y-97239279D02*
X76780894Y-97144041D01*
X76780894Y-97144041D02*
X76780894Y-97001184D01*
X76780894Y-97001184D02*
X76733275Y-96905946D01*
X76733275Y-96905946D02*
X76685655Y-96858327D01*
X76257084Y-96048803D02*
X76257084Y-96382136D01*
X76780894Y-96382136D02*
X75780894Y-96382136D01*
X75780894Y-96382136D02*
X75780894Y-95905946D01*
X76869694Y-93137832D02*
X76869694Y-93709260D01*
X76869694Y-93423546D02*
X75869694Y-93423546D01*
X75869694Y-93423546D02*
X76012551Y-93518784D01*
X76012551Y-93518784D02*
X76107789Y-93614022D01*
X76107789Y-93614022D02*
X76155408Y-93709260D01*
X75869694Y-92518784D02*
X75869694Y-92423546D01*
X75869694Y-92423546D02*
X75917313Y-92328308D01*
X75917313Y-92328308D02*
X75964932Y-92280689D01*
X75964932Y-92280689D02*
X76060170Y-92233070D01*
X76060170Y-92233070D02*
X76250646Y-92185451D01*
X76250646Y-92185451D02*
X76488741Y-92185451D01*
X76488741Y-92185451D02*
X76679217Y-92233070D01*
X76679217Y-92233070D02*
X76774455Y-92280689D01*
X76774455Y-92280689D02*
X76822075Y-92328308D01*
X76822075Y-92328308D02*
X76869694Y-92423546D01*
X76869694Y-92423546D02*
X76869694Y-92518784D01*
X76869694Y-92518784D02*
X76822075Y-92614022D01*
X76822075Y-92614022D02*
X76774455Y-92661641D01*
X76774455Y-92661641D02*
X76679217Y-92709260D01*
X76679217Y-92709260D02*
X76488741Y-92756879D01*
X76488741Y-92756879D02*
X76250646Y-92756879D01*
X76250646Y-92756879D02*
X76060170Y-92709260D01*
X76060170Y-92709260D02*
X75964932Y-92661641D01*
X75964932Y-92661641D02*
X75917313Y-92614022D01*
X75917313Y-92614022D02*
X75869694Y-92518784D01*
X75869694Y-91566403D02*
X75869694Y-91471165D01*
X75869694Y-91471165D02*
X75917313Y-91375927D01*
X75917313Y-91375927D02*
X75964932Y-91328308D01*
X75964932Y-91328308D02*
X76060170Y-91280689D01*
X76060170Y-91280689D02*
X76250646Y-91233070D01*
X76250646Y-91233070D02*
X76488741Y-91233070D01*
X76488741Y-91233070D02*
X76679217Y-91280689D01*
X76679217Y-91280689D02*
X76774455Y-91328308D01*
X76774455Y-91328308D02*
X76822075Y-91375927D01*
X76822075Y-91375927D02*
X76869694Y-91471165D01*
X76869694Y-91471165D02*
X76869694Y-91566403D01*
X76869694Y-91566403D02*
X76822075Y-91661641D01*
X76822075Y-91661641D02*
X76774455Y-91709260D01*
X76774455Y-91709260D02*
X76679217Y-91756879D01*
X76679217Y-91756879D02*
X76488741Y-91804498D01*
X76488741Y-91804498D02*
X76250646Y-91804498D01*
X76250646Y-91804498D02*
X76060170Y-91756879D01*
X76060170Y-91756879D02*
X75964932Y-91709260D01*
X75964932Y-91709260D02*
X75917313Y-91661641D01*
X75917313Y-91661641D02*
X75869694Y-91566403D01*
X76203027Y-90375927D02*
X76869694Y-90375927D01*
X76203027Y-90804498D02*
X76726836Y-90804498D01*
X76726836Y-90804498D02*
X76822075Y-90756879D01*
X76822075Y-90756879D02*
X76869694Y-90661641D01*
X76869694Y-90661641D02*
X76869694Y-90518784D01*
X76869694Y-90518784D02*
X76822075Y-90423546D01*
X76822075Y-90423546D02*
X76774455Y-90375927D01*
X76345884Y-89566403D02*
X76345884Y-89899736D01*
X76869694Y-89899736D02*
X75869694Y-89899736D01*
X75869694Y-89899736D02*
X75869694Y-89423546D01*
X103416094Y-83513451D02*
X103416094Y-83989641D01*
X103416094Y-83989641D02*
X103892284Y-84037260D01*
X103892284Y-84037260D02*
X103844665Y-83989641D01*
X103844665Y-83989641D02*
X103797046Y-83894403D01*
X103797046Y-83894403D02*
X103797046Y-83656308D01*
X103797046Y-83656308D02*
X103844665Y-83561070D01*
X103844665Y-83561070D02*
X103892284Y-83513451D01*
X103892284Y-83513451D02*
X103987522Y-83465832D01*
X103987522Y-83465832D02*
X104225617Y-83465832D01*
X104225617Y-83465832D02*
X104320855Y-83513451D01*
X104320855Y-83513451D02*
X104368475Y-83561070D01*
X104368475Y-83561070D02*
X104416094Y-83656308D01*
X104416094Y-83656308D02*
X104416094Y-83894403D01*
X104416094Y-83894403D02*
X104368475Y-83989641D01*
X104368475Y-83989641D02*
X104320855Y-84037260D01*
X104320855Y-83037260D02*
X104368475Y-82989641D01*
X104368475Y-82989641D02*
X104416094Y-83037260D01*
X104416094Y-83037260D02*
X104368475Y-83084879D01*
X104368475Y-83084879D02*
X104320855Y-83037260D01*
X104320855Y-83037260D02*
X104416094Y-83037260D01*
X104416094Y-82037261D02*
X104416094Y-82608689D01*
X104416094Y-82322975D02*
X103416094Y-82322975D01*
X103416094Y-82322975D02*
X103558951Y-82418213D01*
X103558951Y-82418213D02*
X103654189Y-82513451D01*
X103654189Y-82513451D02*
X103701808Y-82608689D01*
X104416094Y-81608689D02*
X103416094Y-81608689D01*
X104035141Y-81513451D02*
X104416094Y-81227737D01*
X103749427Y-81227737D02*
X104130379Y-81608689D01*
X113214132Y-86475660D02*
X113166513Y-86428041D01*
X113166513Y-86428041D02*
X113118894Y-86332803D01*
X113118894Y-86332803D02*
X113118894Y-86094708D01*
X113118894Y-86094708D02*
X113166513Y-85999470D01*
X113166513Y-85999470D02*
X113214132Y-85951851D01*
X113214132Y-85951851D02*
X113309370Y-85904232D01*
X113309370Y-85904232D02*
X113404608Y-85904232D01*
X113404608Y-85904232D02*
X113547465Y-85951851D01*
X113547465Y-85951851D02*
X114118894Y-86523279D01*
X114118894Y-86523279D02*
X114118894Y-85904232D01*
X113214132Y-85523279D02*
X113166513Y-85475660D01*
X113166513Y-85475660D02*
X113118894Y-85380422D01*
X113118894Y-85380422D02*
X113118894Y-85142327D01*
X113118894Y-85142327D02*
X113166513Y-85047089D01*
X113166513Y-85047089D02*
X113214132Y-84999470D01*
X113214132Y-84999470D02*
X113309370Y-84951851D01*
X113309370Y-84951851D02*
X113404608Y-84951851D01*
X113404608Y-84951851D02*
X113547465Y-84999470D01*
X113547465Y-84999470D02*
X114118894Y-85570898D01*
X114118894Y-85570898D02*
X114118894Y-84951851D01*
X113452227Y-84094708D02*
X114118894Y-84094708D01*
X113452227Y-84523279D02*
X113976036Y-84523279D01*
X113976036Y-84523279D02*
X114071275Y-84475660D01*
X114071275Y-84475660D02*
X114118894Y-84380422D01*
X114118894Y-84380422D02*
X114118894Y-84237565D01*
X114118894Y-84237565D02*
X114071275Y-84142327D01*
X114071275Y-84142327D02*
X114023655Y-84094708D01*
X113595084Y-83285184D02*
X113595084Y-83618517D01*
X114118894Y-83618517D02*
X113118894Y-83618517D01*
X113118894Y-83618517D02*
X113118894Y-83142327D01*
X117573294Y-86666232D02*
X117573294Y-87237660D01*
X117573294Y-86951946D02*
X116573294Y-86951946D01*
X116573294Y-86951946D02*
X116716151Y-87047184D01*
X116716151Y-87047184D02*
X116811389Y-87142422D01*
X116811389Y-87142422D02*
X116859008Y-87237660D01*
X116573294Y-86047184D02*
X116573294Y-85951946D01*
X116573294Y-85951946D02*
X116620913Y-85856708D01*
X116620913Y-85856708D02*
X116668532Y-85809089D01*
X116668532Y-85809089D02*
X116763770Y-85761470D01*
X116763770Y-85761470D02*
X116954246Y-85713851D01*
X116954246Y-85713851D02*
X117192341Y-85713851D01*
X117192341Y-85713851D02*
X117382817Y-85761470D01*
X117382817Y-85761470D02*
X117478055Y-85809089D01*
X117478055Y-85809089D02*
X117525675Y-85856708D01*
X117525675Y-85856708D02*
X117573294Y-85951946D01*
X117573294Y-85951946D02*
X117573294Y-86047184D01*
X117573294Y-86047184D02*
X117525675Y-86142422D01*
X117525675Y-86142422D02*
X117478055Y-86190041D01*
X117478055Y-86190041D02*
X117382817Y-86237660D01*
X117382817Y-86237660D02*
X117192341Y-86285279D01*
X117192341Y-86285279D02*
X116954246Y-86285279D01*
X116954246Y-86285279D02*
X116763770Y-86237660D01*
X116763770Y-86237660D02*
X116668532Y-86190041D01*
X116668532Y-86190041D02*
X116620913Y-86142422D01*
X116620913Y-86142422D02*
X116573294Y-86047184D01*
X116573294Y-85094803D02*
X116573294Y-84999565D01*
X116573294Y-84999565D02*
X116620913Y-84904327D01*
X116620913Y-84904327D02*
X116668532Y-84856708D01*
X116668532Y-84856708D02*
X116763770Y-84809089D01*
X116763770Y-84809089D02*
X116954246Y-84761470D01*
X116954246Y-84761470D02*
X117192341Y-84761470D01*
X117192341Y-84761470D02*
X117382817Y-84809089D01*
X117382817Y-84809089D02*
X117478055Y-84856708D01*
X117478055Y-84856708D02*
X117525675Y-84904327D01*
X117525675Y-84904327D02*
X117573294Y-84999565D01*
X117573294Y-84999565D02*
X117573294Y-85094803D01*
X117573294Y-85094803D02*
X117525675Y-85190041D01*
X117525675Y-85190041D02*
X117478055Y-85237660D01*
X117478055Y-85237660D02*
X117382817Y-85285279D01*
X117382817Y-85285279D02*
X117192341Y-85332898D01*
X117192341Y-85332898D02*
X116954246Y-85332898D01*
X116954246Y-85332898D02*
X116763770Y-85285279D01*
X116763770Y-85285279D02*
X116668532Y-85237660D01*
X116668532Y-85237660D02*
X116620913Y-85190041D01*
X116620913Y-85190041D02*
X116573294Y-85094803D01*
X116906627Y-84332898D02*
X117573294Y-84332898D01*
X117001865Y-84332898D02*
X116954246Y-84285279D01*
X116954246Y-84285279D02*
X116906627Y-84190041D01*
X116906627Y-84190041D02*
X116906627Y-84047184D01*
X116906627Y-84047184D02*
X116954246Y-83951946D01*
X116954246Y-83951946D02*
X117049484Y-83904327D01*
X117049484Y-83904327D02*
X117573294Y-83904327D01*
X117049484Y-83094803D02*
X117049484Y-83428136D01*
X117573294Y-83428136D02*
X116573294Y-83428136D01*
X116573294Y-83428136D02*
X116573294Y-82951946D01*
X141042894Y-78335032D02*
X141042894Y-78906460D01*
X141042894Y-78620746D02*
X140042894Y-78620746D01*
X140042894Y-78620746D02*
X140185751Y-78715984D01*
X140185751Y-78715984D02*
X140280989Y-78811222D01*
X140280989Y-78811222D02*
X140328608Y-78906460D01*
X140042894Y-77715984D02*
X140042894Y-77620746D01*
X140042894Y-77620746D02*
X140090513Y-77525508D01*
X140090513Y-77525508D02*
X140138132Y-77477889D01*
X140138132Y-77477889D02*
X140233370Y-77430270D01*
X140233370Y-77430270D02*
X140423846Y-77382651D01*
X140423846Y-77382651D02*
X140661941Y-77382651D01*
X140661941Y-77382651D02*
X140852417Y-77430270D01*
X140852417Y-77430270D02*
X140947655Y-77477889D01*
X140947655Y-77477889D02*
X140995275Y-77525508D01*
X140995275Y-77525508D02*
X141042894Y-77620746D01*
X141042894Y-77620746D02*
X141042894Y-77715984D01*
X141042894Y-77715984D02*
X140995275Y-77811222D01*
X140995275Y-77811222D02*
X140947655Y-77858841D01*
X140947655Y-77858841D02*
X140852417Y-77906460D01*
X140852417Y-77906460D02*
X140661941Y-77954079D01*
X140661941Y-77954079D02*
X140423846Y-77954079D01*
X140423846Y-77954079D02*
X140233370Y-77906460D01*
X140233370Y-77906460D02*
X140138132Y-77858841D01*
X140138132Y-77858841D02*
X140090513Y-77811222D01*
X140090513Y-77811222D02*
X140042894Y-77715984D01*
X140042894Y-76763603D02*
X140042894Y-76668365D01*
X140042894Y-76668365D02*
X140090513Y-76573127D01*
X140090513Y-76573127D02*
X140138132Y-76525508D01*
X140138132Y-76525508D02*
X140233370Y-76477889D01*
X140233370Y-76477889D02*
X140423846Y-76430270D01*
X140423846Y-76430270D02*
X140661941Y-76430270D01*
X140661941Y-76430270D02*
X140852417Y-76477889D01*
X140852417Y-76477889D02*
X140947655Y-76525508D01*
X140947655Y-76525508D02*
X140995275Y-76573127D01*
X140995275Y-76573127D02*
X141042894Y-76668365D01*
X141042894Y-76668365D02*
X141042894Y-76763603D01*
X141042894Y-76763603D02*
X140995275Y-76858841D01*
X140995275Y-76858841D02*
X140947655Y-76906460D01*
X140947655Y-76906460D02*
X140852417Y-76954079D01*
X140852417Y-76954079D02*
X140661941Y-77001698D01*
X140661941Y-77001698D02*
X140423846Y-77001698D01*
X140423846Y-77001698D02*
X140233370Y-76954079D01*
X140233370Y-76954079D02*
X140138132Y-76906460D01*
X140138132Y-76906460D02*
X140090513Y-76858841D01*
X140090513Y-76858841D02*
X140042894Y-76763603D01*
X140376227Y-76001698D02*
X141042894Y-76001698D01*
X140471465Y-76001698D02*
X140423846Y-75954079D01*
X140423846Y-75954079D02*
X140376227Y-75858841D01*
X140376227Y-75858841D02*
X140376227Y-75715984D01*
X140376227Y-75715984D02*
X140423846Y-75620746D01*
X140423846Y-75620746D02*
X140519084Y-75573127D01*
X140519084Y-75573127D02*
X141042894Y-75573127D01*
X140519084Y-74763603D02*
X140519084Y-75096936D01*
X141042894Y-75096936D02*
X140042894Y-75096936D01*
X140042894Y-75096936D02*
X140042894Y-74620746D01*
X143227294Y-78436632D02*
X143227294Y-79008060D01*
X143227294Y-78722346D02*
X142227294Y-78722346D01*
X142227294Y-78722346D02*
X142370151Y-78817584D01*
X142370151Y-78817584D02*
X142465389Y-78912822D01*
X142465389Y-78912822D02*
X142513008Y-79008060D01*
X142560627Y-77579489D02*
X143227294Y-77579489D01*
X142560627Y-78008060D02*
X143084436Y-78008060D01*
X143084436Y-78008060D02*
X143179675Y-77960441D01*
X143179675Y-77960441D02*
X143227294Y-77865203D01*
X143227294Y-77865203D02*
X143227294Y-77722346D01*
X143227294Y-77722346D02*
X143179675Y-77627108D01*
X143179675Y-77627108D02*
X143132055Y-77579489D01*
X142703484Y-76769965D02*
X142703484Y-77103298D01*
X143227294Y-77103298D02*
X142227294Y-77103298D01*
X142227294Y-77103298D02*
X142227294Y-76627108D01*
X36417315Y-104557691D02*
X36369696Y-104700548D01*
X36369696Y-104700548D02*
X36322077Y-104748167D01*
X36322077Y-104748167D02*
X36226839Y-104795786D01*
X36226839Y-104795786D02*
X36083982Y-104795786D01*
X36083982Y-104795786D02*
X35988744Y-104748167D01*
X35988744Y-104748167D02*
X35941125Y-104700548D01*
X35941125Y-104700548D02*
X35893505Y-104605310D01*
X35893505Y-104605310D02*
X35893505Y-104224358D01*
X35893505Y-104224358D02*
X36893505Y-104224358D01*
X36893505Y-104224358D02*
X36893505Y-104557691D01*
X36893505Y-104557691D02*
X36845886Y-104652929D01*
X36845886Y-104652929D02*
X36798267Y-104700548D01*
X36798267Y-104700548D02*
X36703029Y-104748167D01*
X36703029Y-104748167D02*
X36607791Y-104748167D01*
X36607791Y-104748167D02*
X36512553Y-104700548D01*
X36512553Y-104700548D02*
X36464934Y-104652929D01*
X36464934Y-104652929D02*
X36417315Y-104557691D01*
X36417315Y-104557691D02*
X36417315Y-104224358D01*
X35893505Y-105748167D02*
X35893505Y-105176739D01*
X35893505Y-105462453D02*
X36893505Y-105462453D01*
X36893505Y-105462453D02*
X36750648Y-105367215D01*
X36750648Y-105367215D02*
X36655410Y-105271977D01*
X36655410Y-105271977D02*
X36607791Y-105176739D01*
X36468115Y-102271691D02*
X36420496Y-102414548D01*
X36420496Y-102414548D02*
X36372877Y-102462167D01*
X36372877Y-102462167D02*
X36277639Y-102509786D01*
X36277639Y-102509786D02*
X36134782Y-102509786D01*
X36134782Y-102509786D02*
X36039544Y-102462167D01*
X36039544Y-102462167D02*
X35991925Y-102414548D01*
X35991925Y-102414548D02*
X35944305Y-102319310D01*
X35944305Y-102319310D02*
X35944305Y-101938358D01*
X35944305Y-101938358D02*
X36944305Y-101938358D01*
X36944305Y-101938358D02*
X36944305Y-102271691D01*
X36944305Y-102271691D02*
X36896686Y-102366929D01*
X36896686Y-102366929D02*
X36849067Y-102414548D01*
X36849067Y-102414548D02*
X36753829Y-102462167D01*
X36753829Y-102462167D02*
X36658591Y-102462167D01*
X36658591Y-102462167D02*
X36563353Y-102414548D01*
X36563353Y-102414548D02*
X36515734Y-102366929D01*
X36515734Y-102366929D02*
X36468115Y-102271691D01*
X36468115Y-102271691D02*
X36468115Y-101938358D01*
X36849067Y-102890739D02*
X36896686Y-102938358D01*
X36896686Y-102938358D02*
X36944305Y-103033596D01*
X36944305Y-103033596D02*
X36944305Y-103271691D01*
X36944305Y-103271691D02*
X36896686Y-103366929D01*
X36896686Y-103366929D02*
X36849067Y-103414548D01*
X36849067Y-103414548D02*
X36753829Y-103462167D01*
X36753829Y-103462167D02*
X36658591Y-103462167D01*
X36658591Y-103462167D02*
X36515734Y-103414548D01*
X36515734Y-103414548D02*
X35944305Y-102843120D01*
X35944305Y-102843120D02*
X35944305Y-103462167D01*
X36230020Y-106208739D02*
X36230020Y-106684929D01*
X35944305Y-106113501D02*
X36944305Y-106446834D01*
X36944305Y-106446834D02*
X35944305Y-106780167D01*
X35944305Y-107637310D02*
X35944305Y-107065882D01*
X35944305Y-107351596D02*
X36944305Y-107351596D01*
X36944305Y-107351596D02*
X36801448Y-107256358D01*
X36801448Y-107256358D02*
X36706210Y-107161120D01*
X36706210Y-107161120D02*
X36658591Y-107065882D01*
X36230020Y-108240739D02*
X36230020Y-108716929D01*
X35944305Y-108145501D02*
X36944305Y-108478834D01*
X36944305Y-108478834D02*
X35944305Y-108812167D01*
X36849067Y-109097882D02*
X36896686Y-109145501D01*
X36896686Y-109145501D02*
X36944305Y-109240739D01*
X36944305Y-109240739D02*
X36944305Y-109478834D01*
X36944305Y-109478834D02*
X36896686Y-109574072D01*
X36896686Y-109574072D02*
X36849067Y-109621691D01*
X36849067Y-109621691D02*
X36753829Y-109669310D01*
X36753829Y-109669310D02*
X36658591Y-109669310D01*
X36658591Y-109669310D02*
X36515734Y-109621691D01*
X36515734Y-109621691D02*
X35944305Y-109050263D01*
X35944305Y-109050263D02*
X35944305Y-109669310D01*
X36722115Y-86523691D02*
X36674496Y-86666548D01*
X36674496Y-86666548D02*
X36626877Y-86714167D01*
X36626877Y-86714167D02*
X36531639Y-86761786D01*
X36531639Y-86761786D02*
X36388782Y-86761786D01*
X36388782Y-86761786D02*
X36293544Y-86714167D01*
X36293544Y-86714167D02*
X36245925Y-86666548D01*
X36245925Y-86666548D02*
X36198305Y-86571310D01*
X36198305Y-86571310D02*
X36198305Y-86190358D01*
X36198305Y-86190358D02*
X37198305Y-86190358D01*
X37198305Y-86190358D02*
X37198305Y-86523691D01*
X37198305Y-86523691D02*
X37150686Y-86618929D01*
X37150686Y-86618929D02*
X37103067Y-86666548D01*
X37103067Y-86666548D02*
X37007829Y-86714167D01*
X37007829Y-86714167D02*
X36912591Y-86714167D01*
X36912591Y-86714167D02*
X36817353Y-86666548D01*
X36817353Y-86666548D02*
X36769734Y-86618929D01*
X36769734Y-86618929D02*
X36722115Y-86523691D01*
X36722115Y-86523691D02*
X36722115Y-86190358D01*
X37103067Y-87142739D02*
X37150686Y-87190358D01*
X37150686Y-87190358D02*
X37198305Y-87285596D01*
X37198305Y-87285596D02*
X37198305Y-87523691D01*
X37198305Y-87523691D02*
X37150686Y-87618929D01*
X37150686Y-87618929D02*
X37103067Y-87666548D01*
X37103067Y-87666548D02*
X37007829Y-87714167D01*
X37007829Y-87714167D02*
X36912591Y-87714167D01*
X36912591Y-87714167D02*
X36769734Y-87666548D01*
X36769734Y-87666548D02*
X36198305Y-87095120D01*
X36198305Y-87095120D02*
X36198305Y-87714167D01*
X36722115Y-88555691D02*
X36674496Y-88698548D01*
X36674496Y-88698548D02*
X36626877Y-88746167D01*
X36626877Y-88746167D02*
X36531639Y-88793786D01*
X36531639Y-88793786D02*
X36388782Y-88793786D01*
X36388782Y-88793786D02*
X36293544Y-88746167D01*
X36293544Y-88746167D02*
X36245925Y-88698548D01*
X36245925Y-88698548D02*
X36198305Y-88603310D01*
X36198305Y-88603310D02*
X36198305Y-88222358D01*
X36198305Y-88222358D02*
X37198305Y-88222358D01*
X37198305Y-88222358D02*
X37198305Y-88555691D01*
X37198305Y-88555691D02*
X37150686Y-88650929D01*
X37150686Y-88650929D02*
X37103067Y-88698548D01*
X37103067Y-88698548D02*
X37007829Y-88746167D01*
X37007829Y-88746167D02*
X36912591Y-88746167D01*
X36912591Y-88746167D02*
X36817353Y-88698548D01*
X36817353Y-88698548D02*
X36769734Y-88650929D01*
X36769734Y-88650929D02*
X36722115Y-88555691D01*
X36722115Y-88555691D02*
X36722115Y-88222358D01*
X36198305Y-89746167D02*
X36198305Y-89174739D01*
X36198305Y-89460453D02*
X37198305Y-89460453D01*
X37198305Y-89460453D02*
X37055448Y-89365215D01*
X37055448Y-89365215D02*
X36960210Y-89269977D01*
X36960210Y-89269977D02*
X36912591Y-89174739D01*
X36484020Y-90206739D02*
X36484020Y-90682929D01*
X36198305Y-90111501D02*
X37198305Y-90444834D01*
X37198305Y-90444834D02*
X36198305Y-90778167D01*
X36198305Y-91635310D02*
X36198305Y-91063882D01*
X36198305Y-91349596D02*
X37198305Y-91349596D01*
X37198305Y-91349596D02*
X37055448Y-91254358D01*
X37055448Y-91254358D02*
X36960210Y-91159120D01*
X36960210Y-91159120D02*
X36912591Y-91063882D01*
X36484020Y-92238739D02*
X36484020Y-92714929D01*
X36198305Y-92143501D02*
X37198305Y-92476834D01*
X37198305Y-92476834D02*
X36198305Y-92810167D01*
X37103067Y-93095882D02*
X37150686Y-93143501D01*
X37150686Y-93143501D02*
X37198305Y-93238739D01*
X37198305Y-93238739D02*
X37198305Y-93476834D01*
X37198305Y-93476834D02*
X37150686Y-93572072D01*
X37150686Y-93572072D02*
X37103067Y-93619691D01*
X37103067Y-93619691D02*
X37007829Y-93667310D01*
X37007829Y-93667310D02*
X36912591Y-93667310D01*
X36912591Y-93667310D02*
X36769734Y-93619691D01*
X36769734Y-93619691D02*
X36198305Y-93048263D01*
X36198305Y-93048263D02*
X36198305Y-93667310D01*
X139104761Y-88733884D02*
X139219047Y-88781503D01*
X139219047Y-88781503D02*
X139257142Y-88829122D01*
X139257142Y-88829122D02*
X139295238Y-88924360D01*
X139295238Y-88924360D02*
X139295238Y-89067217D01*
X139295238Y-89067217D02*
X139257142Y-89162455D01*
X139257142Y-89162455D02*
X139219047Y-89210075D01*
X139219047Y-89210075D02*
X139142857Y-89257694D01*
X139142857Y-89257694D02*
X138838095Y-89257694D01*
X138838095Y-89257694D02*
X138838095Y-88257694D01*
X138838095Y-88257694D02*
X139104761Y-88257694D01*
X139104761Y-88257694D02*
X139180952Y-88305313D01*
X139180952Y-88305313D02*
X139219047Y-88352932D01*
X139219047Y-88352932D02*
X139257142Y-88448170D01*
X139257142Y-88448170D02*
X139257142Y-88543408D01*
X139257142Y-88543408D02*
X139219047Y-88638646D01*
X139219047Y-88638646D02*
X139180952Y-88686265D01*
X139180952Y-88686265D02*
X139104761Y-88733884D01*
X139104761Y-88733884D02*
X138838095Y-88733884D01*
X139752380Y-89257694D02*
X139676190Y-89210075D01*
X139676190Y-89210075D02*
X139638095Y-89162455D01*
X139638095Y-89162455D02*
X139599999Y-89067217D01*
X139599999Y-89067217D02*
X139599999Y-88781503D01*
X139599999Y-88781503D02*
X139638095Y-88686265D01*
X139638095Y-88686265D02*
X139676190Y-88638646D01*
X139676190Y-88638646D02*
X139752380Y-88591027D01*
X139752380Y-88591027D02*
X139866666Y-88591027D01*
X139866666Y-88591027D02*
X139942857Y-88638646D01*
X139942857Y-88638646D02*
X139980952Y-88686265D01*
X139980952Y-88686265D02*
X140019047Y-88781503D01*
X140019047Y-88781503D02*
X140019047Y-89067217D01*
X140019047Y-89067217D02*
X139980952Y-89162455D01*
X139980952Y-89162455D02*
X139942857Y-89210075D01*
X139942857Y-89210075D02*
X139866666Y-89257694D01*
X139866666Y-89257694D02*
X139752380Y-89257694D01*
X140476190Y-89257694D02*
X140400000Y-89210075D01*
X140400000Y-89210075D02*
X140361905Y-89162455D01*
X140361905Y-89162455D02*
X140323809Y-89067217D01*
X140323809Y-89067217D02*
X140323809Y-88781503D01*
X140323809Y-88781503D02*
X140361905Y-88686265D01*
X140361905Y-88686265D02*
X140400000Y-88638646D01*
X140400000Y-88638646D02*
X140476190Y-88591027D01*
X140476190Y-88591027D02*
X140590476Y-88591027D01*
X140590476Y-88591027D02*
X140666667Y-88638646D01*
X140666667Y-88638646D02*
X140704762Y-88686265D01*
X140704762Y-88686265D02*
X140742857Y-88781503D01*
X140742857Y-88781503D02*
X140742857Y-89067217D01*
X140742857Y-89067217D02*
X140704762Y-89162455D01*
X140704762Y-89162455D02*
X140666667Y-89210075D01*
X140666667Y-89210075D02*
X140590476Y-89257694D01*
X140590476Y-89257694D02*
X140476190Y-89257694D01*
X140971429Y-88591027D02*
X141276191Y-88591027D01*
X141085715Y-88257694D02*
X141085715Y-89114836D01*
X141085715Y-89114836D02*
X141123810Y-89210075D01*
X141123810Y-89210075D02*
X141200000Y-89257694D01*
X141200000Y-89257694D02*
X141276191Y-89257694D01*
D12*
X144440476Y-101799819D02*
X144440476Y-102514104D01*
X144440476Y-102514104D02*
X144392857Y-102656961D01*
X144392857Y-102656961D02*
X144297619Y-102752200D01*
X144297619Y-102752200D02*
X144154762Y-102799819D01*
X144154762Y-102799819D02*
X144059524Y-102799819D01*
X145440476Y-102799819D02*
X144869048Y-102799819D01*
X145154762Y-102799819D02*
X145154762Y-101799819D01*
X145154762Y-101799819D02*
X145059524Y-101942676D01*
X145059524Y-101942676D02*
X144964286Y-102037914D01*
X144964286Y-102037914D02*
X144869048Y-102085533D01*
X145821429Y-101895057D02*
X145869048Y-101847438D01*
X145869048Y-101847438D02*
X145964286Y-101799819D01*
X145964286Y-101799819D02*
X146202381Y-101799819D01*
X146202381Y-101799819D02*
X146297619Y-101847438D01*
X146297619Y-101847438D02*
X146345238Y-101895057D01*
X146345238Y-101895057D02*
X146392857Y-101990295D01*
X146392857Y-101990295D02*
X146392857Y-102085533D01*
X146392857Y-102085533D02*
X146345238Y-102228390D01*
X146345238Y-102228390D02*
X145773810Y-102799819D01*
X145773810Y-102799819D02*
X146392857Y-102799819D01*
X85209819Y-115133333D02*
X85924104Y-115133333D01*
X85924104Y-115133333D02*
X86066961Y-115180952D01*
X86066961Y-115180952D02*
X86162200Y-115276190D01*
X86162200Y-115276190D02*
X86209819Y-115419047D01*
X86209819Y-115419047D02*
X86209819Y-115514285D01*
X85209819Y-114752380D02*
X85209819Y-114133333D01*
X85209819Y-114133333D02*
X85590771Y-114466666D01*
X85590771Y-114466666D02*
X85590771Y-114323809D01*
X85590771Y-114323809D02*
X85638390Y-114228571D01*
X85638390Y-114228571D02*
X85686009Y-114180952D01*
X85686009Y-114180952D02*
X85781247Y-114133333D01*
X85781247Y-114133333D02*
X86019342Y-114133333D01*
X86019342Y-114133333D02*
X86114580Y-114180952D01*
X86114580Y-114180952D02*
X86162200Y-114228571D01*
X86162200Y-114228571D02*
X86209819Y-114323809D01*
X86209819Y-114323809D02*
X86209819Y-114609523D01*
X86209819Y-114609523D02*
X86162200Y-114704761D01*
X86162200Y-114704761D02*
X86114580Y-114752380D01*
X77354819Y-110038094D02*
X76354819Y-110038094D01*
X76354819Y-110038094D02*
X76354819Y-109799999D01*
X76354819Y-109799999D02*
X76402438Y-109657142D01*
X76402438Y-109657142D02*
X76497676Y-109561904D01*
X76497676Y-109561904D02*
X76592914Y-109514285D01*
X76592914Y-109514285D02*
X76783390Y-109466666D01*
X76783390Y-109466666D02*
X76926247Y-109466666D01*
X76926247Y-109466666D02*
X77116723Y-109514285D01*
X77116723Y-109514285D02*
X77211961Y-109561904D01*
X77211961Y-109561904D02*
X77307200Y-109657142D01*
X77307200Y-109657142D02*
X77354819Y-109799999D01*
X77354819Y-109799999D02*
X77354819Y-110038094D01*
X77354819Y-108514285D02*
X77354819Y-109085713D01*
X77354819Y-108799999D02*
X76354819Y-108799999D01*
X76354819Y-108799999D02*
X76497676Y-108895237D01*
X76497676Y-108895237D02*
X76592914Y-108990475D01*
X76592914Y-108990475D02*
X76640533Y-109085713D01*
X151266666Y-89254819D02*
X151266666Y-89969104D01*
X151266666Y-89969104D02*
X151219047Y-90111961D01*
X151219047Y-90111961D02*
X151123809Y-90207200D01*
X151123809Y-90207200D02*
X150980952Y-90254819D01*
X150980952Y-90254819D02*
X150885714Y-90254819D01*
X152171428Y-89588152D02*
X152171428Y-90254819D01*
X151933333Y-89207200D02*
X151695238Y-89921485D01*
X151695238Y-89921485D02*
X152314285Y-89921485D01*
X133196857Y-103574152D02*
X133434952Y-104240819D01*
X133434952Y-104240819D02*
X133673047Y-103574152D01*
X134482571Y-104240819D02*
X134482571Y-103240819D01*
X134482571Y-104193200D02*
X134387333Y-104240819D01*
X134387333Y-104240819D02*
X134196857Y-104240819D01*
X134196857Y-104240819D02*
X134101619Y-104193200D01*
X134101619Y-104193200D02*
X134054000Y-104145580D01*
X134054000Y-104145580D02*
X134006381Y-104050342D01*
X134006381Y-104050342D02*
X134006381Y-103764628D01*
X134006381Y-103764628D02*
X134054000Y-103669390D01*
X134054000Y-103669390D02*
X134101619Y-103621771D01*
X134101619Y-103621771D02*
X134196857Y-103574152D01*
X134196857Y-103574152D02*
X134387333Y-103574152D01*
X134387333Y-103574152D02*
X134482571Y-103621771D01*
X134720667Y-104336057D02*
X135482571Y-104336057D01*
X135720667Y-104240819D02*
X135720667Y-103574152D01*
X135720667Y-103764628D02*
X135768286Y-103669390D01*
X135768286Y-103669390D02*
X135815905Y-103621771D01*
X135815905Y-103621771D02*
X135911143Y-103574152D01*
X135911143Y-103574152D02*
X136006381Y-103574152D01*
X136863524Y-104240819D02*
X136292096Y-104240819D01*
X136577810Y-104240819D02*
X136577810Y-103240819D01*
X136577810Y-103240819D02*
X136482572Y-103383676D01*
X136482572Y-103383676D02*
X136387334Y-103478914D01*
X136387334Y-103478914D02*
X136292096Y-103526533D01*
X137966666Y-109254819D02*
X137966666Y-109969104D01*
X137966666Y-109969104D02*
X137919047Y-110111961D01*
X137919047Y-110111961D02*
X137823809Y-110207200D01*
X137823809Y-110207200D02*
X137680952Y-110254819D01*
X137680952Y-110254819D02*
X137585714Y-110254819D01*
X138347619Y-109254819D02*
X139014285Y-109254819D01*
X139014285Y-109254819D02*
X138585714Y-110254819D01*
X39666666Y-95894819D02*
X39666666Y-96609104D01*
X39666666Y-96609104D02*
X39619047Y-96751961D01*
X39619047Y-96751961D02*
X39523809Y-96847200D01*
X39523809Y-96847200D02*
X39380952Y-96894819D01*
X39380952Y-96894819D02*
X39285714Y-96894819D01*
X40619047Y-95894819D02*
X40142857Y-95894819D01*
X40142857Y-95894819D02*
X40095238Y-96371009D01*
X40095238Y-96371009D02*
X40142857Y-96323390D01*
X40142857Y-96323390D02*
X40238095Y-96275771D01*
X40238095Y-96275771D02*
X40476190Y-96275771D01*
X40476190Y-96275771D02*
X40571428Y-96323390D01*
X40571428Y-96323390D02*
X40619047Y-96371009D01*
X40619047Y-96371009D02*
X40666666Y-96466247D01*
X40666666Y-96466247D02*
X40666666Y-96704342D01*
X40666666Y-96704342D02*
X40619047Y-96799580D01*
X40619047Y-96799580D02*
X40571428Y-96847200D01*
X40571428Y-96847200D02*
X40476190Y-96894819D01*
X40476190Y-96894819D02*
X40238095Y-96894819D01*
X40238095Y-96894819D02*
X40142857Y-96847200D01*
X40142857Y-96847200D02*
X40095238Y-96799580D01*
X75690476Y-81454819D02*
X75690476Y-82169104D01*
X75690476Y-82169104D02*
X75642857Y-82311961D01*
X75642857Y-82311961D02*
X75547619Y-82407200D01*
X75547619Y-82407200D02*
X75404762Y-82454819D01*
X75404762Y-82454819D02*
X75309524Y-82454819D01*
X76690476Y-82454819D02*
X76119048Y-82454819D01*
X76404762Y-82454819D02*
X76404762Y-81454819D01*
X76404762Y-81454819D02*
X76309524Y-81597676D01*
X76309524Y-81597676D02*
X76214286Y-81692914D01*
X76214286Y-81692914D02*
X76119048Y-81740533D01*
X77309524Y-81454819D02*
X77404762Y-81454819D01*
X77404762Y-81454819D02*
X77500000Y-81502438D01*
X77500000Y-81502438D02*
X77547619Y-81550057D01*
X77547619Y-81550057D02*
X77595238Y-81645295D01*
X77595238Y-81645295D02*
X77642857Y-81835771D01*
X77642857Y-81835771D02*
X77642857Y-82073866D01*
X77642857Y-82073866D02*
X77595238Y-82264342D01*
X77595238Y-82264342D02*
X77547619Y-82359580D01*
X77547619Y-82359580D02*
X77500000Y-82407200D01*
X77500000Y-82407200D02*
X77404762Y-82454819D01*
X77404762Y-82454819D02*
X77309524Y-82454819D01*
X77309524Y-82454819D02*
X77214286Y-82407200D01*
X77214286Y-82407200D02*
X77166667Y-82359580D01*
X77166667Y-82359580D02*
X77119048Y-82264342D01*
X77119048Y-82264342D02*
X77071429Y-82073866D01*
X77071429Y-82073866D02*
X77071429Y-81835771D01*
X77071429Y-81835771D02*
X77119048Y-81645295D01*
X77119048Y-81645295D02*
X77166667Y-81550057D01*
X77166667Y-81550057D02*
X77214286Y-81502438D01*
X77214286Y-81502438D02*
X77309524Y-81454819D01*
X123866666Y-108254819D02*
X123866666Y-108969104D01*
X123866666Y-108969104D02*
X123819047Y-109111961D01*
X123819047Y-109111961D02*
X123723809Y-109207200D01*
X123723809Y-109207200D02*
X123580952Y-109254819D01*
X123580952Y-109254819D02*
X123485714Y-109254819D01*
X124390476Y-109254819D02*
X124580952Y-109254819D01*
X124580952Y-109254819D02*
X124676190Y-109207200D01*
X124676190Y-109207200D02*
X124723809Y-109159580D01*
X124723809Y-109159580D02*
X124819047Y-109016723D01*
X124819047Y-109016723D02*
X124866666Y-108826247D01*
X124866666Y-108826247D02*
X124866666Y-108445295D01*
X124866666Y-108445295D02*
X124819047Y-108350057D01*
X124819047Y-108350057D02*
X124771428Y-108302438D01*
X124771428Y-108302438D02*
X124676190Y-108254819D01*
X124676190Y-108254819D02*
X124485714Y-108254819D01*
X124485714Y-108254819D02*
X124390476Y-108302438D01*
X124390476Y-108302438D02*
X124342857Y-108350057D01*
X124342857Y-108350057D02*
X124295238Y-108445295D01*
X124295238Y-108445295D02*
X124295238Y-108683390D01*
X124295238Y-108683390D02*
X124342857Y-108778628D01*
X124342857Y-108778628D02*
X124390476Y-108826247D01*
X124390476Y-108826247D02*
X124485714Y-108873866D01*
X124485714Y-108873866D02*
X124676190Y-108873866D01*
X124676190Y-108873866D02*
X124771428Y-108826247D01*
X124771428Y-108826247D02*
X124819047Y-108778628D01*
X124819047Y-108778628D02*
X124866666Y-108683390D01*
X88484761Y-111750057D02*
X88389523Y-111702438D01*
X88389523Y-111702438D02*
X88294285Y-111607200D01*
X88294285Y-111607200D02*
X88151428Y-111464342D01*
X88151428Y-111464342D02*
X88056190Y-111416723D01*
X88056190Y-111416723D02*
X87960952Y-111416723D01*
X88008571Y-111654819D02*
X87913333Y-111607200D01*
X87913333Y-111607200D02*
X87818095Y-111511961D01*
X87818095Y-111511961D02*
X87770476Y-111321485D01*
X87770476Y-111321485D02*
X87770476Y-110988152D01*
X87770476Y-110988152D02*
X87818095Y-110797676D01*
X87818095Y-110797676D02*
X87913333Y-110702438D01*
X87913333Y-110702438D02*
X88008571Y-110654819D01*
X88008571Y-110654819D02*
X88199047Y-110654819D01*
X88199047Y-110654819D02*
X88294285Y-110702438D01*
X88294285Y-110702438D02*
X88389523Y-110797676D01*
X88389523Y-110797676D02*
X88437142Y-110988152D01*
X88437142Y-110988152D02*
X88437142Y-111321485D01*
X88437142Y-111321485D02*
X88389523Y-111511961D01*
X88389523Y-111511961D02*
X88294285Y-111607200D01*
X88294285Y-111607200D02*
X88199047Y-111654819D01*
X88199047Y-111654819D02*
X88008571Y-111654819D01*
X89389523Y-111654819D02*
X88818095Y-111654819D01*
X89103809Y-111654819D02*
X89103809Y-110654819D01*
X89103809Y-110654819D02*
X89008571Y-110797676D01*
X89008571Y-110797676D02*
X88913333Y-110892914D01*
X88913333Y-110892914D02*
X88818095Y-110940533D01*
X92314286Y-109384700D02*
X92457143Y-109432319D01*
X92457143Y-109432319D02*
X92695238Y-109432319D01*
X92695238Y-109432319D02*
X92790476Y-109384700D01*
X92790476Y-109384700D02*
X92838095Y-109337080D01*
X92838095Y-109337080D02*
X92885714Y-109241842D01*
X92885714Y-109241842D02*
X92885714Y-109146604D01*
X92885714Y-109146604D02*
X92838095Y-109051366D01*
X92838095Y-109051366D02*
X92790476Y-109003747D01*
X92790476Y-109003747D02*
X92695238Y-108956128D01*
X92695238Y-108956128D02*
X92504762Y-108908509D01*
X92504762Y-108908509D02*
X92409524Y-108860890D01*
X92409524Y-108860890D02*
X92361905Y-108813271D01*
X92361905Y-108813271D02*
X92314286Y-108718033D01*
X92314286Y-108718033D02*
X92314286Y-108622795D01*
X92314286Y-108622795D02*
X92361905Y-108527557D01*
X92361905Y-108527557D02*
X92409524Y-108479938D01*
X92409524Y-108479938D02*
X92504762Y-108432319D01*
X92504762Y-108432319D02*
X92742857Y-108432319D01*
X92742857Y-108432319D02*
X92885714Y-108479938D01*
X94878095Y-109432319D02*
X94878095Y-108432319D01*
X94878095Y-108432319D02*
X95116190Y-108432319D01*
X95116190Y-108432319D02*
X95259047Y-108479938D01*
X95259047Y-108479938D02*
X95354285Y-108575176D01*
X95354285Y-108575176D02*
X95401904Y-108670414D01*
X95401904Y-108670414D02*
X95449523Y-108860890D01*
X95449523Y-108860890D02*
X95449523Y-109003747D01*
X95449523Y-109003747D02*
X95401904Y-109194223D01*
X95401904Y-109194223D02*
X95354285Y-109289461D01*
X95354285Y-109289461D02*
X95259047Y-109384700D01*
X95259047Y-109384700D02*
X95116190Y-109432319D01*
X95116190Y-109432319D02*
X94878095Y-109432319D01*
X97941904Y-108479938D02*
X97846666Y-108432319D01*
X97846666Y-108432319D02*
X97703809Y-108432319D01*
X97703809Y-108432319D02*
X97560952Y-108479938D01*
X97560952Y-108479938D02*
X97465714Y-108575176D01*
X97465714Y-108575176D02*
X97418095Y-108670414D01*
X97418095Y-108670414D02*
X97370476Y-108860890D01*
X97370476Y-108860890D02*
X97370476Y-109003747D01*
X97370476Y-109003747D02*
X97418095Y-109194223D01*
X97418095Y-109194223D02*
X97465714Y-109289461D01*
X97465714Y-109289461D02*
X97560952Y-109384700D01*
X97560952Y-109384700D02*
X97703809Y-109432319D01*
X97703809Y-109432319D02*
X97799047Y-109432319D01*
X97799047Y-109432319D02*
X97941904Y-109384700D01*
X97941904Y-109384700D02*
X97989523Y-109337080D01*
X97989523Y-109337080D02*
X97989523Y-109003747D01*
X97989523Y-109003747D02*
X97799047Y-109003747D01*
X102866666Y-115054819D02*
X102866666Y-115769104D01*
X102866666Y-115769104D02*
X102819047Y-115911961D01*
X102819047Y-115911961D02*
X102723809Y-116007200D01*
X102723809Y-116007200D02*
X102580952Y-116054819D01*
X102580952Y-116054819D02*
X102485714Y-116054819D01*
X103485714Y-115483390D02*
X103390476Y-115435771D01*
X103390476Y-115435771D02*
X103342857Y-115388152D01*
X103342857Y-115388152D02*
X103295238Y-115292914D01*
X103295238Y-115292914D02*
X103295238Y-115245295D01*
X103295238Y-115245295D02*
X103342857Y-115150057D01*
X103342857Y-115150057D02*
X103390476Y-115102438D01*
X103390476Y-115102438D02*
X103485714Y-115054819D01*
X103485714Y-115054819D02*
X103676190Y-115054819D01*
X103676190Y-115054819D02*
X103771428Y-115102438D01*
X103771428Y-115102438D02*
X103819047Y-115150057D01*
X103819047Y-115150057D02*
X103866666Y-115245295D01*
X103866666Y-115245295D02*
X103866666Y-115292914D01*
X103866666Y-115292914D02*
X103819047Y-115388152D01*
X103819047Y-115388152D02*
X103771428Y-115435771D01*
X103771428Y-115435771D02*
X103676190Y-115483390D01*
X103676190Y-115483390D02*
X103485714Y-115483390D01*
X103485714Y-115483390D02*
X103390476Y-115531009D01*
X103390476Y-115531009D02*
X103342857Y-115578628D01*
X103342857Y-115578628D02*
X103295238Y-115673866D01*
X103295238Y-115673866D02*
X103295238Y-115864342D01*
X103295238Y-115864342D02*
X103342857Y-115959580D01*
X103342857Y-115959580D02*
X103390476Y-116007200D01*
X103390476Y-116007200D02*
X103485714Y-116054819D01*
X103485714Y-116054819D02*
X103676190Y-116054819D01*
X103676190Y-116054819D02*
X103771428Y-116007200D01*
X103771428Y-116007200D02*
X103819047Y-115959580D01*
X103819047Y-115959580D02*
X103866666Y-115864342D01*
X103866666Y-115864342D02*
X103866666Y-115673866D01*
X103866666Y-115673866D02*
X103819047Y-115578628D01*
X103819047Y-115578628D02*
X103771428Y-115531009D01*
X103771428Y-115531009D02*
X103676190Y-115483390D01*
X130966666Y-109054819D02*
X130966666Y-109769104D01*
X130966666Y-109769104D02*
X130919047Y-109911961D01*
X130919047Y-109911961D02*
X130823809Y-110007200D01*
X130823809Y-110007200D02*
X130680952Y-110054819D01*
X130680952Y-110054819D02*
X130585714Y-110054819D01*
X131395238Y-109150057D02*
X131442857Y-109102438D01*
X131442857Y-109102438D02*
X131538095Y-109054819D01*
X131538095Y-109054819D02*
X131776190Y-109054819D01*
X131776190Y-109054819D02*
X131871428Y-109102438D01*
X131871428Y-109102438D02*
X131919047Y-109150057D01*
X131919047Y-109150057D02*
X131966666Y-109245295D01*
X131966666Y-109245295D02*
X131966666Y-109340533D01*
X131966666Y-109340533D02*
X131919047Y-109483390D01*
X131919047Y-109483390D02*
X131347619Y-110054819D01*
X131347619Y-110054819D02*
X131966666Y-110054819D01*
X149795476Y-109239819D02*
X149795476Y-109954104D01*
X149795476Y-109954104D02*
X149747857Y-110096961D01*
X149747857Y-110096961D02*
X149652619Y-110192200D01*
X149652619Y-110192200D02*
X149509762Y-110239819D01*
X149509762Y-110239819D02*
X149414524Y-110239819D01*
X150795476Y-110239819D02*
X150224048Y-110239819D01*
X150509762Y-110239819D02*
X150509762Y-109239819D01*
X150509762Y-109239819D02*
X150414524Y-109382676D01*
X150414524Y-109382676D02*
X150319286Y-109477914D01*
X150319286Y-109477914D02*
X150224048Y-109525533D01*
X151747857Y-110239819D02*
X151176429Y-110239819D01*
X151462143Y-110239819D02*
X151462143Y-109239819D01*
X151462143Y-109239819D02*
X151366905Y-109382676D01*
X151366905Y-109382676D02*
X151271667Y-109477914D01*
X151271667Y-109477914D02*
X151176429Y-109525533D01*
X39666666Y-111624819D02*
X39666666Y-112339104D01*
X39666666Y-112339104D02*
X39619047Y-112481961D01*
X39619047Y-112481961D02*
X39523809Y-112577200D01*
X39523809Y-112577200D02*
X39380952Y-112624819D01*
X39380952Y-112624819D02*
X39285714Y-112624819D01*
X40571428Y-111624819D02*
X40380952Y-111624819D01*
X40380952Y-111624819D02*
X40285714Y-111672438D01*
X40285714Y-111672438D02*
X40238095Y-111720057D01*
X40238095Y-111720057D02*
X40142857Y-111862914D01*
X40142857Y-111862914D02*
X40095238Y-112053390D01*
X40095238Y-112053390D02*
X40095238Y-112434342D01*
X40095238Y-112434342D02*
X40142857Y-112529580D01*
X40142857Y-112529580D02*
X40190476Y-112577200D01*
X40190476Y-112577200D02*
X40285714Y-112624819D01*
X40285714Y-112624819D02*
X40476190Y-112624819D01*
X40476190Y-112624819D02*
X40571428Y-112577200D01*
X40571428Y-112577200D02*
X40619047Y-112529580D01*
X40619047Y-112529580D02*
X40666666Y-112434342D01*
X40666666Y-112434342D02*
X40666666Y-112196247D01*
X40666666Y-112196247D02*
X40619047Y-112101009D01*
X40619047Y-112101009D02*
X40571428Y-112053390D01*
X40571428Y-112053390D02*
X40476190Y-112005771D01*
X40476190Y-112005771D02*
X40285714Y-112005771D01*
X40285714Y-112005771D02*
X40190476Y-112053390D01*
X40190476Y-112053390D02*
X40142857Y-112101009D01*
X40142857Y-112101009D02*
X40095238Y-112196247D01*
%TO.C,J12*%
D13*
X143870000Y-103345000D02*
X145250000Y-103345000D01*
X143870000Y-104725000D02*
X143870000Y-103345000D01*
X143870000Y-105995000D02*
X143870000Y-108645000D01*
X143870000Y-105995000D02*
X146630000Y-105995000D01*
X143870000Y-108645000D02*
X146630000Y-108645000D01*
X146630000Y-105995000D02*
X146630000Y-108645000D01*
%TO.C,J3*%
X79455000Y-113420000D02*
X79455000Y-116180000D01*
X82105000Y-113420000D02*
X79455000Y-113420000D01*
X82105000Y-113420000D02*
X82105000Y-116180000D01*
X82105000Y-116180000D02*
X79455000Y-116180000D01*
X83375000Y-113420000D02*
X84755000Y-113420000D01*
X84755000Y-113420000D02*
X84755000Y-114800000D01*
%TO.C,D1*%
X77790000Y-107750000D02*
X77790000Y-111050000D01*
X77790000Y-107750000D02*
X83300000Y-107750000D01*
X77790000Y-111050000D02*
X83300000Y-111050000D01*
%TO.C,mccap2*%
X113065000Y-81261252D02*
X113065000Y-80738748D01*
X114535000Y-81261252D02*
X114535000Y-80738748D01*
%TO.C,J4*%
X149120000Y-91290000D02*
X150500000Y-91290000D01*
X149120000Y-92670000D02*
X149120000Y-91290000D01*
X149120000Y-93940000D02*
X149120000Y-101670000D01*
X149120000Y-93940000D02*
X151880000Y-93940000D01*
X149120000Y-101670000D02*
X151880000Y-101670000D01*
X151880000Y-93940000D02*
X151880000Y-101670000D01*
%TO.C,R_En1*%
X150727064Y-85985000D02*
X150272936Y-85985000D01*
X150727064Y-84515000D02*
X150272936Y-84515000D01*
%TO.C,D4*%
X105767000Y-80999000D02*
X108227000Y-80999000D01*
X108227000Y-79529000D02*
X105767000Y-79529000D01*
X108227000Y-80999000D02*
X108227000Y-79529000D01*
%TO.C,vd_r1*%
X131530000Y-100130000D02*
X131530000Y-100460000D01*
X131530000Y-102870000D02*
X131530000Y-102540000D01*
X138070000Y-100130000D02*
X131530000Y-100130000D01*
X138070000Y-100460000D02*
X138070000Y-100130000D01*
X138070000Y-102540000D02*
X138070000Y-102870000D01*
X138070000Y-102870000D02*
X131530000Y-102870000D01*
%TO.C,Rails1*%
X43880000Y-72880000D02*
X43880000Y-80920000D01*
X43880000Y-72880000D02*
X74620000Y-72880000D01*
X43880000Y-76500000D02*
X45120000Y-76500000D01*
X43880000Y-77500000D02*
X45120000Y-77500000D01*
X43880000Y-78800000D02*
X45120000Y-78800000D01*
X43880000Y-80920000D02*
X46700000Y-80920000D01*
X47300000Y-80920000D02*
X74620000Y-80920000D01*
X48880000Y-76500000D02*
X50188000Y-76500000D01*
X48880000Y-77500000D02*
X50188000Y-77500000D01*
X48880000Y-78800000D02*
X51457000Y-78800000D01*
X52543000Y-78800000D02*
X56457000Y-78800000D01*
X53812000Y-76500000D02*
X55188000Y-76500000D01*
X53812000Y-77500000D02*
X55188000Y-77500000D01*
X57543000Y-78800000D02*
X61457000Y-78800000D01*
X58812000Y-76500000D02*
X60188000Y-76500000D01*
X58812000Y-77500000D02*
X60188000Y-77500000D01*
X62543000Y-78800000D02*
X66457000Y-78800000D01*
X63812000Y-76500000D02*
X65188000Y-76500000D01*
X63812000Y-77500000D02*
X65188000Y-77500000D01*
X67543000Y-78800000D02*
X71457000Y-78800000D01*
X68812000Y-76500000D02*
X70188000Y-76500000D01*
X68812000Y-77500000D02*
X70188000Y-77500000D01*
X72543000Y-78800000D02*
X74620000Y-78800000D01*
X73812000Y-76500000D02*
X74620000Y-76500000D01*
X73812000Y-77500000D02*
X74620000Y-77500000D01*
X74620000Y-72880000D02*
X74620000Y-80920000D01*
X47000000Y-80920000D02*
X47440000Y-81530000D01*
X46560000Y-81530000D01*
X47000000Y-80920000D01*
G36*
X47440000Y-81530000D02*
G01*
X46560000Y-81530000D01*
X47000000Y-80920000D01*
X47440000Y-81530000D01*
G37*
%TO.C,Motor_2*%
X54734000Y-84208000D02*
X54734000Y-99708000D01*
X54734000Y-99708000D02*
X75314000Y-99708000D01*
X72644000Y-84208000D02*
X54734000Y-84208000D01*
X72644000Y-86878000D02*
X54734000Y-86878000D01*
X72644000Y-86878000D02*
X72644000Y-84208000D01*
X75314000Y-84208000D02*
X73914000Y-84208000D01*
X75314000Y-85608000D02*
X75314000Y-84208000D01*
X75314000Y-86878000D02*
X72644000Y-86878000D01*
X75314000Y-97038000D02*
X54734000Y-97038000D01*
X75314000Y-99708000D02*
X75314000Y-86878000D01*
%TO.C,J7*%
X137540000Y-115480000D02*
X137540000Y-114100000D01*
X138920000Y-115480000D02*
X137540000Y-115480000D01*
X140190000Y-112720000D02*
X147920000Y-112720000D01*
X140190000Y-115480000D02*
X140190000Y-112720000D01*
X140190000Y-115480000D02*
X147920000Y-115480000D01*
X147920000Y-115480000D02*
X147920000Y-112720000D01*
%TO.C,J5*%
X38620000Y-92790000D02*
X38620000Y-85060000D01*
X41380000Y-85060000D02*
X38620000Y-85060000D01*
X41380000Y-92790000D02*
X38620000Y-92790000D01*
X41380000Y-92790000D02*
X41380000Y-85060000D01*
X41380000Y-94060000D02*
X41380000Y-95440000D01*
X41380000Y-95440000D02*
X40000000Y-95440000D01*
%TO.C,R2*%
X107434136Y-82627800D02*
X107888264Y-82627800D01*
X107434136Y-84097800D02*
X107888264Y-84097800D01*
%TO.C,J10*%
X76880000Y-72597500D02*
X87620000Y-72597500D01*
X76880000Y-76217500D02*
X78120000Y-76217500D01*
X76880000Y-77217500D02*
X78120000Y-77217500D01*
X76880000Y-78517500D02*
X78120000Y-78517500D01*
X76880000Y-80637500D02*
X76880000Y-72597500D01*
X79700000Y-80637500D02*
X76880000Y-80637500D01*
X81880000Y-76217500D02*
X83188000Y-76217500D01*
X81880000Y-77217500D02*
X83188000Y-77217500D01*
X81880000Y-78517500D02*
X84457000Y-78517500D01*
X85543000Y-78517500D02*
X87620000Y-78517500D01*
X86812000Y-76217500D02*
X87620000Y-76217500D01*
X86812000Y-77217500D02*
X87620000Y-77217500D01*
X87620000Y-72597500D02*
X87620000Y-80637500D01*
X87620000Y-80637500D02*
X80300000Y-80637500D01*
X80000000Y-80637500D02*
X80440000Y-81247500D01*
X79560000Y-81247500D01*
X80000000Y-80637500D01*
G36*
X80440000Y-81247500D02*
G01*
X79560000Y-81247500D01*
X80000000Y-80637500D01*
X80440000Y-81247500D01*
G37*
%TO.C,hall2*%
X116765000Y-113511252D02*
X116765000Y-112988748D01*
X118235000Y-113511252D02*
X118235000Y-112988748D01*
%TO.C,motorc1*%
X45612000Y-105096437D02*
X45612000Y-110852000D01*
X45612000Y-110852000D02*
X47962000Y-110852000D01*
X46676437Y-104032000D02*
X45612000Y-105096437D01*
X46676437Y-104032000D02*
X47962000Y-104032000D01*
X50869500Y-103004500D02*
X50869500Y-103792000D01*
X51263250Y-103398250D02*
X50475750Y-103398250D01*
X51367563Y-104032000D02*
X50082000Y-104032000D01*
X51367563Y-104032000D02*
X52432000Y-105096437D01*
X52432000Y-105096437D02*
X52432000Y-110852000D01*
X52432000Y-110852000D02*
X50082000Y-110852000D01*
%TO.C,U3*%
D14*
X85996000Y-89640000D02*
X85996000Y-92710000D01*
X96396000Y-89640000D02*
X85996000Y-89640000D01*
X96396000Y-94240000D02*
X96396000Y-89640000D01*
%TO.C,vd_c2*%
D13*
X133423752Y-107065000D02*
X132901248Y-107065000D01*
X133423752Y-108535000D02*
X132901248Y-108535000D01*
%TO.C,motorc2*%
X46090000Y-89104437D02*
X46090000Y-94860000D01*
X46090000Y-94860000D02*
X48440000Y-94860000D01*
X47154437Y-88040000D02*
X46090000Y-89104437D01*
X47154437Y-88040000D02*
X48440000Y-88040000D01*
X51347500Y-87012500D02*
X51347500Y-87800000D01*
X51741250Y-87406250D02*
X50953750Y-87406250D01*
X51845563Y-88040000D02*
X50560000Y-88040000D01*
X51845563Y-88040000D02*
X52910000Y-89104437D01*
X52910000Y-89104437D02*
X52910000Y-94860000D01*
X52910000Y-94860000D02*
X50560000Y-94860000D01*
%TO.C,vd_c1*%
X132045252Y-110765000D02*
X131522748Y-110765000D01*
X132045252Y-112235000D02*
X131522748Y-112235000D01*
%TO.C,R7*%
X137772936Y-110565000D02*
X138227064Y-110565000D01*
X137772936Y-112035000D02*
X138227064Y-112035000D01*
%TO.C,J9*%
X119340000Y-115780000D02*
X119340000Y-114400000D01*
X120720000Y-115780000D02*
X119340000Y-115780000D01*
X121990000Y-113020000D02*
X127180000Y-113020000D01*
X121990000Y-115780000D02*
X121990000Y-113020000D01*
X121990000Y-115780000D02*
X127180000Y-115780000D01*
X127180000Y-115780000D02*
X127180000Y-113020000D01*
%TO.C,J1*%
X94166000Y-74538000D02*
X94166000Y-72638000D01*
X94166000Y-78438000D02*
X94166000Y-76438000D01*
X103566000Y-72638000D02*
X94166000Y-72638000D01*
X103566000Y-74538000D02*
X103566000Y-72638000D01*
X103566000Y-78438000D02*
X103566000Y-76438000D01*
%TO.C,R_boot1*%
X148465000Y-88627064D02*
X148465000Y-88172936D01*
X149935000Y-88627064D02*
X149935000Y-88172936D01*
%TO.C,Motor_1*%
X54734000Y-100464000D02*
X54734000Y-115964000D01*
X54734000Y-115964000D02*
X75314000Y-115964000D01*
X72644000Y-100464000D02*
X54734000Y-100464000D01*
X72644000Y-103134000D02*
X54734000Y-103134000D01*
X72644000Y-103134000D02*
X72644000Y-100464000D01*
X75314000Y-100464000D02*
X73914000Y-100464000D01*
X75314000Y-101864000D02*
X75314000Y-100464000D01*
X75314000Y-103134000D02*
X72644000Y-103134000D01*
X75314000Y-113294000D02*
X54734000Y-113294000D01*
X75314000Y-115964000D02*
X75314000Y-103134000D01*
%TO.C,R4*%
X146165000Y-93927064D02*
X146165000Y-93472936D01*
X147635000Y-93927064D02*
X147635000Y-93472936D01*
%TO.C,R6*%
X90643936Y-78801000D02*
X91098064Y-78801000D01*
X90643936Y-80271000D02*
X91098064Y-80271000D01*
%TO.C,C2*%
X139879400Y-81207152D02*
X139879400Y-80684648D01*
X141349400Y-81207152D02*
X141349400Y-80684648D01*
%TO.C,Dpower1*%
X85510000Y-82600000D02*
X80000000Y-82600000D01*
X85510000Y-85900000D02*
X80000000Y-85900000D01*
X85510000Y-85900000D02*
X85510000Y-82600000D01*
%TO.C,U2*%
X97663500Y-87518000D02*
X97933500Y-87518000D01*
X97663500Y-93938000D02*
X97663500Y-87518000D01*
X104563500Y-87518000D02*
X104293500Y-87518000D01*
X104563500Y-93938000D02*
X104563500Y-87518000D01*
X104253500Y-85788000D02*
X104723500Y-85448000D01*
X104723500Y-86128000D01*
X104253500Y-85788000D01*
G36*
X104723500Y-86128000D02*
G01*
X104253500Y-85788000D01*
X104723500Y-85448000D01*
X104723500Y-86128000D01*
G37*
%TO.C,R5*%
X146265000Y-97927064D02*
X146265000Y-97472936D01*
X147735000Y-97927064D02*
X147735000Y-97472936D01*
%TO.C,5Vout1*%
X91490000Y-98240000D02*
X91490000Y-99440000D01*
X91490000Y-102760000D02*
X91490000Y-101560000D01*
X94945563Y-98240000D02*
X91490000Y-98240000D01*
X94945563Y-102760000D02*
X91490000Y-102760000D01*
X96010000Y-99304437D02*
X94945563Y-98240000D01*
X96010000Y-99304437D02*
X96010000Y-99440000D01*
X96010000Y-101695563D02*
X94945563Y-102760000D01*
X96010000Y-101695563D02*
X96010000Y-101560000D01*
X96500000Y-102310000D02*
X96500000Y-101810000D01*
X96750000Y-102060000D02*
X96250000Y-102060000D01*
%TO.C,Q1*%
X90020000Y-114470000D02*
X90020000Y-109829000D01*
X93289000Y-114470000D02*
X93289000Y-112960000D01*
X96990000Y-114470000D02*
X96990000Y-112960000D01*
X100260000Y-109829000D02*
X90020000Y-109829000D01*
X100260000Y-112960000D02*
X90020000Y-112960000D01*
X100260000Y-114470000D02*
X90020000Y-114470000D01*
X100260000Y-114470000D02*
X100260000Y-109829000D01*
%TO.C,C1*%
X142079400Y-81207152D02*
X142079400Y-80684648D01*
X143549400Y-81207152D02*
X143549400Y-80684648D01*
%TO.C,5Vin1*%
X77590000Y-89654437D02*
X77590000Y-95410000D01*
X77590000Y-95410000D02*
X79940000Y-95410000D01*
X78654437Y-88590000D02*
X77590000Y-89654437D01*
X78654437Y-88590000D02*
X79940000Y-88590000D01*
X82847500Y-87562500D02*
X82847500Y-88350000D01*
X83241250Y-87956250D02*
X82453750Y-87956250D01*
X83345563Y-88590000D02*
X82060000Y-88590000D01*
X83345563Y-88590000D02*
X84410000Y-89654437D01*
X84410000Y-89654437D02*
X84410000Y-95410000D01*
X84410000Y-95410000D02*
X82060000Y-95410000D01*
%TO.C,J8*%
X105480000Y-110520000D02*
X115860000Y-110520000D01*
X105480000Y-113170000D02*
X105480000Y-110520000D01*
X105480000Y-115820000D02*
X105480000Y-114440000D01*
X106860000Y-115820000D02*
X105480000Y-115820000D01*
X108130000Y-113170000D02*
X105480000Y-113170000D01*
X108130000Y-115820000D02*
X108130000Y-113170000D01*
X108130000Y-115820000D02*
X115860000Y-115820000D01*
X115860000Y-115820000D02*
X115860000Y-110520000D01*
%TO.C,3v3in1*%
X79340000Y-97840000D02*
X79340000Y-100190000D01*
X79340000Y-104660000D02*
X79340000Y-102310000D01*
X85095563Y-97840000D02*
X79340000Y-97840000D01*
X85095563Y-104660000D02*
X79340000Y-104660000D01*
X86160000Y-98904437D02*
X85095563Y-97840000D01*
X86160000Y-98904437D02*
X86160000Y-100190000D01*
X86160000Y-103595563D02*
X85095563Y-104660000D01*
X86160000Y-103595563D02*
X86160000Y-102310000D01*
X86793750Y-103491250D02*
X86793750Y-102703750D01*
X87187500Y-103097500D02*
X86400000Y-103097500D01*
%TO.C,mccap1*%
X116113000Y-81170252D02*
X116113000Y-80647748D01*
X117583000Y-81170252D02*
X117583000Y-80647748D01*
%TO.C,En1*%
D15*
X142600000Y-83750000D02*
X142600000Y-83980000D01*
X142600000Y-83750000D02*
X146600000Y-83750000D01*
X142600000Y-86650000D02*
X142600000Y-86420000D01*
X146600000Y-83750000D02*
X146600000Y-83980000D01*
X146600000Y-86420000D02*
X146600000Y-86650000D01*
X146600000Y-86650000D02*
X142600000Y-86650000D01*
%TO.C,R3*%
D13*
X110447064Y-79529000D02*
X109992936Y-79529000D01*
X110447064Y-80999000D02*
X109992936Y-80999000D01*
%TO.C,J2*%
X128355000Y-113120000D02*
X128355000Y-115880000D01*
X131005000Y-113120000D02*
X128355000Y-113120000D01*
X131005000Y-113120000D02*
X131005000Y-115880000D01*
X131005000Y-115880000D02*
X128355000Y-115880000D01*
X132275000Y-113120000D02*
X133655000Y-113120000D01*
X133655000Y-113120000D02*
X133655000Y-114500000D01*
%TO.C,U4*%
X119300000Y-72640000D02*
X119300000Y-78840000D01*
X119300000Y-72640000D02*
X137700000Y-72640000D01*
X119300000Y-97490000D02*
X119300000Y-98490000D01*
X119300000Y-98490000D02*
X120800000Y-98490000D01*
X137700000Y-72640000D02*
X137700000Y-78840000D01*
X137700000Y-98490000D02*
X136200000Y-98490000D01*
X137700000Y-98490000D02*
X137700000Y-97490000D01*
X119300000Y-79515000D02*
X118800000Y-79515000D01*
X119300000Y-79015000D01*
X119300000Y-79515000D01*
G36*
X119300000Y-79515000D02*
G01*
X118800000Y-79515000D01*
X119300000Y-79015000D01*
X119300000Y-79515000D01*
G37*
%TO.C,3v3out1*%
X99340000Y-98040000D02*
X99340000Y-99240000D01*
X99340000Y-102560000D02*
X99340000Y-101360000D01*
X102795563Y-98040000D02*
X99340000Y-98040000D01*
X102795563Y-102560000D02*
X99340000Y-102560000D01*
X103860000Y-99104437D02*
X102795563Y-98040000D01*
X103860000Y-99104437D02*
X103860000Y-99240000D01*
X103860000Y-101495563D02*
X102795563Y-102560000D01*
X103860000Y-101495563D02*
X103860000Y-101360000D01*
X104350000Y-102110000D02*
X104350000Y-101610000D01*
X104600000Y-101860000D02*
X104100000Y-101860000D01*
%TO.C,D5*%
X90200000Y-77985000D02*
X92660000Y-77985000D01*
X92660000Y-76515000D02*
X90200000Y-76515000D01*
X92660000Y-77985000D02*
X92660000Y-76515000D01*
%TO.C,J11*%
X149225000Y-106135000D02*
X149225000Y-103485000D01*
X151985000Y-103485000D02*
X149225000Y-103485000D01*
X151985000Y-106135000D02*
X149225000Y-106135000D01*
X151985000Y-106135000D02*
X151985000Y-103485000D01*
X151985000Y-107405000D02*
X151985000Y-108785000D01*
X151985000Y-108785000D02*
X150605000Y-108785000D01*
%TO.C,tr3*%
X101472936Y-106865000D02*
X101927064Y-106865000D01*
X101472936Y-108335000D02*
X101927064Y-108335000D01*
%TO.C,J6*%
X38620000Y-108520000D02*
X38620000Y-100790000D01*
X41380000Y-100790000D02*
X38620000Y-100790000D01*
X41380000Y-108520000D02*
X38620000Y-108520000D01*
X41380000Y-108520000D02*
X41380000Y-100790000D01*
X41380000Y-109790000D02*
X41380000Y-111170000D01*
X41380000Y-111170000D02*
X40000000Y-111170000D01*
%TO.C,R1*%
X96413064Y-82253000D02*
X95958936Y-82253000D01*
X96413064Y-83723000D02*
X95958936Y-83723000D01*
%TO.C,Boot1*%
D15*
X142800000Y-87350000D02*
X142800000Y-87580000D01*
X142800000Y-87350000D02*
X146800000Y-87350000D01*
X142800000Y-90250000D02*
X142800000Y-90020000D01*
X146800000Y-87350000D02*
X146800000Y-87580000D01*
X146800000Y-90020000D02*
X146800000Y-90250000D01*
X146800000Y-90250000D02*
X142800000Y-90250000D01*
%TD*%
%LPC*%
D16*
%TO.C,J12*%
X145250000Y-104725000D03*
D17*
X145250000Y-107265000D03*
%TD*%
D16*
%TO.C,J3*%
X83375000Y-114800000D03*
D17*
X80835000Y-114800000D03*
%TD*%
D18*
%TO.C,D1*%
X79300000Y-109400000D03*
X83300000Y-109400000D03*
%TD*%
D19*
%TO.C,mccap2*%
X113800000Y-82037500D03*
X113800000Y-79962500D03*
%TD*%
D16*
%TO.C,J4*%
X150500000Y-92670000D03*
D17*
X150500000Y-95210000D03*
X150500000Y-97750000D03*
X150500000Y-100290000D03*
%TD*%
D20*
%TO.C,R_En1*%
X151500000Y-85250000D03*
X149500000Y-85250000D03*
%TD*%
D21*
%TO.C,D4*%
X107442000Y-80264000D03*
X105692000Y-80264000D03*
%TD*%
D22*
%TO.C,vd_r1*%
X138610000Y-101500000D03*
D23*
X130990000Y-101500000D03*
%TD*%
D24*
%TO.C,Rails1*%
X47000000Y-77000000D03*
D25*
X52000000Y-77000000D03*
X57000000Y-77000000D03*
X62000000Y-77000000D03*
X67000000Y-77000000D03*
X72000000Y-77000000D03*
%TD*%
D26*
%TO.C,Motor_2*%
X73914000Y-85608000D03*
D23*
X71374000Y-85608000D03*
X68834000Y-85608000D03*
X66294000Y-85608000D03*
X63754000Y-85608000D03*
X61214000Y-85608000D03*
X58674000Y-85608000D03*
X56134000Y-85608000D03*
X56134000Y-98308000D03*
X58674000Y-98308000D03*
X61214000Y-98308000D03*
X63754000Y-98308000D03*
X66294000Y-98308000D03*
X68834000Y-98308000D03*
X71374000Y-98308000D03*
X73914000Y-98308000D03*
%TD*%
D16*
%TO.C,J7*%
X138920000Y-114100000D03*
D17*
X141460000Y-114100000D03*
X144000000Y-114100000D03*
X146540000Y-114100000D03*
%TD*%
D16*
%TO.C,J5*%
X40000000Y-94060000D03*
D17*
X40000000Y-91520000D03*
X40000000Y-88980000D03*
X40000000Y-86440000D03*
%TD*%
D27*
%TO.C,R2*%
X106661200Y-83362800D03*
X108661200Y-83362800D03*
%TD*%
D24*
%TO.C,J10*%
X80000000Y-76717500D03*
D25*
X85000000Y-76717500D03*
%TD*%
D19*
%TO.C,hall2*%
X117500000Y-114287500D03*
X117500000Y-112212500D03*
%TD*%
D28*
%TO.C,motorc1*%
X49022000Y-104642000D03*
X49022000Y-110242000D03*
%TD*%
D29*
%TO.C,*%
X150250000Y-113500000D03*
%TD*%
%TO.C,*%
X38100000Y-80264000D03*
%TD*%
D30*
%TO.C,U3*%
X88646000Y-92710000D03*
D31*
X91196000Y-92710000D03*
X93746000Y-92710000D03*
%TD*%
D32*
%TO.C,vd_c2*%
X134200000Y-107800000D03*
X132125000Y-107800000D03*
%TD*%
D28*
%TO.C,motorc2*%
X49500000Y-88650000D03*
X49500000Y-94250000D03*
%TD*%
D32*
%TO.C,vd_c1*%
X132821500Y-111500000D03*
X130746500Y-111500000D03*
%TD*%
D27*
%TO.C,R7*%
X137000000Y-111300000D03*
X139000000Y-111300000D03*
%TD*%
D16*
%TO.C,J9*%
X120720000Y-114400000D03*
D17*
X123260000Y-114400000D03*
X125800000Y-114400000D03*
%TD*%
D33*
%TO.C,J1*%
X101756000Y-79138000D03*
X95976000Y-79138000D03*
D34*
X102116000Y-80583000D03*
X101316000Y-80583000D03*
D35*
X100116000Y-80583000D03*
X99116000Y-80583000D03*
X98616000Y-80583000D03*
X97616000Y-80583000D03*
D34*
X96416000Y-80583000D03*
X95616000Y-80583000D03*
X95616000Y-80583000D03*
X96416000Y-80583000D03*
D35*
X97116000Y-80583000D03*
X98116000Y-80583000D03*
X99616000Y-80583000D03*
X100616000Y-80583000D03*
D34*
X101316000Y-80583000D03*
X102116000Y-80583000D03*
D36*
X103186000Y-79668000D03*
D37*
X103186000Y-75488000D03*
D36*
X94546000Y-79668000D03*
D37*
X94546000Y-75488000D03*
%TD*%
D38*
%TO.C,R_boot1*%
X149200000Y-89400000D03*
X149200000Y-87400000D03*
%TD*%
D26*
%TO.C,Motor_1*%
X73914000Y-101864000D03*
D23*
X71374000Y-101864000D03*
X68834000Y-101864000D03*
X66294000Y-101864000D03*
X63754000Y-101864000D03*
X61214000Y-101864000D03*
X58674000Y-101864000D03*
X56134000Y-101864000D03*
X56134000Y-114564000D03*
X58674000Y-114564000D03*
X61214000Y-114564000D03*
X63754000Y-114564000D03*
X66294000Y-114564000D03*
X68834000Y-114564000D03*
X71374000Y-114564000D03*
X73914000Y-114564000D03*
%TD*%
D38*
%TO.C,R4*%
X146900000Y-94700000D03*
X146900000Y-92700000D03*
%TD*%
D27*
%TO.C,R6*%
X89871000Y-79536000D03*
X91871000Y-79536000D03*
%TD*%
D19*
%TO.C,C2*%
X140614400Y-81983400D03*
X140614400Y-79908400D03*
%TD*%
D39*
%TO.C,Dpower1*%
X84000000Y-84250000D03*
X80000000Y-84250000D03*
%TD*%
D40*
%TO.C,U2*%
X103393500Y-85788000D03*
X101113500Y-85788000D03*
D41*
X101113500Y-92088000D03*
D40*
X98833500Y-85788000D03*
%TD*%
D38*
%TO.C,R5*%
X147000000Y-98700000D03*
X147000000Y-96700000D03*
%TD*%
D42*
%TO.C,5Vout1*%
X95550000Y-100500000D03*
X91950000Y-100500000D03*
%TD*%
D43*
%TO.C,Q1*%
X97680000Y-111200000D03*
D44*
X95140000Y-111200000D03*
X92600000Y-111200000D03*
%TD*%
D19*
%TO.C,C1*%
X142814400Y-81983400D03*
X142814400Y-79908400D03*
%TD*%
D28*
%TO.C,5Vin1*%
X81000000Y-89200000D03*
X81000000Y-94800000D03*
%TD*%
D16*
%TO.C,J8*%
X106860000Y-114440000D03*
D17*
X106860000Y-111900000D03*
X109400000Y-114440000D03*
X109400000Y-111900000D03*
X111940000Y-114440000D03*
X111940000Y-111900000D03*
X114480000Y-114440000D03*
X114480000Y-111900000D03*
%TD*%
D45*
%TO.C,3v3in1*%
X85550000Y-101250000D03*
X79950000Y-101250000D03*
%TD*%
D19*
%TO.C,mccap1*%
X116848000Y-81946500D03*
X116848000Y-79871500D03*
%TD*%
D46*
%TO.C,En1*%
X146675000Y-85200000D03*
X142525000Y-85200000D03*
%TD*%
D29*
%TO.C,*%
X150250000Y-80416400D03*
%TD*%
D20*
%TO.C,R3*%
X111220000Y-80264000D03*
X109220000Y-80264000D03*
%TD*%
D16*
%TO.C,J2*%
X132275000Y-114500000D03*
D17*
X129735000Y-114500000D03*
%TD*%
D47*
%TO.C,U4*%
X119750000Y-80280000D03*
X119750000Y-81550000D03*
X119750000Y-82820000D03*
X119750000Y-84090000D03*
X119750000Y-85360000D03*
X119750000Y-86630000D03*
X119750000Y-87900000D03*
X119750000Y-89170000D03*
X119750000Y-90440000D03*
X119750000Y-91710000D03*
X119750000Y-92980000D03*
X119750000Y-94250000D03*
X119750000Y-95520000D03*
X119750000Y-96790000D03*
D48*
X121515000Y-98040000D03*
X122785000Y-98040000D03*
X124055000Y-98040000D03*
X125325000Y-98040000D03*
X126595000Y-98040000D03*
X127865000Y-98040000D03*
X129135000Y-98040000D03*
X130405000Y-98040000D03*
X131675000Y-98040000D03*
X132945000Y-98040000D03*
X134215000Y-98040000D03*
X135485000Y-98040000D03*
D47*
X137250000Y-96790000D03*
X137250000Y-95520000D03*
X137250000Y-94250000D03*
X137250000Y-92980000D03*
X137250000Y-91710000D03*
X137250000Y-90440000D03*
X137250000Y-89170000D03*
X137250000Y-87900000D03*
X137250000Y-86630000D03*
X137250000Y-85360000D03*
X137250000Y-84090000D03*
X137250000Y-82820000D03*
X137250000Y-81550000D03*
X137250000Y-80280000D03*
D49*
X125600000Y-87300000D03*
X125600000Y-88700000D03*
X126300000Y-86600000D03*
X126300000Y-88000000D03*
X126300000Y-89400000D03*
X127000000Y-87300000D03*
D50*
X127000000Y-88000000D03*
D49*
X127000000Y-88700000D03*
X127700000Y-86600000D03*
X127700000Y-88000000D03*
X127700000Y-89400000D03*
X128400000Y-87300000D03*
X128400000Y-88700000D03*
%TD*%
D42*
%TO.C,3v3out1*%
X103400000Y-100300000D03*
X99800000Y-100300000D03*
%TD*%
D21*
%TO.C,D5*%
X91875000Y-77250000D03*
X90125000Y-77250000D03*
%TD*%
D29*
%TO.C,*%
X38100000Y-113538000D03*
%TD*%
D16*
%TO.C,J11*%
X150605000Y-107405000D03*
D17*
X150605000Y-104865000D03*
%TD*%
D27*
%TO.C,tr3*%
X100700000Y-107600000D03*
X102700000Y-107600000D03*
%TD*%
D16*
%TO.C,J6*%
X40000000Y-109790000D03*
D17*
X40000000Y-107250000D03*
X40000000Y-104710000D03*
X40000000Y-102170000D03*
%TD*%
D20*
%TO.C,R1*%
X97186000Y-82988000D03*
X95186000Y-82988000D03*
%TD*%
D46*
%TO.C,Boot1*%
X146875000Y-88800000D03*
X142725000Y-88800000D03*
%TD*%
%LPD*%
M02*
