%TF.GenerationSoftware,KiCad,Pcbnew,9.0.1*%
%TF.CreationDate,2026-07-11T13:11:06-07:00*%
%TF.ProjectId,V67_cycletron,5636375f-6379-4636-9c65-74726f6e2e6b,rev?*%
%TF.SameCoordinates,Original*%
%TF.FileFunction,Copper,L3,Inr*%
%TF.FilePolarity,Positive*%
%FSLAX46Y46*%
G04 Gerber Fmt 4.6, Leading zero omitted, Abs format (unit mm)*
G04 Created by KiCad (PCBNEW 9.0.1) date 2026-07-11 13:11:06*
%MOMM*%
%LPD*%
G01*
G04 APERTURE LIST*
G04 Aperture macros list*
%AMRoundRect*
0 Rectangle with rounded corners*
0 $1 Rounding radius*
0 $2 $3 $4 $5 $6 $7 $8 $9 X,Y pos of 4 corners*
0 Add a 4 corners polygon primitive as box body*
4,1,4,$2,$3,$4,$5,$6,$7,$8,$9,$2,$3,0*
0 Add four circle primitives for the rounded corners*
1,1,$1+$1,$2,$3*
1,1,$1+$1,$4,$5*
1,1,$1+$1,$6,$7*
1,1,$1+$1,$8,$9*
0 Add four rect primitives between the rounded corners*
20,1,$1+$1,$2,$3,$4,$5,0*
20,1,$1+$1,$4,$5,$6,$7,0*
20,1,$1+$1,$6,$7,$8,$9,0*
20,1,$1+$1,$8,$9,$2,$3,0*%
G04 Aperture macros list end*
%TA.AperFunction,HeatsinkPad*%
%ADD10C,0.600000*%
%TD*%
%TA.AperFunction,HeatsinkPad*%
%ADD11O,1.000000X1.600000*%
%TD*%
%TA.AperFunction,HeatsinkPad*%
%ADD12O,1.000000X2.100000*%
%TD*%
%TA.AperFunction,ComponentPad*%
%ADD13C,1.320800*%
%TD*%
%TA.AperFunction,ComponentPad*%
%ADD14R,1.000000X1.000000*%
%TD*%
%TA.AperFunction,ComponentPad*%
%ADD15C,1.000000*%
%TD*%
%TA.AperFunction,ComponentPad*%
%ADD16C,1.600000*%
%TD*%
%TA.AperFunction,ComponentPad*%
%ADD17O,1.600000X1.600000*%
%TD*%
%TA.AperFunction,ComponentPad*%
%ADD18RoundRect,0.250001X-1.149999X-1.149999X1.149999X-1.149999X1.149999X1.149999X-1.149999X1.149999X0*%
%TD*%
%TA.AperFunction,ComponentPad*%
%ADD19C,2.800000*%
%TD*%
%TA.AperFunction,ComponentPad*%
%ADD20R,1.600000X1.600000*%
%TD*%
%TA.AperFunction,ComponentPad*%
%ADD21C,1.270000*%
%TD*%
%TA.AperFunction,ViaPad*%
%ADD22C,0.600000*%
%TD*%
G04 APERTURE END LIST*
D10*
%TO.N,GND*%
%TO.C,U4*%
X128400000Y-88700000D03*
X128400000Y-87300000D03*
X127700000Y-89400000D03*
X127700000Y-88000000D03*
X127700000Y-86600000D03*
X127000000Y-88700000D03*
X127000000Y-87300000D03*
X126300000Y-89400000D03*
X126300000Y-88000000D03*
X126300000Y-86600000D03*
X125600000Y-88700000D03*
X125600000Y-87300000D03*
%TD*%
D11*
%TO.N,GND*%
%TO.C,J1*%
X94546000Y-75488000D03*
D12*
X94546000Y-79668000D03*
D11*
X103186000Y-75488000D03*
D12*
X103186000Y-79668000D03*
%TD*%
D13*
%TO.N,L_EN*%
%TO.C,HBridge1*%
X101514900Y-113372000D03*
%TO.N,R_EN*%
X103514901Y-113372000D03*
%TO.N,LPWM*%
X105514900Y-113372000D03*
%TO.N,RPWM*%
X107514901Y-113372000D03*
%TO.N,GND*%
X109514899Y-113372000D03*
%TO.N,3V3*%
X111514900Y-113372000D03*
%TD*%
D14*
%TO.N,IO40*%
%TO.C,J3*%
X142240000Y-93218000D03*
D15*
%TO.N,IO39*%
X142240000Y-94488000D03*
%TO.N,IO38*%
X142240000Y-95758000D03*
%TO.N,IO37*%
X142240000Y-97028000D03*
%TD*%
D16*
%TO.N,Therm-*%
%TO.C,vd_r1*%
X97155000Y-105410000D03*
D17*
%TO.N,GND*%
X97155000Y-97790000D03*
%TD*%
D18*
%TO.N,GND*%
%TO.C,Rails1*%
X43600000Y-76800000D03*
D19*
X48600000Y-76800000D03*
X53600000Y-76800000D03*
X58600000Y-76800000D03*
%TO.N,3V3*%
X63600000Y-76800000D03*
%TO.N,+12V*%
X68600000Y-76800000D03*
%TD*%
D20*
%TO.N,GND*%
%TO.C,Motor_2*%
X73914000Y-85608000D03*
D17*
%TO.N,Motor2_FLT*%
X71374000Y-85608000D03*
%TO.N,Motor2_A2*%
X68834000Y-85608000D03*
%TO.N,Motor2_A1*%
X66294000Y-85608000D03*
%TO.N,Motor2_B1*%
X63754000Y-85608000D03*
%TO.N,Motor2_B2*%
X61214000Y-85608000D03*
%TO.N,GND*%
X58674000Y-85608000D03*
%TO.N,+12V*%
X56134000Y-85608000D03*
%TO.N,Motor2_EN*%
X56134000Y-98308000D03*
%TO.N,Motor2_M0*%
X58674000Y-98308000D03*
%TO.N,Motor2_M1*%
X61214000Y-98308000D03*
%TO.N,Motor2_M2*%
X63754000Y-98308000D03*
%TO.N,3V3*%
X66294000Y-98308000D03*
X68834000Y-98308000D03*
%TO.N,Motor2_STEP*%
X71374000Y-98308000D03*
%TO.N,Motor2_DIR*%
X73914000Y-98308000D03*
%TD*%
D14*
%TO.N,IO1*%
%TO.C,J2*%
X146050000Y-93345000D03*
D15*
%TO.N,IO2*%
X146050000Y-94615000D03*
%TO.N,TX*%
X146050000Y-95885000D03*
%TO.N,RX*%
X146050000Y-97155000D03*
%TD*%
D20*
%TO.N,GND*%
%TO.C,Motor_1*%
X73914000Y-101864000D03*
D17*
%TO.N,Motor1_FLT*%
X71374000Y-101864000D03*
%TO.N,Motor1_A2*%
X68834000Y-101864000D03*
%TO.N,Motor1_A1*%
X66294000Y-101864000D03*
%TO.N,Motor1_B1*%
X63754000Y-101864000D03*
%TO.N,Motor1_B2*%
X61214000Y-101864000D03*
%TO.N,GND*%
X58674000Y-101864000D03*
%TO.N,+12V*%
X56134000Y-101864000D03*
%TO.N,Motor1_EN*%
X56134000Y-114564000D03*
%TO.N,Motor1_M0*%
X58674000Y-114564000D03*
%TO.N,Motor1_M1*%
X61214000Y-114564000D03*
%TO.N,Motor1_M2*%
X63754000Y-114564000D03*
%TO.N,3V3*%
X66294000Y-114564000D03*
X68834000Y-114564000D03*
%TO.N,Motor1_STEP*%
X71374000Y-114564000D03*
%TO.N,Motor1_DIR*%
X73914000Y-114564000D03*
%TD*%
D21*
%TO.N,3V3*%
%TO.C,Therm1*%
X92100400Y-113385600D03*
%TO.N,Therm-*%
X90100399Y-113385600D03*
%TD*%
%TO.N,mosfet1_o*%
%TO.C,Mos1*%
X80010000Y-114300000D03*
%TO.N,+12V*%
X82010001Y-114300000D03*
%TD*%
%TO.N,GND*%
%TO.C,HBridge2*%
X119287800Y-113397400D03*
%TO.N,+12V*%
X117287799Y-113397400D03*
%TD*%
D13*
%TO.N,FAN_En_o*%
%TO.C,Fan1*%
X137510002Y-113436400D03*
%TO.N,FAN_Tach_i*%
X139510001Y-113436400D03*
%TO.N,GND*%
X141510002Y-113436400D03*
%TO.N,3V3*%
X143510000Y-113436400D03*
%TD*%
%TO.N,Hall_i*%
%TO.C,Hall1*%
X126777999Y-113385600D03*
%TO.N,GND*%
X128778000Y-113385600D03*
%TO.N,3V3*%
X130777999Y-113385600D03*
%TD*%
%TO.N,SCL*%
%TO.C,I2C1*%
X145122000Y-107876599D03*
%TO.N,SDA*%
X145122000Y-105876600D03*
%TO.N,GND*%
X145122000Y-103876599D03*
%TO.N,3V3*%
X145122000Y-101876601D03*
%TD*%
D21*
%TO.N,Net-(Dpower1-A)*%
%TO.C,Input1*%
X82711800Y-75043399D03*
%TO.N,GND*%
X80711799Y-75043399D03*
%TD*%
D13*
%TO.N,Motor1_A2*%
%TO.C,Motor1*%
X42418000Y-113187998D03*
%TO.N,Motor1_A1*%
X42418000Y-111187999D03*
%TO.N,Motor1_B1*%
X42418000Y-109187998D03*
%TO.N,Motor1_B2*%
X42418000Y-107188000D03*
%TD*%
%TO.N,Motor2_A2*%
%TO.C,Motor2*%
X42367200Y-93472000D03*
%TO.N,Motor2_A1*%
X42367200Y-91472001D03*
%TO.N,Motor2_B1*%
X42367200Y-89472000D03*
%TO.N,Motor2_B2*%
X42367200Y-87472002D03*
%TD*%
D22*
%TO.N,GND*%
X143800000Y-80000000D03*
X95186000Y-82988000D03*
X141600000Y-80037500D03*
X146875000Y-85000000D03*
X93112500Y-104140000D03*
X116848000Y-79871500D03*
X102186000Y-82988000D03*
X113800000Y-79962500D03*
X106712000Y-96520000D03*
X94441000Y-85948000D03*
X90686000Y-76988000D03*
X102116000Y-80583000D03*
X108186000Y-87688000D03*
X50800000Y-91700000D03*
X146875000Y-88800000D03*
X50800000Y-98292000D03*
X103393500Y-85788000D03*
X79386000Y-90988000D03*
X85786000Y-107345000D03*
X119750000Y-80280000D03*
X95616000Y-80583000D03*
X79386000Y-98488000D03*
X137250000Y-80280000D03*
%TO.N,En*%
X119750000Y-82820000D03*
X138682000Y-81282000D03*
%TO.N,D-*%
X108600000Y-81574997D03*
X99052465Y-82201935D03*
%TO.N,D+*%
X108600000Y-82375000D03*
X99086000Y-83207177D03*
%TO.N,BOOT*%
X139700000Y-91440000D03*
X139446000Y-95504000D03*
%TO.N,Motor1_M0*%
X121515000Y-98040000D03*
%TO.N,Motor1_EN*%
X119750000Y-94250000D03*
%TO.N,Motor1_FLT*%
X119750000Y-92980000D03*
%TO.N,Motor1_STEP*%
X125325000Y-98040000D03*
%TO.N,Motor1_M2*%
X124055000Y-98040000D03*
%TO.N,Motor1_M1*%
X122936000Y-98044000D03*
%TO.N,Motor1_DIR*%
X126595000Y-98040000D03*
%TO.N,Motor2_EN*%
X119750000Y-85360000D03*
%TO.N,Motor2_M1*%
X119750000Y-87900000D03*
%TO.N,Motor2_DIR*%
X119750000Y-91710000D03*
%TO.N,Motor2_STEP*%
X119750000Y-90440000D03*
%TO.N,Motor2_FLT*%
X119750000Y-84090000D03*
%TO.N,Motor2_M2*%
X119750000Y-89170000D03*
%TO.N,Motor2_M0*%
X119750000Y-86630000D03*
%TO.N,SCL*%
X137250000Y-87900000D03*
X141732000Y-106172000D03*
%TO.N,SDA*%
X141732000Y-101092000D03*
X137250000Y-86630000D03*
%TO.N,FAN_Tach_i*%
X137250000Y-94250000D03*
%TO.N,FAN_En_o*%
X137250000Y-95520000D03*
%TO.N,3V3*%
X106936000Y-93988000D03*
X141732000Y-108172000D03*
X91037500Y-104140000D03*
X140200000Y-86000000D03*
X116848000Y-81946500D03*
X141732000Y-99092000D03*
X108079235Y-91394765D03*
X119750000Y-81550000D03*
X101113500Y-92088000D03*
X89132500Y-107315000D03*
X113796658Y-82040185D03*
X101092000Y-85852000D03*
%TO.N,TX*%
X137250000Y-84090000D03*
%TO.N,RX*%
X137250000Y-85360000D03*
%TO.N,IO2*%
X137250000Y-82820000D03*
%TO.N,IO1*%
X137250000Y-81550000D03*
%TD*%
%TA.AperFunction,Conductor*%
%TO.N,GND*%
G36*
X147651539Y-73037185D02*
G01*
X147697294Y-73089989D01*
X147708500Y-73141500D01*
X147708500Y-115961500D01*
X147688815Y-116028539D01*
X147636011Y-116074294D01*
X147584500Y-116085500D01*
X74196578Y-116085500D01*
X74129539Y-116065815D01*
X74083784Y-116013011D01*
X74073840Y-115943853D01*
X74102865Y-115880297D01*
X74161643Y-115842523D01*
X74177180Y-115839027D01*
X74218534Y-115832477D01*
X74413219Y-115769220D01*
X74595610Y-115676287D01*
X74688590Y-115608732D01*
X74761213Y-115555971D01*
X74761215Y-115555968D01*
X74761219Y-115555966D01*
X74905966Y-115411219D01*
X74905968Y-115411215D01*
X74905971Y-115411213D01*
X74958732Y-115338590D01*
X75026287Y-115245610D01*
X75119220Y-115063219D01*
X75182477Y-114868534D01*
X75214500Y-114666352D01*
X75214500Y-114461648D01*
X75182477Y-114259466D01*
X75182475Y-114259461D01*
X75182475Y-114259458D01*
X75177479Y-114244082D01*
X75177478Y-114244080D01*
X75166611Y-114210634D01*
X78874500Y-114210634D01*
X78874500Y-114389366D01*
X78884058Y-114449710D01*
X78902460Y-114565898D01*
X78902460Y-114565901D01*
X78957689Y-114735878D01*
X78957691Y-114735881D01*
X79038833Y-114895132D01*
X79143889Y-115039728D01*
X79270272Y-115166111D01*
X79414868Y-115271167D01*
X79574119Y-115352309D01*
X79574121Y-115352310D01*
X79732670Y-115403825D01*
X79744103Y-115407540D01*
X79920634Y-115435500D01*
X79920635Y-115435500D01*
X80099365Y-115435500D01*
X80099366Y-115435500D01*
X80275897Y-115407540D01*
X80275900Y-115407539D01*
X80275901Y-115407539D01*
X80445878Y-115352310D01*
X80445878Y-115352309D01*
X80445881Y-115352309D01*
X80605132Y-115271167D01*
X80749728Y-115166111D01*
X80876111Y-115039728D01*
X80909683Y-114993519D01*
X80965011Y-114950855D01*
X81034625Y-114944876D01*
X81096420Y-114977481D01*
X81110315Y-114993517D01*
X81143890Y-115039728D01*
X81270273Y-115166111D01*
X81414869Y-115271167D01*
X81574120Y-115352309D01*
X81574122Y-115352310D01*
X81732671Y-115403825D01*
X81744104Y-115407540D01*
X81920635Y-115435500D01*
X81920636Y-115435500D01*
X82099366Y-115435500D01*
X82099367Y-115435500D01*
X82275898Y-115407540D01*
X82275901Y-115407539D01*
X82275902Y-115407539D01*
X82445879Y-115352310D01*
X82445879Y-115352309D01*
X82445882Y-115352309D01*
X82605133Y-115271167D01*
X82749729Y-115166111D01*
X82876112Y-115039728D01*
X82981168Y-114895132D01*
X83062310Y-114735881D01*
X83107500Y-114596800D01*
X83117540Y-114565901D01*
X83117540Y-114565900D01*
X83117541Y-114565897D01*
X83145501Y-114389366D01*
X83145501Y-114210634D01*
X83117541Y-114034103D01*
X83117540Y-114034099D01*
X83117540Y-114034098D01*
X83062311Y-113864121D01*
X83062309Y-113864118D01*
X83046596Y-113833278D01*
X82981168Y-113704868D01*
X82876112Y-113560272D01*
X82749729Y-113433889D01*
X82605133Y-113328833D01*
X82541154Y-113296234D01*
X88964899Y-113296234D01*
X88964899Y-113474966D01*
X88966768Y-113486765D01*
X88992859Y-113651498D01*
X88992859Y-113651501D01*
X89048088Y-113821478D01*
X89048090Y-113821481D01*
X89129232Y-113980732D01*
X89234288Y-114125328D01*
X89360671Y-114251711D01*
X89505267Y-114356767D01*
X89664518Y-114437909D01*
X89664520Y-114437910D01*
X89737579Y-114461648D01*
X89834502Y-114493140D01*
X90011033Y-114521100D01*
X90011034Y-114521100D01*
X90189764Y-114521100D01*
X90189765Y-114521100D01*
X90366296Y-114493140D01*
X90366299Y-114493139D01*
X90366300Y-114493139D01*
X90536277Y-114437910D01*
X90536277Y-114437909D01*
X90536280Y-114437909D01*
X90695531Y-114356767D01*
X90840127Y-114251711D01*
X90966510Y-114125328D01*
X91000082Y-114079119D01*
X91055410Y-114036455D01*
X91125024Y-114030476D01*
X91186819Y-114063081D01*
X91200714Y-114079117D01*
X91234289Y-114125328D01*
X91360672Y-114251711D01*
X91505268Y-114356767D01*
X91664519Y-114437909D01*
X91664521Y-114437910D01*
X91737580Y-114461648D01*
X91834503Y-114493140D01*
X92011034Y-114521100D01*
X92011035Y-114521100D01*
X92189765Y-114521100D01*
X92189766Y-114521100D01*
X92366297Y-114493140D01*
X92366300Y-114493139D01*
X92366301Y-114493139D01*
X92536278Y-114437910D01*
X92536278Y-114437909D01*
X92536281Y-114437909D01*
X92695532Y-114356767D01*
X92840128Y-114251711D01*
X92966511Y-114125328D01*
X93071567Y-113980732D01*
X93152709Y-113821481D01*
X93175625Y-113750954D01*
X93207939Y-113651501D01*
X93207939Y-113651500D01*
X93207940Y-113651497D01*
X93235900Y-113474966D01*
X93235900Y-113296234D01*
X93233428Y-113280629D01*
X100354000Y-113280629D01*
X100354000Y-113463370D01*
X100382584Y-113643841D01*
X100382585Y-113643845D01*
X100438231Y-113815105D01*
X100439053Y-113817633D01*
X100447026Y-113833281D01*
X100522009Y-113980444D01*
X100629415Y-114128276D01*
X100758624Y-114257485D01*
X100906456Y-114364891D01*
X101069269Y-114447848D01*
X101243055Y-114504315D01*
X101310735Y-114515034D01*
X101423530Y-114532900D01*
X101423535Y-114532900D01*
X101606270Y-114532900D01*
X101706531Y-114517019D01*
X101786745Y-114504315D01*
X101960531Y-114447848D01*
X102123344Y-114364891D01*
X102271176Y-114257485D01*
X102400385Y-114128276D01*
X102414582Y-114108735D01*
X102469908Y-114066069D01*
X102539521Y-114060088D01*
X102601317Y-114092692D01*
X102615217Y-114108733D01*
X102629416Y-114128276D01*
X102758625Y-114257485D01*
X102906457Y-114364891D01*
X103069270Y-114447848D01*
X103243056Y-114504315D01*
X103310736Y-114515034D01*
X103423531Y-114532900D01*
X103423536Y-114532900D01*
X103606271Y-114532900D01*
X103706532Y-114517019D01*
X103786746Y-114504315D01*
X103960532Y-114447848D01*
X104123345Y-114364891D01*
X104271177Y-114257485D01*
X104400386Y-114128276D01*
X104414581Y-114108737D01*
X104469910Y-114066071D01*
X104539523Y-114060090D01*
X104601319Y-114092695D01*
X104615217Y-114108735D01*
X104620174Y-114115557D01*
X104629415Y-114128276D01*
X104758624Y-114257485D01*
X104906456Y-114364891D01*
X105069269Y-114447848D01*
X105243055Y-114504315D01*
X105310735Y-114515034D01*
X105423530Y-114532900D01*
X105423535Y-114532900D01*
X105606270Y-114532900D01*
X105706531Y-114517019D01*
X105786745Y-114504315D01*
X105960531Y-114447848D01*
X106123344Y-114364891D01*
X106271176Y-114257485D01*
X106400385Y-114128276D01*
X106414582Y-114108735D01*
X106469908Y-114066069D01*
X106539521Y-114060088D01*
X106601317Y-114092692D01*
X106615217Y-114108733D01*
X106629416Y-114128276D01*
X106758625Y-114257485D01*
X106906457Y-114364891D01*
X107069270Y-114447848D01*
X107243056Y-114504315D01*
X107310736Y-114515034D01*
X107423531Y-114532900D01*
X107423536Y-114532900D01*
X107606271Y-114532900D01*
X107706532Y-114517019D01*
X107786746Y-114504315D01*
X107960532Y-114447848D01*
X108123345Y-114364891D01*
X108271177Y-114257485D01*
X108400386Y-114128276D01*
X108459637Y-114046723D01*
X108463228Y-114042601D01*
X108488232Y-114026622D01*
X108511743Y-114008493D01*
X108518059Y-114007561D01*
X108522103Y-114004978D01*
X108528350Y-114004994D01*
X109108499Y-113424845D01*
X109108499Y-113425504D01*
X109136194Y-113528865D01*
X109189698Y-113621536D01*
X109265363Y-113697201D01*
X109358034Y-113750705D01*
X109461395Y-113778400D01*
X109462052Y-113778400D01*
X108888918Y-114351531D01*
X108906716Y-114364462D01*
X109069455Y-114447383D01*
X109243170Y-114503827D01*
X109423569Y-114532400D01*
X109606229Y-114532400D01*
X109786627Y-114503827D01*
X109960342Y-114447383D01*
X110123077Y-114364465D01*
X110140878Y-114351531D01*
X109567747Y-113778400D01*
X109568403Y-113778400D01*
X109671764Y-113750705D01*
X109764435Y-113697201D01*
X109840100Y-113621536D01*
X109893604Y-113528865D01*
X109921299Y-113425504D01*
X109921299Y-113424847D01*
X110505796Y-114009344D01*
X110531716Y-114014789D01*
X110573384Y-114051156D01*
X110629415Y-114128276D01*
X110758624Y-114257485D01*
X110906456Y-114364891D01*
X111069269Y-114447848D01*
X111243055Y-114504315D01*
X111310735Y-114515034D01*
X111423530Y-114532900D01*
X111423535Y-114532900D01*
X111606270Y-114532900D01*
X111706531Y-114517019D01*
X111786745Y-114504315D01*
X111960531Y-114447848D01*
X112123344Y-114364891D01*
X112271176Y-114257485D01*
X112400385Y-114128276D01*
X112507791Y-113980444D01*
X112590748Y-113817631D01*
X112647215Y-113643845D01*
X112665426Y-113528865D01*
X112675800Y-113463370D01*
X112675800Y-113308034D01*
X116152299Y-113308034D01*
X116152299Y-113486766D01*
X116158967Y-113528865D01*
X116180259Y-113663298D01*
X116180259Y-113663301D01*
X116235488Y-113833278D01*
X116235490Y-113833281D01*
X116316632Y-113992532D01*
X116421688Y-114137128D01*
X116548071Y-114263511D01*
X116692667Y-114368567D01*
X116851918Y-114449709D01*
X116851920Y-114449710D01*
X116985582Y-114493139D01*
X117021902Y-114504940D01*
X117198433Y-114532900D01*
X117198434Y-114532900D01*
X117377164Y-114532900D01*
X117377165Y-114532900D01*
X117553696Y-114504940D01*
X117553699Y-114504939D01*
X117553700Y-114504939D01*
X117723677Y-114449710D01*
X117723677Y-114449709D01*
X117723680Y-114449709D01*
X117882931Y-114368567D01*
X118027527Y-114263511D01*
X118153910Y-114137128D01*
X118216220Y-114051365D01*
X118219698Y-114047352D01*
X118244798Y-114031219D01*
X118268426Y-114013000D01*
X118274549Y-114012097D01*
X118278474Y-114009575D01*
X118291661Y-114009574D01*
X118323144Y-114004933D01*
X118326452Y-114005193D01*
X118906800Y-113424845D01*
X118906800Y-113447560D01*
X118932764Y-113544461D01*
X118982924Y-113631340D01*
X119053860Y-113702276D01*
X119140739Y-113752436D01*
X119237640Y-113778400D01*
X119260354Y-113778400D01*
X118680005Y-114358747D01*
X118680005Y-114358748D01*
X118692929Y-114368138D01*
X118852106Y-114449244D01*
X119022019Y-114504453D01*
X119198469Y-114532400D01*
X119377131Y-114532400D01*
X119553580Y-114504453D01*
X119723493Y-114449244D01*
X119882667Y-114368139D01*
X119882672Y-114368137D01*
X119895594Y-114358747D01*
X119315247Y-113778400D01*
X119337960Y-113778400D01*
X119434861Y-113752436D01*
X119521740Y-113702276D01*
X119592676Y-113631340D01*
X119642836Y-113544461D01*
X119668800Y-113447560D01*
X119668800Y-113424846D01*
X120249148Y-114005194D01*
X120258537Y-113992272D01*
X120258539Y-113992267D01*
X120339644Y-113833093D01*
X120394853Y-113663180D01*
X120422800Y-113486731D01*
X120422800Y-113308067D01*
X120422799Y-113308066D01*
X120420607Y-113294229D01*
X125617099Y-113294229D01*
X125617099Y-113476970D01*
X125645316Y-113655123D01*
X125645684Y-113657445D01*
X125702151Y-113831231D01*
X125785108Y-113994044D01*
X125892514Y-114141876D01*
X126021723Y-114271085D01*
X126169555Y-114378491D01*
X126332368Y-114461448D01*
X126506154Y-114517915D01*
X126573834Y-114528634D01*
X126686629Y-114546500D01*
X126686634Y-114546500D01*
X126869369Y-114546500D01*
X126969630Y-114530619D01*
X127049844Y-114517915D01*
X127223630Y-114461448D01*
X127386443Y-114378491D01*
X127534275Y-114271085D01*
X127663484Y-114141876D01*
X127722739Y-114060317D01*
X127726326Y-114056200D01*
X127751332Y-114040219D01*
X127774840Y-114022092D01*
X127781156Y-114021160D01*
X127785200Y-114018577D01*
X127791453Y-114018593D01*
X128371600Y-113438446D01*
X128371600Y-113439104D01*
X128399295Y-113542465D01*
X128452799Y-113635136D01*
X128528464Y-113710801D01*
X128621135Y-113764305D01*
X128724496Y-113792000D01*
X128725153Y-113792000D01*
X128152019Y-114365131D01*
X128169817Y-114378062D01*
X128332556Y-114460983D01*
X128506271Y-114517427D01*
X128686670Y-114546000D01*
X128869330Y-114546000D01*
X129049728Y-114517427D01*
X129223443Y-114460983D01*
X129386178Y-114378065D01*
X129403978Y-114365131D01*
X128830848Y-113792000D01*
X128831504Y-113792000D01*
X128934865Y-113764305D01*
X129027536Y-113710801D01*
X129103201Y-113635136D01*
X129156705Y-113542465D01*
X129184400Y-113439104D01*
X129184400Y-113438447D01*
X129768897Y-114022944D01*
X129794815Y-114028389D01*
X129836483Y-114064757D01*
X129892514Y-114141876D01*
X130021723Y-114271085D01*
X130169555Y-114378491D01*
X130332368Y-114461448D01*
X130506154Y-114517915D01*
X130573834Y-114528634D01*
X130686629Y-114546500D01*
X130686634Y-114546500D01*
X130869369Y-114546500D01*
X130969630Y-114530619D01*
X131049844Y-114517915D01*
X131223630Y-114461448D01*
X131386443Y-114378491D01*
X131534275Y-114271085D01*
X131663484Y-114141876D01*
X131770890Y-113994044D01*
X131853847Y-113831231D01*
X131910314Y-113657445D01*
X131930679Y-113528865D01*
X131938899Y-113476970D01*
X131938899Y-113345029D01*
X136349102Y-113345029D01*
X136349102Y-113527770D01*
X136377152Y-113704867D01*
X136377687Y-113708245D01*
X136412408Y-113815105D01*
X136434155Y-113882033D01*
X136496908Y-114005193D01*
X136517111Y-114044844D01*
X136624517Y-114192676D01*
X136753726Y-114321885D01*
X136901558Y-114429291D01*
X137064371Y-114512248D01*
X137238157Y-114568715D01*
X137305837Y-114579434D01*
X137418632Y-114597300D01*
X137418637Y-114597300D01*
X137601372Y-114597300D01*
X137701633Y-114581419D01*
X137781847Y-114568715D01*
X137955633Y-114512248D01*
X138118446Y-114429291D01*
X138266278Y-114321885D01*
X138395487Y-114192676D01*
X138409682Y-114173137D01*
X138465011Y-114130471D01*
X138534624Y-114124490D01*
X138596420Y-114157095D01*
X138610318Y-114173135D01*
X138615952Y-114180889D01*
X138624516Y-114192676D01*
X138753725Y-114321885D01*
X138901557Y-114429291D01*
X139064370Y-114512248D01*
X139238156Y-114568715D01*
X139305836Y-114579434D01*
X139418631Y-114597300D01*
X139418636Y-114597300D01*
X139601371Y-114597300D01*
X139701632Y-114581419D01*
X139781846Y-114568715D01*
X139955632Y-114512248D01*
X140118445Y-114429291D01*
X140266277Y-114321885D01*
X140395486Y-114192676D01*
X140454741Y-114111117D01*
X140458328Y-114107000D01*
X140483334Y-114091019D01*
X140506842Y-114072892D01*
X140513158Y-114071960D01*
X140517202Y-114069377D01*
X140523455Y-114069393D01*
X141103602Y-113489246D01*
X141103602Y-113489904D01*
X141131297Y-113593265D01*
X141184801Y-113685936D01*
X141260466Y-113761601D01*
X141353137Y-113815105D01*
X141456498Y-113842800D01*
X141457155Y-113842800D01*
X140884021Y-114415931D01*
X140901819Y-114428862D01*
X141064558Y-114511783D01*
X141238273Y-114568227D01*
X141418672Y-114596800D01*
X141601332Y-114596800D01*
X141781730Y-114568227D01*
X141955445Y-114511783D01*
X142118180Y-114428865D01*
X142135981Y-114415931D01*
X141562850Y-113842800D01*
X141563506Y-113842800D01*
X141666867Y-113815105D01*
X141759538Y-113761601D01*
X141835203Y-113685936D01*
X141888707Y-113593265D01*
X141916402Y-113489904D01*
X141916402Y-113489247D01*
X142500900Y-114073745D01*
X142526815Y-114079189D01*
X142568484Y-114115556D01*
X142624515Y-114192676D01*
X142753724Y-114321885D01*
X142901556Y-114429291D01*
X143064369Y-114512248D01*
X143238155Y-114568715D01*
X143305835Y-114579434D01*
X143418630Y-114597300D01*
X143418635Y-114597300D01*
X143601370Y-114597300D01*
X143701631Y-114581419D01*
X143781845Y-114568715D01*
X143955631Y-114512248D01*
X144118444Y-114429291D01*
X144266276Y-114321885D01*
X144395485Y-114192676D01*
X144502891Y-114044844D01*
X144585848Y-113882031D01*
X144642315Y-113708245D01*
X144663889Y-113572034D01*
X144670900Y-113527770D01*
X144670900Y-113345029D01*
X144650326Y-113215135D01*
X144642315Y-113164555D01*
X144585848Y-112990769D01*
X144502891Y-112827956D01*
X144395485Y-112680124D01*
X144266276Y-112550915D01*
X144118444Y-112443509D01*
X143955631Y-112360552D01*
X143781845Y-112304085D01*
X143781843Y-112304084D01*
X143781841Y-112304084D01*
X143601370Y-112275500D01*
X143601365Y-112275500D01*
X143418635Y-112275500D01*
X143418630Y-112275500D01*
X143238158Y-112304084D01*
X143064366Y-112360553D01*
X142901555Y-112443509D01*
X142753721Y-112550917D01*
X142624517Y-112680121D01*
X142624517Y-112680122D01*
X142624515Y-112680124D01*
X142584898Y-112734652D01*
X142568487Y-112757240D01*
X142513157Y-112799905D01*
X142497780Y-112802172D01*
X141916402Y-113383551D01*
X141916402Y-113382896D01*
X141888707Y-113279535D01*
X141835203Y-113186864D01*
X141759538Y-113111199D01*
X141666867Y-113057695D01*
X141563506Y-113030000D01*
X141562849Y-113030000D01*
X142135980Y-112456867D01*
X142118180Y-112443935D01*
X141955445Y-112361016D01*
X141781730Y-112304572D01*
X141601332Y-112276000D01*
X141418672Y-112276000D01*
X141238273Y-112304572D01*
X141064558Y-112361016D01*
X140901815Y-112443939D01*
X140901810Y-112443943D01*
X140884022Y-112456865D01*
X140884022Y-112456868D01*
X141457156Y-113030000D01*
X141456498Y-113030000D01*
X141353137Y-113057695D01*
X141260466Y-113111199D01*
X141184801Y-113186864D01*
X141131297Y-113279535D01*
X141103602Y-113382896D01*
X141103602Y-113383552D01*
X140519102Y-112799052D01*
X140493183Y-112793608D01*
X140488442Y-112789825D01*
X140485061Y-112788842D01*
X140473167Y-112777638D01*
X140458328Y-112765798D01*
X140454732Y-112761670D01*
X140395486Y-112680124D01*
X140266277Y-112550915D01*
X140118445Y-112443509D01*
X139955632Y-112360552D01*
X139781846Y-112304085D01*
X139781844Y-112304084D01*
X139781842Y-112304084D01*
X139601371Y-112275500D01*
X139601366Y-112275500D01*
X139418636Y-112275500D01*
X139418631Y-112275500D01*
X139238159Y-112304084D01*
X139064367Y-112360553D01*
X138901556Y-112443509D01*
X138753722Y-112550917D01*
X138624518Y-112680121D01*
X138624513Y-112680127D01*
X138610317Y-112699666D01*
X138554986Y-112742330D01*
X138485372Y-112748308D01*
X138423578Y-112715700D01*
X138409685Y-112699666D01*
X138395487Y-112680124D01*
X138266278Y-112550915D01*
X138118446Y-112443509D01*
X137955633Y-112360552D01*
X137781847Y-112304085D01*
X137781845Y-112304084D01*
X137781843Y-112304084D01*
X137601372Y-112275500D01*
X137601367Y-112275500D01*
X137418637Y-112275500D01*
X137418632Y-112275500D01*
X137238160Y-112304084D01*
X137064368Y-112360553D01*
X136901557Y-112443509D01*
X136753723Y-112550917D01*
X136624519Y-112680121D01*
X136517111Y-112827955D01*
X136434155Y-112990766D01*
X136377686Y-113164558D01*
X136349102Y-113345029D01*
X131938899Y-113345029D01*
X131938899Y-113294229D01*
X131913125Y-113131503D01*
X131910314Y-113113755D01*
X131853847Y-112939969D01*
X131770890Y-112777156D01*
X131663484Y-112629324D01*
X131534275Y-112500115D01*
X131386443Y-112392709D01*
X131223630Y-112309752D01*
X131049844Y-112253285D01*
X131049842Y-112253284D01*
X131049840Y-112253284D01*
X130869369Y-112224700D01*
X130869364Y-112224700D01*
X130686634Y-112224700D01*
X130686629Y-112224700D01*
X130506157Y-112253284D01*
X130332365Y-112309753D01*
X130169554Y-112392709D01*
X130021720Y-112500117D01*
X129892515Y-112629322D01*
X129836485Y-112706441D01*
X129781154Y-112749106D01*
X129765778Y-112751372D01*
X129184400Y-113332751D01*
X129184400Y-113332096D01*
X129156705Y-113228735D01*
X129103201Y-113136064D01*
X129027536Y-113060399D01*
X128934865Y-113006895D01*
X128831504Y-112979200D01*
X128830847Y-112979200D01*
X129403978Y-112406067D01*
X129386178Y-112393135D01*
X129223443Y-112310216D01*
X129049728Y-112253772D01*
X128869330Y-112225200D01*
X128686670Y-112225200D01*
X128506271Y-112253772D01*
X128332556Y-112310216D01*
X128169813Y-112393139D01*
X128169808Y-112393143D01*
X128152020Y-112406065D01*
X128152020Y-112406068D01*
X128725154Y-112979200D01*
X128724496Y-112979200D01*
X128621135Y-113006895D01*
X128528464Y-113060399D01*
X128452799Y-113136064D01*
X128399295Y-113228735D01*
X128371600Y-113332096D01*
X128371600Y-113332752D01*
X127787100Y-112748252D01*
X127761181Y-112742808D01*
X127756440Y-112739025D01*
X127753059Y-112738042D01*
X127741165Y-112726838D01*
X127726326Y-112714998D01*
X127722730Y-112710870D01*
X127663484Y-112629324D01*
X127534275Y-112500115D01*
X127386443Y-112392709D01*
X127223630Y-112309752D01*
X127049844Y-112253285D01*
X127049842Y-112253284D01*
X127049840Y-112253284D01*
X126869369Y-112224700D01*
X126869364Y-112224700D01*
X126686634Y-112224700D01*
X126686629Y-112224700D01*
X126506157Y-112253284D01*
X126332365Y-112309753D01*
X126169554Y-112392709D01*
X126021720Y-112500117D01*
X125892516Y-112629321D01*
X125785108Y-112777155D01*
X125702152Y-112939966D01*
X125645683Y-113113758D01*
X125617099Y-113294229D01*
X120420607Y-113294229D01*
X120394853Y-113131619D01*
X120339644Y-112961706D01*
X120258538Y-112802529D01*
X120249147Y-112789605D01*
X119668800Y-113369952D01*
X119668800Y-113347240D01*
X119642836Y-113250339D01*
X119592676Y-113163460D01*
X119521740Y-113092524D01*
X119434861Y-113042364D01*
X119337960Y-113016400D01*
X119315247Y-113016400D01*
X119895594Y-112436052D01*
X119895593Y-112436051D01*
X119882669Y-112426660D01*
X119723493Y-112345555D01*
X119553580Y-112290346D01*
X119377131Y-112262400D01*
X119198469Y-112262400D01*
X119022019Y-112290346D01*
X118852106Y-112345555D01*
X118692927Y-112426662D01*
X118680005Y-112436051D01*
X118680004Y-112436051D01*
X119260354Y-113016400D01*
X119237640Y-113016400D01*
X119140739Y-113042364D01*
X119053860Y-113092524D01*
X118982924Y-113163460D01*
X118932764Y-113250339D01*
X118906800Y-113347240D01*
X118906800Y-113369953D01*
X118326451Y-112789604D01*
X118323143Y-112789865D01*
X118318226Y-112788832D01*
X118313408Y-112790247D01*
X118284374Y-112781720D01*
X118254766Y-112775501D01*
X118249877Y-112771590D01*
X118246369Y-112770560D01*
X118234074Y-112758947D01*
X118219697Y-112747446D01*
X118216217Y-112743429D01*
X118153910Y-112657672D01*
X118027527Y-112531289D01*
X117882931Y-112426233D01*
X117723680Y-112345091D01*
X117723677Y-112345089D01*
X117553698Y-112289860D01*
X117436008Y-112271220D01*
X117377165Y-112261900D01*
X117198433Y-112261900D01*
X117139589Y-112271220D01*
X117021900Y-112289860D01*
X117021897Y-112289860D01*
X116851920Y-112345089D01*
X116851917Y-112345091D01*
X116692666Y-112426233D01*
X116548069Y-112531290D01*
X116421689Y-112657670D01*
X116316632Y-112802267D01*
X116235490Y-112961518D01*
X116235488Y-112961521D01*
X116180259Y-113131498D01*
X116180259Y-113131501D01*
X116154485Y-113294235D01*
X116152299Y-113308034D01*
X112675800Y-113308034D01*
X112675800Y-113280629D01*
X112652180Y-113131503D01*
X112647215Y-113100155D01*
X112590748Y-112926369D01*
X112507791Y-112763556D01*
X112400385Y-112615724D01*
X112271176Y-112486515D01*
X112123344Y-112379109D01*
X111976100Y-112304085D01*
X111960533Y-112296153D01*
X111960532Y-112296152D01*
X111960531Y-112296152D01*
X111786745Y-112239685D01*
X111786743Y-112239684D01*
X111786741Y-112239684D01*
X111606270Y-112211100D01*
X111606265Y-112211100D01*
X111423535Y-112211100D01*
X111423530Y-112211100D01*
X111243058Y-112239684D01*
X111069266Y-112296153D01*
X110906455Y-112379109D01*
X110758621Y-112486517D01*
X110629416Y-112615722D01*
X110573386Y-112692841D01*
X110518055Y-112735506D01*
X110502676Y-112737773D01*
X109921299Y-113319151D01*
X109921299Y-113318496D01*
X109893604Y-113215135D01*
X109840100Y-113122464D01*
X109764435Y-113046799D01*
X109671764Y-112993295D01*
X109568403Y-112965600D01*
X109567746Y-112965600D01*
X110140877Y-112392467D01*
X110123077Y-112379535D01*
X109960342Y-112296616D01*
X109786627Y-112240172D01*
X109606229Y-112211600D01*
X109423569Y-112211600D01*
X109243170Y-112240172D01*
X109069455Y-112296616D01*
X108906712Y-112379539D01*
X108906707Y-112379543D01*
X108888919Y-112392465D01*
X108888919Y-112392468D01*
X109462053Y-112965600D01*
X109461395Y-112965600D01*
X109358034Y-112993295D01*
X109265363Y-113046799D01*
X109189698Y-113122464D01*
X109136194Y-113215135D01*
X109108499Y-113318496D01*
X109108499Y-113319152D01*
X108523999Y-112734652D01*
X108498083Y-112729208D01*
X108493340Y-112725424D01*
X108489960Y-112724441D01*
X108478067Y-112713237D01*
X108463227Y-112701397D01*
X108459633Y-112697271D01*
X108400386Y-112615724D01*
X108271177Y-112486515D01*
X108123345Y-112379109D01*
X107976101Y-112304085D01*
X107960534Y-112296153D01*
X107960533Y-112296152D01*
X107960532Y-112296152D01*
X107786746Y-112239685D01*
X107786744Y-112239684D01*
X107786742Y-112239684D01*
X107606271Y-112211100D01*
X107606266Y-112211100D01*
X107423536Y-112211100D01*
X107423531Y-112211100D01*
X107243059Y-112239684D01*
X107069267Y-112296153D01*
X106906456Y-112379109D01*
X106758622Y-112486517D01*
X106629415Y-112615724D01*
X106615217Y-112635267D01*
X106559886Y-112677932D01*
X106490273Y-112683910D01*
X106428478Y-112651303D01*
X106414583Y-112635266D01*
X106400385Y-112615724D01*
X106271176Y-112486515D01*
X106123344Y-112379109D01*
X105976100Y-112304085D01*
X105960533Y-112296153D01*
X105960532Y-112296152D01*
X105960531Y-112296152D01*
X105786745Y-112239685D01*
X105786743Y-112239684D01*
X105786741Y-112239684D01*
X105606270Y-112211100D01*
X105606265Y-112211100D01*
X105423535Y-112211100D01*
X105423530Y-112211100D01*
X105243058Y-112239684D01*
X105069266Y-112296153D01*
X104906455Y-112379109D01*
X104758621Y-112486517D01*
X104629417Y-112615721D01*
X104629412Y-112615727D01*
X104615216Y-112635266D01*
X104559885Y-112677930D01*
X104490271Y-112683908D01*
X104428477Y-112651300D01*
X104414584Y-112635266D01*
X104400386Y-112615724D01*
X104271177Y-112486515D01*
X104123345Y-112379109D01*
X103976101Y-112304085D01*
X103960534Y-112296153D01*
X103960533Y-112296152D01*
X103960532Y-112296152D01*
X103786746Y-112239685D01*
X103786744Y-112239684D01*
X103786742Y-112239684D01*
X103606271Y-112211100D01*
X103606266Y-112211100D01*
X103423536Y-112211100D01*
X103423531Y-112211100D01*
X103243059Y-112239684D01*
X103069267Y-112296153D01*
X102906456Y-112379109D01*
X102758622Y-112486517D01*
X102629415Y-112615724D01*
X102615217Y-112635267D01*
X102559886Y-112677932D01*
X102490273Y-112683910D01*
X102428478Y-112651303D01*
X102414583Y-112635266D01*
X102400385Y-112615724D01*
X102271176Y-112486515D01*
X102123344Y-112379109D01*
X101976100Y-112304085D01*
X101960533Y-112296153D01*
X101960532Y-112296152D01*
X101960531Y-112296152D01*
X101786745Y-112239685D01*
X101786743Y-112239684D01*
X101786741Y-112239684D01*
X101606270Y-112211100D01*
X101606265Y-112211100D01*
X101423535Y-112211100D01*
X101423530Y-112211100D01*
X101243058Y-112239684D01*
X101069266Y-112296153D01*
X100906455Y-112379109D01*
X100758621Y-112486517D01*
X100629417Y-112615721D01*
X100522009Y-112763555D01*
X100439053Y-112926366D01*
X100382584Y-113100158D01*
X100354000Y-113280629D01*
X93233428Y-113280629D01*
X93207940Y-113119703D01*
X93207939Y-113119699D01*
X93207939Y-113119698D01*
X93152710Y-112949721D01*
X93152708Y-112949718D01*
X93147740Y-112939966D01*
X93071567Y-112790468D01*
X92966511Y-112645872D01*
X92840128Y-112519489D01*
X92695532Y-112414433D01*
X92536281Y-112333291D01*
X92536278Y-112333289D01*
X92366299Y-112278060D01*
X92248609Y-112259420D01*
X92189766Y-112250100D01*
X92011034Y-112250100D01*
X91952190Y-112259420D01*
X91834501Y-112278060D01*
X91834498Y-112278060D01*
X91664521Y-112333289D01*
X91664518Y-112333291D01*
X91505267Y-112414433D01*
X91360670Y-112519490D01*
X91234288Y-112645872D01*
X91200716Y-112692080D01*
X91145385Y-112734745D01*
X91075772Y-112740723D01*
X91013977Y-112708116D01*
X91000082Y-112692080D01*
X90966510Y-112645872D01*
X90840127Y-112519489D01*
X90695531Y-112414433D01*
X90536280Y-112333291D01*
X90536277Y-112333289D01*
X90366298Y-112278060D01*
X90248608Y-112259420D01*
X90189765Y-112250100D01*
X90011033Y-112250100D01*
X89952189Y-112259420D01*
X89834500Y-112278060D01*
X89834497Y-112278060D01*
X89664520Y-112333289D01*
X89664517Y-112333291D01*
X89505266Y-112414433D01*
X89360669Y-112519490D01*
X89234289Y-112645870D01*
X89129232Y-112790467D01*
X89048090Y-112949718D01*
X89048088Y-112949721D01*
X88992859Y-113119698D01*
X88992859Y-113119701D01*
X88972168Y-113250339D01*
X88964899Y-113296234D01*
X82541154Y-113296234D01*
X82445882Y-113247691D01*
X82445879Y-113247689D01*
X82275900Y-113192460D01*
X82158210Y-113173820D01*
X82099367Y-113164500D01*
X81920635Y-113164500D01*
X81861791Y-113173820D01*
X81744102Y-113192460D01*
X81744099Y-113192460D01*
X81574122Y-113247689D01*
X81574119Y-113247691D01*
X81414868Y-113328833D01*
X81270271Y-113433890D01*
X81143889Y-113560272D01*
X81110317Y-113606480D01*
X81054986Y-113649145D01*
X80985373Y-113655123D01*
X80923578Y-113622516D01*
X80909683Y-113606480D01*
X80876111Y-113560272D01*
X80749728Y-113433889D01*
X80605132Y-113328833D01*
X80445881Y-113247691D01*
X80445878Y-113247689D01*
X80275899Y-113192460D01*
X80158209Y-113173820D01*
X80099366Y-113164500D01*
X79920634Y-113164500D01*
X79861790Y-113173820D01*
X79744101Y-113192460D01*
X79744098Y-113192460D01*
X79574121Y-113247689D01*
X79574118Y-113247691D01*
X79414867Y-113328833D01*
X79270270Y-113433890D01*
X79143890Y-113560270D01*
X79038833Y-113704867D01*
X78957691Y-113864118D01*
X78957689Y-113864121D01*
X78902460Y-114034098D01*
X78902460Y-114034101D01*
X78890639Y-114108735D01*
X78874500Y-114210634D01*
X75166611Y-114210634D01*
X75160776Y-114192677D01*
X75119220Y-114064781D01*
X75026287Y-113882390D01*
X75013014Y-113864121D01*
X74905971Y-113716786D01*
X74761213Y-113572028D01*
X74595613Y-113451715D01*
X74595612Y-113451714D01*
X74595610Y-113451713D01*
X74538653Y-113422691D01*
X74413223Y-113358781D01*
X74218534Y-113295522D01*
X74043995Y-113267878D01*
X74016352Y-113263500D01*
X73811648Y-113263500D01*
X73787329Y-113267351D01*
X73609465Y-113295522D01*
X73414776Y-113358781D01*
X73232386Y-113451715D01*
X73066786Y-113572028D01*
X72922028Y-113716786D01*
X72801715Y-113882386D01*
X72754485Y-113975080D01*
X72706510Y-114025876D01*
X72638689Y-114042671D01*
X72572554Y-114020134D01*
X72533515Y-113975080D01*
X72529138Y-113966490D01*
X72486287Y-113882390D01*
X72473014Y-113864121D01*
X72365971Y-113716786D01*
X72221213Y-113572028D01*
X72055613Y-113451715D01*
X72055612Y-113451714D01*
X72055610Y-113451713D01*
X71998653Y-113422691D01*
X71873223Y-113358781D01*
X71678534Y-113295522D01*
X71503995Y-113267878D01*
X71476352Y-113263500D01*
X71271648Y-113263500D01*
X71247329Y-113267351D01*
X71069465Y-113295522D01*
X70874776Y-113358781D01*
X70692386Y-113451715D01*
X70526786Y-113572028D01*
X70382028Y-113716786D01*
X70261715Y-113882386D01*
X70214485Y-113975080D01*
X70166510Y-114025876D01*
X70098689Y-114042671D01*
X70032554Y-114020134D01*
X69993515Y-113975080D01*
X69989138Y-113966490D01*
X69946287Y-113882390D01*
X69933014Y-113864121D01*
X69825971Y-113716786D01*
X69681213Y-113572028D01*
X69515613Y-113451715D01*
X69515612Y-113451714D01*
X69515610Y-113451713D01*
X69458653Y-113422691D01*
X69333223Y-113358781D01*
X69138534Y-113295522D01*
X68963995Y-113267878D01*
X68936352Y-113263500D01*
X68731648Y-113263500D01*
X68707329Y-113267351D01*
X68529465Y-113295522D01*
X68334776Y-113358781D01*
X68152386Y-113451715D01*
X67986786Y-113572028D01*
X67842028Y-113716786D01*
X67721715Y-113882386D01*
X67674485Y-113975080D01*
X67626510Y-114025876D01*
X67558689Y-114042671D01*
X67492554Y-114020134D01*
X67453515Y-113975080D01*
X67449138Y-113966490D01*
X67406287Y-113882390D01*
X67393014Y-113864121D01*
X67285971Y-113716786D01*
X67141213Y-113572028D01*
X66975613Y-113451715D01*
X66975612Y-113451714D01*
X66975610Y-113451713D01*
X66918653Y-113422691D01*
X66793223Y-113358781D01*
X66598534Y-113295522D01*
X66423995Y-113267878D01*
X66396352Y-113263500D01*
X66191648Y-113263500D01*
X66167329Y-113267351D01*
X65989465Y-113295522D01*
X65794776Y-113358781D01*
X65612386Y-113451715D01*
X65446786Y-113572028D01*
X65302028Y-113716786D01*
X65181715Y-113882386D01*
X65134485Y-113975080D01*
X65086510Y-114025876D01*
X65018689Y-114042671D01*
X64952554Y-114020134D01*
X64913515Y-113975080D01*
X64909138Y-113966490D01*
X64866287Y-113882390D01*
X64853014Y-113864121D01*
X64745971Y-113716786D01*
X64601213Y-113572028D01*
X64435613Y-113451715D01*
X64435612Y-113451714D01*
X64435610Y-113451713D01*
X64378653Y-113422691D01*
X64253223Y-113358781D01*
X64058534Y-113295522D01*
X63883995Y-113267878D01*
X63856352Y-113263500D01*
X63651648Y-113263500D01*
X63627329Y-113267351D01*
X63449465Y-113295522D01*
X63254776Y-113358781D01*
X63072386Y-113451715D01*
X62906786Y-113572028D01*
X62762028Y-113716786D01*
X62641715Y-113882386D01*
X62594485Y-113975080D01*
X62546510Y-114025876D01*
X62478689Y-114042671D01*
X62412554Y-114020134D01*
X62373515Y-113975080D01*
X62369138Y-113966490D01*
X62326287Y-113882390D01*
X62313014Y-113864121D01*
X62205971Y-113716786D01*
X62061213Y-113572028D01*
X61895613Y-113451715D01*
X61895612Y-113451714D01*
X61895610Y-113451713D01*
X61838653Y-113422691D01*
X61713223Y-113358781D01*
X61518534Y-113295522D01*
X61343995Y-113267878D01*
X61316352Y-113263500D01*
X61111648Y-113263500D01*
X61087329Y-113267351D01*
X60909465Y-113295522D01*
X60714776Y-113358781D01*
X60532386Y-113451715D01*
X60366786Y-113572028D01*
X60222028Y-113716786D01*
X60101715Y-113882386D01*
X60054485Y-113975080D01*
X60006510Y-114025876D01*
X59938689Y-114042671D01*
X59872554Y-114020134D01*
X59833515Y-113975080D01*
X59829138Y-113966490D01*
X59786287Y-113882390D01*
X59773014Y-113864121D01*
X59665971Y-113716786D01*
X59521213Y-113572028D01*
X59355613Y-113451715D01*
X59355612Y-113451714D01*
X59355610Y-113451713D01*
X59298653Y-113422691D01*
X59173223Y-113358781D01*
X58978534Y-113295522D01*
X58803995Y-113267878D01*
X58776352Y-113263500D01*
X58571648Y-113263500D01*
X58547329Y-113267351D01*
X58369465Y-113295522D01*
X58174776Y-113358781D01*
X57992386Y-113451715D01*
X57826786Y-113572028D01*
X57682028Y-113716786D01*
X57561715Y-113882386D01*
X57514485Y-113975080D01*
X57466510Y-114025876D01*
X57398689Y-114042671D01*
X57332554Y-114020134D01*
X57293515Y-113975080D01*
X57289138Y-113966490D01*
X57246287Y-113882390D01*
X57233014Y-113864121D01*
X57125971Y-113716786D01*
X56981213Y-113572028D01*
X56815613Y-113451715D01*
X56815612Y-113451714D01*
X56815610Y-113451713D01*
X56758653Y-113422691D01*
X56633223Y-113358781D01*
X56438534Y-113295522D01*
X56263995Y-113267878D01*
X56236352Y-113263500D01*
X56031648Y-113263500D01*
X56007329Y-113267351D01*
X55829465Y-113295522D01*
X55634776Y-113358781D01*
X55452386Y-113451715D01*
X55286786Y-113572028D01*
X55142028Y-113716786D01*
X55021715Y-113882386D01*
X54928781Y-114064776D01*
X54865522Y-114259465D01*
X54833500Y-114461648D01*
X54833500Y-114666351D01*
X54865522Y-114868534D01*
X54928781Y-115063223D01*
X55021715Y-115245613D01*
X55142028Y-115411213D01*
X55286786Y-115555971D01*
X55441749Y-115668556D01*
X55452390Y-115676287D01*
X55568607Y-115735503D01*
X55634776Y-115769218D01*
X55634778Y-115769218D01*
X55634781Y-115769220D01*
X55739137Y-115803127D01*
X55829465Y-115832477D01*
X55870820Y-115839027D01*
X55933955Y-115868956D01*
X55970886Y-115928268D01*
X55969888Y-115998130D01*
X55931278Y-116056363D01*
X55867315Y-116084477D01*
X55851422Y-116085500D01*
X41010500Y-116085500D01*
X40943461Y-116065815D01*
X40897706Y-116013011D01*
X40886500Y-115961500D01*
X40886500Y-107096629D01*
X41257100Y-107096629D01*
X41257100Y-107279370D01*
X41281111Y-107430968D01*
X41285685Y-107459845D01*
X41342152Y-107633631D01*
X41425109Y-107796444D01*
X41532515Y-107944276D01*
X41661724Y-108073485D01*
X41681262Y-108087680D01*
X41681265Y-108087682D01*
X41723929Y-108143013D01*
X41729907Y-108212627D01*
X41697299Y-108274421D01*
X41681265Y-108288316D01*
X41661720Y-108302516D01*
X41532517Y-108431719D01*
X41425109Y-108579553D01*
X41342153Y-108742364D01*
X41285684Y-108916156D01*
X41257100Y-109096627D01*
X41257100Y-109279368D01*
X41285684Y-109459839D01*
X41285685Y-109459843D01*
X41342152Y-109633629D01*
X41425109Y-109796442D01*
X41532515Y-109944274D01*
X41661724Y-110073483D01*
X41681265Y-110087680D01*
X41723931Y-110143009D01*
X41729911Y-110212622D01*
X41697305Y-110274417D01*
X41681267Y-110288315D01*
X41661724Y-110302513D01*
X41532517Y-110431720D01*
X41425109Y-110579554D01*
X41342153Y-110742365D01*
X41285684Y-110916157D01*
X41257100Y-111096628D01*
X41257100Y-111279369D01*
X41285684Y-111459840D01*
X41285685Y-111459844D01*
X41342152Y-111633630D01*
X41425109Y-111796443D01*
X41532515Y-111944275D01*
X41661724Y-112073484D01*
X41681265Y-112087681D01*
X41723929Y-112143010D01*
X41729908Y-112212623D01*
X41697302Y-112274418D01*
X41681266Y-112288314D01*
X41661727Y-112302510D01*
X41661721Y-112302515D01*
X41532517Y-112431719D01*
X41425109Y-112579553D01*
X41342153Y-112742364D01*
X41285684Y-112916156D01*
X41257100Y-113096627D01*
X41257100Y-113279368D01*
X41285684Y-113459839D01*
X41285685Y-113459843D01*
X41342152Y-113633629D01*
X41425109Y-113796442D01*
X41532515Y-113944274D01*
X41661724Y-114073483D01*
X41809556Y-114180889D01*
X41972369Y-114263846D01*
X42146155Y-114320313D01*
X42213835Y-114331032D01*
X42326630Y-114348898D01*
X42326635Y-114348898D01*
X42509370Y-114348898D01*
X42609631Y-114333017D01*
X42689845Y-114320313D01*
X42863631Y-114263846D01*
X43026444Y-114180889D01*
X43174276Y-114073483D01*
X43303485Y-113944274D01*
X43410891Y-113796442D01*
X43493848Y-113633629D01*
X43550315Y-113459843D01*
X43566322Y-113358780D01*
X43578900Y-113279368D01*
X43578900Y-113096627D01*
X43559843Y-112976313D01*
X43550315Y-112916153D01*
X43493848Y-112742367D01*
X43410891Y-112579554D01*
X43303485Y-112431722D01*
X43174276Y-112302513D01*
X43172032Y-112300883D01*
X43154735Y-112288315D01*
X43112069Y-112232985D01*
X43106091Y-112163372D01*
X43138697Y-112101577D01*
X43154738Y-112087679D01*
X43174276Y-112073484D01*
X43303485Y-111944275D01*
X43410891Y-111796443D01*
X43493848Y-111633630D01*
X43550315Y-111459844D01*
X43563019Y-111379630D01*
X43578900Y-111279369D01*
X43578900Y-111096628D01*
X43550315Y-110916157D01*
X43550315Y-110916154D01*
X43493848Y-110742368D01*
X43410891Y-110579555D01*
X43303485Y-110431723D01*
X43174276Y-110302514D01*
X43154733Y-110288315D01*
X43112068Y-110232987D01*
X43106089Y-110163373D01*
X43138694Y-110101578D01*
X43154730Y-110087683D01*
X43174276Y-110073483D01*
X43303485Y-109944274D01*
X43410891Y-109796442D01*
X43493848Y-109633629D01*
X43550315Y-109459843D01*
X43563019Y-109379629D01*
X43578900Y-109279368D01*
X43578900Y-109096627D01*
X43554367Y-108941737D01*
X43550315Y-108916153D01*
X43493848Y-108742367D01*
X43410891Y-108579554D01*
X43303485Y-108431722D01*
X43174276Y-108302513D01*
X43154737Y-108288317D01*
X43112071Y-108232989D01*
X43106090Y-108163376D01*
X43138695Y-108101580D01*
X43154738Y-108087680D01*
X43174276Y-108073485D01*
X43303485Y-107944276D01*
X43410891Y-107796444D01*
X43493848Y-107633631D01*
X43550315Y-107459845D01*
X43564307Y-107371500D01*
X43578900Y-107279370D01*
X43578900Y-107236153D01*
X88332000Y-107236153D01*
X88332000Y-107393846D01*
X88362761Y-107548489D01*
X88362764Y-107548501D01*
X88423102Y-107694172D01*
X88423109Y-107694185D01*
X88510710Y-107825288D01*
X88510713Y-107825292D01*
X88622207Y-107936786D01*
X88622211Y-107936789D01*
X88753314Y-108024390D01*
X88753327Y-108024397D01*
X88898998Y-108084735D01*
X88899003Y-108084737D01*
X89053653Y-108115499D01*
X89053656Y-108115500D01*
X89053658Y-108115500D01*
X89211344Y-108115500D01*
X89211345Y-108115499D01*
X89323687Y-108093153D01*
X140931500Y-108093153D01*
X140931500Y-108250846D01*
X140962261Y-108405489D01*
X140962264Y-108405501D01*
X141022602Y-108551172D01*
X141022609Y-108551185D01*
X141110210Y-108682288D01*
X141110213Y-108682292D01*
X141221707Y-108793786D01*
X141221711Y-108793789D01*
X141352814Y-108881390D01*
X141352827Y-108881397D01*
X141498498Y-108941735D01*
X141498503Y-108941737D01*
X141653153Y-108972499D01*
X141653156Y-108972500D01*
X141653158Y-108972500D01*
X141810844Y-108972500D01*
X141810845Y-108972499D01*
X141965497Y-108941737D01*
X142111179Y-108881394D01*
X142242289Y-108793789D01*
X142353789Y-108682289D01*
X142441394Y-108551179D01*
X142501737Y-108405497D01*
X142532500Y-108250842D01*
X142532500Y-108093158D01*
X142532500Y-108093155D01*
X142532499Y-108093153D01*
X142507597Y-107967964D01*
X142501737Y-107938503D01*
X142454843Y-107825289D01*
X142441397Y-107792827D01*
X142441390Y-107792814D01*
X142353789Y-107661711D01*
X142353786Y-107661707D01*
X142242292Y-107550213D01*
X142242288Y-107550210D01*
X142111185Y-107462609D01*
X142111172Y-107462602D01*
X141965501Y-107402264D01*
X141965489Y-107402261D01*
X141810845Y-107371500D01*
X141810842Y-107371500D01*
X141653158Y-107371500D01*
X141653155Y-107371500D01*
X141498510Y-107402261D01*
X141498498Y-107402264D01*
X141352827Y-107462602D01*
X141352814Y-107462609D01*
X141221711Y-107550210D01*
X141221707Y-107550213D01*
X141110213Y-107661707D01*
X141110210Y-107661711D01*
X141022609Y-107792814D01*
X141022602Y-107792827D01*
X140962264Y-107938498D01*
X140962261Y-107938510D01*
X140931500Y-108093153D01*
X89323687Y-108093153D01*
X89365997Y-108084737D01*
X89511679Y-108024394D01*
X89596133Y-107967964D01*
X89642789Y-107936789D01*
X89754286Y-107825292D01*
X89754289Y-107825289D01*
X89841894Y-107694179D01*
X89902237Y-107548497D01*
X89933000Y-107393842D01*
X89933000Y-107236158D01*
X89933000Y-107236155D01*
X89932999Y-107236153D01*
X89905247Y-107096635D01*
X89902237Y-107081503D01*
X89857087Y-106972500D01*
X89841897Y-106935827D01*
X89841890Y-106935814D01*
X89754289Y-106804711D01*
X89754286Y-106804707D01*
X89642792Y-106693213D01*
X89642788Y-106693210D01*
X89511685Y-106605609D01*
X89511672Y-106605602D01*
X89366001Y-106545264D01*
X89365989Y-106545261D01*
X89211345Y-106514500D01*
X89211342Y-106514500D01*
X89053658Y-106514500D01*
X89053655Y-106514500D01*
X88899010Y-106545261D01*
X88898998Y-106545264D01*
X88753327Y-106605602D01*
X88753314Y-106605609D01*
X88622211Y-106693210D01*
X88622207Y-106693213D01*
X88510713Y-106804707D01*
X88510710Y-106804711D01*
X88423109Y-106935814D01*
X88423102Y-106935827D01*
X88362764Y-107081498D01*
X88362761Y-107081510D01*
X88332000Y-107236153D01*
X43578900Y-107236153D01*
X43578900Y-107096629D01*
X43554367Y-106941738D01*
X43550315Y-106916155D01*
X43493848Y-106742369D01*
X43410891Y-106579556D01*
X43303485Y-106431724D01*
X43174276Y-106302515D01*
X43026444Y-106195109D01*
X42934860Y-106148445D01*
X42863633Y-106112153D01*
X42863632Y-106112152D01*
X42863631Y-106112152D01*
X42689845Y-106055685D01*
X42689843Y-106055684D01*
X42689841Y-106055684D01*
X42509370Y-106027100D01*
X42509365Y-106027100D01*
X42326635Y-106027100D01*
X42326630Y-106027100D01*
X42146158Y-106055684D01*
X41972366Y-106112153D01*
X41809555Y-106195109D01*
X41661721Y-106302517D01*
X41532517Y-106431721D01*
X41425109Y-106579555D01*
X41342153Y-106742366D01*
X41285684Y-106916158D01*
X41257100Y-107096629D01*
X40886500Y-107096629D01*
X40886500Y-105307648D01*
X95854500Y-105307648D01*
X95854500Y-105512351D01*
X95886522Y-105714534D01*
X95949781Y-105909223D01*
X96042715Y-106091613D01*
X96163028Y-106257213D01*
X96307786Y-106401971D01*
X96462672Y-106514500D01*
X96473390Y-106522287D01*
X96585785Y-106579555D01*
X96655776Y-106615218D01*
X96655778Y-106615218D01*
X96655781Y-106615220D01*
X96710121Y-106632876D01*
X96850465Y-106678477D01*
X96943485Y-106693210D01*
X97052648Y-106710500D01*
X97052649Y-106710500D01*
X97257351Y-106710500D01*
X97257352Y-106710500D01*
X97459534Y-106678477D01*
X97654219Y-106615220D01*
X97836610Y-106522287D01*
X97929590Y-106454732D01*
X98002213Y-106401971D01*
X98002215Y-106401968D01*
X98002219Y-106401966D01*
X98146966Y-106257219D01*
X98146968Y-106257215D01*
X98146971Y-106257213D01*
X98225997Y-106148441D01*
X98266166Y-106093153D01*
X140931500Y-106093153D01*
X140931500Y-106250846D01*
X140962261Y-106405489D01*
X140962264Y-106405501D01*
X141022602Y-106551172D01*
X141022609Y-106551185D01*
X141110210Y-106682288D01*
X141110213Y-106682292D01*
X141221707Y-106793786D01*
X141221711Y-106793789D01*
X141352814Y-106881390D01*
X141352827Y-106881397D01*
X141484220Y-106935821D01*
X141498503Y-106941737D01*
X141653153Y-106972499D01*
X141653156Y-106972500D01*
X141653158Y-106972500D01*
X141810844Y-106972500D01*
X141810845Y-106972499D01*
X141965497Y-106941737D01*
X142078166Y-106895067D01*
X142111172Y-106881397D01*
X142111172Y-106881396D01*
X142111179Y-106881394D01*
X142242289Y-106793789D01*
X142353789Y-106682289D01*
X142441394Y-106551179D01*
X142443845Y-106545263D01*
X142468788Y-106485044D01*
X142501737Y-106405497D01*
X142532500Y-106250842D01*
X142532500Y-106093158D01*
X142532500Y-106093155D01*
X142532499Y-106093153D01*
X142501738Y-105938510D01*
X142501737Y-105938503D01*
X142441394Y-105792821D01*
X142441390Y-105792814D01*
X142353789Y-105661711D01*
X142353786Y-105661707D01*
X142242292Y-105550213D01*
X142242288Y-105550210D01*
X142111185Y-105462609D01*
X142111172Y-105462602D01*
X141965501Y-105402264D01*
X141965489Y-105402261D01*
X141810845Y-105371500D01*
X141810842Y-105371500D01*
X141653158Y-105371500D01*
X141653155Y-105371500D01*
X141498510Y-105402261D01*
X141498498Y-105402264D01*
X141352827Y-105462602D01*
X141352814Y-105462609D01*
X141221711Y-105550210D01*
X141221707Y-105550213D01*
X141110213Y-105661707D01*
X141110210Y-105661711D01*
X141022609Y-105792814D01*
X141022602Y-105792827D01*
X140962264Y-105938498D01*
X140962261Y-105938510D01*
X140931500Y-106093153D01*
X98266166Y-106093153D01*
X98267287Y-106091610D01*
X98360220Y-105909219D01*
X98423477Y-105714534D01*
X98455500Y-105512352D01*
X98455500Y-105307648D01*
X98423477Y-105105466D01*
X98360220Y-104910781D01*
X98360218Y-104910778D01*
X98360218Y-104910776D01*
X98304157Y-104800752D01*
X98267287Y-104728390D01*
X98258067Y-104715700D01*
X98146971Y-104562786D01*
X98002213Y-104418028D01*
X97836613Y-104297715D01*
X97836612Y-104297714D01*
X97836610Y-104297713D01*
X97753378Y-104255304D01*
X97654223Y-104204781D01*
X97459534Y-104141522D01*
X97284995Y-104113878D01*
X97257352Y-104109500D01*
X97052648Y-104109500D01*
X97028329Y-104113351D01*
X96850465Y-104141522D01*
X96655776Y-104204781D01*
X96473386Y-104297715D01*
X96307786Y-104418028D01*
X96163028Y-104562786D01*
X96042715Y-104728386D01*
X95949781Y-104910776D01*
X95886522Y-105105465D01*
X95854500Y-105307648D01*
X40886500Y-105307648D01*
X40886500Y-104061153D01*
X90237000Y-104061153D01*
X90237000Y-104218846D01*
X90267761Y-104373489D01*
X90267764Y-104373501D01*
X90328102Y-104519172D01*
X90328109Y-104519185D01*
X90415710Y-104650288D01*
X90415713Y-104650292D01*
X90527207Y-104761786D01*
X90527211Y-104761789D01*
X90658314Y-104849390D01*
X90658327Y-104849397D01*
X90803998Y-104909735D01*
X90804003Y-104909737D01*
X90958653Y-104940499D01*
X90958656Y-104940500D01*
X90958658Y-104940500D01*
X91116344Y-104940500D01*
X91116345Y-104940499D01*
X91270997Y-104909737D01*
X91416679Y-104849394D01*
X91547789Y-104761789D01*
X91659289Y-104650289D01*
X91746894Y-104519179D01*
X91807237Y-104373497D01*
X91838000Y-104218842D01*
X91838000Y-104061158D01*
X91838000Y-104061155D01*
X91837999Y-104061153D01*
X91807238Y-103906510D01*
X91807237Y-103906503D01*
X91807235Y-103906498D01*
X91774660Y-103827854D01*
X91746897Y-103760827D01*
X91746890Y-103760814D01*
X91659289Y-103629711D01*
X91659286Y-103629707D01*
X91547792Y-103518213D01*
X91547788Y-103518210D01*
X91416685Y-103430609D01*
X91416672Y-103430602D01*
X91271001Y-103370264D01*
X91270989Y-103370261D01*
X91116345Y-103339500D01*
X91116342Y-103339500D01*
X90958658Y-103339500D01*
X90958655Y-103339500D01*
X90804010Y-103370261D01*
X90803998Y-103370264D01*
X90658327Y-103430602D01*
X90658314Y-103430609D01*
X90527211Y-103518210D01*
X90527207Y-103518213D01*
X90415713Y-103629707D01*
X90415710Y-103629711D01*
X90328109Y-103760814D01*
X90328102Y-103760827D01*
X90267764Y-103906498D01*
X90267761Y-103906510D01*
X90237000Y-104061153D01*
X40886500Y-104061153D01*
X40886500Y-101761648D01*
X54833500Y-101761648D01*
X54833500Y-101966352D01*
X54837878Y-101993995D01*
X54865522Y-102168534D01*
X54928781Y-102363223D01*
X55021715Y-102545613D01*
X55142028Y-102711213D01*
X55286786Y-102855971D01*
X55441749Y-102968556D01*
X55452390Y-102976287D01*
X55540517Y-103021190D01*
X55634776Y-103069218D01*
X55634778Y-103069218D01*
X55634781Y-103069220D01*
X55739137Y-103103127D01*
X55829465Y-103132477D01*
X55930557Y-103148488D01*
X56031648Y-103164500D01*
X56031649Y-103164500D01*
X56236351Y-103164500D01*
X56236352Y-103164500D01*
X56438534Y-103132477D01*
X56633219Y-103069220D01*
X56815610Y-102976287D01*
X56957164Y-102873443D01*
X56981213Y-102855971D01*
X56981215Y-102855968D01*
X56981219Y-102855966D01*
X57125966Y-102711219D01*
X57125968Y-102711215D01*
X57125971Y-102711213D01*
X57246284Y-102545614D01*
X57246286Y-102545611D01*
X57246287Y-102545610D01*
X57293795Y-102452369D01*
X57341770Y-102401574D01*
X57409591Y-102384779D01*
X57475725Y-102407316D01*
X57514765Y-102452370D01*
X57562140Y-102545349D01*
X57682417Y-102710894D01*
X57682417Y-102710895D01*
X57827104Y-102855582D01*
X57992650Y-102975859D01*
X58174968Y-103068754D01*
X58369578Y-103131988D01*
X58424000Y-103140607D01*
X58424000Y-102179686D01*
X58428394Y-102184080D01*
X58519606Y-102236741D01*
X58621339Y-102264000D01*
X58726661Y-102264000D01*
X58828394Y-102236741D01*
X58919606Y-102184080D01*
X58924000Y-102179686D01*
X58924000Y-103140606D01*
X58978421Y-103131988D01*
X59173031Y-103068754D01*
X59355349Y-102975859D01*
X59520894Y-102855582D01*
X59520895Y-102855582D01*
X59665582Y-102710895D01*
X59665582Y-102710894D01*
X59785861Y-102545347D01*
X59833234Y-102452371D01*
X59881208Y-102401575D01*
X59949028Y-102384779D01*
X60015164Y-102407316D01*
X60054203Y-102452369D01*
X60101713Y-102545611D01*
X60222028Y-102711213D01*
X60366786Y-102855971D01*
X60521749Y-102968556D01*
X60532390Y-102976287D01*
X60620517Y-103021190D01*
X60714776Y-103069218D01*
X60714778Y-103069218D01*
X60714781Y-103069220D01*
X60819137Y-103103127D01*
X60909465Y-103132477D01*
X61010557Y-103148488D01*
X61111648Y-103164500D01*
X61111649Y-103164500D01*
X61316351Y-103164500D01*
X61316352Y-103164500D01*
X61518534Y-103132477D01*
X61713219Y-103069220D01*
X61895610Y-102976287D01*
X62037164Y-102873443D01*
X62061213Y-102855971D01*
X62061215Y-102855968D01*
X62061219Y-102855966D01*
X62205966Y-102711219D01*
X62205968Y-102711215D01*
X62205971Y-102711213D01*
X62326284Y-102545614D01*
X62326286Y-102545611D01*
X62326287Y-102545610D01*
X62373516Y-102452917D01*
X62421489Y-102402123D01*
X62489310Y-102385328D01*
X62555445Y-102407865D01*
X62594485Y-102452919D01*
X62641715Y-102545614D01*
X62762028Y-102711213D01*
X62906786Y-102855971D01*
X63061749Y-102968556D01*
X63072390Y-102976287D01*
X63160517Y-103021190D01*
X63254776Y-103069218D01*
X63254778Y-103069218D01*
X63254781Y-103069220D01*
X63359137Y-103103127D01*
X63449465Y-103132477D01*
X63550557Y-103148488D01*
X63651648Y-103164500D01*
X63651649Y-103164500D01*
X63856351Y-103164500D01*
X63856352Y-103164500D01*
X64058534Y-103132477D01*
X64253219Y-103069220D01*
X64435610Y-102976287D01*
X64577164Y-102873443D01*
X64601213Y-102855971D01*
X64601215Y-102855968D01*
X64601219Y-102855966D01*
X64745966Y-102711219D01*
X64745968Y-102711215D01*
X64745971Y-102711213D01*
X64866284Y-102545614D01*
X64866286Y-102545611D01*
X64866287Y-102545610D01*
X64913516Y-102452917D01*
X64961489Y-102402123D01*
X65029310Y-102385328D01*
X65095445Y-102407865D01*
X65134485Y-102452919D01*
X65181715Y-102545614D01*
X65302028Y-102711213D01*
X65446786Y-102855971D01*
X65601749Y-102968556D01*
X65612390Y-102976287D01*
X65700517Y-103021190D01*
X65794776Y-103069218D01*
X65794778Y-103069218D01*
X65794781Y-103069220D01*
X65899137Y-103103127D01*
X65989465Y-103132477D01*
X66090557Y-103148488D01*
X66191648Y-103164500D01*
X66191649Y-103164500D01*
X66396351Y-103164500D01*
X66396352Y-103164500D01*
X66598534Y-103132477D01*
X66793219Y-103069220D01*
X66975610Y-102976287D01*
X67117164Y-102873443D01*
X67141213Y-102855971D01*
X67141215Y-102855968D01*
X67141219Y-102855966D01*
X67285966Y-102711219D01*
X67285968Y-102711215D01*
X67285971Y-102711213D01*
X67406284Y-102545614D01*
X67406286Y-102545611D01*
X67406287Y-102545610D01*
X67453516Y-102452917D01*
X67501489Y-102402123D01*
X67569310Y-102385328D01*
X67635445Y-102407865D01*
X67674485Y-102452919D01*
X67721715Y-102545614D01*
X67842028Y-102711213D01*
X67986786Y-102855971D01*
X68141749Y-102968556D01*
X68152390Y-102976287D01*
X68240517Y-103021190D01*
X68334776Y-103069218D01*
X68334778Y-103069218D01*
X68334781Y-103069220D01*
X68439137Y-103103127D01*
X68529465Y-103132477D01*
X68630557Y-103148488D01*
X68731648Y-103164500D01*
X68731649Y-103164500D01*
X68936351Y-103164500D01*
X68936352Y-103164500D01*
X69138534Y-103132477D01*
X69333219Y-103069220D01*
X69515610Y-102976287D01*
X69657164Y-102873443D01*
X69681213Y-102855971D01*
X69681215Y-102855968D01*
X69681219Y-102855966D01*
X69825966Y-102711219D01*
X69825968Y-102711215D01*
X69825971Y-102711213D01*
X69946284Y-102545614D01*
X69946286Y-102545611D01*
X69946287Y-102545610D01*
X69993516Y-102452917D01*
X70041489Y-102402123D01*
X70109310Y-102385328D01*
X70175445Y-102407865D01*
X70214485Y-102452919D01*
X70261715Y-102545614D01*
X70382028Y-102711213D01*
X70526786Y-102855971D01*
X70681749Y-102968556D01*
X70692390Y-102976287D01*
X70780517Y-103021190D01*
X70874776Y-103069218D01*
X70874778Y-103069218D01*
X70874781Y-103069220D01*
X70979137Y-103103127D01*
X71069465Y-103132477D01*
X71170557Y-103148488D01*
X71271648Y-103164500D01*
X71271649Y-103164500D01*
X71476351Y-103164500D01*
X71476352Y-103164500D01*
X71678534Y-103132477D01*
X71873219Y-103069220D01*
X72055610Y-102976287D01*
X72197164Y-102873443D01*
X72221213Y-102855971D01*
X72221215Y-102855968D01*
X72221219Y-102855966D01*
X72365966Y-102711219D01*
X72392770Y-102674325D01*
X72448099Y-102631660D01*
X72517712Y-102625679D01*
X72579508Y-102658284D01*
X72613866Y-102719122D01*
X72616378Y-102733953D01*
X72620401Y-102771373D01*
X72620403Y-102771379D01*
X72670645Y-102906086D01*
X72670649Y-102906093D01*
X72756809Y-103021187D01*
X72756812Y-103021190D01*
X72871906Y-103107350D01*
X72871913Y-103107354D01*
X73006620Y-103157596D01*
X73006627Y-103157598D01*
X73066155Y-103163999D01*
X73066172Y-103164000D01*
X73664000Y-103164000D01*
X73664000Y-102179686D01*
X73668394Y-102184080D01*
X73759606Y-102236741D01*
X73861339Y-102264000D01*
X73966661Y-102264000D01*
X74068394Y-102236741D01*
X74159606Y-102184080D01*
X74164000Y-102179686D01*
X74164000Y-103164000D01*
X74761828Y-103164000D01*
X74761844Y-103163999D01*
X74821372Y-103157598D01*
X74821379Y-103157596D01*
X74956086Y-103107354D01*
X74956093Y-103107350D01*
X75071187Y-103021190D01*
X75071190Y-103021187D01*
X75157350Y-102906093D01*
X75157354Y-102906086D01*
X75207596Y-102771379D01*
X75207598Y-102771372D01*
X75213999Y-102711844D01*
X75214000Y-102711827D01*
X75214000Y-102114000D01*
X74229686Y-102114000D01*
X74234080Y-102109606D01*
X74286741Y-102018394D01*
X74314000Y-101916661D01*
X74314000Y-101811339D01*
X74286741Y-101709606D01*
X74234080Y-101618394D01*
X74229686Y-101614000D01*
X75214000Y-101614000D01*
X75214000Y-101016164D01*
X75213999Y-101016163D01*
X75213675Y-101013153D01*
X140931500Y-101013153D01*
X140931500Y-101170846D01*
X140962261Y-101325489D01*
X140962264Y-101325501D01*
X141022602Y-101471172D01*
X141022609Y-101471185D01*
X141110210Y-101602288D01*
X141110213Y-101602292D01*
X141221707Y-101713786D01*
X141221711Y-101713789D01*
X141352814Y-101801390D01*
X141352827Y-101801397D01*
X141498498Y-101861735D01*
X141498503Y-101861737D01*
X141653153Y-101892499D01*
X141653156Y-101892500D01*
X141653158Y-101892500D01*
X141810844Y-101892500D01*
X141810845Y-101892499D01*
X141965497Y-101861737D01*
X142078166Y-101815067D01*
X142111172Y-101801397D01*
X142111172Y-101801396D01*
X142111179Y-101801394D01*
X142135370Y-101785230D01*
X143961100Y-101785230D01*
X143961100Y-101967971D01*
X143983533Y-102109606D01*
X143989685Y-102148446D01*
X144046152Y-102322232D01*
X144129109Y-102485045D01*
X144236515Y-102632877D01*
X144365724Y-102762086D01*
X144378506Y-102771373D01*
X144442839Y-102818113D01*
X144485505Y-102873443D01*
X144487771Y-102888818D01*
X145069154Y-103470199D01*
X145068496Y-103470199D01*
X144965135Y-103497894D01*
X144872464Y-103551398D01*
X144796799Y-103627063D01*
X144743295Y-103719734D01*
X144715600Y-103823095D01*
X144715600Y-103823751D01*
X144142468Y-103250619D01*
X144142465Y-103250619D01*
X144129543Y-103268407D01*
X144129539Y-103268412D01*
X144046616Y-103431155D01*
X143990172Y-103604870D01*
X143961600Y-103785268D01*
X143961600Y-103967929D01*
X143990172Y-104148327D01*
X144046616Y-104322042D01*
X144129535Y-104484777D01*
X144142467Y-104502577D01*
X144715600Y-103929444D01*
X144715600Y-103930103D01*
X144743295Y-104033464D01*
X144796799Y-104126135D01*
X144872464Y-104201800D01*
X144965135Y-104255304D01*
X145068496Y-104282999D01*
X145069153Y-104282999D01*
X144484653Y-104867496D01*
X144479208Y-104893417D01*
X144442841Y-104935086D01*
X144365722Y-104991116D01*
X144236517Y-105120321D01*
X144129109Y-105268155D01*
X144046153Y-105430966D01*
X143989684Y-105604758D01*
X143961100Y-105785229D01*
X143961100Y-105967970D01*
X143983937Y-106112153D01*
X143989685Y-106148445D01*
X144046152Y-106322231D01*
X144129109Y-106485044D01*
X144236515Y-106632876D01*
X144365724Y-106762085D01*
X144385265Y-106776282D01*
X144427929Y-106831611D01*
X144433908Y-106901224D01*
X144401302Y-106963019D01*
X144385266Y-106976915D01*
X144365727Y-106991111D01*
X144365721Y-106991116D01*
X144236517Y-107120320D01*
X144129109Y-107268154D01*
X144046153Y-107430965D01*
X143989684Y-107604757D01*
X143961100Y-107785228D01*
X143961100Y-107967969D01*
X143989684Y-108148440D01*
X143989685Y-108148444D01*
X144039746Y-108302516D01*
X144046153Y-108322232D01*
X144101939Y-108431719D01*
X144129109Y-108485043D01*
X144236515Y-108632875D01*
X144365724Y-108762084D01*
X144513556Y-108869490D01*
X144676369Y-108952447D01*
X144850155Y-109008914D01*
X144917835Y-109019633D01*
X145030630Y-109037499D01*
X145030635Y-109037499D01*
X145213370Y-109037499D01*
X145313631Y-109021618D01*
X145393845Y-109008914D01*
X145567631Y-108952447D01*
X145730444Y-108869490D01*
X145878276Y-108762084D01*
X146007485Y-108632875D01*
X146114891Y-108485043D01*
X146197848Y-108322230D01*
X146254315Y-108148444D01*
X146273962Y-108024397D01*
X146282900Y-107967969D01*
X146282900Y-107785228D01*
X146258889Y-107633633D01*
X146254315Y-107604754D01*
X146197848Y-107430968D01*
X146114891Y-107268155D01*
X146007485Y-107120323D01*
X145878276Y-106991114D01*
X145876032Y-106989484D01*
X145858735Y-106976916D01*
X145816069Y-106921586D01*
X145810091Y-106851973D01*
X145842697Y-106790178D01*
X145858738Y-106776280D01*
X145878276Y-106762085D01*
X146007485Y-106632876D01*
X146114891Y-106485044D01*
X146197848Y-106322231D01*
X146254315Y-106148445D01*
X146273534Y-106027100D01*
X146282900Y-105967970D01*
X146282900Y-105785229D01*
X146254315Y-105604758D01*
X146254315Y-105604755D01*
X146197848Y-105430969D01*
X146114891Y-105268156D01*
X146007485Y-105120324D01*
X145878276Y-104991115D01*
X145801156Y-104935084D01*
X145758492Y-104879755D01*
X145756224Y-104864376D01*
X145174848Y-104282999D01*
X145175504Y-104282999D01*
X145278865Y-104255304D01*
X145371536Y-104201800D01*
X145447201Y-104126135D01*
X145500705Y-104033464D01*
X145528400Y-103930103D01*
X145528400Y-103929446D01*
X146101531Y-104502577D01*
X146114465Y-104484777D01*
X146197383Y-104322042D01*
X146253827Y-104148327D01*
X146282400Y-103967929D01*
X146282400Y-103785268D01*
X146253827Y-103604870D01*
X146197383Y-103431155D01*
X146114462Y-103268416D01*
X146101531Y-103250619D01*
X146101531Y-103250618D01*
X145528400Y-103823750D01*
X145528400Y-103823095D01*
X145500705Y-103719734D01*
X145447201Y-103627063D01*
X145371536Y-103551398D01*
X145278865Y-103497894D01*
X145175504Y-103470199D01*
X145174847Y-103470199D01*
X145759346Y-102885698D01*
X145764790Y-102859784D01*
X145801155Y-102818117D01*
X145878276Y-102762086D01*
X146007485Y-102632877D01*
X146114891Y-102485045D01*
X146197848Y-102322232D01*
X146254315Y-102148446D01*
X146274913Y-102018394D01*
X146282900Y-101967971D01*
X146282900Y-101785230D01*
X146254315Y-101604759D01*
X146254315Y-101604756D01*
X146197848Y-101430970D01*
X146114891Y-101268157D01*
X146007485Y-101120325D01*
X145878276Y-100991116D01*
X145730444Y-100883710D01*
X145567631Y-100800753D01*
X145393845Y-100744286D01*
X145393843Y-100744285D01*
X145393841Y-100744285D01*
X145213370Y-100715701D01*
X145213365Y-100715701D01*
X145030635Y-100715701D01*
X145030630Y-100715701D01*
X144850158Y-100744285D01*
X144676366Y-100800754D01*
X144513555Y-100883710D01*
X144365721Y-100991118D01*
X144236517Y-101120322D01*
X144129109Y-101268156D01*
X144046153Y-101430967D01*
X143989684Y-101604759D01*
X143961100Y-101785230D01*
X142135370Y-101785230D01*
X142242289Y-101713789D01*
X142246472Y-101709606D01*
X142263396Y-101692683D01*
X142353786Y-101602292D01*
X142353789Y-101602289D01*
X142441394Y-101471179D01*
X142501737Y-101325497D01*
X142532500Y-101170842D01*
X142532500Y-101013158D01*
X142532500Y-101013155D01*
X142532499Y-101013153D01*
X142528116Y-100991118D01*
X142501737Y-100858503D01*
X142477817Y-100800754D01*
X142441397Y-100712827D01*
X142441390Y-100712814D01*
X142353789Y-100581711D01*
X142353786Y-100581707D01*
X142242292Y-100470213D01*
X142242288Y-100470210D01*
X142111185Y-100382609D01*
X142111172Y-100382602D01*
X141965501Y-100322264D01*
X141965489Y-100322261D01*
X141810845Y-100291500D01*
X141810842Y-100291500D01*
X141653158Y-100291500D01*
X141653155Y-100291500D01*
X141498510Y-100322261D01*
X141498498Y-100322264D01*
X141352827Y-100382602D01*
X141352814Y-100382609D01*
X141221711Y-100470210D01*
X141221707Y-100470213D01*
X141110213Y-100581707D01*
X141110210Y-100581711D01*
X141022609Y-100712814D01*
X141022602Y-100712827D01*
X140962264Y-100858498D01*
X140962261Y-100858510D01*
X140931500Y-101013153D01*
X75213675Y-101013153D01*
X75207598Y-100956627D01*
X75207596Y-100956620D01*
X75157354Y-100821913D01*
X75157350Y-100821906D01*
X75071190Y-100706812D01*
X75071187Y-100706809D01*
X74956093Y-100620649D01*
X74956086Y-100620645D01*
X74821379Y-100570403D01*
X74821372Y-100570401D01*
X74761844Y-100564000D01*
X74164000Y-100564000D01*
X74164000Y-101548314D01*
X74159606Y-101543920D01*
X74068394Y-101491259D01*
X73966661Y-101464000D01*
X73861339Y-101464000D01*
X73759606Y-101491259D01*
X73668394Y-101543920D01*
X73664000Y-101548314D01*
X73664000Y-100564000D01*
X73066155Y-100564000D01*
X73006627Y-100570401D01*
X73006620Y-100570403D01*
X72871913Y-100620645D01*
X72871906Y-100620649D01*
X72756812Y-100706809D01*
X72756809Y-100706812D01*
X72670649Y-100821906D01*
X72670645Y-100821913D01*
X72620403Y-100956620D01*
X72620401Y-100956626D01*
X72616378Y-100994046D01*
X72589639Y-101058597D01*
X72532246Y-101098444D01*
X72462421Y-101100937D01*
X72402333Y-101065283D01*
X72392770Y-101053674D01*
X72366201Y-101017105D01*
X72365966Y-101016781D01*
X72221219Y-100872034D01*
X72221213Y-100872028D01*
X72055613Y-100751715D01*
X72055612Y-100751714D01*
X72055610Y-100751713D01*
X71979292Y-100712827D01*
X71873223Y-100658781D01*
X71678534Y-100595522D01*
X71503995Y-100567878D01*
X71476352Y-100563500D01*
X71271648Y-100563500D01*
X71247329Y-100567351D01*
X71069465Y-100595522D01*
X70874776Y-100658781D01*
X70692386Y-100751715D01*
X70526786Y-100872028D01*
X70382028Y-101016786D01*
X70261715Y-101182386D01*
X70214485Y-101275080D01*
X70166510Y-101325876D01*
X70098689Y-101342671D01*
X70032554Y-101320134D01*
X69993515Y-101275080D01*
X69992883Y-101273840D01*
X69946287Y-101182390D01*
X69901195Y-101120325D01*
X69825971Y-101016786D01*
X69681213Y-100872028D01*
X69515613Y-100751715D01*
X69515612Y-100751714D01*
X69515610Y-100751713D01*
X69439292Y-100712827D01*
X69333223Y-100658781D01*
X69138534Y-100595522D01*
X68963995Y-100567878D01*
X68936352Y-100563500D01*
X68731648Y-100563500D01*
X68707329Y-100567351D01*
X68529465Y-100595522D01*
X68334776Y-100658781D01*
X68152386Y-100751715D01*
X67986786Y-100872028D01*
X67842028Y-101016786D01*
X67721715Y-101182386D01*
X67674485Y-101275080D01*
X67626510Y-101325876D01*
X67558689Y-101342671D01*
X67492554Y-101320134D01*
X67453515Y-101275080D01*
X67452883Y-101273840D01*
X67406287Y-101182390D01*
X67361195Y-101120325D01*
X67285971Y-101016786D01*
X67141213Y-100872028D01*
X66975613Y-100751715D01*
X66975612Y-100751714D01*
X66975610Y-100751713D01*
X66899292Y-100712827D01*
X66793223Y-100658781D01*
X66598534Y-100595522D01*
X66423995Y-100567878D01*
X66396352Y-100563500D01*
X66191648Y-100563500D01*
X66167329Y-100567351D01*
X65989465Y-100595522D01*
X65794776Y-100658781D01*
X65612386Y-100751715D01*
X65446786Y-100872028D01*
X65302028Y-101016786D01*
X65181715Y-101182386D01*
X65134485Y-101275080D01*
X65086510Y-101325876D01*
X65018689Y-101342671D01*
X64952554Y-101320134D01*
X64913515Y-101275080D01*
X64912883Y-101273840D01*
X64866287Y-101182390D01*
X64821195Y-101120325D01*
X64745971Y-101016786D01*
X64601213Y-100872028D01*
X64435613Y-100751715D01*
X64435612Y-100751714D01*
X64435610Y-100751713D01*
X64359292Y-100712827D01*
X64253223Y-100658781D01*
X64058534Y-100595522D01*
X63883995Y-100567878D01*
X63856352Y-100563500D01*
X63651648Y-100563500D01*
X63627329Y-100567351D01*
X63449465Y-100595522D01*
X63254776Y-100658781D01*
X63072386Y-100751715D01*
X62906786Y-100872028D01*
X62762028Y-101016786D01*
X62641715Y-101182386D01*
X62594485Y-101275080D01*
X62546510Y-101325876D01*
X62478689Y-101342671D01*
X62412554Y-101320134D01*
X62373515Y-101275080D01*
X62372883Y-101273840D01*
X62326287Y-101182390D01*
X62281195Y-101120325D01*
X62205971Y-101016786D01*
X62061213Y-100872028D01*
X61895613Y-100751715D01*
X61895612Y-100751714D01*
X61895610Y-100751713D01*
X61819292Y-100712827D01*
X61713223Y-100658781D01*
X61518534Y-100595522D01*
X61343995Y-100567878D01*
X61316352Y-100563500D01*
X61111648Y-100563500D01*
X61087329Y-100567351D01*
X60909465Y-100595522D01*
X60714776Y-100658781D01*
X60532386Y-100751715D01*
X60366786Y-100872028D01*
X60222028Y-101016786D01*
X60101713Y-101182388D01*
X60054203Y-101275630D01*
X60006228Y-101326426D01*
X59938407Y-101343220D01*
X59872272Y-101320682D01*
X59833234Y-101275628D01*
X59785861Y-101182652D01*
X59665582Y-101017105D01*
X59665582Y-101017104D01*
X59520895Y-100872417D01*
X59355349Y-100752140D01*
X59173029Y-100659244D01*
X58978413Y-100596009D01*
X58924000Y-100587390D01*
X58924000Y-101548314D01*
X58919606Y-101543920D01*
X58828394Y-101491259D01*
X58726661Y-101464000D01*
X58621339Y-101464000D01*
X58519606Y-101491259D01*
X58428394Y-101543920D01*
X58424000Y-101548314D01*
X58424000Y-100587390D01*
X58369586Y-100596009D01*
X58174970Y-100659244D01*
X57992650Y-100752140D01*
X57827105Y-100872417D01*
X57827104Y-100872417D01*
X57682417Y-101017104D01*
X57682417Y-101017105D01*
X57562140Y-101182650D01*
X57514765Y-101275629D01*
X57466790Y-101326425D01*
X57398969Y-101343220D01*
X57332834Y-101320682D01*
X57293795Y-101275629D01*
X57246419Y-101182650D01*
X57246287Y-101182390D01*
X57201195Y-101120325D01*
X57125971Y-101016786D01*
X56981213Y-100872028D01*
X56815613Y-100751715D01*
X56815612Y-100751714D01*
X56815610Y-100751713D01*
X56739292Y-100712827D01*
X56633223Y-100658781D01*
X56438534Y-100595522D01*
X56263995Y-100567878D01*
X56236352Y-100563500D01*
X56031648Y-100563500D01*
X56007329Y-100567351D01*
X55829465Y-100595522D01*
X55634776Y-100658781D01*
X55452386Y-100751715D01*
X55286786Y-100872028D01*
X55142028Y-101016786D01*
X55021715Y-101182386D01*
X54928781Y-101364776D01*
X54865522Y-101559465D01*
X54841080Y-101713789D01*
X54833500Y-101761648D01*
X40886500Y-101761648D01*
X40886500Y-98205648D01*
X54833500Y-98205648D01*
X54833500Y-98410351D01*
X54865522Y-98612534D01*
X54928781Y-98807223D01*
X55021715Y-98989613D01*
X55142028Y-99155213D01*
X55286786Y-99299971D01*
X55441749Y-99412556D01*
X55452390Y-99420287D01*
X55552271Y-99471179D01*
X55634776Y-99513218D01*
X55634778Y-99513218D01*
X55634781Y-99513220D01*
X55739137Y-99547127D01*
X55829465Y-99576477D01*
X55930557Y-99592488D01*
X56031648Y-99608500D01*
X56031649Y-99608500D01*
X56236351Y-99608500D01*
X56236352Y-99608500D01*
X56438534Y-99576477D01*
X56633219Y-99513220D01*
X56815610Y-99420287D01*
X56946073Y-99325501D01*
X56981213Y-99299971D01*
X56981215Y-99299968D01*
X56981219Y-99299966D01*
X57125966Y-99155219D01*
X57125968Y-99155215D01*
X57125971Y-99155213D01*
X57246284Y-98989614D01*
X57246285Y-98989613D01*
X57246287Y-98989610D01*
X57293516Y-98896917D01*
X57341489Y-98846123D01*
X57409310Y-98829328D01*
X57475445Y-98851865D01*
X57514485Y-98896919D01*
X57561715Y-98989614D01*
X57682028Y-99155213D01*
X57826786Y-99299971D01*
X57981749Y-99412556D01*
X57992390Y-99420287D01*
X58092271Y-99471179D01*
X58174776Y-99513218D01*
X58174778Y-99513218D01*
X58174781Y-99513220D01*
X58279137Y-99547127D01*
X58369465Y-99576477D01*
X58470557Y-99592488D01*
X58571648Y-99608500D01*
X58571649Y-99608500D01*
X58776351Y-99608500D01*
X58776352Y-99608500D01*
X58978534Y-99576477D01*
X59173219Y-99513220D01*
X59355610Y-99420287D01*
X59486073Y-99325501D01*
X59521213Y-99299971D01*
X59521215Y-99299968D01*
X59521219Y-99299966D01*
X59665966Y-99155219D01*
X59665968Y-99155215D01*
X59665971Y-99155213D01*
X59786284Y-98989614D01*
X59786285Y-98989613D01*
X59786287Y-98989610D01*
X59833516Y-98896917D01*
X59881489Y-98846123D01*
X59949310Y-98829328D01*
X60015445Y-98851865D01*
X60054485Y-98896919D01*
X60101715Y-98989614D01*
X60222028Y-99155213D01*
X60366786Y-99299971D01*
X60521749Y-99412556D01*
X60532390Y-99420287D01*
X60632271Y-99471179D01*
X60714776Y-99513218D01*
X60714778Y-99513218D01*
X60714781Y-99513220D01*
X60819137Y-99547127D01*
X60909465Y-99576477D01*
X61010557Y-99592488D01*
X61111648Y-99608500D01*
X61111649Y-99608500D01*
X61316351Y-99608500D01*
X61316352Y-99608500D01*
X61518534Y-99576477D01*
X61713219Y-99513220D01*
X61895610Y-99420287D01*
X62026073Y-99325501D01*
X62061213Y-99299971D01*
X62061215Y-99299968D01*
X62061219Y-99299966D01*
X62205966Y-99155219D01*
X62205968Y-99155215D01*
X62205971Y-99155213D01*
X62326284Y-98989614D01*
X62326285Y-98989613D01*
X62326287Y-98989610D01*
X62373516Y-98896917D01*
X62421489Y-98846123D01*
X62489310Y-98829328D01*
X62555445Y-98851865D01*
X62594485Y-98896919D01*
X62641715Y-98989614D01*
X62762028Y-99155213D01*
X62906786Y-99299971D01*
X63061749Y-99412556D01*
X63072390Y-99420287D01*
X63172271Y-99471179D01*
X63254776Y-99513218D01*
X63254778Y-99513218D01*
X63254781Y-99513220D01*
X63359137Y-99547127D01*
X63449465Y-99576477D01*
X63550557Y-99592488D01*
X63651648Y-99608500D01*
X63651649Y-99608500D01*
X63856351Y-99608500D01*
X63856352Y-99608500D01*
X64058534Y-99576477D01*
X64253219Y-99513220D01*
X64435610Y-99420287D01*
X64566073Y-99325501D01*
X64601213Y-99299971D01*
X64601215Y-99299968D01*
X64601219Y-99299966D01*
X64745966Y-99155219D01*
X64745968Y-99155215D01*
X64745971Y-99155213D01*
X64866284Y-98989614D01*
X64866285Y-98989613D01*
X64866287Y-98989610D01*
X64913516Y-98896917D01*
X64961489Y-98846123D01*
X65029310Y-98829328D01*
X65095445Y-98851865D01*
X65134485Y-98896919D01*
X65181715Y-98989614D01*
X65302028Y-99155213D01*
X65446786Y-99299971D01*
X65601749Y-99412556D01*
X65612390Y-99420287D01*
X65712271Y-99471179D01*
X65794776Y-99513218D01*
X65794778Y-99513218D01*
X65794781Y-99513220D01*
X65899137Y-99547127D01*
X65989465Y-99576477D01*
X66090557Y-99592488D01*
X66191648Y-99608500D01*
X66191649Y-99608500D01*
X66396351Y-99608500D01*
X66396352Y-99608500D01*
X66598534Y-99576477D01*
X66793219Y-99513220D01*
X66975610Y-99420287D01*
X67106073Y-99325501D01*
X67141213Y-99299971D01*
X67141215Y-99299968D01*
X67141219Y-99299966D01*
X67285966Y-99155219D01*
X67285968Y-99155215D01*
X67285971Y-99155213D01*
X67406284Y-98989614D01*
X67406285Y-98989613D01*
X67406287Y-98989610D01*
X67453516Y-98896917D01*
X67501489Y-98846123D01*
X67569310Y-98829328D01*
X67635445Y-98851865D01*
X67674485Y-98896919D01*
X67721715Y-98989614D01*
X67842028Y-99155213D01*
X67986786Y-99299971D01*
X68141749Y-99412556D01*
X68152390Y-99420287D01*
X68252271Y-99471179D01*
X68334776Y-99513218D01*
X68334778Y-99513218D01*
X68334781Y-99513220D01*
X68439137Y-99547127D01*
X68529465Y-99576477D01*
X68630557Y-99592488D01*
X68731648Y-99608500D01*
X68731649Y-99608500D01*
X68936351Y-99608500D01*
X68936352Y-99608500D01*
X69138534Y-99576477D01*
X69333219Y-99513220D01*
X69515610Y-99420287D01*
X69646073Y-99325501D01*
X69681213Y-99299971D01*
X69681215Y-99299968D01*
X69681219Y-99299966D01*
X69825966Y-99155219D01*
X69825968Y-99155215D01*
X69825971Y-99155213D01*
X69946284Y-98989614D01*
X69946285Y-98989613D01*
X69946287Y-98989610D01*
X69993516Y-98896917D01*
X70041489Y-98846123D01*
X70109310Y-98829328D01*
X70175445Y-98851865D01*
X70214485Y-98896919D01*
X70261715Y-98989614D01*
X70382028Y-99155213D01*
X70526786Y-99299971D01*
X70681749Y-99412556D01*
X70692390Y-99420287D01*
X70792271Y-99471179D01*
X70874776Y-99513218D01*
X70874778Y-99513218D01*
X70874781Y-99513220D01*
X70979137Y-99547127D01*
X71069465Y-99576477D01*
X71170557Y-99592488D01*
X71271648Y-99608500D01*
X71271649Y-99608500D01*
X71476351Y-99608500D01*
X71476352Y-99608500D01*
X71678534Y-99576477D01*
X71873219Y-99513220D01*
X72055610Y-99420287D01*
X72186073Y-99325501D01*
X72221213Y-99299971D01*
X72221215Y-99299968D01*
X72221219Y-99299966D01*
X72365966Y-99155219D01*
X72365968Y-99155215D01*
X72365971Y-99155213D01*
X72486284Y-98989614D01*
X72486285Y-98989613D01*
X72486287Y-98989610D01*
X72533516Y-98896917D01*
X72581489Y-98846123D01*
X72649310Y-98829328D01*
X72715445Y-98851865D01*
X72754485Y-98896919D01*
X72801715Y-98989614D01*
X72922028Y-99155213D01*
X73066786Y-99299971D01*
X73221749Y-99412556D01*
X73232390Y-99420287D01*
X73332271Y-99471179D01*
X73414776Y-99513218D01*
X73414778Y-99513218D01*
X73414781Y-99513220D01*
X73519137Y-99547127D01*
X73609465Y-99576477D01*
X73710557Y-99592488D01*
X73811648Y-99608500D01*
X73811649Y-99608500D01*
X74016351Y-99608500D01*
X74016352Y-99608500D01*
X74218534Y-99576477D01*
X74413219Y-99513220D01*
X74595610Y-99420287D01*
X74726073Y-99325501D01*
X74761213Y-99299971D01*
X74761215Y-99299968D01*
X74761219Y-99299966D01*
X74905966Y-99155219D01*
X74905968Y-99155215D01*
X74905971Y-99155213D01*
X74970346Y-99066607D01*
X75026287Y-98989610D01*
X75119220Y-98807219D01*
X75182477Y-98612534D01*
X75214500Y-98410352D01*
X75214500Y-98205648D01*
X75200752Y-98118846D01*
X75185466Y-98022335D01*
X75184000Y-98013081D01*
X75182477Y-98003466D01*
X75119220Y-97808781D01*
X75119218Y-97808778D01*
X75119218Y-97808776D01*
X75046210Y-97665491D01*
X75026287Y-97626390D01*
X75026285Y-97626387D01*
X75026284Y-97626385D01*
X74963523Y-97540000D01*
X95878391Y-97540000D01*
X96839314Y-97540000D01*
X96834920Y-97544394D01*
X96782259Y-97635606D01*
X96755000Y-97737339D01*
X96755000Y-97842661D01*
X96782259Y-97944394D01*
X96834920Y-98035606D01*
X96839314Y-98040000D01*
X95878391Y-98040000D01*
X95887009Y-98094413D01*
X95950244Y-98289029D01*
X96043140Y-98471349D01*
X96163417Y-98636894D01*
X96163417Y-98636895D01*
X96308104Y-98781582D01*
X96473650Y-98901859D01*
X96655968Y-98994754D01*
X96850578Y-99057988D01*
X96905000Y-99066607D01*
X96905000Y-98105686D01*
X96909394Y-98110080D01*
X97000606Y-98162741D01*
X97102339Y-98190000D01*
X97207661Y-98190000D01*
X97309394Y-98162741D01*
X97400606Y-98110080D01*
X97405000Y-98105686D01*
X97405000Y-99066606D01*
X97459421Y-99057988D01*
X97597406Y-99013153D01*
X140931500Y-99013153D01*
X140931500Y-99170846D01*
X140962261Y-99325489D01*
X140962264Y-99325501D01*
X141022602Y-99471172D01*
X141022609Y-99471185D01*
X141110210Y-99602288D01*
X141110213Y-99602292D01*
X141221707Y-99713786D01*
X141221711Y-99713789D01*
X141352814Y-99801390D01*
X141352827Y-99801397D01*
X141498498Y-99861735D01*
X141498503Y-99861737D01*
X141653153Y-99892499D01*
X141653156Y-99892500D01*
X141653158Y-99892500D01*
X141810844Y-99892500D01*
X141810845Y-99892499D01*
X141965497Y-99861737D01*
X142111179Y-99801394D01*
X142242289Y-99713789D01*
X142353789Y-99602289D01*
X142441394Y-99471179D01*
X142501737Y-99325497D01*
X142532500Y-99170842D01*
X142532500Y-99013158D01*
X142532500Y-99013155D01*
X142532499Y-99013153D01*
X142501738Y-98858510D01*
X142501737Y-98858503D01*
X142501735Y-98858498D01*
X142441397Y-98712827D01*
X142441390Y-98712814D01*
X142353789Y-98581711D01*
X142353786Y-98581707D01*
X142242292Y-98470213D01*
X142242288Y-98470210D01*
X142111185Y-98382609D01*
X142111172Y-98382602D01*
X141965501Y-98322264D01*
X141965489Y-98322261D01*
X141810845Y-98291500D01*
X141810842Y-98291500D01*
X141653158Y-98291500D01*
X141653155Y-98291500D01*
X141498510Y-98322261D01*
X141498498Y-98322264D01*
X141352827Y-98382602D01*
X141352814Y-98382609D01*
X141221711Y-98470210D01*
X141221707Y-98470213D01*
X141110213Y-98581707D01*
X141110210Y-98581711D01*
X141022609Y-98712814D01*
X141022602Y-98712827D01*
X140962264Y-98858498D01*
X140962261Y-98858510D01*
X140931500Y-99013153D01*
X97597406Y-99013153D01*
X97654031Y-98994754D01*
X97836349Y-98901859D01*
X98001894Y-98781582D01*
X98001895Y-98781582D01*
X98146582Y-98636895D01*
X98146582Y-98636894D01*
X98266859Y-98471349D01*
X98359755Y-98289029D01*
X98422990Y-98094413D01*
X98431609Y-98040000D01*
X97470686Y-98040000D01*
X97475080Y-98035606D01*
X97518065Y-97961153D01*
X120714500Y-97961153D01*
X120714500Y-98118846D01*
X120745261Y-98273489D01*
X120745264Y-98273501D01*
X120805602Y-98419172D01*
X120805609Y-98419185D01*
X120893210Y-98550288D01*
X120893213Y-98550292D01*
X121004707Y-98661786D01*
X121004711Y-98661789D01*
X121135814Y-98749390D01*
X121135827Y-98749397D01*
X121281498Y-98809735D01*
X121281503Y-98809737D01*
X121436153Y-98840499D01*
X121436156Y-98840500D01*
X121436158Y-98840500D01*
X121593844Y-98840500D01*
X121593845Y-98840499D01*
X121748497Y-98809737D01*
X121894179Y-98749394D01*
X122025289Y-98661789D01*
X122074544Y-98612534D01*
X122135819Y-98551260D01*
X122197142Y-98517775D01*
X122266834Y-98522759D01*
X122311181Y-98551260D01*
X122425707Y-98665786D01*
X122425711Y-98665789D01*
X122556814Y-98753390D01*
X122556827Y-98753397D01*
X122692841Y-98809735D01*
X122702503Y-98813737D01*
X122837044Y-98840499D01*
X122857153Y-98844499D01*
X122857156Y-98844500D01*
X122857158Y-98844500D01*
X123014844Y-98844500D01*
X123014845Y-98844499D01*
X123169497Y-98813737D01*
X123315179Y-98753394D01*
X123429602Y-98676939D01*
X123496279Y-98656061D01*
X123563659Y-98674545D01*
X123567384Y-98676939D01*
X123675814Y-98749390D01*
X123675827Y-98749397D01*
X123821498Y-98809735D01*
X123821503Y-98809737D01*
X123976153Y-98840499D01*
X123976156Y-98840500D01*
X123976158Y-98840500D01*
X124133844Y-98840500D01*
X124133845Y-98840499D01*
X124288497Y-98809737D01*
X124434179Y-98749394D01*
X124565289Y-98661789D01*
X124571017Y-98656061D01*
X124602319Y-98624760D01*
X124663642Y-98591275D01*
X124733334Y-98596259D01*
X124777681Y-98624760D01*
X124814707Y-98661786D01*
X124814711Y-98661789D01*
X124945814Y-98749390D01*
X124945827Y-98749397D01*
X125091498Y-98809735D01*
X125091503Y-98809737D01*
X125246153Y-98840499D01*
X125246156Y-98840500D01*
X125246158Y-98840500D01*
X125403844Y-98840500D01*
X125403845Y-98840499D01*
X125558497Y-98809737D01*
X125704179Y-98749394D01*
X125835289Y-98661789D01*
X125841017Y-98656061D01*
X125872319Y-98624760D01*
X125933642Y-98591275D01*
X126003334Y-98596259D01*
X126047681Y-98624760D01*
X126084707Y-98661786D01*
X126084711Y-98661789D01*
X126215814Y-98749390D01*
X126215827Y-98749397D01*
X126361498Y-98809735D01*
X126361503Y-98809737D01*
X126516153Y-98840499D01*
X126516156Y-98840500D01*
X126516158Y-98840500D01*
X126673844Y-98840500D01*
X126673845Y-98840499D01*
X126828497Y-98809737D01*
X126974179Y-98749394D01*
X127105289Y-98661789D01*
X127216789Y-98550289D01*
X127304394Y-98419179D01*
X127364737Y-98273497D01*
X127395500Y-98118842D01*
X127395500Y-97961158D01*
X127395500Y-97961155D01*
X127395499Y-97961153D01*
X127386245Y-97914632D01*
X127364737Y-97806503D01*
X127359053Y-97792781D01*
X127304397Y-97660827D01*
X127304390Y-97660814D01*
X127216789Y-97529711D01*
X127216786Y-97529707D01*
X127105292Y-97418213D01*
X127105288Y-97418210D01*
X126974185Y-97330609D01*
X126974172Y-97330602D01*
X126828501Y-97270264D01*
X126828489Y-97270261D01*
X126673845Y-97239500D01*
X126673842Y-97239500D01*
X126516158Y-97239500D01*
X126516155Y-97239500D01*
X126361510Y-97270261D01*
X126361498Y-97270264D01*
X126215827Y-97330602D01*
X126215814Y-97330609D01*
X126084711Y-97418210D01*
X126084707Y-97418213D01*
X126047681Y-97455240D01*
X125986358Y-97488725D01*
X125916666Y-97483741D01*
X125872319Y-97455240D01*
X125835292Y-97418213D01*
X125835288Y-97418210D01*
X125704185Y-97330609D01*
X125704172Y-97330602D01*
X125558501Y-97270264D01*
X125558489Y-97270261D01*
X125403845Y-97239500D01*
X125403842Y-97239500D01*
X125246158Y-97239500D01*
X125246155Y-97239500D01*
X125091510Y-97270261D01*
X125091498Y-97270264D01*
X124945827Y-97330602D01*
X124945814Y-97330609D01*
X124814711Y-97418210D01*
X124814707Y-97418213D01*
X124777681Y-97455240D01*
X124716358Y-97488725D01*
X124646666Y-97483741D01*
X124602319Y-97455240D01*
X124565292Y-97418213D01*
X124565288Y-97418210D01*
X124434185Y-97330609D01*
X124434172Y-97330602D01*
X124288501Y-97270264D01*
X124288489Y-97270261D01*
X124133845Y-97239500D01*
X124133842Y-97239500D01*
X123976158Y-97239500D01*
X123976155Y-97239500D01*
X123821510Y-97270261D01*
X123821498Y-97270264D01*
X123675827Y-97330602D01*
X123675816Y-97330608D01*
X123561396Y-97407061D01*
X123494719Y-97427938D01*
X123427339Y-97409453D01*
X123423615Y-97407060D01*
X123315185Y-97334609D01*
X123315172Y-97334602D01*
X123169501Y-97274264D01*
X123169489Y-97274261D01*
X123014845Y-97243500D01*
X123014842Y-97243500D01*
X122857158Y-97243500D01*
X122857155Y-97243500D01*
X122702510Y-97274261D01*
X122702498Y-97274264D01*
X122556827Y-97334602D01*
X122556814Y-97334609D01*
X122425711Y-97422210D01*
X122425707Y-97422213D01*
X122315181Y-97532740D01*
X122253858Y-97566225D01*
X122184166Y-97561241D01*
X122139819Y-97532740D01*
X122025292Y-97418213D01*
X122025288Y-97418210D01*
X121894185Y-97330609D01*
X121894172Y-97330602D01*
X121748501Y-97270264D01*
X121748489Y-97270261D01*
X121593845Y-97239500D01*
X121593842Y-97239500D01*
X121436158Y-97239500D01*
X121436155Y-97239500D01*
X121281510Y-97270261D01*
X121281498Y-97270264D01*
X121135827Y-97330602D01*
X121135814Y-97330609D01*
X121004711Y-97418210D01*
X121004707Y-97418213D01*
X120893213Y-97529707D01*
X120893210Y-97529711D01*
X120805609Y-97660814D01*
X120805602Y-97660827D01*
X120745264Y-97806498D01*
X120745261Y-97806510D01*
X120714500Y-97961153D01*
X97518065Y-97961153D01*
X97527741Y-97944394D01*
X97555000Y-97842661D01*
X97555000Y-97737339D01*
X97527741Y-97635606D01*
X97475080Y-97544394D01*
X97470686Y-97540000D01*
X98431609Y-97540000D01*
X98422990Y-97485586D01*
X98359755Y-97290970D01*
X98266859Y-97108650D01*
X98146582Y-96943105D01*
X98146582Y-96943104D01*
X98001895Y-96798417D01*
X97836349Y-96678140D01*
X97654029Y-96585244D01*
X97459413Y-96522009D01*
X97405000Y-96513390D01*
X97405000Y-97474314D01*
X97400606Y-97469920D01*
X97309394Y-97417259D01*
X97207661Y-97390000D01*
X97102339Y-97390000D01*
X97000606Y-97417259D01*
X96909394Y-97469920D01*
X96905000Y-97474314D01*
X96905000Y-96513390D01*
X96850586Y-96522009D01*
X96655970Y-96585244D01*
X96473650Y-96678140D01*
X96308105Y-96798417D01*
X96308104Y-96798417D01*
X96163417Y-96943104D01*
X96163417Y-96943105D01*
X96043140Y-97108650D01*
X95950244Y-97290970D01*
X95887009Y-97485586D01*
X95878391Y-97540000D01*
X74963523Y-97540000D01*
X74905971Y-97460786D01*
X74761213Y-97316028D01*
X74595613Y-97195715D01*
X74595612Y-97195714D01*
X74595610Y-97195713D01*
X74538653Y-97166691D01*
X74413223Y-97102781D01*
X74218534Y-97039522D01*
X74043995Y-97011878D01*
X74016352Y-97007500D01*
X73811648Y-97007500D01*
X73787329Y-97011351D01*
X73609465Y-97039522D01*
X73414776Y-97102781D01*
X73232386Y-97195715D01*
X73066786Y-97316028D01*
X72922028Y-97460786D01*
X72801715Y-97626386D01*
X72754485Y-97719080D01*
X72706510Y-97769876D01*
X72638689Y-97786671D01*
X72572554Y-97764134D01*
X72533515Y-97719080D01*
X72532883Y-97717840D01*
X72486287Y-97626390D01*
X72430411Y-97549482D01*
X72365971Y-97460786D01*
X72221213Y-97316028D01*
X72055613Y-97195715D01*
X72055612Y-97195714D01*
X72055610Y-97195713D01*
X71998653Y-97166691D01*
X71873223Y-97102781D01*
X71678534Y-97039522D01*
X71503995Y-97011878D01*
X71476352Y-97007500D01*
X71271648Y-97007500D01*
X71247329Y-97011351D01*
X71069465Y-97039522D01*
X70874776Y-97102781D01*
X70692386Y-97195715D01*
X70526786Y-97316028D01*
X70382028Y-97460786D01*
X70261715Y-97626386D01*
X70214485Y-97719080D01*
X70166510Y-97769876D01*
X70098689Y-97786671D01*
X70032554Y-97764134D01*
X69993515Y-97719080D01*
X69992883Y-97717840D01*
X69946287Y-97626390D01*
X69890411Y-97549482D01*
X69825971Y-97460786D01*
X69681213Y-97316028D01*
X69515613Y-97195715D01*
X69515612Y-97195714D01*
X69515610Y-97195713D01*
X69458653Y-97166691D01*
X69333223Y-97102781D01*
X69138534Y-97039522D01*
X68963995Y-97011878D01*
X68936352Y-97007500D01*
X68731648Y-97007500D01*
X68707329Y-97011351D01*
X68529465Y-97039522D01*
X68334776Y-97102781D01*
X68152386Y-97195715D01*
X67986786Y-97316028D01*
X67842028Y-97460786D01*
X67721715Y-97626386D01*
X67674485Y-97719080D01*
X67626510Y-97769876D01*
X67558689Y-97786671D01*
X67492554Y-97764134D01*
X67453515Y-97719080D01*
X67452883Y-97717840D01*
X67406287Y-97626390D01*
X67350411Y-97549482D01*
X67285971Y-97460786D01*
X67141213Y-97316028D01*
X66975613Y-97195715D01*
X66975612Y-97195714D01*
X66975610Y-97195713D01*
X66918653Y-97166691D01*
X66793223Y-97102781D01*
X66598534Y-97039522D01*
X66423995Y-97011878D01*
X66396352Y-97007500D01*
X66191648Y-97007500D01*
X66167329Y-97011351D01*
X65989465Y-97039522D01*
X65794776Y-97102781D01*
X65612386Y-97195715D01*
X65446786Y-97316028D01*
X65302028Y-97460786D01*
X65181715Y-97626386D01*
X65134485Y-97719080D01*
X65086510Y-97769876D01*
X65018689Y-97786671D01*
X64952554Y-97764134D01*
X64913515Y-97719080D01*
X64912883Y-97717840D01*
X64866287Y-97626390D01*
X64810411Y-97549482D01*
X64745971Y-97460786D01*
X64601213Y-97316028D01*
X64435613Y-97195715D01*
X64435612Y-97195714D01*
X64435610Y-97195713D01*
X64378653Y-97166691D01*
X64253223Y-97102781D01*
X64058534Y-97039522D01*
X63883995Y-97011878D01*
X63856352Y-97007500D01*
X63651648Y-97007500D01*
X63627329Y-97011351D01*
X63449465Y-97039522D01*
X63254776Y-97102781D01*
X63072386Y-97195715D01*
X62906786Y-97316028D01*
X62762028Y-97460786D01*
X62641715Y-97626386D01*
X62594485Y-97719080D01*
X62546510Y-97769876D01*
X62478689Y-97786671D01*
X62412554Y-97764134D01*
X62373515Y-97719080D01*
X62372883Y-97717840D01*
X62326287Y-97626390D01*
X62270411Y-97549482D01*
X62205971Y-97460786D01*
X62061213Y-97316028D01*
X61895613Y-97195715D01*
X61895612Y-97195714D01*
X61895610Y-97195713D01*
X61838653Y-97166691D01*
X61713223Y-97102781D01*
X61518534Y-97039522D01*
X61343995Y-97011878D01*
X61316352Y-97007500D01*
X61111648Y-97007500D01*
X61087329Y-97011351D01*
X60909465Y-97039522D01*
X60714776Y-97102781D01*
X60532386Y-97195715D01*
X60366786Y-97316028D01*
X60222028Y-97460786D01*
X60101715Y-97626386D01*
X60054485Y-97719080D01*
X60006510Y-97769876D01*
X59938689Y-97786671D01*
X59872554Y-97764134D01*
X59833515Y-97719080D01*
X59832883Y-97717840D01*
X59786287Y-97626390D01*
X59730411Y-97549482D01*
X59665971Y-97460786D01*
X59521213Y-97316028D01*
X59355613Y-97195715D01*
X59355612Y-97195714D01*
X59355610Y-97195713D01*
X59298653Y-97166691D01*
X59173223Y-97102781D01*
X58978534Y-97039522D01*
X58803995Y-97011878D01*
X58776352Y-97007500D01*
X58571648Y-97007500D01*
X58547329Y-97011351D01*
X58369465Y-97039522D01*
X58174776Y-97102781D01*
X57992386Y-97195715D01*
X57826786Y-97316028D01*
X57682028Y-97460786D01*
X57561715Y-97626386D01*
X57514485Y-97719080D01*
X57466510Y-97769876D01*
X57398689Y-97786671D01*
X57332554Y-97764134D01*
X57293515Y-97719080D01*
X57292883Y-97717840D01*
X57246287Y-97626390D01*
X57190411Y-97549482D01*
X57125971Y-97460786D01*
X56981213Y-97316028D01*
X56815613Y-97195715D01*
X56815612Y-97195714D01*
X56815610Y-97195713D01*
X56758653Y-97166691D01*
X56633223Y-97102781D01*
X56438534Y-97039522D01*
X56263995Y-97011878D01*
X56236352Y-97007500D01*
X56031648Y-97007500D01*
X56007329Y-97011351D01*
X55829465Y-97039522D01*
X55634776Y-97102781D01*
X55452386Y-97195715D01*
X55286786Y-97316028D01*
X55142028Y-97460786D01*
X55021715Y-97626386D01*
X54928781Y-97808776D01*
X54865522Y-98003465D01*
X54833500Y-98205648D01*
X40886500Y-98205648D01*
X40886500Y-87380631D01*
X41206300Y-87380631D01*
X41206300Y-87563372D01*
X41222636Y-87666510D01*
X41234885Y-87743847D01*
X41291352Y-87917633D01*
X41374309Y-88080446D01*
X41481715Y-88228278D01*
X41610924Y-88357487D01*
X41630462Y-88371682D01*
X41630465Y-88371684D01*
X41673129Y-88427015D01*
X41679107Y-88496629D01*
X41646499Y-88558423D01*
X41630467Y-88572315D01*
X41610931Y-88586510D01*
X41610920Y-88586518D01*
X41481717Y-88715721D01*
X41374309Y-88863555D01*
X41291353Y-89026366D01*
X41234884Y-89200158D01*
X41206300Y-89380629D01*
X41206300Y-89563370D01*
X41234884Y-89743841D01*
X41234885Y-89743845D01*
X41291352Y-89917631D01*
X41374309Y-90080444D01*
X41481715Y-90228276D01*
X41610924Y-90357485D01*
X41630465Y-90371682D01*
X41673131Y-90427011D01*
X41679111Y-90496624D01*
X41646505Y-90558419D01*
X41630467Y-90572317D01*
X41610924Y-90586515D01*
X41481717Y-90715722D01*
X41374309Y-90863556D01*
X41291353Y-91026367D01*
X41234884Y-91200159D01*
X41206300Y-91380630D01*
X41206300Y-91563371D01*
X41234884Y-91743842D01*
X41234885Y-91743846D01*
X41291352Y-91917632D01*
X41374309Y-92080445D01*
X41481715Y-92228277D01*
X41610924Y-92357486D01*
X41630465Y-92371683D01*
X41673129Y-92427012D01*
X41679108Y-92496625D01*
X41646502Y-92558420D01*
X41630466Y-92572316D01*
X41610927Y-92586512D01*
X41610921Y-92586517D01*
X41481717Y-92715721D01*
X41374309Y-92863555D01*
X41291353Y-93026366D01*
X41291352Y-93026368D01*
X41291352Y-93026369D01*
X41263118Y-93113262D01*
X41234884Y-93200158D01*
X41206300Y-93380629D01*
X41206300Y-93563370D01*
X41234884Y-93743841D01*
X41234884Y-93743843D01*
X41234885Y-93743845D01*
X41291352Y-93917631D01*
X41374309Y-94080444D01*
X41481715Y-94228276D01*
X41610924Y-94357485D01*
X41758756Y-94464891D01*
X41921569Y-94547848D01*
X42095355Y-94604315D01*
X42163035Y-94615034D01*
X42275830Y-94632900D01*
X42275835Y-94632900D01*
X42458570Y-94632900D01*
X42558831Y-94617019D01*
X42639045Y-94604315D01*
X42812831Y-94547848D01*
X42975644Y-94464891D01*
X43123476Y-94357485D01*
X43252685Y-94228276D01*
X43360091Y-94080444D01*
X43443048Y-93917631D01*
X43445803Y-93909153D01*
X106135500Y-93909153D01*
X106135500Y-94066846D01*
X106166261Y-94221489D01*
X106166264Y-94221501D01*
X106226602Y-94367172D01*
X106226609Y-94367185D01*
X106314210Y-94498288D01*
X106314213Y-94498292D01*
X106425707Y-94609786D01*
X106425711Y-94609789D01*
X106556814Y-94697390D01*
X106556827Y-94697397D01*
X106702498Y-94757735D01*
X106702503Y-94757737D01*
X106813617Y-94779839D01*
X106857153Y-94788499D01*
X106857156Y-94788500D01*
X106857158Y-94788500D01*
X107014844Y-94788500D01*
X107014845Y-94788499D01*
X107169497Y-94757737D01*
X107315179Y-94697394D01*
X107446289Y-94609789D01*
X107557789Y-94498289D01*
X107645394Y-94367179D01*
X107705737Y-94221497D01*
X107736500Y-94066842D01*
X107736500Y-93909158D01*
X107736500Y-93909155D01*
X107736499Y-93909153D01*
X107719856Y-93825483D01*
X107705737Y-93754503D01*
X107665903Y-93658334D01*
X107645397Y-93608827D01*
X107645390Y-93608814D01*
X107557789Y-93477711D01*
X107557786Y-93477707D01*
X107446292Y-93366213D01*
X107446288Y-93366210D01*
X107315185Y-93278609D01*
X107315172Y-93278602D01*
X107169501Y-93218264D01*
X107169489Y-93218261D01*
X107014845Y-93187500D01*
X107014842Y-93187500D01*
X106857158Y-93187500D01*
X106857155Y-93187500D01*
X106702510Y-93218261D01*
X106702498Y-93218264D01*
X106556827Y-93278602D01*
X106556814Y-93278609D01*
X106425711Y-93366210D01*
X106425707Y-93366213D01*
X106314213Y-93477707D01*
X106314210Y-93477711D01*
X106226609Y-93608814D01*
X106226602Y-93608827D01*
X106166264Y-93754498D01*
X106166261Y-93754510D01*
X106135500Y-93909153D01*
X43445803Y-93909153D01*
X43499515Y-93743845D01*
X43517829Y-93628213D01*
X43528100Y-93563370D01*
X43528100Y-93380629D01*
X43502383Y-93218263D01*
X43499515Y-93200155D01*
X43443048Y-93026369D01*
X43360091Y-92863556D01*
X43252685Y-92715724D01*
X43123476Y-92586515D01*
X43121232Y-92584885D01*
X43103935Y-92572317D01*
X43061269Y-92516987D01*
X43055291Y-92447374D01*
X43087897Y-92385579D01*
X43103938Y-92371681D01*
X43104383Y-92371358D01*
X43123476Y-92357486D01*
X43252685Y-92228277D01*
X43360091Y-92080445D01*
X43396416Y-92009153D01*
X100313000Y-92009153D01*
X100313000Y-92166846D01*
X100343761Y-92321489D01*
X100343764Y-92321501D01*
X100404102Y-92467172D01*
X100404109Y-92467185D01*
X100491710Y-92598288D01*
X100491713Y-92598292D01*
X100603207Y-92709786D01*
X100603211Y-92709789D01*
X100734314Y-92797390D01*
X100734327Y-92797397D01*
X100879998Y-92857735D01*
X100880003Y-92857737D01*
X101034653Y-92888499D01*
X101034656Y-92888500D01*
X101034658Y-92888500D01*
X101192344Y-92888500D01*
X101192345Y-92888499D01*
X101346997Y-92857737D01*
X101492679Y-92797394D01*
X101623789Y-92709789D01*
X101735289Y-92598289D01*
X101822894Y-92467179D01*
X101883237Y-92321497D01*
X101914000Y-92166842D01*
X101914000Y-92009158D01*
X101914000Y-92009155D01*
X101913999Y-92009153D01*
X101900939Y-91943497D01*
X101883237Y-91854503D01*
X101868608Y-91819185D01*
X101822897Y-91708827D01*
X101822890Y-91708814D01*
X101735289Y-91577711D01*
X101735286Y-91577707D01*
X101623792Y-91466213D01*
X101623788Y-91466210D01*
X101544054Y-91412933D01*
X101492685Y-91378609D01*
X101492672Y-91378602D01*
X101347001Y-91318264D01*
X101346989Y-91318261D01*
X101335210Y-91315918D01*
X107278735Y-91315918D01*
X107278735Y-91473611D01*
X107309496Y-91628254D01*
X107309499Y-91628266D01*
X107369837Y-91773937D01*
X107369844Y-91773950D01*
X107457445Y-91905053D01*
X107457448Y-91905057D01*
X107568942Y-92016551D01*
X107568946Y-92016554D01*
X107700049Y-92104155D01*
X107700062Y-92104162D01*
X107809271Y-92149397D01*
X107845738Y-92164502D01*
X108000388Y-92195264D01*
X108000391Y-92195265D01*
X108000393Y-92195265D01*
X108158079Y-92195265D01*
X108158080Y-92195264D01*
X108312732Y-92164502D01*
X108458414Y-92104159D01*
X108589524Y-92016554D01*
X108701024Y-91905054D01*
X108788629Y-91773944D01*
X108848972Y-91628262D01*
X108879735Y-91473607D01*
X108879735Y-91315923D01*
X108879735Y-91315920D01*
X108879734Y-91315918D01*
X108848973Y-91161275D01*
X108848972Y-91161268D01*
X108807767Y-91061789D01*
X108788632Y-91015592D01*
X108788625Y-91015579D01*
X108701024Y-90884476D01*
X108701021Y-90884472D01*
X108589527Y-90772978D01*
X108589523Y-90772975D01*
X108458420Y-90685374D01*
X108458407Y-90685367D01*
X108312736Y-90625029D01*
X108312724Y-90625026D01*
X108158080Y-90594265D01*
X108158077Y-90594265D01*
X108000393Y-90594265D01*
X108000390Y-90594265D01*
X107845745Y-90625026D01*
X107845733Y-90625029D01*
X107700062Y-90685367D01*
X107700049Y-90685374D01*
X107568946Y-90772975D01*
X107568942Y-90772978D01*
X107457448Y-90884472D01*
X107457445Y-90884476D01*
X107369844Y-91015579D01*
X107369837Y-91015592D01*
X107309499Y-91161263D01*
X107309496Y-91161275D01*
X107278735Y-91315918D01*
X101335210Y-91315918D01*
X101192345Y-91287500D01*
X101192342Y-91287500D01*
X101034658Y-91287500D01*
X101034655Y-91287500D01*
X100880010Y-91318261D01*
X100879998Y-91318264D01*
X100734327Y-91378602D01*
X100734314Y-91378609D01*
X100603211Y-91466210D01*
X100603207Y-91466213D01*
X100491713Y-91577707D01*
X100491710Y-91577711D01*
X100404109Y-91708814D01*
X100404102Y-91708827D01*
X100343764Y-91854498D01*
X100343761Y-91854510D01*
X100313000Y-92009153D01*
X43396416Y-92009153D01*
X43443048Y-91917632D01*
X43499515Y-91743846D01*
X43517363Y-91631158D01*
X43528100Y-91563371D01*
X43528100Y-91380630D01*
X43499515Y-91200159D01*
X43499515Y-91200156D01*
X43443048Y-91026370D01*
X43360091Y-90863557D01*
X43252685Y-90715725D01*
X43123476Y-90586516D01*
X43103933Y-90572317D01*
X43061268Y-90516989D01*
X43055289Y-90447375D01*
X43087894Y-90385580D01*
X43103930Y-90371685D01*
X43123476Y-90357485D01*
X43252685Y-90228276D01*
X43360091Y-90080444D01*
X43443048Y-89917631D01*
X43499515Y-89743845D01*
X43512219Y-89663631D01*
X43528100Y-89563370D01*
X43528100Y-89380629D01*
X43507227Y-89248846D01*
X43499515Y-89200155D01*
X43443048Y-89026369D01*
X43360091Y-88863556D01*
X43252685Y-88715724D01*
X43123476Y-88586515D01*
X43103937Y-88572319D01*
X43061271Y-88516991D01*
X43055290Y-88447378D01*
X43087895Y-88385582D01*
X43103938Y-88371682D01*
X43123476Y-88357487D01*
X43252685Y-88228278D01*
X43360091Y-88080446D01*
X43443048Y-87917633D01*
X43499515Y-87743847D01*
X43512219Y-87663633D01*
X43528100Y-87563372D01*
X43528100Y-87380631D01*
X43505610Y-87238642D01*
X43499515Y-87200157D01*
X43443048Y-87026371D01*
X43360091Y-86863558D01*
X43252685Y-86715726D01*
X43123476Y-86586517D01*
X42975644Y-86479111D01*
X42812831Y-86396154D01*
X42639045Y-86339687D01*
X42639043Y-86339686D01*
X42639041Y-86339686D01*
X42458570Y-86311102D01*
X42458565Y-86311102D01*
X42275835Y-86311102D01*
X42275830Y-86311102D01*
X42095358Y-86339686D01*
X42095355Y-86339687D01*
X41984643Y-86375660D01*
X41921566Y-86396155D01*
X41758755Y-86479111D01*
X41610921Y-86586519D01*
X41481717Y-86715723D01*
X41374309Y-86863557D01*
X41291353Y-87026368D01*
X41234884Y-87200160D01*
X41206300Y-87380631D01*
X40886500Y-87380631D01*
X40886500Y-85505648D01*
X54833500Y-85505648D01*
X54833500Y-85710351D01*
X54865522Y-85912534D01*
X54928781Y-86107223D01*
X54991937Y-86231172D01*
X55001945Y-86250814D01*
X55021715Y-86289613D01*
X55142028Y-86455213D01*
X55286786Y-86599971D01*
X55436637Y-86708842D01*
X55452390Y-86720287D01*
X55540517Y-86765190D01*
X55634776Y-86813218D01*
X55634778Y-86813218D01*
X55634781Y-86813220D01*
X55739137Y-86847127D01*
X55829465Y-86876477D01*
X55930557Y-86892488D01*
X56031648Y-86908500D01*
X56031649Y-86908500D01*
X56236351Y-86908500D01*
X56236352Y-86908500D01*
X56438534Y-86876477D01*
X56633219Y-86813220D01*
X56815610Y-86720287D01*
X56951182Y-86621789D01*
X56981213Y-86599971D01*
X56981215Y-86599968D01*
X56981219Y-86599966D01*
X57125966Y-86455219D01*
X57125968Y-86455215D01*
X57125971Y-86455213D01*
X57246284Y-86289614D01*
X57246286Y-86289611D01*
X57246287Y-86289610D01*
X57293795Y-86196369D01*
X57341770Y-86145574D01*
X57409591Y-86128779D01*
X57475725Y-86151316D01*
X57514765Y-86196370D01*
X57562140Y-86289349D01*
X57682417Y-86454894D01*
X57682417Y-86454895D01*
X57827104Y-86599582D01*
X57992650Y-86719859D01*
X58174968Y-86812754D01*
X58369578Y-86875988D01*
X58424000Y-86884607D01*
X58424000Y-85923686D01*
X58428394Y-85928080D01*
X58519606Y-85980741D01*
X58621339Y-86008000D01*
X58726661Y-86008000D01*
X58828394Y-85980741D01*
X58919606Y-85928080D01*
X58924000Y-85923686D01*
X58924000Y-86884606D01*
X58978421Y-86875988D01*
X59173031Y-86812754D01*
X59355349Y-86719859D01*
X59520894Y-86599582D01*
X59520895Y-86599582D01*
X59665582Y-86454895D01*
X59665582Y-86454894D01*
X59785861Y-86289347D01*
X59833234Y-86196371D01*
X59881208Y-86145575D01*
X59949028Y-86128779D01*
X60015164Y-86151316D01*
X60054203Y-86196369D01*
X60101713Y-86289611D01*
X60222028Y-86455213D01*
X60366786Y-86599971D01*
X60516637Y-86708842D01*
X60532390Y-86720287D01*
X60620517Y-86765190D01*
X60714776Y-86813218D01*
X60714778Y-86813218D01*
X60714781Y-86813220D01*
X60819137Y-86847127D01*
X60909465Y-86876477D01*
X61010557Y-86892488D01*
X61111648Y-86908500D01*
X61111649Y-86908500D01*
X61316351Y-86908500D01*
X61316352Y-86908500D01*
X61518534Y-86876477D01*
X61713219Y-86813220D01*
X61895610Y-86720287D01*
X62031182Y-86621789D01*
X62061213Y-86599971D01*
X62061215Y-86599968D01*
X62061219Y-86599966D01*
X62205966Y-86455219D01*
X62205968Y-86455215D01*
X62205971Y-86455213D01*
X62326284Y-86289614D01*
X62326286Y-86289611D01*
X62326287Y-86289610D01*
X62373516Y-86196917D01*
X62421489Y-86146123D01*
X62489310Y-86129328D01*
X62555445Y-86151865D01*
X62594483Y-86196917D01*
X62621949Y-86250821D01*
X62641715Y-86289614D01*
X62762028Y-86455213D01*
X62906786Y-86599971D01*
X63056637Y-86708842D01*
X63072390Y-86720287D01*
X63160517Y-86765190D01*
X63254776Y-86813218D01*
X63254778Y-86813218D01*
X63254781Y-86813220D01*
X63359137Y-86847127D01*
X63449465Y-86876477D01*
X63550557Y-86892488D01*
X63651648Y-86908500D01*
X63651649Y-86908500D01*
X63856351Y-86908500D01*
X63856352Y-86908500D01*
X64058534Y-86876477D01*
X64253219Y-86813220D01*
X64435610Y-86720287D01*
X64571182Y-86621789D01*
X64601213Y-86599971D01*
X64601215Y-86599968D01*
X64601219Y-86599966D01*
X64745966Y-86455219D01*
X64745968Y-86455215D01*
X64745971Y-86455213D01*
X64866284Y-86289614D01*
X64866286Y-86289611D01*
X64866287Y-86289610D01*
X64913516Y-86196917D01*
X64961489Y-86146123D01*
X65029310Y-86129328D01*
X65095445Y-86151865D01*
X65134483Y-86196917D01*
X65161949Y-86250821D01*
X65181715Y-86289614D01*
X65302028Y-86455213D01*
X65446786Y-86599971D01*
X65596637Y-86708842D01*
X65612390Y-86720287D01*
X65700517Y-86765190D01*
X65794776Y-86813218D01*
X65794778Y-86813218D01*
X65794781Y-86813220D01*
X65899137Y-86847127D01*
X65989465Y-86876477D01*
X66090557Y-86892488D01*
X66191648Y-86908500D01*
X66191649Y-86908500D01*
X66396351Y-86908500D01*
X66396352Y-86908500D01*
X66598534Y-86876477D01*
X66793219Y-86813220D01*
X66975610Y-86720287D01*
X67111182Y-86621789D01*
X67141213Y-86599971D01*
X67141215Y-86599968D01*
X67141219Y-86599966D01*
X67285966Y-86455219D01*
X67285968Y-86455215D01*
X67285971Y-86455213D01*
X67406284Y-86289614D01*
X67406286Y-86289611D01*
X67406287Y-86289610D01*
X67453516Y-86196917D01*
X67501489Y-86146123D01*
X67569310Y-86129328D01*
X67635445Y-86151865D01*
X67674483Y-86196917D01*
X67701949Y-86250821D01*
X67721715Y-86289614D01*
X67842028Y-86455213D01*
X67986786Y-86599971D01*
X68136637Y-86708842D01*
X68152390Y-86720287D01*
X68240517Y-86765190D01*
X68334776Y-86813218D01*
X68334778Y-86813218D01*
X68334781Y-86813220D01*
X68439137Y-86847127D01*
X68529465Y-86876477D01*
X68630557Y-86892488D01*
X68731648Y-86908500D01*
X68731649Y-86908500D01*
X68936351Y-86908500D01*
X68936352Y-86908500D01*
X69138534Y-86876477D01*
X69333219Y-86813220D01*
X69515610Y-86720287D01*
X69651182Y-86621789D01*
X69681213Y-86599971D01*
X69681215Y-86599968D01*
X69681219Y-86599966D01*
X69825966Y-86455219D01*
X69825968Y-86455215D01*
X69825971Y-86455213D01*
X69946284Y-86289614D01*
X69946286Y-86289611D01*
X69946287Y-86289610D01*
X69993516Y-86196917D01*
X70041489Y-86146123D01*
X70109310Y-86129328D01*
X70175445Y-86151865D01*
X70214483Y-86196917D01*
X70241949Y-86250821D01*
X70261715Y-86289614D01*
X70382028Y-86455213D01*
X70526786Y-86599971D01*
X70676637Y-86708842D01*
X70692390Y-86720287D01*
X70780517Y-86765190D01*
X70874776Y-86813218D01*
X70874778Y-86813218D01*
X70874781Y-86813220D01*
X70979137Y-86847127D01*
X71069465Y-86876477D01*
X71170557Y-86892488D01*
X71271648Y-86908500D01*
X71271649Y-86908500D01*
X71476351Y-86908500D01*
X71476352Y-86908500D01*
X71678534Y-86876477D01*
X71873219Y-86813220D01*
X72055610Y-86720287D01*
X72191182Y-86621789D01*
X72221213Y-86599971D01*
X72221215Y-86599968D01*
X72221219Y-86599966D01*
X72365966Y-86455219D01*
X72392770Y-86418325D01*
X72448099Y-86375660D01*
X72517712Y-86369679D01*
X72579508Y-86402284D01*
X72613866Y-86463122D01*
X72616378Y-86477953D01*
X72620401Y-86515373D01*
X72620403Y-86515379D01*
X72670645Y-86650086D01*
X72670649Y-86650093D01*
X72756809Y-86765187D01*
X72756812Y-86765190D01*
X72871906Y-86851350D01*
X72871913Y-86851354D01*
X73006620Y-86901596D01*
X73006627Y-86901598D01*
X73066155Y-86907999D01*
X73066172Y-86908000D01*
X73664000Y-86908000D01*
X73664000Y-85923686D01*
X73668394Y-85928080D01*
X73759606Y-85980741D01*
X73861339Y-86008000D01*
X73966661Y-86008000D01*
X74068394Y-85980741D01*
X74159606Y-85928080D01*
X74164000Y-85923686D01*
X74164000Y-86908000D01*
X74761828Y-86908000D01*
X74761844Y-86907999D01*
X74821372Y-86901598D01*
X74821379Y-86901596D01*
X74956086Y-86851354D01*
X74956093Y-86851350D01*
X75071187Y-86765190D01*
X75071190Y-86765187D01*
X75157350Y-86650093D01*
X75157354Y-86650086D01*
X75207596Y-86515379D01*
X75207598Y-86515372D01*
X75213999Y-86455844D01*
X75214000Y-86455827D01*
X75214000Y-85858000D01*
X74229686Y-85858000D01*
X74234080Y-85853606D01*
X74280529Y-85773153D01*
X100291500Y-85773153D01*
X100291500Y-85930846D01*
X100322261Y-86085489D01*
X100322264Y-86085501D01*
X100382602Y-86231172D01*
X100382609Y-86231185D01*
X100470210Y-86362288D01*
X100470213Y-86362292D01*
X100581707Y-86473786D01*
X100581711Y-86473789D01*
X100712814Y-86561390D01*
X100712827Y-86561397D01*
X100858498Y-86621735D01*
X100858503Y-86621737D01*
X101001022Y-86650086D01*
X101013153Y-86652499D01*
X101013156Y-86652500D01*
X101013158Y-86652500D01*
X101170844Y-86652500D01*
X101170845Y-86652499D01*
X101325497Y-86621737D01*
X101471179Y-86561394D01*
X101602289Y-86473789D01*
X101713789Y-86362289D01*
X101801394Y-86231179D01*
X101861737Y-86085497D01*
X101892500Y-85930842D01*
X101892500Y-85773158D01*
X101892500Y-85773155D01*
X101892499Y-85773153D01*
X101862198Y-85620821D01*
X101861737Y-85618503D01*
X101835574Y-85555339D01*
X101801397Y-85472827D01*
X101801390Y-85472814D01*
X101713789Y-85341711D01*
X101713786Y-85341707D01*
X101602292Y-85230213D01*
X101602288Y-85230210D01*
X101471185Y-85142609D01*
X101471172Y-85142602D01*
X101325501Y-85082264D01*
X101325489Y-85082261D01*
X101170845Y-85051500D01*
X101170842Y-85051500D01*
X101013158Y-85051500D01*
X101013155Y-85051500D01*
X100858510Y-85082261D01*
X100858498Y-85082264D01*
X100712827Y-85142602D01*
X100712814Y-85142609D01*
X100581711Y-85230210D01*
X100581707Y-85230213D01*
X100470213Y-85341707D01*
X100470210Y-85341711D01*
X100382609Y-85472814D01*
X100382602Y-85472827D01*
X100322264Y-85618498D01*
X100322261Y-85618510D01*
X100291500Y-85773153D01*
X74280529Y-85773153D01*
X74286741Y-85762394D01*
X74314000Y-85660661D01*
X74314000Y-85555339D01*
X74286741Y-85453606D01*
X74234080Y-85362394D01*
X74229686Y-85358000D01*
X75214000Y-85358000D01*
X75214000Y-84760172D01*
X75213999Y-84760155D01*
X75207598Y-84700627D01*
X75207596Y-84700620D01*
X75157354Y-84565913D01*
X75157350Y-84565906D01*
X75071190Y-84450812D01*
X75071187Y-84450809D01*
X74956093Y-84364649D01*
X74956086Y-84364645D01*
X74821379Y-84314403D01*
X74821372Y-84314401D01*
X74761844Y-84308000D01*
X74164000Y-84308000D01*
X74164000Y-85292314D01*
X74159606Y-85287920D01*
X74068394Y-85235259D01*
X73966661Y-85208000D01*
X73861339Y-85208000D01*
X73759606Y-85235259D01*
X73668394Y-85287920D01*
X73664000Y-85292314D01*
X73664000Y-84308000D01*
X73066155Y-84308000D01*
X73006627Y-84314401D01*
X73006620Y-84314403D01*
X72871913Y-84364645D01*
X72871906Y-84364649D01*
X72756812Y-84450809D01*
X72756809Y-84450812D01*
X72670649Y-84565906D01*
X72670645Y-84565913D01*
X72620403Y-84700620D01*
X72620401Y-84700626D01*
X72616378Y-84738046D01*
X72589639Y-84802597D01*
X72532246Y-84842444D01*
X72462421Y-84844937D01*
X72402333Y-84809283D01*
X72392770Y-84797674D01*
X72365966Y-84760781D01*
X72221219Y-84616034D01*
X72221213Y-84616028D01*
X72055613Y-84495715D01*
X72055612Y-84495714D01*
X72055610Y-84495713D01*
X71967487Y-84450812D01*
X71873223Y-84402781D01*
X71678534Y-84339522D01*
X71503995Y-84311878D01*
X71476352Y-84307500D01*
X71271648Y-84307500D01*
X71247329Y-84311351D01*
X71069465Y-84339522D01*
X70874776Y-84402781D01*
X70692386Y-84495715D01*
X70526786Y-84616028D01*
X70382028Y-84760786D01*
X70261715Y-84926386D01*
X70214485Y-85019080D01*
X70166510Y-85069876D01*
X70098689Y-85086671D01*
X70032554Y-85064134D01*
X69993515Y-85019080D01*
X69946419Y-84926650D01*
X69946287Y-84926390D01*
X69890577Y-84849711D01*
X69825971Y-84760786D01*
X69681213Y-84616028D01*
X69515613Y-84495715D01*
X69515612Y-84495714D01*
X69515610Y-84495713D01*
X69427487Y-84450812D01*
X69333223Y-84402781D01*
X69138534Y-84339522D01*
X68963995Y-84311878D01*
X68936352Y-84307500D01*
X68731648Y-84307500D01*
X68707329Y-84311351D01*
X68529465Y-84339522D01*
X68334776Y-84402781D01*
X68152386Y-84495715D01*
X67986786Y-84616028D01*
X67842028Y-84760786D01*
X67721715Y-84926386D01*
X67674485Y-85019080D01*
X67626510Y-85069876D01*
X67558689Y-85086671D01*
X67492554Y-85064134D01*
X67453515Y-85019080D01*
X67406419Y-84926650D01*
X67406287Y-84926390D01*
X67350577Y-84849711D01*
X67285971Y-84760786D01*
X67141213Y-84616028D01*
X66975613Y-84495715D01*
X66975612Y-84495714D01*
X66975610Y-84495713D01*
X66887487Y-84450812D01*
X66793223Y-84402781D01*
X66598534Y-84339522D01*
X66423995Y-84311878D01*
X66396352Y-84307500D01*
X66191648Y-84307500D01*
X66167329Y-84311351D01*
X65989465Y-84339522D01*
X65794776Y-84402781D01*
X65612386Y-84495715D01*
X65446786Y-84616028D01*
X65302028Y-84760786D01*
X65181715Y-84926386D01*
X65134485Y-85019080D01*
X65086510Y-85069876D01*
X65018689Y-85086671D01*
X64952554Y-85064134D01*
X64913515Y-85019080D01*
X64866419Y-84926650D01*
X64866287Y-84926390D01*
X64810577Y-84849711D01*
X64745971Y-84760786D01*
X64601213Y-84616028D01*
X64435613Y-84495715D01*
X64435612Y-84495714D01*
X64435610Y-84495713D01*
X64347487Y-84450812D01*
X64253223Y-84402781D01*
X64058534Y-84339522D01*
X63883995Y-84311878D01*
X63856352Y-84307500D01*
X63651648Y-84307500D01*
X63627329Y-84311351D01*
X63449465Y-84339522D01*
X63254776Y-84402781D01*
X63072386Y-84495715D01*
X62906786Y-84616028D01*
X62762028Y-84760786D01*
X62641715Y-84926386D01*
X62594485Y-85019080D01*
X62546510Y-85069876D01*
X62478689Y-85086671D01*
X62412554Y-85064134D01*
X62373515Y-85019080D01*
X62326419Y-84926650D01*
X62326287Y-84926390D01*
X62270577Y-84849711D01*
X62205971Y-84760786D01*
X62061213Y-84616028D01*
X61895613Y-84495715D01*
X61895612Y-84495714D01*
X61895610Y-84495713D01*
X61807487Y-84450812D01*
X61713223Y-84402781D01*
X61518534Y-84339522D01*
X61343995Y-84311878D01*
X61316352Y-84307500D01*
X61111648Y-84307500D01*
X61087329Y-84311351D01*
X60909465Y-84339522D01*
X60714776Y-84402781D01*
X60532386Y-84495715D01*
X60366786Y-84616028D01*
X60222028Y-84760786D01*
X60101713Y-84926388D01*
X60054203Y-85019630D01*
X60006228Y-85070426D01*
X59938407Y-85087220D01*
X59872272Y-85064682D01*
X59833234Y-85019628D01*
X59785861Y-84926652D01*
X59665582Y-84761105D01*
X59665582Y-84761104D01*
X59520895Y-84616417D01*
X59355349Y-84496140D01*
X59173029Y-84403244D01*
X58978413Y-84340009D01*
X58924000Y-84331390D01*
X58924000Y-85292314D01*
X58919606Y-85287920D01*
X58828394Y-85235259D01*
X58726661Y-85208000D01*
X58621339Y-85208000D01*
X58519606Y-85235259D01*
X58428394Y-85287920D01*
X58424000Y-85292314D01*
X58424000Y-84331390D01*
X58369586Y-84340009D01*
X58174970Y-84403244D01*
X57992650Y-84496140D01*
X57827105Y-84616417D01*
X57827104Y-84616417D01*
X57682417Y-84761104D01*
X57682417Y-84761105D01*
X57562140Y-84926650D01*
X57514765Y-85019629D01*
X57466790Y-85070425D01*
X57398969Y-85087220D01*
X57332834Y-85064682D01*
X57293795Y-85019629D01*
X57246419Y-84926650D01*
X57246287Y-84926390D01*
X57190577Y-84849711D01*
X57125971Y-84760786D01*
X56981213Y-84616028D01*
X56815613Y-84495715D01*
X56815612Y-84495714D01*
X56815610Y-84495713D01*
X56727487Y-84450812D01*
X56633223Y-84402781D01*
X56438534Y-84339522D01*
X56263995Y-84311878D01*
X56236352Y-84307500D01*
X56031648Y-84307500D01*
X56007329Y-84311351D01*
X55829465Y-84339522D01*
X55634776Y-84402781D01*
X55452386Y-84495715D01*
X55286786Y-84616028D01*
X55142028Y-84760786D01*
X55021715Y-84926386D01*
X54928781Y-85108776D01*
X54865522Y-85303465D01*
X54833500Y-85505648D01*
X40886500Y-85505648D01*
X40886500Y-82123088D01*
X98251965Y-82123088D01*
X98251965Y-82280781D01*
X98282726Y-82435424D01*
X98282729Y-82435436D01*
X98343067Y-82581107D01*
X98343077Y-82581125D01*
X98396287Y-82660760D01*
X98417165Y-82727437D01*
X98398680Y-82794817D01*
X98396288Y-82798539D01*
X98376611Y-82827988D01*
X98376602Y-82828004D01*
X98316264Y-82973675D01*
X98316261Y-82973687D01*
X98285500Y-83128330D01*
X98285500Y-83286023D01*
X98316261Y-83440666D01*
X98316264Y-83440678D01*
X98376602Y-83586349D01*
X98376609Y-83586362D01*
X98464210Y-83717465D01*
X98464213Y-83717469D01*
X98575707Y-83828963D01*
X98575711Y-83828966D01*
X98706814Y-83916567D01*
X98706827Y-83916574D01*
X98852498Y-83976912D01*
X98852503Y-83976914D01*
X99007153Y-84007676D01*
X99007156Y-84007677D01*
X99007158Y-84007677D01*
X99164844Y-84007677D01*
X99164845Y-84007676D01*
X99319497Y-83976914D01*
X99465179Y-83916571D01*
X99596289Y-83828966D01*
X99707789Y-83717466D01*
X99795394Y-83586356D01*
X99798147Y-83579711D01*
X99813485Y-83542681D01*
X99855737Y-83440674D01*
X99886500Y-83286019D01*
X99886500Y-83128335D01*
X99886500Y-83128332D01*
X99886499Y-83128330D01*
X99877760Y-83084397D01*
X99855737Y-82973680D01*
X99824739Y-82898844D01*
X99795397Y-82828004D01*
X99795390Y-82827991D01*
X99742176Y-82748351D01*
X99721298Y-82681674D01*
X99739782Y-82614293D01*
X99742144Y-82610617D01*
X99761859Y-82581114D01*
X99822202Y-82435432D01*
X99852965Y-82280777D01*
X99852965Y-82123093D01*
X99852965Y-82123090D01*
X99852964Y-82123088D01*
X99840472Y-82060288D01*
X99822202Y-81968438D01*
X99803716Y-81923809D01*
X99761862Y-81822762D01*
X99761855Y-81822749D01*
X99674254Y-81691646D01*
X99674251Y-81691642D01*
X99562757Y-81580148D01*
X99562753Y-81580145D01*
X99437047Y-81496150D01*
X107799500Y-81496150D01*
X107799500Y-81653843D01*
X107830261Y-81808486D01*
X107830264Y-81808498D01*
X107879575Y-81927546D01*
X107887044Y-81997015D01*
X107879575Y-82022450D01*
X107830264Y-82141498D01*
X107830261Y-82141510D01*
X107799500Y-82296153D01*
X107799500Y-82453846D01*
X107830261Y-82608489D01*
X107830264Y-82608501D01*
X107890602Y-82754172D01*
X107890609Y-82754185D01*
X107978210Y-82885288D01*
X107978213Y-82885292D01*
X108089707Y-82996786D01*
X108089711Y-82996789D01*
X108220814Y-83084390D01*
X108220827Y-83084397D01*
X108366498Y-83144735D01*
X108366503Y-83144737D01*
X108521153Y-83175499D01*
X108521156Y-83175500D01*
X108521158Y-83175500D01*
X108678844Y-83175500D01*
X108678845Y-83175499D01*
X108833497Y-83144737D01*
X108979179Y-83084394D01*
X109110289Y-82996789D01*
X109221789Y-82885289D01*
X109309394Y-82754179D01*
X109369737Y-82608497D01*
X109400500Y-82453842D01*
X109400500Y-82296158D01*
X109400500Y-82296155D01*
X109400499Y-82296153D01*
X109397441Y-82280779D01*
X109369737Y-82141503D01*
X109320423Y-82022449D01*
X109317143Y-81991935D01*
X109311696Y-81961740D01*
X109311799Y-81961338D01*
X112996158Y-81961338D01*
X112996158Y-82119031D01*
X113026919Y-82273674D01*
X113026922Y-82273686D01*
X113087260Y-82419357D01*
X113087267Y-82419370D01*
X113174868Y-82550473D01*
X113174871Y-82550477D01*
X113286365Y-82661971D01*
X113286369Y-82661974D01*
X113417472Y-82749575D01*
X113417485Y-82749582D01*
X113563156Y-82809920D01*
X113563161Y-82809922D01*
X113717811Y-82840684D01*
X113717814Y-82840685D01*
X113717816Y-82840685D01*
X113875502Y-82840685D01*
X113875503Y-82840684D01*
X114030155Y-82809922D01*
X114164732Y-82754179D01*
X114175830Y-82749582D01*
X114175830Y-82749581D01*
X114175837Y-82749579D01*
X114306947Y-82661974D01*
X114418447Y-82550474D01*
X114506052Y-82419364D01*
X114566395Y-82273682D01*
X114597158Y-82119027D01*
X114597158Y-81961343D01*
X114597158Y-81961340D01*
X114597157Y-81961338D01*
X114582124Y-81885757D01*
X114578523Y-81867653D01*
X116047500Y-81867653D01*
X116047500Y-82025346D01*
X116078261Y-82179989D01*
X116078264Y-82180001D01*
X116138602Y-82325672D01*
X116138609Y-82325685D01*
X116226210Y-82456788D01*
X116226213Y-82456792D01*
X116337707Y-82568286D01*
X116337711Y-82568289D01*
X116468814Y-82655890D01*
X116468827Y-82655897D01*
X116614498Y-82716235D01*
X116614503Y-82716237D01*
X116769153Y-82746999D01*
X116769156Y-82747000D01*
X116769158Y-82747000D01*
X116926844Y-82747000D01*
X116926845Y-82746999D01*
X117081497Y-82716237D01*
X117194166Y-82669567D01*
X117227172Y-82655897D01*
X117227172Y-82655896D01*
X117227179Y-82655894D01*
X117358289Y-82568289D01*
X117469789Y-82456789D01*
X117557394Y-82325679D01*
X117617737Y-82179997D01*
X117648500Y-82025342D01*
X117648500Y-81867658D01*
X117648500Y-81867655D01*
X117648499Y-81867653D01*
X117646197Y-81856081D01*
X117617737Y-81713003D01*
X117608889Y-81691642D01*
X117557397Y-81567327D01*
X117557393Y-81567320D01*
X117557389Y-81567314D01*
X117493137Y-81471153D01*
X118949500Y-81471153D01*
X118949500Y-81628846D01*
X118980261Y-81783489D01*
X118980264Y-81783501D01*
X119040602Y-81929172D01*
X119040609Y-81929185D01*
X119128210Y-82060288D01*
X119128213Y-82060292D01*
X119165240Y-82097319D01*
X119198725Y-82158642D01*
X119193741Y-82228334D01*
X119165240Y-82272681D01*
X119128213Y-82309707D01*
X119128210Y-82309711D01*
X119040609Y-82440814D01*
X119040602Y-82440827D01*
X118980264Y-82586498D01*
X118980261Y-82586510D01*
X118949500Y-82741153D01*
X118949500Y-82898846D01*
X118980261Y-83053489D01*
X118980264Y-83053501D01*
X119040602Y-83199172D01*
X119040609Y-83199185D01*
X119128210Y-83330288D01*
X119128213Y-83330292D01*
X119165240Y-83367319D01*
X119198725Y-83428642D01*
X119193741Y-83498334D01*
X119165240Y-83542681D01*
X119128213Y-83579707D01*
X119128210Y-83579711D01*
X119040609Y-83710814D01*
X119040602Y-83710827D01*
X118980264Y-83856498D01*
X118980261Y-83856510D01*
X118949500Y-84011153D01*
X118949500Y-84168846D01*
X118980261Y-84323489D01*
X118980264Y-84323501D01*
X119040602Y-84469172D01*
X119040609Y-84469185D01*
X119128210Y-84600288D01*
X119128213Y-84600292D01*
X119165240Y-84637319D01*
X119198725Y-84698642D01*
X119193741Y-84768334D01*
X119165240Y-84812681D01*
X119128213Y-84849707D01*
X119128210Y-84849711D01*
X119040609Y-84980814D01*
X119040602Y-84980827D01*
X118980264Y-85126498D01*
X118980261Y-85126510D01*
X118949500Y-85281153D01*
X118949500Y-85438846D01*
X118980261Y-85593489D01*
X118980264Y-85593501D01*
X119040602Y-85739172D01*
X119040609Y-85739185D01*
X119128210Y-85870288D01*
X119128213Y-85870292D01*
X119165240Y-85907319D01*
X119198725Y-85968642D01*
X119193741Y-86038334D01*
X119165240Y-86082681D01*
X119128213Y-86119707D01*
X119128210Y-86119711D01*
X119040609Y-86250814D01*
X119040602Y-86250827D01*
X118980264Y-86396498D01*
X118980261Y-86396510D01*
X118949500Y-86551153D01*
X118949500Y-86708846D01*
X118980261Y-86863489D01*
X118980264Y-86863501D01*
X119040602Y-87009172D01*
X119040609Y-87009185D01*
X119128210Y-87140288D01*
X119128213Y-87140292D01*
X119165240Y-87177319D01*
X119198725Y-87238642D01*
X119193741Y-87308334D01*
X119165240Y-87352681D01*
X119128213Y-87389707D01*
X119128210Y-87389711D01*
X119040609Y-87520814D01*
X119040602Y-87520827D01*
X118980264Y-87666498D01*
X118980261Y-87666510D01*
X118949500Y-87821153D01*
X118949500Y-87978846D01*
X118980261Y-88133489D01*
X118980264Y-88133501D01*
X119040602Y-88279172D01*
X119040609Y-88279185D01*
X119128210Y-88410288D01*
X119128213Y-88410292D01*
X119165240Y-88447319D01*
X119198725Y-88508642D01*
X119193741Y-88578334D01*
X119165240Y-88622681D01*
X119128213Y-88659707D01*
X119128210Y-88659711D01*
X119040609Y-88790814D01*
X119040602Y-88790827D01*
X118980264Y-88936498D01*
X118980261Y-88936510D01*
X118949500Y-89091153D01*
X118949500Y-89248846D01*
X118980261Y-89403489D01*
X118980264Y-89403501D01*
X119040602Y-89549172D01*
X119040609Y-89549185D01*
X119128210Y-89680288D01*
X119128213Y-89680292D01*
X119165240Y-89717319D01*
X119198725Y-89778642D01*
X119193741Y-89848334D01*
X119165240Y-89892681D01*
X119128213Y-89929707D01*
X119128210Y-89929711D01*
X119040609Y-90060814D01*
X119040602Y-90060827D01*
X118980264Y-90206498D01*
X118980261Y-90206510D01*
X118949500Y-90361153D01*
X118949500Y-90518846D01*
X118980261Y-90673489D01*
X118980264Y-90673501D01*
X119040602Y-90819172D01*
X119040609Y-90819185D01*
X119128210Y-90950288D01*
X119128213Y-90950292D01*
X119165240Y-90987319D01*
X119198725Y-91048642D01*
X119193741Y-91118334D01*
X119165240Y-91162681D01*
X119128213Y-91199707D01*
X119128210Y-91199711D01*
X119040609Y-91330814D01*
X119040602Y-91330827D01*
X118980264Y-91476498D01*
X118980261Y-91476510D01*
X118949500Y-91631153D01*
X118949500Y-91788846D01*
X118980261Y-91943489D01*
X118980264Y-91943501D01*
X119040602Y-92089172D01*
X119040609Y-92089185D01*
X119128210Y-92220288D01*
X119128213Y-92220292D01*
X119165240Y-92257319D01*
X119198725Y-92318642D01*
X119193741Y-92388334D01*
X119165240Y-92432681D01*
X119128213Y-92469707D01*
X119128210Y-92469711D01*
X119040609Y-92600814D01*
X119040602Y-92600827D01*
X118980264Y-92746498D01*
X118980261Y-92746510D01*
X118949500Y-92901153D01*
X118949500Y-93058846D01*
X118980261Y-93213489D01*
X118980264Y-93213501D01*
X119040602Y-93359172D01*
X119040609Y-93359185D01*
X119128210Y-93490288D01*
X119128213Y-93490292D01*
X119165240Y-93527319D01*
X119198725Y-93588642D01*
X119193741Y-93658334D01*
X119165240Y-93702681D01*
X119128213Y-93739707D01*
X119128210Y-93739711D01*
X119040609Y-93870814D01*
X119040602Y-93870827D01*
X118980264Y-94016498D01*
X118980261Y-94016510D01*
X118949500Y-94171153D01*
X118949500Y-94328846D01*
X118980261Y-94483489D01*
X118980264Y-94483501D01*
X119040602Y-94629172D01*
X119040609Y-94629185D01*
X119128210Y-94760288D01*
X119128213Y-94760292D01*
X119239707Y-94871786D01*
X119239711Y-94871789D01*
X119370814Y-94959390D01*
X119370827Y-94959397D01*
X119453670Y-94993711D01*
X119516503Y-95019737D01*
X119671153Y-95050499D01*
X119671156Y-95050500D01*
X119671158Y-95050500D01*
X119828844Y-95050500D01*
X119828845Y-95050499D01*
X119983497Y-95019737D01*
X120129179Y-94959394D01*
X120260289Y-94871789D01*
X120371789Y-94760289D01*
X120459394Y-94629179D01*
X120519737Y-94483497D01*
X120550500Y-94328842D01*
X120550500Y-94171158D01*
X120550500Y-94171155D01*
X120550499Y-94171153D01*
X136449500Y-94171153D01*
X136449500Y-94328846D01*
X136480261Y-94483489D01*
X136480264Y-94483501D01*
X136540602Y-94629172D01*
X136540609Y-94629185D01*
X136628210Y-94760288D01*
X136628213Y-94760292D01*
X136665240Y-94797319D01*
X136698725Y-94858642D01*
X136693741Y-94928334D01*
X136665240Y-94972681D01*
X136628213Y-95009707D01*
X136628210Y-95009711D01*
X136540609Y-95140814D01*
X136540602Y-95140827D01*
X136480264Y-95286498D01*
X136480261Y-95286510D01*
X136449500Y-95441153D01*
X136449500Y-95598846D01*
X136480261Y-95753489D01*
X136480264Y-95753501D01*
X136540602Y-95899172D01*
X136540609Y-95899185D01*
X136628210Y-96030288D01*
X136628213Y-96030292D01*
X136739707Y-96141786D01*
X136739711Y-96141789D01*
X136870814Y-96229390D01*
X136870827Y-96229397D01*
X137016498Y-96289735D01*
X137016503Y-96289737D01*
X137171153Y-96320499D01*
X137171156Y-96320500D01*
X137171158Y-96320500D01*
X137328844Y-96320500D01*
X137328845Y-96320499D01*
X137483497Y-96289737D01*
X137629179Y-96229394D01*
X137760289Y-96141789D01*
X137871789Y-96030289D01*
X137959394Y-95899179D01*
X138019737Y-95753497D01*
X138050500Y-95598842D01*
X138050500Y-95441158D01*
X138050500Y-95441155D01*
X138047317Y-95425153D01*
X138645500Y-95425153D01*
X138645500Y-95582846D01*
X138676261Y-95737489D01*
X138676264Y-95737501D01*
X138736602Y-95883172D01*
X138736609Y-95883185D01*
X138824210Y-96014288D01*
X138824213Y-96014292D01*
X138935707Y-96125786D01*
X138935711Y-96125789D01*
X139066814Y-96213390D01*
X139066827Y-96213397D01*
X139212498Y-96273735D01*
X139212503Y-96273737D01*
X139367153Y-96304499D01*
X139367156Y-96304500D01*
X139367158Y-96304500D01*
X139524844Y-96304500D01*
X139524845Y-96304499D01*
X139679497Y-96273737D01*
X139825179Y-96213394D01*
X139956289Y-96125789D01*
X140067789Y-96014289D01*
X140155394Y-95883179D01*
X140215737Y-95737497D01*
X140246500Y-95582842D01*
X140246500Y-95425158D01*
X140246500Y-95425155D01*
X140246499Y-95425153D01*
X140218921Y-95286510D01*
X140215737Y-95270503D01*
X140208162Y-95252214D01*
X140155397Y-95124827D01*
X140155390Y-95124814D01*
X140067789Y-94993711D01*
X140067786Y-94993707D01*
X139956292Y-94882213D01*
X139956288Y-94882210D01*
X139825185Y-94794609D01*
X139825172Y-94794602D01*
X139679501Y-94734264D01*
X139679489Y-94734261D01*
X139524845Y-94703500D01*
X139524842Y-94703500D01*
X139367158Y-94703500D01*
X139367155Y-94703500D01*
X139212510Y-94734261D01*
X139212498Y-94734264D01*
X139066827Y-94794602D01*
X139066814Y-94794609D01*
X138935711Y-94882210D01*
X138935707Y-94882213D01*
X138824213Y-94993707D01*
X138824210Y-94993711D01*
X138736609Y-95124814D01*
X138736602Y-95124827D01*
X138676264Y-95270498D01*
X138676261Y-95270510D01*
X138645500Y-95425153D01*
X138047317Y-95425153D01*
X138026179Y-95318890D01*
X138019737Y-95286503D01*
X138004617Y-95250000D01*
X137959397Y-95140827D01*
X137959390Y-95140814D01*
X137871789Y-95009711D01*
X137871786Y-95009707D01*
X137834760Y-94972681D01*
X137801275Y-94911358D01*
X137806259Y-94841666D01*
X137834760Y-94797319D01*
X137871786Y-94760292D01*
X137871789Y-94760289D01*
X137959394Y-94629179D01*
X137977054Y-94586543D01*
X141239499Y-94586543D01*
X141277947Y-94779829D01*
X141277950Y-94779839D01*
X141352324Y-94959394D01*
X141353368Y-94961914D01*
X141374614Y-94993711D01*
X141414971Y-95054110D01*
X141435848Y-95120787D01*
X141417363Y-95188167D01*
X141414971Y-95191890D01*
X141353366Y-95284089D01*
X141277950Y-95466160D01*
X141277947Y-95466170D01*
X141239500Y-95659456D01*
X141239500Y-95659459D01*
X141239500Y-95856541D01*
X141239500Y-95856543D01*
X141239499Y-95856543D01*
X141277947Y-96049829D01*
X141277950Y-96049839D01*
X141352324Y-96229394D01*
X141353368Y-96231914D01*
X141381312Y-96273735D01*
X141414971Y-96324110D01*
X141435848Y-96390787D01*
X141417363Y-96458167D01*
X141414971Y-96461890D01*
X141353366Y-96554089D01*
X141277950Y-96736160D01*
X141277947Y-96736170D01*
X141239500Y-96929456D01*
X141239500Y-96929459D01*
X141239500Y-97126541D01*
X141239500Y-97126543D01*
X141239499Y-97126543D01*
X141277947Y-97319829D01*
X141277950Y-97319839D01*
X141353364Y-97501907D01*
X141353371Y-97501920D01*
X141462860Y-97665781D01*
X141462863Y-97665785D01*
X141602214Y-97805136D01*
X141602218Y-97805139D01*
X141766079Y-97914628D01*
X141766092Y-97914635D01*
X141948160Y-97990049D01*
X141948165Y-97990051D01*
X141948169Y-97990051D01*
X141948170Y-97990052D01*
X142141456Y-98028500D01*
X142141459Y-98028500D01*
X142338543Y-98028500D01*
X142468582Y-98002632D01*
X142531835Y-97990051D01*
X142713914Y-97914632D01*
X142877782Y-97805139D01*
X143017139Y-97665782D01*
X143126632Y-97501914D01*
X143134160Y-97483741D01*
X143165921Y-97407061D01*
X143202051Y-97319835D01*
X143240500Y-97126541D01*
X143240500Y-96929459D01*
X143240500Y-96929456D01*
X143202052Y-96736170D01*
X143202051Y-96736169D01*
X143202051Y-96736165D01*
X143179234Y-96681080D01*
X143126635Y-96554092D01*
X143126633Y-96554088D01*
X143126632Y-96554086D01*
X143065029Y-96461891D01*
X143044151Y-96395214D01*
X143062635Y-96327834D01*
X143065029Y-96324109D01*
X143087995Y-96289738D01*
X143126632Y-96231914D01*
X143127678Y-96229390D01*
X143202049Y-96049839D01*
X143202051Y-96049835D01*
X143215238Y-95983541D01*
X143240500Y-95856543D01*
X143240500Y-95659456D01*
X143202052Y-95466170D01*
X143202051Y-95466169D01*
X143202051Y-95466165D01*
X143191691Y-95441153D01*
X143126635Y-95284092D01*
X143126633Y-95284088D01*
X143126632Y-95284086D01*
X143065029Y-95191891D01*
X143044151Y-95125214D01*
X143062635Y-95057834D01*
X143065029Y-95054109D01*
X143087995Y-95019738D01*
X143126632Y-94961914D01*
X143127678Y-94959390D01*
X143153018Y-94898211D01*
X143202051Y-94779835D01*
X143215238Y-94713543D01*
X145049499Y-94713543D01*
X145087947Y-94906829D01*
X145087950Y-94906839D01*
X145150494Y-95057834D01*
X145163368Y-95088914D01*
X145198051Y-95140821D01*
X145224971Y-95181110D01*
X145245848Y-95247787D01*
X145227363Y-95315167D01*
X145224971Y-95318890D01*
X145163366Y-95411089D01*
X145087950Y-95593160D01*
X145087947Y-95593170D01*
X145049500Y-95786456D01*
X145049500Y-95786459D01*
X145049500Y-95983541D01*
X145049500Y-95983543D01*
X145049499Y-95983543D01*
X145087947Y-96176829D01*
X145087950Y-96176839D01*
X145150494Y-96327834D01*
X145163368Y-96358914D01*
X145187623Y-96395214D01*
X145224971Y-96451110D01*
X145245848Y-96517787D01*
X145227363Y-96585167D01*
X145224971Y-96588890D01*
X145163366Y-96681089D01*
X145087950Y-96863160D01*
X145087947Y-96863170D01*
X145049500Y-97056456D01*
X145049500Y-97056459D01*
X145049500Y-97253541D01*
X145049500Y-97253543D01*
X145049499Y-97253543D01*
X145087947Y-97446829D01*
X145087950Y-97446839D01*
X145163364Y-97628907D01*
X145163371Y-97628920D01*
X145272860Y-97792781D01*
X145272863Y-97792785D01*
X145412214Y-97932136D01*
X145412218Y-97932139D01*
X145576079Y-98041628D01*
X145576092Y-98041635D01*
X145741335Y-98110080D01*
X145758165Y-98117051D01*
X145758169Y-98117051D01*
X145758170Y-98117052D01*
X145951456Y-98155500D01*
X145951459Y-98155500D01*
X146148543Y-98155500D01*
X146278582Y-98129632D01*
X146341835Y-98117051D01*
X146523914Y-98041632D01*
X146687782Y-97932139D01*
X146827139Y-97792782D01*
X146936632Y-97628914D01*
X146937678Y-97626390D01*
X146964663Y-97561241D01*
X147012051Y-97446835D01*
X147024632Y-97383582D01*
X147050500Y-97253543D01*
X147050500Y-97056456D01*
X147012052Y-96863170D01*
X147012051Y-96863169D01*
X147012051Y-96863165D01*
X146985232Y-96798417D01*
X146936635Y-96681092D01*
X146936633Y-96681088D01*
X146936632Y-96681086D01*
X146875029Y-96588891D01*
X146854151Y-96522214D01*
X146872635Y-96454834D01*
X146875029Y-96451109D01*
X146915335Y-96390787D01*
X146936632Y-96358914D01*
X147012051Y-96176835D01*
X147024632Y-96113582D01*
X147050500Y-95983543D01*
X147050500Y-95786456D01*
X147012052Y-95593170D01*
X147012051Y-95593169D01*
X147012051Y-95593165D01*
X147007775Y-95582842D01*
X146936635Y-95411092D01*
X146936633Y-95411088D01*
X146936632Y-95411086D01*
X146875029Y-95318891D01*
X146854151Y-95252214D01*
X146872635Y-95184834D01*
X146875029Y-95181109D01*
X146887872Y-95161887D01*
X146936632Y-95088914D01*
X147012051Y-94906835D01*
X147033835Y-94797319D01*
X147050500Y-94713543D01*
X147050500Y-94516456D01*
X147012052Y-94323170D01*
X147012051Y-94323169D01*
X147012051Y-94323165D01*
X146969680Y-94220873D01*
X146962212Y-94151407D01*
X146984977Y-94099111D01*
X146993796Y-94087331D01*
X147044091Y-93952483D01*
X147050500Y-93892873D01*
X147050499Y-92797128D01*
X147044091Y-92737517D01*
X146993796Y-92602669D01*
X146993795Y-92602668D01*
X146993793Y-92602664D01*
X146907547Y-92487455D01*
X146907544Y-92487452D01*
X146792335Y-92401206D01*
X146792328Y-92401202D01*
X146657482Y-92350908D01*
X146657483Y-92350908D01*
X146597883Y-92344501D01*
X146597881Y-92344500D01*
X146597873Y-92344500D01*
X146597864Y-92344500D01*
X145502129Y-92344500D01*
X145502123Y-92344501D01*
X145442516Y-92350908D01*
X145307671Y-92401202D01*
X145307664Y-92401206D01*
X145192455Y-92487452D01*
X145192452Y-92487455D01*
X145106206Y-92602664D01*
X145106202Y-92602671D01*
X145055908Y-92737517D01*
X145049501Y-92797116D01*
X145049501Y-92797123D01*
X145049500Y-92797135D01*
X145049500Y-93892870D01*
X145049501Y-93892876D01*
X145055908Y-93952483D01*
X145106202Y-94087328D01*
X145106206Y-94087335D01*
X145115023Y-94099113D01*
X145139440Y-94164578D01*
X145130318Y-94220874D01*
X145104500Y-94283206D01*
X145087950Y-94323164D01*
X145087948Y-94323168D01*
X145087947Y-94323171D01*
X145049500Y-94516456D01*
X145049500Y-94516459D01*
X145049500Y-94713541D01*
X145049500Y-94713543D01*
X145049499Y-94713543D01*
X143215238Y-94713543D01*
X143231279Y-94632900D01*
X143240500Y-94586543D01*
X143240500Y-94389456D01*
X143202052Y-94196170D01*
X143202051Y-94196169D01*
X143202051Y-94196165D01*
X143159680Y-94093873D01*
X143152212Y-94024407D01*
X143174977Y-93972111D01*
X143183796Y-93960331D01*
X143234091Y-93825483D01*
X143240500Y-93765873D01*
X143240499Y-92670128D01*
X143234091Y-92610517D01*
X143229531Y-92598292D01*
X143183797Y-92475671D01*
X143183793Y-92475664D01*
X143097547Y-92360455D01*
X143097544Y-92360452D01*
X142982335Y-92274206D01*
X142982328Y-92274202D01*
X142847482Y-92223908D01*
X142847483Y-92223908D01*
X142787883Y-92217501D01*
X142787881Y-92217500D01*
X142787873Y-92217500D01*
X142787864Y-92217500D01*
X141692129Y-92217500D01*
X141692123Y-92217501D01*
X141632516Y-92223908D01*
X141497671Y-92274202D01*
X141497664Y-92274206D01*
X141382455Y-92360452D01*
X141382452Y-92360455D01*
X141296206Y-92475664D01*
X141296202Y-92475671D01*
X141245908Y-92610517D01*
X141239501Y-92670116D01*
X141239501Y-92670123D01*
X141239500Y-92670135D01*
X141239500Y-93765870D01*
X141239501Y-93765876D01*
X141245908Y-93825483D01*
X141296202Y-93960328D01*
X141296206Y-93960335D01*
X141305023Y-93972113D01*
X141329440Y-94037578D01*
X141320318Y-94093874D01*
X141318151Y-94099107D01*
X141277950Y-94196164D01*
X141277948Y-94196168D01*
X141277947Y-94196171D01*
X141239500Y-94389456D01*
X141239500Y-94389459D01*
X141239500Y-94586541D01*
X141239500Y-94586543D01*
X141239499Y-94586543D01*
X137977054Y-94586543D01*
X138019737Y-94483497D01*
X138050500Y-94328842D01*
X138050500Y-94171158D01*
X138050500Y-94171155D01*
X138050499Y-94171153D01*
X138036168Y-94099107D01*
X138019737Y-94016503D01*
X137996469Y-93960328D01*
X137959397Y-93870827D01*
X137959390Y-93870814D01*
X137871789Y-93739711D01*
X137871786Y-93739707D01*
X137760292Y-93628213D01*
X137760288Y-93628210D01*
X137629185Y-93540609D01*
X137629172Y-93540602D01*
X137483501Y-93480264D01*
X137483489Y-93480261D01*
X137328845Y-93449500D01*
X137328842Y-93449500D01*
X137171158Y-93449500D01*
X137171155Y-93449500D01*
X137016510Y-93480261D01*
X137016498Y-93480264D01*
X136870827Y-93540602D01*
X136870814Y-93540609D01*
X136739711Y-93628210D01*
X136739707Y-93628213D01*
X136628213Y-93739707D01*
X136628210Y-93739711D01*
X136540609Y-93870814D01*
X136540602Y-93870827D01*
X136480264Y-94016498D01*
X136480261Y-94016510D01*
X136449500Y-94171153D01*
X120550499Y-94171153D01*
X120536168Y-94099107D01*
X120519737Y-94016503D01*
X120496469Y-93960328D01*
X120459397Y-93870827D01*
X120459390Y-93870814D01*
X120371789Y-93739711D01*
X120371786Y-93739707D01*
X120334760Y-93702681D01*
X120301275Y-93641358D01*
X120306259Y-93571666D01*
X120334760Y-93527319D01*
X120371786Y-93490292D01*
X120371789Y-93490289D01*
X120459394Y-93359179D01*
X120519737Y-93213497D01*
X120550500Y-93058842D01*
X120550500Y-92901158D01*
X120550500Y-92901155D01*
X120550499Y-92901153D01*
X120541863Y-92857737D01*
X120519737Y-92746503D01*
X120516015Y-92737517D01*
X120506381Y-92714258D01*
X120459397Y-92600827D01*
X120459390Y-92600814D01*
X120371789Y-92469711D01*
X120371786Y-92469707D01*
X120334760Y-92432681D01*
X120301275Y-92371358D01*
X120306259Y-92301666D01*
X120334760Y-92257319D01*
X120371786Y-92220292D01*
X120371789Y-92220289D01*
X120459394Y-92089179D01*
X120519737Y-91943497D01*
X120550500Y-91788842D01*
X120550500Y-91631158D01*
X120550500Y-91631155D01*
X120550499Y-91631153D01*
X120537015Y-91563366D01*
X120519737Y-91476503D01*
X120518538Y-91473609D01*
X120489092Y-91402518D01*
X120471958Y-91361153D01*
X138899500Y-91361153D01*
X138899500Y-91518846D01*
X138930261Y-91673489D01*
X138930264Y-91673501D01*
X138990602Y-91819172D01*
X138990609Y-91819185D01*
X139078210Y-91950288D01*
X139078213Y-91950292D01*
X139189707Y-92061786D01*
X139189711Y-92061789D01*
X139320814Y-92149390D01*
X139320827Y-92149397D01*
X139431564Y-92195265D01*
X139466503Y-92209737D01*
X139621153Y-92240499D01*
X139621156Y-92240500D01*
X139621158Y-92240500D01*
X139778844Y-92240500D01*
X139778845Y-92240499D01*
X139933497Y-92209737D01*
X140079179Y-92149394D01*
X140210289Y-92061789D01*
X140321789Y-91950289D01*
X140409394Y-91819179D01*
X140469737Y-91673497D01*
X140500500Y-91518842D01*
X140500500Y-91361158D01*
X140500500Y-91361155D01*
X140500499Y-91361153D01*
X140494467Y-91330827D01*
X140469737Y-91206503D01*
X140466922Y-91199707D01*
X140409397Y-91060827D01*
X140409390Y-91060814D01*
X140321789Y-90929711D01*
X140321786Y-90929707D01*
X140210292Y-90818213D01*
X140210288Y-90818210D01*
X140079185Y-90730609D01*
X140079172Y-90730602D01*
X139933501Y-90670264D01*
X139933489Y-90670261D01*
X139778845Y-90639500D01*
X139778842Y-90639500D01*
X139621158Y-90639500D01*
X139621155Y-90639500D01*
X139466510Y-90670261D01*
X139466498Y-90670264D01*
X139320827Y-90730602D01*
X139320814Y-90730609D01*
X139189711Y-90818210D01*
X139189707Y-90818213D01*
X139078213Y-90929707D01*
X139078210Y-90929711D01*
X138990609Y-91060814D01*
X138990602Y-91060827D01*
X138930264Y-91206498D01*
X138930261Y-91206510D01*
X138899500Y-91361153D01*
X120471958Y-91361153D01*
X120459397Y-91330827D01*
X120459390Y-91330814D01*
X120371789Y-91199711D01*
X120371786Y-91199707D01*
X120334760Y-91162681D01*
X120301275Y-91101358D01*
X120306259Y-91031666D01*
X120334760Y-90987319D01*
X120371786Y-90950292D01*
X120371789Y-90950289D01*
X120459394Y-90819179D01*
X120519737Y-90673497D01*
X120550500Y-90518842D01*
X120550500Y-90361158D01*
X120550500Y-90361155D01*
X120550499Y-90361153D01*
X120519738Y-90206510D01*
X120519737Y-90206503D01*
X120519735Y-90206498D01*
X120459397Y-90060827D01*
X120459390Y-90060814D01*
X120371789Y-89929711D01*
X120371786Y-89929707D01*
X120334760Y-89892681D01*
X120301275Y-89831358D01*
X120306259Y-89761666D01*
X120334760Y-89717319D01*
X120371786Y-89680292D01*
X120371789Y-89680289D01*
X120459394Y-89549179D01*
X120519737Y-89403497D01*
X120550500Y-89248842D01*
X120550500Y-89091158D01*
X120550500Y-89091155D01*
X120550499Y-89091153D01*
X120519737Y-88936503D01*
X120489521Y-88863555D01*
X120459397Y-88790827D01*
X120459390Y-88790814D01*
X120371789Y-88659711D01*
X120371786Y-88659707D01*
X120334760Y-88622681D01*
X120301275Y-88561358D01*
X120306259Y-88491666D01*
X120334760Y-88447319D01*
X120371786Y-88410292D01*
X120371789Y-88410289D01*
X120459394Y-88279179D01*
X120519737Y-88133497D01*
X120550500Y-87978842D01*
X120550500Y-87821158D01*
X120550500Y-87821155D01*
X120550499Y-87821153D01*
X120519738Y-87666510D01*
X120519737Y-87666503D01*
X120477017Y-87563367D01*
X120459397Y-87520827D01*
X120459390Y-87520814D01*
X120371789Y-87389711D01*
X120371786Y-87389707D01*
X120334760Y-87352681D01*
X120301275Y-87291358D01*
X120306259Y-87221666D01*
X120334760Y-87177319D01*
X120371786Y-87140292D01*
X120371789Y-87140289D01*
X120459394Y-87009179D01*
X120519737Y-86863497D01*
X120550500Y-86708842D01*
X120550500Y-86551158D01*
X120550500Y-86551155D01*
X120550499Y-86551153D01*
X120542371Y-86510292D01*
X120519737Y-86396503D01*
X120519593Y-86396155D01*
X120459397Y-86250827D01*
X120459390Y-86250814D01*
X120371789Y-86119711D01*
X120371786Y-86119707D01*
X120334760Y-86082681D01*
X120301275Y-86021358D01*
X120306259Y-85951666D01*
X120334760Y-85907319D01*
X120371786Y-85870292D01*
X120371789Y-85870289D01*
X120459394Y-85739179D01*
X120519737Y-85593497D01*
X120550500Y-85438842D01*
X120550500Y-85281158D01*
X120550500Y-85281155D01*
X120550499Y-85281153D01*
X120534257Y-85199500D01*
X120519737Y-85126503D01*
X120501413Y-85082264D01*
X120459397Y-84980827D01*
X120459390Y-84980814D01*
X120371789Y-84849711D01*
X120371786Y-84849707D01*
X120334760Y-84812681D01*
X120301275Y-84751358D01*
X120306259Y-84681666D01*
X120334760Y-84637319D01*
X120371786Y-84600292D01*
X120371789Y-84600289D01*
X120459394Y-84469179D01*
X120519737Y-84323497D01*
X120550500Y-84168842D01*
X120550500Y-84011158D01*
X120550500Y-84011155D01*
X120550499Y-84011153D01*
X120531685Y-83916571D01*
X120519737Y-83856503D01*
X120462148Y-83717469D01*
X120459397Y-83710827D01*
X120459390Y-83710814D01*
X120371789Y-83579711D01*
X120371786Y-83579707D01*
X120334760Y-83542681D01*
X120301275Y-83481358D01*
X120306259Y-83411666D01*
X120334760Y-83367319D01*
X120371786Y-83330292D01*
X120371789Y-83330289D01*
X120459394Y-83199179D01*
X120519737Y-83053497D01*
X120550500Y-82898842D01*
X120550500Y-82741158D01*
X120550500Y-82741155D01*
X120550499Y-82741153D01*
X120534749Y-82661974D01*
X120519737Y-82586503D01*
X120504815Y-82550477D01*
X120459397Y-82440827D01*
X120459390Y-82440814D01*
X120371789Y-82309711D01*
X120371786Y-82309707D01*
X120334760Y-82272681D01*
X120301275Y-82211358D01*
X120306259Y-82141666D01*
X120334760Y-82097319D01*
X120371786Y-82060292D01*
X120371789Y-82060289D01*
X120459394Y-81929179D01*
X120460071Y-81927546D01*
X120503473Y-81822762D01*
X120519737Y-81783497D01*
X120550500Y-81628842D01*
X120550500Y-81471158D01*
X120550500Y-81471155D01*
X120550499Y-81471153D01*
X136449500Y-81471153D01*
X136449500Y-81628846D01*
X136480261Y-81783489D01*
X136480264Y-81783501D01*
X136540602Y-81929172D01*
X136540609Y-81929185D01*
X136628210Y-82060288D01*
X136628213Y-82060292D01*
X136665240Y-82097319D01*
X136698725Y-82158642D01*
X136693741Y-82228334D01*
X136665240Y-82272681D01*
X136628213Y-82309707D01*
X136628210Y-82309711D01*
X136540609Y-82440814D01*
X136540602Y-82440827D01*
X136480264Y-82586498D01*
X136480261Y-82586510D01*
X136449500Y-82741153D01*
X136449500Y-82898846D01*
X136480261Y-83053489D01*
X136480264Y-83053501D01*
X136540602Y-83199172D01*
X136540609Y-83199185D01*
X136628210Y-83330288D01*
X136628213Y-83330292D01*
X136665240Y-83367319D01*
X136698725Y-83428642D01*
X136693741Y-83498334D01*
X136665240Y-83542681D01*
X136628213Y-83579707D01*
X136628210Y-83579711D01*
X136540609Y-83710814D01*
X136540602Y-83710827D01*
X136480264Y-83856498D01*
X136480261Y-83856510D01*
X136449500Y-84011153D01*
X136449500Y-84168846D01*
X136480261Y-84323489D01*
X136480264Y-84323501D01*
X136540602Y-84469172D01*
X136540609Y-84469185D01*
X136628210Y-84600288D01*
X136628213Y-84600292D01*
X136665240Y-84637319D01*
X136698725Y-84698642D01*
X136693741Y-84768334D01*
X136665240Y-84812681D01*
X136628213Y-84849707D01*
X136628210Y-84849711D01*
X136540609Y-84980814D01*
X136540602Y-84980827D01*
X136480264Y-85126498D01*
X136480261Y-85126510D01*
X136449500Y-85281153D01*
X136449500Y-85438846D01*
X136480261Y-85593489D01*
X136480264Y-85593501D01*
X136540602Y-85739172D01*
X136540609Y-85739185D01*
X136628210Y-85870288D01*
X136628213Y-85870292D01*
X136665240Y-85907319D01*
X136698725Y-85968642D01*
X136693741Y-86038334D01*
X136665240Y-86082681D01*
X136628213Y-86119707D01*
X136628210Y-86119711D01*
X136540609Y-86250814D01*
X136540602Y-86250827D01*
X136480264Y-86396498D01*
X136480261Y-86396510D01*
X136449500Y-86551153D01*
X136449500Y-86708846D01*
X136480261Y-86863489D01*
X136480264Y-86863501D01*
X136540602Y-87009172D01*
X136540609Y-87009185D01*
X136628210Y-87140288D01*
X136628213Y-87140292D01*
X136665240Y-87177319D01*
X136698725Y-87238642D01*
X136693741Y-87308334D01*
X136665240Y-87352681D01*
X136628213Y-87389707D01*
X136628210Y-87389711D01*
X136540609Y-87520814D01*
X136540602Y-87520827D01*
X136480264Y-87666498D01*
X136480261Y-87666510D01*
X136449500Y-87821153D01*
X136449500Y-87978846D01*
X136480261Y-88133489D01*
X136480264Y-88133501D01*
X136540602Y-88279172D01*
X136540609Y-88279185D01*
X136628210Y-88410288D01*
X136628213Y-88410292D01*
X136739707Y-88521786D01*
X136739711Y-88521789D01*
X136870814Y-88609390D01*
X136870827Y-88609397D01*
X136992288Y-88659707D01*
X137016503Y-88669737D01*
X137171153Y-88700499D01*
X137171156Y-88700500D01*
X137171158Y-88700500D01*
X137328844Y-88700500D01*
X137328845Y-88700499D01*
X137483497Y-88669737D01*
X137629179Y-88609394D01*
X137760289Y-88521789D01*
X137871789Y-88410289D01*
X137959394Y-88279179D01*
X138019737Y-88133497D01*
X138050500Y-87978842D01*
X138050500Y-87821158D01*
X138050500Y-87821155D01*
X138050499Y-87821153D01*
X138019738Y-87666510D01*
X138019737Y-87666503D01*
X137977017Y-87563367D01*
X137959397Y-87520827D01*
X137959390Y-87520814D01*
X137871789Y-87389711D01*
X137871786Y-87389707D01*
X137834760Y-87352681D01*
X137801275Y-87291358D01*
X137806259Y-87221666D01*
X137834760Y-87177319D01*
X137871786Y-87140292D01*
X137871789Y-87140289D01*
X137959394Y-87009179D01*
X138019737Y-86863497D01*
X138050500Y-86708842D01*
X138050500Y-86551158D01*
X138050500Y-86551155D01*
X138050499Y-86551153D01*
X138042371Y-86510292D01*
X138019737Y-86396503D01*
X138019593Y-86396155D01*
X137959397Y-86250827D01*
X137959390Y-86250814D01*
X137871789Y-86119711D01*
X137871786Y-86119707D01*
X137834760Y-86082681D01*
X137832724Y-86078953D01*
X137829137Y-86076673D01*
X137816119Y-86048543D01*
X137801275Y-86021358D01*
X137801577Y-86017121D01*
X137799793Y-86013264D01*
X137804048Y-85982569D01*
X137806259Y-85951666D01*
X137808971Y-85947068D01*
X137809389Y-85944056D01*
X137818714Y-85930552D01*
X137824259Y-85921153D01*
X139399500Y-85921153D01*
X139399500Y-86078846D01*
X139430261Y-86233489D01*
X139430264Y-86233501D01*
X139490602Y-86379172D01*
X139490609Y-86379185D01*
X139578210Y-86510288D01*
X139578213Y-86510292D01*
X139689707Y-86621786D01*
X139689711Y-86621789D01*
X139820814Y-86709390D01*
X139820827Y-86709397D01*
X139955518Y-86765187D01*
X139966503Y-86769737D01*
X140121153Y-86800499D01*
X140121156Y-86800500D01*
X140121158Y-86800500D01*
X140278844Y-86800500D01*
X140278845Y-86800499D01*
X140433497Y-86769737D01*
X140579179Y-86709394D01*
X140710289Y-86621789D01*
X140821789Y-86510289D01*
X140909394Y-86379179D01*
X140969737Y-86233497D01*
X141000500Y-86078842D01*
X141000500Y-85921158D01*
X141000500Y-85921155D01*
X141000499Y-85921153D01*
X140984353Y-85839983D01*
X140969737Y-85766503D01*
X140946478Y-85710351D01*
X140909397Y-85620827D01*
X140909390Y-85620814D01*
X140821789Y-85489711D01*
X140821786Y-85489707D01*
X140710292Y-85378213D01*
X140710288Y-85378210D01*
X140579185Y-85290609D01*
X140579172Y-85290602D01*
X140433501Y-85230264D01*
X140433489Y-85230261D01*
X140278845Y-85199500D01*
X140278842Y-85199500D01*
X140121158Y-85199500D01*
X140121155Y-85199500D01*
X139966510Y-85230261D01*
X139966498Y-85230264D01*
X139820827Y-85290602D01*
X139820814Y-85290609D01*
X139689711Y-85378210D01*
X139689707Y-85378213D01*
X139578213Y-85489707D01*
X139578210Y-85489711D01*
X139490609Y-85620814D01*
X139490602Y-85620827D01*
X139430264Y-85766498D01*
X139430261Y-85766510D01*
X139399500Y-85921153D01*
X137824259Y-85921153D01*
X137828321Y-85914269D01*
X137831408Y-85910669D01*
X137871789Y-85870289D01*
X137959394Y-85739179D01*
X138019737Y-85593497D01*
X138050500Y-85438842D01*
X138050500Y-85281158D01*
X138050500Y-85281155D01*
X138050499Y-85281153D01*
X138034257Y-85199500D01*
X138019737Y-85126503D01*
X138001413Y-85082264D01*
X137959397Y-84980827D01*
X137959390Y-84980814D01*
X137871789Y-84849711D01*
X137871786Y-84849707D01*
X137834760Y-84812681D01*
X137801275Y-84751358D01*
X137806259Y-84681666D01*
X137834760Y-84637319D01*
X137871786Y-84600292D01*
X137871789Y-84600289D01*
X137959394Y-84469179D01*
X138019737Y-84323497D01*
X138050500Y-84168842D01*
X138050500Y-84011158D01*
X138050500Y-84011155D01*
X138050499Y-84011153D01*
X138031685Y-83916571D01*
X138019737Y-83856503D01*
X137962148Y-83717469D01*
X137959397Y-83710827D01*
X137959390Y-83710814D01*
X137871789Y-83579711D01*
X137871786Y-83579707D01*
X137834760Y-83542681D01*
X137801275Y-83481358D01*
X137806259Y-83411666D01*
X137834760Y-83367319D01*
X137871786Y-83330292D01*
X137871789Y-83330289D01*
X137959394Y-83199179D01*
X138019737Y-83053497D01*
X138050500Y-82898842D01*
X138050500Y-82741158D01*
X138050500Y-82741155D01*
X138050499Y-82741153D01*
X138034749Y-82661974D01*
X138019737Y-82586503D01*
X138004815Y-82550477D01*
X137959397Y-82440827D01*
X137959390Y-82440814D01*
X137871789Y-82309711D01*
X137871786Y-82309707D01*
X137834760Y-82272681D01*
X137801275Y-82211358D01*
X137806259Y-82141666D01*
X137834760Y-82097319D01*
X137871786Y-82060292D01*
X137871789Y-82060289D01*
X137959394Y-81929179D01*
X137959396Y-81929172D01*
X137962264Y-81923809D01*
X137964213Y-81924851D01*
X138001796Y-81878174D01*
X138068081Y-81856081D01*
X138135787Y-81873331D01*
X138160240Y-81892319D01*
X138171707Y-81903786D01*
X138171711Y-81903789D01*
X138302814Y-81991390D01*
X138302827Y-81991397D01*
X138448498Y-82051735D01*
X138448503Y-82051737D01*
X138603153Y-82082499D01*
X138603156Y-82082500D01*
X138603158Y-82082500D01*
X138760844Y-82082500D01*
X138760845Y-82082499D01*
X138915497Y-82051737D01*
X139061179Y-81991394D01*
X139192289Y-81903789D01*
X139303789Y-81792289D01*
X139391394Y-81661179D01*
X139394434Y-81653841D01*
X139444091Y-81533956D01*
X139451737Y-81515497D01*
X139482500Y-81360842D01*
X139482500Y-81203158D01*
X139482500Y-81203155D01*
X139482499Y-81203153D01*
X139454960Y-81064708D01*
X139451737Y-81048503D01*
X139448094Y-81039707D01*
X139391397Y-80902827D01*
X139391390Y-80902814D01*
X139303789Y-80771711D01*
X139303786Y-80771707D01*
X139192292Y-80660213D01*
X139192288Y-80660210D01*
X139061185Y-80572609D01*
X139061172Y-80572602D01*
X138915501Y-80512264D01*
X138915489Y-80512261D01*
X138760845Y-80481500D01*
X138760842Y-80481500D01*
X138603158Y-80481500D01*
X138603155Y-80481500D01*
X138448510Y-80512261D01*
X138448498Y-80512264D01*
X138302827Y-80572602D01*
X138302814Y-80572609D01*
X138171711Y-80660210D01*
X138171707Y-80660213D01*
X138060213Y-80771707D01*
X138060210Y-80771711D01*
X137972609Y-80902814D01*
X137969736Y-80908191D01*
X137967797Y-80907154D01*
X137930149Y-80953863D01*
X137863852Y-80975920D01*
X137796155Y-80958634D01*
X137771759Y-80939680D01*
X137760292Y-80928213D01*
X137760288Y-80928210D01*
X137629185Y-80840609D01*
X137629172Y-80840602D01*
X137483501Y-80780264D01*
X137483489Y-80780261D01*
X137328845Y-80749500D01*
X137328842Y-80749500D01*
X137171158Y-80749500D01*
X137171155Y-80749500D01*
X137016510Y-80780261D01*
X137016498Y-80780264D01*
X136870827Y-80840602D01*
X136870814Y-80840609D01*
X136739711Y-80928210D01*
X136739707Y-80928213D01*
X136628213Y-81039707D01*
X136628210Y-81039711D01*
X136540609Y-81170814D01*
X136540602Y-81170827D01*
X136480264Y-81316498D01*
X136480261Y-81316510D01*
X136449500Y-81471153D01*
X120550499Y-81471153D01*
X120519737Y-81316503D01*
X120486850Y-81237106D01*
X120459397Y-81170827D01*
X120459390Y-81170814D01*
X120371789Y-81039711D01*
X120371786Y-81039707D01*
X120260292Y-80928213D01*
X120260288Y-80928210D01*
X120129185Y-80840609D01*
X120129172Y-80840602D01*
X119983501Y-80780264D01*
X119983489Y-80780261D01*
X119828845Y-80749500D01*
X119828842Y-80749500D01*
X119671158Y-80749500D01*
X119671155Y-80749500D01*
X119516510Y-80780261D01*
X119516498Y-80780264D01*
X119370827Y-80840602D01*
X119370814Y-80840609D01*
X119239711Y-80928210D01*
X119239707Y-80928213D01*
X119128213Y-81039707D01*
X119128210Y-81039711D01*
X119040609Y-81170814D01*
X119040602Y-81170827D01*
X118980264Y-81316498D01*
X118980261Y-81316510D01*
X118949500Y-81471153D01*
X117493137Y-81471153D01*
X117469789Y-81436210D01*
X117358292Y-81324713D01*
X117358288Y-81324710D01*
X117227185Y-81237109D01*
X117227172Y-81237102D01*
X117081501Y-81176764D01*
X117081489Y-81176761D01*
X116926845Y-81146000D01*
X116926842Y-81146000D01*
X116769158Y-81146000D01*
X116769155Y-81146000D01*
X116614510Y-81176761D01*
X116614498Y-81176764D01*
X116468827Y-81237102D01*
X116468814Y-81237109D01*
X116337711Y-81324710D01*
X116337707Y-81324713D01*
X116226213Y-81436207D01*
X116226210Y-81436211D01*
X116138609Y-81567314D01*
X116138602Y-81567327D01*
X116078264Y-81712998D01*
X116078261Y-81713010D01*
X116047500Y-81867653D01*
X114578523Y-81867653D01*
X114566396Y-81806693D01*
X114566395Y-81806692D01*
X114566395Y-81806688D01*
X114527588Y-81712998D01*
X114506055Y-81661012D01*
X114506048Y-81660999D01*
X114418447Y-81529896D01*
X114418444Y-81529892D01*
X114306950Y-81418398D01*
X114306946Y-81418395D01*
X114175843Y-81330794D01*
X114175830Y-81330787D01*
X114030159Y-81270449D01*
X114030147Y-81270446D01*
X113875503Y-81239685D01*
X113875500Y-81239685D01*
X113717816Y-81239685D01*
X113717813Y-81239685D01*
X113563168Y-81270446D01*
X113563156Y-81270449D01*
X113417485Y-81330787D01*
X113417472Y-81330794D01*
X113286369Y-81418395D01*
X113286365Y-81418398D01*
X113174871Y-81529892D01*
X113174868Y-81529896D01*
X113087267Y-81660999D01*
X113087260Y-81661012D01*
X113026922Y-81806683D01*
X113026919Y-81806695D01*
X112996158Y-81961338D01*
X109311799Y-81961338D01*
X109313244Y-81955673D01*
X109312955Y-81952981D01*
X109320424Y-81927546D01*
X109369737Y-81808494D01*
X109400500Y-81653839D01*
X109400500Y-81496155D01*
X109400500Y-81496152D01*
X109400499Y-81496150D01*
X109388576Y-81436210D01*
X109369737Y-81341500D01*
X109369735Y-81341495D01*
X109309397Y-81195824D01*
X109309390Y-81195811D01*
X109221789Y-81064708D01*
X109221786Y-81064704D01*
X109110292Y-80953210D01*
X109110288Y-80953207D01*
X108979185Y-80865606D01*
X108979172Y-80865599D01*
X108833501Y-80805261D01*
X108833489Y-80805258D01*
X108678845Y-80774497D01*
X108678842Y-80774497D01*
X108521158Y-80774497D01*
X108521155Y-80774497D01*
X108366510Y-80805258D01*
X108366498Y-80805261D01*
X108220827Y-80865599D01*
X108220814Y-80865606D01*
X108089711Y-80953207D01*
X108089707Y-80953210D01*
X107978213Y-81064704D01*
X107978210Y-81064708D01*
X107890609Y-81195811D01*
X107890602Y-81195824D01*
X107830264Y-81341495D01*
X107830261Y-81341507D01*
X107799500Y-81496150D01*
X99437047Y-81496150D01*
X99431650Y-81492544D01*
X99431637Y-81492537D01*
X99285966Y-81432199D01*
X99285954Y-81432196D01*
X99131310Y-81401435D01*
X99131307Y-81401435D01*
X98973623Y-81401435D01*
X98973620Y-81401435D01*
X98818975Y-81432196D01*
X98818963Y-81432199D01*
X98673292Y-81492537D01*
X98673279Y-81492544D01*
X98542176Y-81580145D01*
X98542172Y-81580148D01*
X98430678Y-81691642D01*
X98430675Y-81691646D01*
X98343074Y-81822749D01*
X98343067Y-81822762D01*
X98282729Y-81968433D01*
X98282726Y-81968445D01*
X98251965Y-82123088D01*
X40886500Y-82123088D01*
X40886500Y-79019504D01*
X93546000Y-79019504D01*
X93546000Y-79418000D01*
X94246000Y-79418000D01*
X94246000Y-79918000D01*
X93546000Y-79918000D01*
X93546000Y-80316495D01*
X93584427Y-80509681D01*
X93584430Y-80509693D01*
X93659807Y-80691671D01*
X93659814Y-80691684D01*
X93769248Y-80855462D01*
X93769251Y-80855466D01*
X93908533Y-80994748D01*
X93908537Y-80994751D01*
X94072315Y-81104185D01*
X94072328Y-81104192D01*
X94254308Y-81179569D01*
X94296000Y-81187862D01*
X94296000Y-80384988D01*
X94305940Y-80402205D01*
X94361795Y-80458060D01*
X94430204Y-80497556D01*
X94506504Y-80518000D01*
X94585496Y-80518000D01*
X94661796Y-80497556D01*
X94730205Y-80458060D01*
X94786060Y-80402205D01*
X94796000Y-80384988D01*
X94796000Y-81187862D01*
X94837690Y-81179569D01*
X94837692Y-81179569D01*
X95019671Y-81104192D01*
X95019684Y-81104185D01*
X95183462Y-80994751D01*
X95183466Y-80994748D01*
X95322748Y-80855466D01*
X95322751Y-80855462D01*
X95432185Y-80691684D01*
X95432192Y-80691671D01*
X95507569Y-80509693D01*
X95507572Y-80509681D01*
X95545999Y-80316495D01*
X95546000Y-80316492D01*
X95546000Y-79918000D01*
X94846000Y-79918000D01*
X94846000Y-79418000D01*
X95401536Y-79418000D01*
X95468575Y-79437685D01*
X95508923Y-79480000D01*
X95515482Y-79491361D01*
X95515484Y-79491364D01*
X95515485Y-79491365D01*
X95622635Y-79598515D01*
X95753865Y-79674281D01*
X95900234Y-79713500D01*
X95900236Y-79713500D01*
X96051764Y-79713500D01*
X96051766Y-79713500D01*
X96198135Y-79674281D01*
X96329365Y-79598515D01*
X96436515Y-79491365D01*
X96512281Y-79360135D01*
X96551500Y-79213766D01*
X96551500Y-79062234D01*
X101180500Y-79062234D01*
X101180500Y-79213765D01*
X101219719Y-79360136D01*
X101257602Y-79425750D01*
X101295485Y-79491365D01*
X101402635Y-79598515D01*
X101533865Y-79674281D01*
X101680234Y-79713500D01*
X101680236Y-79713500D01*
X101831764Y-79713500D01*
X101831766Y-79713500D01*
X101978135Y-79674281D01*
X102109365Y-79598515D01*
X102216515Y-79491365D01*
X102223077Y-79480000D01*
X102273644Y-79431784D01*
X102330464Y-79418000D01*
X102886000Y-79418000D01*
X102886000Y-79918000D01*
X102186000Y-79918000D01*
X102186000Y-80316495D01*
X102224427Y-80509681D01*
X102224430Y-80509693D01*
X102299807Y-80691671D01*
X102299814Y-80691684D01*
X102409248Y-80855462D01*
X102409251Y-80855466D01*
X102548533Y-80994748D01*
X102548537Y-80994751D01*
X102712315Y-81104185D01*
X102712328Y-81104192D01*
X102894308Y-81179569D01*
X102936000Y-81187862D01*
X102936000Y-80384988D01*
X102945940Y-80402205D01*
X103001795Y-80458060D01*
X103070204Y-80497556D01*
X103146504Y-80518000D01*
X103225496Y-80518000D01*
X103301796Y-80497556D01*
X103370205Y-80458060D01*
X103426060Y-80402205D01*
X103436000Y-80384988D01*
X103436000Y-81187862D01*
X103477690Y-81179569D01*
X103477692Y-81179569D01*
X103659671Y-81104192D01*
X103659684Y-81104185D01*
X103823462Y-80994751D01*
X103823466Y-80994748D01*
X103962748Y-80855466D01*
X103962751Y-80855462D01*
X104072185Y-80691684D01*
X104072192Y-80691671D01*
X104147569Y-80509693D01*
X104147572Y-80509681D01*
X104185999Y-80316495D01*
X104186000Y-80316492D01*
X104186000Y-79918000D01*
X103486000Y-79918000D01*
X103486000Y-79418000D01*
X104186000Y-79418000D01*
X104186000Y-79019508D01*
X104185999Y-79019504D01*
X104147572Y-78826318D01*
X104147569Y-78826306D01*
X104072192Y-78644328D01*
X104072185Y-78644315D01*
X103962751Y-78480537D01*
X103962748Y-78480533D01*
X103823466Y-78341251D01*
X103823462Y-78341248D01*
X103659684Y-78231814D01*
X103659671Y-78231807D01*
X103477691Y-78156429D01*
X103477683Y-78156427D01*
X103436000Y-78148135D01*
X103436000Y-78951011D01*
X103426060Y-78933795D01*
X103370205Y-78877940D01*
X103301796Y-78838444D01*
X103225496Y-78818000D01*
X103146504Y-78818000D01*
X103070204Y-78838444D01*
X103001795Y-78877940D01*
X102945940Y-78933795D01*
X102936000Y-78951011D01*
X102936000Y-78148136D01*
X102935999Y-78148135D01*
X102894316Y-78156427D01*
X102894308Y-78156429D01*
X102712328Y-78231807D01*
X102712315Y-78231814D01*
X102548537Y-78341248D01*
X102548533Y-78341251D01*
X102409248Y-78480536D01*
X102296427Y-78649387D01*
X102295003Y-78648435D01*
X102251742Y-78692451D01*
X102183600Y-78707892D01*
X102117927Y-78684041D01*
X102115907Y-78682306D01*
X102115811Y-78682432D01*
X102109367Y-78677487D01*
X102109365Y-78677485D01*
X102034664Y-78634356D01*
X101978136Y-78601719D01*
X101904950Y-78582109D01*
X101831766Y-78562500D01*
X101680234Y-78562500D01*
X101533863Y-78601719D01*
X101402635Y-78677485D01*
X101402632Y-78677487D01*
X101295487Y-78784632D01*
X101295485Y-78784635D01*
X101219719Y-78915863D01*
X101180500Y-79062234D01*
X96551500Y-79062234D01*
X96512281Y-78915865D01*
X96436515Y-78784635D01*
X96329365Y-78677485D01*
X96254664Y-78634356D01*
X96198136Y-78601719D01*
X96124950Y-78582109D01*
X96051766Y-78562500D01*
X95900234Y-78562500D01*
X95753863Y-78601719D01*
X95622635Y-78677485D01*
X95616189Y-78682432D01*
X95614099Y-78679709D01*
X95566217Y-78705466D01*
X95496558Y-78700043D01*
X95440888Y-78657821D01*
X95435299Y-78648976D01*
X95322751Y-78480537D01*
X95322748Y-78480533D01*
X95183466Y-78341251D01*
X95183462Y-78341248D01*
X95019684Y-78231814D01*
X95019671Y-78231807D01*
X94837691Y-78156429D01*
X94837683Y-78156427D01*
X94796000Y-78148135D01*
X94796000Y-78951011D01*
X94786060Y-78933795D01*
X94730205Y-78877940D01*
X94661796Y-78838444D01*
X94585496Y-78818000D01*
X94506504Y-78818000D01*
X94430204Y-78838444D01*
X94361795Y-78877940D01*
X94305940Y-78933795D01*
X94296000Y-78951011D01*
X94296000Y-78148136D01*
X94295999Y-78148135D01*
X94254316Y-78156427D01*
X94254308Y-78156429D01*
X94072328Y-78231807D01*
X94072315Y-78231814D01*
X93908537Y-78341248D01*
X93908533Y-78341251D01*
X93769251Y-78480533D01*
X93769248Y-78480537D01*
X93659814Y-78644315D01*
X93659807Y-78644328D01*
X93584430Y-78826306D01*
X93584427Y-78826318D01*
X93546000Y-79019504D01*
X40886500Y-79019504D01*
X40886500Y-75600014D01*
X41700000Y-75600014D01*
X41700000Y-76550000D01*
X42999999Y-76550000D01*
X42974979Y-76610402D01*
X42950000Y-76735981D01*
X42950000Y-76864019D01*
X42974979Y-76989598D01*
X42999999Y-77050000D01*
X41700000Y-77050000D01*
X41700000Y-77999985D01*
X41710493Y-78102689D01*
X41710494Y-78102696D01*
X41765641Y-78269118D01*
X41765643Y-78269123D01*
X41857684Y-78418344D01*
X41981655Y-78542315D01*
X42130876Y-78634356D01*
X42130881Y-78634358D01*
X42297303Y-78689505D01*
X42297310Y-78689506D01*
X42400014Y-78699999D01*
X42400027Y-78700000D01*
X43350000Y-78700000D01*
X43350000Y-77400001D01*
X43410402Y-77425021D01*
X43535981Y-77450000D01*
X43664019Y-77450000D01*
X43789598Y-77425021D01*
X43850000Y-77400001D01*
X43850000Y-78700000D01*
X44799973Y-78700000D01*
X44799985Y-78699999D01*
X44902689Y-78689506D01*
X44902696Y-78689505D01*
X45069118Y-78634358D01*
X45069123Y-78634356D01*
X45218344Y-78542315D01*
X45342315Y-78418344D01*
X45434356Y-78269123D01*
X45434357Y-78269120D01*
X45450091Y-78221641D01*
X45450092Y-78221639D01*
X45489504Y-78102699D01*
X45489506Y-78102689D01*
X45499999Y-77999985D01*
X45500000Y-77999972D01*
X45500000Y-77050000D01*
X44200001Y-77050000D01*
X44225021Y-76989598D01*
X44250000Y-76864019D01*
X44250000Y-76735981D01*
X44237963Y-76675466D01*
X46700000Y-76675466D01*
X46700000Y-76924533D01*
X46732508Y-77171463D01*
X46796973Y-77412049D01*
X46892283Y-77642148D01*
X46892288Y-77642159D01*
X47016813Y-77857841D01*
X47016819Y-77857849D01*
X47091400Y-77955045D01*
X47998958Y-77047487D01*
X48023978Y-77107890D01*
X48095112Y-77214351D01*
X48185649Y-77304888D01*
X48292110Y-77376022D01*
X48352511Y-77401041D01*
X47444953Y-78308598D01*
X47542150Y-78383180D01*
X47542158Y-78383186D01*
X47757840Y-78507711D01*
X47757851Y-78507716D01*
X47987950Y-78603026D01*
X48228536Y-78667491D01*
X48475466Y-78700000D01*
X48724534Y-78700000D01*
X48971463Y-78667491D01*
X49212049Y-78603026D01*
X49442148Y-78507716D01*
X49442159Y-78507711D01*
X49657855Y-78383178D01*
X49755045Y-78308600D01*
X49755045Y-78308597D01*
X48847488Y-77401041D01*
X48907890Y-77376022D01*
X49014351Y-77304888D01*
X49104888Y-77214351D01*
X49176022Y-77107890D01*
X49201041Y-77047489D01*
X50108597Y-77955045D01*
X50108600Y-77955045D01*
X50183178Y-77857855D01*
X50307711Y-77642159D01*
X50307716Y-77642148D01*
X50403026Y-77412049D01*
X50467491Y-77171463D01*
X50500000Y-76924533D01*
X50500000Y-76675466D01*
X51700000Y-76675466D01*
X51700000Y-76924533D01*
X51732508Y-77171463D01*
X51796973Y-77412049D01*
X51892283Y-77642148D01*
X51892288Y-77642159D01*
X52016813Y-77857841D01*
X52016819Y-77857849D01*
X52091400Y-77955045D01*
X52998958Y-77047487D01*
X53023978Y-77107890D01*
X53095112Y-77214351D01*
X53185649Y-77304888D01*
X53292110Y-77376022D01*
X53352511Y-77401041D01*
X52444953Y-78308598D01*
X52542150Y-78383180D01*
X52542158Y-78383186D01*
X52757840Y-78507711D01*
X52757851Y-78507716D01*
X52987950Y-78603026D01*
X53228536Y-78667491D01*
X53475466Y-78700000D01*
X53724534Y-78700000D01*
X53971463Y-78667491D01*
X54212049Y-78603026D01*
X54442148Y-78507716D01*
X54442159Y-78507711D01*
X54657855Y-78383178D01*
X54755045Y-78308600D01*
X54755045Y-78308597D01*
X53847488Y-77401041D01*
X53907890Y-77376022D01*
X54014351Y-77304888D01*
X54104888Y-77214351D01*
X54176022Y-77107890D01*
X54201041Y-77047488D01*
X55108597Y-77955045D01*
X55108600Y-77955045D01*
X55183178Y-77857855D01*
X55307711Y-77642159D01*
X55307716Y-77642148D01*
X55403026Y-77412049D01*
X55467491Y-77171463D01*
X55500000Y-76924533D01*
X55500000Y-76675466D01*
X56700000Y-76675466D01*
X56700000Y-76924533D01*
X56732508Y-77171463D01*
X56796973Y-77412049D01*
X56892283Y-77642148D01*
X56892288Y-77642159D01*
X57016813Y-77857841D01*
X57016819Y-77857849D01*
X57091400Y-77955045D01*
X57998958Y-77047487D01*
X58023978Y-77107890D01*
X58095112Y-77214351D01*
X58185649Y-77304888D01*
X58292110Y-77376022D01*
X58352511Y-77401041D01*
X57444953Y-78308598D01*
X57542150Y-78383180D01*
X57542158Y-78383186D01*
X57757840Y-78507711D01*
X57757851Y-78507716D01*
X57987950Y-78603026D01*
X58228536Y-78667491D01*
X58475466Y-78700000D01*
X58724534Y-78700000D01*
X58971463Y-78667491D01*
X59212049Y-78603026D01*
X59442148Y-78507716D01*
X59442159Y-78507711D01*
X59657855Y-78383178D01*
X59755045Y-78308600D01*
X59755045Y-78308597D01*
X58847488Y-77401041D01*
X58907890Y-77376022D01*
X59014351Y-77304888D01*
X59104888Y-77214351D01*
X59176022Y-77107890D01*
X59201041Y-77047489D01*
X60108597Y-77955045D01*
X60108600Y-77955045D01*
X60183178Y-77857855D01*
X60307711Y-77642159D01*
X60307716Y-77642148D01*
X60403026Y-77412049D01*
X60467491Y-77171463D01*
X60500000Y-76924533D01*
X60500000Y-76675466D01*
X60499997Y-76675441D01*
X61699500Y-76675441D01*
X61699500Y-76924558D01*
X61699501Y-76924575D01*
X61732017Y-77171561D01*
X61796498Y-77412207D01*
X61891830Y-77642361D01*
X61891837Y-77642376D01*
X62016400Y-77858126D01*
X62168060Y-78055774D01*
X62168066Y-78055781D01*
X62344218Y-78231933D01*
X62344225Y-78231939D01*
X62541873Y-78383599D01*
X62757623Y-78508162D01*
X62757638Y-78508169D01*
X62840075Y-78542315D01*
X62987793Y-78603502D01*
X63228435Y-78667982D01*
X63475435Y-78700500D01*
X63475442Y-78700500D01*
X63724558Y-78700500D01*
X63724565Y-78700500D01*
X63971565Y-78667982D01*
X64212207Y-78603502D01*
X64442373Y-78508164D01*
X64658127Y-78383599D01*
X64855776Y-78231938D01*
X65031938Y-78055776D01*
X65183599Y-77858127D01*
X65308164Y-77642373D01*
X65403502Y-77412207D01*
X65467982Y-77171565D01*
X65500500Y-76924565D01*
X65500500Y-76675441D01*
X66699500Y-76675441D01*
X66699500Y-76924558D01*
X66699501Y-76924575D01*
X66732017Y-77171561D01*
X66796498Y-77412207D01*
X66891830Y-77642361D01*
X66891837Y-77642376D01*
X67016400Y-77858126D01*
X67168060Y-78055774D01*
X67168066Y-78055781D01*
X67344218Y-78231933D01*
X67344225Y-78231939D01*
X67541873Y-78383599D01*
X67757623Y-78508162D01*
X67757638Y-78508169D01*
X67840075Y-78542315D01*
X67987793Y-78603502D01*
X68228435Y-78667982D01*
X68475435Y-78700500D01*
X68475442Y-78700500D01*
X68724558Y-78700500D01*
X68724565Y-78700500D01*
X68971565Y-78667982D01*
X69212207Y-78603502D01*
X69442373Y-78508164D01*
X69658127Y-78383599D01*
X69855776Y-78231938D01*
X70031938Y-78055776D01*
X70183599Y-77858127D01*
X70308164Y-77642373D01*
X70403502Y-77412207D01*
X70467982Y-77171565D01*
X70500500Y-76924565D01*
X70500500Y-76675435D01*
X70467982Y-76428435D01*
X70403502Y-76187793D01*
X70365359Y-76095707D01*
X70327762Y-76004939D01*
X70314202Y-75972205D01*
X70308164Y-75957627D01*
X70267094Y-75886492D01*
X70183599Y-75741873D01*
X70031939Y-75544225D01*
X70031933Y-75544218D01*
X69855781Y-75368066D01*
X69855774Y-75368060D01*
X69658126Y-75216400D01*
X69442376Y-75091837D01*
X69442361Y-75091830D01*
X69374597Y-75063762D01*
X69212207Y-74996498D01*
X69053853Y-74954067D01*
X79576799Y-74954067D01*
X79576799Y-75132730D01*
X79604745Y-75309179D01*
X79659954Y-75479092D01*
X79741059Y-75638268D01*
X79750450Y-75651192D01*
X79750451Y-75651193D01*
X80330799Y-75070845D01*
X80330799Y-75093559D01*
X80356763Y-75190460D01*
X80406923Y-75277339D01*
X80477859Y-75348275D01*
X80564738Y-75398435D01*
X80661639Y-75424399D01*
X80684353Y-75424399D01*
X80104004Y-76004746D01*
X80104004Y-76004747D01*
X80116928Y-76014137D01*
X80276105Y-76095243D01*
X80446018Y-76150452D01*
X80622468Y-76178399D01*
X80801130Y-76178399D01*
X80977579Y-76150452D01*
X81147492Y-76095243D01*
X81306666Y-76014138D01*
X81306671Y-76014136D01*
X81319593Y-76004746D01*
X80739246Y-75424399D01*
X80761959Y-75424399D01*
X80858860Y-75398435D01*
X80945739Y-75348275D01*
X81016675Y-75277339D01*
X81066835Y-75190460D01*
X81092799Y-75093559D01*
X81092799Y-75070845D01*
X81673146Y-75651192D01*
X81676458Y-75650932D01*
X81744835Y-75665298D01*
X81786501Y-75701664D01*
X81841681Y-75777611D01*
X81845689Y-75783127D01*
X81972072Y-75909510D01*
X82116668Y-76014566D01*
X82275919Y-76095708D01*
X82275921Y-76095709D01*
X82434470Y-76147224D01*
X82445903Y-76150939D01*
X82622434Y-76178899D01*
X82622435Y-76178899D01*
X82801165Y-76178899D01*
X82801166Y-76178899D01*
X82977697Y-76150939D01*
X82977700Y-76150938D01*
X82977701Y-76150938D01*
X83147678Y-76095709D01*
X83147678Y-76095708D01*
X83147681Y-76095708D01*
X83306932Y-76014566D01*
X83451528Y-75909510D01*
X83577911Y-75783127D01*
X83682967Y-75638531D01*
X83685073Y-75634395D01*
X83687140Y-75630342D01*
X83731018Y-75544225D01*
X83764109Y-75479280D01*
X83800246Y-75368062D01*
X83819339Y-75309300D01*
X83819339Y-75309299D01*
X83819340Y-75309296D01*
X83847300Y-75132765D01*
X83847300Y-75089504D01*
X93546000Y-75089504D01*
X93546000Y-75238000D01*
X94246000Y-75238000D01*
X94246000Y-75738000D01*
X93546000Y-75738000D01*
X93546000Y-75886495D01*
X93584427Y-76079681D01*
X93584430Y-76079693D01*
X93659807Y-76261671D01*
X93659814Y-76261684D01*
X93769248Y-76425462D01*
X93769251Y-76425466D01*
X93908533Y-76564748D01*
X93908537Y-76564751D01*
X94072315Y-76674185D01*
X94072328Y-76674192D01*
X94254308Y-76749569D01*
X94296000Y-76757862D01*
X94296000Y-75954988D01*
X94305940Y-75972205D01*
X94361795Y-76028060D01*
X94430204Y-76067556D01*
X94506504Y-76088000D01*
X94585496Y-76088000D01*
X94661796Y-76067556D01*
X94730205Y-76028060D01*
X94786060Y-75972205D01*
X94796000Y-75954988D01*
X94796000Y-76757862D01*
X94837690Y-76749569D01*
X94837692Y-76749569D01*
X95019671Y-76674192D01*
X95019684Y-76674185D01*
X95183462Y-76564751D01*
X95183466Y-76564748D01*
X95322748Y-76425466D01*
X95322751Y-76425462D01*
X95432185Y-76261684D01*
X95432192Y-76261671D01*
X95507569Y-76079693D01*
X95507572Y-76079681D01*
X95545999Y-75886495D01*
X95546000Y-75886492D01*
X95546000Y-75738000D01*
X94846000Y-75738000D01*
X94846000Y-75238000D01*
X95546000Y-75238000D01*
X95546000Y-75089508D01*
X95545999Y-75089504D01*
X102186000Y-75089504D01*
X102186000Y-75238000D01*
X102886000Y-75238000D01*
X102886000Y-75738000D01*
X102186000Y-75738000D01*
X102186000Y-75886495D01*
X102224427Y-76079681D01*
X102224430Y-76079693D01*
X102299807Y-76261671D01*
X102299814Y-76261684D01*
X102409248Y-76425462D01*
X102409251Y-76425466D01*
X102548533Y-76564748D01*
X102548537Y-76564751D01*
X102712315Y-76674185D01*
X102712328Y-76674192D01*
X102894308Y-76749569D01*
X102936000Y-76757862D01*
X102936000Y-75954988D01*
X102945940Y-75972205D01*
X103001795Y-76028060D01*
X103070204Y-76067556D01*
X103146504Y-76088000D01*
X103225496Y-76088000D01*
X103301796Y-76067556D01*
X103370205Y-76028060D01*
X103426060Y-75972205D01*
X103436000Y-75954988D01*
X103436000Y-76757862D01*
X103477690Y-76749569D01*
X103477692Y-76749569D01*
X103659671Y-76674192D01*
X103659684Y-76674185D01*
X103823462Y-76564751D01*
X103823466Y-76564748D01*
X103962748Y-76425466D01*
X103962751Y-76425462D01*
X104072185Y-76261684D01*
X104072192Y-76261671D01*
X104147569Y-76079693D01*
X104147572Y-76079681D01*
X104185999Y-75886495D01*
X104186000Y-75886492D01*
X104186000Y-75738000D01*
X103486000Y-75738000D01*
X103486000Y-75238000D01*
X104186000Y-75238000D01*
X104186000Y-75089508D01*
X104185999Y-75089504D01*
X104147572Y-74896318D01*
X104147569Y-74896306D01*
X104072192Y-74714328D01*
X104072185Y-74714315D01*
X103962751Y-74550537D01*
X103962748Y-74550533D01*
X103823466Y-74411251D01*
X103823462Y-74411248D01*
X103659684Y-74301814D01*
X103659671Y-74301807D01*
X103477691Y-74226429D01*
X103477683Y-74226427D01*
X103436000Y-74218135D01*
X103436000Y-75021011D01*
X103426060Y-75003795D01*
X103370205Y-74947940D01*
X103301796Y-74908444D01*
X103225496Y-74888000D01*
X103146504Y-74888000D01*
X103070204Y-74908444D01*
X103001795Y-74947940D01*
X102945940Y-75003795D01*
X102936000Y-75021011D01*
X102936000Y-74218136D01*
X102935999Y-74218135D01*
X102894316Y-74226427D01*
X102894308Y-74226429D01*
X102712328Y-74301807D01*
X102712315Y-74301814D01*
X102548537Y-74411248D01*
X102548533Y-74411251D01*
X102409251Y-74550533D01*
X102409248Y-74550537D01*
X102299814Y-74714315D01*
X102299807Y-74714328D01*
X102224430Y-74896306D01*
X102224427Y-74896318D01*
X102186000Y-75089504D01*
X95545999Y-75089504D01*
X95507572Y-74896318D01*
X95507569Y-74896306D01*
X95432192Y-74714328D01*
X95432185Y-74714315D01*
X95322751Y-74550537D01*
X95322748Y-74550533D01*
X95183466Y-74411251D01*
X95183462Y-74411248D01*
X95019684Y-74301814D01*
X95019671Y-74301807D01*
X94837691Y-74226429D01*
X94837683Y-74226427D01*
X94796000Y-74218135D01*
X94796000Y-75021011D01*
X94786060Y-75003795D01*
X94730205Y-74947940D01*
X94661796Y-74908444D01*
X94585496Y-74888000D01*
X94506504Y-74888000D01*
X94430204Y-74908444D01*
X94361795Y-74947940D01*
X94305940Y-75003795D01*
X94296000Y-75021011D01*
X94296000Y-74218136D01*
X94295999Y-74218135D01*
X94254316Y-74226427D01*
X94254308Y-74226429D01*
X94072328Y-74301807D01*
X94072315Y-74301814D01*
X93908537Y-74411248D01*
X93908533Y-74411251D01*
X93769251Y-74550533D01*
X93769248Y-74550537D01*
X93659814Y-74714315D01*
X93659807Y-74714328D01*
X93584430Y-74896306D01*
X93584427Y-74896318D01*
X93546000Y-75089504D01*
X83847300Y-75089504D01*
X83847300Y-74954033D01*
X83819340Y-74777502D01*
X83819339Y-74777498D01*
X83819339Y-74777497D01*
X83764110Y-74607520D01*
X83764108Y-74607517D01*
X83735076Y-74550537D01*
X83682967Y-74448267D01*
X83577911Y-74303671D01*
X83451528Y-74177288D01*
X83306932Y-74072232D01*
X83147681Y-73991090D01*
X83147678Y-73991088D01*
X82977699Y-73935859D01*
X82860009Y-73917219D01*
X82801166Y-73907899D01*
X82622434Y-73907899D01*
X82563590Y-73917219D01*
X82445901Y-73935859D01*
X82445898Y-73935859D01*
X82275921Y-73991088D01*
X82275918Y-73991090D01*
X82116667Y-74072232D01*
X81972070Y-74177289D01*
X81845691Y-74303668D01*
X81845684Y-74303677D01*
X81786502Y-74385133D01*
X81731172Y-74427799D01*
X81676457Y-74435865D01*
X81673146Y-74435604D01*
X81092799Y-75015951D01*
X81092799Y-74993239D01*
X81066835Y-74896338D01*
X81016675Y-74809459D01*
X80945739Y-74738523D01*
X80858860Y-74688363D01*
X80761959Y-74662399D01*
X80739246Y-74662399D01*
X81319593Y-74082051D01*
X81319592Y-74082050D01*
X81306668Y-74072659D01*
X81147492Y-73991554D01*
X80977579Y-73936345D01*
X80801130Y-73908399D01*
X80622468Y-73908399D01*
X80446018Y-73936345D01*
X80276105Y-73991554D01*
X80116926Y-74072661D01*
X80104004Y-74082050D01*
X80104003Y-74082050D01*
X80684353Y-74662399D01*
X80661639Y-74662399D01*
X80564738Y-74688363D01*
X80477859Y-74738523D01*
X80406923Y-74809459D01*
X80356763Y-74896338D01*
X80330799Y-74993239D01*
X80330799Y-75015952D01*
X79750450Y-74435603D01*
X79750450Y-74435604D01*
X79741061Y-74448526D01*
X79659954Y-74607705D01*
X79604745Y-74777618D01*
X79576799Y-74954067D01*
X69053853Y-74954067D01*
X69053726Y-74954033D01*
X68971565Y-74932018D01*
X68971564Y-74932017D01*
X68971561Y-74932017D01*
X68724575Y-74899501D01*
X68724570Y-74899500D01*
X68724565Y-74899500D01*
X68475435Y-74899500D01*
X68475429Y-74899500D01*
X68475424Y-74899501D01*
X68228438Y-74932017D01*
X67987792Y-74996498D01*
X67757638Y-75091830D01*
X67757623Y-75091837D01*
X67541873Y-75216400D01*
X67344225Y-75368060D01*
X67344218Y-75368066D01*
X67168066Y-75544218D01*
X67168060Y-75544225D01*
X67016400Y-75741873D01*
X66891837Y-75957623D01*
X66891830Y-75957638D01*
X66796498Y-76187792D01*
X66732017Y-76428438D01*
X66699501Y-76675424D01*
X66699500Y-76675441D01*
X65500500Y-76675441D01*
X65500500Y-76675435D01*
X65467982Y-76428435D01*
X65403502Y-76187793D01*
X65331571Y-76014136D01*
X65308169Y-75957638D01*
X65308162Y-75957623D01*
X65183599Y-75741873D01*
X65031939Y-75544225D01*
X65031933Y-75544218D01*
X64855781Y-75368066D01*
X64855774Y-75368060D01*
X64658126Y-75216400D01*
X64442376Y-75091837D01*
X64442361Y-75091830D01*
X64212207Y-74996498D01*
X64053726Y-74954033D01*
X63971565Y-74932018D01*
X63971564Y-74932017D01*
X63971561Y-74932017D01*
X63724575Y-74899501D01*
X63724570Y-74899500D01*
X63724565Y-74899500D01*
X63475435Y-74899500D01*
X63475429Y-74899500D01*
X63475424Y-74899501D01*
X63228438Y-74932017D01*
X62987792Y-74996498D01*
X62757638Y-75091830D01*
X62757623Y-75091837D01*
X62541873Y-75216400D01*
X62344225Y-75368060D01*
X62344218Y-75368066D01*
X62168066Y-75544218D01*
X62168060Y-75544225D01*
X62016400Y-75741873D01*
X61891837Y-75957623D01*
X61891830Y-75957638D01*
X61796498Y-76187792D01*
X61732017Y-76428438D01*
X61699501Y-76675424D01*
X61699500Y-76675441D01*
X60499997Y-76675441D01*
X60467491Y-76428536D01*
X60403026Y-76187950D01*
X60307716Y-75957851D01*
X60307711Y-75957840D01*
X60183186Y-75742158D01*
X60183180Y-75742150D01*
X60108598Y-75644953D01*
X59201041Y-76552510D01*
X59176022Y-76492110D01*
X59104888Y-76385649D01*
X59014351Y-76295112D01*
X58907890Y-76223978D01*
X58847487Y-76198957D01*
X59755045Y-75291400D01*
X59657849Y-75216819D01*
X59657841Y-75216813D01*
X59442159Y-75092288D01*
X59442148Y-75092283D01*
X59212049Y-74996973D01*
X58971463Y-74932508D01*
X58724534Y-74900000D01*
X58475466Y-74900000D01*
X58228536Y-74932508D01*
X57987950Y-74996973D01*
X57757851Y-75092283D01*
X57757847Y-75092285D01*
X57542143Y-75216823D01*
X57444953Y-75291399D01*
X57444953Y-75291400D01*
X58352511Y-76198958D01*
X58292110Y-76223978D01*
X58185649Y-76295112D01*
X58095112Y-76385649D01*
X58023978Y-76492110D01*
X57998958Y-76552511D01*
X57091400Y-75644953D01*
X57091399Y-75644953D01*
X57016823Y-75742143D01*
X56892285Y-75957847D01*
X56892283Y-75957851D01*
X56796973Y-76187950D01*
X56732508Y-76428536D01*
X56700000Y-76675466D01*
X55500000Y-76675466D01*
X55467491Y-76428536D01*
X55403026Y-76187950D01*
X55307716Y-75957851D01*
X55307711Y-75957840D01*
X55183186Y-75742158D01*
X55183180Y-75742150D01*
X55108598Y-75644953D01*
X54201041Y-76552510D01*
X54176022Y-76492110D01*
X54104888Y-76385649D01*
X54014351Y-76295112D01*
X53907890Y-76223978D01*
X53847487Y-76198957D01*
X54755045Y-75291400D01*
X54657849Y-75216819D01*
X54657841Y-75216813D01*
X54442159Y-75092288D01*
X54442148Y-75092283D01*
X54212049Y-74996973D01*
X53971463Y-74932508D01*
X53724534Y-74900000D01*
X53475466Y-74900000D01*
X53228536Y-74932508D01*
X52987950Y-74996973D01*
X52757851Y-75092283D01*
X52757847Y-75092285D01*
X52542143Y-75216823D01*
X52444953Y-75291399D01*
X52444953Y-75291400D01*
X53352511Y-76198958D01*
X53292110Y-76223978D01*
X53185649Y-76295112D01*
X53095112Y-76385649D01*
X53023978Y-76492110D01*
X52998958Y-76552511D01*
X52091400Y-75644953D01*
X52091399Y-75644953D01*
X52016823Y-75742143D01*
X51892285Y-75957847D01*
X51892283Y-75957851D01*
X51796973Y-76187950D01*
X51732508Y-76428536D01*
X51700000Y-76675466D01*
X50500000Y-76675466D01*
X50467491Y-76428536D01*
X50403026Y-76187950D01*
X50307716Y-75957851D01*
X50307711Y-75957840D01*
X50183186Y-75742158D01*
X50183180Y-75742150D01*
X50108598Y-75644953D01*
X49201041Y-76552510D01*
X49176022Y-76492110D01*
X49104888Y-76385649D01*
X49014351Y-76295112D01*
X48907890Y-76223978D01*
X48847487Y-76198957D01*
X49755045Y-75291400D01*
X49657849Y-75216819D01*
X49657841Y-75216813D01*
X49442159Y-75092288D01*
X49442148Y-75092283D01*
X49212049Y-74996973D01*
X48971463Y-74932508D01*
X48724534Y-74900000D01*
X48475466Y-74900000D01*
X48228536Y-74932508D01*
X47987950Y-74996973D01*
X47757851Y-75092283D01*
X47757847Y-75092285D01*
X47542143Y-75216823D01*
X47444953Y-75291399D01*
X47444953Y-75291400D01*
X48352511Y-76198958D01*
X48292110Y-76223978D01*
X48185649Y-76295112D01*
X48095112Y-76385649D01*
X48023978Y-76492110D01*
X47998958Y-76552511D01*
X47091400Y-75644953D01*
X47091399Y-75644953D01*
X47016823Y-75742143D01*
X46892285Y-75957847D01*
X46892283Y-75957851D01*
X46796973Y-76187950D01*
X46732508Y-76428536D01*
X46700000Y-76675466D01*
X44237963Y-76675466D01*
X44225021Y-76610402D01*
X44200001Y-76550000D01*
X45500000Y-76550000D01*
X45500000Y-75600027D01*
X45499999Y-75600014D01*
X45489506Y-75497310D01*
X45489505Y-75497303D01*
X45450090Y-75378357D01*
X45434358Y-75330881D01*
X45434356Y-75330876D01*
X45342315Y-75181655D01*
X45218344Y-75057684D01*
X45069123Y-74965643D01*
X45069118Y-74965641D01*
X44902696Y-74910494D01*
X44902689Y-74910493D01*
X44799985Y-74900000D01*
X43850000Y-74900000D01*
X43850000Y-76199998D01*
X43789598Y-76174979D01*
X43664019Y-76150000D01*
X43535981Y-76150000D01*
X43410402Y-76174979D01*
X43350000Y-76199998D01*
X43350000Y-74900000D01*
X42400014Y-74900000D01*
X42297310Y-74910493D01*
X42297303Y-74910494D01*
X42130881Y-74965641D01*
X42130876Y-74965643D01*
X41981655Y-75057684D01*
X41857684Y-75181655D01*
X41765643Y-75330876D01*
X41765641Y-75330881D01*
X41710494Y-75497303D01*
X41710493Y-75497310D01*
X41700000Y-75600014D01*
X40886500Y-75600014D01*
X40886500Y-73141500D01*
X40906185Y-73074461D01*
X40958989Y-73028706D01*
X41010500Y-73017500D01*
X147584500Y-73017500D01*
X147651539Y-73037185D01*
G37*
%TD.AperFunction*%
%TD*%
M02*
