%TF.GenerationSoftware,KiCad,Pcbnew,10.0.5*%
%TF.CreationDate,2026-09-04T15:37:05-07:00*%
%TF.ProjectId,V67_cycletron,5636375f-6379-4636-9c65-74726f6e2e6b,rev?*%
%TF.SameCoordinates,Original*%
%TF.FileFunction,Soldermask,Top*%
%TF.FilePolarity,Negative*%
%FSLAX46Y46*%
G04 Gerber Fmt 4.6, Leading zero omitted, Abs format (unit mm)*
G04 Created by KiCad (PCBNEW 10.0.5) date 2026-09-04 15:37:05*
%MOMM*%
%LPD*%
G01*
G04 APERTURE LIST*
G04 Aperture macros list*
%AMRoundRect*
0 Rectangle with rounded corners*
0 $1 Rounding radius*
0 $2 $3 $4 $5 $6 $7 $8 $9 X,Y pos of 4 corners*
0 Add a 4 corners polygon primitive as box body*
4,1,4,$2,$3,$4,$5,$6,$7,$8,$9,$2,$3,0*
0 Add four circle primitives for the rounded corners*
1,1,$1+$1,$2,$3*
1,1,$1+$1,$4,$5*
1,1,$1+$1,$6,$7*
1,1,$1+$1,$8,$9*
0 Add four rect primitives between the rounded corners*
20,1,$1+$1,$2,$3,$4,$5,0*
20,1,$1+$1,$4,$5,$6,$7,0*
20,1,$1+$1,$6,$7,$8,$9,0*
20,1,$1+$1,$8,$9,$2,$3,0*%
G04 Aperture macros list end*
%ADD10R,1.700000X1.700000*%
%ADD11C,1.700000*%
%ADD12RoundRect,0.250000X-1.000000X-0.650000X1.000000X-0.650000X1.000000X0.650000X-1.000000X0.650000X0*%
%ADD13RoundRect,0.250000X0.475000X-0.337500X0.475000X0.337500X-0.475000X0.337500X-0.475000X-0.337500X0*%
%ADD14RoundRect,0.250000X0.350000X0.450000X-0.350000X0.450000X-0.350000X-0.450000X0.350000X-0.450000X0*%
%ADD15RoundRect,0.237500X0.287500X0.237500X-0.287500X0.237500X-0.287500X-0.237500X0.287500X-0.237500X0*%
%ADD16C,1.600000*%
%ADD17O,1.600000X1.600000*%
%ADD18RoundRect,0.250001X-1.149999X-1.149999X1.149999X-1.149999X1.149999X1.149999X-1.149999X1.149999X0*%
%ADD19C,2.800000*%
%ADD20R,1.600000X1.600000*%
%ADD21RoundRect,0.250000X-0.350000X-0.450000X0.350000X-0.450000X0.350000X0.450000X-0.350000X0.450000X0*%
%ADD22RoundRect,0.250000X-0.550000X1.500000X-0.550000X-1.500000X0.550000X-1.500000X0.550000X1.500000X0*%
%ADD23R,1.980000X1.980000*%
%ADD24C,1.980000*%
%ADD25RoundRect,0.250000X0.337500X0.475000X-0.337500X0.475000X-0.337500X-0.475000X0.337500X-0.475000X0*%
%ADD26R,0.600000X1.450000*%
%ADD27R,0.300000X1.450000*%
%ADD28O,1.000000X2.100000*%
%ADD29O,1.000000X1.600000*%
%ADD30RoundRect,0.250000X0.450000X-0.350000X0.450000X0.350000X-0.450000X0.350000X-0.450000X-0.350000X0*%
%ADD31RoundRect,0.250000X1.000000X0.650000X-1.000000X0.650000X-1.000000X-0.650000X1.000000X-0.650000X0*%
%ADD32RoundRect,0.250000X-0.350000X0.850000X-0.350000X-0.850000X0.350000X-0.850000X0.350000X0.850000X0*%
%ADD33RoundRect,0.249997X-2.650003X2.950003X-2.650003X-2.950003X2.650003X-2.950003X2.650003X2.950003X0*%
%ADD34RoundRect,0.250000X1.050000X0.550000X-1.050000X0.550000X-1.050000X-0.550000X1.050000X-0.550000X0*%
%ADD35R,1.905000X2.000000*%
%ADD36O,1.905000X2.000000*%
%ADD37RoundRect,0.250000X1.500000X0.550000X-1.500000X0.550000X-1.500000X-0.550000X1.500000X-0.550000X0*%
%ADD38RoundRect,0.102000X0.675000X0.900000X-0.675000X0.900000X-0.675000X-0.900000X0.675000X-0.900000X0*%
%ADD39R,1.500000X0.900000*%
%ADD40R,0.900000X1.500000*%
%ADD41C,0.600000*%
%ADD42R,3.900000X3.900000*%
G04 APERTURE END LIST*
D10*
%TO.C,J12*%
X145250000Y-104725000D03*
D11*
X145250000Y-107265000D03*
%TD*%
D10*
%TO.C,J3*%
X83375000Y-114800000D03*
D11*
X80835000Y-114800000D03*
%TD*%
D12*
%TO.C,D1*%
X79300000Y-109400000D03*
X83300000Y-109400000D03*
%TD*%
D13*
%TO.C,mccap2*%
X113800000Y-82037500D03*
X113800000Y-79962500D03*
%TD*%
D10*
%TO.C,J4*%
X150500000Y-92670000D03*
D11*
X150500000Y-95210000D03*
X150500000Y-97750000D03*
X150500000Y-100290000D03*
%TD*%
D14*
%TO.C,R_En1*%
X151500000Y-85250000D03*
X149500000Y-85250000D03*
%TD*%
D15*
%TO.C,D4*%
X107442000Y-80264000D03*
X105692000Y-80264000D03*
%TD*%
D16*
%TO.C,vd_r1*%
X138610000Y-101500000D03*
D17*
X130990000Y-101500000D03*
%TD*%
D18*
%TO.C,Rails1*%
X47000000Y-77000000D03*
D19*
X52000000Y-77000000D03*
X57000000Y-77000000D03*
X62000000Y-77000000D03*
X67000000Y-77000000D03*
X72000000Y-77000000D03*
%TD*%
D20*
%TO.C,Motor_2*%
X73914000Y-85608000D03*
D17*
X71374000Y-85608000D03*
X68834000Y-85608000D03*
X66294000Y-85608000D03*
X63754000Y-85608000D03*
X61214000Y-85608000D03*
X58674000Y-85608000D03*
X56134000Y-85608000D03*
X56134000Y-98308000D03*
X58674000Y-98308000D03*
X61214000Y-98308000D03*
X63754000Y-98308000D03*
X66294000Y-98308000D03*
X68834000Y-98308000D03*
X71374000Y-98308000D03*
X73914000Y-98308000D03*
%TD*%
D10*
%TO.C,J7*%
X138920000Y-114100000D03*
D11*
X141460000Y-114100000D03*
X144000000Y-114100000D03*
X146540000Y-114100000D03*
%TD*%
D10*
%TO.C,J5*%
X40000000Y-94060000D03*
D11*
X40000000Y-91520000D03*
X40000000Y-88980000D03*
X40000000Y-86440000D03*
%TD*%
D21*
%TO.C,R2*%
X106661200Y-83362800D03*
X108661200Y-83362800D03*
%TD*%
D18*
%TO.C,J10*%
X80000000Y-76717500D03*
D19*
X85000000Y-76717500D03*
%TD*%
D13*
%TO.C,hall2*%
X117500000Y-114287500D03*
X117500000Y-112212500D03*
%TD*%
D22*
%TO.C,motorc1*%
X49022000Y-104642000D03*
X49022000Y-110242000D03*
%TD*%
D23*
%TO.C,U3*%
X88646000Y-92710000D03*
D24*
X91196000Y-92710000D03*
X93746000Y-92710000D03*
%TD*%
D25*
%TO.C,vd_c2*%
X134200000Y-107800000D03*
X132125000Y-107800000D03*
%TD*%
D22*
%TO.C,motorc2*%
X49500000Y-88650000D03*
X49500000Y-94250000D03*
%TD*%
D25*
%TO.C,vd_c1*%
X132821500Y-111500000D03*
X130746500Y-111500000D03*
%TD*%
D21*
%TO.C,R7*%
X137000000Y-111300000D03*
X139000000Y-111300000D03*
%TD*%
D10*
%TO.C,J9*%
X120720000Y-114400000D03*
D11*
X123260000Y-114400000D03*
X125800000Y-114400000D03*
%TD*%
D26*
%TO.C,J1*%
X102116000Y-80583000D03*
X101316000Y-80583000D03*
D27*
X100116000Y-80583000D03*
X99116000Y-80583000D03*
X98616000Y-80583000D03*
X97616000Y-80583000D03*
D26*
X96416000Y-80583000D03*
X95616000Y-80583000D03*
X95616000Y-80583000D03*
X96416000Y-80583000D03*
D27*
X97116000Y-80583000D03*
X98116000Y-80583000D03*
X99616000Y-80583000D03*
X100616000Y-80583000D03*
D26*
X101316000Y-80583000D03*
X102116000Y-80583000D03*
D28*
X103186000Y-79668000D03*
D29*
X103186000Y-75488000D03*
D28*
X94546000Y-79668000D03*
D29*
X94546000Y-75488000D03*
%TD*%
D30*
%TO.C,R_boot1*%
X149200000Y-89400000D03*
X149200000Y-87400000D03*
%TD*%
D20*
%TO.C,Motor_1*%
X73914000Y-101864000D03*
D17*
X71374000Y-101864000D03*
X68834000Y-101864000D03*
X66294000Y-101864000D03*
X63754000Y-101864000D03*
X61214000Y-101864000D03*
X58674000Y-101864000D03*
X56134000Y-101864000D03*
X56134000Y-114564000D03*
X58674000Y-114564000D03*
X61214000Y-114564000D03*
X63754000Y-114564000D03*
X66294000Y-114564000D03*
X68834000Y-114564000D03*
X71374000Y-114564000D03*
X73914000Y-114564000D03*
%TD*%
D30*
%TO.C,R4*%
X146900000Y-94700000D03*
X146900000Y-92700000D03*
%TD*%
D21*
%TO.C,R6*%
X89871000Y-79536000D03*
X91871000Y-79536000D03*
%TD*%
D13*
%TO.C,C2*%
X140614400Y-81983400D03*
X140614400Y-79908400D03*
%TD*%
D31*
%TO.C,Dpower1*%
X84000000Y-84250000D03*
X80000000Y-84250000D03*
%TD*%
D32*
%TO.C,U2*%
X103393500Y-85788000D03*
X101113500Y-85788000D03*
D33*
X101113500Y-92088000D03*
D32*
X98833500Y-85788000D03*
%TD*%
D30*
%TO.C,R5*%
X147000000Y-98700000D03*
X147000000Y-96700000D03*
%TD*%
D34*
%TO.C,5Vout1*%
X95550000Y-100500000D03*
X91950000Y-100500000D03*
%TD*%
D35*
%TO.C,Q1*%
X97680000Y-111200000D03*
D36*
X95140000Y-111200000D03*
X92600000Y-111200000D03*
%TD*%
D13*
%TO.C,C1*%
X142814400Y-81983400D03*
X142814400Y-79908400D03*
%TD*%
D22*
%TO.C,5Vin1*%
X81000000Y-89200000D03*
X81000000Y-94800000D03*
%TD*%
D10*
%TO.C,J8*%
X106860000Y-114440000D03*
D11*
X106860000Y-111900000D03*
X109400000Y-114440000D03*
X109400000Y-111900000D03*
X111940000Y-114440000D03*
X111940000Y-111900000D03*
X114480000Y-114440000D03*
X114480000Y-111900000D03*
%TD*%
D37*
%TO.C,3v3in1*%
X85550000Y-101250000D03*
X79950000Y-101250000D03*
%TD*%
D13*
%TO.C,mccap1*%
X116848000Y-81946500D03*
X116848000Y-79871500D03*
%TD*%
D38*
%TO.C,En1*%
X146675000Y-85200000D03*
X142525000Y-85200000D03*
%TD*%
D14*
%TO.C,R3*%
X111220000Y-80264000D03*
X109220000Y-80264000D03*
%TD*%
D10*
%TO.C,J2*%
X132275000Y-114500000D03*
D11*
X129735000Y-114500000D03*
%TD*%
D39*
%TO.C,U4*%
X119750000Y-80280000D03*
X119750000Y-81550000D03*
X119750000Y-82820000D03*
X119750000Y-84090000D03*
X119750000Y-85360000D03*
X119750000Y-86630000D03*
X119750000Y-87900000D03*
X119750000Y-89170000D03*
X119750000Y-90440000D03*
X119750000Y-91710000D03*
X119750000Y-92980000D03*
X119750000Y-94250000D03*
X119750000Y-95520000D03*
X119750000Y-96790000D03*
D40*
X121515000Y-98040000D03*
X122785000Y-98040000D03*
X124055000Y-98040000D03*
X125325000Y-98040000D03*
X126595000Y-98040000D03*
X127865000Y-98040000D03*
X129135000Y-98040000D03*
X130405000Y-98040000D03*
X131675000Y-98040000D03*
X132945000Y-98040000D03*
X134215000Y-98040000D03*
X135485000Y-98040000D03*
D39*
X137250000Y-96790000D03*
X137250000Y-95520000D03*
X137250000Y-94250000D03*
X137250000Y-92980000D03*
X137250000Y-91710000D03*
X137250000Y-90440000D03*
X137250000Y-89170000D03*
X137250000Y-87900000D03*
X137250000Y-86630000D03*
X137250000Y-85360000D03*
X137250000Y-84090000D03*
X137250000Y-82820000D03*
X137250000Y-81550000D03*
X137250000Y-80280000D03*
D41*
X125600000Y-87300000D03*
X125600000Y-88700000D03*
X126300000Y-86600000D03*
X126300000Y-88000000D03*
X126300000Y-89400000D03*
X127000000Y-87300000D03*
D42*
X127000000Y-88000000D03*
D41*
X127000000Y-88700000D03*
X127700000Y-86600000D03*
X127700000Y-88000000D03*
X127700000Y-89400000D03*
X128400000Y-87300000D03*
X128400000Y-88700000D03*
%TD*%
D34*
%TO.C,3v3out1*%
X103400000Y-100300000D03*
X99800000Y-100300000D03*
%TD*%
D15*
%TO.C,D5*%
X91875000Y-77250000D03*
X90125000Y-77250000D03*
%TD*%
D10*
%TO.C,J11*%
X150605000Y-107405000D03*
D11*
X150605000Y-104865000D03*
%TD*%
D21*
%TO.C,tr3*%
X100700000Y-107600000D03*
X102700000Y-107600000D03*
%TD*%
D10*
%TO.C,J6*%
X40000000Y-109790000D03*
D11*
X40000000Y-107250000D03*
X40000000Y-104710000D03*
X40000000Y-102170000D03*
%TD*%
D14*
%TO.C,R1*%
X97186000Y-82988000D03*
X95186000Y-82988000D03*
%TD*%
D38*
%TO.C,Boot1*%
X146875000Y-88800000D03*
X142725000Y-88800000D03*
%TD*%
M02*
