%TF.GenerationSoftware,KiCad,Pcbnew,9.0.1*%
%TF.CreationDate,2026-07-24T10:20:40-07:00*%
%TF.ProjectId,V67_cycletron,5636375f-6379-4636-9c65-74726f6e2e6b,rev?*%
%TF.SameCoordinates,Original*%
%TF.FileFunction,Copper,L3,Inr*%
%TF.FilePolarity,Positive*%
%FSLAX46Y46*%
G04 Gerber Fmt 4.6, Leading zero omitted, Abs format (unit mm)*
G04 Created by KiCad (PCBNEW 9.0.1) date 2026-07-24 10:20:40*
%MOMM*%
%LPD*%
G01*
G04 APERTURE LIST*
G04 Aperture macros list*
%AMRoundRect*
0 Rectangle with rounded corners*
0 $1 Rounding radius*
0 $2 $3 $4 $5 $6 $7 $8 $9 X,Y pos of 4 corners*
0 Add a 4 corners polygon primitive as box body*
4,1,4,$2,$3,$4,$5,$6,$7,$8,$9,$2,$3,0*
0 Add four circle primitives for the rounded corners*
1,1,$1+$1,$2,$3*
1,1,$1+$1,$4,$5*
1,1,$1+$1,$6,$7*
1,1,$1+$1,$8,$9*
0 Add four rect primitives between the rounded corners*
20,1,$1+$1,$2,$3,$4,$5,0*
20,1,$1+$1,$4,$5,$6,$7,0*
20,1,$1+$1,$6,$7,$8,$9,0*
20,1,$1+$1,$8,$9,$2,$3,0*%
G04 Aperture macros list end*
%TA.AperFunction,ComponentPad*%
%ADD10C,1.320800*%
%TD*%
%TA.AperFunction,ComponentPad*%
%ADD11R,1.000000X1.000000*%
%TD*%
%TA.AperFunction,ComponentPad*%
%ADD12C,1.000000*%
%TD*%
%TA.AperFunction,ComponentPad*%
%ADD13C,1.600000*%
%TD*%
%TA.AperFunction,ComponentPad*%
%ADD14O,1.600000X1.600000*%
%TD*%
%TA.AperFunction,ComponentPad*%
%ADD15RoundRect,0.250001X-1.149999X-1.149999X1.149999X-1.149999X1.149999X1.149999X-1.149999X1.149999X0*%
%TD*%
%TA.AperFunction,ComponentPad*%
%ADD16C,2.800000*%
%TD*%
%TA.AperFunction,ComponentPad*%
%ADD17R,1.600000X1.600000*%
%TD*%
%TA.AperFunction,ComponentPad*%
%ADD18R,1.308000X1.308000*%
%TD*%
%TA.AperFunction,ComponentPad*%
%ADD19C,1.308000*%
%TD*%
%TA.AperFunction,ComponentPad*%
%ADD20R,1.980000X1.980000*%
%TD*%
%TA.AperFunction,ComponentPad*%
%ADD21C,1.980000*%
%TD*%
%TA.AperFunction,HeatsinkPad*%
%ADD22O,1.000000X2.100000*%
%TD*%
%TA.AperFunction,HeatsinkPad*%
%ADD23O,1.000000X1.600000*%
%TD*%
%TA.AperFunction,HeatsinkPad*%
%ADD24C,0.600000*%
%TD*%
%TA.AperFunction,ViaPad*%
%ADD25C,0.600000*%
%TD*%
G04 APERTURE END LIST*
D10*
%TO.N,Motor1_B2*%
%TO.C,Motor1*%
X39116000Y-102616000D03*
%TO.N,Motor1_B1*%
X39116000Y-104615998D03*
%TO.N,Motor1_A1*%
X39116000Y-106615999D03*
%TO.N,Motor1_A2*%
X39116000Y-108615998D03*
%TD*%
%TO.N,Motor2_B2*%
%TO.C,Motor2*%
X39370000Y-86614000D03*
%TO.N,Motor2_B1*%
X39370000Y-88613998D03*
%TO.N,Motor2_A1*%
X39370000Y-90613999D03*
%TO.N,Motor2_A2*%
X39370000Y-92613998D03*
%TD*%
D11*
%TO.N,IO40*%
%TO.C,J3*%
X142240000Y-93218000D03*
D12*
%TO.N,IO39*%
X142240000Y-94488000D03*
%TO.N,IO38*%
X142240000Y-95758000D03*
%TO.N,IO37*%
X142240000Y-97028000D03*
%TD*%
D13*
%TO.N,Therm-*%
%TO.C,vd_r1*%
X100838000Y-107442000D03*
D14*
%TO.N,GND*%
X100838000Y-99822000D03*
%TD*%
D15*
%TO.N,GND*%
%TO.C,Rails1*%
X47440000Y-76421500D03*
D16*
X52440000Y-76421500D03*
X57440000Y-76421500D03*
X62440000Y-76421500D03*
%TO.N,3V3*%
X67440000Y-76421500D03*
%TO.N,+24V*%
X72440000Y-76421500D03*
%TD*%
D17*
%TO.N,GND*%
%TO.C,Motor_2*%
X73914000Y-85608000D03*
D14*
%TO.N,Motor2_FLT*%
X71374000Y-85608000D03*
%TO.N,Motor2_A2*%
X68834000Y-85608000D03*
%TO.N,Motor2_A1*%
X66294000Y-85608000D03*
%TO.N,Motor2_B1*%
X63754000Y-85608000D03*
%TO.N,Motor2_B2*%
X61214000Y-85608000D03*
%TO.N,GND*%
X58674000Y-85608000D03*
%TO.N,+24V*%
X56134000Y-85608000D03*
%TO.N,Motor2_EN*%
X56134000Y-98308000D03*
%TO.N,Motor2_M0*%
X58674000Y-98308000D03*
%TO.N,Motor2_M1*%
X61214000Y-98308000D03*
%TO.N,Motor2_M2*%
X63754000Y-98308000D03*
%TO.N,3V3*%
X66294000Y-98308000D03*
X68834000Y-98308000D03*
%TO.N,Motor2_STEP*%
X71374000Y-98308000D03*
%TO.N,Motor2_DIR*%
X73914000Y-98308000D03*
%TD*%
D18*
%TO.N,24V_unsafe*%
%TO.C,Input1*%
X80804000Y-74422000D03*
D19*
%TO.N,GND*%
X82804000Y-74422000D03*
%TD*%
D11*
%TO.N,IO1*%
%TO.C,J2*%
X146050000Y-93345000D03*
D12*
%TO.N,IO2*%
X146050000Y-94615000D03*
%TO.N,TX*%
X146050000Y-95885000D03*
%TO.N,RX*%
X146050000Y-97155000D03*
%TD*%
D20*
%TO.N,+24V*%
%TO.C,U3*%
X88646000Y-92710000D03*
D21*
%TO.N,GND*%
X91196000Y-92710000D03*
%TO.N,+5V*%
X93746000Y-92710000D03*
%TD*%
D18*
%TO.N,RPWM*%
%TO.C,hb1*%
X109982000Y-114554000D03*
D19*
%TO.N,LPWM*%
X107982000Y-114554000D03*
%TO.N,R_EN*%
X105982000Y-114554000D03*
%TO.N,L_EN*%
X103982000Y-114554000D03*
%TO.N,3V3*%
X101982000Y-114554000D03*
%TO.N,GND*%
X99982000Y-114554000D03*
%TD*%
D10*
%TO.N,FAN_Tach_i*%
%TO.C,Fan1*%
X141026398Y-114147600D03*
%TO.N,FAN_En_o*%
X139026399Y-114147600D03*
%TO.N,GND*%
X137026398Y-114147600D03*
%TO.N,+24V*%
X135026400Y-114147600D03*
%TD*%
%TO.N,Hall_i*%
%TO.C,Hall1*%
X128593601Y-114300000D03*
%TO.N,GND*%
X126593600Y-114300000D03*
%TO.N,3V3*%
X124593601Y-114300000D03*
%TD*%
D18*
%TO.N,GND*%
%TO.C,hb2*%
X119380000Y-114300000D03*
D19*
%TO.N,+24V*%
X117380000Y-114300000D03*
%TD*%
D22*
%TO.N,GND*%
%TO.C,J1*%
X103186000Y-79668000D03*
D23*
X103186000Y-75488000D03*
D22*
X94546000Y-79668000D03*
D23*
X94546000Y-75488000D03*
%TD*%
D17*
%TO.N,GND*%
%TO.C,Motor_1*%
X73914000Y-101864000D03*
D14*
%TO.N,Motor1_FLT*%
X71374000Y-101864000D03*
%TO.N,Motor1_A2*%
X68834000Y-101864000D03*
%TO.N,Motor1_A1*%
X66294000Y-101864000D03*
%TO.N,Motor1_B1*%
X63754000Y-101864000D03*
%TO.N,Motor1_B2*%
X61214000Y-101864000D03*
%TO.N,GND*%
X58674000Y-101864000D03*
%TO.N,+24V*%
X56134000Y-101864000D03*
%TO.N,Motor1_EN*%
X56134000Y-114564000D03*
%TO.N,Motor1_M0*%
X58674000Y-114564000D03*
%TO.N,Motor1_M1*%
X61214000Y-114564000D03*
%TO.N,Motor1_M2*%
X63754000Y-114564000D03*
%TO.N,3V3*%
X66294000Y-114564000D03*
X68834000Y-114564000D03*
%TO.N,Motor1_STEP*%
X71374000Y-114564000D03*
%TO.N,Motor1_DIR*%
X73914000Y-114564000D03*
%TD*%
D18*
%TO.N,3V3*%
%TO.C,Therm1*%
X92017600Y-114503200D03*
D19*
%TO.N,Therm-*%
X90017600Y-114503200D03*
%TD*%
D18*
%TO.N,mosfet1_o*%
%TO.C,Mos1*%
X82702400Y-113944400D03*
D19*
%TO.N,+24V*%
X80702400Y-113944400D03*
%TD*%
D10*
%TO.N,SCL*%
%TO.C,I2C1*%
X146089000Y-101571801D03*
%TO.N,SDA*%
X146089000Y-103571800D03*
%TO.N,GND*%
X146089000Y-105571801D03*
%TO.N,3V3*%
X146089000Y-107571799D03*
%TD*%
D24*
%TO.N,GND*%
%TO.C,U4*%
X125600000Y-87300000D03*
X125600000Y-88700000D03*
X126300000Y-86600000D03*
X126300000Y-88000000D03*
X126300000Y-89400000D03*
X127000000Y-87300000D03*
X127000000Y-88700000D03*
X127700000Y-86600000D03*
X127700000Y-88000000D03*
X127700000Y-89400000D03*
X128400000Y-87300000D03*
X128400000Y-88700000D03*
%TD*%
D25*
%TO.N,GND*%
X49022000Y-110236000D03*
X142865200Y-79870900D03*
X95186000Y-82988000D03*
X140665200Y-79908400D03*
X87122000Y-78232000D03*
X146875000Y-85000000D03*
X49019024Y-92961024D03*
X116848000Y-79871500D03*
X108661200Y-83362800D03*
X113800000Y-79962500D03*
X111220000Y-80264000D03*
X90656000Y-86030000D03*
X102116000Y-80583000D03*
X108186000Y-87688000D03*
X146875000Y-88800000D03*
X103886000Y-103886000D03*
X103393500Y-85788000D03*
X80772000Y-93478000D03*
X119750000Y-80280000D03*
X95616000Y-80583000D03*
X86281500Y-108646000D03*
X87884000Y-100330000D03*
X125788600Y-107137200D03*
X137250000Y-80280000D03*
%TO.N,En*%
X119750000Y-82820000D03*
X138682000Y-81282000D03*
%TO.N,Net-(J1-CC1)*%
X106661200Y-83400000D03*
X100330000Y-81889600D03*
%TO.N,BOOT*%
X139700000Y-91440000D03*
X139446000Y-95504000D03*
%TO.N,Motor1_M0*%
X121515000Y-98040000D03*
%TO.N,Motor1_EN*%
X119750000Y-94250000D03*
%TO.N,Motor1_FLT*%
X119750000Y-92980000D03*
%TO.N,Motor1_STEP*%
X125325000Y-98040000D03*
%TO.N,Motor1_M2*%
X124055000Y-98040000D03*
%TO.N,Motor1_M1*%
X122936000Y-98044000D03*
%TO.N,Motor1_DIR*%
X126595000Y-98040000D03*
%TO.N,Motor2_EN*%
X119750000Y-85360000D03*
%TO.N,Motor2_M1*%
X119735600Y-87884000D03*
%TO.N,Motor2_DIR*%
X119750000Y-91710000D03*
%TO.N,Motor2_STEP*%
X119750000Y-90440000D03*
%TO.N,Motor2_FLT*%
X119750000Y-84090000D03*
%TO.N,Motor2_M2*%
X119750000Y-89170000D03*
%TO.N,Motor2_M0*%
X119750000Y-86630000D03*
%TO.N,SCL*%
X137250000Y-87900000D03*
X141782800Y-99888800D03*
%TO.N,SDA*%
X141681200Y-103936800D03*
X137250000Y-86630000D03*
%TO.N,FAN_Tach_i*%
X139852400Y-102514400D03*
X137250000Y-94250000D03*
%TO.N,FAN_En_o*%
X137250000Y-95520000D03*
%TO.N,3V3*%
X141782800Y-101888800D03*
X140200000Y-86000000D03*
X105692000Y-80264000D03*
X116848000Y-81946500D03*
X103886000Y-105918000D03*
X141681200Y-105936800D03*
X108079235Y-91394765D03*
X119750000Y-81550000D03*
X101113500Y-92088000D03*
X135331200Y-105428800D03*
X127863600Y-107137200D03*
X93450500Y-108458000D03*
X113796658Y-82040185D03*
X101092000Y-85852000D03*
%TO.N,TX*%
X137250000Y-84090000D03*
%TO.N,RX*%
X137250000Y-85360000D03*
%TO.N,IO2*%
X137250000Y-82820000D03*
%TO.N,IO1*%
X137250000Y-81550000D03*
%TD*%
%TA.AperFunction,Conductor*%
%TO.N,GND*%
G36*
X147651539Y-72148185D02*
G01*
X147697294Y-72200989D01*
X147708500Y-72252500D01*
X147708500Y-115834500D01*
X147688815Y-115901539D01*
X147636011Y-115947294D01*
X147584500Y-115958500D01*
X74558234Y-115958500D01*
X74491195Y-115938815D01*
X74445440Y-115886011D01*
X74435496Y-115816853D01*
X74464521Y-115753297D01*
X74501939Y-115724015D01*
X74511527Y-115719129D01*
X74595610Y-115676287D01*
X74699244Y-115600993D01*
X74761213Y-115555971D01*
X74761215Y-115555968D01*
X74761219Y-115555966D01*
X74905966Y-115411219D01*
X74905968Y-115411215D01*
X74905971Y-115411213D01*
X74975522Y-115315482D01*
X75026287Y-115245610D01*
X75119220Y-115063219D01*
X75182477Y-114868534D01*
X75214500Y-114666352D01*
X75214500Y-114461648D01*
X75182477Y-114259466D01*
X75175817Y-114238970D01*
X75148209Y-114154000D01*
X75119220Y-114064781D01*
X75119218Y-114064778D01*
X75119218Y-114064776D01*
X75037788Y-113904962D01*
X75035260Y-113900000D01*
X75026287Y-113882390D01*
X75005326Y-113853539D01*
X79547900Y-113853539D01*
X79547900Y-114035261D01*
X79559898Y-114111015D01*
X79576328Y-114214747D01*
X79576328Y-114214750D01*
X79632481Y-114387571D01*
X79632483Y-114387574D01*
X79714983Y-114549490D01*
X79821797Y-114696506D01*
X79950294Y-114825003D01*
X80097310Y-114931817D01*
X80259226Y-115014317D01*
X80259228Y-115014318D01*
X80409731Y-115063219D01*
X80432054Y-115070472D01*
X80611539Y-115098900D01*
X80611540Y-115098900D01*
X80793260Y-115098900D01*
X80793261Y-115098900D01*
X80972746Y-115070472D01*
X80972749Y-115070471D01*
X80972750Y-115070471D01*
X81145571Y-115014318D01*
X81145571Y-115014317D01*
X81145574Y-115014317D01*
X81307490Y-114931817D01*
X81445204Y-114831760D01*
X81511010Y-114808280D01*
X81579064Y-114824105D01*
X81617356Y-114857766D01*
X81625238Y-114868295D01*
X81683688Y-114946374D01*
X81690855Y-114955947D01*
X81806064Y-115042193D01*
X81806071Y-115042197D01*
X81940917Y-115092491D01*
X81940916Y-115092491D01*
X81947844Y-115093235D01*
X82000527Y-115098900D01*
X83404272Y-115098899D01*
X83463883Y-115092491D01*
X83598731Y-115042196D01*
X83713946Y-114955946D01*
X83800196Y-114840731D01*
X83850491Y-114705883D01*
X83856900Y-114646273D01*
X83856900Y-114412339D01*
X88863100Y-114412339D01*
X88863100Y-114594060D01*
X88891528Y-114773547D01*
X88891528Y-114773550D01*
X88947681Y-114946371D01*
X88947683Y-114946374D01*
X89030183Y-115108290D01*
X89136997Y-115255306D01*
X89265494Y-115383803D01*
X89412510Y-115490617D01*
X89574426Y-115573117D01*
X89574428Y-115573118D01*
X89660229Y-115600996D01*
X89747254Y-115629272D01*
X89926739Y-115657700D01*
X89926740Y-115657700D01*
X90108460Y-115657700D01*
X90108461Y-115657700D01*
X90287946Y-115629272D01*
X90287949Y-115629271D01*
X90287950Y-115629271D01*
X90460771Y-115573118D01*
X90460771Y-115573117D01*
X90460774Y-115573117D01*
X90622690Y-115490617D01*
X90760404Y-115390560D01*
X90826210Y-115367080D01*
X90894264Y-115382905D01*
X90932556Y-115416566D01*
X91006055Y-115514747D01*
X91121264Y-115600993D01*
X91121271Y-115600997D01*
X91256117Y-115651291D01*
X91256116Y-115651291D01*
X91260786Y-115651793D01*
X91315727Y-115657700D01*
X92719472Y-115657699D01*
X92779083Y-115651291D01*
X92913931Y-115600996D01*
X93029146Y-115514746D01*
X93115396Y-115399531D01*
X93165691Y-115264683D01*
X93172100Y-115205073D01*
X93172099Y-114463178D01*
X98828000Y-114463178D01*
X98828000Y-114644821D01*
X98856415Y-114824225D01*
X98912548Y-114996984D01*
X98995012Y-115158830D01*
X98995014Y-115158834D01*
X99007048Y-115175395D01*
X99007049Y-115175396D01*
X99582000Y-114600445D01*
X99582000Y-114606661D01*
X99609259Y-114708394D01*
X99661920Y-114799606D01*
X99736394Y-114874080D01*
X99827606Y-114926741D01*
X99929339Y-114954000D01*
X99935554Y-114954000D01*
X99360602Y-115528949D01*
X99360603Y-115528950D01*
X99377165Y-115540985D01*
X99377179Y-115540993D01*
X99539012Y-115623450D01*
X99711774Y-115679584D01*
X99891179Y-115708000D01*
X100072821Y-115708000D01*
X100252225Y-115679584D01*
X100424984Y-115623451D01*
X100586831Y-115540986D01*
X100603396Y-115528949D01*
X100028447Y-114954000D01*
X100034661Y-114954000D01*
X100136394Y-114926741D01*
X100227606Y-114874080D01*
X100302080Y-114799606D01*
X100354741Y-114708394D01*
X100382000Y-114606661D01*
X100382000Y-114600446D01*
X100965145Y-115183592D01*
X101002902Y-115191524D01*
X101044568Y-115227888D01*
X101101397Y-115306106D01*
X101229894Y-115434603D01*
X101376910Y-115541417D01*
X101538826Y-115623917D01*
X101538828Y-115623918D01*
X101699996Y-115676284D01*
X101711654Y-115680072D01*
X101891139Y-115708500D01*
X101891140Y-115708500D01*
X102072860Y-115708500D01*
X102072861Y-115708500D01*
X102252346Y-115680072D01*
X102252349Y-115680071D01*
X102252350Y-115680071D01*
X102425171Y-115623918D01*
X102425171Y-115623917D01*
X102425174Y-115623917D01*
X102587090Y-115541417D01*
X102734106Y-115434603D01*
X102862603Y-115306106D01*
X102881682Y-115279845D01*
X102937012Y-115237180D01*
X103006625Y-115231201D01*
X103068420Y-115263807D01*
X103082317Y-115279845D01*
X103101397Y-115306106D01*
X103229894Y-115434603D01*
X103376910Y-115541417D01*
X103538826Y-115623917D01*
X103538828Y-115623918D01*
X103699996Y-115676284D01*
X103711654Y-115680072D01*
X103891139Y-115708500D01*
X103891140Y-115708500D01*
X104072860Y-115708500D01*
X104072861Y-115708500D01*
X104252346Y-115680072D01*
X104252349Y-115680071D01*
X104252350Y-115680071D01*
X104425171Y-115623918D01*
X104425171Y-115623917D01*
X104425174Y-115623917D01*
X104587090Y-115541417D01*
X104734106Y-115434603D01*
X104862603Y-115306106D01*
X104881682Y-115279845D01*
X104937012Y-115237180D01*
X105006625Y-115231201D01*
X105068420Y-115263807D01*
X105082317Y-115279845D01*
X105101397Y-115306106D01*
X105229894Y-115434603D01*
X105376910Y-115541417D01*
X105538826Y-115623917D01*
X105538828Y-115623918D01*
X105699996Y-115676284D01*
X105711654Y-115680072D01*
X105891139Y-115708500D01*
X105891140Y-115708500D01*
X106072860Y-115708500D01*
X106072861Y-115708500D01*
X106252346Y-115680072D01*
X106252349Y-115680071D01*
X106252350Y-115680071D01*
X106425171Y-115623918D01*
X106425171Y-115623917D01*
X106425174Y-115623917D01*
X106587090Y-115541417D01*
X106734106Y-115434603D01*
X106862603Y-115306106D01*
X106881682Y-115279845D01*
X106937012Y-115237180D01*
X107006625Y-115231201D01*
X107068420Y-115263807D01*
X107082317Y-115279845D01*
X107101397Y-115306106D01*
X107229894Y-115434603D01*
X107376910Y-115541417D01*
X107538826Y-115623917D01*
X107538828Y-115623918D01*
X107699996Y-115676284D01*
X107711654Y-115680072D01*
X107891139Y-115708500D01*
X107891140Y-115708500D01*
X108072860Y-115708500D01*
X108072861Y-115708500D01*
X108252346Y-115680072D01*
X108252349Y-115680071D01*
X108252350Y-115680071D01*
X108425171Y-115623918D01*
X108425171Y-115623917D01*
X108425174Y-115623917D01*
X108587090Y-115541417D01*
X108724804Y-115441360D01*
X108790610Y-115417880D01*
X108858664Y-115433705D01*
X108896956Y-115467366D01*
X108963282Y-115555966D01*
X108970455Y-115565547D01*
X109085664Y-115651793D01*
X109085671Y-115651797D01*
X109220517Y-115702091D01*
X109220516Y-115702091D01*
X109227444Y-115702835D01*
X109280127Y-115708500D01*
X110683872Y-115708499D01*
X110743483Y-115702091D01*
X110878331Y-115651796D01*
X110993546Y-115565546D01*
X111079796Y-115450331D01*
X111130091Y-115315483D01*
X111136500Y-115255873D01*
X111136499Y-114209139D01*
X116225500Y-114209139D01*
X116225500Y-114390860D01*
X116253928Y-114570347D01*
X116253928Y-114570350D01*
X116310081Y-114743171D01*
X116310083Y-114743174D01*
X116392583Y-114905090D01*
X116499397Y-115052106D01*
X116627894Y-115180603D01*
X116774910Y-115287417D01*
X116936826Y-115369917D01*
X116936828Y-115369918D01*
X117098029Y-115422294D01*
X117109654Y-115426072D01*
X117289139Y-115454500D01*
X117289140Y-115454500D01*
X117470860Y-115454500D01*
X117470861Y-115454500D01*
X117650346Y-115426072D01*
X117650349Y-115426071D01*
X117650350Y-115426071D01*
X117823171Y-115369918D01*
X117823171Y-115369917D01*
X117823174Y-115369917D01*
X117985090Y-115287417D01*
X118123210Y-115187066D01*
X118189014Y-115163586D01*
X118257068Y-115179411D01*
X118295360Y-115213072D01*
X118368812Y-115311190D01*
X118483906Y-115397350D01*
X118483913Y-115397354D01*
X118618620Y-115447596D01*
X118618627Y-115447598D01*
X118678155Y-115453999D01*
X118678172Y-115454000D01*
X119130000Y-115454000D01*
X119130000Y-114615686D01*
X119134394Y-114620080D01*
X119225606Y-114672741D01*
X119327339Y-114700000D01*
X119432661Y-114700000D01*
X119534394Y-114672741D01*
X119625606Y-114620080D01*
X119630000Y-114615686D01*
X119630000Y-115454000D01*
X120081828Y-115454000D01*
X120081844Y-115453999D01*
X120141372Y-115447598D01*
X120141379Y-115447596D01*
X120276086Y-115397354D01*
X120276093Y-115397350D01*
X120391187Y-115311190D01*
X120391190Y-115311187D01*
X120477350Y-115196093D01*
X120477354Y-115196086D01*
X120527596Y-115061379D01*
X120527598Y-115061372D01*
X120533999Y-115001844D01*
X120534000Y-115001827D01*
X120534000Y-114550000D01*
X119695686Y-114550000D01*
X119700080Y-114545606D01*
X119752741Y-114454394D01*
X119780000Y-114352661D01*
X119780000Y-114247339D01*
X119769628Y-114208629D01*
X123432701Y-114208629D01*
X123432701Y-114391370D01*
X123461049Y-114570350D01*
X123461286Y-114571845D01*
X123517753Y-114745631D01*
X123600710Y-114908444D01*
X123708116Y-115056276D01*
X123837325Y-115185485D01*
X123985157Y-115292891D01*
X124147970Y-115375848D01*
X124321756Y-115432315D01*
X124378871Y-115441361D01*
X124502231Y-115460900D01*
X124502236Y-115460900D01*
X124684971Y-115460900D01*
X124785232Y-115445019D01*
X124865446Y-115432315D01*
X125039232Y-115375848D01*
X125202045Y-115292891D01*
X125349877Y-115185485D01*
X125479086Y-115056276D01*
X125538341Y-114974717D01*
X125541928Y-114970600D01*
X125566934Y-114954619D01*
X125590442Y-114936492D01*
X125596758Y-114935560D01*
X125600802Y-114932977D01*
X125607053Y-114932993D01*
X126187200Y-114352846D01*
X126187200Y-114353504D01*
X126214895Y-114456865D01*
X126268399Y-114549536D01*
X126344064Y-114625201D01*
X126436735Y-114678705D01*
X126540096Y-114706400D01*
X126540753Y-114706400D01*
X125967619Y-115279531D01*
X125985417Y-115292462D01*
X126148156Y-115375383D01*
X126321871Y-115431827D01*
X126502270Y-115460400D01*
X126684930Y-115460400D01*
X126865328Y-115431827D01*
X127039043Y-115375383D01*
X127201778Y-115292465D01*
X127219579Y-115279531D01*
X126646448Y-114706400D01*
X126647104Y-114706400D01*
X126750465Y-114678705D01*
X126843136Y-114625201D01*
X126918801Y-114549536D01*
X126972305Y-114456865D01*
X127000000Y-114353504D01*
X127000000Y-114352847D01*
X127584497Y-114937344D01*
X127610417Y-114942789D01*
X127652085Y-114979156D01*
X127708116Y-115056276D01*
X127837325Y-115185485D01*
X127985157Y-115292891D01*
X128147970Y-115375848D01*
X128321756Y-115432315D01*
X128378871Y-115441361D01*
X128502231Y-115460900D01*
X128502236Y-115460900D01*
X128684971Y-115460900D01*
X128785232Y-115445019D01*
X128865446Y-115432315D01*
X129039232Y-115375848D01*
X129202045Y-115292891D01*
X129349877Y-115185485D01*
X129479086Y-115056276D01*
X129586492Y-114908444D01*
X129669449Y-114745631D01*
X129725916Y-114571845D01*
X129743133Y-114463139D01*
X129754501Y-114391370D01*
X129754501Y-114208630D01*
X129732664Y-114070762D01*
X129732664Y-114070760D01*
X129730363Y-114056229D01*
X133865500Y-114056229D01*
X133865500Y-114238970D01*
X133893822Y-114417786D01*
X133894085Y-114419445D01*
X133950552Y-114593231D01*
X134033509Y-114756044D01*
X134140915Y-114903876D01*
X134270124Y-115033085D01*
X134417956Y-115140491D01*
X134580769Y-115223448D01*
X134754555Y-115279915D01*
X134822235Y-115290634D01*
X134935030Y-115308500D01*
X134935035Y-115308500D01*
X135117770Y-115308500D01*
X135219026Y-115292462D01*
X135298245Y-115279915D01*
X135472031Y-115223448D01*
X135634844Y-115140491D01*
X135782676Y-115033085D01*
X135911885Y-114903876D01*
X135971136Y-114822323D01*
X135974727Y-114818201D01*
X135999731Y-114802222D01*
X136023242Y-114784093D01*
X136029558Y-114783161D01*
X136033602Y-114780578D01*
X136039850Y-114780594D01*
X136619998Y-114200446D01*
X136619998Y-114201104D01*
X136647693Y-114304465D01*
X136701197Y-114397136D01*
X136776862Y-114472801D01*
X136869533Y-114526305D01*
X136972894Y-114554000D01*
X136973551Y-114554000D01*
X136400417Y-115127131D01*
X136418215Y-115140062D01*
X136580954Y-115222983D01*
X136754669Y-115279427D01*
X136935068Y-115308000D01*
X137117728Y-115308000D01*
X137298126Y-115279427D01*
X137471841Y-115222983D01*
X137634576Y-115140065D01*
X137652377Y-115127131D01*
X137079246Y-114554000D01*
X137079902Y-114554000D01*
X137183263Y-114526305D01*
X137275934Y-114472801D01*
X137351599Y-114397136D01*
X137405103Y-114304465D01*
X137432798Y-114201104D01*
X137432798Y-114200447D01*
X138017295Y-114784944D01*
X138043215Y-114790389D01*
X138084883Y-114826756D01*
X138140914Y-114903876D01*
X138270123Y-115033085D01*
X138417955Y-115140491D01*
X138580768Y-115223448D01*
X138754554Y-115279915D01*
X138822234Y-115290634D01*
X138935029Y-115308500D01*
X138935034Y-115308500D01*
X139117769Y-115308500D01*
X139219025Y-115292462D01*
X139298244Y-115279915D01*
X139472030Y-115223448D01*
X139634843Y-115140491D01*
X139782675Y-115033085D01*
X139911884Y-114903876D01*
X139926079Y-114884337D01*
X139981408Y-114841671D01*
X140051021Y-114835690D01*
X140112817Y-114868295D01*
X140126715Y-114884335D01*
X140139283Y-114901632D01*
X140140913Y-114903876D01*
X140270122Y-115033085D01*
X140417954Y-115140491D01*
X140580767Y-115223448D01*
X140754553Y-115279915D01*
X140822233Y-115290634D01*
X140935028Y-115308500D01*
X140935033Y-115308500D01*
X141117768Y-115308500D01*
X141219024Y-115292462D01*
X141298243Y-115279915D01*
X141472029Y-115223448D01*
X141634842Y-115140491D01*
X141782674Y-115033085D01*
X141911883Y-114903876D01*
X142019289Y-114756044D01*
X142102246Y-114593231D01*
X142158713Y-114419445D01*
X142177631Y-114300000D01*
X142187298Y-114238970D01*
X142187298Y-114056229D01*
X142162553Y-113900000D01*
X142158713Y-113875755D01*
X142102246Y-113701969D01*
X142019289Y-113539156D01*
X141941227Y-113431713D01*
X144242300Y-113431713D01*
X144242300Y-113644287D01*
X144244419Y-113657664D01*
X144267263Y-113801900D01*
X144275554Y-113854243D01*
X144341185Y-114056235D01*
X144341244Y-114056414D01*
X144437751Y-114245820D01*
X144562690Y-114417786D01*
X144713013Y-114568109D01*
X144884979Y-114693048D01*
X144884981Y-114693049D01*
X144884984Y-114693051D01*
X145074388Y-114789557D01*
X145276557Y-114855246D01*
X145486513Y-114888500D01*
X145486514Y-114888500D01*
X145699086Y-114888500D01*
X145699087Y-114888500D01*
X145909043Y-114855246D01*
X146111212Y-114789557D01*
X146300616Y-114693051D01*
X146365013Y-114646264D01*
X146472586Y-114568109D01*
X146472588Y-114568106D01*
X146472592Y-114568104D01*
X146622904Y-114417792D01*
X146622906Y-114417788D01*
X146622909Y-114417786D01*
X146747848Y-114245820D01*
X146747847Y-114245820D01*
X146747851Y-114245816D01*
X146844357Y-114056412D01*
X146910046Y-113854243D01*
X146943300Y-113644287D01*
X146943300Y-113431713D01*
X146910046Y-113221757D01*
X146844357Y-113019588D01*
X146747851Y-112830184D01*
X146747849Y-112830181D01*
X146747848Y-112830179D01*
X146622909Y-112658213D01*
X146472586Y-112507890D01*
X146300620Y-112382951D01*
X146111214Y-112286444D01*
X146111213Y-112286443D01*
X146111212Y-112286443D01*
X145909043Y-112220754D01*
X145909041Y-112220753D01*
X145909040Y-112220753D01*
X145747757Y-112195208D01*
X145699087Y-112187500D01*
X145486513Y-112187500D01*
X145437842Y-112195208D01*
X145276560Y-112220753D01*
X145074385Y-112286444D01*
X144884979Y-112382951D01*
X144713013Y-112507890D01*
X144562690Y-112658213D01*
X144437751Y-112830179D01*
X144341244Y-113019585D01*
X144275553Y-113221760D01*
X144247402Y-113399500D01*
X144242300Y-113431713D01*
X141941227Y-113431713D01*
X141911883Y-113391324D01*
X141782674Y-113262115D01*
X141634842Y-113154709D01*
X141472029Y-113071752D01*
X141298243Y-113015285D01*
X141298241Y-113015284D01*
X141298239Y-113015284D01*
X141117768Y-112986700D01*
X141117763Y-112986700D01*
X140935033Y-112986700D01*
X140935028Y-112986700D01*
X140754556Y-113015284D01*
X140580764Y-113071753D01*
X140417953Y-113154709D01*
X140270119Y-113262117D01*
X140140915Y-113391321D01*
X140140910Y-113391327D01*
X140126714Y-113410866D01*
X140071383Y-113453530D01*
X140001769Y-113459508D01*
X139939975Y-113426900D01*
X139926082Y-113410866D01*
X139911884Y-113391324D01*
X139782675Y-113262115D01*
X139634843Y-113154709D01*
X139472030Y-113071752D01*
X139298244Y-113015285D01*
X139298242Y-113015284D01*
X139298240Y-113015284D01*
X139117769Y-112986700D01*
X139117764Y-112986700D01*
X138935034Y-112986700D01*
X138935029Y-112986700D01*
X138754557Y-113015284D01*
X138580765Y-113071753D01*
X138417954Y-113154709D01*
X138270120Y-113262117D01*
X138140915Y-113391322D01*
X138084885Y-113468441D01*
X138029554Y-113511106D01*
X138014175Y-113513373D01*
X137432798Y-114094751D01*
X137432798Y-114094096D01*
X137405103Y-113990735D01*
X137351599Y-113898064D01*
X137275934Y-113822399D01*
X137183263Y-113768895D01*
X137079902Y-113741200D01*
X137079245Y-113741200D01*
X137652376Y-113168067D01*
X137634576Y-113155135D01*
X137471841Y-113072216D01*
X137298126Y-113015772D01*
X137117728Y-112987200D01*
X136935068Y-112987200D01*
X136754669Y-113015772D01*
X136580954Y-113072216D01*
X136418211Y-113155139D01*
X136418206Y-113155143D01*
X136400418Y-113168065D01*
X136400418Y-113168068D01*
X136973552Y-113741200D01*
X136972894Y-113741200D01*
X136869533Y-113768895D01*
X136776862Y-113822399D01*
X136701197Y-113898064D01*
X136647693Y-113990735D01*
X136619998Y-114094096D01*
X136619998Y-114094752D01*
X136035498Y-113510252D01*
X136009582Y-113504808D01*
X136004839Y-113501024D01*
X136001459Y-113500041D01*
X135989566Y-113488837D01*
X135974726Y-113476997D01*
X135971132Y-113472871D01*
X135911885Y-113391324D01*
X135782676Y-113262115D01*
X135634844Y-113154709D01*
X135472031Y-113071752D01*
X135298245Y-113015285D01*
X135298243Y-113015284D01*
X135298241Y-113015284D01*
X135117770Y-112986700D01*
X135117765Y-112986700D01*
X134935035Y-112986700D01*
X134935030Y-112986700D01*
X134754558Y-113015284D01*
X134580766Y-113071753D01*
X134417955Y-113154709D01*
X134270121Y-113262117D01*
X134140917Y-113391321D01*
X134033509Y-113539155D01*
X133950553Y-113701966D01*
X133894084Y-113875758D01*
X133865500Y-114056229D01*
X129730363Y-114056229D01*
X129725917Y-114028159D01*
X129725916Y-114028158D01*
X129725916Y-114028155D01*
X129669449Y-113854369D01*
X129586492Y-113691556D01*
X129479086Y-113543724D01*
X129349877Y-113414515D01*
X129202045Y-113307109D01*
X129039232Y-113224152D01*
X128865446Y-113167685D01*
X128865444Y-113167684D01*
X128865442Y-113167684D01*
X128684971Y-113139100D01*
X128684966Y-113139100D01*
X128502236Y-113139100D01*
X128502231Y-113139100D01*
X128321759Y-113167684D01*
X128147967Y-113224153D01*
X127985156Y-113307109D01*
X127837322Y-113414517D01*
X127708117Y-113543722D01*
X127652087Y-113620841D01*
X127596756Y-113663506D01*
X127581377Y-113665773D01*
X127000000Y-114247151D01*
X127000000Y-114246496D01*
X126972305Y-114143135D01*
X126918801Y-114050464D01*
X126843136Y-113974799D01*
X126750465Y-113921295D01*
X126647104Y-113893600D01*
X126646447Y-113893600D01*
X127219578Y-113320467D01*
X127201778Y-113307535D01*
X127039043Y-113224616D01*
X126865328Y-113168172D01*
X126684930Y-113139600D01*
X126502270Y-113139600D01*
X126321871Y-113168172D01*
X126148156Y-113224616D01*
X125985413Y-113307539D01*
X125985408Y-113307543D01*
X125967620Y-113320465D01*
X125967620Y-113320468D01*
X126540754Y-113893600D01*
X126540096Y-113893600D01*
X126436735Y-113921295D01*
X126344064Y-113974799D01*
X126268399Y-114050464D01*
X126214895Y-114143135D01*
X126187200Y-114246496D01*
X126187200Y-114247152D01*
X125602700Y-113662652D01*
X125576783Y-113657208D01*
X125572040Y-113653424D01*
X125568660Y-113652441D01*
X125556767Y-113641237D01*
X125541927Y-113629397D01*
X125538333Y-113625271D01*
X125479086Y-113543724D01*
X125349877Y-113414515D01*
X125202045Y-113307109D01*
X125039232Y-113224152D01*
X124865446Y-113167685D01*
X124865444Y-113167684D01*
X124865442Y-113167684D01*
X124684971Y-113139100D01*
X124684966Y-113139100D01*
X124502236Y-113139100D01*
X124502231Y-113139100D01*
X124321759Y-113167684D01*
X124147967Y-113224153D01*
X123985156Y-113307109D01*
X123837322Y-113414517D01*
X123708118Y-113543721D01*
X123600710Y-113691555D01*
X123517754Y-113854366D01*
X123461285Y-114028158D01*
X123432701Y-114208629D01*
X119769628Y-114208629D01*
X119752741Y-114145606D01*
X119700080Y-114054394D01*
X119695686Y-114050000D01*
X120534000Y-114050000D01*
X120534000Y-113598172D01*
X120533999Y-113598155D01*
X120527598Y-113538627D01*
X120527596Y-113538620D01*
X120477354Y-113403913D01*
X120477350Y-113403906D01*
X120391190Y-113288812D01*
X120391187Y-113288809D01*
X120276093Y-113202649D01*
X120276086Y-113202645D01*
X120141379Y-113152403D01*
X120141372Y-113152401D01*
X120081844Y-113146000D01*
X119630000Y-113146000D01*
X119630000Y-113984314D01*
X119625606Y-113979920D01*
X119534394Y-113927259D01*
X119432661Y-113900000D01*
X119327339Y-113900000D01*
X119225606Y-113927259D01*
X119134394Y-113979920D01*
X119130000Y-113984314D01*
X119130000Y-113146000D01*
X118678155Y-113146000D01*
X118618627Y-113152401D01*
X118618620Y-113152403D01*
X118483913Y-113202645D01*
X118483906Y-113202649D01*
X118368812Y-113288809D01*
X118295361Y-113386927D01*
X118239427Y-113428797D01*
X118169736Y-113433781D01*
X118123209Y-113412933D01*
X118110784Y-113403906D01*
X117985090Y-113312583D01*
X117823174Y-113230083D01*
X117823171Y-113230081D01*
X117650348Y-113173928D01*
X117514444Y-113152403D01*
X117470861Y-113145500D01*
X117289139Y-113145500D01*
X117245556Y-113152403D01*
X117109652Y-113173928D01*
X117109649Y-113173928D01*
X116936828Y-113230081D01*
X116936825Y-113230083D01*
X116774909Y-113312583D01*
X116711324Y-113358781D01*
X116627894Y-113419397D01*
X116627892Y-113419399D01*
X116627891Y-113419399D01*
X116499399Y-113547891D01*
X116499399Y-113547892D01*
X116499397Y-113547894D01*
X116462880Y-113598155D01*
X116392583Y-113694909D01*
X116310083Y-113856825D01*
X116310081Y-113856828D01*
X116253928Y-114029649D01*
X116253928Y-114029652D01*
X116225500Y-114209139D01*
X111136499Y-114209139D01*
X111136499Y-113852128D01*
X111130091Y-113792517D01*
X111124843Y-113778447D01*
X111079797Y-113657671D01*
X111079793Y-113657664D01*
X110993547Y-113542455D01*
X110993544Y-113542452D01*
X110878335Y-113456206D01*
X110878328Y-113456202D01*
X110743482Y-113405908D01*
X110743483Y-113405908D01*
X110683883Y-113399501D01*
X110683881Y-113399500D01*
X110683873Y-113399500D01*
X110683864Y-113399500D01*
X109280129Y-113399500D01*
X109280123Y-113399501D01*
X109220516Y-113405908D01*
X109085671Y-113456202D01*
X109085664Y-113456206D01*
X108970455Y-113542452D01*
X108896956Y-113640633D01*
X108841022Y-113682503D01*
X108771330Y-113687487D01*
X108724804Y-113666639D01*
X108723612Y-113665773D01*
X108587090Y-113566583D01*
X108425174Y-113484083D01*
X108425171Y-113484081D01*
X108252348Y-113427928D01*
X108113319Y-113405908D01*
X108072861Y-113399500D01*
X107891139Y-113399500D01*
X107850681Y-113405908D01*
X107711652Y-113427928D01*
X107711649Y-113427928D01*
X107538828Y-113484081D01*
X107538825Y-113484083D01*
X107376909Y-113566583D01*
X107309115Y-113615839D01*
X107229894Y-113673397D01*
X107229892Y-113673399D01*
X107229891Y-113673399D01*
X107101396Y-113801894D01*
X107082317Y-113828155D01*
X107026986Y-113870820D01*
X106957373Y-113876798D01*
X106895578Y-113844191D01*
X106881683Y-113828155D01*
X106862603Y-113801894D01*
X106734108Y-113673399D01*
X106734106Y-113673397D01*
X106587090Y-113566583D01*
X106425174Y-113484083D01*
X106425171Y-113484081D01*
X106252348Y-113427928D01*
X106113319Y-113405908D01*
X106072861Y-113399500D01*
X105891139Y-113399500D01*
X105850681Y-113405908D01*
X105711652Y-113427928D01*
X105711649Y-113427928D01*
X105538828Y-113484081D01*
X105538825Y-113484083D01*
X105376909Y-113566583D01*
X105309115Y-113615839D01*
X105229894Y-113673397D01*
X105229892Y-113673399D01*
X105229891Y-113673399D01*
X105101396Y-113801894D01*
X105082317Y-113828155D01*
X105026986Y-113870820D01*
X104957373Y-113876798D01*
X104895578Y-113844191D01*
X104881683Y-113828155D01*
X104862603Y-113801894D01*
X104734108Y-113673399D01*
X104734106Y-113673397D01*
X104587090Y-113566583D01*
X104425174Y-113484083D01*
X104425171Y-113484081D01*
X104252348Y-113427928D01*
X104113319Y-113405908D01*
X104072861Y-113399500D01*
X103891139Y-113399500D01*
X103850681Y-113405908D01*
X103711652Y-113427928D01*
X103711649Y-113427928D01*
X103538828Y-113484081D01*
X103538825Y-113484083D01*
X103376909Y-113566583D01*
X103309115Y-113615839D01*
X103229894Y-113673397D01*
X103229892Y-113673399D01*
X103229891Y-113673399D01*
X103101396Y-113801894D01*
X103082317Y-113828155D01*
X103026986Y-113870820D01*
X102957373Y-113876798D01*
X102895578Y-113844191D01*
X102881683Y-113828155D01*
X102862603Y-113801894D01*
X102734108Y-113673399D01*
X102734106Y-113673397D01*
X102587090Y-113566583D01*
X102425174Y-113484083D01*
X102425171Y-113484081D01*
X102252348Y-113427928D01*
X102113319Y-113405908D01*
X102072861Y-113399500D01*
X101891139Y-113399500D01*
X101850681Y-113405908D01*
X101711652Y-113427928D01*
X101711649Y-113427928D01*
X101538828Y-113484081D01*
X101538825Y-113484083D01*
X101376909Y-113566583D01*
X101309115Y-113615839D01*
X101229894Y-113673397D01*
X101229892Y-113673399D01*
X101229891Y-113673399D01*
X101101399Y-113801891D01*
X101101392Y-113801900D01*
X101044571Y-113880106D01*
X100989241Y-113922772D01*
X100962896Y-113926656D01*
X100382000Y-114507552D01*
X100382000Y-114501339D01*
X100354741Y-114399606D01*
X100302080Y-114308394D01*
X100227606Y-114233920D01*
X100136394Y-114181259D01*
X100034661Y-114154000D01*
X100028447Y-114154000D01*
X100603396Y-113579049D01*
X100603395Y-113579048D01*
X100586834Y-113567014D01*
X100586830Y-113567012D01*
X100424984Y-113484548D01*
X100252225Y-113428415D01*
X100072821Y-113400000D01*
X99891179Y-113400000D01*
X99711774Y-113428415D01*
X99539015Y-113484548D01*
X99377170Y-113567012D01*
X99377161Y-113567018D01*
X99360603Y-113579048D01*
X99360602Y-113579049D01*
X99935554Y-114154000D01*
X99929339Y-114154000D01*
X99827606Y-114181259D01*
X99736394Y-114233920D01*
X99661920Y-114308394D01*
X99609259Y-114399606D01*
X99582000Y-114501339D01*
X99582000Y-114507553D01*
X99007049Y-113932602D01*
X99007048Y-113932603D01*
X98995018Y-113949161D01*
X98995012Y-113949170D01*
X98912548Y-114111015D01*
X98856415Y-114283774D01*
X98828000Y-114463178D01*
X93172099Y-114463178D01*
X93172099Y-113801328D01*
X93165691Y-113741717D01*
X93165498Y-113741200D01*
X93138809Y-113669642D01*
X93115397Y-113606871D01*
X93115393Y-113606864D01*
X93029147Y-113491655D01*
X93029144Y-113491652D01*
X92913935Y-113405406D01*
X92913928Y-113405402D01*
X92779082Y-113355108D01*
X92779083Y-113355108D01*
X92719483Y-113348701D01*
X92719481Y-113348700D01*
X92719473Y-113348700D01*
X92719464Y-113348700D01*
X91315729Y-113348700D01*
X91315723Y-113348701D01*
X91256116Y-113355108D01*
X91121271Y-113405402D01*
X91121264Y-113405406D01*
X91006055Y-113491652D01*
X90932556Y-113589833D01*
X90876622Y-113631703D01*
X90806930Y-113636687D01*
X90760404Y-113615839D01*
X90748051Y-113606864D01*
X90622690Y-113515783D01*
X90460774Y-113433283D01*
X90460771Y-113433281D01*
X90287948Y-113377128D01*
X90148919Y-113355108D01*
X90108461Y-113348700D01*
X89926739Y-113348700D01*
X89886281Y-113355108D01*
X89747252Y-113377128D01*
X89747249Y-113377128D01*
X89574428Y-113433281D01*
X89574425Y-113433283D01*
X89412509Y-113515783D01*
X89368317Y-113547891D01*
X89265494Y-113622597D01*
X89265492Y-113622599D01*
X89265491Y-113622599D01*
X89136999Y-113751091D01*
X89136999Y-113751092D01*
X89136997Y-113751094D01*
X89100084Y-113801900D01*
X89030183Y-113898109D01*
X88947683Y-114060025D01*
X88947681Y-114060028D01*
X88891528Y-114232849D01*
X88891528Y-114232852D01*
X88863100Y-114412339D01*
X83856900Y-114412339D01*
X83856899Y-113932603D01*
X83856899Y-113242529D01*
X83856898Y-113242523D01*
X83854973Y-113224616D01*
X83850491Y-113182917D01*
X83847138Y-113173928D01*
X83800197Y-113048071D01*
X83800193Y-113048064D01*
X83713947Y-112932855D01*
X83713944Y-112932852D01*
X83598735Y-112846606D01*
X83598728Y-112846602D01*
X83463882Y-112796308D01*
X83463883Y-112796308D01*
X83404283Y-112789901D01*
X83404281Y-112789900D01*
X83404273Y-112789900D01*
X83404264Y-112789900D01*
X82000529Y-112789900D01*
X82000523Y-112789901D01*
X81940916Y-112796308D01*
X81806071Y-112846602D01*
X81806064Y-112846606D01*
X81690855Y-112932852D01*
X81617356Y-113031033D01*
X81561422Y-113072903D01*
X81491730Y-113077887D01*
X81445204Y-113057039D01*
X81432851Y-113048064D01*
X81307490Y-112956983D01*
X81145574Y-112874483D01*
X81145571Y-112874481D01*
X80972748Y-112818328D01*
X80833719Y-112796308D01*
X80793261Y-112789900D01*
X80611539Y-112789900D01*
X80571081Y-112796308D01*
X80432052Y-112818328D01*
X80432049Y-112818328D01*
X80259228Y-112874481D01*
X80259225Y-112874483D01*
X80097309Y-112956983D01*
X80056408Y-112986700D01*
X79950294Y-113063797D01*
X79950292Y-113063799D01*
X79950291Y-113063799D01*
X79821799Y-113192291D01*
X79821799Y-113192292D01*
X79821797Y-113192294D01*
X79814277Y-113202645D01*
X79714983Y-113339309D01*
X79632483Y-113501225D01*
X79632481Y-113501228D01*
X79576328Y-113674049D01*
X79576328Y-113674052D01*
X79556169Y-113801329D01*
X79547900Y-113853539D01*
X75005326Y-113853539D01*
X74998534Y-113844191D01*
X74905971Y-113716786D01*
X74761213Y-113572028D01*
X74595613Y-113451715D01*
X74595612Y-113451714D01*
X74595610Y-113451713D01*
X74519500Y-113412933D01*
X74413223Y-113358781D01*
X74218534Y-113295522D01*
X74043995Y-113267878D01*
X74016352Y-113263500D01*
X73811648Y-113263500D01*
X73787329Y-113267351D01*
X73609465Y-113295522D01*
X73414776Y-113358781D01*
X73232386Y-113451715D01*
X73066786Y-113572028D01*
X72922028Y-113716786D01*
X72801715Y-113882386D01*
X72754485Y-113975080D01*
X72706510Y-114025876D01*
X72638689Y-114042671D01*
X72572554Y-114020134D01*
X72533515Y-113975080D01*
X72520313Y-113949170D01*
X72486287Y-113882390D01*
X72458534Y-113844191D01*
X72365971Y-113716786D01*
X72221213Y-113572028D01*
X72055613Y-113451715D01*
X72055612Y-113451714D01*
X72055610Y-113451713D01*
X71979500Y-113412933D01*
X71873223Y-113358781D01*
X71678534Y-113295522D01*
X71503995Y-113267878D01*
X71476352Y-113263500D01*
X71271648Y-113263500D01*
X71247329Y-113267351D01*
X71069465Y-113295522D01*
X70874776Y-113358781D01*
X70692386Y-113451715D01*
X70526786Y-113572028D01*
X70382028Y-113716786D01*
X70261715Y-113882386D01*
X70214485Y-113975080D01*
X70166510Y-114025876D01*
X70098689Y-114042671D01*
X70032554Y-114020134D01*
X69993515Y-113975080D01*
X69980313Y-113949170D01*
X69946287Y-113882390D01*
X69918534Y-113844191D01*
X69825971Y-113716786D01*
X69681213Y-113572028D01*
X69515613Y-113451715D01*
X69515612Y-113451714D01*
X69515610Y-113451713D01*
X69439500Y-113412933D01*
X69333223Y-113358781D01*
X69138534Y-113295522D01*
X68963995Y-113267878D01*
X68936352Y-113263500D01*
X68731648Y-113263500D01*
X68707329Y-113267351D01*
X68529465Y-113295522D01*
X68334776Y-113358781D01*
X68152386Y-113451715D01*
X67986786Y-113572028D01*
X67842028Y-113716786D01*
X67721715Y-113882386D01*
X67674485Y-113975080D01*
X67626510Y-114025876D01*
X67558689Y-114042671D01*
X67492554Y-114020134D01*
X67453515Y-113975080D01*
X67440313Y-113949170D01*
X67406287Y-113882390D01*
X67378534Y-113844191D01*
X67285971Y-113716786D01*
X67141213Y-113572028D01*
X66975613Y-113451715D01*
X66975612Y-113451714D01*
X66975610Y-113451713D01*
X66899500Y-113412933D01*
X66793223Y-113358781D01*
X66598534Y-113295522D01*
X66423995Y-113267878D01*
X66396352Y-113263500D01*
X66191648Y-113263500D01*
X66167329Y-113267351D01*
X65989465Y-113295522D01*
X65794776Y-113358781D01*
X65612386Y-113451715D01*
X65446786Y-113572028D01*
X65302028Y-113716786D01*
X65181715Y-113882386D01*
X65134485Y-113975080D01*
X65086510Y-114025876D01*
X65018689Y-114042671D01*
X64952554Y-114020134D01*
X64913515Y-113975080D01*
X64900313Y-113949170D01*
X64866287Y-113882390D01*
X64838534Y-113844191D01*
X64745971Y-113716786D01*
X64601213Y-113572028D01*
X64435613Y-113451715D01*
X64435612Y-113451714D01*
X64435610Y-113451713D01*
X64359500Y-113412933D01*
X64253223Y-113358781D01*
X64058534Y-113295522D01*
X63883995Y-113267878D01*
X63856352Y-113263500D01*
X63651648Y-113263500D01*
X63627329Y-113267351D01*
X63449465Y-113295522D01*
X63254776Y-113358781D01*
X63072386Y-113451715D01*
X62906786Y-113572028D01*
X62762028Y-113716786D01*
X62641715Y-113882386D01*
X62594485Y-113975080D01*
X62546510Y-114025876D01*
X62478689Y-114042671D01*
X62412554Y-114020134D01*
X62373515Y-113975080D01*
X62360313Y-113949170D01*
X62326287Y-113882390D01*
X62298534Y-113844191D01*
X62205971Y-113716786D01*
X62061213Y-113572028D01*
X61895613Y-113451715D01*
X61895612Y-113451714D01*
X61895610Y-113451713D01*
X61819500Y-113412933D01*
X61713223Y-113358781D01*
X61518534Y-113295522D01*
X61343995Y-113267878D01*
X61316352Y-113263500D01*
X61111648Y-113263500D01*
X61087329Y-113267351D01*
X60909465Y-113295522D01*
X60714776Y-113358781D01*
X60532386Y-113451715D01*
X60366786Y-113572028D01*
X60222028Y-113716786D01*
X60101715Y-113882386D01*
X60054485Y-113975080D01*
X60006510Y-114025876D01*
X59938689Y-114042671D01*
X59872554Y-114020134D01*
X59833515Y-113975080D01*
X59820313Y-113949170D01*
X59786287Y-113882390D01*
X59758534Y-113844191D01*
X59665971Y-113716786D01*
X59521213Y-113572028D01*
X59355613Y-113451715D01*
X59355612Y-113451714D01*
X59355610Y-113451713D01*
X59279500Y-113412933D01*
X59173223Y-113358781D01*
X58978534Y-113295522D01*
X58803995Y-113267878D01*
X58776352Y-113263500D01*
X58571648Y-113263500D01*
X58547329Y-113267351D01*
X58369465Y-113295522D01*
X58174776Y-113358781D01*
X57992386Y-113451715D01*
X57826786Y-113572028D01*
X57682028Y-113716786D01*
X57561715Y-113882386D01*
X57514485Y-113975080D01*
X57466510Y-114025876D01*
X57398689Y-114042671D01*
X57332554Y-114020134D01*
X57293515Y-113975080D01*
X57280313Y-113949170D01*
X57246287Y-113882390D01*
X57218534Y-113844191D01*
X57125971Y-113716786D01*
X56981213Y-113572028D01*
X56815613Y-113451715D01*
X56815612Y-113451714D01*
X56815610Y-113451713D01*
X56739500Y-113412933D01*
X56633223Y-113358781D01*
X56438534Y-113295522D01*
X56263995Y-113267878D01*
X56236352Y-113263500D01*
X56031648Y-113263500D01*
X56007329Y-113267351D01*
X55829465Y-113295522D01*
X55634776Y-113358781D01*
X55452386Y-113451715D01*
X55286786Y-113572028D01*
X55142028Y-113716786D01*
X55021715Y-113882386D01*
X54928781Y-114064776D01*
X54865522Y-114259465D01*
X54833500Y-114461648D01*
X54833500Y-114666351D01*
X54865522Y-114868534D01*
X54928781Y-115063223D01*
X54985937Y-115175395D01*
X55014371Y-115231201D01*
X55021715Y-115245613D01*
X55142028Y-115411213D01*
X55286786Y-115555971D01*
X55426807Y-115657700D01*
X55452390Y-115676287D01*
X55532147Y-115716925D01*
X55546061Y-115724015D01*
X55596857Y-115771990D01*
X55613652Y-115839811D01*
X55591114Y-115905946D01*
X55536399Y-115949397D01*
X55489766Y-115958500D01*
X35930500Y-115958500D01*
X35863461Y-115938815D01*
X35817706Y-115886011D01*
X35806500Y-115834500D01*
X35806500Y-113431713D01*
X36749500Y-113431713D01*
X36749500Y-113644287D01*
X36751619Y-113657664D01*
X36774463Y-113801900D01*
X36782754Y-113854243D01*
X36848385Y-114056235D01*
X36848444Y-114056414D01*
X36944951Y-114245820D01*
X37069890Y-114417786D01*
X37220213Y-114568109D01*
X37392179Y-114693048D01*
X37392181Y-114693049D01*
X37392184Y-114693051D01*
X37581588Y-114789557D01*
X37783757Y-114855246D01*
X37993713Y-114888500D01*
X37993714Y-114888500D01*
X38206286Y-114888500D01*
X38206287Y-114888500D01*
X38416243Y-114855246D01*
X38618412Y-114789557D01*
X38807816Y-114693051D01*
X38872213Y-114646264D01*
X38979786Y-114568109D01*
X38979788Y-114568106D01*
X38979792Y-114568104D01*
X39130104Y-114417792D01*
X39130106Y-114417788D01*
X39130109Y-114417786D01*
X39255048Y-114245820D01*
X39255047Y-114245820D01*
X39255051Y-114245816D01*
X39351557Y-114056412D01*
X39417246Y-113854243D01*
X39450500Y-113644287D01*
X39450500Y-113431713D01*
X39417246Y-113221757D01*
X39351557Y-113019588D01*
X39255051Y-112830184D01*
X39255049Y-112830181D01*
X39255048Y-112830179D01*
X39130109Y-112658213D01*
X38979786Y-112507890D01*
X38807820Y-112382951D01*
X38618414Y-112286444D01*
X38618413Y-112286443D01*
X38618412Y-112286443D01*
X38416243Y-112220754D01*
X38416241Y-112220753D01*
X38416240Y-112220753D01*
X38254957Y-112195208D01*
X38206287Y-112187500D01*
X37993713Y-112187500D01*
X37945042Y-112195208D01*
X37783760Y-112220753D01*
X37581585Y-112286444D01*
X37392179Y-112382951D01*
X37220213Y-112507890D01*
X37069890Y-112658213D01*
X36944951Y-112830179D01*
X36848444Y-113019585D01*
X36782753Y-113221760D01*
X36754602Y-113399500D01*
X36749500Y-113431713D01*
X35806500Y-113431713D01*
X35806500Y-102524629D01*
X37955100Y-102524629D01*
X37955100Y-102707370D01*
X37983684Y-102887841D01*
X37983685Y-102887845D01*
X38028148Y-103024688D01*
X38040153Y-103061633D01*
X38078141Y-103136189D01*
X38123109Y-103224444D01*
X38230515Y-103372276D01*
X38359724Y-103501485D01*
X38379262Y-103515680D01*
X38379265Y-103515682D01*
X38421929Y-103571013D01*
X38427907Y-103640627D01*
X38395299Y-103702421D01*
X38379265Y-103716316D01*
X38359720Y-103730516D01*
X38230517Y-103859719D01*
X38123109Y-104007553D01*
X38040153Y-104170364D01*
X37983684Y-104344156D01*
X37955100Y-104524627D01*
X37955100Y-104707368D01*
X37983684Y-104887839D01*
X37983685Y-104887843D01*
X38040152Y-105061629D01*
X38123109Y-105224442D01*
X38230515Y-105372274D01*
X38359724Y-105501483D01*
X38379265Y-105515680D01*
X38421931Y-105571009D01*
X38427911Y-105640622D01*
X38395305Y-105702417D01*
X38379267Y-105716315D01*
X38359724Y-105730513D01*
X38230517Y-105859720D01*
X38123109Y-106007554D01*
X38040153Y-106170365D01*
X37983684Y-106344157D01*
X37955100Y-106524628D01*
X37955100Y-106707369D01*
X37983684Y-106887840D01*
X37983685Y-106887844D01*
X38040152Y-107061630D01*
X38123109Y-107224443D01*
X38230515Y-107372275D01*
X38359724Y-107501484D01*
X38379265Y-107515681D01*
X38421929Y-107571010D01*
X38427908Y-107640623D01*
X38395302Y-107702418D01*
X38379266Y-107716314D01*
X38359727Y-107730510D01*
X38359721Y-107730515D01*
X38230517Y-107859719D01*
X38123109Y-108007553D01*
X38040153Y-108170364D01*
X37983684Y-108344156D01*
X37955100Y-108524627D01*
X37955100Y-108707368D01*
X37983684Y-108887839D01*
X37983685Y-108887843D01*
X38040152Y-109061629D01*
X38123109Y-109224442D01*
X38230515Y-109372274D01*
X38359724Y-109501483D01*
X38507556Y-109608889D01*
X38670369Y-109691846D01*
X38844155Y-109748313D01*
X38911835Y-109759032D01*
X39024630Y-109776898D01*
X39024635Y-109776898D01*
X39207370Y-109776898D01*
X39307631Y-109761017D01*
X39387845Y-109748313D01*
X39561631Y-109691846D01*
X39724444Y-109608889D01*
X39872276Y-109501483D01*
X40001485Y-109372274D01*
X40108891Y-109224442D01*
X40191848Y-109061629D01*
X40248315Y-108887843D01*
X40271335Y-108742500D01*
X40276900Y-108707368D01*
X40276900Y-108524627D01*
X40255967Y-108392464D01*
X40253859Y-108379153D01*
X92650000Y-108379153D01*
X92650000Y-108536846D01*
X92680761Y-108691489D01*
X92680764Y-108691501D01*
X92741102Y-108837172D01*
X92741109Y-108837185D01*
X92828710Y-108968288D01*
X92828713Y-108968292D01*
X92940207Y-109079786D01*
X92940211Y-109079789D01*
X93071314Y-109167390D01*
X93071327Y-109167397D01*
X93209048Y-109224442D01*
X93217003Y-109227737D01*
X93371653Y-109258499D01*
X93371656Y-109258500D01*
X93371658Y-109258500D01*
X93529344Y-109258500D01*
X93529345Y-109258499D01*
X93683997Y-109227737D01*
X93829679Y-109167394D01*
X93960789Y-109079789D01*
X94072289Y-108968289D01*
X94159894Y-108837179D01*
X94220237Y-108691497D01*
X94251000Y-108536842D01*
X94251000Y-108379158D01*
X94251000Y-108379155D01*
X94250999Y-108379153D01*
X94233110Y-108289219D01*
X94220237Y-108224503D01*
X94201904Y-108180243D01*
X94159897Y-108078827D01*
X94159890Y-108078814D01*
X94072289Y-107947711D01*
X94072286Y-107947707D01*
X93960792Y-107836213D01*
X93960788Y-107836210D01*
X93829685Y-107748609D01*
X93829672Y-107748602D01*
X93684001Y-107688264D01*
X93683989Y-107688261D01*
X93529345Y-107657500D01*
X93529342Y-107657500D01*
X93371658Y-107657500D01*
X93371655Y-107657500D01*
X93217010Y-107688261D01*
X93216998Y-107688264D01*
X93071327Y-107748602D01*
X93071314Y-107748609D01*
X92940211Y-107836210D01*
X92940207Y-107836213D01*
X92828713Y-107947707D01*
X92828710Y-107947711D01*
X92741109Y-108078814D01*
X92741102Y-108078827D01*
X92680764Y-108224498D01*
X92680761Y-108224510D01*
X92650000Y-108379153D01*
X40253859Y-108379153D01*
X40248315Y-108344156D01*
X40248315Y-108344153D01*
X40191848Y-108170367D01*
X40108891Y-108007554D01*
X40001485Y-107859722D01*
X39872276Y-107730513D01*
X39870032Y-107728883D01*
X39852735Y-107716315D01*
X39810069Y-107660985D01*
X39804091Y-107591372D01*
X39836697Y-107529577D01*
X39852738Y-107515679D01*
X39872276Y-107501484D01*
X40001485Y-107372275D01*
X40025190Y-107339648D01*
X99537500Y-107339648D01*
X99537500Y-107544351D01*
X99569522Y-107746534D01*
X99632781Y-107941223D01*
X99725715Y-108123613D01*
X99846028Y-108289213D01*
X99990786Y-108433971D01*
X100132384Y-108536846D01*
X100156390Y-108554287D01*
X100272607Y-108613503D01*
X100338776Y-108647218D01*
X100338778Y-108647218D01*
X100338781Y-108647220D01*
X100443137Y-108681127D01*
X100533465Y-108710477D01*
X100634557Y-108726488D01*
X100735648Y-108742500D01*
X100735649Y-108742500D01*
X100940351Y-108742500D01*
X100940352Y-108742500D01*
X101142534Y-108710477D01*
X101337219Y-108647220D01*
X101519610Y-108554287D01*
X101612590Y-108486732D01*
X101685213Y-108433971D01*
X101685215Y-108433968D01*
X101685219Y-108433966D01*
X101829966Y-108289219D01*
X101829968Y-108289215D01*
X101829971Y-108289213D01*
X101916316Y-108170367D01*
X101950287Y-108123610D01*
X102043220Y-107941219D01*
X102106477Y-107746534D01*
X102138500Y-107544352D01*
X102138500Y-107339648D01*
X102106477Y-107137466D01*
X102106476Y-107137462D01*
X102106476Y-107137461D01*
X102091245Y-107090584D01*
X102080772Y-107058353D01*
X127063100Y-107058353D01*
X127063100Y-107216046D01*
X127093861Y-107370689D01*
X127093864Y-107370701D01*
X127154202Y-107516372D01*
X127154209Y-107516385D01*
X127241810Y-107647488D01*
X127241813Y-107647492D01*
X127353307Y-107758986D01*
X127353311Y-107758989D01*
X127484414Y-107846590D01*
X127484427Y-107846597D01*
X127630098Y-107906935D01*
X127630103Y-107906937D01*
X127784753Y-107937699D01*
X127784756Y-107937700D01*
X127784758Y-107937700D01*
X127942444Y-107937700D01*
X127942445Y-107937699D01*
X128097097Y-107906937D01*
X128242779Y-107846594D01*
X128373889Y-107758989D01*
X128485389Y-107647489D01*
X128572994Y-107516379D01*
X128633337Y-107370697D01*
X128664100Y-107216042D01*
X128664100Y-107058358D01*
X128664100Y-107058355D01*
X128664099Y-107058353D01*
X128633337Y-106903703D01*
X128596811Y-106815520D01*
X128572997Y-106758027D01*
X128572990Y-106758014D01*
X128485389Y-106626911D01*
X128485386Y-106626907D01*
X128373892Y-106515413D01*
X128373888Y-106515410D01*
X128242785Y-106427809D01*
X128242772Y-106427802D01*
X128097101Y-106367464D01*
X128097089Y-106367461D01*
X127942445Y-106336700D01*
X127942442Y-106336700D01*
X127784758Y-106336700D01*
X127784755Y-106336700D01*
X127630110Y-106367461D01*
X127630098Y-106367464D01*
X127484427Y-106427802D01*
X127484414Y-106427809D01*
X127353311Y-106515410D01*
X127353307Y-106515413D01*
X127241813Y-106626907D01*
X127241810Y-106626911D01*
X127154209Y-106758014D01*
X127154202Y-106758027D01*
X127093864Y-106903698D01*
X127093861Y-106903710D01*
X127063100Y-107058353D01*
X102080772Y-107058353D01*
X102049905Y-106963355D01*
X102043220Y-106942781D01*
X102043218Y-106942778D01*
X102043218Y-106942776D01*
X102009503Y-106876607D01*
X101950287Y-106760390D01*
X101933511Y-106737299D01*
X101829971Y-106594786D01*
X101685213Y-106450028D01*
X101519613Y-106329715D01*
X101519612Y-106329714D01*
X101519610Y-106329713D01*
X101455745Y-106297172D01*
X101337223Y-106236781D01*
X101142534Y-106173522D01*
X100967995Y-106145878D01*
X100940352Y-106141500D01*
X100735648Y-106141500D01*
X100711329Y-106145351D01*
X100533465Y-106173522D01*
X100338776Y-106236781D01*
X100156386Y-106329715D01*
X99990786Y-106450028D01*
X99846028Y-106594786D01*
X99725715Y-106760386D01*
X99632781Y-106942776D01*
X99569522Y-107137465D01*
X99537500Y-107339648D01*
X40025190Y-107339648D01*
X40108891Y-107224443D01*
X40191848Y-107061630D01*
X40248315Y-106887844D01*
X40268502Y-106760390D01*
X40276900Y-106707369D01*
X40276900Y-106524628D01*
X40252007Y-106367464D01*
X40248315Y-106344154D01*
X40191848Y-106170368D01*
X40108891Y-106007555D01*
X40001485Y-105859723D01*
X39980915Y-105839153D01*
X103085500Y-105839153D01*
X103085500Y-105996846D01*
X103116261Y-106151489D01*
X103116264Y-106151501D01*
X103176602Y-106297172D01*
X103176609Y-106297185D01*
X103264210Y-106428288D01*
X103264213Y-106428292D01*
X103375707Y-106539786D01*
X103375711Y-106539789D01*
X103506814Y-106627390D01*
X103506827Y-106627397D01*
X103649072Y-106686316D01*
X103652503Y-106687737D01*
X103807153Y-106718499D01*
X103807156Y-106718500D01*
X103807158Y-106718500D01*
X103964844Y-106718500D01*
X103964845Y-106718499D01*
X104119497Y-106687737D01*
X104265179Y-106627394D01*
X104396289Y-106539789D01*
X104507789Y-106428289D01*
X104595394Y-106297179D01*
X104655737Y-106151497D01*
X104686500Y-105996842D01*
X104686500Y-105839158D01*
X104686500Y-105839155D01*
X104686499Y-105839153D01*
X104679589Y-105804414D01*
X104655737Y-105684503D01*
X104655735Y-105684498D01*
X104595397Y-105538827D01*
X104595390Y-105538814D01*
X104511161Y-105412757D01*
X104507789Y-105407711D01*
X104507786Y-105407707D01*
X104450032Y-105349953D01*
X134530700Y-105349953D01*
X134530700Y-105507646D01*
X134561461Y-105662289D01*
X134561464Y-105662301D01*
X134621802Y-105807972D01*
X134621809Y-105807985D01*
X134709410Y-105939088D01*
X134709413Y-105939092D01*
X134820907Y-106050586D01*
X134820911Y-106050589D01*
X134952014Y-106138190D01*
X134952027Y-106138197D01*
X135095873Y-106197779D01*
X135097703Y-106198537D01*
X135252353Y-106229299D01*
X135252356Y-106229300D01*
X135252358Y-106229300D01*
X135410044Y-106229300D01*
X135410045Y-106229299D01*
X135564697Y-106198537D01*
X135710379Y-106138194D01*
X135841489Y-106050589D01*
X135952989Y-105939089D01*
X136007202Y-105857953D01*
X140880700Y-105857953D01*
X140880700Y-106015646D01*
X140911461Y-106170289D01*
X140911464Y-106170301D01*
X140971802Y-106315972D01*
X140971809Y-106315985D01*
X141059410Y-106447088D01*
X141059413Y-106447092D01*
X141170907Y-106558586D01*
X141170911Y-106558589D01*
X141302014Y-106646190D01*
X141302027Y-106646197D01*
X141447698Y-106706535D01*
X141447703Y-106706537D01*
X141602353Y-106737299D01*
X141602356Y-106737300D01*
X141602358Y-106737300D01*
X141760044Y-106737300D01*
X141760045Y-106737299D01*
X141914697Y-106706537D01*
X142060379Y-106646194D01*
X142191489Y-106558589D01*
X142302989Y-106447089D01*
X142390594Y-106315979D01*
X142450937Y-106170297D01*
X142481700Y-106015642D01*
X142481700Y-105857958D01*
X142481700Y-105857955D01*
X142481699Y-105857953D01*
X142477959Y-105839153D01*
X142450937Y-105703303D01*
X142443148Y-105684498D01*
X142390597Y-105557627D01*
X142390595Y-105557623D01*
X142390594Y-105557621D01*
X142390589Y-105557614D01*
X142381824Y-105544495D01*
X142302989Y-105426511D01*
X142302986Y-105426507D01*
X142191492Y-105315013D01*
X142191488Y-105315010D01*
X142060385Y-105227409D01*
X142060372Y-105227402D01*
X141914701Y-105167064D01*
X141914689Y-105167061D01*
X141760045Y-105136300D01*
X141760042Y-105136300D01*
X141602358Y-105136300D01*
X141602355Y-105136300D01*
X141447710Y-105167061D01*
X141447698Y-105167064D01*
X141302027Y-105227402D01*
X141302014Y-105227409D01*
X141170911Y-105315010D01*
X141170907Y-105315013D01*
X141059413Y-105426507D01*
X141059410Y-105426511D01*
X140971809Y-105557614D01*
X140971802Y-105557627D01*
X140911464Y-105703298D01*
X140911461Y-105703310D01*
X140880700Y-105857953D01*
X136007202Y-105857953D01*
X136040594Y-105807979D01*
X136100937Y-105662297D01*
X136131700Y-105507642D01*
X136131700Y-105349958D01*
X136131700Y-105349955D01*
X136131699Y-105349953D01*
X136124749Y-105315013D01*
X136100937Y-105195303D01*
X136081452Y-105148261D01*
X136040597Y-105049627D01*
X136040590Y-105049614D01*
X135952989Y-104918511D01*
X135952986Y-104918507D01*
X135841492Y-104807013D01*
X135841488Y-104807010D01*
X135710385Y-104719409D01*
X135710372Y-104719402D01*
X135564701Y-104659064D01*
X135564689Y-104659061D01*
X135410045Y-104628300D01*
X135410042Y-104628300D01*
X135252358Y-104628300D01*
X135252355Y-104628300D01*
X135097710Y-104659061D01*
X135097698Y-104659064D01*
X134952027Y-104719402D01*
X134952014Y-104719409D01*
X134820911Y-104807010D01*
X134820907Y-104807013D01*
X134709413Y-104918507D01*
X134709410Y-104918511D01*
X134621809Y-105049614D01*
X134621802Y-105049627D01*
X134561464Y-105195298D01*
X134561461Y-105195310D01*
X134530700Y-105349953D01*
X104450032Y-105349953D01*
X104396292Y-105296213D01*
X104396288Y-105296210D01*
X104265185Y-105208609D01*
X104265172Y-105208602D01*
X104119501Y-105148264D01*
X104119489Y-105148261D01*
X103964845Y-105117500D01*
X103964842Y-105117500D01*
X103807158Y-105117500D01*
X103807155Y-105117500D01*
X103652510Y-105148261D01*
X103652498Y-105148264D01*
X103506827Y-105208602D01*
X103506814Y-105208609D01*
X103375711Y-105296210D01*
X103375707Y-105296213D01*
X103264213Y-105407707D01*
X103264210Y-105407711D01*
X103176609Y-105538814D01*
X103176602Y-105538827D01*
X103116264Y-105684498D01*
X103116261Y-105684510D01*
X103085500Y-105839153D01*
X39980915Y-105839153D01*
X39872276Y-105730514D01*
X39869732Y-105728666D01*
X39852734Y-105716316D01*
X39810068Y-105660987D01*
X39804089Y-105591373D01*
X39836694Y-105529578D01*
X39852730Y-105515683D01*
X39872276Y-105501483D01*
X40001485Y-105372274D01*
X40108891Y-105224442D01*
X40191848Y-105061629D01*
X40248315Y-104887843D01*
X40261118Y-104807010D01*
X40276900Y-104707368D01*
X40276900Y-104524627D01*
X40248315Y-104344156D01*
X40248315Y-104344153D01*
X40191848Y-104170367D01*
X40108891Y-104007554D01*
X40100629Y-103996183D01*
X40048734Y-103924754D01*
X40048732Y-103924752D01*
X40045304Y-103920034D01*
X40001485Y-103859722D01*
X39999716Y-103857953D01*
X140880700Y-103857953D01*
X140880700Y-104015646D01*
X140911461Y-104170289D01*
X140911464Y-104170301D01*
X140971802Y-104315972D01*
X140971809Y-104315985D01*
X141059410Y-104447088D01*
X141059413Y-104447092D01*
X141170907Y-104558586D01*
X141170911Y-104558589D01*
X141302014Y-104646190D01*
X141302027Y-104646197D01*
X141441856Y-104704115D01*
X141447703Y-104706537D01*
X141602353Y-104737299D01*
X141602356Y-104737300D01*
X141602358Y-104737300D01*
X141760044Y-104737300D01*
X141760045Y-104737299D01*
X141914697Y-104706537D01*
X142060379Y-104646194D01*
X142191489Y-104558589D01*
X142302989Y-104447089D01*
X142390594Y-104315979D01*
X142450937Y-104170297D01*
X142481700Y-104015642D01*
X142481700Y-103857958D01*
X142481700Y-103857955D01*
X142481699Y-103857953D01*
X142450938Y-103703310D01*
X142450937Y-103703303D01*
X142450572Y-103702421D01*
X142390597Y-103557627D01*
X142390590Y-103557614D01*
X142302989Y-103426511D01*
X142302986Y-103426507D01*
X142191492Y-103315013D01*
X142191488Y-103315010D01*
X142060385Y-103227409D01*
X142060372Y-103227402D01*
X141914701Y-103167064D01*
X141914689Y-103167061D01*
X141760045Y-103136300D01*
X141760042Y-103136300D01*
X141602358Y-103136300D01*
X141602355Y-103136300D01*
X141447710Y-103167061D01*
X141447698Y-103167064D01*
X141302027Y-103227402D01*
X141302014Y-103227409D01*
X141170911Y-103315010D01*
X141170907Y-103315013D01*
X141059413Y-103426507D01*
X141059410Y-103426511D01*
X140971809Y-103557614D01*
X140971802Y-103557627D01*
X140911464Y-103703298D01*
X140911461Y-103703310D01*
X140880700Y-103857953D01*
X39999716Y-103857953D01*
X39872276Y-103730513D01*
X39852737Y-103716317D01*
X39810071Y-103660989D01*
X39804090Y-103591376D01*
X39836695Y-103529580D01*
X39852738Y-103515680D01*
X39872276Y-103501485D01*
X40001485Y-103372276D01*
X40108891Y-103224444D01*
X40191848Y-103061631D01*
X40248315Y-102887845D01*
X40261019Y-102807631D01*
X40276900Y-102707370D01*
X40276900Y-102524629D01*
X40248315Y-102344158D01*
X40248315Y-102344155D01*
X40191848Y-102170369D01*
X40108891Y-102007556D01*
X40001485Y-101859724D01*
X39903409Y-101761648D01*
X54833500Y-101761648D01*
X54833500Y-101966351D01*
X54865522Y-102168534D01*
X54928781Y-102363223D01*
X54983942Y-102471481D01*
X55003867Y-102510586D01*
X55021715Y-102545613D01*
X55142028Y-102711213D01*
X55286786Y-102855971D01*
X55434590Y-102963355D01*
X55452390Y-102976287D01*
X55547384Y-103024689D01*
X55634776Y-103069218D01*
X55634778Y-103069218D01*
X55634781Y-103069220D01*
X55739137Y-103103127D01*
X55829465Y-103132477D01*
X55930557Y-103148488D01*
X56031648Y-103164500D01*
X56031649Y-103164500D01*
X56236351Y-103164500D01*
X56236352Y-103164500D01*
X56438534Y-103132477D01*
X56633219Y-103069220D01*
X56815610Y-102976287D01*
X56912234Y-102906086D01*
X56981213Y-102855971D01*
X56981215Y-102855968D01*
X56981219Y-102855966D01*
X57125966Y-102711219D01*
X57125968Y-102711215D01*
X57125971Y-102711213D01*
X57246284Y-102545614D01*
X57246286Y-102545611D01*
X57246287Y-102545610D01*
X57293795Y-102452369D01*
X57341770Y-102401574D01*
X57409591Y-102384779D01*
X57475725Y-102407316D01*
X57514765Y-102452370D01*
X57562140Y-102545349D01*
X57682417Y-102710894D01*
X57682417Y-102710895D01*
X57827104Y-102855582D01*
X57992650Y-102975859D01*
X58174968Y-103068754D01*
X58369578Y-103131988D01*
X58424000Y-103140607D01*
X58424000Y-102179686D01*
X58428394Y-102184080D01*
X58519606Y-102236741D01*
X58621339Y-102264000D01*
X58726661Y-102264000D01*
X58828394Y-102236741D01*
X58919606Y-102184080D01*
X58924000Y-102179686D01*
X58924000Y-103140606D01*
X58978421Y-103131988D01*
X59173031Y-103068754D01*
X59355349Y-102975859D01*
X59520894Y-102855582D01*
X59520895Y-102855582D01*
X59665582Y-102710895D01*
X59665582Y-102710894D01*
X59785861Y-102545347D01*
X59833234Y-102452371D01*
X59881208Y-102401575D01*
X59949028Y-102384779D01*
X60015164Y-102407316D01*
X60054203Y-102452369D01*
X60101713Y-102545611D01*
X60222028Y-102711213D01*
X60366786Y-102855971D01*
X60514590Y-102963355D01*
X60532390Y-102976287D01*
X60627384Y-103024689D01*
X60714776Y-103069218D01*
X60714778Y-103069218D01*
X60714781Y-103069220D01*
X60819137Y-103103127D01*
X60909465Y-103132477D01*
X61010557Y-103148488D01*
X61111648Y-103164500D01*
X61111649Y-103164500D01*
X61316351Y-103164500D01*
X61316352Y-103164500D01*
X61518534Y-103132477D01*
X61713219Y-103069220D01*
X61895610Y-102976287D01*
X61992234Y-102906086D01*
X62061213Y-102855971D01*
X62061215Y-102855968D01*
X62061219Y-102855966D01*
X62205966Y-102711219D01*
X62205968Y-102711215D01*
X62205971Y-102711213D01*
X62326284Y-102545614D01*
X62326286Y-102545611D01*
X62326287Y-102545610D01*
X62373516Y-102452917D01*
X62421489Y-102402123D01*
X62489310Y-102385328D01*
X62555445Y-102407865D01*
X62594483Y-102452917D01*
X62623869Y-102510589D01*
X62641715Y-102545614D01*
X62762028Y-102711213D01*
X62906786Y-102855971D01*
X63054590Y-102963355D01*
X63072390Y-102976287D01*
X63167384Y-103024689D01*
X63254776Y-103069218D01*
X63254778Y-103069218D01*
X63254781Y-103069220D01*
X63359137Y-103103127D01*
X63449465Y-103132477D01*
X63550557Y-103148488D01*
X63651648Y-103164500D01*
X63651649Y-103164500D01*
X63856351Y-103164500D01*
X63856352Y-103164500D01*
X64058534Y-103132477D01*
X64253219Y-103069220D01*
X64435610Y-102976287D01*
X64532234Y-102906086D01*
X64601213Y-102855971D01*
X64601215Y-102855968D01*
X64601219Y-102855966D01*
X64745966Y-102711219D01*
X64745968Y-102711215D01*
X64745971Y-102711213D01*
X64866284Y-102545614D01*
X64866286Y-102545611D01*
X64866287Y-102545610D01*
X64913516Y-102452917D01*
X64961489Y-102402123D01*
X65029310Y-102385328D01*
X65095445Y-102407865D01*
X65134483Y-102452917D01*
X65163869Y-102510589D01*
X65181715Y-102545614D01*
X65302028Y-102711213D01*
X65446786Y-102855971D01*
X65594590Y-102963355D01*
X65612390Y-102976287D01*
X65707384Y-103024689D01*
X65794776Y-103069218D01*
X65794778Y-103069218D01*
X65794781Y-103069220D01*
X65899137Y-103103127D01*
X65989465Y-103132477D01*
X66090557Y-103148488D01*
X66191648Y-103164500D01*
X66191649Y-103164500D01*
X66396351Y-103164500D01*
X66396352Y-103164500D01*
X66598534Y-103132477D01*
X66793219Y-103069220D01*
X66975610Y-102976287D01*
X67072234Y-102906086D01*
X67141213Y-102855971D01*
X67141215Y-102855968D01*
X67141219Y-102855966D01*
X67285966Y-102711219D01*
X67285968Y-102711215D01*
X67285971Y-102711213D01*
X67406284Y-102545614D01*
X67406286Y-102545611D01*
X67406287Y-102545610D01*
X67453516Y-102452917D01*
X67501489Y-102402123D01*
X67569310Y-102385328D01*
X67635445Y-102407865D01*
X67674483Y-102452917D01*
X67703869Y-102510589D01*
X67721715Y-102545614D01*
X67842028Y-102711213D01*
X67986786Y-102855971D01*
X68134590Y-102963355D01*
X68152390Y-102976287D01*
X68247384Y-103024689D01*
X68334776Y-103069218D01*
X68334778Y-103069218D01*
X68334781Y-103069220D01*
X68439137Y-103103127D01*
X68529465Y-103132477D01*
X68630557Y-103148488D01*
X68731648Y-103164500D01*
X68731649Y-103164500D01*
X68936351Y-103164500D01*
X68936352Y-103164500D01*
X69138534Y-103132477D01*
X69333219Y-103069220D01*
X69515610Y-102976287D01*
X69612234Y-102906086D01*
X69681213Y-102855971D01*
X69681215Y-102855968D01*
X69681219Y-102855966D01*
X69825966Y-102711219D01*
X69825968Y-102711215D01*
X69825971Y-102711213D01*
X69946284Y-102545614D01*
X69946286Y-102545611D01*
X69946287Y-102545610D01*
X69993516Y-102452917D01*
X70041489Y-102402123D01*
X70109310Y-102385328D01*
X70175445Y-102407865D01*
X70214483Y-102452917D01*
X70243869Y-102510589D01*
X70261715Y-102545614D01*
X70382028Y-102711213D01*
X70526786Y-102855971D01*
X70674590Y-102963355D01*
X70692390Y-102976287D01*
X70787384Y-103024689D01*
X70874776Y-103069218D01*
X70874778Y-103069218D01*
X70874781Y-103069220D01*
X70979137Y-103103127D01*
X71069465Y-103132477D01*
X71170557Y-103148488D01*
X71271648Y-103164500D01*
X71271649Y-103164500D01*
X71476351Y-103164500D01*
X71476352Y-103164500D01*
X71678534Y-103132477D01*
X71873219Y-103069220D01*
X72055610Y-102976287D01*
X72152234Y-102906086D01*
X72221213Y-102855971D01*
X72221215Y-102855968D01*
X72221219Y-102855966D01*
X72365966Y-102711219D01*
X72368763Y-102707370D01*
X72392770Y-102674326D01*
X72448099Y-102631660D01*
X72517712Y-102625679D01*
X72579508Y-102658284D01*
X72613866Y-102719122D01*
X72616378Y-102733953D01*
X72620401Y-102771373D01*
X72620403Y-102771379D01*
X72670645Y-102906086D01*
X72670649Y-102906093D01*
X72756809Y-103021187D01*
X72756812Y-103021190D01*
X72871906Y-103107350D01*
X72871913Y-103107354D01*
X73006620Y-103157596D01*
X73006627Y-103157598D01*
X73066155Y-103163999D01*
X73066172Y-103164000D01*
X73664000Y-103164000D01*
X73664000Y-102179686D01*
X73668394Y-102184080D01*
X73759606Y-102236741D01*
X73861339Y-102264000D01*
X73966661Y-102264000D01*
X74068394Y-102236741D01*
X74159606Y-102184080D01*
X74164000Y-102179686D01*
X74164000Y-103164000D01*
X74761828Y-103164000D01*
X74761844Y-103163999D01*
X74821372Y-103157598D01*
X74821379Y-103157596D01*
X74956086Y-103107354D01*
X74956093Y-103107350D01*
X75071187Y-103021190D01*
X75071190Y-103021187D01*
X75157350Y-102906093D01*
X75157354Y-102906086D01*
X75207596Y-102771379D01*
X75207598Y-102771372D01*
X75213999Y-102711844D01*
X75214000Y-102711827D01*
X75214000Y-102435553D01*
X139051900Y-102435553D01*
X139051900Y-102593246D01*
X139082661Y-102747889D01*
X139082664Y-102747901D01*
X139143002Y-102893572D01*
X139143009Y-102893585D01*
X139230610Y-103024688D01*
X139230613Y-103024692D01*
X139342107Y-103136186D01*
X139342111Y-103136189D01*
X139473214Y-103223790D01*
X139473227Y-103223797D01*
X139618898Y-103284135D01*
X139618903Y-103284137D01*
X139773553Y-103314899D01*
X139773556Y-103314900D01*
X139773558Y-103314900D01*
X139931244Y-103314900D01*
X139931245Y-103314899D01*
X140085897Y-103284137D01*
X140222859Y-103227406D01*
X140231572Y-103223797D01*
X140231572Y-103223796D01*
X140231579Y-103223794D01*
X140362689Y-103136189D01*
X140474189Y-103024689D01*
X140561794Y-102893579D01*
X140622137Y-102747897D01*
X140652900Y-102593242D01*
X140652900Y-102435558D01*
X140652900Y-102435555D01*
X140652899Y-102435553D01*
X140645646Y-102399088D01*
X140622137Y-102280903D01*
X140582032Y-102184080D01*
X140561797Y-102135227D01*
X140561790Y-102135214D01*
X140474189Y-102004111D01*
X140474186Y-102004107D01*
X140362692Y-101892613D01*
X140362688Y-101892610D01*
X140238984Y-101809953D01*
X140982300Y-101809953D01*
X140982300Y-101967646D01*
X141013061Y-102122289D01*
X141013064Y-102122301D01*
X141073402Y-102267972D01*
X141073409Y-102267985D01*
X141161010Y-102399088D01*
X141161013Y-102399092D01*
X141272507Y-102510586D01*
X141272511Y-102510589D01*
X141403614Y-102598190D01*
X141403627Y-102598197D01*
X141548538Y-102658220D01*
X141549303Y-102658537D01*
X141688962Y-102686317D01*
X141703953Y-102689299D01*
X141703956Y-102689300D01*
X141703958Y-102689300D01*
X141861644Y-102689300D01*
X141861645Y-102689299D01*
X142016297Y-102658537D01*
X142161979Y-102598194D01*
X142293089Y-102510589D01*
X142404589Y-102399089D01*
X142492194Y-102267979D01*
X142552537Y-102122297D01*
X142583300Y-101967642D01*
X142583300Y-101809958D01*
X142583300Y-101809955D01*
X142583299Y-101809953D01*
X142570312Y-101744663D01*
X142552537Y-101655303D01*
X142516823Y-101569081D01*
X142497743Y-101523016D01*
X142492195Y-101509623D01*
X142492190Y-101509614D01*
X142472690Y-101480430D01*
X144928100Y-101480430D01*
X144928100Y-101663171D01*
X144951349Y-101809958D01*
X144956685Y-101843646D01*
X145013152Y-102017432D01*
X145096109Y-102180245D01*
X145203515Y-102328077D01*
X145332724Y-102457286D01*
X145352265Y-102471483D01*
X145394929Y-102526812D01*
X145400908Y-102596425D01*
X145368302Y-102658220D01*
X145352266Y-102672116D01*
X145332727Y-102686312D01*
X145332721Y-102686317D01*
X145203517Y-102815521D01*
X145096109Y-102963355D01*
X145013153Y-103126166D01*
X144956684Y-103299958D01*
X144928100Y-103480429D01*
X144928100Y-103663170D01*
X144938767Y-103730516D01*
X144956685Y-103843645D01*
X145013152Y-104017431D01*
X145096109Y-104180244D01*
X145203515Y-104328076D01*
X145332724Y-104457285D01*
X145403857Y-104508966D01*
X145409840Y-104513313D01*
X145452505Y-104568643D01*
X145454772Y-104584021D01*
X146036154Y-105165401D01*
X146035496Y-105165401D01*
X145932135Y-105193096D01*
X145839464Y-105246600D01*
X145763799Y-105322265D01*
X145710295Y-105414936D01*
X145682600Y-105518297D01*
X145682600Y-105518953D01*
X145109468Y-104945821D01*
X145109465Y-104945821D01*
X145096543Y-104963609D01*
X145096539Y-104963614D01*
X145013616Y-105126357D01*
X144957172Y-105300072D01*
X144928600Y-105480470D01*
X144928600Y-105663131D01*
X144957172Y-105843529D01*
X145013616Y-106017244D01*
X145096535Y-106179979D01*
X145109467Y-106197779D01*
X145682600Y-105624646D01*
X145682600Y-105625305D01*
X145710295Y-105728666D01*
X145763799Y-105821337D01*
X145839464Y-105897002D01*
X145932135Y-105950506D01*
X146035496Y-105978201D01*
X146036153Y-105978201D01*
X145451651Y-106562700D01*
X145446206Y-106588620D01*
X145409839Y-106630286D01*
X145332724Y-106686314D01*
X145332722Y-106686316D01*
X145332721Y-106686316D01*
X145203517Y-106815520D01*
X145096109Y-106963354D01*
X145013153Y-107126165D01*
X144956684Y-107299957D01*
X144928100Y-107480428D01*
X144928100Y-107663169D01*
X144955508Y-107836213D01*
X144956685Y-107843644D01*
X145013152Y-108017430D01*
X145096109Y-108180243D01*
X145203515Y-108328075D01*
X145332724Y-108457284D01*
X145480556Y-108564690D01*
X145643369Y-108647647D01*
X145817155Y-108704114D01*
X145884835Y-108714833D01*
X145997630Y-108732699D01*
X145997635Y-108732699D01*
X146180370Y-108732699D01*
X146280631Y-108716818D01*
X146360845Y-108704114D01*
X146534631Y-108647647D01*
X146697444Y-108564690D01*
X146845276Y-108457284D01*
X146974485Y-108328075D01*
X147081891Y-108180243D01*
X147164848Y-108017430D01*
X147221315Y-107843644D01*
X147236367Y-107748609D01*
X147249900Y-107663169D01*
X147249900Y-107480428D01*
X147221315Y-107299957D01*
X147221315Y-107299954D01*
X147164848Y-107126168D01*
X147081891Y-106963355D01*
X146974485Y-106815523D01*
X146845276Y-106686314D01*
X146768156Y-106630283D01*
X146725492Y-106574954D01*
X146723225Y-106559579D01*
X146141848Y-105978201D01*
X146142504Y-105978201D01*
X146245865Y-105950506D01*
X146338536Y-105897002D01*
X146414201Y-105821337D01*
X146467705Y-105728666D01*
X146495400Y-105625305D01*
X146495400Y-105624648D01*
X147068531Y-106197779D01*
X147081465Y-106179979D01*
X147164383Y-106017244D01*
X147220827Y-105843529D01*
X147249400Y-105663131D01*
X147249400Y-105480470D01*
X147220827Y-105300072D01*
X147164383Y-105126357D01*
X147081462Y-104963618D01*
X147068531Y-104945821D01*
X147068531Y-104945820D01*
X146495400Y-105518952D01*
X146495400Y-105518297D01*
X146467705Y-105414936D01*
X146414201Y-105322265D01*
X146338536Y-105246600D01*
X146245865Y-105193096D01*
X146142504Y-105165401D01*
X146141847Y-105165401D01*
X146726343Y-104580903D01*
X146731787Y-104554987D01*
X146768155Y-104513316D01*
X146845276Y-104457285D01*
X146974485Y-104328076D01*
X147081891Y-104180244D01*
X147164848Y-104017431D01*
X147221315Y-103843645D01*
X147239234Y-103730508D01*
X147249900Y-103663170D01*
X147249900Y-103480429D01*
X147223700Y-103315013D01*
X147221315Y-103299955D01*
X147164848Y-103126169D01*
X147081891Y-102963356D01*
X146974485Y-102815524D01*
X146845276Y-102686315D01*
X146828775Y-102674326D01*
X146825735Y-102672117D01*
X146783069Y-102616787D01*
X146777091Y-102547174D01*
X146809697Y-102485379D01*
X146825738Y-102471481D01*
X146845276Y-102457286D01*
X146974485Y-102328077D01*
X147081891Y-102180245D01*
X147164848Y-102017432D01*
X147221315Y-101843646D01*
X147242545Y-101709606D01*
X147249900Y-101663171D01*
X147249900Y-101480430D01*
X147225420Y-101325876D01*
X147221315Y-101299956D01*
X147164848Y-101126170D01*
X147081891Y-100963357D01*
X146974485Y-100815525D01*
X146845276Y-100686316D01*
X146697444Y-100578910D01*
X146534631Y-100495953D01*
X146360845Y-100439486D01*
X146360843Y-100439485D01*
X146360841Y-100439485D01*
X146180370Y-100410901D01*
X146180365Y-100410901D01*
X145997635Y-100410901D01*
X145997630Y-100410901D01*
X145817158Y-100439485D01*
X145643366Y-100495954D01*
X145480555Y-100578910D01*
X145332721Y-100686318D01*
X145203517Y-100815522D01*
X145096109Y-100963356D01*
X145013153Y-101126167D01*
X144956684Y-101299959D01*
X144928100Y-101480430D01*
X142472690Y-101480430D01*
X142404589Y-101378511D01*
X142404586Y-101378507D01*
X142293092Y-101267013D01*
X142293088Y-101267010D01*
X142161985Y-101179409D01*
X142161972Y-101179402D01*
X142016301Y-101119064D01*
X142016289Y-101119061D01*
X141861645Y-101088300D01*
X141861642Y-101088300D01*
X141703958Y-101088300D01*
X141703955Y-101088300D01*
X141549310Y-101119061D01*
X141549298Y-101119064D01*
X141403627Y-101179402D01*
X141403614Y-101179409D01*
X141272511Y-101267010D01*
X141272507Y-101267013D01*
X141161013Y-101378507D01*
X141161010Y-101378511D01*
X141073409Y-101509614D01*
X141073402Y-101509627D01*
X141013064Y-101655298D01*
X141013061Y-101655310D01*
X140982300Y-101809953D01*
X140238984Y-101809953D01*
X140231585Y-101805009D01*
X140231572Y-101805002D01*
X140085901Y-101744664D01*
X140085889Y-101744661D01*
X139931245Y-101713900D01*
X139931242Y-101713900D01*
X139773558Y-101713900D01*
X139773555Y-101713900D01*
X139618910Y-101744661D01*
X139618898Y-101744664D01*
X139473227Y-101805002D01*
X139473214Y-101805009D01*
X139342111Y-101892610D01*
X139342107Y-101892613D01*
X139230613Y-102004107D01*
X139230610Y-102004111D01*
X139143009Y-102135214D01*
X139143002Y-102135227D01*
X139082664Y-102280898D01*
X139082661Y-102280910D01*
X139051900Y-102435553D01*
X75214000Y-102435553D01*
X75214000Y-102114000D01*
X74229686Y-102114000D01*
X74234080Y-102109606D01*
X74286741Y-102018394D01*
X74314000Y-101916661D01*
X74314000Y-101811339D01*
X74286741Y-101709606D01*
X74234080Y-101618394D01*
X74229686Y-101614000D01*
X75214000Y-101614000D01*
X75214000Y-101016172D01*
X75213999Y-101016155D01*
X75207598Y-100956627D01*
X75207596Y-100956620D01*
X75157354Y-100821913D01*
X75157350Y-100821906D01*
X75071190Y-100706812D01*
X75071187Y-100706809D01*
X74956093Y-100620649D01*
X74956086Y-100620645D01*
X74821379Y-100570403D01*
X74821372Y-100570401D01*
X74761844Y-100564000D01*
X74164000Y-100564000D01*
X74164000Y-101548314D01*
X74159606Y-101543920D01*
X74068394Y-101491259D01*
X73966661Y-101464000D01*
X73861339Y-101464000D01*
X73759606Y-101491259D01*
X73668394Y-101543920D01*
X73664000Y-101548314D01*
X73664000Y-100564000D01*
X73066155Y-100564000D01*
X73006627Y-100570401D01*
X73006620Y-100570403D01*
X72871913Y-100620645D01*
X72871906Y-100620649D01*
X72756812Y-100706809D01*
X72756809Y-100706812D01*
X72670649Y-100821906D01*
X72670645Y-100821913D01*
X72620403Y-100956620D01*
X72620401Y-100956626D01*
X72616378Y-100994046D01*
X72589639Y-101058597D01*
X72532246Y-101098444D01*
X72462421Y-101100937D01*
X72402333Y-101065283D01*
X72392770Y-101053674D01*
X72366201Y-101017105D01*
X72365966Y-101016781D01*
X72221219Y-100872034D01*
X72221213Y-100872028D01*
X72055613Y-100751715D01*
X72055612Y-100751714D01*
X72055610Y-100751713D01*
X71967487Y-100706812D01*
X71873223Y-100658781D01*
X71678534Y-100595522D01*
X71503995Y-100567878D01*
X71476352Y-100563500D01*
X71271648Y-100563500D01*
X71247329Y-100567351D01*
X71069465Y-100595522D01*
X70874776Y-100658781D01*
X70692386Y-100751715D01*
X70526786Y-100872028D01*
X70382028Y-101016786D01*
X70261715Y-101182386D01*
X70214485Y-101275080D01*
X70166510Y-101325876D01*
X70098689Y-101342671D01*
X70032554Y-101320134D01*
X69993515Y-101275080D01*
X69946419Y-101182650D01*
X69946287Y-101182390D01*
X69938556Y-101171749D01*
X69825971Y-101016786D01*
X69681213Y-100872028D01*
X69515613Y-100751715D01*
X69515612Y-100751714D01*
X69515610Y-100751713D01*
X69427487Y-100706812D01*
X69333223Y-100658781D01*
X69138534Y-100595522D01*
X68963995Y-100567878D01*
X68936352Y-100563500D01*
X68731648Y-100563500D01*
X68707329Y-100567351D01*
X68529465Y-100595522D01*
X68334776Y-100658781D01*
X68152386Y-100751715D01*
X67986786Y-100872028D01*
X67842028Y-101016786D01*
X67721715Y-101182386D01*
X67674485Y-101275080D01*
X67626510Y-101325876D01*
X67558689Y-101342671D01*
X67492554Y-101320134D01*
X67453515Y-101275080D01*
X67406419Y-101182650D01*
X67406287Y-101182390D01*
X67398556Y-101171749D01*
X67285971Y-101016786D01*
X67141213Y-100872028D01*
X66975613Y-100751715D01*
X66975612Y-100751714D01*
X66975610Y-100751713D01*
X66887487Y-100706812D01*
X66793223Y-100658781D01*
X66598534Y-100595522D01*
X66423995Y-100567878D01*
X66396352Y-100563500D01*
X66191648Y-100563500D01*
X66167329Y-100567351D01*
X65989465Y-100595522D01*
X65794776Y-100658781D01*
X65612386Y-100751715D01*
X65446786Y-100872028D01*
X65302028Y-101016786D01*
X65181715Y-101182386D01*
X65134485Y-101275080D01*
X65086510Y-101325876D01*
X65018689Y-101342671D01*
X64952554Y-101320134D01*
X64913515Y-101275080D01*
X64866419Y-101182650D01*
X64866287Y-101182390D01*
X64858556Y-101171749D01*
X64745971Y-101016786D01*
X64601213Y-100872028D01*
X64435613Y-100751715D01*
X64435612Y-100751714D01*
X64435610Y-100751713D01*
X64347487Y-100706812D01*
X64253223Y-100658781D01*
X64058534Y-100595522D01*
X63883995Y-100567878D01*
X63856352Y-100563500D01*
X63651648Y-100563500D01*
X63627329Y-100567351D01*
X63449465Y-100595522D01*
X63254776Y-100658781D01*
X63072386Y-100751715D01*
X62906786Y-100872028D01*
X62762028Y-101016786D01*
X62641715Y-101182386D01*
X62594485Y-101275080D01*
X62546510Y-101325876D01*
X62478689Y-101342671D01*
X62412554Y-101320134D01*
X62373515Y-101275080D01*
X62326419Y-101182650D01*
X62326287Y-101182390D01*
X62318556Y-101171749D01*
X62205971Y-101016786D01*
X62061213Y-100872028D01*
X61895613Y-100751715D01*
X61895612Y-100751714D01*
X61895610Y-100751713D01*
X61807487Y-100706812D01*
X61713223Y-100658781D01*
X61518534Y-100595522D01*
X61343995Y-100567878D01*
X61316352Y-100563500D01*
X61111648Y-100563500D01*
X61087329Y-100567351D01*
X60909465Y-100595522D01*
X60714776Y-100658781D01*
X60532386Y-100751715D01*
X60366786Y-100872028D01*
X60222028Y-101016786D01*
X60101713Y-101182388D01*
X60054203Y-101275630D01*
X60006228Y-101326426D01*
X59938407Y-101343220D01*
X59872272Y-101320682D01*
X59833234Y-101275628D01*
X59785861Y-101182652D01*
X59665582Y-101017105D01*
X59665582Y-101017104D01*
X59520895Y-100872417D01*
X59355349Y-100752140D01*
X59173029Y-100659244D01*
X58978413Y-100596009D01*
X58924000Y-100587390D01*
X58924000Y-101548314D01*
X58919606Y-101543920D01*
X58828394Y-101491259D01*
X58726661Y-101464000D01*
X58621339Y-101464000D01*
X58519606Y-101491259D01*
X58428394Y-101543920D01*
X58424000Y-101548314D01*
X58424000Y-100587390D01*
X58369586Y-100596009D01*
X58174970Y-100659244D01*
X57992650Y-100752140D01*
X57827105Y-100872417D01*
X57827104Y-100872417D01*
X57682417Y-101017104D01*
X57682417Y-101017105D01*
X57562140Y-101182650D01*
X57514765Y-101275629D01*
X57466790Y-101326425D01*
X57398969Y-101343220D01*
X57332834Y-101320682D01*
X57293795Y-101275629D01*
X57246419Y-101182650D01*
X57246287Y-101182390D01*
X57238556Y-101171749D01*
X57125971Y-101016786D01*
X56981213Y-100872028D01*
X56815613Y-100751715D01*
X56815612Y-100751714D01*
X56815610Y-100751713D01*
X56727487Y-100706812D01*
X56633223Y-100658781D01*
X56438534Y-100595522D01*
X56263995Y-100567878D01*
X56236352Y-100563500D01*
X56031648Y-100563500D01*
X56007329Y-100567351D01*
X55829465Y-100595522D01*
X55634776Y-100658781D01*
X55452386Y-100751715D01*
X55286786Y-100872028D01*
X55142028Y-101016786D01*
X55021715Y-101182386D01*
X54928781Y-101364776D01*
X54865522Y-101559465D01*
X54833500Y-101761648D01*
X39903409Y-101761648D01*
X39872276Y-101730515D01*
X39724444Y-101623109D01*
X39561631Y-101540152D01*
X39387845Y-101483685D01*
X39387843Y-101483684D01*
X39387841Y-101483684D01*
X39207370Y-101455100D01*
X39207365Y-101455100D01*
X39024635Y-101455100D01*
X39024630Y-101455100D01*
X38844158Y-101483684D01*
X38670366Y-101540153D01*
X38507555Y-101623109D01*
X38359721Y-101730517D01*
X38230517Y-101859721D01*
X38123109Y-102007555D01*
X38040153Y-102170366D01*
X37983684Y-102344158D01*
X37955100Y-102524629D01*
X35806500Y-102524629D01*
X35806500Y-98205648D01*
X54833500Y-98205648D01*
X54833500Y-98410351D01*
X54865522Y-98612534D01*
X54928781Y-98807223D01*
X54992691Y-98932653D01*
X55014322Y-98975105D01*
X55021715Y-98989613D01*
X55142028Y-99155213D01*
X55286786Y-99299971D01*
X55441749Y-99412556D01*
X55452390Y-99420287D01*
X55568607Y-99479503D01*
X55634776Y-99513218D01*
X55634778Y-99513218D01*
X55634781Y-99513220D01*
X55739137Y-99547127D01*
X55829465Y-99576477D01*
X55930557Y-99592488D01*
X56031648Y-99608500D01*
X56031649Y-99608500D01*
X56236351Y-99608500D01*
X56236352Y-99608500D01*
X56438534Y-99576477D01*
X56633219Y-99513220D01*
X56815610Y-99420287D01*
X56908590Y-99352732D01*
X56981213Y-99299971D01*
X56981215Y-99299968D01*
X56981219Y-99299966D01*
X57125966Y-99155219D01*
X57125968Y-99155215D01*
X57125971Y-99155213D01*
X57246284Y-98989614D01*
X57246285Y-98989613D01*
X57246287Y-98989610D01*
X57293516Y-98896917D01*
X57341489Y-98846123D01*
X57409310Y-98829328D01*
X57475445Y-98851865D01*
X57514485Y-98896919D01*
X57561715Y-98989614D01*
X57682028Y-99155213D01*
X57826786Y-99299971D01*
X57981749Y-99412556D01*
X57992390Y-99420287D01*
X58108607Y-99479503D01*
X58174776Y-99513218D01*
X58174778Y-99513218D01*
X58174781Y-99513220D01*
X58279137Y-99547127D01*
X58369465Y-99576477D01*
X58470557Y-99592488D01*
X58571648Y-99608500D01*
X58571649Y-99608500D01*
X58776351Y-99608500D01*
X58776352Y-99608500D01*
X58978534Y-99576477D01*
X59173219Y-99513220D01*
X59355610Y-99420287D01*
X59448590Y-99352732D01*
X59521213Y-99299971D01*
X59521215Y-99299968D01*
X59521219Y-99299966D01*
X59665966Y-99155219D01*
X59665968Y-99155215D01*
X59665971Y-99155213D01*
X59786284Y-98989614D01*
X59786285Y-98989613D01*
X59786287Y-98989610D01*
X59833516Y-98896917D01*
X59881489Y-98846123D01*
X59949310Y-98829328D01*
X60015445Y-98851865D01*
X60054485Y-98896919D01*
X60101715Y-98989614D01*
X60222028Y-99155213D01*
X60366786Y-99299971D01*
X60521749Y-99412556D01*
X60532390Y-99420287D01*
X60648607Y-99479503D01*
X60714776Y-99513218D01*
X60714778Y-99513218D01*
X60714781Y-99513220D01*
X60819137Y-99547127D01*
X60909465Y-99576477D01*
X61010557Y-99592488D01*
X61111648Y-99608500D01*
X61111649Y-99608500D01*
X61316351Y-99608500D01*
X61316352Y-99608500D01*
X61518534Y-99576477D01*
X61713219Y-99513220D01*
X61895610Y-99420287D01*
X61988590Y-99352732D01*
X62061213Y-99299971D01*
X62061215Y-99299968D01*
X62061219Y-99299966D01*
X62205966Y-99155219D01*
X62205968Y-99155215D01*
X62205971Y-99155213D01*
X62326284Y-98989614D01*
X62326285Y-98989613D01*
X62326287Y-98989610D01*
X62373516Y-98896917D01*
X62421489Y-98846123D01*
X62489310Y-98829328D01*
X62555445Y-98851865D01*
X62594485Y-98896919D01*
X62641715Y-98989614D01*
X62762028Y-99155213D01*
X62906786Y-99299971D01*
X63061749Y-99412556D01*
X63072390Y-99420287D01*
X63188607Y-99479503D01*
X63254776Y-99513218D01*
X63254778Y-99513218D01*
X63254781Y-99513220D01*
X63359137Y-99547127D01*
X63449465Y-99576477D01*
X63550557Y-99592488D01*
X63651648Y-99608500D01*
X63651649Y-99608500D01*
X63856351Y-99608500D01*
X63856352Y-99608500D01*
X64058534Y-99576477D01*
X64253219Y-99513220D01*
X64435610Y-99420287D01*
X64528590Y-99352732D01*
X64601213Y-99299971D01*
X64601215Y-99299968D01*
X64601219Y-99299966D01*
X64745966Y-99155219D01*
X64745968Y-99155215D01*
X64745971Y-99155213D01*
X64866284Y-98989614D01*
X64866285Y-98989613D01*
X64866287Y-98989610D01*
X64913516Y-98896917D01*
X64961489Y-98846123D01*
X65029310Y-98829328D01*
X65095445Y-98851865D01*
X65134485Y-98896919D01*
X65181715Y-98989614D01*
X65302028Y-99155213D01*
X65446786Y-99299971D01*
X65601749Y-99412556D01*
X65612390Y-99420287D01*
X65728607Y-99479503D01*
X65794776Y-99513218D01*
X65794778Y-99513218D01*
X65794781Y-99513220D01*
X65899137Y-99547127D01*
X65989465Y-99576477D01*
X66090557Y-99592488D01*
X66191648Y-99608500D01*
X66191649Y-99608500D01*
X66396351Y-99608500D01*
X66396352Y-99608500D01*
X66598534Y-99576477D01*
X66793219Y-99513220D01*
X66975610Y-99420287D01*
X67068590Y-99352732D01*
X67141213Y-99299971D01*
X67141215Y-99299968D01*
X67141219Y-99299966D01*
X67285966Y-99155219D01*
X67285968Y-99155215D01*
X67285971Y-99155213D01*
X67406284Y-98989614D01*
X67406285Y-98989613D01*
X67406287Y-98989610D01*
X67453516Y-98896917D01*
X67501489Y-98846123D01*
X67569310Y-98829328D01*
X67635445Y-98851865D01*
X67674485Y-98896919D01*
X67721715Y-98989614D01*
X67842028Y-99155213D01*
X67986786Y-99299971D01*
X68141749Y-99412556D01*
X68152390Y-99420287D01*
X68268607Y-99479503D01*
X68334776Y-99513218D01*
X68334778Y-99513218D01*
X68334781Y-99513220D01*
X68439137Y-99547127D01*
X68529465Y-99576477D01*
X68630557Y-99592488D01*
X68731648Y-99608500D01*
X68731649Y-99608500D01*
X68936351Y-99608500D01*
X68936352Y-99608500D01*
X69138534Y-99576477D01*
X69333219Y-99513220D01*
X69515610Y-99420287D01*
X69608590Y-99352732D01*
X69681213Y-99299971D01*
X69681215Y-99299968D01*
X69681219Y-99299966D01*
X69825966Y-99155219D01*
X69825968Y-99155215D01*
X69825971Y-99155213D01*
X69946284Y-98989614D01*
X69946285Y-98989613D01*
X69946287Y-98989610D01*
X69993516Y-98896917D01*
X70041489Y-98846123D01*
X70109310Y-98829328D01*
X70175445Y-98851865D01*
X70214485Y-98896919D01*
X70261715Y-98989614D01*
X70382028Y-99155213D01*
X70526786Y-99299971D01*
X70681749Y-99412556D01*
X70692390Y-99420287D01*
X70808607Y-99479503D01*
X70874776Y-99513218D01*
X70874778Y-99513218D01*
X70874781Y-99513220D01*
X70979137Y-99547127D01*
X71069465Y-99576477D01*
X71170557Y-99592488D01*
X71271648Y-99608500D01*
X71271649Y-99608500D01*
X71476351Y-99608500D01*
X71476352Y-99608500D01*
X71678534Y-99576477D01*
X71873219Y-99513220D01*
X72055610Y-99420287D01*
X72148590Y-99352732D01*
X72221213Y-99299971D01*
X72221215Y-99299968D01*
X72221219Y-99299966D01*
X72365966Y-99155219D01*
X72365968Y-99155215D01*
X72365971Y-99155213D01*
X72486284Y-98989614D01*
X72486285Y-98989613D01*
X72486287Y-98989610D01*
X72533516Y-98896917D01*
X72581489Y-98846123D01*
X72649310Y-98829328D01*
X72715445Y-98851865D01*
X72754485Y-98896919D01*
X72801715Y-98989614D01*
X72922028Y-99155213D01*
X73066786Y-99299971D01*
X73221749Y-99412556D01*
X73232390Y-99420287D01*
X73348607Y-99479503D01*
X73414776Y-99513218D01*
X73414778Y-99513218D01*
X73414781Y-99513220D01*
X73519137Y-99547127D01*
X73609465Y-99576477D01*
X73710557Y-99592488D01*
X73811648Y-99608500D01*
X73811649Y-99608500D01*
X74016351Y-99608500D01*
X74016352Y-99608500D01*
X74218534Y-99576477D01*
X74232313Y-99572000D01*
X99561391Y-99572000D01*
X100522314Y-99572000D01*
X100517920Y-99576394D01*
X100465259Y-99667606D01*
X100438000Y-99769339D01*
X100438000Y-99874661D01*
X100465259Y-99976394D01*
X100517920Y-100067606D01*
X100522314Y-100072000D01*
X99561391Y-100072000D01*
X99570009Y-100126413D01*
X99633244Y-100321029D01*
X99726140Y-100503349D01*
X99846417Y-100668894D01*
X99846417Y-100668895D01*
X99991104Y-100813582D01*
X100156650Y-100933859D01*
X100338968Y-101026754D01*
X100533578Y-101089988D01*
X100588000Y-101098607D01*
X100588000Y-100137686D01*
X100592394Y-100142080D01*
X100683606Y-100194741D01*
X100785339Y-100222000D01*
X100890661Y-100222000D01*
X100992394Y-100194741D01*
X101083606Y-100142080D01*
X101088000Y-100137686D01*
X101088000Y-101098606D01*
X101142421Y-101089988D01*
X101337031Y-101026754D01*
X101519349Y-100933859D01*
X101684894Y-100813582D01*
X101684895Y-100813582D01*
X101829582Y-100668895D01*
X101829582Y-100668894D01*
X101949859Y-100503349D01*
X102042755Y-100321029D01*
X102105990Y-100126413D01*
X102114609Y-100072000D01*
X101153686Y-100072000D01*
X101158080Y-100067606D01*
X101210741Y-99976394D01*
X101238000Y-99874661D01*
X101238000Y-99809953D01*
X140982300Y-99809953D01*
X140982300Y-99967646D01*
X141013061Y-100122289D01*
X141013064Y-100122301D01*
X141073402Y-100267972D01*
X141073409Y-100267985D01*
X141161010Y-100399088D01*
X141161013Y-100399092D01*
X141272507Y-100510586D01*
X141272511Y-100510589D01*
X141403614Y-100598190D01*
X141403627Y-100598197D01*
X141549298Y-100658535D01*
X141549303Y-100658537D01*
X141688957Y-100686316D01*
X141703953Y-100689299D01*
X141703956Y-100689300D01*
X141703958Y-100689300D01*
X141861644Y-100689300D01*
X141861645Y-100689299D01*
X142016297Y-100658537D01*
X142161979Y-100598194D01*
X142293089Y-100510589D01*
X142404589Y-100399089D01*
X142492194Y-100267979D01*
X142552537Y-100122297D01*
X142583300Y-99967642D01*
X142583300Y-99809958D01*
X142583300Y-99809955D01*
X142583299Y-99809953D01*
X142552538Y-99655310D01*
X142552537Y-99655303D01*
X142533151Y-99608500D01*
X142492197Y-99509627D01*
X142492190Y-99509614D01*
X142404589Y-99378511D01*
X142404586Y-99378507D01*
X142293092Y-99267013D01*
X142293088Y-99267010D01*
X142161985Y-99179409D01*
X142161972Y-99179402D01*
X142016301Y-99119064D01*
X142016289Y-99119061D01*
X141861645Y-99088300D01*
X141861642Y-99088300D01*
X141703958Y-99088300D01*
X141703955Y-99088300D01*
X141549310Y-99119061D01*
X141549298Y-99119064D01*
X141403627Y-99179402D01*
X141403614Y-99179409D01*
X141272511Y-99267010D01*
X141272507Y-99267013D01*
X141161013Y-99378507D01*
X141161010Y-99378511D01*
X141073409Y-99509614D01*
X141073402Y-99509627D01*
X141013064Y-99655298D01*
X141013061Y-99655310D01*
X140982300Y-99809953D01*
X101238000Y-99809953D01*
X101238000Y-99769339D01*
X101210741Y-99667606D01*
X101158080Y-99576394D01*
X101153686Y-99572000D01*
X102114609Y-99572000D01*
X102105990Y-99517586D01*
X102042755Y-99322970D01*
X101949859Y-99140650D01*
X101829582Y-98975105D01*
X101829582Y-98975104D01*
X101684895Y-98830417D01*
X101519349Y-98710140D01*
X101337029Y-98617244D01*
X101142413Y-98554009D01*
X101088000Y-98545390D01*
X101088000Y-99506314D01*
X101083606Y-99501920D01*
X100992394Y-99449259D01*
X100890661Y-99422000D01*
X100785339Y-99422000D01*
X100683606Y-99449259D01*
X100592394Y-99501920D01*
X100588000Y-99506314D01*
X100588000Y-98545390D01*
X100533586Y-98554009D01*
X100338970Y-98617244D01*
X100156650Y-98710140D01*
X99991105Y-98830417D01*
X99991104Y-98830417D01*
X99846417Y-98975104D01*
X99846417Y-98975105D01*
X99726140Y-99140650D01*
X99633244Y-99322970D01*
X99570009Y-99517586D01*
X99561391Y-99572000D01*
X74232313Y-99572000D01*
X74413219Y-99513220D01*
X74435925Y-99501650D01*
X74441956Y-99498578D01*
X74464688Y-99486994D01*
X74595610Y-99420287D01*
X74688590Y-99352732D01*
X74761213Y-99299971D01*
X74761215Y-99299968D01*
X74761219Y-99299966D01*
X74905966Y-99155219D01*
X74905968Y-99155215D01*
X74905971Y-99155213D01*
X74958732Y-99082590D01*
X75026287Y-98989610D01*
X75119220Y-98807219D01*
X75182477Y-98612534D01*
X75214500Y-98410352D01*
X75214500Y-98205648D01*
X75182477Y-98003466D01*
X75182475Y-98003462D01*
X75182475Y-98003457D01*
X75179205Y-97993395D01*
X75179202Y-97993385D01*
X75168729Y-97961153D01*
X120714500Y-97961153D01*
X120714500Y-98118846D01*
X120745261Y-98273489D01*
X120745264Y-98273501D01*
X120805602Y-98419172D01*
X120805609Y-98419185D01*
X120893210Y-98550288D01*
X120893213Y-98550292D01*
X121004707Y-98661786D01*
X121004711Y-98661789D01*
X121135814Y-98749390D01*
X121135827Y-98749397D01*
X121281498Y-98809735D01*
X121281503Y-98809737D01*
X121385468Y-98830417D01*
X121436153Y-98840499D01*
X121436156Y-98840500D01*
X121436158Y-98840500D01*
X121593844Y-98840500D01*
X121593845Y-98840499D01*
X121748497Y-98809737D01*
X121894179Y-98749394D01*
X122025289Y-98661789D01*
X122074544Y-98612534D01*
X122135819Y-98551260D01*
X122197142Y-98517775D01*
X122266834Y-98522759D01*
X122311181Y-98551260D01*
X122425707Y-98665786D01*
X122425711Y-98665789D01*
X122556814Y-98753390D01*
X122556827Y-98753397D01*
X122692841Y-98809735D01*
X122702503Y-98813737D01*
X122837044Y-98840499D01*
X122857153Y-98844499D01*
X122857156Y-98844500D01*
X122857158Y-98844500D01*
X123014844Y-98844500D01*
X123014845Y-98844499D01*
X123169497Y-98813737D01*
X123315179Y-98753394D01*
X123429602Y-98676939D01*
X123496279Y-98656061D01*
X123563659Y-98674545D01*
X123567384Y-98676939D01*
X123675814Y-98749390D01*
X123675827Y-98749397D01*
X123821498Y-98809735D01*
X123821503Y-98809737D01*
X123925468Y-98830417D01*
X123976153Y-98840499D01*
X123976156Y-98840500D01*
X123976158Y-98840500D01*
X124133844Y-98840500D01*
X124133845Y-98840499D01*
X124288497Y-98809737D01*
X124434179Y-98749394D01*
X124565289Y-98661789D01*
X124571017Y-98656061D01*
X124602319Y-98624760D01*
X124663642Y-98591275D01*
X124733334Y-98596259D01*
X124777681Y-98624760D01*
X124814707Y-98661786D01*
X124814711Y-98661789D01*
X124945814Y-98749390D01*
X124945827Y-98749397D01*
X125091498Y-98809735D01*
X125091503Y-98809737D01*
X125195468Y-98830417D01*
X125246153Y-98840499D01*
X125246156Y-98840500D01*
X125246158Y-98840500D01*
X125403844Y-98840500D01*
X125403845Y-98840499D01*
X125558497Y-98809737D01*
X125704179Y-98749394D01*
X125835289Y-98661789D01*
X125841017Y-98656061D01*
X125872319Y-98624760D01*
X125933642Y-98591275D01*
X126003334Y-98596259D01*
X126047681Y-98624760D01*
X126084707Y-98661786D01*
X126084711Y-98661789D01*
X126215814Y-98749390D01*
X126215827Y-98749397D01*
X126361498Y-98809735D01*
X126361503Y-98809737D01*
X126465468Y-98830417D01*
X126516153Y-98840499D01*
X126516156Y-98840500D01*
X126516158Y-98840500D01*
X126673844Y-98840500D01*
X126673845Y-98840499D01*
X126828497Y-98809737D01*
X126974179Y-98749394D01*
X127105289Y-98661789D01*
X127216789Y-98550289D01*
X127304394Y-98419179D01*
X127364737Y-98273497D01*
X127395500Y-98118842D01*
X127395500Y-97961158D01*
X127395500Y-97961155D01*
X127395499Y-97961153D01*
X127386245Y-97914632D01*
X127364737Y-97806503D01*
X127359053Y-97792781D01*
X127304397Y-97660827D01*
X127304390Y-97660814D01*
X127216789Y-97529711D01*
X127216786Y-97529707D01*
X127105292Y-97418213D01*
X127105288Y-97418210D01*
X126974185Y-97330609D01*
X126974172Y-97330602D01*
X126828501Y-97270264D01*
X126828489Y-97270261D01*
X126673845Y-97239500D01*
X126673842Y-97239500D01*
X126516158Y-97239500D01*
X126516155Y-97239500D01*
X126361510Y-97270261D01*
X126361498Y-97270264D01*
X126215827Y-97330602D01*
X126215814Y-97330609D01*
X126084711Y-97418210D01*
X126084707Y-97418213D01*
X126047681Y-97455240D01*
X125986358Y-97488725D01*
X125916666Y-97483741D01*
X125872319Y-97455240D01*
X125835292Y-97418213D01*
X125835288Y-97418210D01*
X125704185Y-97330609D01*
X125704172Y-97330602D01*
X125558501Y-97270264D01*
X125558489Y-97270261D01*
X125403845Y-97239500D01*
X125403842Y-97239500D01*
X125246158Y-97239500D01*
X125246155Y-97239500D01*
X125091510Y-97270261D01*
X125091498Y-97270264D01*
X124945827Y-97330602D01*
X124945814Y-97330609D01*
X124814711Y-97418210D01*
X124814707Y-97418213D01*
X124777681Y-97455240D01*
X124716358Y-97488725D01*
X124646666Y-97483741D01*
X124602319Y-97455240D01*
X124565292Y-97418213D01*
X124565288Y-97418210D01*
X124434185Y-97330609D01*
X124434172Y-97330602D01*
X124288501Y-97270264D01*
X124288489Y-97270261D01*
X124133845Y-97239500D01*
X124133842Y-97239500D01*
X123976158Y-97239500D01*
X123976155Y-97239500D01*
X123821510Y-97270261D01*
X123821498Y-97270264D01*
X123675827Y-97330602D01*
X123675816Y-97330608D01*
X123561396Y-97407061D01*
X123494719Y-97427938D01*
X123427339Y-97409453D01*
X123423615Y-97407060D01*
X123315185Y-97334609D01*
X123315172Y-97334602D01*
X123169501Y-97274264D01*
X123169489Y-97274261D01*
X123014845Y-97243500D01*
X123014842Y-97243500D01*
X122857158Y-97243500D01*
X122857155Y-97243500D01*
X122702510Y-97274261D01*
X122702498Y-97274264D01*
X122556827Y-97334602D01*
X122556814Y-97334609D01*
X122425711Y-97422210D01*
X122425707Y-97422213D01*
X122315181Y-97532740D01*
X122253858Y-97566225D01*
X122184166Y-97561241D01*
X122139819Y-97532740D01*
X122025292Y-97418213D01*
X122025288Y-97418210D01*
X121894185Y-97330609D01*
X121894172Y-97330602D01*
X121748501Y-97270264D01*
X121748489Y-97270261D01*
X121593845Y-97239500D01*
X121593842Y-97239500D01*
X121436158Y-97239500D01*
X121436155Y-97239500D01*
X121281510Y-97270261D01*
X121281498Y-97270264D01*
X121135827Y-97330602D01*
X121135814Y-97330609D01*
X121004711Y-97418210D01*
X121004707Y-97418213D01*
X120893213Y-97529707D01*
X120893210Y-97529711D01*
X120805609Y-97660814D01*
X120805602Y-97660827D01*
X120745264Y-97806498D01*
X120745261Y-97806510D01*
X120714500Y-97961153D01*
X75168729Y-97961153D01*
X75119218Y-97808776D01*
X75073515Y-97719080D01*
X75026287Y-97626390D01*
X74970411Y-97549482D01*
X74905971Y-97460786D01*
X74761213Y-97316028D01*
X74595613Y-97195715D01*
X74595612Y-97195714D01*
X74595610Y-97195713D01*
X74538653Y-97166691D01*
X74413223Y-97102781D01*
X74218534Y-97039522D01*
X74043995Y-97011878D01*
X74016352Y-97007500D01*
X73811648Y-97007500D01*
X73787329Y-97011351D01*
X73609465Y-97039522D01*
X73414776Y-97102781D01*
X73232386Y-97195715D01*
X73066786Y-97316028D01*
X72922028Y-97460786D01*
X72801715Y-97626386D01*
X72754485Y-97719080D01*
X72706510Y-97769876D01*
X72638689Y-97786671D01*
X72572554Y-97764134D01*
X72533515Y-97719080D01*
X72532883Y-97717840D01*
X72486287Y-97626390D01*
X72430411Y-97549482D01*
X72365971Y-97460786D01*
X72221213Y-97316028D01*
X72055613Y-97195715D01*
X72055612Y-97195714D01*
X72055610Y-97195713D01*
X71998653Y-97166691D01*
X71873223Y-97102781D01*
X71678534Y-97039522D01*
X71503995Y-97011878D01*
X71476352Y-97007500D01*
X71271648Y-97007500D01*
X71247329Y-97011351D01*
X71069465Y-97039522D01*
X70874776Y-97102781D01*
X70692386Y-97195715D01*
X70526786Y-97316028D01*
X70382028Y-97460786D01*
X70261715Y-97626386D01*
X70214485Y-97719080D01*
X70166510Y-97769876D01*
X70098689Y-97786671D01*
X70032554Y-97764134D01*
X69993515Y-97719080D01*
X69992883Y-97717840D01*
X69946287Y-97626390D01*
X69890411Y-97549482D01*
X69825971Y-97460786D01*
X69681213Y-97316028D01*
X69515613Y-97195715D01*
X69515612Y-97195714D01*
X69515610Y-97195713D01*
X69458653Y-97166691D01*
X69333223Y-97102781D01*
X69138534Y-97039522D01*
X68963995Y-97011878D01*
X68936352Y-97007500D01*
X68731648Y-97007500D01*
X68707329Y-97011351D01*
X68529465Y-97039522D01*
X68334776Y-97102781D01*
X68152386Y-97195715D01*
X67986786Y-97316028D01*
X67842028Y-97460786D01*
X67721715Y-97626386D01*
X67674485Y-97719080D01*
X67626510Y-97769876D01*
X67558689Y-97786671D01*
X67492554Y-97764134D01*
X67453515Y-97719080D01*
X67452883Y-97717840D01*
X67406287Y-97626390D01*
X67350411Y-97549482D01*
X67285971Y-97460786D01*
X67141213Y-97316028D01*
X66975613Y-97195715D01*
X66975612Y-97195714D01*
X66975610Y-97195713D01*
X66918653Y-97166691D01*
X66793223Y-97102781D01*
X66598534Y-97039522D01*
X66423995Y-97011878D01*
X66396352Y-97007500D01*
X66191648Y-97007500D01*
X66167329Y-97011351D01*
X65989465Y-97039522D01*
X65794776Y-97102781D01*
X65612386Y-97195715D01*
X65446786Y-97316028D01*
X65302028Y-97460786D01*
X65181715Y-97626386D01*
X65134485Y-97719080D01*
X65086510Y-97769876D01*
X65018689Y-97786671D01*
X64952554Y-97764134D01*
X64913515Y-97719080D01*
X64912883Y-97717840D01*
X64866287Y-97626390D01*
X64810411Y-97549482D01*
X64745971Y-97460786D01*
X64601213Y-97316028D01*
X64435613Y-97195715D01*
X64435612Y-97195714D01*
X64435610Y-97195713D01*
X64378653Y-97166691D01*
X64253223Y-97102781D01*
X64058534Y-97039522D01*
X63883995Y-97011878D01*
X63856352Y-97007500D01*
X63651648Y-97007500D01*
X63627329Y-97011351D01*
X63449465Y-97039522D01*
X63254776Y-97102781D01*
X63072386Y-97195715D01*
X62906786Y-97316028D01*
X62762028Y-97460786D01*
X62641715Y-97626386D01*
X62594485Y-97719080D01*
X62546510Y-97769876D01*
X62478689Y-97786671D01*
X62412554Y-97764134D01*
X62373515Y-97719080D01*
X62372883Y-97717840D01*
X62326287Y-97626390D01*
X62270411Y-97549482D01*
X62205971Y-97460786D01*
X62061213Y-97316028D01*
X61895613Y-97195715D01*
X61895612Y-97195714D01*
X61895610Y-97195713D01*
X61838653Y-97166691D01*
X61713223Y-97102781D01*
X61518534Y-97039522D01*
X61343995Y-97011878D01*
X61316352Y-97007500D01*
X61111648Y-97007500D01*
X61087329Y-97011351D01*
X60909465Y-97039522D01*
X60714776Y-97102781D01*
X60532386Y-97195715D01*
X60366786Y-97316028D01*
X60222028Y-97460786D01*
X60101715Y-97626386D01*
X60054485Y-97719080D01*
X60006510Y-97769876D01*
X59938689Y-97786671D01*
X59872554Y-97764134D01*
X59833515Y-97719080D01*
X59832883Y-97717840D01*
X59786287Y-97626390D01*
X59730411Y-97549482D01*
X59665971Y-97460786D01*
X59521213Y-97316028D01*
X59355613Y-97195715D01*
X59355612Y-97195714D01*
X59355610Y-97195713D01*
X59298653Y-97166691D01*
X59173223Y-97102781D01*
X58978534Y-97039522D01*
X58803995Y-97011878D01*
X58776352Y-97007500D01*
X58571648Y-97007500D01*
X58547329Y-97011351D01*
X58369465Y-97039522D01*
X58174776Y-97102781D01*
X57992386Y-97195715D01*
X57826786Y-97316028D01*
X57682028Y-97460786D01*
X57561715Y-97626386D01*
X57514485Y-97719080D01*
X57466510Y-97769876D01*
X57398689Y-97786671D01*
X57332554Y-97764134D01*
X57293515Y-97719080D01*
X57292883Y-97717840D01*
X57246287Y-97626390D01*
X57190411Y-97549482D01*
X57125971Y-97460786D01*
X56981213Y-97316028D01*
X56815613Y-97195715D01*
X56815612Y-97195714D01*
X56815610Y-97195713D01*
X56758653Y-97166691D01*
X56633223Y-97102781D01*
X56438534Y-97039522D01*
X56263995Y-97011878D01*
X56236352Y-97007500D01*
X56031648Y-97007500D01*
X56007329Y-97011351D01*
X55829465Y-97039522D01*
X55634776Y-97102781D01*
X55452386Y-97195715D01*
X55286786Y-97316028D01*
X55142028Y-97460786D01*
X55021715Y-97626386D01*
X54928781Y-97808776D01*
X54865522Y-98003465D01*
X54833500Y-98205648D01*
X35806500Y-98205648D01*
X35806500Y-86522629D01*
X38209100Y-86522629D01*
X38209100Y-86705370D01*
X38237489Y-86884607D01*
X38237685Y-86885845D01*
X38294152Y-87059631D01*
X38377109Y-87222444D01*
X38484515Y-87370276D01*
X38613724Y-87499485D01*
X38633262Y-87513680D01*
X38633265Y-87513682D01*
X38675929Y-87569013D01*
X38681907Y-87638627D01*
X38649299Y-87700421D01*
X38633265Y-87714316D01*
X38613720Y-87728516D01*
X38484517Y-87857719D01*
X38377109Y-88005553D01*
X38294153Y-88168364D01*
X38237684Y-88342156D01*
X38209100Y-88522627D01*
X38209100Y-88705368D01*
X38237684Y-88885839D01*
X38237685Y-88885843D01*
X38294152Y-89059629D01*
X38377109Y-89222442D01*
X38484515Y-89370274D01*
X38613724Y-89499483D01*
X38633265Y-89513680D01*
X38675931Y-89569009D01*
X38681911Y-89638622D01*
X38649305Y-89700417D01*
X38633267Y-89714315D01*
X38613724Y-89728513D01*
X38484517Y-89857720D01*
X38377109Y-90005554D01*
X38294153Y-90168365D01*
X38237684Y-90342157D01*
X38209100Y-90522628D01*
X38209100Y-90705369D01*
X38237468Y-90884476D01*
X38237685Y-90885844D01*
X38294152Y-91059630D01*
X38377109Y-91222443D01*
X38484515Y-91370275D01*
X38613724Y-91499484D01*
X38633265Y-91513681D01*
X38675929Y-91569010D01*
X38681908Y-91638623D01*
X38649302Y-91700418D01*
X38633266Y-91714314D01*
X38613727Y-91728510D01*
X38613721Y-91728515D01*
X38484517Y-91857719D01*
X38377109Y-92005553D01*
X38294153Y-92168364D01*
X38237684Y-92342156D01*
X38209100Y-92522627D01*
X38209100Y-92705368D01*
X38237684Y-92885839D01*
X38237685Y-92885843D01*
X38294152Y-93059629D01*
X38377109Y-93222442D01*
X38484515Y-93370274D01*
X38613724Y-93499483D01*
X38761556Y-93606889D01*
X38924369Y-93689846D01*
X39098155Y-93746313D01*
X39165835Y-93757032D01*
X39278630Y-93774898D01*
X39278635Y-93774898D01*
X39461370Y-93774898D01*
X39561631Y-93759017D01*
X39641845Y-93746313D01*
X39815631Y-93689846D01*
X39978444Y-93606889D01*
X40126276Y-93499483D01*
X40255485Y-93370274D01*
X40362891Y-93222442D01*
X40445848Y-93059629D01*
X40502315Y-92885843D01*
X40516324Y-92797394D01*
X40530900Y-92705368D01*
X40530900Y-92522627D01*
X40509629Y-92388334D01*
X40502315Y-92342153D01*
X40445848Y-92168367D01*
X40362891Y-92005554D01*
X40255485Y-91857722D01*
X40126276Y-91728513D01*
X40102060Y-91710919D01*
X40097724Y-91707105D01*
X40082017Y-91682260D01*
X40074209Y-91672135D01*
X87155500Y-91672135D01*
X87155500Y-93747870D01*
X87155501Y-93747876D01*
X87161908Y-93807483D01*
X87212202Y-93942328D01*
X87212206Y-93942335D01*
X87298452Y-94057544D01*
X87298455Y-94057547D01*
X87413664Y-94143793D01*
X87413671Y-94143797D01*
X87548517Y-94194091D01*
X87548516Y-94194091D01*
X87555444Y-94194835D01*
X87608127Y-94200500D01*
X89683872Y-94200499D01*
X89743483Y-94194091D01*
X89878331Y-94143796D01*
X89993546Y-94057546D01*
X90079796Y-93942331D01*
X90081909Y-93936663D01*
X90123776Y-93880730D01*
X90189239Y-93856309D01*
X90257513Y-93871156D01*
X90270978Y-93879674D01*
X90415066Y-93984359D01*
X90624034Y-94090835D01*
X90847090Y-94163310D01*
X91078735Y-94200000D01*
X91313265Y-94200000D01*
X91544909Y-94163310D01*
X91767965Y-94090835D01*
X91976930Y-93984361D01*
X92057945Y-93925499D01*
X92057946Y-93925499D01*
X91451142Y-93318695D01*
X91508627Y-93294884D01*
X91616725Y-93222655D01*
X91708655Y-93130725D01*
X91780884Y-93022627D01*
X91804695Y-92965141D01*
X92411498Y-93571945D01*
X92454247Y-93568581D01*
X92522625Y-93582945D01*
X92564294Y-93619313D01*
X92592645Y-93658334D01*
X92609110Y-93680996D01*
X92775005Y-93846891D01*
X92775010Y-93846895D01*
X92906373Y-93942335D01*
X92964808Y-93984790D01*
X93166063Y-94087335D01*
X93173849Y-94091302D01*
X93285410Y-94127550D01*
X93396974Y-94163799D01*
X93628695Y-94200500D01*
X93628696Y-94200500D01*
X93863304Y-94200500D01*
X93863305Y-94200500D01*
X94095026Y-94163799D01*
X94318153Y-94091301D01*
X94527192Y-93984790D01*
X94716996Y-93846890D01*
X94882890Y-93680996D01*
X95020790Y-93491192D01*
X95127301Y-93282153D01*
X95199799Y-93059026D01*
X95236500Y-92827305D01*
X95236500Y-92592695D01*
X95199799Y-92360974D01*
X95160655Y-92240500D01*
X95127302Y-92137849D01*
X95120814Y-92125116D01*
X95061728Y-92009153D01*
X100313000Y-92009153D01*
X100313000Y-92166846D01*
X100343761Y-92321489D01*
X100343764Y-92321501D01*
X100404102Y-92467172D01*
X100404109Y-92467185D01*
X100491710Y-92598288D01*
X100491713Y-92598292D01*
X100603207Y-92709786D01*
X100603211Y-92709789D01*
X100734314Y-92797390D01*
X100734327Y-92797397D01*
X100879998Y-92857735D01*
X100880003Y-92857737D01*
X101034653Y-92888499D01*
X101034656Y-92888500D01*
X101034658Y-92888500D01*
X101192344Y-92888500D01*
X101192345Y-92888499D01*
X101346997Y-92857737D01*
X101492679Y-92797394D01*
X101623789Y-92709789D01*
X101735289Y-92598289D01*
X101822894Y-92467179D01*
X101883237Y-92321497D01*
X101914000Y-92166842D01*
X101914000Y-92009158D01*
X101914000Y-92009155D01*
X101913999Y-92009153D01*
X101900939Y-91943497D01*
X101883237Y-91854503D01*
X101868608Y-91819185D01*
X101822897Y-91708827D01*
X101822890Y-91708814D01*
X101735289Y-91577711D01*
X101735286Y-91577707D01*
X101623792Y-91466213D01*
X101623788Y-91466210D01*
X101544054Y-91412933D01*
X101492685Y-91378609D01*
X101492672Y-91378602D01*
X101347001Y-91318264D01*
X101346989Y-91318261D01*
X101335210Y-91315918D01*
X107278735Y-91315918D01*
X107278735Y-91473611D01*
X107309496Y-91628254D01*
X107309499Y-91628266D01*
X107369837Y-91773937D01*
X107369844Y-91773950D01*
X107457445Y-91905053D01*
X107457448Y-91905057D01*
X107568942Y-92016551D01*
X107568946Y-92016554D01*
X107700049Y-92104155D01*
X107700062Y-92104162D01*
X107809271Y-92149397D01*
X107845738Y-92164502D01*
X108000388Y-92195264D01*
X108000391Y-92195265D01*
X108000393Y-92195265D01*
X108158079Y-92195265D01*
X108158080Y-92195264D01*
X108312732Y-92164502D01*
X108458414Y-92104159D01*
X108589524Y-92016554D01*
X108701024Y-91905054D01*
X108788629Y-91773944D01*
X108848972Y-91628262D01*
X108879735Y-91473607D01*
X108879735Y-91315923D01*
X108879735Y-91315920D01*
X108879734Y-91315918D01*
X108871834Y-91276202D01*
X108848972Y-91161268D01*
X108807767Y-91061789D01*
X108788632Y-91015592D01*
X108788625Y-91015579D01*
X108701024Y-90884476D01*
X108701021Y-90884472D01*
X108589527Y-90772978D01*
X108589523Y-90772975D01*
X108458420Y-90685374D01*
X108458407Y-90685367D01*
X108312736Y-90625029D01*
X108312724Y-90625026D01*
X108158080Y-90594265D01*
X108158077Y-90594265D01*
X108000393Y-90594265D01*
X108000390Y-90594265D01*
X107845745Y-90625026D01*
X107845733Y-90625029D01*
X107700062Y-90685367D01*
X107700049Y-90685374D01*
X107568946Y-90772975D01*
X107568942Y-90772978D01*
X107457448Y-90884472D01*
X107457445Y-90884476D01*
X107369844Y-91015579D01*
X107369837Y-91015592D01*
X107309499Y-91161263D01*
X107309496Y-91161275D01*
X107278735Y-91315918D01*
X101335210Y-91315918D01*
X101192345Y-91287500D01*
X101192342Y-91287500D01*
X101034658Y-91287500D01*
X101034655Y-91287500D01*
X100880010Y-91318261D01*
X100879998Y-91318264D01*
X100734327Y-91378602D01*
X100734314Y-91378609D01*
X100603211Y-91466210D01*
X100603207Y-91466213D01*
X100491713Y-91577707D01*
X100491710Y-91577711D01*
X100404109Y-91708814D01*
X100404102Y-91708827D01*
X100343764Y-91854498D01*
X100343761Y-91854510D01*
X100313000Y-92009153D01*
X95061728Y-92009153D01*
X95020790Y-91928808D01*
X94966801Y-91854498D01*
X94882895Y-91739010D01*
X94882891Y-91739005D01*
X94716994Y-91573108D01*
X94716989Y-91573104D01*
X94527195Y-91435212D01*
X94527194Y-91435211D01*
X94527192Y-91435210D01*
X94384397Y-91362452D01*
X94318150Y-91328697D01*
X94095027Y-91256201D01*
X93979165Y-91237850D01*
X93863305Y-91219500D01*
X93628695Y-91219500D01*
X93551454Y-91231733D01*
X93396972Y-91256201D01*
X93173849Y-91328697D01*
X92964804Y-91435212D01*
X92775010Y-91573104D01*
X92775005Y-91573108D01*
X92609108Y-91739005D01*
X92609104Y-91739010D01*
X92564296Y-91800684D01*
X92508966Y-91843350D01*
X92454250Y-91851417D01*
X92411499Y-91848052D01*
X91804694Y-92454857D01*
X91780884Y-92397373D01*
X91708655Y-92289275D01*
X91616725Y-92197345D01*
X91508627Y-92125116D01*
X91451139Y-92101304D01*
X92057945Y-91494499D01*
X92057945Y-91494498D01*
X91976933Y-91435640D01*
X91767965Y-91329164D01*
X91544909Y-91256689D01*
X91313265Y-91220000D01*
X91078735Y-91220000D01*
X90847090Y-91256689D01*
X90624034Y-91329164D01*
X90415070Y-91435637D01*
X90270978Y-91540326D01*
X90205171Y-91563805D01*
X90137118Y-91547979D01*
X90088423Y-91497873D01*
X90081912Y-91483344D01*
X90079796Y-91477669D01*
X90079794Y-91477666D01*
X90079793Y-91477664D01*
X89993547Y-91362455D01*
X89993544Y-91362452D01*
X89878335Y-91276206D01*
X89878328Y-91276202D01*
X89743482Y-91225908D01*
X89743483Y-91225908D01*
X89683883Y-91219501D01*
X89683881Y-91219500D01*
X89683873Y-91219500D01*
X89683864Y-91219500D01*
X87608129Y-91219500D01*
X87608123Y-91219501D01*
X87548516Y-91225908D01*
X87413671Y-91276202D01*
X87413664Y-91276206D01*
X87298455Y-91362452D01*
X87298452Y-91362455D01*
X87212206Y-91477664D01*
X87212202Y-91477671D01*
X87161908Y-91612517D01*
X87155501Y-91672116D01*
X87155500Y-91672135D01*
X40074209Y-91672135D01*
X40064069Y-91658985D01*
X40063560Y-91653066D01*
X40060388Y-91648048D01*
X40060606Y-91618662D01*
X40058091Y-91589372D01*
X40060862Y-91584118D01*
X40060907Y-91578180D01*
X40076979Y-91553574D01*
X40090697Y-91527577D01*
X40098217Y-91521061D01*
X40099117Y-91519684D01*
X40100545Y-91519044D01*
X40106738Y-91513679D01*
X40126276Y-91499484D01*
X40255485Y-91370275D01*
X40362891Y-91222443D01*
X40445848Y-91059630D01*
X40502315Y-90885844D01*
X40520191Y-90772978D01*
X40530900Y-90705369D01*
X40530900Y-90522628D01*
X40502315Y-90342157D01*
X40502315Y-90342154D01*
X40445848Y-90168368D01*
X40362891Y-90005555D01*
X40255485Y-89857723D01*
X40126276Y-89728514D01*
X40106733Y-89714315D01*
X40064068Y-89658987D01*
X40058089Y-89589373D01*
X40090694Y-89527578D01*
X40106730Y-89513683D01*
X40126276Y-89499483D01*
X40255485Y-89370274D01*
X40362891Y-89222442D01*
X40445848Y-89059629D01*
X40502315Y-88885843D01*
X40517366Y-88790814D01*
X40530900Y-88705368D01*
X40530900Y-88522627D01*
X40502315Y-88342156D01*
X40502315Y-88342153D01*
X40445848Y-88168367D01*
X40362891Y-88005554D01*
X40255485Y-87857722D01*
X40202916Y-87805153D01*
X118935100Y-87805153D01*
X118935100Y-87962846D01*
X118965861Y-88117489D01*
X118965864Y-88117501D01*
X119026202Y-88263172D01*
X119026209Y-88263185D01*
X119113810Y-88394288D01*
X119113813Y-88394292D01*
X119166040Y-88446519D01*
X119199525Y-88507842D01*
X119194541Y-88577534D01*
X119166040Y-88621881D01*
X119128213Y-88659707D01*
X119128210Y-88659711D01*
X119040609Y-88790814D01*
X119040602Y-88790827D01*
X118980264Y-88936498D01*
X118980261Y-88936510D01*
X118949500Y-89091153D01*
X118949500Y-89248846D01*
X118980261Y-89403489D01*
X118980264Y-89403501D01*
X119040602Y-89549172D01*
X119040609Y-89549185D01*
X119128210Y-89680288D01*
X119128213Y-89680292D01*
X119165240Y-89717319D01*
X119198725Y-89778642D01*
X119193741Y-89848334D01*
X119165240Y-89892681D01*
X119128213Y-89929707D01*
X119128210Y-89929711D01*
X119040609Y-90060814D01*
X119040602Y-90060827D01*
X118980264Y-90206498D01*
X118980261Y-90206510D01*
X118949500Y-90361153D01*
X118949500Y-90518846D01*
X118980261Y-90673489D01*
X118980264Y-90673501D01*
X119040602Y-90819172D01*
X119040609Y-90819185D01*
X119128210Y-90950288D01*
X119128213Y-90950292D01*
X119165240Y-90987319D01*
X119198725Y-91048642D01*
X119193741Y-91118334D01*
X119165240Y-91162681D01*
X119128213Y-91199707D01*
X119128210Y-91199711D01*
X119040609Y-91330814D01*
X119040602Y-91330827D01*
X118980264Y-91476498D01*
X118980261Y-91476510D01*
X118949500Y-91631153D01*
X118949500Y-91788846D01*
X118980261Y-91943489D01*
X118980264Y-91943501D01*
X119040602Y-92089172D01*
X119040609Y-92089185D01*
X119128210Y-92220288D01*
X119128213Y-92220292D01*
X119165240Y-92257319D01*
X119198725Y-92318642D01*
X119193741Y-92388334D01*
X119165240Y-92432681D01*
X119128213Y-92469707D01*
X119128210Y-92469711D01*
X119040609Y-92600814D01*
X119040602Y-92600827D01*
X118980264Y-92746498D01*
X118980261Y-92746510D01*
X118949500Y-92901153D01*
X118949500Y-93058846D01*
X118980261Y-93213489D01*
X118980264Y-93213501D01*
X119040602Y-93359172D01*
X119040609Y-93359185D01*
X119128210Y-93490288D01*
X119128213Y-93490292D01*
X119165240Y-93527319D01*
X119198725Y-93588642D01*
X119193741Y-93658334D01*
X119165240Y-93702681D01*
X119128213Y-93739707D01*
X119128210Y-93739711D01*
X119040609Y-93870814D01*
X119040602Y-93870827D01*
X118980264Y-94016498D01*
X118980261Y-94016510D01*
X118949500Y-94171153D01*
X118949500Y-94328846D01*
X118980261Y-94483489D01*
X118980264Y-94483501D01*
X119040602Y-94629172D01*
X119040609Y-94629185D01*
X119128210Y-94760288D01*
X119128213Y-94760292D01*
X119239707Y-94871786D01*
X119239711Y-94871789D01*
X119370814Y-94959390D01*
X119370827Y-94959397D01*
X119453670Y-94993711D01*
X119516503Y-95019737D01*
X119671153Y-95050499D01*
X119671156Y-95050500D01*
X119671158Y-95050500D01*
X119828844Y-95050500D01*
X119828845Y-95050499D01*
X119983497Y-95019737D01*
X120129179Y-94959394D01*
X120260289Y-94871789D01*
X120371789Y-94760289D01*
X120459394Y-94629179D01*
X120519737Y-94483497D01*
X120550500Y-94328842D01*
X120550500Y-94171158D01*
X120550500Y-94171155D01*
X120550499Y-94171153D01*
X136449500Y-94171153D01*
X136449500Y-94328846D01*
X136480261Y-94483489D01*
X136480264Y-94483501D01*
X136540602Y-94629172D01*
X136540609Y-94629185D01*
X136628210Y-94760288D01*
X136628213Y-94760292D01*
X136665240Y-94797319D01*
X136698725Y-94858642D01*
X136693741Y-94928334D01*
X136665240Y-94972681D01*
X136628213Y-95009707D01*
X136628210Y-95009711D01*
X136540609Y-95140814D01*
X136540602Y-95140827D01*
X136480264Y-95286498D01*
X136480261Y-95286510D01*
X136449500Y-95441153D01*
X136449500Y-95598846D01*
X136480261Y-95753489D01*
X136480264Y-95753501D01*
X136540602Y-95899172D01*
X136540609Y-95899185D01*
X136628210Y-96030288D01*
X136628213Y-96030292D01*
X136739707Y-96141786D01*
X136739711Y-96141789D01*
X136870814Y-96229390D01*
X136870827Y-96229397D01*
X137016498Y-96289735D01*
X137016503Y-96289737D01*
X137171153Y-96320499D01*
X137171156Y-96320500D01*
X137171158Y-96320500D01*
X137328844Y-96320500D01*
X137328845Y-96320499D01*
X137483497Y-96289737D01*
X137629179Y-96229394D01*
X137760289Y-96141789D01*
X137871789Y-96030289D01*
X137959394Y-95899179D01*
X138019737Y-95753497D01*
X138050500Y-95598842D01*
X138050500Y-95441158D01*
X138050500Y-95441155D01*
X138047317Y-95425153D01*
X138645500Y-95425153D01*
X138645500Y-95582846D01*
X138676261Y-95737489D01*
X138676264Y-95737501D01*
X138736602Y-95883172D01*
X138736609Y-95883185D01*
X138824210Y-96014288D01*
X138824213Y-96014292D01*
X138935707Y-96125786D01*
X138935711Y-96125789D01*
X139066814Y-96213390D01*
X139066827Y-96213397D01*
X139212498Y-96273735D01*
X139212503Y-96273737D01*
X139367153Y-96304499D01*
X139367156Y-96304500D01*
X139367158Y-96304500D01*
X139524844Y-96304500D01*
X139524845Y-96304499D01*
X139679497Y-96273737D01*
X139825179Y-96213394D01*
X139956289Y-96125789D01*
X140067789Y-96014289D01*
X140155394Y-95883179D01*
X140215737Y-95737497D01*
X140246500Y-95582842D01*
X140246500Y-95425158D01*
X140246500Y-95425155D01*
X140246499Y-95425153D01*
X140218921Y-95286510D01*
X140215737Y-95270503D01*
X140208162Y-95252214D01*
X140155397Y-95124827D01*
X140155390Y-95124814D01*
X140067789Y-94993711D01*
X140067786Y-94993707D01*
X139956292Y-94882213D01*
X139956288Y-94882210D01*
X139825185Y-94794609D01*
X139825172Y-94794602D01*
X139679501Y-94734264D01*
X139679489Y-94734261D01*
X139524845Y-94703500D01*
X139524842Y-94703500D01*
X139367158Y-94703500D01*
X139367155Y-94703500D01*
X139212510Y-94734261D01*
X139212498Y-94734264D01*
X139066827Y-94794602D01*
X139066814Y-94794609D01*
X138935711Y-94882210D01*
X138935707Y-94882213D01*
X138824213Y-94993707D01*
X138824210Y-94993711D01*
X138736609Y-95124814D01*
X138736602Y-95124827D01*
X138676264Y-95270498D01*
X138676261Y-95270510D01*
X138645500Y-95425153D01*
X138047317Y-95425153D01*
X138026179Y-95318890D01*
X138019737Y-95286503D01*
X138004617Y-95250000D01*
X137959397Y-95140827D01*
X137959390Y-95140814D01*
X137871789Y-95009711D01*
X137871786Y-95009707D01*
X137834760Y-94972681D01*
X137801275Y-94911358D01*
X137806259Y-94841666D01*
X137834760Y-94797319D01*
X137871786Y-94760292D01*
X137871789Y-94760289D01*
X137959394Y-94629179D01*
X137977054Y-94586543D01*
X141239499Y-94586543D01*
X141277947Y-94779829D01*
X141277950Y-94779839D01*
X141352324Y-94959394D01*
X141353368Y-94961914D01*
X141374614Y-94993711D01*
X141414971Y-95054110D01*
X141435848Y-95120787D01*
X141417363Y-95188167D01*
X141414971Y-95191890D01*
X141353366Y-95284089D01*
X141277950Y-95466160D01*
X141277947Y-95466170D01*
X141239500Y-95659456D01*
X141239500Y-95659459D01*
X141239500Y-95856541D01*
X141239500Y-95856543D01*
X141239499Y-95856543D01*
X141277947Y-96049829D01*
X141277950Y-96049839D01*
X141352324Y-96229394D01*
X141353368Y-96231914D01*
X141381312Y-96273735D01*
X141414971Y-96324110D01*
X141435848Y-96390787D01*
X141417363Y-96458167D01*
X141414971Y-96461890D01*
X141353366Y-96554089D01*
X141277950Y-96736160D01*
X141277947Y-96736170D01*
X141239500Y-96929456D01*
X141239500Y-96929459D01*
X141239500Y-97126541D01*
X141239500Y-97126543D01*
X141239499Y-97126543D01*
X141277947Y-97319829D01*
X141277950Y-97319839D01*
X141353364Y-97501907D01*
X141353371Y-97501920D01*
X141462860Y-97665781D01*
X141462863Y-97665785D01*
X141602214Y-97805136D01*
X141602218Y-97805139D01*
X141766079Y-97914628D01*
X141766092Y-97914635D01*
X141948160Y-97990049D01*
X141948165Y-97990051D01*
X141948169Y-97990051D01*
X141948170Y-97990052D01*
X142141456Y-98028500D01*
X142141459Y-98028500D01*
X142338543Y-98028500D01*
X142468582Y-98002632D01*
X142531835Y-97990051D01*
X142713914Y-97914632D01*
X142877782Y-97805139D01*
X143017139Y-97665782D01*
X143126632Y-97501914D01*
X143134160Y-97483741D01*
X143165921Y-97407061D01*
X143202051Y-97319835D01*
X143240500Y-97126541D01*
X143240500Y-96929459D01*
X143240500Y-96929456D01*
X143202052Y-96736170D01*
X143202051Y-96736169D01*
X143202051Y-96736165D01*
X143141049Y-96588891D01*
X143126635Y-96554092D01*
X143126633Y-96554088D01*
X143126632Y-96554086D01*
X143065029Y-96461891D01*
X143044151Y-96395214D01*
X143062635Y-96327834D01*
X143065029Y-96324109D01*
X143087995Y-96289738D01*
X143126632Y-96231914D01*
X143127678Y-96229390D01*
X143202049Y-96049839D01*
X143202051Y-96049835D01*
X143215238Y-95983541D01*
X143240500Y-95856543D01*
X143240500Y-95659456D01*
X143202052Y-95466170D01*
X143202051Y-95466169D01*
X143202051Y-95466165D01*
X143191691Y-95441153D01*
X143126635Y-95284092D01*
X143126633Y-95284088D01*
X143126632Y-95284086D01*
X143065029Y-95191891D01*
X143044151Y-95125214D01*
X143062635Y-95057834D01*
X143065029Y-95054109D01*
X143087995Y-95019738D01*
X143126632Y-94961914D01*
X143127678Y-94959390D01*
X143153018Y-94898211D01*
X143202051Y-94779835D01*
X143215237Y-94713543D01*
X145049499Y-94713543D01*
X145087947Y-94906829D01*
X145087950Y-94906839D01*
X145150494Y-95057834D01*
X145163368Y-95088914D01*
X145198051Y-95140821D01*
X145224971Y-95181110D01*
X145245848Y-95247787D01*
X145227363Y-95315167D01*
X145224971Y-95318890D01*
X145163366Y-95411089D01*
X145087950Y-95593160D01*
X145087947Y-95593170D01*
X145049500Y-95786456D01*
X145049500Y-95786459D01*
X145049500Y-95983541D01*
X145049500Y-95983543D01*
X145049499Y-95983543D01*
X145087947Y-96176829D01*
X145087950Y-96176839D01*
X145150494Y-96327834D01*
X145163368Y-96358914D01*
X145187623Y-96395214D01*
X145224971Y-96451110D01*
X145245848Y-96517787D01*
X145227363Y-96585167D01*
X145224971Y-96588890D01*
X145163366Y-96681089D01*
X145087950Y-96863160D01*
X145087947Y-96863170D01*
X145049500Y-97056456D01*
X145049500Y-97056459D01*
X145049500Y-97253541D01*
X145049500Y-97253543D01*
X145049499Y-97253543D01*
X145087947Y-97446829D01*
X145087950Y-97446839D01*
X145163364Y-97628907D01*
X145163371Y-97628920D01*
X145272860Y-97792781D01*
X145272863Y-97792785D01*
X145412214Y-97932136D01*
X145412218Y-97932139D01*
X145576079Y-98041628D01*
X145576092Y-98041635D01*
X145758160Y-98117049D01*
X145758165Y-98117051D01*
X145758169Y-98117051D01*
X145758170Y-98117052D01*
X145951456Y-98155500D01*
X145951459Y-98155500D01*
X146148543Y-98155500D01*
X146278582Y-98129632D01*
X146341835Y-98117051D01*
X146523914Y-98041632D01*
X146687782Y-97932139D01*
X146827139Y-97792782D01*
X146936632Y-97628914D01*
X146937678Y-97626390D01*
X146964663Y-97561241D01*
X147012051Y-97446835D01*
X147024632Y-97383582D01*
X147050500Y-97253543D01*
X147050500Y-97056456D01*
X147012052Y-96863170D01*
X147012051Y-96863169D01*
X147012051Y-96863165D01*
X147012049Y-96863160D01*
X146936635Y-96681092D01*
X146936633Y-96681088D01*
X146936632Y-96681086D01*
X146875029Y-96588891D01*
X146854151Y-96522214D01*
X146872635Y-96454834D01*
X146875029Y-96451109D01*
X146915335Y-96390787D01*
X146936632Y-96358914D01*
X147012051Y-96176835D01*
X147024632Y-96113582D01*
X147050500Y-95983543D01*
X147050500Y-95786456D01*
X147012052Y-95593170D01*
X147012051Y-95593169D01*
X147012051Y-95593165D01*
X147007775Y-95582842D01*
X146936635Y-95411092D01*
X146936633Y-95411088D01*
X146936632Y-95411086D01*
X146875029Y-95318891D01*
X146854151Y-95252214D01*
X146872635Y-95184834D01*
X146875029Y-95181109D01*
X146887872Y-95161887D01*
X146936632Y-95088914D01*
X147012051Y-94906835D01*
X147033835Y-94797319D01*
X147050500Y-94713543D01*
X147050500Y-94516456D01*
X147012052Y-94323170D01*
X147012051Y-94323169D01*
X147012051Y-94323165D01*
X146969680Y-94220873D01*
X146962212Y-94151407D01*
X146984977Y-94099111D01*
X146993796Y-94087331D01*
X147044091Y-93952483D01*
X147050500Y-93892873D01*
X147050499Y-92797128D01*
X147044091Y-92737517D01*
X147033827Y-92709999D01*
X146993797Y-92602671D01*
X146993793Y-92602664D01*
X146907547Y-92487455D01*
X146907544Y-92487452D01*
X146792335Y-92401206D01*
X146792328Y-92401202D01*
X146657482Y-92350908D01*
X146657483Y-92350908D01*
X146597883Y-92344501D01*
X146597881Y-92344500D01*
X146597873Y-92344500D01*
X146597864Y-92344500D01*
X145502129Y-92344500D01*
X145502123Y-92344501D01*
X145442516Y-92350908D01*
X145307671Y-92401202D01*
X145307664Y-92401206D01*
X145192455Y-92487452D01*
X145192452Y-92487455D01*
X145106206Y-92602664D01*
X145106202Y-92602671D01*
X145055908Y-92737517D01*
X145049501Y-92797116D01*
X145049501Y-92797123D01*
X145049500Y-92797135D01*
X145049500Y-93892870D01*
X145049501Y-93892876D01*
X145055908Y-93952483D01*
X145106202Y-94087328D01*
X145106206Y-94087335D01*
X145115023Y-94099113D01*
X145139440Y-94164578D01*
X145130318Y-94220874D01*
X145104500Y-94283206D01*
X145087950Y-94323164D01*
X145087948Y-94323168D01*
X145087947Y-94323171D01*
X145049500Y-94516456D01*
X145049500Y-94516459D01*
X145049500Y-94713541D01*
X145049500Y-94713543D01*
X145049499Y-94713543D01*
X143215237Y-94713543D01*
X143217235Y-94703500D01*
X143240500Y-94586543D01*
X143240500Y-94389456D01*
X143202052Y-94196170D01*
X143202051Y-94196169D01*
X143202051Y-94196165D01*
X143159680Y-94093873D01*
X143152212Y-94024407D01*
X143174977Y-93972111D01*
X143183796Y-93960331D01*
X143234091Y-93825483D01*
X143240500Y-93765873D01*
X143240499Y-92670128D01*
X143234091Y-92610517D01*
X143229531Y-92598292D01*
X143183797Y-92475671D01*
X143183793Y-92475664D01*
X143097547Y-92360455D01*
X143097544Y-92360452D01*
X142982335Y-92274206D01*
X142982328Y-92274202D01*
X142847482Y-92223908D01*
X142847483Y-92223908D01*
X142787883Y-92217501D01*
X142787881Y-92217500D01*
X142787873Y-92217500D01*
X142787864Y-92217500D01*
X141692129Y-92217500D01*
X141692123Y-92217501D01*
X141632516Y-92223908D01*
X141497671Y-92274202D01*
X141497664Y-92274206D01*
X141382455Y-92360452D01*
X141382452Y-92360455D01*
X141296206Y-92475664D01*
X141296202Y-92475671D01*
X141245908Y-92610517D01*
X141239501Y-92670116D01*
X141239501Y-92670123D01*
X141239500Y-92670135D01*
X141239500Y-93765870D01*
X141239501Y-93765876D01*
X141245908Y-93825483D01*
X141296202Y-93960328D01*
X141296206Y-93960335D01*
X141305023Y-93972113D01*
X141329440Y-94037578D01*
X141320318Y-94093874D01*
X141318151Y-94099107D01*
X141277950Y-94196164D01*
X141277948Y-94196168D01*
X141277947Y-94196171D01*
X141239500Y-94389456D01*
X141239500Y-94389459D01*
X141239500Y-94586541D01*
X141239500Y-94586543D01*
X141239499Y-94586543D01*
X137977054Y-94586543D01*
X138019737Y-94483497D01*
X138050500Y-94328842D01*
X138050500Y-94171158D01*
X138050500Y-94171155D01*
X138050499Y-94171153D01*
X138046571Y-94151407D01*
X138019737Y-94016503D01*
X138006600Y-93984787D01*
X137959397Y-93870827D01*
X137959390Y-93870814D01*
X137871789Y-93739711D01*
X137871786Y-93739707D01*
X137760292Y-93628213D01*
X137760288Y-93628210D01*
X137629185Y-93540609D01*
X137629172Y-93540602D01*
X137483501Y-93480264D01*
X137483489Y-93480261D01*
X137328845Y-93449500D01*
X137328842Y-93449500D01*
X137171158Y-93449500D01*
X137171155Y-93449500D01*
X137016510Y-93480261D01*
X137016498Y-93480264D01*
X136870827Y-93540602D01*
X136870814Y-93540609D01*
X136739711Y-93628210D01*
X136739707Y-93628213D01*
X136628213Y-93739707D01*
X136628210Y-93739711D01*
X136540609Y-93870814D01*
X136540602Y-93870827D01*
X136480264Y-94016498D01*
X136480261Y-94016510D01*
X136449500Y-94171153D01*
X120550499Y-94171153D01*
X120546571Y-94151407D01*
X120519737Y-94016503D01*
X120506600Y-93984787D01*
X120459397Y-93870827D01*
X120459390Y-93870814D01*
X120371789Y-93739711D01*
X120371786Y-93739707D01*
X120334760Y-93702681D01*
X120301275Y-93641358D01*
X120306259Y-93571666D01*
X120334760Y-93527319D01*
X120371786Y-93490292D01*
X120371789Y-93490289D01*
X120459394Y-93359179D01*
X120519737Y-93213497D01*
X120550500Y-93058842D01*
X120550500Y-92901158D01*
X120550500Y-92901155D01*
X120550499Y-92901153D01*
X120541863Y-92857737D01*
X120519737Y-92746503D01*
X120516015Y-92737517D01*
X120506381Y-92714258D01*
X120459397Y-92600827D01*
X120459390Y-92600814D01*
X120371789Y-92469711D01*
X120371786Y-92469707D01*
X120334760Y-92432681D01*
X120301275Y-92371358D01*
X120306259Y-92301666D01*
X120334760Y-92257319D01*
X120371786Y-92220292D01*
X120371789Y-92220289D01*
X120459394Y-92089179D01*
X120519737Y-91943497D01*
X120550500Y-91788842D01*
X120550500Y-91631158D01*
X120550500Y-91631155D01*
X120550499Y-91631153D01*
X120538138Y-91569010D01*
X120519737Y-91476503D01*
X120518538Y-91473609D01*
X120489092Y-91402518D01*
X120471958Y-91361153D01*
X138899500Y-91361153D01*
X138899500Y-91518846D01*
X138930261Y-91673489D01*
X138930264Y-91673501D01*
X138990602Y-91819172D01*
X138990609Y-91819185D01*
X139078210Y-91950288D01*
X139078213Y-91950292D01*
X139189707Y-92061786D01*
X139189711Y-92061789D01*
X139320814Y-92149390D01*
X139320827Y-92149397D01*
X139466498Y-92209735D01*
X139466503Y-92209737D01*
X139621153Y-92240499D01*
X139621156Y-92240500D01*
X139621158Y-92240500D01*
X139778844Y-92240500D01*
X139778845Y-92240499D01*
X139933497Y-92209737D01*
X140079179Y-92149394D01*
X140210289Y-92061789D01*
X140321789Y-91950289D01*
X140409394Y-91819179D01*
X140469737Y-91673497D01*
X140500500Y-91518842D01*
X140500500Y-91361158D01*
X140500500Y-91361155D01*
X140500499Y-91361153D01*
X140494467Y-91330827D01*
X140469737Y-91206503D01*
X140466922Y-91199707D01*
X140409397Y-91060827D01*
X140409390Y-91060814D01*
X140321789Y-90929711D01*
X140321786Y-90929707D01*
X140210292Y-90818213D01*
X140210288Y-90818210D01*
X140079185Y-90730609D01*
X140079172Y-90730602D01*
X139933501Y-90670264D01*
X139933489Y-90670261D01*
X139778845Y-90639500D01*
X139778842Y-90639500D01*
X139621158Y-90639500D01*
X139621155Y-90639500D01*
X139466510Y-90670261D01*
X139466498Y-90670264D01*
X139320827Y-90730602D01*
X139320814Y-90730609D01*
X139189711Y-90818210D01*
X139189707Y-90818213D01*
X139078213Y-90929707D01*
X139078210Y-90929711D01*
X138990609Y-91060814D01*
X138990602Y-91060827D01*
X138930264Y-91206498D01*
X138930261Y-91206510D01*
X138899500Y-91361153D01*
X120471958Y-91361153D01*
X120459397Y-91330827D01*
X120459390Y-91330814D01*
X120371789Y-91199711D01*
X120371786Y-91199707D01*
X120334760Y-91162681D01*
X120301275Y-91101358D01*
X120306259Y-91031666D01*
X120334760Y-90987319D01*
X120371786Y-90950292D01*
X120371789Y-90950289D01*
X120459394Y-90819179D01*
X120519737Y-90673497D01*
X120550500Y-90518842D01*
X120550500Y-90361158D01*
X120550500Y-90361155D01*
X120550499Y-90361153D01*
X120519738Y-90206510D01*
X120519737Y-90206503D01*
X120503940Y-90168365D01*
X120459397Y-90060827D01*
X120459390Y-90060814D01*
X120371789Y-89929711D01*
X120371786Y-89929707D01*
X120334760Y-89892681D01*
X120301275Y-89831358D01*
X120306259Y-89761666D01*
X120334760Y-89717319D01*
X120371786Y-89680292D01*
X120371789Y-89680289D01*
X120459394Y-89549179D01*
X120519737Y-89403497D01*
X120550500Y-89248842D01*
X120550500Y-89091158D01*
X120550500Y-89091155D01*
X120550499Y-89091153D01*
X120519738Y-88936510D01*
X120519737Y-88936503D01*
X120498753Y-88885843D01*
X120459397Y-88790827D01*
X120459390Y-88790814D01*
X120371789Y-88659711D01*
X120371786Y-88659707D01*
X120319559Y-88607480D01*
X120286074Y-88546157D01*
X120291058Y-88476465D01*
X120319559Y-88432118D01*
X120357389Y-88394289D01*
X120444994Y-88263179D01*
X120505337Y-88117497D01*
X120536100Y-87962842D01*
X120536100Y-87805158D01*
X120536100Y-87805155D01*
X120536099Y-87805153D01*
X120520855Y-87728516D01*
X120505337Y-87650503D01*
X120490217Y-87613999D01*
X120444997Y-87504827D01*
X120444990Y-87504814D01*
X120357390Y-87373712D01*
X120353954Y-87370276D01*
X120335558Y-87351880D01*
X120302074Y-87290560D01*
X120307057Y-87220869D01*
X120335560Y-87176518D01*
X120371786Y-87140292D01*
X120371789Y-87140289D01*
X120459394Y-87009179D01*
X120519737Y-86863497D01*
X120550500Y-86708842D01*
X120550500Y-86551158D01*
X120550500Y-86551155D01*
X120550499Y-86551153D01*
X120542371Y-86510292D01*
X120519737Y-86396503D01*
X120508626Y-86369679D01*
X120459397Y-86250827D01*
X120459390Y-86250814D01*
X120371789Y-86119711D01*
X120371786Y-86119707D01*
X120334760Y-86082681D01*
X120301275Y-86021358D01*
X120306259Y-85951666D01*
X120334760Y-85907319D01*
X120371786Y-85870292D01*
X120371789Y-85870289D01*
X120459394Y-85739179D01*
X120519737Y-85593497D01*
X120550500Y-85438842D01*
X120550500Y-85281158D01*
X120550500Y-85281155D01*
X120550499Y-85281153D01*
X120534257Y-85199500D01*
X120519737Y-85126503D01*
X120501413Y-85082264D01*
X120459397Y-84980827D01*
X120459390Y-84980814D01*
X120371789Y-84849711D01*
X120371786Y-84849707D01*
X120334760Y-84812681D01*
X120301275Y-84751358D01*
X120306259Y-84681666D01*
X120334760Y-84637319D01*
X120371786Y-84600292D01*
X120371789Y-84600289D01*
X120459394Y-84469179D01*
X120519737Y-84323497D01*
X120550500Y-84168842D01*
X120550500Y-84011158D01*
X120550500Y-84011155D01*
X120550499Y-84011153D01*
X120530436Y-83910289D01*
X120519737Y-83856503D01*
X120487706Y-83779172D01*
X120459397Y-83710827D01*
X120459390Y-83710814D01*
X120371789Y-83579711D01*
X120371786Y-83579707D01*
X120334760Y-83542681D01*
X120301275Y-83481358D01*
X120306259Y-83411666D01*
X120334760Y-83367319D01*
X120371786Y-83330292D01*
X120371789Y-83330289D01*
X120459394Y-83199179D01*
X120519737Y-83053497D01*
X120550500Y-82898842D01*
X120550500Y-82741158D01*
X120550500Y-82741155D01*
X120550499Y-82741153D01*
X120540445Y-82690609D01*
X120519737Y-82586503D01*
X120504815Y-82550477D01*
X120459397Y-82440827D01*
X120459390Y-82440814D01*
X120371789Y-82309711D01*
X120371786Y-82309707D01*
X120334760Y-82272681D01*
X120301275Y-82211358D01*
X120306259Y-82141666D01*
X120334760Y-82097319D01*
X120371786Y-82060292D01*
X120371789Y-82060289D01*
X120459394Y-81929179D01*
X120519737Y-81783497D01*
X120550500Y-81628842D01*
X120550500Y-81471158D01*
X120550500Y-81471155D01*
X120550499Y-81471153D01*
X136449500Y-81471153D01*
X136449500Y-81628846D01*
X136480261Y-81783489D01*
X136480264Y-81783501D01*
X136540602Y-81929172D01*
X136540609Y-81929185D01*
X136628210Y-82060288D01*
X136628213Y-82060292D01*
X136665240Y-82097319D01*
X136698725Y-82158642D01*
X136693741Y-82228334D01*
X136665240Y-82272681D01*
X136628213Y-82309707D01*
X136628210Y-82309711D01*
X136540609Y-82440814D01*
X136540602Y-82440827D01*
X136480264Y-82586498D01*
X136480261Y-82586510D01*
X136449500Y-82741153D01*
X136449500Y-82898846D01*
X136480261Y-83053489D01*
X136480264Y-83053501D01*
X136540602Y-83199172D01*
X136540609Y-83199185D01*
X136628210Y-83330288D01*
X136628213Y-83330292D01*
X136665240Y-83367319D01*
X136698725Y-83428642D01*
X136693741Y-83498334D01*
X136665240Y-83542681D01*
X136628213Y-83579707D01*
X136628210Y-83579711D01*
X136540609Y-83710814D01*
X136540602Y-83710827D01*
X136480264Y-83856498D01*
X136480261Y-83856510D01*
X136449500Y-84011153D01*
X136449500Y-84168846D01*
X136480261Y-84323489D01*
X136480264Y-84323501D01*
X136540602Y-84469172D01*
X136540609Y-84469185D01*
X136628210Y-84600288D01*
X136628213Y-84600292D01*
X136665240Y-84637319D01*
X136698725Y-84698642D01*
X136693741Y-84768334D01*
X136665240Y-84812681D01*
X136628213Y-84849707D01*
X136628210Y-84849711D01*
X136540609Y-84980814D01*
X136540602Y-84980827D01*
X136480264Y-85126498D01*
X136480261Y-85126510D01*
X136449500Y-85281153D01*
X136449500Y-85438846D01*
X136480261Y-85593489D01*
X136480264Y-85593501D01*
X136540602Y-85739172D01*
X136540609Y-85739185D01*
X136628210Y-85870288D01*
X136628213Y-85870292D01*
X136665240Y-85907319D01*
X136698725Y-85968642D01*
X136693741Y-86038334D01*
X136665240Y-86082681D01*
X136628213Y-86119707D01*
X136628210Y-86119711D01*
X136540609Y-86250814D01*
X136540602Y-86250827D01*
X136480264Y-86396498D01*
X136480261Y-86396510D01*
X136449500Y-86551153D01*
X136449500Y-86708846D01*
X136480261Y-86863489D01*
X136480264Y-86863501D01*
X136540602Y-87009172D01*
X136540609Y-87009185D01*
X136628210Y-87140288D01*
X136628213Y-87140292D01*
X136665240Y-87177319D01*
X136698725Y-87238642D01*
X136693741Y-87308334D01*
X136665240Y-87352681D01*
X136628213Y-87389707D01*
X136628210Y-87389711D01*
X136540609Y-87520814D01*
X136540602Y-87520827D01*
X136480264Y-87666498D01*
X136480261Y-87666510D01*
X136449500Y-87821153D01*
X136449500Y-87978846D01*
X136480261Y-88133489D01*
X136480264Y-88133501D01*
X136540602Y-88279172D01*
X136540609Y-88279185D01*
X136628210Y-88410288D01*
X136628213Y-88410292D01*
X136739707Y-88521786D01*
X136739711Y-88521789D01*
X136870814Y-88609390D01*
X136870827Y-88609397D01*
X136992288Y-88659707D01*
X137016503Y-88669737D01*
X137171153Y-88700499D01*
X137171156Y-88700500D01*
X137171158Y-88700500D01*
X137328844Y-88700500D01*
X137328845Y-88700499D01*
X137483497Y-88669737D01*
X137596166Y-88623067D01*
X137629172Y-88609397D01*
X137629172Y-88609396D01*
X137629179Y-88609394D01*
X137760289Y-88521789D01*
X137871789Y-88410289D01*
X137959394Y-88279179D01*
X138019737Y-88133497D01*
X138050500Y-87978842D01*
X138050500Y-87821158D01*
X138050500Y-87821155D01*
X138050499Y-87821153D01*
X138032072Y-87728515D01*
X138019737Y-87666503D01*
X138013108Y-87650498D01*
X137959397Y-87520827D01*
X137959390Y-87520814D01*
X137871789Y-87389711D01*
X137871786Y-87389707D01*
X137834760Y-87352681D01*
X137801275Y-87291358D01*
X137806259Y-87221666D01*
X137834760Y-87177319D01*
X137871786Y-87140292D01*
X137871789Y-87140289D01*
X137959394Y-87009179D01*
X138019737Y-86863497D01*
X138050500Y-86708842D01*
X138050500Y-86551158D01*
X138050500Y-86551155D01*
X138050499Y-86551153D01*
X138042371Y-86510292D01*
X138019737Y-86396503D01*
X138008626Y-86369679D01*
X137959397Y-86250827D01*
X137959390Y-86250814D01*
X137871789Y-86119711D01*
X137871786Y-86119707D01*
X137834760Y-86082681D01*
X137832724Y-86078953D01*
X137829137Y-86076673D01*
X137816119Y-86048543D01*
X137801275Y-86021358D01*
X137801577Y-86017121D01*
X137799793Y-86013264D01*
X137804048Y-85982569D01*
X137806259Y-85951666D01*
X137808971Y-85947068D01*
X137809389Y-85944056D01*
X137818714Y-85930552D01*
X137824259Y-85921153D01*
X139399500Y-85921153D01*
X139399500Y-86078846D01*
X139430261Y-86233489D01*
X139430264Y-86233501D01*
X139490602Y-86379172D01*
X139490609Y-86379185D01*
X139578210Y-86510288D01*
X139578213Y-86510292D01*
X139689707Y-86621786D01*
X139689711Y-86621789D01*
X139820814Y-86709390D01*
X139820827Y-86709397D01*
X139955518Y-86765187D01*
X139966503Y-86769737D01*
X140121153Y-86800499D01*
X140121156Y-86800500D01*
X140121158Y-86800500D01*
X140278844Y-86800500D01*
X140278845Y-86800499D01*
X140433497Y-86769737D01*
X140579179Y-86709394D01*
X140710289Y-86621789D01*
X140821789Y-86510289D01*
X140909394Y-86379179D01*
X140969737Y-86233497D01*
X141000500Y-86078842D01*
X141000500Y-85921158D01*
X141000500Y-85921155D01*
X141000499Y-85921153D01*
X140987882Y-85857724D01*
X140969737Y-85766503D01*
X140946478Y-85710351D01*
X140909397Y-85620827D01*
X140909390Y-85620814D01*
X140821789Y-85489711D01*
X140821786Y-85489707D01*
X140710292Y-85378213D01*
X140710288Y-85378210D01*
X140579185Y-85290609D01*
X140579172Y-85290602D01*
X140433501Y-85230264D01*
X140433489Y-85230261D01*
X140278845Y-85199500D01*
X140278842Y-85199500D01*
X140121158Y-85199500D01*
X140121155Y-85199500D01*
X139966510Y-85230261D01*
X139966498Y-85230264D01*
X139820827Y-85290602D01*
X139820814Y-85290609D01*
X139689711Y-85378210D01*
X139689707Y-85378213D01*
X139578213Y-85489707D01*
X139578210Y-85489711D01*
X139490609Y-85620814D01*
X139490602Y-85620827D01*
X139430264Y-85766498D01*
X139430261Y-85766510D01*
X139399500Y-85921153D01*
X137824259Y-85921153D01*
X137828321Y-85914269D01*
X137831408Y-85910669D01*
X137871789Y-85870289D01*
X137959394Y-85739179D01*
X138019737Y-85593497D01*
X138050500Y-85438842D01*
X138050500Y-85281158D01*
X138050500Y-85281155D01*
X138050499Y-85281153D01*
X138034257Y-85199500D01*
X138019737Y-85126503D01*
X138001413Y-85082264D01*
X137959397Y-84980827D01*
X137959390Y-84980814D01*
X137871789Y-84849711D01*
X137871786Y-84849707D01*
X137834760Y-84812681D01*
X137801275Y-84751358D01*
X137806259Y-84681666D01*
X137834760Y-84637319D01*
X137871786Y-84600292D01*
X137871789Y-84600289D01*
X137959394Y-84469179D01*
X138019737Y-84323497D01*
X138050500Y-84168842D01*
X138050500Y-84011158D01*
X138050500Y-84011155D01*
X138050499Y-84011153D01*
X138030436Y-83910289D01*
X138019737Y-83856503D01*
X137987706Y-83779172D01*
X137959397Y-83710827D01*
X137959390Y-83710814D01*
X137871789Y-83579711D01*
X137871786Y-83579707D01*
X137834760Y-83542681D01*
X137801275Y-83481358D01*
X137806259Y-83411666D01*
X137834760Y-83367319D01*
X137871786Y-83330292D01*
X137871789Y-83330289D01*
X137959394Y-83199179D01*
X138019737Y-83053497D01*
X138050500Y-82898842D01*
X138050500Y-82741158D01*
X138050500Y-82741155D01*
X138050499Y-82741153D01*
X138040445Y-82690609D01*
X138019737Y-82586503D01*
X138004815Y-82550477D01*
X137959397Y-82440827D01*
X137959390Y-82440814D01*
X137871789Y-82309711D01*
X137871786Y-82309707D01*
X137834760Y-82272681D01*
X137801275Y-82211358D01*
X137806259Y-82141666D01*
X137834760Y-82097319D01*
X137871786Y-82060292D01*
X137871789Y-82060289D01*
X137959394Y-81929179D01*
X137959396Y-81929172D01*
X137962264Y-81923809D01*
X137964213Y-81924851D01*
X138001796Y-81878174D01*
X138068081Y-81856081D01*
X138135787Y-81873331D01*
X138160240Y-81892319D01*
X138171707Y-81903786D01*
X138171711Y-81903789D01*
X138302814Y-81991390D01*
X138302827Y-81991397D01*
X138448498Y-82051735D01*
X138448503Y-82051737D01*
X138603153Y-82082499D01*
X138603156Y-82082500D01*
X138603158Y-82082500D01*
X138760844Y-82082500D01*
X138760845Y-82082499D01*
X138915497Y-82051737D01*
X139061179Y-81991394D01*
X139192289Y-81903789D01*
X139303789Y-81792289D01*
X139391394Y-81661179D01*
X139451737Y-81515497D01*
X139451737Y-81515492D01*
X139451740Y-81515486D01*
X139482499Y-81360846D01*
X139482500Y-81360844D01*
X139482500Y-81203155D01*
X139482499Y-81203153D01*
X139477935Y-81180209D01*
X139451737Y-81048503D01*
X139445620Y-81033735D01*
X139391397Y-80902827D01*
X139391390Y-80902814D01*
X139303789Y-80771711D01*
X139303786Y-80771707D01*
X139192292Y-80660213D01*
X139192288Y-80660210D01*
X139061185Y-80572609D01*
X139061172Y-80572602D01*
X138915501Y-80512264D01*
X138915489Y-80512261D01*
X138760845Y-80481500D01*
X138760842Y-80481500D01*
X138603158Y-80481500D01*
X138603155Y-80481500D01*
X138448510Y-80512261D01*
X138448498Y-80512264D01*
X138302827Y-80572602D01*
X138302814Y-80572609D01*
X138171711Y-80660210D01*
X138171707Y-80660213D01*
X138060213Y-80771707D01*
X138060210Y-80771711D01*
X137972609Y-80902814D01*
X137969736Y-80908191D01*
X137967797Y-80907154D01*
X137930149Y-80953863D01*
X137863852Y-80975920D01*
X137796155Y-80958634D01*
X137771759Y-80939680D01*
X137760292Y-80928213D01*
X137760288Y-80928210D01*
X137629185Y-80840609D01*
X137629172Y-80840602D01*
X137483501Y-80780264D01*
X137483489Y-80780261D01*
X137328845Y-80749500D01*
X137328842Y-80749500D01*
X137171158Y-80749500D01*
X137171155Y-80749500D01*
X137016510Y-80780261D01*
X137016498Y-80780264D01*
X136870827Y-80840602D01*
X136870814Y-80840609D01*
X136739711Y-80928210D01*
X136739707Y-80928213D01*
X136628213Y-81039707D01*
X136628210Y-81039711D01*
X136540609Y-81170814D01*
X136540602Y-81170827D01*
X136480264Y-81316498D01*
X136480261Y-81316510D01*
X136449500Y-81471153D01*
X120550499Y-81471153D01*
X120545596Y-81446504D01*
X120519737Y-81316503D01*
X120511324Y-81296192D01*
X120459397Y-81170827D01*
X120459390Y-81170814D01*
X120371789Y-81039711D01*
X120371786Y-81039707D01*
X120260292Y-80928213D01*
X120260288Y-80928210D01*
X120129185Y-80840609D01*
X120129172Y-80840602D01*
X119983501Y-80780264D01*
X119983489Y-80780261D01*
X119828845Y-80749500D01*
X119828842Y-80749500D01*
X119671158Y-80749500D01*
X119671155Y-80749500D01*
X119516510Y-80780261D01*
X119516498Y-80780264D01*
X119370827Y-80840602D01*
X119370814Y-80840609D01*
X119239711Y-80928210D01*
X119239707Y-80928213D01*
X119128213Y-81039707D01*
X119128210Y-81039711D01*
X119040609Y-81170814D01*
X119040602Y-81170827D01*
X118980264Y-81316498D01*
X118980261Y-81316510D01*
X118949500Y-81471153D01*
X118949500Y-81628846D01*
X118980261Y-81783489D01*
X118980264Y-81783501D01*
X119040602Y-81929172D01*
X119040609Y-81929185D01*
X119128210Y-82060288D01*
X119128213Y-82060292D01*
X119165240Y-82097319D01*
X119198725Y-82158642D01*
X119193741Y-82228334D01*
X119165240Y-82272681D01*
X119128213Y-82309707D01*
X119128210Y-82309711D01*
X119040609Y-82440814D01*
X119040602Y-82440827D01*
X118980264Y-82586498D01*
X118980261Y-82586510D01*
X118949500Y-82741153D01*
X118949500Y-82898846D01*
X118980261Y-83053489D01*
X118980264Y-83053501D01*
X119040602Y-83199172D01*
X119040609Y-83199185D01*
X119128210Y-83330288D01*
X119128213Y-83330292D01*
X119165240Y-83367319D01*
X119198725Y-83428642D01*
X119193741Y-83498334D01*
X119165240Y-83542681D01*
X119128213Y-83579707D01*
X119128210Y-83579711D01*
X119040609Y-83710814D01*
X119040602Y-83710827D01*
X118980264Y-83856498D01*
X118980261Y-83856510D01*
X118949500Y-84011153D01*
X118949500Y-84168846D01*
X118980261Y-84323489D01*
X118980264Y-84323501D01*
X119040602Y-84469172D01*
X119040609Y-84469185D01*
X119128210Y-84600288D01*
X119128213Y-84600292D01*
X119165240Y-84637319D01*
X119198725Y-84698642D01*
X119193741Y-84768334D01*
X119165240Y-84812681D01*
X119128213Y-84849707D01*
X119128210Y-84849711D01*
X119040609Y-84980814D01*
X119040602Y-84980827D01*
X118980264Y-85126498D01*
X118980261Y-85126510D01*
X118949500Y-85281153D01*
X118949500Y-85438846D01*
X118980261Y-85593489D01*
X118980264Y-85593501D01*
X119040602Y-85739172D01*
X119040609Y-85739185D01*
X119128210Y-85870288D01*
X119128213Y-85870292D01*
X119165240Y-85907319D01*
X119198725Y-85968642D01*
X119193741Y-86038334D01*
X119165240Y-86082681D01*
X119128213Y-86119707D01*
X119128210Y-86119711D01*
X119040609Y-86250814D01*
X119040602Y-86250827D01*
X118980264Y-86396498D01*
X118980261Y-86396510D01*
X118949500Y-86551153D01*
X118949500Y-86708846D01*
X118980261Y-86863489D01*
X118980264Y-86863501D01*
X119040602Y-87009172D01*
X119040609Y-87009185D01*
X119128210Y-87140288D01*
X119128213Y-87140292D01*
X119150040Y-87162119D01*
X119183525Y-87223442D01*
X119178541Y-87293134D01*
X119150040Y-87337481D01*
X119113813Y-87373707D01*
X119113810Y-87373711D01*
X119026209Y-87504814D01*
X119026202Y-87504827D01*
X118965864Y-87650498D01*
X118965861Y-87650510D01*
X118935100Y-87805153D01*
X40202916Y-87805153D01*
X40126276Y-87728513D01*
X40106737Y-87714317D01*
X40064071Y-87658989D01*
X40058090Y-87589376D01*
X40090695Y-87527580D01*
X40106738Y-87513680D01*
X40126276Y-87499485D01*
X40255485Y-87370276D01*
X40362891Y-87222444D01*
X40445848Y-87059631D01*
X40502315Y-86885845D01*
X40515832Y-86800499D01*
X40530900Y-86705370D01*
X40530900Y-86522629D01*
X40508178Y-86379172D01*
X40502315Y-86342155D01*
X40445848Y-86168369D01*
X40362891Y-86005556D01*
X40255485Y-85857724D01*
X40126276Y-85728515D01*
X39978444Y-85621109D01*
X39815631Y-85538152D01*
X39715595Y-85505648D01*
X54833500Y-85505648D01*
X54833500Y-85710351D01*
X54865522Y-85912534D01*
X54928781Y-86107223D01*
X54991937Y-86231172D01*
X55001945Y-86250814D01*
X55021715Y-86289613D01*
X55142028Y-86455213D01*
X55286786Y-86599971D01*
X55431851Y-86705365D01*
X55452390Y-86720287D01*
X55540517Y-86765190D01*
X55634776Y-86813218D01*
X55634778Y-86813218D01*
X55634781Y-86813220D01*
X55739137Y-86847127D01*
X55829465Y-86876477D01*
X55888587Y-86885841D01*
X56031648Y-86908500D01*
X56031649Y-86908500D01*
X56236351Y-86908500D01*
X56236352Y-86908500D01*
X56438534Y-86876477D01*
X56633219Y-86813220D01*
X56815610Y-86720287D01*
X56951182Y-86621789D01*
X56981213Y-86599971D01*
X56981215Y-86599968D01*
X56981219Y-86599966D01*
X57125966Y-86455219D01*
X57125968Y-86455215D01*
X57125971Y-86455213D01*
X57246284Y-86289614D01*
X57246286Y-86289611D01*
X57246287Y-86289610D01*
X57293795Y-86196369D01*
X57341770Y-86145574D01*
X57409591Y-86128779D01*
X57475725Y-86151316D01*
X57514765Y-86196370D01*
X57562140Y-86289349D01*
X57682417Y-86454894D01*
X57682417Y-86454895D01*
X57827104Y-86599582D01*
X57992650Y-86719859D01*
X58174968Y-86812754D01*
X58369578Y-86875988D01*
X58424000Y-86884607D01*
X58424000Y-85923686D01*
X58428394Y-85928080D01*
X58519606Y-85980741D01*
X58621339Y-86008000D01*
X58726661Y-86008000D01*
X58828394Y-85980741D01*
X58919606Y-85928080D01*
X58924000Y-85923686D01*
X58924000Y-86884606D01*
X58978421Y-86875988D01*
X59173031Y-86812754D01*
X59355349Y-86719859D01*
X59520894Y-86599582D01*
X59520895Y-86599582D01*
X59665582Y-86454895D01*
X59665582Y-86454894D01*
X59785861Y-86289347D01*
X59833234Y-86196371D01*
X59881208Y-86145575D01*
X59949028Y-86128779D01*
X60015164Y-86151316D01*
X60054203Y-86196369D01*
X60101713Y-86289611D01*
X60222028Y-86455213D01*
X60366786Y-86599971D01*
X60511851Y-86705365D01*
X60532390Y-86720287D01*
X60620517Y-86765190D01*
X60714776Y-86813218D01*
X60714778Y-86813218D01*
X60714781Y-86813220D01*
X60819137Y-86847127D01*
X60909465Y-86876477D01*
X60968587Y-86885841D01*
X61111648Y-86908500D01*
X61111649Y-86908500D01*
X61316351Y-86908500D01*
X61316352Y-86908500D01*
X61518534Y-86876477D01*
X61713219Y-86813220D01*
X61895610Y-86720287D01*
X62031182Y-86621789D01*
X62061213Y-86599971D01*
X62061215Y-86599968D01*
X62061219Y-86599966D01*
X62205966Y-86455219D01*
X62205968Y-86455215D01*
X62205971Y-86455213D01*
X62326284Y-86289614D01*
X62326286Y-86289611D01*
X62326287Y-86289610D01*
X62373516Y-86196917D01*
X62421489Y-86146123D01*
X62489310Y-86129328D01*
X62555445Y-86151865D01*
X62594483Y-86196917D01*
X62621949Y-86250821D01*
X62641715Y-86289614D01*
X62762028Y-86455213D01*
X62906786Y-86599971D01*
X63051851Y-86705365D01*
X63072390Y-86720287D01*
X63160517Y-86765190D01*
X63254776Y-86813218D01*
X63254778Y-86813218D01*
X63254781Y-86813220D01*
X63359137Y-86847127D01*
X63449465Y-86876477D01*
X63508587Y-86885841D01*
X63651648Y-86908500D01*
X63651649Y-86908500D01*
X63856351Y-86908500D01*
X63856352Y-86908500D01*
X64058534Y-86876477D01*
X64253219Y-86813220D01*
X64435610Y-86720287D01*
X64571182Y-86621789D01*
X64601213Y-86599971D01*
X64601215Y-86599968D01*
X64601219Y-86599966D01*
X64745966Y-86455219D01*
X64745968Y-86455215D01*
X64745971Y-86455213D01*
X64866284Y-86289614D01*
X64866286Y-86289611D01*
X64866287Y-86289610D01*
X64913516Y-86196917D01*
X64961489Y-86146123D01*
X65029310Y-86129328D01*
X65095445Y-86151865D01*
X65134483Y-86196917D01*
X65161949Y-86250821D01*
X65181715Y-86289614D01*
X65302028Y-86455213D01*
X65446786Y-86599971D01*
X65591851Y-86705365D01*
X65612390Y-86720287D01*
X65700517Y-86765190D01*
X65794776Y-86813218D01*
X65794778Y-86813218D01*
X65794781Y-86813220D01*
X65899137Y-86847127D01*
X65989465Y-86876477D01*
X66048587Y-86885841D01*
X66191648Y-86908500D01*
X66191649Y-86908500D01*
X66396351Y-86908500D01*
X66396352Y-86908500D01*
X66598534Y-86876477D01*
X66793219Y-86813220D01*
X66975610Y-86720287D01*
X67111182Y-86621789D01*
X67141213Y-86599971D01*
X67141215Y-86599968D01*
X67141219Y-86599966D01*
X67285966Y-86455219D01*
X67285968Y-86455215D01*
X67285971Y-86455213D01*
X67406284Y-86289614D01*
X67406286Y-86289611D01*
X67406287Y-86289610D01*
X67453516Y-86196917D01*
X67501489Y-86146123D01*
X67569310Y-86129328D01*
X67635445Y-86151865D01*
X67674483Y-86196917D01*
X67701949Y-86250821D01*
X67721715Y-86289614D01*
X67842028Y-86455213D01*
X67986786Y-86599971D01*
X68131851Y-86705365D01*
X68152390Y-86720287D01*
X68240517Y-86765190D01*
X68334776Y-86813218D01*
X68334778Y-86813218D01*
X68334781Y-86813220D01*
X68439137Y-86847127D01*
X68529465Y-86876477D01*
X68588587Y-86885841D01*
X68731648Y-86908500D01*
X68731649Y-86908500D01*
X68936351Y-86908500D01*
X68936352Y-86908500D01*
X69138534Y-86876477D01*
X69333219Y-86813220D01*
X69515610Y-86720287D01*
X69651182Y-86621789D01*
X69681213Y-86599971D01*
X69681215Y-86599968D01*
X69681219Y-86599966D01*
X69825966Y-86455219D01*
X69825968Y-86455215D01*
X69825971Y-86455213D01*
X69946284Y-86289614D01*
X69946286Y-86289611D01*
X69946287Y-86289610D01*
X69993516Y-86196917D01*
X70041489Y-86146123D01*
X70109310Y-86129328D01*
X70175445Y-86151865D01*
X70214483Y-86196917D01*
X70241949Y-86250821D01*
X70261715Y-86289614D01*
X70382028Y-86455213D01*
X70526786Y-86599971D01*
X70671851Y-86705365D01*
X70692390Y-86720287D01*
X70780517Y-86765190D01*
X70874776Y-86813218D01*
X70874778Y-86813218D01*
X70874781Y-86813220D01*
X70979137Y-86847127D01*
X71069465Y-86876477D01*
X71128587Y-86885841D01*
X71271648Y-86908500D01*
X71271649Y-86908500D01*
X71476351Y-86908500D01*
X71476352Y-86908500D01*
X71678534Y-86876477D01*
X71873219Y-86813220D01*
X72055610Y-86720287D01*
X72191182Y-86621789D01*
X72221213Y-86599971D01*
X72221215Y-86599968D01*
X72221219Y-86599966D01*
X72365966Y-86455219D01*
X72392770Y-86418325D01*
X72448099Y-86375660D01*
X72517712Y-86369679D01*
X72579508Y-86402284D01*
X72613866Y-86463122D01*
X72616378Y-86477953D01*
X72620401Y-86515373D01*
X72620403Y-86515379D01*
X72670645Y-86650086D01*
X72670649Y-86650093D01*
X72756809Y-86765187D01*
X72756812Y-86765190D01*
X72871906Y-86851350D01*
X72871913Y-86851354D01*
X73006620Y-86901596D01*
X73006627Y-86901598D01*
X73066155Y-86907999D01*
X73066172Y-86908000D01*
X73664000Y-86908000D01*
X73664000Y-85923686D01*
X73668394Y-85928080D01*
X73759606Y-85980741D01*
X73861339Y-86008000D01*
X73966661Y-86008000D01*
X74068394Y-85980741D01*
X74159606Y-85928080D01*
X74164000Y-85923686D01*
X74164000Y-86908000D01*
X74761828Y-86908000D01*
X74761844Y-86907999D01*
X74821372Y-86901598D01*
X74821379Y-86901596D01*
X74956086Y-86851354D01*
X74956093Y-86851350D01*
X75071187Y-86765190D01*
X75071190Y-86765187D01*
X75157350Y-86650093D01*
X75157354Y-86650086D01*
X75207596Y-86515379D01*
X75207598Y-86515372D01*
X75213999Y-86455844D01*
X75214000Y-86455827D01*
X75214000Y-85858000D01*
X74229686Y-85858000D01*
X74234080Y-85853606D01*
X74280529Y-85773153D01*
X100291500Y-85773153D01*
X100291500Y-85930846D01*
X100322261Y-86085489D01*
X100322264Y-86085501D01*
X100382602Y-86231172D01*
X100382609Y-86231185D01*
X100470210Y-86362288D01*
X100470213Y-86362292D01*
X100581707Y-86473786D01*
X100581711Y-86473789D01*
X100712814Y-86561390D01*
X100712827Y-86561397D01*
X100858498Y-86621735D01*
X100858503Y-86621737D01*
X101001022Y-86650086D01*
X101013153Y-86652499D01*
X101013156Y-86652500D01*
X101013158Y-86652500D01*
X101170844Y-86652500D01*
X101170845Y-86652499D01*
X101325497Y-86621737D01*
X101471179Y-86561394D01*
X101602289Y-86473789D01*
X101713789Y-86362289D01*
X101801394Y-86231179D01*
X101861737Y-86085497D01*
X101892500Y-85930842D01*
X101892500Y-85773158D01*
X101892500Y-85773155D01*
X101892499Y-85773153D01*
X101862198Y-85620821D01*
X101861737Y-85618503D01*
X101835574Y-85555339D01*
X101801397Y-85472827D01*
X101801390Y-85472814D01*
X101713789Y-85341711D01*
X101713786Y-85341707D01*
X101602292Y-85230213D01*
X101602288Y-85230210D01*
X101471185Y-85142609D01*
X101471172Y-85142602D01*
X101325501Y-85082264D01*
X101325489Y-85082261D01*
X101170845Y-85051500D01*
X101170842Y-85051500D01*
X101013158Y-85051500D01*
X101013155Y-85051500D01*
X100858510Y-85082261D01*
X100858498Y-85082264D01*
X100712827Y-85142602D01*
X100712814Y-85142609D01*
X100581711Y-85230210D01*
X100581707Y-85230213D01*
X100470213Y-85341707D01*
X100470210Y-85341711D01*
X100382609Y-85472814D01*
X100382602Y-85472827D01*
X100322264Y-85618498D01*
X100322261Y-85618510D01*
X100291500Y-85773153D01*
X74280529Y-85773153D01*
X74286741Y-85762394D01*
X74314000Y-85660661D01*
X74314000Y-85555339D01*
X74286741Y-85453606D01*
X74234080Y-85362394D01*
X74229686Y-85358000D01*
X75214000Y-85358000D01*
X75214000Y-84760172D01*
X75213999Y-84760155D01*
X75207598Y-84700627D01*
X75207596Y-84700620D01*
X75157354Y-84565913D01*
X75157350Y-84565906D01*
X75071190Y-84450812D01*
X75071187Y-84450809D01*
X74956093Y-84364649D01*
X74956086Y-84364645D01*
X74821379Y-84314403D01*
X74821372Y-84314401D01*
X74761844Y-84308000D01*
X74164000Y-84308000D01*
X74164000Y-85292314D01*
X74159606Y-85287920D01*
X74068394Y-85235259D01*
X73966661Y-85208000D01*
X73861339Y-85208000D01*
X73759606Y-85235259D01*
X73668394Y-85287920D01*
X73664000Y-85292314D01*
X73664000Y-84308000D01*
X73066155Y-84308000D01*
X73006627Y-84314401D01*
X73006620Y-84314403D01*
X72871913Y-84364645D01*
X72871906Y-84364649D01*
X72756812Y-84450809D01*
X72756809Y-84450812D01*
X72670649Y-84565906D01*
X72670645Y-84565913D01*
X72620403Y-84700620D01*
X72620401Y-84700626D01*
X72616378Y-84738046D01*
X72589639Y-84802597D01*
X72532246Y-84842444D01*
X72462421Y-84844937D01*
X72402333Y-84809283D01*
X72392770Y-84797674D01*
X72365966Y-84760781D01*
X72221219Y-84616034D01*
X72221213Y-84616028D01*
X72055613Y-84495715D01*
X72055612Y-84495714D01*
X72055610Y-84495713D01*
X71967487Y-84450812D01*
X71873223Y-84402781D01*
X71678534Y-84339522D01*
X71503995Y-84311878D01*
X71476352Y-84307500D01*
X71271648Y-84307500D01*
X71247329Y-84311351D01*
X71069465Y-84339522D01*
X70874776Y-84402781D01*
X70692386Y-84495715D01*
X70526786Y-84616028D01*
X70382028Y-84760786D01*
X70261715Y-84926386D01*
X70214485Y-85019080D01*
X70166510Y-85069876D01*
X70098689Y-85086671D01*
X70032554Y-85064134D01*
X69993515Y-85019080D01*
X69946419Y-84926650D01*
X69946287Y-84926390D01*
X69890577Y-84849711D01*
X69825971Y-84760786D01*
X69681213Y-84616028D01*
X69515613Y-84495715D01*
X69515612Y-84495714D01*
X69515610Y-84495713D01*
X69427487Y-84450812D01*
X69333223Y-84402781D01*
X69138534Y-84339522D01*
X68963995Y-84311878D01*
X68936352Y-84307500D01*
X68731648Y-84307500D01*
X68707329Y-84311351D01*
X68529465Y-84339522D01*
X68334776Y-84402781D01*
X68152386Y-84495715D01*
X67986786Y-84616028D01*
X67842028Y-84760786D01*
X67721715Y-84926386D01*
X67674485Y-85019080D01*
X67626510Y-85069876D01*
X67558689Y-85086671D01*
X67492554Y-85064134D01*
X67453515Y-85019080D01*
X67406419Y-84926650D01*
X67406287Y-84926390D01*
X67350577Y-84849711D01*
X67285971Y-84760786D01*
X67141213Y-84616028D01*
X66975613Y-84495715D01*
X66975612Y-84495714D01*
X66975610Y-84495713D01*
X66887487Y-84450812D01*
X66793223Y-84402781D01*
X66598534Y-84339522D01*
X66423995Y-84311878D01*
X66396352Y-84307500D01*
X66191648Y-84307500D01*
X66167329Y-84311351D01*
X65989465Y-84339522D01*
X65794776Y-84402781D01*
X65612386Y-84495715D01*
X65446786Y-84616028D01*
X65302028Y-84760786D01*
X65181715Y-84926386D01*
X65134485Y-85019080D01*
X65086510Y-85069876D01*
X65018689Y-85086671D01*
X64952554Y-85064134D01*
X64913515Y-85019080D01*
X64866419Y-84926650D01*
X64866287Y-84926390D01*
X64810577Y-84849711D01*
X64745971Y-84760786D01*
X64601213Y-84616028D01*
X64435613Y-84495715D01*
X64435612Y-84495714D01*
X64435610Y-84495713D01*
X64347487Y-84450812D01*
X64253223Y-84402781D01*
X64058534Y-84339522D01*
X63883995Y-84311878D01*
X63856352Y-84307500D01*
X63651648Y-84307500D01*
X63627329Y-84311351D01*
X63449465Y-84339522D01*
X63254776Y-84402781D01*
X63072386Y-84495715D01*
X62906786Y-84616028D01*
X62762028Y-84760786D01*
X62641715Y-84926386D01*
X62594485Y-85019080D01*
X62546510Y-85069876D01*
X62478689Y-85086671D01*
X62412554Y-85064134D01*
X62373515Y-85019080D01*
X62326419Y-84926650D01*
X62326287Y-84926390D01*
X62270577Y-84849711D01*
X62205971Y-84760786D01*
X62061213Y-84616028D01*
X61895613Y-84495715D01*
X61895612Y-84495714D01*
X61895610Y-84495713D01*
X61807487Y-84450812D01*
X61713223Y-84402781D01*
X61518534Y-84339522D01*
X61343995Y-84311878D01*
X61316352Y-84307500D01*
X61111648Y-84307500D01*
X61087329Y-84311351D01*
X60909465Y-84339522D01*
X60714776Y-84402781D01*
X60532386Y-84495715D01*
X60366786Y-84616028D01*
X60222028Y-84760786D01*
X60101713Y-84926388D01*
X60054203Y-85019630D01*
X60006228Y-85070426D01*
X59938407Y-85087220D01*
X59872272Y-85064682D01*
X59833234Y-85019628D01*
X59785861Y-84926652D01*
X59665582Y-84761105D01*
X59665582Y-84761104D01*
X59520895Y-84616417D01*
X59355349Y-84496140D01*
X59173029Y-84403244D01*
X58978413Y-84340009D01*
X58924000Y-84331390D01*
X58924000Y-85292314D01*
X58919606Y-85287920D01*
X58828394Y-85235259D01*
X58726661Y-85208000D01*
X58621339Y-85208000D01*
X58519606Y-85235259D01*
X58428394Y-85287920D01*
X58424000Y-85292314D01*
X58424000Y-84331390D01*
X58369586Y-84340009D01*
X58174970Y-84403244D01*
X57992650Y-84496140D01*
X57827105Y-84616417D01*
X57827104Y-84616417D01*
X57682417Y-84761104D01*
X57682417Y-84761105D01*
X57562140Y-84926650D01*
X57514765Y-85019629D01*
X57466790Y-85070425D01*
X57398969Y-85087220D01*
X57332834Y-85064682D01*
X57293795Y-85019629D01*
X57246419Y-84926650D01*
X57246287Y-84926390D01*
X57190577Y-84849711D01*
X57125971Y-84760786D01*
X56981213Y-84616028D01*
X56815613Y-84495715D01*
X56815612Y-84495714D01*
X56815610Y-84495713D01*
X56727487Y-84450812D01*
X56633223Y-84402781D01*
X56438534Y-84339522D01*
X56263995Y-84311878D01*
X56236352Y-84307500D01*
X56031648Y-84307500D01*
X56007329Y-84311351D01*
X55829465Y-84339522D01*
X55634776Y-84402781D01*
X55452386Y-84495715D01*
X55286786Y-84616028D01*
X55142028Y-84760786D01*
X55021715Y-84926386D01*
X54928781Y-85108776D01*
X54865522Y-85303465D01*
X54833500Y-85505648D01*
X39715595Y-85505648D01*
X39641845Y-85481685D01*
X39641843Y-85481684D01*
X39641841Y-85481684D01*
X39461370Y-85453100D01*
X39461365Y-85453100D01*
X39278635Y-85453100D01*
X39278630Y-85453100D01*
X39098158Y-85481684D01*
X38924366Y-85538153D01*
X38761555Y-85621109D01*
X38613721Y-85728517D01*
X38484517Y-85857721D01*
X38377109Y-86005555D01*
X38294153Y-86168366D01*
X38237684Y-86342158D01*
X38209100Y-86522629D01*
X35806500Y-86522629D01*
X35806500Y-83321153D01*
X105860700Y-83321153D01*
X105860700Y-83478846D01*
X105891461Y-83633489D01*
X105891464Y-83633501D01*
X105951802Y-83779172D01*
X105951809Y-83779185D01*
X106039410Y-83910288D01*
X106039413Y-83910292D01*
X106150907Y-84021786D01*
X106150911Y-84021789D01*
X106282014Y-84109390D01*
X106282027Y-84109397D01*
X106425542Y-84168842D01*
X106427703Y-84169737D01*
X106582353Y-84200499D01*
X106582356Y-84200500D01*
X106582358Y-84200500D01*
X106740044Y-84200500D01*
X106740045Y-84200499D01*
X106894697Y-84169737D01*
X107040379Y-84109394D01*
X107171489Y-84021789D01*
X107282989Y-83910289D01*
X107370594Y-83779179D01*
X107430937Y-83633497D01*
X107461700Y-83478842D01*
X107461700Y-83321158D01*
X107461700Y-83321155D01*
X107461699Y-83321153D01*
X107437438Y-83199185D01*
X107430937Y-83166503D01*
X107430935Y-83166498D01*
X107370597Y-83020827D01*
X107370590Y-83020814D01*
X107282989Y-82889711D01*
X107282986Y-82889707D01*
X107171492Y-82778213D01*
X107171488Y-82778210D01*
X107040385Y-82690609D01*
X107040372Y-82690602D01*
X106894701Y-82630264D01*
X106894689Y-82630261D01*
X106740045Y-82599500D01*
X106740042Y-82599500D01*
X106582358Y-82599500D01*
X106582355Y-82599500D01*
X106427710Y-82630261D01*
X106427698Y-82630264D01*
X106282027Y-82690602D01*
X106282014Y-82690609D01*
X106150911Y-82778210D01*
X106150907Y-82778213D01*
X106039413Y-82889707D01*
X106039410Y-82889711D01*
X105951809Y-83020814D01*
X105951802Y-83020827D01*
X105891464Y-83166498D01*
X105891461Y-83166510D01*
X105860700Y-83321153D01*
X35806500Y-83321153D01*
X35806500Y-81810753D01*
X99529500Y-81810753D01*
X99529500Y-81968446D01*
X99560261Y-82123089D01*
X99560264Y-82123101D01*
X99620602Y-82268772D01*
X99620609Y-82268785D01*
X99708210Y-82399888D01*
X99708213Y-82399892D01*
X99819707Y-82511386D01*
X99819711Y-82511389D01*
X99950814Y-82598990D01*
X99950827Y-82598997D01*
X100088181Y-82655890D01*
X100096503Y-82659337D01*
X100251153Y-82690099D01*
X100251156Y-82690100D01*
X100251158Y-82690100D01*
X100408844Y-82690100D01*
X100408845Y-82690099D01*
X100563497Y-82659337D01*
X100676166Y-82612667D01*
X100709172Y-82598997D01*
X100709172Y-82598996D01*
X100709179Y-82598994D01*
X100840289Y-82511389D01*
X100951789Y-82399889D01*
X101039394Y-82268779D01*
X101099737Y-82123097D01*
X101130500Y-81968442D01*
X101130500Y-81961338D01*
X112996158Y-81961338D01*
X112996158Y-82119031D01*
X113026919Y-82273674D01*
X113026922Y-82273686D01*
X113087260Y-82419357D01*
X113087267Y-82419370D01*
X113174868Y-82550473D01*
X113174871Y-82550477D01*
X113286365Y-82661971D01*
X113286369Y-82661974D01*
X113417472Y-82749575D01*
X113417485Y-82749582D01*
X113563156Y-82809920D01*
X113563161Y-82809922D01*
X113717811Y-82840684D01*
X113717814Y-82840685D01*
X113717816Y-82840685D01*
X113875502Y-82840685D01*
X113875503Y-82840684D01*
X114030155Y-82809922D01*
X114175837Y-82749579D01*
X114306947Y-82661974D01*
X114418447Y-82550474D01*
X114506052Y-82419364D01*
X114566395Y-82273682D01*
X114597158Y-82119027D01*
X114597158Y-81961343D01*
X114597158Y-81961340D01*
X114597157Y-81961338D01*
X114582124Y-81885757D01*
X114578523Y-81867653D01*
X116047500Y-81867653D01*
X116047500Y-82025346D01*
X116078261Y-82179989D01*
X116078264Y-82180001D01*
X116138602Y-82325672D01*
X116138609Y-82325685D01*
X116226210Y-82456788D01*
X116226213Y-82456792D01*
X116337707Y-82568286D01*
X116337711Y-82568289D01*
X116468814Y-82655890D01*
X116468827Y-82655897D01*
X116614498Y-82716235D01*
X116614503Y-82716237D01*
X116769153Y-82746999D01*
X116769156Y-82747000D01*
X116769158Y-82747000D01*
X116926844Y-82747000D01*
X116926845Y-82746999D01*
X117081497Y-82716237D01*
X117194166Y-82669567D01*
X117227172Y-82655897D01*
X117227172Y-82655896D01*
X117227179Y-82655894D01*
X117358289Y-82568289D01*
X117469789Y-82456789D01*
X117557394Y-82325679D01*
X117617737Y-82179997D01*
X117648500Y-82025342D01*
X117648500Y-81867658D01*
X117648500Y-81867655D01*
X117648499Y-81867653D01*
X117637181Y-81810753D01*
X117617737Y-81713003D01*
X117617735Y-81712998D01*
X117557397Y-81567327D01*
X117557390Y-81567314D01*
X117469789Y-81436211D01*
X117469786Y-81436207D01*
X117358292Y-81324713D01*
X117358288Y-81324710D01*
X117227185Y-81237109D01*
X117227172Y-81237102D01*
X117081501Y-81176764D01*
X117081489Y-81176761D01*
X116926845Y-81146000D01*
X116926842Y-81146000D01*
X116769158Y-81146000D01*
X116769155Y-81146000D01*
X116614510Y-81176761D01*
X116614498Y-81176764D01*
X116468827Y-81237102D01*
X116468814Y-81237109D01*
X116337711Y-81324710D01*
X116337707Y-81324713D01*
X116226213Y-81436207D01*
X116226210Y-81436211D01*
X116138609Y-81567314D01*
X116138602Y-81567327D01*
X116078264Y-81712998D01*
X116078261Y-81713010D01*
X116047500Y-81867653D01*
X114578523Y-81867653D01*
X114566396Y-81806693D01*
X114566395Y-81806692D01*
X114566395Y-81806688D01*
X114556786Y-81783489D01*
X114506055Y-81661012D01*
X114506048Y-81660999D01*
X114418447Y-81529896D01*
X114418444Y-81529892D01*
X114306950Y-81418398D01*
X114306946Y-81418395D01*
X114175843Y-81330794D01*
X114175830Y-81330787D01*
X114030159Y-81270449D01*
X114030147Y-81270446D01*
X113875503Y-81239685D01*
X113875500Y-81239685D01*
X113717816Y-81239685D01*
X113717813Y-81239685D01*
X113563168Y-81270446D01*
X113563156Y-81270449D01*
X113417485Y-81330787D01*
X113417472Y-81330794D01*
X113286369Y-81418395D01*
X113286365Y-81418398D01*
X113174871Y-81529892D01*
X113174868Y-81529896D01*
X113087267Y-81660999D01*
X113087260Y-81661012D01*
X113026922Y-81806683D01*
X113026919Y-81806695D01*
X112996158Y-81961338D01*
X101130500Y-81961338D01*
X101130500Y-81810758D01*
X101130500Y-81810755D01*
X101130499Y-81810753D01*
X101115161Y-81733646D01*
X101099737Y-81656103D01*
X101082505Y-81614500D01*
X101039397Y-81510427D01*
X101039390Y-81510414D01*
X100951789Y-81379311D01*
X100951786Y-81379307D01*
X100840292Y-81267813D01*
X100840288Y-81267810D01*
X100709185Y-81180209D01*
X100709172Y-81180202D01*
X100563501Y-81119864D01*
X100563489Y-81119861D01*
X100408845Y-81089100D01*
X100408842Y-81089100D01*
X100251158Y-81089100D01*
X100251155Y-81089100D01*
X100096510Y-81119861D01*
X100096498Y-81119864D01*
X99950827Y-81180202D01*
X99950814Y-81180209D01*
X99819711Y-81267810D01*
X99819707Y-81267813D01*
X99708213Y-81379307D01*
X99708210Y-81379311D01*
X99620609Y-81510414D01*
X99620602Y-81510427D01*
X99560264Y-81656098D01*
X99560261Y-81656110D01*
X99529500Y-81810753D01*
X35806500Y-81810753D01*
X35806500Y-80157713D01*
X36749500Y-80157713D01*
X36749500Y-80370286D01*
X36781543Y-80572602D01*
X36782754Y-80580243D01*
X36845803Y-80774288D01*
X36848444Y-80782414D01*
X36944951Y-80971820D01*
X37069890Y-81143786D01*
X37220213Y-81294109D01*
X37392179Y-81419048D01*
X37392181Y-81419049D01*
X37392184Y-81419051D01*
X37581588Y-81515557D01*
X37783757Y-81581246D01*
X37993713Y-81614500D01*
X37993714Y-81614500D01*
X38206286Y-81614500D01*
X38206287Y-81614500D01*
X38416243Y-81581246D01*
X38618412Y-81515557D01*
X38807816Y-81419051D01*
X38887932Y-81360844D01*
X38979786Y-81294109D01*
X38979788Y-81294106D01*
X38979792Y-81294104D01*
X39130104Y-81143792D01*
X39130106Y-81143788D01*
X39130109Y-81143786D01*
X39253902Y-80973397D01*
X39255051Y-80971816D01*
X39351557Y-80782412D01*
X39417246Y-80580243D01*
X39450500Y-80370287D01*
X39450500Y-80157713D01*
X39417246Y-79947757D01*
X39351557Y-79745588D01*
X39255051Y-79556184D01*
X39255049Y-79556181D01*
X39255048Y-79556179D01*
X39130109Y-79384213D01*
X38979792Y-79233896D01*
X38884748Y-79164843D01*
X38814403Y-79113735D01*
X38814403Y-79113734D01*
X38807817Y-79108949D01*
X38632270Y-79019504D01*
X93546000Y-79019504D01*
X93546000Y-79418000D01*
X94246000Y-79418000D01*
X94246000Y-79918000D01*
X93546000Y-79918000D01*
X93546000Y-80316495D01*
X93584427Y-80509681D01*
X93584430Y-80509693D01*
X93659807Y-80691671D01*
X93659814Y-80691684D01*
X93769248Y-80855462D01*
X93769251Y-80855466D01*
X93908533Y-80994748D01*
X93908537Y-80994751D01*
X94072315Y-81104185D01*
X94072328Y-81104192D01*
X94254308Y-81179569D01*
X94296000Y-81187862D01*
X94296000Y-80384988D01*
X94305940Y-80402205D01*
X94361795Y-80458060D01*
X94430204Y-80497556D01*
X94506504Y-80518000D01*
X94585496Y-80518000D01*
X94661796Y-80497556D01*
X94730205Y-80458060D01*
X94786060Y-80402205D01*
X94796000Y-80384988D01*
X94796000Y-81187862D01*
X94837690Y-81179569D01*
X94837692Y-81179569D01*
X95019671Y-81104192D01*
X95019684Y-81104185D01*
X95183462Y-80994751D01*
X95183466Y-80994748D01*
X95322748Y-80855466D01*
X95322751Y-80855462D01*
X95432185Y-80691684D01*
X95432192Y-80691671D01*
X95507569Y-80509693D01*
X95507572Y-80509681D01*
X95545999Y-80316495D01*
X95546000Y-80316492D01*
X95546000Y-79918000D01*
X94846000Y-79918000D01*
X94846000Y-79418000D01*
X95401536Y-79418000D01*
X95468575Y-79437685D01*
X95508923Y-79480000D01*
X95515482Y-79491361D01*
X95515484Y-79491364D01*
X95515485Y-79491365D01*
X95622635Y-79598515D01*
X95753865Y-79674281D01*
X95900234Y-79713500D01*
X95900236Y-79713500D01*
X96051764Y-79713500D01*
X96051766Y-79713500D01*
X96198135Y-79674281D01*
X96329365Y-79598515D01*
X96436515Y-79491365D01*
X96512281Y-79360135D01*
X96551500Y-79213766D01*
X96551500Y-79062234D01*
X101180500Y-79062234D01*
X101180500Y-79213765D01*
X101219719Y-79360136D01*
X101257602Y-79425750D01*
X101295485Y-79491365D01*
X101402635Y-79598515D01*
X101533865Y-79674281D01*
X101680234Y-79713500D01*
X101680236Y-79713500D01*
X101831764Y-79713500D01*
X101831766Y-79713500D01*
X101978135Y-79674281D01*
X102109365Y-79598515D01*
X102216515Y-79491365D01*
X102223077Y-79480000D01*
X102273644Y-79431784D01*
X102330464Y-79418000D01*
X102886000Y-79418000D01*
X102886000Y-79918000D01*
X102186000Y-79918000D01*
X102186000Y-80316495D01*
X102224427Y-80509681D01*
X102224430Y-80509693D01*
X102299807Y-80691671D01*
X102299814Y-80691684D01*
X102409248Y-80855462D01*
X102409251Y-80855466D01*
X102548533Y-80994748D01*
X102548537Y-80994751D01*
X102712315Y-81104185D01*
X102712328Y-81104192D01*
X102894308Y-81179569D01*
X102936000Y-81187862D01*
X102936000Y-80384988D01*
X102945940Y-80402205D01*
X103001795Y-80458060D01*
X103070204Y-80497556D01*
X103146504Y-80518000D01*
X103225496Y-80518000D01*
X103301796Y-80497556D01*
X103370205Y-80458060D01*
X103426060Y-80402205D01*
X103436000Y-80384988D01*
X103436000Y-81187862D01*
X103477690Y-81179569D01*
X103477692Y-81179569D01*
X103659671Y-81104192D01*
X103659684Y-81104185D01*
X103823462Y-80994751D01*
X103823466Y-80994748D01*
X103962748Y-80855466D01*
X103962751Y-80855462D01*
X104072185Y-80691684D01*
X104072192Y-80691671D01*
X104147569Y-80509693D01*
X104147572Y-80509681D01*
X104185999Y-80316495D01*
X104186000Y-80316492D01*
X104186000Y-80185153D01*
X104891500Y-80185153D01*
X104891500Y-80342846D01*
X104922261Y-80497489D01*
X104922264Y-80497501D01*
X104982602Y-80643172D01*
X104982609Y-80643185D01*
X105070210Y-80774288D01*
X105070213Y-80774292D01*
X105181707Y-80885786D01*
X105181711Y-80885789D01*
X105312814Y-80973390D01*
X105312827Y-80973397D01*
X105458498Y-81033735D01*
X105458503Y-81033737D01*
X105613153Y-81064499D01*
X105613156Y-81064500D01*
X105613158Y-81064500D01*
X105770844Y-81064500D01*
X105770845Y-81064499D01*
X105925497Y-81033737D01*
X106071179Y-80973394D01*
X106202289Y-80885789D01*
X106313789Y-80774289D01*
X106401394Y-80643179D01*
X106461737Y-80497497D01*
X106492500Y-80342842D01*
X106492500Y-80310113D01*
X144242300Y-80310113D01*
X144242300Y-80522686D01*
X144269066Y-80691684D01*
X144275554Y-80732643D01*
X144339098Y-80928211D01*
X144341244Y-80934814D01*
X144437751Y-81124220D01*
X144562690Y-81296186D01*
X144713013Y-81446509D01*
X144884979Y-81571448D01*
X144884981Y-81571449D01*
X144884984Y-81571451D01*
X145074388Y-81667957D01*
X145276557Y-81733646D01*
X145486513Y-81766900D01*
X145486514Y-81766900D01*
X145699086Y-81766900D01*
X145699087Y-81766900D01*
X145909043Y-81733646D01*
X146111212Y-81667957D01*
X146300616Y-81571451D01*
X146357812Y-81529896D01*
X146472586Y-81446509D01*
X146472588Y-81446506D01*
X146472592Y-81446504D01*
X146622904Y-81296192D01*
X146622906Y-81296188D01*
X146622909Y-81296186D01*
X146747848Y-81124220D01*
X146747847Y-81124220D01*
X146747851Y-81124216D01*
X146844357Y-80934812D01*
X146910046Y-80732643D01*
X146943300Y-80522687D01*
X146943300Y-80310113D01*
X146910046Y-80100157D01*
X146844357Y-79897988D01*
X146747851Y-79708584D01*
X146747849Y-79708581D01*
X146747848Y-79708579D01*
X146622909Y-79536613D01*
X146472586Y-79386290D01*
X146300620Y-79261351D01*
X146111214Y-79164844D01*
X146111213Y-79164843D01*
X146111212Y-79164843D01*
X145909043Y-79099154D01*
X145909041Y-79099153D01*
X145909040Y-79099153D01*
X145747757Y-79073608D01*
X145699087Y-79065900D01*
X145486513Y-79065900D01*
X145437842Y-79073608D01*
X145276560Y-79099153D01*
X145074385Y-79164844D01*
X144884979Y-79261351D01*
X144713013Y-79386290D01*
X144562690Y-79536613D01*
X144437751Y-79708579D01*
X144341244Y-79897985D01*
X144275553Y-80100160D01*
X144242300Y-80310113D01*
X106492500Y-80310113D01*
X106492500Y-80185158D01*
X106492500Y-80185155D01*
X106492499Y-80185153D01*
X106461738Y-80030510D01*
X106461737Y-80030503D01*
X106427463Y-79947757D01*
X106401397Y-79884827D01*
X106401390Y-79884814D01*
X106313789Y-79753711D01*
X106313786Y-79753707D01*
X106202292Y-79642213D01*
X106202288Y-79642210D01*
X106071185Y-79554609D01*
X106071172Y-79554602D01*
X105925501Y-79494264D01*
X105925489Y-79494261D01*
X105770845Y-79463500D01*
X105770842Y-79463500D01*
X105613158Y-79463500D01*
X105613155Y-79463500D01*
X105458510Y-79494261D01*
X105458498Y-79494264D01*
X105312827Y-79554602D01*
X105312814Y-79554609D01*
X105181711Y-79642210D01*
X105181707Y-79642213D01*
X105070213Y-79753707D01*
X105070210Y-79753711D01*
X104982609Y-79884814D01*
X104982602Y-79884827D01*
X104922264Y-80030498D01*
X104922261Y-80030510D01*
X104891500Y-80185153D01*
X104186000Y-80185153D01*
X104186000Y-79918000D01*
X103486000Y-79918000D01*
X103486000Y-79418000D01*
X104186000Y-79418000D01*
X104186000Y-79019508D01*
X104185999Y-79019504D01*
X104147572Y-78826318D01*
X104147569Y-78826306D01*
X104072192Y-78644328D01*
X104072185Y-78644315D01*
X103962751Y-78480537D01*
X103962748Y-78480533D01*
X103823466Y-78341251D01*
X103823462Y-78341248D01*
X103659684Y-78231814D01*
X103659671Y-78231807D01*
X103477691Y-78156429D01*
X103477683Y-78156427D01*
X103436000Y-78148135D01*
X103436000Y-78951011D01*
X103426060Y-78933795D01*
X103370205Y-78877940D01*
X103301796Y-78838444D01*
X103225496Y-78818000D01*
X103146504Y-78818000D01*
X103070204Y-78838444D01*
X103001795Y-78877940D01*
X102945940Y-78933795D01*
X102936000Y-78951011D01*
X102936000Y-78148136D01*
X102935999Y-78148135D01*
X102894316Y-78156427D01*
X102894308Y-78156429D01*
X102712328Y-78231807D01*
X102712315Y-78231814D01*
X102548537Y-78341248D01*
X102548533Y-78341251D01*
X102409248Y-78480536D01*
X102296427Y-78649387D01*
X102295003Y-78648435D01*
X102251742Y-78692451D01*
X102183600Y-78707892D01*
X102117927Y-78684041D01*
X102115907Y-78682306D01*
X102115811Y-78682432D01*
X102109367Y-78677487D01*
X102109365Y-78677485D01*
X102043750Y-78639602D01*
X101978136Y-78601719D01*
X101904950Y-78582109D01*
X101831766Y-78562500D01*
X101680234Y-78562500D01*
X101533863Y-78601719D01*
X101402635Y-78677485D01*
X101402632Y-78677487D01*
X101295487Y-78784632D01*
X101295485Y-78784635D01*
X101219719Y-78915863D01*
X101180500Y-79062234D01*
X96551500Y-79062234D01*
X96512281Y-78915865D01*
X96436515Y-78784635D01*
X96329365Y-78677485D01*
X96263750Y-78639602D01*
X96198136Y-78601719D01*
X96124950Y-78582109D01*
X96051766Y-78562500D01*
X95900234Y-78562500D01*
X95753863Y-78601719D01*
X95622635Y-78677485D01*
X95616189Y-78682432D01*
X95614099Y-78679709D01*
X95566217Y-78705466D01*
X95496558Y-78700043D01*
X95440888Y-78657821D01*
X95435299Y-78648976D01*
X95322751Y-78480537D01*
X95322748Y-78480533D01*
X95183466Y-78341251D01*
X95183462Y-78341248D01*
X95019684Y-78231814D01*
X95019671Y-78231807D01*
X94837691Y-78156429D01*
X94837683Y-78156427D01*
X94796000Y-78148135D01*
X94796000Y-78951011D01*
X94786060Y-78933795D01*
X94730205Y-78877940D01*
X94661796Y-78838444D01*
X94585496Y-78818000D01*
X94506504Y-78818000D01*
X94430204Y-78838444D01*
X94361795Y-78877940D01*
X94305940Y-78933795D01*
X94296000Y-78951011D01*
X94296000Y-78148136D01*
X94295999Y-78148135D01*
X94254316Y-78156427D01*
X94254308Y-78156429D01*
X94072328Y-78231807D01*
X94072315Y-78231814D01*
X93908537Y-78341248D01*
X93908533Y-78341251D01*
X93769251Y-78480533D01*
X93769248Y-78480537D01*
X93659814Y-78644315D01*
X93659807Y-78644328D01*
X93584430Y-78826306D01*
X93584427Y-78826318D01*
X93546000Y-79019504D01*
X38632270Y-79019504D01*
X38618414Y-79012444D01*
X38618413Y-79012443D01*
X38618412Y-79012443D01*
X38416243Y-78946754D01*
X38416241Y-78946753D01*
X38416240Y-78946753D01*
X38254957Y-78921208D01*
X38206287Y-78913500D01*
X37993713Y-78913500D01*
X37945042Y-78921208D01*
X37783760Y-78946753D01*
X37581585Y-79012444D01*
X37392179Y-79108951D01*
X37220213Y-79233890D01*
X37069890Y-79384213D01*
X36944951Y-79556179D01*
X36848444Y-79745585D01*
X36782753Y-79947760D01*
X36749500Y-80157713D01*
X35806500Y-80157713D01*
X35806500Y-75660414D01*
X45678000Y-75660414D01*
X45678000Y-76610400D01*
X46977999Y-76610400D01*
X46952979Y-76670802D01*
X46928000Y-76796381D01*
X46928000Y-76924419D01*
X46952979Y-77049998D01*
X46977999Y-77110400D01*
X45678000Y-77110400D01*
X45678000Y-78060385D01*
X45688493Y-78163089D01*
X45688494Y-78163096D01*
X45743641Y-78329518D01*
X45743643Y-78329523D01*
X45835684Y-78478744D01*
X45959655Y-78602715D01*
X46108876Y-78694756D01*
X46108881Y-78694758D01*
X46275303Y-78749905D01*
X46275310Y-78749906D01*
X46378014Y-78760399D01*
X46378027Y-78760400D01*
X47328000Y-78760400D01*
X47328000Y-77460401D01*
X47388402Y-77485421D01*
X47513981Y-77510400D01*
X47642019Y-77510400D01*
X47767598Y-77485421D01*
X47828000Y-77460401D01*
X47828000Y-78760400D01*
X48777973Y-78760400D01*
X48777985Y-78760399D01*
X48880689Y-78749906D01*
X48880696Y-78749905D01*
X49047118Y-78694758D01*
X49047123Y-78694756D01*
X49196344Y-78602715D01*
X49320315Y-78478744D01*
X49412356Y-78329523D01*
X49412357Y-78329520D01*
X49428091Y-78282041D01*
X49428092Y-78282039D01*
X49467504Y-78163099D01*
X49467506Y-78163089D01*
X49477999Y-78060385D01*
X49478000Y-78060372D01*
X49478000Y-77110400D01*
X48178001Y-77110400D01*
X48203021Y-77049998D01*
X48228000Y-76924419D01*
X48228000Y-76796381D01*
X48215963Y-76735866D01*
X50678000Y-76735866D01*
X50678000Y-76984933D01*
X50710508Y-77231863D01*
X50774973Y-77472449D01*
X50870283Y-77702548D01*
X50870288Y-77702559D01*
X50994813Y-77918241D01*
X50994819Y-77918249D01*
X51069400Y-78015445D01*
X51976958Y-77107887D01*
X52001978Y-77168290D01*
X52073112Y-77274751D01*
X52163649Y-77365288D01*
X52270110Y-77436422D01*
X52330511Y-77461441D01*
X51422953Y-78368998D01*
X51520150Y-78443580D01*
X51520158Y-78443586D01*
X51735840Y-78568111D01*
X51735851Y-78568116D01*
X51965950Y-78663426D01*
X52206536Y-78727891D01*
X52453466Y-78760400D01*
X52702534Y-78760400D01*
X52949463Y-78727891D01*
X53190049Y-78663426D01*
X53420148Y-78568116D01*
X53420159Y-78568111D01*
X53635855Y-78443578D01*
X53733045Y-78369000D01*
X53733045Y-78368997D01*
X52825488Y-77461441D01*
X52885890Y-77436422D01*
X52992351Y-77365288D01*
X53082888Y-77274751D01*
X53154022Y-77168290D01*
X53179041Y-77107888D01*
X54086597Y-78015445D01*
X54086600Y-78015445D01*
X54161178Y-77918255D01*
X54285711Y-77702559D01*
X54285716Y-77702548D01*
X54381026Y-77472449D01*
X54445491Y-77231863D01*
X54478000Y-76984933D01*
X54478000Y-76735866D01*
X55678000Y-76735866D01*
X55678000Y-76984933D01*
X55710508Y-77231863D01*
X55774973Y-77472449D01*
X55870283Y-77702548D01*
X55870288Y-77702559D01*
X55994813Y-77918241D01*
X55994819Y-77918249D01*
X56069400Y-78015445D01*
X56976958Y-77107887D01*
X57001978Y-77168290D01*
X57073112Y-77274751D01*
X57163649Y-77365288D01*
X57270110Y-77436422D01*
X57330511Y-77461441D01*
X56422953Y-78368998D01*
X56520150Y-78443580D01*
X56520158Y-78443586D01*
X56735840Y-78568111D01*
X56735851Y-78568116D01*
X56965950Y-78663426D01*
X57206536Y-78727891D01*
X57453466Y-78760400D01*
X57702534Y-78760400D01*
X57949463Y-78727891D01*
X58190049Y-78663426D01*
X58420148Y-78568116D01*
X58420159Y-78568111D01*
X58635855Y-78443578D01*
X58733045Y-78369000D01*
X58733045Y-78368997D01*
X57825488Y-77461441D01*
X57885890Y-77436422D01*
X57992351Y-77365288D01*
X58082888Y-77274751D01*
X58154022Y-77168290D01*
X58179041Y-77107889D01*
X59086597Y-78015445D01*
X59086600Y-78015445D01*
X59161178Y-77918255D01*
X59285711Y-77702559D01*
X59285716Y-77702548D01*
X59381026Y-77472449D01*
X59445491Y-77231863D01*
X59478000Y-76984933D01*
X59478000Y-76735866D01*
X60678000Y-76735866D01*
X60678000Y-76984933D01*
X60710508Y-77231863D01*
X60774973Y-77472449D01*
X60870283Y-77702548D01*
X60870288Y-77702559D01*
X60994813Y-77918241D01*
X60994819Y-77918249D01*
X61069400Y-78015445D01*
X61976958Y-77107887D01*
X62001978Y-77168290D01*
X62073112Y-77274751D01*
X62163649Y-77365288D01*
X62270110Y-77436422D01*
X62330511Y-77461441D01*
X61422953Y-78368998D01*
X61520150Y-78443580D01*
X61520158Y-78443586D01*
X61735840Y-78568111D01*
X61735851Y-78568116D01*
X61965950Y-78663426D01*
X62206536Y-78727891D01*
X62453466Y-78760400D01*
X62702534Y-78760400D01*
X62949463Y-78727891D01*
X63190049Y-78663426D01*
X63420148Y-78568116D01*
X63420159Y-78568111D01*
X63635855Y-78443578D01*
X63733045Y-78369000D01*
X63733045Y-78368997D01*
X62825488Y-77461441D01*
X62885890Y-77436422D01*
X62992351Y-77365288D01*
X63082888Y-77274751D01*
X63154022Y-77168290D01*
X63179041Y-77107888D01*
X64086597Y-78015445D01*
X64086600Y-78015445D01*
X64161178Y-77918255D01*
X64285711Y-77702559D01*
X64285716Y-77702548D01*
X64381026Y-77472449D01*
X64445491Y-77231863D01*
X64478000Y-76984933D01*
X64478000Y-76735866D01*
X64477997Y-76735841D01*
X65677500Y-76735841D01*
X65677500Y-76984958D01*
X65677501Y-76984975D01*
X65710017Y-77231961D01*
X65774498Y-77472607D01*
X65869830Y-77702761D01*
X65869837Y-77702776D01*
X65994400Y-77918526D01*
X66146060Y-78116174D01*
X66146066Y-78116181D01*
X66322218Y-78292333D01*
X66322225Y-78292339D01*
X66519873Y-78443999D01*
X66735623Y-78568562D01*
X66735638Y-78568569D01*
X66815670Y-78601719D01*
X66965793Y-78663902D01*
X67206435Y-78728382D01*
X67453435Y-78760900D01*
X67453442Y-78760900D01*
X67702558Y-78760900D01*
X67702565Y-78760900D01*
X67949565Y-78728382D01*
X68190207Y-78663902D01*
X68420373Y-78568564D01*
X68636127Y-78443999D01*
X68833776Y-78292338D01*
X69009938Y-78116176D01*
X69161599Y-77918527D01*
X69286164Y-77702773D01*
X69381502Y-77472607D01*
X69445982Y-77231965D01*
X69478500Y-76984965D01*
X69478500Y-76735841D01*
X70677500Y-76735841D01*
X70677500Y-76984958D01*
X70677501Y-76984975D01*
X70710017Y-77231961D01*
X70774498Y-77472607D01*
X70869830Y-77702761D01*
X70869837Y-77702776D01*
X70994400Y-77918526D01*
X71146060Y-78116174D01*
X71146066Y-78116181D01*
X71322218Y-78292333D01*
X71322225Y-78292339D01*
X71519873Y-78443999D01*
X71735623Y-78568562D01*
X71735638Y-78568569D01*
X71815670Y-78601719D01*
X71965793Y-78663902D01*
X72206435Y-78728382D01*
X72453435Y-78760900D01*
X72453442Y-78760900D01*
X72702558Y-78760900D01*
X72702565Y-78760900D01*
X72949565Y-78728382D01*
X73190207Y-78663902D01*
X73420373Y-78568564D01*
X73636127Y-78443999D01*
X73833776Y-78292338D01*
X74009938Y-78116176D01*
X74161599Y-77918527D01*
X74286164Y-77702773D01*
X74381502Y-77472607D01*
X74445982Y-77231965D01*
X74478500Y-76984965D01*
X74478500Y-76735835D01*
X74445982Y-76488835D01*
X74381502Y-76248193D01*
X74286257Y-76018251D01*
X74286169Y-76018038D01*
X74286162Y-76018023D01*
X74161599Y-75802273D01*
X74009939Y-75604625D01*
X74009933Y-75604618D01*
X73833781Y-75428466D01*
X73833774Y-75428460D01*
X73636126Y-75276800D01*
X73420376Y-75152237D01*
X73420361Y-75152230D01*
X73190207Y-75056898D01*
X72992024Y-75003795D01*
X72949565Y-74992418D01*
X72949564Y-74992417D01*
X72949561Y-74992417D01*
X72702575Y-74959901D01*
X72702570Y-74959900D01*
X72702565Y-74959900D01*
X72453435Y-74959900D01*
X72453429Y-74959900D01*
X72453424Y-74959901D01*
X72206438Y-74992417D01*
X71965792Y-75056898D01*
X71735638Y-75152230D01*
X71735623Y-75152237D01*
X71519873Y-75276800D01*
X71322225Y-75428460D01*
X71322218Y-75428466D01*
X71146066Y-75604618D01*
X71146060Y-75604625D01*
X70994400Y-75802273D01*
X70869837Y-76018023D01*
X70869830Y-76018038D01*
X70774498Y-76248192D01*
X70710017Y-76488838D01*
X70677501Y-76735824D01*
X70677500Y-76735841D01*
X69478500Y-76735841D01*
X69478500Y-76735835D01*
X69445982Y-76488835D01*
X69381502Y-76248193D01*
X69286257Y-76018251D01*
X69286169Y-76018038D01*
X69286162Y-76018023D01*
X69161599Y-75802273D01*
X69009939Y-75604625D01*
X69009933Y-75604618D01*
X68833781Y-75428466D01*
X68833774Y-75428460D01*
X68636126Y-75276800D01*
X68420376Y-75152237D01*
X68420361Y-75152230D01*
X68190207Y-75056898D01*
X67992024Y-75003795D01*
X67949565Y-74992418D01*
X67949564Y-74992417D01*
X67949561Y-74992417D01*
X67702575Y-74959901D01*
X67702570Y-74959900D01*
X67702565Y-74959900D01*
X67453435Y-74959900D01*
X67453429Y-74959900D01*
X67453424Y-74959901D01*
X67206438Y-74992417D01*
X66965792Y-75056898D01*
X66735638Y-75152230D01*
X66735623Y-75152237D01*
X66519873Y-75276800D01*
X66322225Y-75428460D01*
X66322218Y-75428466D01*
X66146066Y-75604618D01*
X66146060Y-75604625D01*
X65994400Y-75802273D01*
X65869837Y-76018023D01*
X65869830Y-76018038D01*
X65774498Y-76248192D01*
X65710017Y-76488838D01*
X65677501Y-76735824D01*
X65677500Y-76735841D01*
X64477997Y-76735841D01*
X64445491Y-76488936D01*
X64381026Y-76248350D01*
X64285716Y-76018251D01*
X64285711Y-76018240D01*
X64161186Y-75802558D01*
X64161180Y-75802550D01*
X64086598Y-75705353D01*
X63179041Y-76612910D01*
X63154022Y-76552510D01*
X63082888Y-76446049D01*
X62992351Y-76355512D01*
X62885890Y-76284378D01*
X62825487Y-76259357D01*
X63733045Y-75351800D01*
X63635849Y-75277219D01*
X63635841Y-75277213D01*
X63420159Y-75152688D01*
X63420148Y-75152683D01*
X63190049Y-75057373D01*
X62949463Y-74992908D01*
X62702534Y-74960400D01*
X62453466Y-74960400D01*
X62206536Y-74992908D01*
X61965950Y-75057373D01*
X61735851Y-75152683D01*
X61735847Y-75152685D01*
X61520143Y-75277223D01*
X61422953Y-75351799D01*
X61422953Y-75351800D01*
X62330511Y-76259358D01*
X62270110Y-76284378D01*
X62163649Y-76355512D01*
X62073112Y-76446049D01*
X62001978Y-76552510D01*
X61976958Y-76612911D01*
X61069400Y-75705353D01*
X61069399Y-75705353D01*
X60994823Y-75802543D01*
X60870285Y-76018247D01*
X60870283Y-76018251D01*
X60774973Y-76248350D01*
X60710508Y-76488936D01*
X60678000Y-76735866D01*
X59478000Y-76735866D01*
X59445491Y-76488936D01*
X59381026Y-76248350D01*
X59285716Y-76018251D01*
X59285711Y-76018240D01*
X59161186Y-75802558D01*
X59161180Y-75802550D01*
X59086598Y-75705353D01*
X58179041Y-76612910D01*
X58154022Y-76552510D01*
X58082888Y-76446049D01*
X57992351Y-76355512D01*
X57885890Y-76284378D01*
X57825487Y-76259357D01*
X58733045Y-75351800D01*
X58635849Y-75277219D01*
X58635841Y-75277213D01*
X58420159Y-75152688D01*
X58420148Y-75152683D01*
X58190049Y-75057373D01*
X57949463Y-74992908D01*
X57702534Y-74960400D01*
X57453466Y-74960400D01*
X57206536Y-74992908D01*
X56965950Y-75057373D01*
X56735851Y-75152683D01*
X56735847Y-75152685D01*
X56520143Y-75277223D01*
X56422953Y-75351799D01*
X56422953Y-75351800D01*
X57330511Y-76259358D01*
X57270110Y-76284378D01*
X57163649Y-76355512D01*
X57073112Y-76446049D01*
X57001978Y-76552510D01*
X56976958Y-76612911D01*
X56069400Y-75705353D01*
X56069399Y-75705353D01*
X55994823Y-75802543D01*
X55870285Y-76018247D01*
X55870283Y-76018251D01*
X55774973Y-76248350D01*
X55710508Y-76488936D01*
X55678000Y-76735866D01*
X54478000Y-76735866D01*
X54445491Y-76488936D01*
X54381026Y-76248350D01*
X54285716Y-76018251D01*
X54285711Y-76018240D01*
X54161186Y-75802558D01*
X54161180Y-75802550D01*
X54086598Y-75705353D01*
X53179041Y-76612910D01*
X53154022Y-76552510D01*
X53082888Y-76446049D01*
X52992351Y-76355512D01*
X52885890Y-76284378D01*
X52825487Y-76259357D01*
X53733045Y-75351800D01*
X53635849Y-75277219D01*
X53635841Y-75277213D01*
X53420159Y-75152688D01*
X53420148Y-75152683D01*
X53190049Y-75057373D01*
X52949463Y-74992908D01*
X52702534Y-74960400D01*
X52453466Y-74960400D01*
X52206536Y-74992908D01*
X51965950Y-75057373D01*
X51735851Y-75152683D01*
X51735847Y-75152685D01*
X51520143Y-75277223D01*
X51422953Y-75351799D01*
X51422953Y-75351800D01*
X52330511Y-76259358D01*
X52270110Y-76284378D01*
X52163649Y-76355512D01*
X52073112Y-76446049D01*
X52001978Y-76552510D01*
X51976958Y-76612911D01*
X51069400Y-75705353D01*
X51069399Y-75705353D01*
X50994823Y-75802543D01*
X50870285Y-76018247D01*
X50870283Y-76018251D01*
X50774973Y-76248350D01*
X50710508Y-76488936D01*
X50678000Y-76735866D01*
X48215963Y-76735866D01*
X48203021Y-76670802D01*
X48178001Y-76610400D01*
X49478000Y-76610400D01*
X49478000Y-75660427D01*
X49477999Y-75660414D01*
X49467506Y-75557710D01*
X49467505Y-75557703D01*
X49428090Y-75438757D01*
X49412358Y-75391281D01*
X49412356Y-75391276D01*
X49320315Y-75242055D01*
X49196344Y-75118084D01*
X49047123Y-75026043D01*
X49047118Y-75026041D01*
X48880696Y-74970894D01*
X48880689Y-74970893D01*
X48777985Y-74960400D01*
X47828000Y-74960400D01*
X47828000Y-76260398D01*
X47767598Y-76235379D01*
X47642019Y-76210400D01*
X47513981Y-76210400D01*
X47388402Y-76235379D01*
X47328000Y-76260398D01*
X47328000Y-74960400D01*
X46378014Y-74960400D01*
X46275310Y-74970893D01*
X46275303Y-74970894D01*
X46108881Y-75026041D01*
X46108876Y-75026043D01*
X45959655Y-75118084D01*
X45835684Y-75242055D01*
X45743643Y-75391276D01*
X45743641Y-75391281D01*
X45688494Y-75557703D01*
X45688493Y-75557710D01*
X45678000Y-75660414D01*
X35806500Y-75660414D01*
X35806500Y-73720135D01*
X79649500Y-73720135D01*
X79649500Y-75123870D01*
X79649501Y-75123876D01*
X79655908Y-75183483D01*
X79706202Y-75318328D01*
X79706206Y-75318335D01*
X79792452Y-75433544D01*
X79792455Y-75433547D01*
X79907664Y-75519793D01*
X79907671Y-75519797D01*
X80042517Y-75570091D01*
X80042516Y-75570091D01*
X80049444Y-75570835D01*
X80102127Y-75576500D01*
X81505872Y-75576499D01*
X81565483Y-75570091D01*
X81700331Y-75519796D01*
X81815546Y-75433546D01*
X81901796Y-75318331D01*
X81952091Y-75183483D01*
X81958500Y-75123873D01*
X81958499Y-74965304D01*
X81978183Y-74898268D01*
X81994818Y-74877625D01*
X82404000Y-74468443D01*
X82404000Y-74474661D01*
X82431259Y-74576394D01*
X82483920Y-74667606D01*
X82558394Y-74742080D01*
X82649606Y-74794741D01*
X82751339Y-74822000D01*
X82757554Y-74822000D01*
X82182602Y-75396949D01*
X82182603Y-75396950D01*
X82199165Y-75408985D01*
X82199179Y-75408993D01*
X82361012Y-75491450D01*
X82533774Y-75547584D01*
X82713179Y-75576000D01*
X82894821Y-75576000D01*
X82969543Y-75564165D01*
X83074225Y-75547584D01*
X83246984Y-75491451D01*
X83408831Y-75408986D01*
X83425396Y-75396949D01*
X83117951Y-75089504D01*
X93546000Y-75089504D01*
X93546000Y-75238000D01*
X94246000Y-75238000D01*
X94246000Y-75738000D01*
X93546000Y-75738000D01*
X93546000Y-75886495D01*
X93584427Y-76079681D01*
X93584430Y-76079693D01*
X93659807Y-76261671D01*
X93659814Y-76261684D01*
X93769248Y-76425462D01*
X93769251Y-76425466D01*
X93908533Y-76564748D01*
X93908537Y-76564751D01*
X94072315Y-76674185D01*
X94072328Y-76674192D01*
X94254308Y-76749569D01*
X94296000Y-76757862D01*
X94296000Y-75954988D01*
X94305940Y-75972205D01*
X94361795Y-76028060D01*
X94430204Y-76067556D01*
X94506504Y-76088000D01*
X94585496Y-76088000D01*
X94661796Y-76067556D01*
X94730205Y-76028060D01*
X94786060Y-75972205D01*
X94796000Y-75954988D01*
X94796000Y-76757862D01*
X94837690Y-76749569D01*
X94837692Y-76749569D01*
X95019671Y-76674192D01*
X95019684Y-76674185D01*
X95183462Y-76564751D01*
X95183466Y-76564748D01*
X95322748Y-76425466D01*
X95322751Y-76425462D01*
X95432185Y-76261684D01*
X95432192Y-76261671D01*
X95507569Y-76079693D01*
X95507572Y-76079681D01*
X95545999Y-75886495D01*
X95546000Y-75886492D01*
X95546000Y-75738000D01*
X94846000Y-75738000D01*
X94846000Y-75238000D01*
X95546000Y-75238000D01*
X95546000Y-75089508D01*
X95545999Y-75089504D01*
X102186000Y-75089504D01*
X102186000Y-75238000D01*
X102886000Y-75238000D01*
X102886000Y-75738000D01*
X102186000Y-75738000D01*
X102186000Y-75886495D01*
X102224427Y-76079681D01*
X102224430Y-76079693D01*
X102299807Y-76261671D01*
X102299814Y-76261684D01*
X102409248Y-76425462D01*
X102409251Y-76425466D01*
X102548533Y-76564748D01*
X102548537Y-76564751D01*
X102712315Y-76674185D01*
X102712328Y-76674192D01*
X102894308Y-76749569D01*
X102936000Y-76757862D01*
X102936000Y-75954988D01*
X102945940Y-75972205D01*
X103001795Y-76028060D01*
X103070204Y-76067556D01*
X103146504Y-76088000D01*
X103225496Y-76088000D01*
X103301796Y-76067556D01*
X103370205Y-76028060D01*
X103426060Y-75972205D01*
X103436000Y-75954988D01*
X103436000Y-76757862D01*
X103477690Y-76749569D01*
X103477692Y-76749569D01*
X103659671Y-76674192D01*
X103659684Y-76674185D01*
X103823462Y-76564751D01*
X103823466Y-76564748D01*
X103962748Y-76425466D01*
X103962751Y-76425462D01*
X104072185Y-76261684D01*
X104072192Y-76261671D01*
X104147569Y-76079693D01*
X104147572Y-76079681D01*
X104185999Y-75886495D01*
X104186000Y-75886492D01*
X104186000Y-75738000D01*
X103486000Y-75738000D01*
X103486000Y-75238000D01*
X104186000Y-75238000D01*
X104186000Y-75089508D01*
X104185999Y-75089504D01*
X104147572Y-74896318D01*
X104147569Y-74896306D01*
X104072192Y-74714328D01*
X104072185Y-74714315D01*
X103962751Y-74550537D01*
X103962748Y-74550533D01*
X103823466Y-74411251D01*
X103823462Y-74411248D01*
X103659684Y-74301814D01*
X103659671Y-74301807D01*
X103477691Y-74226429D01*
X103477683Y-74226427D01*
X103436000Y-74218135D01*
X103436000Y-75021011D01*
X103426060Y-75003795D01*
X103370205Y-74947940D01*
X103301796Y-74908444D01*
X103225496Y-74888000D01*
X103146504Y-74888000D01*
X103070204Y-74908444D01*
X103001795Y-74947940D01*
X102945940Y-75003795D01*
X102936000Y-75021011D01*
X102936000Y-74218136D01*
X102935999Y-74218135D01*
X102894316Y-74226427D01*
X102894308Y-74226429D01*
X102712328Y-74301807D01*
X102712315Y-74301814D01*
X102548537Y-74411248D01*
X102548533Y-74411251D01*
X102409251Y-74550533D01*
X102409248Y-74550537D01*
X102299814Y-74714315D01*
X102299807Y-74714328D01*
X102224430Y-74896306D01*
X102224427Y-74896318D01*
X102186000Y-75089504D01*
X95545999Y-75089504D01*
X95507572Y-74896318D01*
X95507569Y-74896306D01*
X95432192Y-74714328D01*
X95432185Y-74714315D01*
X95322751Y-74550537D01*
X95322748Y-74550533D01*
X95183466Y-74411251D01*
X95183462Y-74411248D01*
X95019684Y-74301814D01*
X95019671Y-74301807D01*
X94837691Y-74226429D01*
X94837683Y-74226427D01*
X94796000Y-74218135D01*
X94796000Y-75021011D01*
X94786060Y-75003795D01*
X94730205Y-74947940D01*
X94661796Y-74908444D01*
X94585496Y-74888000D01*
X94506504Y-74888000D01*
X94430204Y-74908444D01*
X94361795Y-74947940D01*
X94305940Y-75003795D01*
X94296000Y-75021011D01*
X94296000Y-74218136D01*
X94295999Y-74218135D01*
X94254316Y-74226427D01*
X94254308Y-74226429D01*
X94072328Y-74301807D01*
X94072315Y-74301814D01*
X93908537Y-74411248D01*
X93908533Y-74411251D01*
X93769251Y-74550533D01*
X93769248Y-74550537D01*
X93659814Y-74714315D01*
X93659807Y-74714328D01*
X93584430Y-74896306D01*
X93584427Y-74896318D01*
X93546000Y-75089504D01*
X83117951Y-75089504D01*
X82850447Y-74822000D01*
X82856661Y-74822000D01*
X82958394Y-74794741D01*
X83049606Y-74742080D01*
X83124080Y-74667606D01*
X83176741Y-74576394D01*
X83204000Y-74474661D01*
X83204000Y-74468446D01*
X83778949Y-75043395D01*
X83790988Y-75026829D01*
X83873451Y-74864984D01*
X83929584Y-74692225D01*
X83958000Y-74512821D01*
X83958000Y-74331178D01*
X83929584Y-74151774D01*
X83873450Y-73979012D01*
X83790993Y-73817179D01*
X83790985Y-73817165D01*
X83778950Y-73800603D01*
X83778949Y-73800602D01*
X83204000Y-74375552D01*
X83204000Y-74369339D01*
X83176741Y-74267606D01*
X83124080Y-74176394D01*
X83049606Y-74101920D01*
X82958394Y-74049259D01*
X82856661Y-74022000D01*
X82850447Y-74022000D01*
X83425396Y-73447049D01*
X83425395Y-73447048D01*
X83408834Y-73435014D01*
X83408830Y-73435012D01*
X83246984Y-73352548D01*
X83074225Y-73296415D01*
X82894821Y-73268000D01*
X82713179Y-73268000D01*
X82533774Y-73296415D01*
X82361015Y-73352548D01*
X82199170Y-73435012D01*
X82199161Y-73435018D01*
X82182603Y-73447048D01*
X82182602Y-73447049D01*
X82757554Y-74022000D01*
X82751339Y-74022000D01*
X82649606Y-74049259D01*
X82558394Y-74101920D01*
X82483920Y-74176394D01*
X82431259Y-74267606D01*
X82404000Y-74369339D01*
X82404000Y-74375554D01*
X81994818Y-73966372D01*
X81961333Y-73905049D01*
X81958499Y-73878691D01*
X81958499Y-73720129D01*
X81958498Y-73720123D01*
X81958497Y-73720116D01*
X81952091Y-73660517D01*
X81901796Y-73525669D01*
X81901795Y-73525668D01*
X81901793Y-73525664D01*
X81815547Y-73410455D01*
X81815544Y-73410452D01*
X81700335Y-73324206D01*
X81700328Y-73324202D01*
X81565482Y-73273908D01*
X81565483Y-73273908D01*
X81505883Y-73267501D01*
X81505881Y-73267500D01*
X81505873Y-73267500D01*
X81505864Y-73267500D01*
X80102129Y-73267500D01*
X80102123Y-73267501D01*
X80042516Y-73273908D01*
X79907671Y-73324202D01*
X79907664Y-73324206D01*
X79792455Y-73410452D01*
X79792452Y-73410455D01*
X79706206Y-73525664D01*
X79706202Y-73525671D01*
X79655908Y-73660517D01*
X79649501Y-73720116D01*
X79649501Y-73720123D01*
X79649500Y-73720135D01*
X35806500Y-73720135D01*
X35806500Y-72252500D01*
X35826185Y-72185461D01*
X35878989Y-72139706D01*
X35930500Y-72128500D01*
X147584500Y-72128500D01*
X147651539Y-72148185D01*
G37*
%TD.AperFunction*%
%TD*%
M02*
