M48
; DRILL file {KiCad 9.0.1} date 2026-07-11T13:11:06-0700
; FORMAT={-:-/ absolute / inch / decimal}
; #@! TF.CreationDate,2026-07-11T13:11:06-07:00
; #@! TF.GenerationSoftware,Kicad,Pcbnew,9.0.1
; #@! TF.FileFunction,Plated,1,4,PTH
FMAT,2
INCH
; #@! TA.AperFunction,Plated,PTH,ComponentDrill
T1C0.0079
; #@! TA.AperFunction,Plated,PTH,ViaDrill
T2C0.0118
; #@! TA.AperFunction,Plated,PTH,ComponentDrill
T3C0.0236
; #@! TA.AperFunction,Plated,PTH,ComponentDrill
T4C0.0256
; #@! TA.AperFunction,Plated,PTH,ComponentDrill
T5C0.0300
; #@! TA.AperFunction,Plated,PTH,ComponentDrill
T6C0.0315
; #@! TA.AperFunction,Plated,PTH,ComponentDrill
T7C0.0320
; #@! TA.AperFunction,Plated,PTH,ComponentDrill
T8C0.0512
%
G90
G05
T1
X4.9449Y-3.437
X4.9449Y-3.4921
X4.9724Y-3.4094
X4.9724Y-3.4646
X4.9724Y-3.5197
X5.0Y-3.437
X5.0Y-3.4921
X5.0276Y-3.4094
X5.0276Y-3.4646
X5.0276Y-3.5197
X5.0551Y-3.437
X5.0551Y-3.4921
T2
X2.0Y-3.6102
X2.0Y-3.8698
X3.1254Y-3.5822
X3.1254Y-3.8775
X3.3774Y-4.2262
X3.5092Y-4.225
X3.5703Y-3.031
X3.5842Y-4.1
X3.6658Y-4.1
X3.7181Y-3.3838
X3.7475Y-3.2672
X3.7644Y-3.1726
X3.8997Y-3.2363
X3.901Y-3.2759
X3.98Y-3.38
X3.9808Y-3.6255
X4.0203Y-3.1726
X4.0231Y-3.2672
X4.0706Y-3.3775
X4.2013Y-3.8
X4.2101Y-3.7003
X4.2551Y-3.5982
X4.2593Y-3.4523
X4.2756Y-3.2116
X4.2756Y-3.2431
X4.4802Y-3.2299
X4.4803Y-3.1481
X4.6003Y-3.1445
X4.6003Y-3.2262
X4.7146Y-3.1606
X4.7146Y-3.2106
X4.7146Y-3.2606
X4.7146Y-3.3106
X4.7146Y-3.3606
X4.7146Y-3.4106
X4.7146Y-3.4606
X4.7146Y-3.5106
X4.7146Y-3.5606
X4.7146Y-3.6106
X4.7146Y-3.6606
X4.7146Y-3.7106
X4.7841Y-3.8598
X4.84Y-3.86
X4.8841Y-3.8598
X4.9341Y-3.8598
X4.9841Y-3.8598
X5.4035Y-3.1606
X5.4035Y-3.2106
X5.4035Y-3.2606
X5.4035Y-3.3106
X5.4035Y-3.3606
X5.4035Y-3.4106
X5.4035Y-3.4606
X5.4035Y-3.7106
X5.4035Y-3.7606
X5.4599Y-3.2001
X5.49Y-3.76
X5.5Y-3.6
X5.5197Y-3.3858
X5.5748Y-3.1511
X5.58Y-3.9013
X5.58Y-3.98
X5.58Y-4.18
X5.58Y-4.2587
X5.6614Y-3.1496
X5.7825Y-3.3465
X5.7825Y-3.4961
T4
X5.6Y-3.67
X5.6Y-3.72
X5.6Y-3.77
X5.6Y-3.82
X5.75Y-3.675
X5.75Y-3.725
X5.75Y-3.775
X5.75Y-3.825
T5
X3.15Y-4.5
X3.1776Y-2.9545
X3.2287Y-4.5
X3.2564Y-2.9545
X3.5473Y-4.464
X3.626Y-4.464
X4.6176Y-4.4645
X4.6964Y-4.4645
T6
X2.21Y-3.3704
X2.21Y-3.8704
X2.21Y-4.0104
X2.21Y-4.5104
X2.31Y-3.3704
X2.31Y-3.8704
X2.31Y-4.0104
X2.31Y-4.5104
X2.41Y-3.3704
X2.41Y-3.8704
X2.41Y-4.0104
X2.41Y-4.5104
X2.51Y-3.3704
X2.51Y-3.8704
X2.51Y-4.0104
X2.51Y-4.5104
X2.61Y-3.3704
X2.61Y-3.8704
X2.61Y-4.0104
X2.61Y-4.5104
X2.71Y-3.3704
X2.71Y-3.8704
X2.71Y-4.0104
X2.71Y-4.5104
X2.81Y-3.3704
X2.81Y-3.8704
X2.81Y-4.0104
X2.81Y-4.5104
X2.91Y-3.3704
X2.91Y-3.8704
X2.91Y-4.0104
X2.91Y-4.5104
X3.825Y-3.85
X3.825Y-4.15
T7
X1.668Y-3.4438
X1.668Y-3.5225
X1.668Y-3.6013
X1.668Y-3.68
X1.67Y-4.22
X1.67Y-4.2987
X1.67Y-4.3775
X1.67Y-4.4562
X3.9966Y-4.4635
X4.0754Y-4.4635
X4.1541Y-4.4635
X4.2329Y-4.4635
X4.3116Y-4.4635
X4.3904Y-4.4635
X4.9913Y-4.464
X5.07Y-4.464
X5.1487Y-4.464
X5.4138Y-4.466
X5.4925Y-4.466
X5.5713Y-4.466
X5.65Y-4.466
X5.7135Y-4.0109
X5.7135Y-4.0896
X5.7135Y-4.1684
X5.7135Y-4.2471
T8
X1.7165Y-3.0236
X1.9134Y-3.0236
X2.1102Y-3.0236
X2.3071Y-3.0236
X2.5039Y-3.0236
X2.7008Y-3.0236
T3
G00X3.7223Y-2.9838
M15
G01X3.7223Y-2.9602
M16
G05
G00X3.7223Y-3.1582
M15
G01X3.7223Y-3.1149
M16
G05
G00X4.0624Y-2.9838
M15
G01X4.0624Y-2.9602
M16
G05
G00X4.0624Y-3.1582
M15
G01X4.0624Y-3.1149
M16
G05
M30
