%TF.GenerationSoftware,KiCad,Pcbnew,9.0.1*%
%TF.CreationDate,2026-07-11T13:11:06-07:00*%
%TF.ProjectId,V67_cycletron,5636375f-6379-4636-9c65-74726f6e2e6b,rev?*%
%TF.SameCoordinates,Original*%
%TF.FileFunction,Soldermask,Bot*%
%TF.FilePolarity,Negative*%
%FSLAX46Y46*%
G04 Gerber Fmt 4.6, Leading zero omitted, Abs format (unit mm)*
G04 Created by KiCad (PCBNEW 9.0.1) date 2026-07-11 13:11:06*
%MOMM*%
%LPD*%
G01*
G04 APERTURE LIST*
G04 Aperture macros list*
%AMRoundRect*
0 Rectangle with rounded corners*
0 $1 Rounding radius*
0 $2 $3 $4 $5 $6 $7 $8 $9 X,Y pos of 4 corners*
0 Add a 4 corners polygon primitive as box body*
4,1,4,$2,$3,$4,$5,$6,$7,$8,$9,$2,$3,0*
0 Add four circle primitives for the rounded corners*
1,1,$1+$1,$2,$3*
1,1,$1+$1,$4,$5*
1,1,$1+$1,$6,$7*
1,1,$1+$1,$8,$9*
0 Add four rect primitives between the rounded corners*
20,1,$1+$1,$2,$3,$4,$5,0*
20,1,$1+$1,$4,$5,$6,$7,0*
20,1,$1+$1,$6,$7,$8,$9,0*
20,1,$1+$1,$8,$9,$2,$3,0*%
G04 Aperture macros list end*
%ADD10O,1.000000X1.600000*%
%ADD11O,1.000000X2.100000*%
%ADD12C,0.650000*%
%ADD13C,1.320800*%
%ADD14R,1.000000X1.000000*%
%ADD15C,1.000000*%
%ADD16C,1.600000*%
%ADD17O,1.600000X1.600000*%
%ADD18RoundRect,0.250001X-1.149999X-1.149999X1.149999X-1.149999X1.149999X1.149999X-1.149999X1.149999X0*%
%ADD19C,2.800000*%
%ADD20R,1.600000X1.600000*%
%ADD21C,1.270000*%
G04 APERTURE END LIST*
D10*
%TO.C,J1*%
X94546000Y-75488000D03*
D11*
X94546000Y-79668000D03*
D10*
X103186000Y-75488000D03*
D11*
X103186000Y-79668000D03*
D12*
X95976000Y-79138000D03*
X101756000Y-79138000D03*
%TD*%
D13*
%TO.C,HBridge1*%
X101514900Y-113372000D03*
X103514901Y-113372000D03*
X105514900Y-113372000D03*
X107514901Y-113372000D03*
X109514899Y-113372000D03*
X111514900Y-113372000D03*
%TD*%
D14*
%TO.C,J3*%
X142240000Y-93218000D03*
D15*
X142240000Y-94488000D03*
X142240000Y-95758000D03*
X142240000Y-97028000D03*
%TD*%
D16*
%TO.C,vd_r1*%
X97155000Y-105410000D03*
D17*
X97155000Y-97790000D03*
%TD*%
D18*
%TO.C,Rails1*%
X43600000Y-76800000D03*
D19*
X48600000Y-76800000D03*
X53600000Y-76800000D03*
X58600000Y-76800000D03*
X63600000Y-76800000D03*
X68600000Y-76800000D03*
%TD*%
D20*
%TO.C,Motor_2*%
X73914000Y-85608000D03*
D17*
X71374000Y-85608000D03*
X68834000Y-85608000D03*
X66294000Y-85608000D03*
X63754000Y-85608000D03*
X61214000Y-85608000D03*
X58674000Y-85608000D03*
X56134000Y-85608000D03*
X56134000Y-98308000D03*
X58674000Y-98308000D03*
X61214000Y-98308000D03*
X63754000Y-98308000D03*
X66294000Y-98308000D03*
X68834000Y-98308000D03*
X71374000Y-98308000D03*
X73914000Y-98308000D03*
%TD*%
D14*
%TO.C,J2*%
X146050000Y-93345000D03*
D15*
X146050000Y-94615000D03*
X146050000Y-95885000D03*
X146050000Y-97155000D03*
%TD*%
D20*
%TO.C,Motor_1*%
X73914000Y-101864000D03*
D17*
X71374000Y-101864000D03*
X68834000Y-101864000D03*
X66294000Y-101864000D03*
X63754000Y-101864000D03*
X61214000Y-101864000D03*
X58674000Y-101864000D03*
X56134000Y-101864000D03*
X56134000Y-114564000D03*
X58674000Y-114564000D03*
X61214000Y-114564000D03*
X63754000Y-114564000D03*
X66294000Y-114564000D03*
X68834000Y-114564000D03*
X71374000Y-114564000D03*
X73914000Y-114564000D03*
%TD*%
D21*
%TO.C,Therm1*%
X92100400Y-113385600D03*
X90100399Y-113385600D03*
%TD*%
%TO.C,Mos1*%
X80010000Y-114300000D03*
X82010001Y-114300000D03*
%TD*%
%TO.C,HBridge2*%
X119287800Y-113397400D03*
X117287799Y-113397400D03*
%TD*%
D13*
%TO.C,Fan1*%
X137510002Y-113436400D03*
X139510001Y-113436400D03*
X141510002Y-113436400D03*
X143510000Y-113436400D03*
%TD*%
%TO.C,Hall1*%
X126777999Y-113385600D03*
X128778000Y-113385600D03*
X130777999Y-113385600D03*
%TD*%
%TO.C,I2C1*%
X145122000Y-107876599D03*
X145122000Y-105876600D03*
X145122000Y-103876599D03*
X145122000Y-101876601D03*
%TD*%
D21*
%TO.C,Input1*%
X82711800Y-75043399D03*
X80711799Y-75043399D03*
%TD*%
D13*
%TO.C,Motor1*%
X42418000Y-113187998D03*
X42418000Y-111187999D03*
X42418000Y-109187998D03*
X42418000Y-107188000D03*
%TD*%
%TO.C,Motor2*%
X42367200Y-93472000D03*
X42367200Y-91472001D03*
X42367200Y-89472000D03*
X42367200Y-87472002D03*
%TD*%
M02*
