%TF.GenerationSoftware,KiCad,Pcbnew,9.0.1*%
%TF.CreationDate,2026-07-19T18:30:06-07:00*%
%TF.ProjectId,V67_cycletron,5636375f-6379-4636-9c65-74726f6e2e6b,rev?*%
%TF.SameCoordinates,Original*%
%TF.FileFunction,Copper,L4,Bot*%
%TF.FilePolarity,Positive*%
%FSLAX46Y46*%
G04 Gerber Fmt 4.6, Leading zero omitted, Abs format (unit mm)*
G04 Created by KiCad (PCBNEW 9.0.1) date 2026-07-19 18:30:06*
%MOMM*%
%LPD*%
G01*
G04 APERTURE LIST*
G04 Aperture macros list*
%AMRoundRect*
0 Rectangle with rounded corners*
0 $1 Rounding radius*
0 $2 $3 $4 $5 $6 $7 $8 $9 X,Y pos of 4 corners*
0 Add a 4 corners polygon primitive as box body*
4,1,4,$2,$3,$4,$5,$6,$7,$8,$9,$2,$3,0*
0 Add four circle primitives for the rounded corners*
1,1,$1+$1,$2,$3*
1,1,$1+$1,$4,$5*
1,1,$1+$1,$6,$7*
1,1,$1+$1,$8,$9*
0 Add four rect primitives between the rounded corners*
20,1,$1+$1,$2,$3,$4,$5,0*
20,1,$1+$1,$4,$5,$6,$7,0*
20,1,$1+$1,$6,$7,$8,$9,0*
20,1,$1+$1,$8,$9,$2,$3,0*%
G04 Aperture macros list end*
%TA.AperFunction,ComponentPad*%
%ADD10C,1.320800*%
%TD*%
%TA.AperFunction,ComponentPad*%
%ADD11R,1.308000X1.308000*%
%TD*%
%TA.AperFunction,ComponentPad*%
%ADD12C,1.308000*%
%TD*%
%TA.AperFunction,HeatsinkPad*%
%ADD13O,1.000000X1.600000*%
%TD*%
%TA.AperFunction,HeatsinkPad*%
%ADD14O,1.000000X2.100000*%
%TD*%
%TA.AperFunction,HeatsinkPad*%
%ADD15C,0.600000*%
%TD*%
%TA.AperFunction,ComponentPad*%
%ADD16R,1.000000X1.000000*%
%TD*%
%TA.AperFunction,ComponentPad*%
%ADD17C,1.000000*%
%TD*%
%TA.AperFunction,ComponentPad*%
%ADD18C,1.600000*%
%TD*%
%TA.AperFunction,ComponentPad*%
%ADD19O,1.600000X1.600000*%
%TD*%
%TA.AperFunction,ComponentPad*%
%ADD20RoundRect,0.250001X-1.149999X-1.149999X1.149999X-1.149999X1.149999X1.149999X-1.149999X1.149999X0*%
%TD*%
%TA.AperFunction,ComponentPad*%
%ADD21C,2.800000*%
%TD*%
%TA.AperFunction,ComponentPad*%
%ADD22R,1.600000X1.600000*%
%TD*%
%TA.AperFunction,ComponentPad*%
%ADD23R,1.980000X1.980000*%
%TD*%
%TA.AperFunction,ComponentPad*%
%ADD24C,1.980000*%
%TD*%
%TA.AperFunction,ViaPad*%
%ADD25C,0.600000*%
%TD*%
%TA.AperFunction,Conductor*%
%ADD26C,0.200000*%
%TD*%
%TA.AperFunction,Conductor*%
%ADD27C,0.400000*%
%TD*%
G04 APERTURE END LIST*
D10*
%TO.P,Motor2,4,4*%
%TO.N,Motor2_B2*%
X42367200Y-87472002D03*
%TO.P,Motor2,3,3*%
%TO.N,Motor2_B1*%
X42367200Y-89472000D03*
%TO.P,Motor2,2,2*%
%TO.N,Motor2_A1*%
X42367200Y-91472001D03*
%TO.P,Motor2,1,1*%
%TO.N,Motor2_A2*%
X42367200Y-93472000D03*
%TD*%
%TO.P,Motor1,4,4*%
%TO.N,Motor1_B2*%
X42316400Y-103982002D03*
%TO.P,Motor1,3,3*%
%TO.N,Motor1_B1*%
X42316400Y-105982000D03*
%TO.P,Motor1,2,2*%
%TO.N,Motor1_A1*%
X42316400Y-107982001D03*
%TO.P,Motor1,1,1*%
%TO.N,Motor1_A2*%
X42316400Y-109982000D03*
%TD*%
%TO.P,Fan1,4,4*%
%TO.N,+24V*%
X135026400Y-114147600D03*
%TO.P,Fan1,3,3*%
%TO.N,GND*%
X137026398Y-114147600D03*
%TO.P,Fan1,2,2*%
%TO.N,FAN_En_o*%
X139026399Y-114147600D03*
%TO.P,Fan1,1,1*%
%TO.N,FAN_Tach_i*%
X141026398Y-114147600D03*
%TD*%
%TO.P,Hall1,3,3*%
%TO.N,3V3*%
X124593601Y-114300000D03*
%TO.P,Hall1,2,2*%
%TO.N,GND*%
X126593600Y-114300000D03*
%TO.P,Hall1,1,1*%
%TO.N,Hall_i*%
X128593601Y-114300000D03*
%TD*%
D11*
%TO.P,hb2,1,1*%
%TO.N,GND*%
X119380000Y-114300000D03*
D12*
%TO.P,hb2,2,2*%
%TO.N,+24V*%
X117380000Y-114300000D03*
%TD*%
D11*
%TO.P,hb1,1,1*%
%TO.N,RPWM*%
X109982000Y-114554000D03*
D12*
%TO.P,hb1,2,2*%
%TO.N,LPWM*%
X107982000Y-114554000D03*
%TO.P,hb1,3,3*%
%TO.N,R_EN*%
X105982000Y-114554000D03*
%TO.P,hb1,4,4*%
%TO.N,L_EN*%
X103982000Y-114554000D03*
%TO.P,hb1,5,5*%
%TO.N,3V3*%
X101982000Y-114554000D03*
%TO.P,hb1,6,6*%
%TO.N,GND*%
X99982000Y-114554000D03*
%TD*%
D13*
%TO.P,J1,S1,SHIELD*%
%TO.N,GND*%
X94546000Y-75488000D03*
D14*
X94546000Y-79668000D03*
D13*
X103186000Y-75488000D03*
D14*
X103186000Y-79668000D03*
%TD*%
D15*
%TO.P,U4,41,GND*%
%TO.N,GND*%
X128400000Y-88700000D03*
X128400000Y-87300000D03*
X127700000Y-89400000D03*
X127700000Y-88000000D03*
X127700000Y-86600000D03*
X127000000Y-88700000D03*
X127000000Y-87300000D03*
X126300000Y-89400000D03*
X126300000Y-88000000D03*
X126300000Y-86600000D03*
X125600000Y-88700000D03*
X125600000Y-87300000D03*
%TD*%
D16*
%TO.P,J3,1,Pin_1*%
%TO.N,IO40*%
X142240000Y-93218000D03*
D17*
%TO.P,J3,2,Pin_2*%
%TO.N,IO39*%
X142240000Y-94488000D03*
%TO.P,J3,3,Pin_3*%
%TO.N,IO38*%
X142240000Y-95758000D03*
%TO.P,J3,4,Pin_4*%
%TO.N,IO37*%
X142240000Y-97028000D03*
%TD*%
D18*
%TO.P,vd_r1,1*%
%TO.N,Therm-*%
X97155000Y-105410000D03*
D19*
%TO.P,vd_r1,2*%
%TO.N,GND*%
X97155000Y-97790000D03*
%TD*%
D20*
%TO.P,Rails1,1,Pin_1*%
%TO.N,GND*%
X47578000Y-76860400D03*
D21*
%TO.P,Rails1,2,Pin_2*%
X52578000Y-76860400D03*
%TO.P,Rails1,3,Pin_3*%
X57578000Y-76860400D03*
%TO.P,Rails1,4,Pin_4*%
X62578000Y-76860400D03*
%TO.P,Rails1,5,Pin_5*%
%TO.N,3V3*%
X67578000Y-76860400D03*
%TO.P,Rails1,6,Pin_6*%
%TO.N,+24V*%
X72578000Y-76860400D03*
%TD*%
D22*
%TO.P,Motor_2,1,GND*%
%TO.N,GND*%
X73914000Y-85608000D03*
D19*
%TO.P,Motor_2,2,~{FLT}*%
%TO.N,Motor2_FLT*%
X71374000Y-85608000D03*
%TO.P,Motor_2,3,A2*%
%TO.N,Motor2_A2*%
X68834000Y-85608000D03*
%TO.P,Motor_2,4,A1*%
%TO.N,Motor2_A1*%
X66294000Y-85608000D03*
%TO.P,Motor_2,5,B1*%
%TO.N,Motor2_B1*%
X63754000Y-85608000D03*
%TO.P,Motor_2,6,B2*%
%TO.N,Motor2_B2*%
X61214000Y-85608000D03*
%TO.P,Motor_2,7,GND*%
%TO.N,GND*%
X58674000Y-85608000D03*
%TO.P,Motor_2,8,VMOT*%
%TO.N,+24V*%
X56134000Y-85608000D03*
%TO.P,Motor_2,9,~{EN}*%
%TO.N,Motor2_EN*%
X56134000Y-98308000D03*
%TO.P,Motor_2,10,M0*%
%TO.N,Motor2_M0*%
X58674000Y-98308000D03*
%TO.P,Motor_2,11,M1*%
%TO.N,Motor2_M1*%
X61214000Y-98308000D03*
%TO.P,Motor_2,12,M2*%
%TO.N,Motor2_M2*%
X63754000Y-98308000D03*
%TO.P,Motor_2,13,~{RST}*%
%TO.N,3V3*%
X66294000Y-98308000D03*
%TO.P,Motor_2,14,~{SLP}*%
X68834000Y-98308000D03*
%TO.P,Motor_2,15,STEP*%
%TO.N,Motor2_STEP*%
X71374000Y-98308000D03*
%TO.P,Motor_2,16,DIR*%
%TO.N,Motor2_DIR*%
X73914000Y-98308000D03*
%TD*%
D11*
%TO.P,Input1,1,1*%
%TO.N,24V_unsafe*%
X80804000Y-74422000D03*
D12*
%TO.P,Input1,2,2*%
%TO.N,GND*%
X82804000Y-74422000D03*
%TD*%
D16*
%TO.P,J2,1,Pin_1*%
%TO.N,IO1*%
X146050000Y-93345000D03*
D17*
%TO.P,J2,2,Pin_2*%
%TO.N,IO2*%
X146050000Y-94615000D03*
%TO.P,J2,3,Pin_3*%
%TO.N,TX*%
X146050000Y-95885000D03*
%TO.P,J2,4,Pin_4*%
%TO.N,RX*%
X146050000Y-97155000D03*
%TD*%
D23*
%TO.P,U3,1,IN*%
%TO.N,+24V*%
X88646000Y-92710000D03*
D24*
%TO.P,U3,2,GND*%
%TO.N,GND*%
X91196000Y-92710000D03*
%TO.P,U3,3,OUT*%
%TO.N,+5V*%
X93746000Y-92710000D03*
%TD*%
D22*
%TO.P,Motor_1,1,GND*%
%TO.N,GND*%
X73914000Y-101864000D03*
D19*
%TO.P,Motor_1,2,~{FLT}*%
%TO.N,Motor1_FLT*%
X71374000Y-101864000D03*
%TO.P,Motor_1,3,A2*%
%TO.N,Motor1_A2*%
X68834000Y-101864000D03*
%TO.P,Motor_1,4,A1*%
%TO.N,Motor1_A1*%
X66294000Y-101864000D03*
%TO.P,Motor_1,5,B1*%
%TO.N,Motor1_B1*%
X63754000Y-101864000D03*
%TO.P,Motor_1,6,B2*%
%TO.N,Motor1_B2*%
X61214000Y-101864000D03*
%TO.P,Motor_1,7,GND*%
%TO.N,GND*%
X58674000Y-101864000D03*
%TO.P,Motor_1,8,VMOT*%
%TO.N,+24V*%
X56134000Y-101864000D03*
%TO.P,Motor_1,9,~{EN}*%
%TO.N,Motor1_EN*%
X56134000Y-114564000D03*
%TO.P,Motor_1,10,M0*%
%TO.N,Motor1_M0*%
X58674000Y-114564000D03*
%TO.P,Motor_1,11,M1*%
%TO.N,Motor1_M1*%
X61214000Y-114564000D03*
%TO.P,Motor_1,12,M2*%
%TO.N,Motor1_M2*%
X63754000Y-114564000D03*
%TO.P,Motor_1,13,~{RST}*%
%TO.N,3V3*%
X66294000Y-114564000D03*
%TO.P,Motor_1,14,~{SLP}*%
X68834000Y-114564000D03*
%TO.P,Motor_1,15,STEP*%
%TO.N,Motor1_STEP*%
X71374000Y-114564000D03*
%TO.P,Motor_1,16,DIR*%
%TO.N,Motor1_DIR*%
X73914000Y-114564000D03*
%TD*%
D11*
%TO.P,Therm1,1,1*%
%TO.N,3V3*%
X92017600Y-114503200D03*
D12*
%TO.P,Therm1,2,2*%
%TO.N,Therm-*%
X90017600Y-114503200D03*
%TD*%
D11*
%TO.P,Mos1,1,1*%
%TO.N,mosfet1_o*%
X82702400Y-113944400D03*
D12*
%TO.P,Mos1,2,2*%
%TO.N,+24V*%
X80702400Y-113944400D03*
%TD*%
D10*
%TO.P,I2C1,1,1*%
%TO.N,SCL*%
X146089000Y-101571801D03*
%TO.P,I2C1,2,2*%
%TO.N,SDA*%
X146089000Y-103571800D03*
%TO.P,I2C1,3,3*%
%TO.N,GND*%
X146089000Y-105571801D03*
%TO.P,I2C1,4,4*%
%TO.N,3V3*%
X146089000Y-107571799D03*
%TD*%
D25*
%TO.N,GND*%
X50546000Y-110756000D03*
X87122000Y-78232000D03*
X142865200Y-79870900D03*
X95186000Y-82988000D03*
X140665200Y-79908400D03*
X146875000Y-85000000D03*
X50292000Y-92739999D03*
X93112500Y-104140000D03*
X116848000Y-79871500D03*
X108661200Y-83362800D03*
X113800000Y-79962500D03*
X111220000Y-80264000D03*
X90656000Y-86030000D03*
X102116000Y-80583000D03*
X108186000Y-87688000D03*
X146875000Y-88800000D03*
X103393500Y-85788000D03*
X77789265Y-91059265D03*
X85786000Y-107345000D03*
X119750000Y-80280000D03*
X95616000Y-80583000D03*
X125788600Y-107137200D03*
X84068000Y-98806000D03*
X137250000Y-80280000D03*
%TO.N,En*%
X119750000Y-82820000D03*
X138682000Y-81282000D03*
%TO.N,Net-(J1-CC1)*%
X106661200Y-83400000D03*
X100330000Y-81889600D03*
%TO.N,BOOT*%
X139700000Y-91440000D03*
X139446000Y-95504000D03*
%TO.N,Motor1_M0*%
X121515000Y-98040000D03*
%TO.N,Motor1_EN*%
X119750000Y-94250000D03*
%TO.N,Motor1_FLT*%
X119750000Y-92980000D03*
%TO.N,Motor1_STEP*%
X125325000Y-98040000D03*
%TO.N,Motor1_M2*%
X124055000Y-98040000D03*
%TO.N,Motor1_M1*%
X122936000Y-98044000D03*
%TO.N,Motor1_DIR*%
X126595000Y-98040000D03*
%TO.N,Motor2_EN*%
X119750000Y-85360000D03*
%TO.N,Motor2_M1*%
X119735600Y-87884000D03*
%TO.N,Motor2_DIR*%
X119750000Y-91710000D03*
%TO.N,Motor2_STEP*%
X119750000Y-90440000D03*
%TO.N,Motor2_FLT*%
X119750000Y-84090000D03*
%TO.N,Motor2_M2*%
X119750000Y-89170000D03*
%TO.N,Motor2_M0*%
X119750000Y-86630000D03*
%TO.N,SCL*%
X137250000Y-87900000D03*
X141782800Y-99888800D03*
%TO.N,SDA*%
X141681200Y-103936800D03*
X137250000Y-86630000D03*
%TO.N,FAN_Tach_i*%
X139852400Y-102514400D03*
X137250000Y-94250000D03*
%TO.N,FAN_En_o*%
X137250000Y-95520000D03*
%TO.N,3V3*%
X141782800Y-101888800D03*
X91037500Y-104140000D03*
X140200000Y-86000000D03*
X105692000Y-80264000D03*
X116848000Y-81946500D03*
X141681200Y-105936800D03*
X108079235Y-91394765D03*
X119750000Y-81550000D03*
X101113500Y-92088000D03*
X135331200Y-105428800D03*
X127863600Y-107137200D03*
X89132500Y-107315000D03*
X113796658Y-82040185D03*
X101092000Y-85852000D03*
%TO.N,TX*%
X137250000Y-84090000D03*
%TO.N,RX*%
X137250000Y-85360000D03*
%TO.N,IO2*%
X137250000Y-82820000D03*
%TO.N,IO1*%
X137250000Y-81550000D03*
%TD*%
D26*
%TO.N,En*%
X119750000Y-82950000D02*
X119800000Y-83000000D01*
X121689000Y-80881000D02*
X119750000Y-82820000D01*
X138281000Y-80881000D02*
X121689000Y-80881000D01*
X138682000Y-81282000D02*
X138281000Y-80881000D01*
X119750000Y-82820000D02*
X119750000Y-82950000D01*
%TO.N,Net-(J1-CC1)*%
X100330000Y-81889600D02*
X105150800Y-81889600D01*
X105150800Y-81889600D02*
X106661200Y-83400000D01*
%TO.N,BOOT*%
X139700000Y-95250000D02*
X139446000Y-95504000D01*
X139700000Y-91440000D02*
X139700000Y-95250000D01*
%TO.N,Motor1_M0*%
X104140000Y-96520000D02*
X84328000Y-96520000D01*
X68844000Y-104394000D02*
X58674000Y-114564000D01*
X84328000Y-96520000D02*
X76454000Y-104394000D01*
X121511000Y-98044000D02*
X105664000Y-98044000D01*
X121515000Y-98040000D02*
X121511000Y-98044000D01*
X105664000Y-98044000D02*
X104140000Y-96520000D01*
X76454000Y-104394000D02*
X68844000Y-104394000D01*
D27*
%TO.N,Motor1_B1*%
X50265836Y-105968800D02*
X50458836Y-106161800D01*
X51039564Y-106161800D02*
X51232564Y-105968800D01*
X42316400Y-105982000D02*
X43725600Y-105982000D01*
X43738800Y-105968800D02*
X50265836Y-105968800D01*
X43725600Y-105982000D02*
X43738800Y-105968800D01*
X59649200Y-105968800D02*
X63754000Y-101864000D01*
X50458836Y-106161800D02*
X51039564Y-106161800D01*
X51232564Y-105968800D02*
X59649200Y-105968800D01*
D26*
%TO.N,Motor1_EN*%
X75400000Y-103600000D02*
X68866000Y-103600000D01*
X58176000Y-112522000D02*
X56134000Y-114564000D01*
X119750000Y-94250000D02*
X118200000Y-95800000D01*
X59944000Y-112522000D02*
X58176000Y-112522000D01*
X118200000Y-95800000D02*
X83200000Y-95800000D01*
X68866000Y-103600000D02*
X59944000Y-112522000D01*
X83200000Y-95800000D02*
X75400000Y-103600000D01*
%TO.N,Motor1_FLT*%
X117378400Y-95351600D02*
X79648400Y-95351600D01*
X74670000Y-100330000D02*
X72908000Y-100330000D01*
X119750000Y-92980000D02*
X117378400Y-95351600D01*
X79648400Y-95351600D02*
X74670000Y-100330000D01*
X72908000Y-100330000D02*
X71374000Y-101864000D01*
%TO.N,Motor1_STEP*%
X71374000Y-113030000D02*
X83058000Y-101346000D01*
X122019000Y-101346000D02*
X125325000Y-98040000D01*
X83058000Y-101346000D02*
X122019000Y-101346000D01*
X71374000Y-114564000D02*
X71374000Y-113030000D01*
D27*
%TO.N,Motor1_B2*%
X42321998Y-103987600D02*
X59090400Y-103987600D01*
X59090400Y-103987600D02*
X61214000Y-101864000D01*
X42316400Y-103982002D02*
X42321998Y-103987600D01*
D26*
%TO.N,Motor1_M2*%
X77724000Y-105664000D02*
X72654000Y-105664000D01*
X124055000Y-98040000D02*
X121765000Y-100330000D01*
X72654000Y-105664000D02*
X63754000Y-114564000D01*
X83058000Y-100330000D02*
X77724000Y-105664000D01*
X121765000Y-100330000D02*
X83058000Y-100330000D01*
%TO.N,Motor1_M1*%
X70612000Y-105156000D02*
X70612000Y-105166000D01*
X77216000Y-105156000D02*
X70612000Y-105156000D01*
X121412000Y-99568000D02*
X82804000Y-99568000D01*
X82804000Y-99568000D02*
X77216000Y-105156000D01*
X122936000Y-98044000D02*
X121412000Y-99568000D01*
X70612000Y-105166000D02*
X61214000Y-114564000D01*
%TO.N,Motor1_DIR*%
X126595000Y-98040000D02*
X122273000Y-102362000D01*
X76200000Y-112278000D02*
X73914000Y-114564000D01*
X76200000Y-112268000D02*
X76200000Y-112278000D01*
X122273000Y-102362000D02*
X86106000Y-102362000D01*
X86106000Y-102362000D02*
X76200000Y-112268000D01*
D27*
%TO.N,Motor1_A1*%
X60175999Y-107982001D02*
X66294000Y-101864000D01*
X42316400Y-107982001D02*
X60175999Y-107982001D01*
%TO.N,Motor1_A2*%
X60716000Y-109982000D02*
X68834000Y-101864000D01*
X42316400Y-109982000D02*
X60716000Y-109982000D01*
%TO.N,Motor2_A2*%
X42400000Y-93439999D02*
X61002001Y-93439999D01*
X61002001Y-93439999D02*
X68834000Y-85608000D01*
%TO.N,Motor2_B2*%
X59381999Y-87440001D02*
X61214000Y-85608000D01*
X42400000Y-87440001D02*
X59381999Y-87440001D01*
D26*
%TO.N,Motor2_EN*%
X119388400Y-84988400D02*
X76611600Y-84988400D01*
X76611600Y-84988400D02*
X67000000Y-94600000D01*
X58417500Y-94600000D02*
X56134000Y-96883500D01*
X67000000Y-94600000D02*
X58417500Y-94600000D01*
X119800000Y-85400000D02*
X119388400Y-84988400D01*
X56134000Y-96883500D02*
X56134000Y-98308000D01*
%TO.N,Motor2_M1*%
X107200000Y-88600000D02*
X106400000Y-87800000D01*
X61214000Y-96986000D02*
X61214000Y-98308000D01*
X119651600Y-87800000D02*
X109800000Y-87800000D01*
X109000000Y-88600000D02*
X107200000Y-88600000D01*
X109800000Y-87800000D02*
X109000000Y-88600000D01*
X62000000Y-96200000D02*
X61214000Y-96986000D01*
X77000000Y-87800000D02*
X68600000Y-96200000D01*
X106400000Y-87800000D02*
X77000000Y-87800000D01*
X68600000Y-96200000D02*
X62000000Y-96200000D01*
X119735600Y-87884000D02*
X119651600Y-87800000D01*
%TO.N,Motor2_DIR*%
X76188400Y-94589600D02*
X73914000Y-96864000D01*
X73914000Y-96864000D02*
X73914000Y-98308000D01*
X116810400Y-94589600D02*
X76188400Y-94589600D01*
X119750000Y-91710000D02*
X119690000Y-91710000D01*
X119690000Y-91710000D02*
X116810400Y-94589600D01*
%TO.N,Motor2_STEP*%
X77613000Y-90387000D02*
X71374000Y-96626000D01*
X71374000Y-96626000D02*
X71374000Y-98308000D01*
X81000000Y-90400000D02*
X80987000Y-90387000D01*
X119710000Y-90400000D02*
X81000000Y-90400000D01*
X119750000Y-90440000D02*
X119710000Y-90400000D01*
X80987000Y-90387000D02*
X77613000Y-90387000D01*
D27*
%TO.N,Motor2_B1*%
X59922001Y-89439999D02*
X63754000Y-85608000D01*
X42400000Y-89439999D02*
X59922001Y-89439999D01*
D26*
%TO.N,Motor2_FLT*%
X71374000Y-85608000D02*
X72982000Y-84000000D01*
X79000000Y-84000000D02*
X74168000Y-84000000D01*
X118200000Y-84000000D02*
X79000000Y-84000000D01*
X72982000Y-84000000D02*
X74168000Y-84000000D01*
X119800000Y-84000000D02*
X118200000Y-84000000D01*
%TO.N,Motor2_M2*%
X77470000Y-89200000D02*
X69896000Y-96774000D01*
X69896000Y-96774000D02*
X65288000Y-96774000D01*
X119720000Y-89200000D02*
X77470000Y-89200000D01*
X119750000Y-89170000D02*
X119720000Y-89200000D01*
X65288000Y-96774000D02*
X63754000Y-98308000D01*
%TO.N,Motor2_M0*%
X67800000Y-95400000D02*
X59200000Y-95400000D01*
X119750000Y-86630000D02*
X76570000Y-86630000D01*
X58674000Y-95926000D02*
X58674000Y-98308000D01*
X59200000Y-95400000D02*
X58674000Y-95926000D01*
X76570000Y-86630000D02*
X67800000Y-95400000D01*
D27*
%TO.N,Motor2_A1*%
X42400000Y-91440000D02*
X42450800Y-91389200D01*
X60512800Y-91389200D02*
X66294000Y-85608000D01*
X42450800Y-91389200D02*
X60512800Y-91389200D01*
D26*
%TO.N,SCL*%
X140462000Y-98602800D02*
X141748000Y-99888800D01*
X140462000Y-91112000D02*
X140462000Y-98602800D01*
X137250000Y-87900000D02*
X140462000Y-91112000D01*
X141748000Y-99888800D02*
X141782800Y-99888800D01*
%TO.N,SDA*%
X140970000Y-97840800D02*
X141427200Y-98298000D01*
X137250000Y-86630000D02*
X140970000Y-90350000D01*
X142798800Y-99669600D02*
X142798800Y-102819200D01*
X140970000Y-90350000D02*
X140970000Y-97840800D01*
X141427200Y-98298000D02*
X142798800Y-99669600D01*
X142798800Y-102819200D02*
X141681200Y-103936800D01*
%TO.N,FAN_Tach_i*%
X139852400Y-112973602D02*
X141026398Y-114147600D01*
X139852400Y-96852400D02*
X139852400Y-102514400D01*
X137250000Y-94250000D02*
X139852400Y-96852400D01*
X139852400Y-102514400D02*
X139852400Y-112973602D01*
%TO.N,FAN_En_o*%
X137250000Y-95520000D02*
X139026399Y-97296399D01*
X139026399Y-97296399D02*
X139026399Y-114147600D01*
%TO.N,TX*%
X144653000Y-91493000D02*
X144653000Y-94488000D01*
X137250000Y-84090000D02*
X144653000Y-91493000D01*
X144653000Y-94488000D02*
X146050000Y-95885000D01*
%TO.N,RX*%
X144145000Y-95250000D02*
X146050000Y-97155000D01*
X137250000Y-85360000D02*
X144145000Y-92255000D01*
X144145000Y-92255000D02*
X144145000Y-95250000D01*
%TO.N,IO2*%
X141732000Y-84836000D02*
X145034000Y-88138000D01*
X145669000Y-94615000D02*
X146050000Y-94615000D01*
X137250000Y-82820000D02*
X139266000Y-84836000D01*
X145034000Y-93980000D02*
X145669000Y-94615000D01*
X139266000Y-84836000D02*
X141732000Y-84836000D01*
X145034000Y-88138000D02*
X145034000Y-93980000D01*
%TO.N,IO1*%
X144272000Y-83312000D02*
X146050000Y-85090000D01*
X139700000Y-83312000D02*
X144272000Y-83312000D01*
X137938000Y-81550000D02*
X139700000Y-83312000D01*
X137250000Y-81550000D02*
X137938000Y-81550000D01*
X146050000Y-85090000D02*
X146050000Y-93345000D01*
%TD*%
M02*
