%TF.GenerationSoftware,KiCad,Pcbnew,9.0.1*%
%TF.CreationDate,2026-07-19T18:30:06-07:00*%
%TF.ProjectId,V67_cycletron,5636375f-6379-4636-9c65-74726f6e2e6b,rev?*%
%TF.SameCoordinates,Original*%
%TF.FileFunction,Legend,Top*%
%TF.FilePolarity,Positive*%
%FSLAX46Y46*%
G04 Gerber Fmt 4.6, Leading zero omitted, Abs format (unit mm)*
G04 Created by KiCad (PCBNEW 9.0.1) date 2026-07-19 18:30:06*
%MOMM*%
%LPD*%
G01*
G04 APERTURE LIST*
G04 Aperture macros list*
%AMRoundRect*
0 Rectangle with rounded corners*
0 $1 Rounding radius*
0 $2 $3 $4 $5 $6 $7 $8 $9 X,Y pos of 4 corners*
0 Add a 4 corners polygon primitive as box body*
4,1,4,$2,$3,$4,$5,$6,$7,$8,$9,$2,$3,0*
0 Add four circle primitives for the rounded corners*
1,1,$1+$1,$2,$3*
1,1,$1+$1,$4,$5*
1,1,$1+$1,$6,$7*
1,1,$1+$1,$8,$9*
0 Add four rect primitives between the rounded corners*
20,1,$1+$1,$2,$3,$4,$5,0*
20,1,$1+$1,$4,$5,$6,$7,0*
20,1,$1+$1,$6,$7,$8,$9,0*
20,1,$1+$1,$8,$9,$2,$3,0*%
G04 Aperture macros list end*
%ADD10C,0.152400*%
%ADD11C,0.100000*%
%ADD12C,0.150000*%
%ADD13C,0.127000*%
%ADD14C,0.120000*%
%ADD15C,0.200000*%
%ADD16C,1.320800*%
%ADD17RoundRect,0.102000X-0.654000X-0.654000X0.654000X-0.654000X0.654000X0.654000X-0.654000X0.654000X0*%
%ADD18C,1.512000*%
%ADD19RoundRect,0.250000X-0.337500X-0.475000X0.337500X-0.475000X0.337500X0.475000X-0.337500X0.475000X0*%
%ADD20O,1.000000X1.600000*%
%ADD21O,1.000000X2.100000*%
%ADD22R,0.600000X1.450000*%
%ADD23R,0.300000X1.450000*%
%ADD24C,0.650000*%
%ADD25RoundRect,0.250000X-0.350000X0.850000X-0.350000X-0.850000X0.350000X-0.850000X0.350000X0.850000X0*%
%ADD26RoundRect,0.249997X-2.650003X2.950003X-2.650003X-2.950003X2.650003X-2.950003X2.650003X2.950003X0*%
%ADD27C,0.600000*%
%ADD28R,3.900000X3.900000*%
%ADD29R,1.500000X0.900000*%
%ADD30R,0.900000X1.500000*%
%ADD31RoundRect,0.250000X-0.650000X1.000000X-0.650000X-1.000000X0.650000X-1.000000X0.650000X1.000000X0*%
%ADD32RoundRect,0.250000X0.475000X-0.337500X0.475000X0.337500X-0.475000X0.337500X-0.475000X-0.337500X0*%
%ADD33RoundRect,0.250000X0.450000X-0.350000X0.450000X0.350000X-0.450000X0.350000X-0.450000X-0.350000X0*%
%ADD34RoundRect,0.237500X0.287500X0.237500X-0.287500X0.237500X-0.287500X-0.237500X0.287500X-0.237500X0*%
%ADD35R,1.000000X1.000000*%
%ADD36C,1.000000*%
%ADD37C,1.600000*%
%ADD38O,1.600000X1.600000*%
%ADD39RoundRect,0.250001X-1.149999X-1.149999X1.149999X-1.149999X1.149999X1.149999X-1.149999X1.149999X0*%
%ADD40C,2.800000*%
%ADD41R,1.600000X1.600000*%
%ADD42RoundRect,0.250000X-0.350000X-0.450000X0.350000X-0.450000X0.350000X0.450000X-0.350000X0.450000X0*%
%ADD43RoundRect,0.102000X0.654000X0.654000X-0.654000X0.654000X-0.654000X-0.654000X0.654000X-0.654000X0*%
%ADD44RoundRect,0.250000X-0.550000X1.500000X-0.550000X-1.500000X0.550000X-1.500000X0.550000X1.500000X0*%
%ADD45C,2.200000*%
%ADD46R,1.980000X1.980000*%
%ADD47C,1.980000*%
%ADD48RoundRect,0.250000X0.337500X0.475000X-0.337500X0.475000X-0.337500X-0.475000X0.337500X-0.475000X0*%
%ADD49RoundRect,0.250000X-0.450000X0.350000X-0.450000X-0.350000X0.450000X-0.350000X0.450000X0.350000X0*%
%ADD50RoundRect,0.250000X1.000000X0.650000X-1.000000X0.650000X-1.000000X-0.650000X1.000000X-0.650000X0*%
%ADD51RoundRect,0.250000X1.050000X0.550000X-1.050000X0.550000X-1.050000X-0.550000X1.050000X-0.550000X0*%
%ADD52RoundRect,0.250000X1.500000X0.550000X-1.500000X0.550000X-1.500000X-0.550000X1.500000X-0.550000X0*%
%ADD53RoundRect,0.102000X-0.675000X-0.900000X0.675000X-0.900000X0.675000X0.900000X-0.675000X0.900000X0*%
%ADD54RoundRect,0.250000X0.350000X0.450000X-0.350000X0.450000X-0.350000X-0.450000X0.350000X-0.450000X0*%
%ADD55RoundRect,0.250000X0.550000X-1.050000X0.550000X1.050000X-0.550000X1.050000X-0.550000X-1.050000X0*%
%ADD56RoundRect,0.150000X-0.150000X0.587500X-0.150000X-0.587500X0.150000X-0.587500X0.150000X0.587500X0*%
G04 APERTURE END LIST*
D10*
X143376761Y-91115905D02*
X143491047Y-91164286D01*
X143491047Y-91164286D02*
X143529142Y-91212667D01*
X143529142Y-91212667D02*
X143567238Y-91309429D01*
X143567238Y-91309429D02*
X143567238Y-91454572D01*
X143567238Y-91454572D02*
X143529142Y-91551334D01*
X143529142Y-91551334D02*
X143491047Y-91599715D01*
X143491047Y-91599715D02*
X143414857Y-91648095D01*
X143414857Y-91648095D02*
X143110095Y-91648095D01*
X143110095Y-91648095D02*
X143110095Y-90632095D01*
X143110095Y-90632095D02*
X143376761Y-90632095D01*
X143376761Y-90632095D02*
X143452952Y-90680476D01*
X143452952Y-90680476D02*
X143491047Y-90728857D01*
X143491047Y-90728857D02*
X143529142Y-90825619D01*
X143529142Y-90825619D02*
X143529142Y-90922381D01*
X143529142Y-90922381D02*
X143491047Y-91019143D01*
X143491047Y-91019143D02*
X143452952Y-91067524D01*
X143452952Y-91067524D02*
X143376761Y-91115905D01*
X143376761Y-91115905D02*
X143110095Y-91115905D01*
X144024380Y-91648095D02*
X143948190Y-91599715D01*
X143948190Y-91599715D02*
X143910095Y-91551334D01*
X143910095Y-91551334D02*
X143871999Y-91454572D01*
X143871999Y-91454572D02*
X143871999Y-91164286D01*
X143871999Y-91164286D02*
X143910095Y-91067524D01*
X143910095Y-91067524D02*
X143948190Y-91019143D01*
X143948190Y-91019143D02*
X144024380Y-90970762D01*
X144024380Y-90970762D02*
X144138666Y-90970762D01*
X144138666Y-90970762D02*
X144214857Y-91019143D01*
X144214857Y-91019143D02*
X144252952Y-91067524D01*
X144252952Y-91067524D02*
X144291047Y-91164286D01*
X144291047Y-91164286D02*
X144291047Y-91454572D01*
X144291047Y-91454572D02*
X144252952Y-91551334D01*
X144252952Y-91551334D02*
X144214857Y-91599715D01*
X144214857Y-91599715D02*
X144138666Y-91648095D01*
X144138666Y-91648095D02*
X144024380Y-91648095D01*
X144748190Y-91648095D02*
X144672000Y-91599715D01*
X144672000Y-91599715D02*
X144633905Y-91551334D01*
X144633905Y-91551334D02*
X144595809Y-91454572D01*
X144595809Y-91454572D02*
X144595809Y-91164286D01*
X144595809Y-91164286D02*
X144633905Y-91067524D01*
X144633905Y-91067524D02*
X144672000Y-91019143D01*
X144672000Y-91019143D02*
X144748190Y-90970762D01*
X144748190Y-90970762D02*
X144862476Y-90970762D01*
X144862476Y-90970762D02*
X144938667Y-91019143D01*
X144938667Y-91019143D02*
X144976762Y-91067524D01*
X144976762Y-91067524D02*
X145014857Y-91164286D01*
X145014857Y-91164286D02*
X145014857Y-91454572D01*
X145014857Y-91454572D02*
X144976762Y-91551334D01*
X144976762Y-91551334D02*
X144938667Y-91599715D01*
X144938667Y-91599715D02*
X144862476Y-91648095D01*
X144862476Y-91648095D02*
X144748190Y-91648095D01*
X145243429Y-90970762D02*
X145548191Y-90970762D01*
X145357715Y-90632095D02*
X145357715Y-91502953D01*
X145357715Y-91502953D02*
X145395810Y-91599715D01*
X145395810Y-91599715D02*
X145472000Y-91648095D01*
X145472000Y-91648095D02*
X145548191Y-91648095D01*
X145770388Y-99268095D02*
X145503721Y-98784286D01*
X145313245Y-99268095D02*
X145313245Y-98252095D01*
X145313245Y-98252095D02*
X145618007Y-98252095D01*
X145618007Y-98252095D02*
X145694197Y-98300476D01*
X145694197Y-98300476D02*
X145732292Y-98348857D01*
X145732292Y-98348857D02*
X145770388Y-98445619D01*
X145770388Y-98445619D02*
X145770388Y-98590762D01*
X145770388Y-98590762D02*
X145732292Y-98687524D01*
X145732292Y-98687524D02*
X145694197Y-98735905D01*
X145694197Y-98735905D02*
X145618007Y-98784286D01*
X145618007Y-98784286D02*
X145313245Y-98784286D01*
X146037054Y-98252095D02*
X146570388Y-99268095D01*
X146570388Y-98252095D02*
X146037054Y-99268095D01*
X141674930Y-97998096D02*
X142170168Y-97998096D01*
X142170168Y-97998096D02*
X141903502Y-98385144D01*
X141903502Y-98385144D02*
X142017787Y-98385144D01*
X142017787Y-98385144D02*
X142093978Y-98433525D01*
X142093978Y-98433525D02*
X142132073Y-98481906D01*
X142132073Y-98481906D02*
X142170168Y-98578668D01*
X142170168Y-98578668D02*
X142170168Y-98820573D01*
X142170168Y-98820573D02*
X142132073Y-98917335D01*
X142132073Y-98917335D02*
X142093978Y-98965716D01*
X142093978Y-98965716D02*
X142017787Y-99014096D01*
X142017787Y-99014096D02*
X141789216Y-99014096D01*
X141789216Y-99014096D02*
X141713025Y-98965716D01*
X141713025Y-98965716D02*
X141674930Y-98917335D01*
X142436835Y-97998096D02*
X142970169Y-97998096D01*
X142970169Y-97998096D02*
X142627311Y-99014096D01*
X146900952Y-91019445D02*
X146977142Y-91019445D01*
X146977142Y-91019445D02*
X147053333Y-91067826D01*
X147053333Y-91067826D02*
X147091428Y-91116207D01*
X147091428Y-91116207D02*
X147129523Y-91212969D01*
X147129523Y-91212969D02*
X147167618Y-91406493D01*
X147167618Y-91406493D02*
X147167618Y-91648398D01*
X147167618Y-91648398D02*
X147129523Y-91841922D01*
X147129523Y-91841922D02*
X147091428Y-91938684D01*
X147091428Y-91938684D02*
X147053333Y-91987065D01*
X147053333Y-91987065D02*
X146977142Y-92035445D01*
X146977142Y-92035445D02*
X146900952Y-92035445D01*
X146900952Y-92035445D02*
X146824761Y-91987065D01*
X146824761Y-91987065D02*
X146786666Y-91938684D01*
X146786666Y-91938684D02*
X146748571Y-91841922D01*
X146748571Y-91841922D02*
X146710475Y-91648398D01*
X146710475Y-91648398D02*
X146710475Y-91406493D01*
X146710475Y-91406493D02*
X146748571Y-91212969D01*
X146748571Y-91212969D02*
X146786666Y-91116207D01*
X146786666Y-91116207D02*
X146824761Y-91067826D01*
X146824761Y-91067826D02*
X146900952Y-91019445D01*
X147929523Y-92035445D02*
X147472380Y-92035445D01*
X147700952Y-92035445D02*
X147700952Y-91019445D01*
X147700952Y-91019445D02*
X147624761Y-91164588D01*
X147624761Y-91164588D02*
X147548571Y-91261350D01*
X147548571Y-91261350D02*
X147472380Y-91309731D01*
D11*
X55575200Y-94996000D02*
X57404000Y-94996000D01*
X57404000Y-96520000D01*
X55575200Y-96520000D01*
X55575200Y-94996000D01*
X55981600Y-110998000D02*
X57810400Y-110998000D01*
X57810400Y-112522000D01*
X55981600Y-112522000D01*
X55981600Y-110998000D01*
D12*
X86188779Y-73910866D02*
X86950684Y-73910866D01*
X86569731Y-74291819D02*
X86569731Y-73529914D01*
D10*
X138920758Y-110191484D02*
X139254091Y-110191484D01*
X139396948Y-110715294D02*
X138920758Y-110715294D01*
X138920758Y-110715294D02*
X138920758Y-109715294D01*
X138920758Y-109715294D02*
X139396948Y-109715294D01*
X139825520Y-110715294D02*
X139825520Y-109715294D01*
X139825520Y-109715294D02*
X140396948Y-110715294D01*
X140396948Y-110715294D02*
X140396948Y-109715294D01*
X52424167Y-81721313D02*
X52328929Y-81673694D01*
X52328929Y-81673694D02*
X52186072Y-81673694D01*
X52186072Y-81673694D02*
X52043215Y-81721313D01*
X52043215Y-81721313D02*
X51947977Y-81816551D01*
X51947977Y-81816551D02*
X51900358Y-81911789D01*
X51900358Y-81911789D02*
X51852739Y-82102265D01*
X51852739Y-82102265D02*
X51852739Y-82245122D01*
X51852739Y-82245122D02*
X51900358Y-82435598D01*
X51900358Y-82435598D02*
X51947977Y-82530836D01*
X51947977Y-82530836D02*
X52043215Y-82626075D01*
X52043215Y-82626075D02*
X52186072Y-82673694D01*
X52186072Y-82673694D02*
X52281310Y-82673694D01*
X52281310Y-82673694D02*
X52424167Y-82626075D01*
X52424167Y-82626075D02*
X52471786Y-82578455D01*
X52471786Y-82578455D02*
X52471786Y-82245122D01*
X52471786Y-82245122D02*
X52281310Y-82245122D01*
X52900358Y-82673694D02*
X52900358Y-81673694D01*
X52900358Y-81673694D02*
X53471786Y-82673694D01*
X53471786Y-82673694D02*
X53471786Y-81673694D01*
X53947977Y-82673694D02*
X53947977Y-81673694D01*
X53947977Y-81673694D02*
X54186072Y-81673694D01*
X54186072Y-81673694D02*
X54328929Y-81721313D01*
X54328929Y-81721313D02*
X54424167Y-81816551D01*
X54424167Y-81816551D02*
X54471786Y-81911789D01*
X54471786Y-81911789D02*
X54519405Y-82102265D01*
X54519405Y-82102265D02*
X54519405Y-82245122D01*
X54519405Y-82245122D02*
X54471786Y-82435598D01*
X54471786Y-82435598D02*
X54424167Y-82530836D01*
X54424167Y-82530836D02*
X54328929Y-82626075D01*
X54328929Y-82626075D02*
X54186072Y-82673694D01*
X54186072Y-82673694D02*
X53947977Y-82673694D01*
X67400720Y-81267294D02*
X68019767Y-81267294D01*
X68019767Y-81267294D02*
X67686434Y-81648246D01*
X67686434Y-81648246D02*
X67829291Y-81648246D01*
X67829291Y-81648246D02*
X67924529Y-81695865D01*
X67924529Y-81695865D02*
X67972148Y-81743484D01*
X67972148Y-81743484D02*
X68019767Y-81838722D01*
X68019767Y-81838722D02*
X68019767Y-82076817D01*
X68019767Y-82076817D02*
X67972148Y-82172055D01*
X67972148Y-82172055D02*
X67924529Y-82219675D01*
X67924529Y-82219675D02*
X67829291Y-82267294D01*
X67829291Y-82267294D02*
X67543577Y-82267294D01*
X67543577Y-82267294D02*
X67448339Y-82219675D01*
X67448339Y-82219675D02*
X67400720Y-82172055D01*
X68353101Y-81600627D02*
X68591196Y-82267294D01*
X68591196Y-82267294D02*
X68829291Y-81600627D01*
X69115006Y-81267294D02*
X69734053Y-81267294D01*
X69734053Y-81267294D02*
X69400720Y-81648246D01*
X69400720Y-81648246D02*
X69543577Y-81648246D01*
X69543577Y-81648246D02*
X69638815Y-81695865D01*
X69638815Y-81695865D02*
X69686434Y-81743484D01*
X69686434Y-81743484D02*
X69734053Y-81838722D01*
X69734053Y-81838722D02*
X69734053Y-82076817D01*
X69734053Y-82076817D02*
X69686434Y-82172055D01*
X69686434Y-82172055D02*
X69638815Y-82219675D01*
X69638815Y-82219675D02*
X69543577Y-82267294D01*
X69543577Y-82267294D02*
X69257863Y-82267294D01*
X69257863Y-82267294D02*
X69162625Y-82219675D01*
X69162625Y-82219675D02*
X69115006Y-82172055D01*
X137768167Y-104073313D02*
X137672929Y-104025694D01*
X137672929Y-104025694D02*
X137530072Y-104025694D01*
X137530072Y-104025694D02*
X137387215Y-104073313D01*
X137387215Y-104073313D02*
X137291977Y-104168551D01*
X137291977Y-104168551D02*
X137244358Y-104263789D01*
X137244358Y-104263789D02*
X137196739Y-104454265D01*
X137196739Y-104454265D02*
X137196739Y-104597122D01*
X137196739Y-104597122D02*
X137244358Y-104787598D01*
X137244358Y-104787598D02*
X137291977Y-104882836D01*
X137291977Y-104882836D02*
X137387215Y-104978075D01*
X137387215Y-104978075D02*
X137530072Y-105025694D01*
X137530072Y-105025694D02*
X137625310Y-105025694D01*
X137625310Y-105025694D02*
X137768167Y-104978075D01*
X137768167Y-104978075D02*
X137815786Y-104930455D01*
X137815786Y-104930455D02*
X137815786Y-104597122D01*
X137815786Y-104597122D02*
X137625310Y-104597122D01*
X138244358Y-105025694D02*
X138244358Y-104025694D01*
X138244358Y-104025694D02*
X138815786Y-105025694D01*
X138815786Y-105025694D02*
X138815786Y-104025694D01*
X139291977Y-105025694D02*
X139291977Y-104025694D01*
X139291977Y-104025694D02*
X139530072Y-104025694D01*
X139530072Y-104025694D02*
X139672929Y-104073313D01*
X139672929Y-104073313D02*
X139768167Y-104168551D01*
X139768167Y-104168551D02*
X139815786Y-104263789D01*
X139815786Y-104263789D02*
X139863405Y-104454265D01*
X139863405Y-104454265D02*
X139863405Y-104597122D01*
X139863405Y-104597122D02*
X139815786Y-104787598D01*
X139815786Y-104787598D02*
X139768167Y-104882836D01*
X139768167Y-104882836D02*
X139672929Y-104978075D01*
X139672929Y-104978075D02*
X139530072Y-105025694D01*
X139530072Y-105025694D02*
X139291977Y-105025694D01*
X57250167Y-81721313D02*
X57154929Y-81673694D01*
X57154929Y-81673694D02*
X57012072Y-81673694D01*
X57012072Y-81673694D02*
X56869215Y-81721313D01*
X56869215Y-81721313D02*
X56773977Y-81816551D01*
X56773977Y-81816551D02*
X56726358Y-81911789D01*
X56726358Y-81911789D02*
X56678739Y-82102265D01*
X56678739Y-82102265D02*
X56678739Y-82245122D01*
X56678739Y-82245122D02*
X56726358Y-82435598D01*
X56726358Y-82435598D02*
X56773977Y-82530836D01*
X56773977Y-82530836D02*
X56869215Y-82626075D01*
X56869215Y-82626075D02*
X57012072Y-82673694D01*
X57012072Y-82673694D02*
X57107310Y-82673694D01*
X57107310Y-82673694D02*
X57250167Y-82626075D01*
X57250167Y-82626075D02*
X57297786Y-82578455D01*
X57297786Y-82578455D02*
X57297786Y-82245122D01*
X57297786Y-82245122D02*
X57107310Y-82245122D01*
X57726358Y-82673694D02*
X57726358Y-81673694D01*
X57726358Y-81673694D02*
X58297786Y-82673694D01*
X58297786Y-82673694D02*
X58297786Y-81673694D01*
X58773977Y-82673694D02*
X58773977Y-81673694D01*
X58773977Y-81673694D02*
X59012072Y-81673694D01*
X59012072Y-81673694D02*
X59154929Y-81721313D01*
X59154929Y-81721313D02*
X59250167Y-81816551D01*
X59250167Y-81816551D02*
X59297786Y-81911789D01*
X59297786Y-81911789D02*
X59345405Y-82102265D01*
X59345405Y-82102265D02*
X59345405Y-82245122D01*
X59345405Y-82245122D02*
X59297786Y-82435598D01*
X59297786Y-82435598D02*
X59250167Y-82530836D01*
X59250167Y-82530836D02*
X59154929Y-82626075D01*
X59154929Y-82626075D02*
X59012072Y-82673694D01*
X59012072Y-82673694D02*
X58773977Y-82673694D01*
X45882020Y-107478739D02*
X45882020Y-107954929D01*
X45596305Y-107383501D02*
X46596305Y-107716834D01*
X46596305Y-107716834D02*
X45596305Y-108050167D01*
X45596305Y-108907310D02*
X45596305Y-108335882D01*
X45596305Y-108621596D02*
X46596305Y-108621596D01*
X46596305Y-108621596D02*
X46453448Y-108526358D01*
X46453448Y-108526358D02*
X46358210Y-108431120D01*
X46358210Y-108431120D02*
X46310591Y-108335882D01*
X113214132Y-86475660D02*
X113166513Y-86428041D01*
X113166513Y-86428041D02*
X113118894Y-86332803D01*
X113118894Y-86332803D02*
X113118894Y-86094708D01*
X113118894Y-86094708D02*
X113166513Y-85999470D01*
X113166513Y-85999470D02*
X113214132Y-85951851D01*
X113214132Y-85951851D02*
X113309370Y-85904232D01*
X113309370Y-85904232D02*
X113404608Y-85904232D01*
X113404608Y-85904232D02*
X113547465Y-85951851D01*
X113547465Y-85951851D02*
X114118894Y-86523279D01*
X114118894Y-86523279D02*
X114118894Y-85904232D01*
X113214132Y-85523279D02*
X113166513Y-85475660D01*
X113166513Y-85475660D02*
X113118894Y-85380422D01*
X113118894Y-85380422D02*
X113118894Y-85142327D01*
X113118894Y-85142327D02*
X113166513Y-85047089D01*
X113166513Y-85047089D02*
X113214132Y-84999470D01*
X113214132Y-84999470D02*
X113309370Y-84951851D01*
X113309370Y-84951851D02*
X113404608Y-84951851D01*
X113404608Y-84951851D02*
X113547465Y-84999470D01*
X113547465Y-84999470D02*
X114118894Y-85570898D01*
X114118894Y-85570898D02*
X114118894Y-84951851D01*
X113452227Y-84094708D02*
X114118894Y-84094708D01*
X113452227Y-84523279D02*
X113976036Y-84523279D01*
X113976036Y-84523279D02*
X114071275Y-84475660D01*
X114071275Y-84475660D02*
X114118894Y-84380422D01*
X114118894Y-84380422D02*
X114118894Y-84237565D01*
X114118894Y-84237565D02*
X114071275Y-84142327D01*
X114071275Y-84142327D02*
X114023655Y-84094708D01*
X113595084Y-83285184D02*
X113595084Y-83618517D01*
X114118894Y-83618517D02*
X113118894Y-83618517D01*
X113118894Y-83618517D02*
X113118894Y-83142327D01*
X141042894Y-78335032D02*
X141042894Y-78906460D01*
X141042894Y-78620746D02*
X140042894Y-78620746D01*
X140042894Y-78620746D02*
X140185751Y-78715984D01*
X140185751Y-78715984D02*
X140280989Y-78811222D01*
X140280989Y-78811222D02*
X140328608Y-78906460D01*
X140042894Y-77715984D02*
X140042894Y-77620746D01*
X140042894Y-77620746D02*
X140090513Y-77525508D01*
X140090513Y-77525508D02*
X140138132Y-77477889D01*
X140138132Y-77477889D02*
X140233370Y-77430270D01*
X140233370Y-77430270D02*
X140423846Y-77382651D01*
X140423846Y-77382651D02*
X140661941Y-77382651D01*
X140661941Y-77382651D02*
X140852417Y-77430270D01*
X140852417Y-77430270D02*
X140947655Y-77477889D01*
X140947655Y-77477889D02*
X140995275Y-77525508D01*
X140995275Y-77525508D02*
X141042894Y-77620746D01*
X141042894Y-77620746D02*
X141042894Y-77715984D01*
X141042894Y-77715984D02*
X140995275Y-77811222D01*
X140995275Y-77811222D02*
X140947655Y-77858841D01*
X140947655Y-77858841D02*
X140852417Y-77906460D01*
X140852417Y-77906460D02*
X140661941Y-77954079D01*
X140661941Y-77954079D02*
X140423846Y-77954079D01*
X140423846Y-77954079D02*
X140233370Y-77906460D01*
X140233370Y-77906460D02*
X140138132Y-77858841D01*
X140138132Y-77858841D02*
X140090513Y-77811222D01*
X140090513Y-77811222D02*
X140042894Y-77715984D01*
X140042894Y-76763603D02*
X140042894Y-76668365D01*
X140042894Y-76668365D02*
X140090513Y-76573127D01*
X140090513Y-76573127D02*
X140138132Y-76525508D01*
X140138132Y-76525508D02*
X140233370Y-76477889D01*
X140233370Y-76477889D02*
X140423846Y-76430270D01*
X140423846Y-76430270D02*
X140661941Y-76430270D01*
X140661941Y-76430270D02*
X140852417Y-76477889D01*
X140852417Y-76477889D02*
X140947655Y-76525508D01*
X140947655Y-76525508D02*
X140995275Y-76573127D01*
X140995275Y-76573127D02*
X141042894Y-76668365D01*
X141042894Y-76668365D02*
X141042894Y-76763603D01*
X141042894Y-76763603D02*
X140995275Y-76858841D01*
X140995275Y-76858841D02*
X140947655Y-76906460D01*
X140947655Y-76906460D02*
X140852417Y-76954079D01*
X140852417Y-76954079D02*
X140661941Y-77001698D01*
X140661941Y-77001698D02*
X140423846Y-77001698D01*
X140423846Y-77001698D02*
X140233370Y-76954079D01*
X140233370Y-76954079D02*
X140138132Y-76906460D01*
X140138132Y-76906460D02*
X140090513Y-76858841D01*
X140090513Y-76858841D02*
X140042894Y-76763603D01*
X140376227Y-76001698D02*
X141042894Y-76001698D01*
X140471465Y-76001698D02*
X140423846Y-75954079D01*
X140423846Y-75954079D02*
X140376227Y-75858841D01*
X140376227Y-75858841D02*
X140376227Y-75715984D01*
X140376227Y-75715984D02*
X140423846Y-75620746D01*
X140423846Y-75620746D02*
X140519084Y-75573127D01*
X140519084Y-75573127D02*
X141042894Y-75573127D01*
X140519084Y-74763603D02*
X140519084Y-75096936D01*
X141042894Y-75096936D02*
X140042894Y-75096936D01*
X140042894Y-75096936D02*
X140042894Y-74620746D01*
X126338167Y-109712113D02*
X126242929Y-109664494D01*
X126242929Y-109664494D02*
X126100072Y-109664494D01*
X126100072Y-109664494D02*
X125957215Y-109712113D01*
X125957215Y-109712113D02*
X125861977Y-109807351D01*
X125861977Y-109807351D02*
X125814358Y-109902589D01*
X125814358Y-109902589D02*
X125766739Y-110093065D01*
X125766739Y-110093065D02*
X125766739Y-110235922D01*
X125766739Y-110235922D02*
X125814358Y-110426398D01*
X125814358Y-110426398D02*
X125861977Y-110521636D01*
X125861977Y-110521636D02*
X125957215Y-110616875D01*
X125957215Y-110616875D02*
X126100072Y-110664494D01*
X126100072Y-110664494D02*
X126195310Y-110664494D01*
X126195310Y-110664494D02*
X126338167Y-110616875D01*
X126338167Y-110616875D02*
X126385786Y-110569255D01*
X126385786Y-110569255D02*
X126385786Y-110235922D01*
X126385786Y-110235922D02*
X126195310Y-110235922D01*
X126814358Y-110664494D02*
X126814358Y-109664494D01*
X126814358Y-109664494D02*
X127385786Y-110664494D01*
X127385786Y-110664494D02*
X127385786Y-109664494D01*
X127861977Y-110664494D02*
X127861977Y-109664494D01*
X127861977Y-109664494D02*
X128100072Y-109664494D01*
X128100072Y-109664494D02*
X128242929Y-109712113D01*
X128242929Y-109712113D02*
X128338167Y-109807351D01*
X128338167Y-109807351D02*
X128385786Y-109902589D01*
X128385786Y-109902589D02*
X128433405Y-110093065D01*
X128433405Y-110093065D02*
X128433405Y-110235922D01*
X128433405Y-110235922D02*
X128385786Y-110426398D01*
X128385786Y-110426398D02*
X128338167Y-110521636D01*
X128338167Y-110521636D02*
X128242929Y-110616875D01*
X128242929Y-110616875D02*
X128100072Y-110664494D01*
X128100072Y-110664494D02*
X127861977Y-110664494D01*
X46120115Y-87031691D02*
X46072496Y-87174548D01*
X46072496Y-87174548D02*
X46024877Y-87222167D01*
X46024877Y-87222167D02*
X45929639Y-87269786D01*
X45929639Y-87269786D02*
X45786782Y-87269786D01*
X45786782Y-87269786D02*
X45691544Y-87222167D01*
X45691544Y-87222167D02*
X45643925Y-87174548D01*
X45643925Y-87174548D02*
X45596305Y-87079310D01*
X45596305Y-87079310D02*
X45596305Y-86698358D01*
X45596305Y-86698358D02*
X46596305Y-86698358D01*
X46596305Y-86698358D02*
X46596305Y-87031691D01*
X46596305Y-87031691D02*
X46548686Y-87126929D01*
X46548686Y-87126929D02*
X46501067Y-87174548D01*
X46501067Y-87174548D02*
X46405829Y-87222167D01*
X46405829Y-87222167D02*
X46310591Y-87222167D01*
X46310591Y-87222167D02*
X46215353Y-87174548D01*
X46215353Y-87174548D02*
X46167734Y-87126929D01*
X46167734Y-87126929D02*
X46120115Y-87031691D01*
X46120115Y-87031691D02*
X46120115Y-86698358D01*
X46501067Y-87650739D02*
X46548686Y-87698358D01*
X46548686Y-87698358D02*
X46596305Y-87793596D01*
X46596305Y-87793596D02*
X46596305Y-88031691D01*
X46596305Y-88031691D02*
X46548686Y-88126929D01*
X46548686Y-88126929D02*
X46501067Y-88174548D01*
X46501067Y-88174548D02*
X46405829Y-88222167D01*
X46405829Y-88222167D02*
X46310591Y-88222167D01*
X46310591Y-88222167D02*
X46167734Y-88174548D01*
X46167734Y-88174548D02*
X45596305Y-87603120D01*
X45596305Y-87603120D02*
X45596305Y-88222167D01*
X90917939Y-101834932D02*
X90965558Y-101787313D01*
X90965558Y-101787313D02*
X91060796Y-101739694D01*
X91060796Y-101739694D02*
X91298891Y-101739694D01*
X91298891Y-101739694D02*
X91394129Y-101787313D01*
X91394129Y-101787313D02*
X91441748Y-101834932D01*
X91441748Y-101834932D02*
X91489367Y-101930170D01*
X91489367Y-101930170D02*
X91489367Y-102025408D01*
X91489367Y-102025408D02*
X91441748Y-102168265D01*
X91441748Y-102168265D02*
X90870320Y-102739694D01*
X90870320Y-102739694D02*
X91489367Y-102739694D01*
X91917939Y-102644455D02*
X91965558Y-102692075D01*
X91965558Y-102692075D02*
X91917939Y-102739694D01*
X91917939Y-102739694D02*
X91870320Y-102692075D01*
X91870320Y-102692075D02*
X91917939Y-102644455D01*
X91917939Y-102644455D02*
X91917939Y-102739694D01*
X92346510Y-101834932D02*
X92394129Y-101787313D01*
X92394129Y-101787313D02*
X92489367Y-101739694D01*
X92489367Y-101739694D02*
X92727462Y-101739694D01*
X92727462Y-101739694D02*
X92822700Y-101787313D01*
X92822700Y-101787313D02*
X92870319Y-101834932D01*
X92870319Y-101834932D02*
X92917938Y-101930170D01*
X92917938Y-101930170D02*
X92917938Y-102025408D01*
X92917938Y-102025408D02*
X92870319Y-102168265D01*
X92870319Y-102168265D02*
X92298891Y-102739694D01*
X92298891Y-102739694D02*
X92917938Y-102739694D01*
X93775081Y-102073027D02*
X93775081Y-102739694D01*
X93346510Y-102073027D02*
X93346510Y-102596836D01*
X93346510Y-102596836D02*
X93394129Y-102692075D01*
X93394129Y-102692075D02*
X93489367Y-102739694D01*
X93489367Y-102739694D02*
X93632224Y-102739694D01*
X93632224Y-102739694D02*
X93727462Y-102692075D01*
X93727462Y-102692075D02*
X93775081Y-102644455D01*
X94584605Y-102215884D02*
X94251272Y-102215884D01*
X94251272Y-102739694D02*
X94251272Y-101739694D01*
X94251272Y-101739694D02*
X94727462Y-101739694D01*
X76780894Y-99620232D02*
X76780894Y-100191660D01*
X76780894Y-99905946D02*
X75780894Y-99905946D01*
X75780894Y-99905946D02*
X75923751Y-100001184D01*
X75923751Y-100001184D02*
X76018989Y-100096422D01*
X76018989Y-100096422D02*
X76066608Y-100191660D01*
X75780894Y-99001184D02*
X75780894Y-98905946D01*
X75780894Y-98905946D02*
X75828513Y-98810708D01*
X75828513Y-98810708D02*
X75876132Y-98763089D01*
X75876132Y-98763089D02*
X75971370Y-98715470D01*
X75971370Y-98715470D02*
X76161846Y-98667851D01*
X76161846Y-98667851D02*
X76399941Y-98667851D01*
X76399941Y-98667851D02*
X76590417Y-98715470D01*
X76590417Y-98715470D02*
X76685655Y-98763089D01*
X76685655Y-98763089D02*
X76733275Y-98810708D01*
X76733275Y-98810708D02*
X76780894Y-98905946D01*
X76780894Y-98905946D02*
X76780894Y-99001184D01*
X76780894Y-99001184D02*
X76733275Y-99096422D01*
X76733275Y-99096422D02*
X76685655Y-99144041D01*
X76685655Y-99144041D02*
X76590417Y-99191660D01*
X76590417Y-99191660D02*
X76399941Y-99239279D01*
X76399941Y-99239279D02*
X76161846Y-99239279D01*
X76161846Y-99239279D02*
X75971370Y-99191660D01*
X75971370Y-99191660D02*
X75876132Y-99144041D01*
X75876132Y-99144041D02*
X75828513Y-99096422D01*
X75828513Y-99096422D02*
X75780894Y-99001184D01*
X75780894Y-98048803D02*
X75780894Y-97953565D01*
X75780894Y-97953565D02*
X75828513Y-97858327D01*
X75828513Y-97858327D02*
X75876132Y-97810708D01*
X75876132Y-97810708D02*
X75971370Y-97763089D01*
X75971370Y-97763089D02*
X76161846Y-97715470D01*
X76161846Y-97715470D02*
X76399941Y-97715470D01*
X76399941Y-97715470D02*
X76590417Y-97763089D01*
X76590417Y-97763089D02*
X76685655Y-97810708D01*
X76685655Y-97810708D02*
X76733275Y-97858327D01*
X76733275Y-97858327D02*
X76780894Y-97953565D01*
X76780894Y-97953565D02*
X76780894Y-98048803D01*
X76780894Y-98048803D02*
X76733275Y-98144041D01*
X76733275Y-98144041D02*
X76685655Y-98191660D01*
X76685655Y-98191660D02*
X76590417Y-98239279D01*
X76590417Y-98239279D02*
X76399941Y-98286898D01*
X76399941Y-98286898D02*
X76161846Y-98286898D01*
X76161846Y-98286898D02*
X75971370Y-98239279D01*
X75971370Y-98239279D02*
X75876132Y-98191660D01*
X75876132Y-98191660D02*
X75828513Y-98144041D01*
X75828513Y-98144041D02*
X75780894Y-98048803D01*
X76114227Y-96858327D02*
X76780894Y-96858327D01*
X76114227Y-97286898D02*
X76638036Y-97286898D01*
X76638036Y-97286898D02*
X76733275Y-97239279D01*
X76733275Y-97239279D02*
X76780894Y-97144041D01*
X76780894Y-97144041D02*
X76780894Y-97001184D01*
X76780894Y-97001184D02*
X76733275Y-96905946D01*
X76733275Y-96905946D02*
X76685655Y-96858327D01*
X76257084Y-96048803D02*
X76257084Y-96382136D01*
X76780894Y-96382136D02*
X75780894Y-96382136D01*
X75780894Y-96382136D02*
X75780894Y-95905946D01*
X103481348Y-111274094D02*
X103005158Y-111274094D01*
X103005158Y-111274094D02*
X103005158Y-110274094D01*
X103814682Y-110750284D02*
X104148015Y-110750284D01*
X104290872Y-111274094D02*
X103814682Y-111274094D01*
X103814682Y-111274094D02*
X103814682Y-110274094D01*
X103814682Y-110274094D02*
X104290872Y-110274094D01*
X104719444Y-111274094D02*
X104719444Y-110274094D01*
X104719444Y-110274094D02*
X105290872Y-111274094D01*
X105290872Y-111274094D02*
X105290872Y-110274094D01*
X90778167Y-83435694D02*
X90206739Y-83435694D01*
X90492453Y-83435694D02*
X90492453Y-82435694D01*
X90492453Y-82435694D02*
X90397215Y-82578551D01*
X90397215Y-82578551D02*
X90301977Y-82673789D01*
X90301977Y-82673789D02*
X90206739Y-82721408D01*
X91397215Y-82435694D02*
X91492453Y-82435694D01*
X91492453Y-82435694D02*
X91587691Y-82483313D01*
X91587691Y-82483313D02*
X91635310Y-82530932D01*
X91635310Y-82530932D02*
X91682929Y-82626170D01*
X91682929Y-82626170D02*
X91730548Y-82816646D01*
X91730548Y-82816646D02*
X91730548Y-83054741D01*
X91730548Y-83054741D02*
X91682929Y-83245217D01*
X91682929Y-83245217D02*
X91635310Y-83340455D01*
X91635310Y-83340455D02*
X91587691Y-83388075D01*
X91587691Y-83388075D02*
X91492453Y-83435694D01*
X91492453Y-83435694D02*
X91397215Y-83435694D01*
X91397215Y-83435694D02*
X91301977Y-83388075D01*
X91301977Y-83388075D02*
X91254358Y-83340455D01*
X91254358Y-83340455D02*
X91206739Y-83245217D01*
X91206739Y-83245217D02*
X91159120Y-83054741D01*
X91159120Y-83054741D02*
X91159120Y-82816646D01*
X91159120Y-82816646D02*
X91206739Y-82626170D01*
X91206739Y-82626170D02*
X91254358Y-82530932D01*
X91254358Y-82530932D02*
X91301977Y-82483313D01*
X91301977Y-82483313D02*
X91397215Y-82435694D01*
X92587691Y-82769027D02*
X92587691Y-83435694D01*
X92159120Y-82769027D02*
X92159120Y-83292836D01*
X92159120Y-83292836D02*
X92206739Y-83388075D01*
X92206739Y-83388075D02*
X92301977Y-83435694D01*
X92301977Y-83435694D02*
X92444834Y-83435694D01*
X92444834Y-83435694D02*
X92540072Y-83388075D01*
X92540072Y-83388075D02*
X92587691Y-83340455D01*
X93397215Y-82911884D02*
X93063882Y-82911884D01*
X93063882Y-83435694D02*
X93063882Y-82435694D01*
X93063882Y-82435694D02*
X93540072Y-82435694D01*
X45882020Y-90714739D02*
X45882020Y-91190929D01*
X45596305Y-90619501D02*
X46596305Y-90952834D01*
X46596305Y-90952834D02*
X45596305Y-91286167D01*
X45596305Y-92143310D02*
X45596305Y-91571882D01*
X45596305Y-91857596D02*
X46596305Y-91857596D01*
X46596305Y-91857596D02*
X46453448Y-91762358D01*
X46453448Y-91762358D02*
X46358210Y-91667120D01*
X46358210Y-91667120D02*
X46310591Y-91571882D01*
X129268758Y-110562894D02*
X129268758Y-109562894D01*
X129268758Y-110039084D02*
X129840186Y-110039084D01*
X129840186Y-110562894D02*
X129840186Y-109562894D01*
X130744948Y-110562894D02*
X130744948Y-110039084D01*
X130744948Y-110039084D02*
X130697329Y-109943846D01*
X130697329Y-109943846D02*
X130602091Y-109896227D01*
X130602091Y-109896227D02*
X130411615Y-109896227D01*
X130411615Y-109896227D02*
X130316377Y-109943846D01*
X130744948Y-110515275D02*
X130649710Y-110562894D01*
X130649710Y-110562894D02*
X130411615Y-110562894D01*
X130411615Y-110562894D02*
X130316377Y-110515275D01*
X130316377Y-110515275D02*
X130268758Y-110420036D01*
X130268758Y-110420036D02*
X130268758Y-110324798D01*
X130268758Y-110324798D02*
X130316377Y-110229560D01*
X130316377Y-110229560D02*
X130411615Y-110181941D01*
X130411615Y-110181941D02*
X130649710Y-110181941D01*
X130649710Y-110181941D02*
X130744948Y-110134322D01*
X131363996Y-110562894D02*
X131268758Y-110515275D01*
X131268758Y-110515275D02*
X131221139Y-110420036D01*
X131221139Y-110420036D02*
X131221139Y-109562894D01*
X131887806Y-110562894D02*
X131792568Y-110515275D01*
X131792568Y-110515275D02*
X131744949Y-110420036D01*
X131744949Y-110420036D02*
X131744949Y-109562894D01*
X79348167Y-86991694D02*
X78776739Y-86991694D01*
X79062453Y-86991694D02*
X79062453Y-85991694D01*
X79062453Y-85991694D02*
X78967215Y-86134551D01*
X78967215Y-86134551D02*
X78871977Y-86229789D01*
X78871977Y-86229789D02*
X78776739Y-86277408D01*
X79967215Y-85991694D02*
X80062453Y-85991694D01*
X80062453Y-85991694D02*
X80157691Y-86039313D01*
X80157691Y-86039313D02*
X80205310Y-86086932D01*
X80205310Y-86086932D02*
X80252929Y-86182170D01*
X80252929Y-86182170D02*
X80300548Y-86372646D01*
X80300548Y-86372646D02*
X80300548Y-86610741D01*
X80300548Y-86610741D02*
X80252929Y-86801217D01*
X80252929Y-86801217D02*
X80205310Y-86896455D01*
X80205310Y-86896455D02*
X80157691Y-86944075D01*
X80157691Y-86944075D02*
X80062453Y-86991694D01*
X80062453Y-86991694D02*
X79967215Y-86991694D01*
X79967215Y-86991694D02*
X79871977Y-86944075D01*
X79871977Y-86944075D02*
X79824358Y-86896455D01*
X79824358Y-86896455D02*
X79776739Y-86801217D01*
X79776739Y-86801217D02*
X79729120Y-86610741D01*
X79729120Y-86610741D02*
X79729120Y-86372646D01*
X79729120Y-86372646D02*
X79776739Y-86182170D01*
X79776739Y-86182170D02*
X79824358Y-86086932D01*
X79824358Y-86086932D02*
X79871977Y-86039313D01*
X79871977Y-86039313D02*
X79967215Y-85991694D01*
X80919596Y-85991694D02*
X81014834Y-85991694D01*
X81014834Y-85991694D02*
X81110072Y-86039313D01*
X81110072Y-86039313D02*
X81157691Y-86086932D01*
X81157691Y-86086932D02*
X81205310Y-86182170D01*
X81205310Y-86182170D02*
X81252929Y-86372646D01*
X81252929Y-86372646D02*
X81252929Y-86610741D01*
X81252929Y-86610741D02*
X81205310Y-86801217D01*
X81205310Y-86801217D02*
X81157691Y-86896455D01*
X81157691Y-86896455D02*
X81110072Y-86944075D01*
X81110072Y-86944075D02*
X81014834Y-86991694D01*
X81014834Y-86991694D02*
X80919596Y-86991694D01*
X80919596Y-86991694D02*
X80824358Y-86944075D01*
X80824358Y-86944075D02*
X80776739Y-86896455D01*
X80776739Y-86896455D02*
X80729120Y-86801217D01*
X80729120Y-86801217D02*
X80681501Y-86610741D01*
X80681501Y-86610741D02*
X80681501Y-86372646D01*
X80681501Y-86372646D02*
X80729120Y-86182170D01*
X80729120Y-86182170D02*
X80776739Y-86086932D01*
X80776739Y-86086932D02*
X80824358Y-86039313D01*
X80824358Y-86039313D02*
X80919596Y-85991694D01*
X82110072Y-86325027D02*
X82110072Y-86991694D01*
X81681501Y-86325027D02*
X81681501Y-86848836D01*
X81681501Y-86848836D02*
X81729120Y-86944075D01*
X81729120Y-86944075D02*
X81824358Y-86991694D01*
X81824358Y-86991694D02*
X81967215Y-86991694D01*
X81967215Y-86991694D02*
X82062453Y-86944075D01*
X82062453Y-86944075D02*
X82110072Y-86896455D01*
X82919596Y-86467884D02*
X82586263Y-86467884D01*
X82586263Y-86991694D02*
X82586263Y-85991694D01*
X82586263Y-85991694D02*
X83062453Y-85991694D01*
X49731767Y-97710494D02*
X49160339Y-97710494D01*
X49446053Y-97710494D02*
X49446053Y-96710494D01*
X49446053Y-96710494D02*
X49350815Y-96853351D01*
X49350815Y-96853351D02*
X49255577Y-96948589D01*
X49255577Y-96948589D02*
X49160339Y-96996208D01*
X50350815Y-96710494D02*
X50446053Y-96710494D01*
X50446053Y-96710494D02*
X50541291Y-96758113D01*
X50541291Y-96758113D02*
X50588910Y-96805732D01*
X50588910Y-96805732D02*
X50636529Y-96900970D01*
X50636529Y-96900970D02*
X50684148Y-97091446D01*
X50684148Y-97091446D02*
X50684148Y-97329541D01*
X50684148Y-97329541D02*
X50636529Y-97520017D01*
X50636529Y-97520017D02*
X50588910Y-97615255D01*
X50588910Y-97615255D02*
X50541291Y-97662875D01*
X50541291Y-97662875D02*
X50446053Y-97710494D01*
X50446053Y-97710494D02*
X50350815Y-97710494D01*
X50350815Y-97710494D02*
X50255577Y-97662875D01*
X50255577Y-97662875D02*
X50207958Y-97615255D01*
X50207958Y-97615255D02*
X50160339Y-97520017D01*
X50160339Y-97520017D02*
X50112720Y-97329541D01*
X50112720Y-97329541D02*
X50112720Y-97091446D01*
X50112720Y-97091446D02*
X50160339Y-96900970D01*
X50160339Y-96900970D02*
X50207958Y-96805732D01*
X50207958Y-96805732D02*
X50255577Y-96758113D01*
X50255577Y-96758113D02*
X50350815Y-96710494D01*
X51303196Y-96710494D02*
X51398434Y-96710494D01*
X51398434Y-96710494D02*
X51493672Y-96758113D01*
X51493672Y-96758113D02*
X51541291Y-96805732D01*
X51541291Y-96805732D02*
X51588910Y-96900970D01*
X51588910Y-96900970D02*
X51636529Y-97091446D01*
X51636529Y-97091446D02*
X51636529Y-97329541D01*
X51636529Y-97329541D02*
X51588910Y-97520017D01*
X51588910Y-97520017D02*
X51541291Y-97615255D01*
X51541291Y-97615255D02*
X51493672Y-97662875D01*
X51493672Y-97662875D02*
X51398434Y-97710494D01*
X51398434Y-97710494D02*
X51303196Y-97710494D01*
X51303196Y-97710494D02*
X51207958Y-97662875D01*
X51207958Y-97662875D02*
X51160339Y-97615255D01*
X51160339Y-97615255D02*
X51112720Y-97520017D01*
X51112720Y-97520017D02*
X51065101Y-97329541D01*
X51065101Y-97329541D02*
X51065101Y-97091446D01*
X51065101Y-97091446D02*
X51112720Y-96900970D01*
X51112720Y-96900970D02*
X51160339Y-96805732D01*
X51160339Y-96805732D02*
X51207958Y-96758113D01*
X51207958Y-96758113D02*
X51303196Y-96710494D01*
X52493672Y-97043827D02*
X52493672Y-97710494D01*
X52065101Y-97043827D02*
X52065101Y-97567636D01*
X52065101Y-97567636D02*
X52112720Y-97662875D01*
X52112720Y-97662875D02*
X52207958Y-97710494D01*
X52207958Y-97710494D02*
X52350815Y-97710494D01*
X52350815Y-97710494D02*
X52446053Y-97662875D01*
X52446053Y-97662875D02*
X52493672Y-97615255D01*
X53303196Y-97186684D02*
X52969863Y-97186684D01*
X52969863Y-97710494D02*
X52969863Y-96710494D01*
X52969863Y-96710494D02*
X53446053Y-96710494D01*
X137149120Y-105549694D02*
X137768167Y-105549694D01*
X137768167Y-105549694D02*
X137434834Y-105930646D01*
X137434834Y-105930646D02*
X137577691Y-105930646D01*
X137577691Y-105930646D02*
X137672929Y-105978265D01*
X137672929Y-105978265D02*
X137720548Y-106025884D01*
X137720548Y-106025884D02*
X137768167Y-106121122D01*
X137768167Y-106121122D02*
X137768167Y-106359217D01*
X137768167Y-106359217D02*
X137720548Y-106454455D01*
X137720548Y-106454455D02*
X137672929Y-106502075D01*
X137672929Y-106502075D02*
X137577691Y-106549694D01*
X137577691Y-106549694D02*
X137291977Y-106549694D01*
X137291977Y-106549694D02*
X137196739Y-106502075D01*
X137196739Y-106502075D02*
X137149120Y-106454455D01*
X138101501Y-105883027D02*
X138339596Y-106549694D01*
X138339596Y-106549694D02*
X138577691Y-105883027D01*
X138863406Y-105549694D02*
X139482453Y-105549694D01*
X139482453Y-105549694D02*
X139149120Y-105930646D01*
X139149120Y-105930646D02*
X139291977Y-105930646D01*
X139291977Y-105930646D02*
X139387215Y-105978265D01*
X139387215Y-105978265D02*
X139434834Y-106025884D01*
X139434834Y-106025884D02*
X139482453Y-106121122D01*
X139482453Y-106121122D02*
X139482453Y-106359217D01*
X139482453Y-106359217D02*
X139434834Y-106454455D01*
X139434834Y-106454455D02*
X139387215Y-106502075D01*
X139387215Y-106502075D02*
X139291977Y-106549694D01*
X139291977Y-106549694D02*
X139006263Y-106549694D01*
X139006263Y-106549694D02*
X138911025Y-106502075D01*
X138911025Y-106502075D02*
X138863406Y-106454455D01*
X103416094Y-83513451D02*
X103416094Y-83989641D01*
X103416094Y-83989641D02*
X103892284Y-84037260D01*
X103892284Y-84037260D02*
X103844665Y-83989641D01*
X103844665Y-83989641D02*
X103797046Y-83894403D01*
X103797046Y-83894403D02*
X103797046Y-83656308D01*
X103797046Y-83656308D02*
X103844665Y-83561070D01*
X103844665Y-83561070D02*
X103892284Y-83513451D01*
X103892284Y-83513451D02*
X103987522Y-83465832D01*
X103987522Y-83465832D02*
X104225617Y-83465832D01*
X104225617Y-83465832D02*
X104320855Y-83513451D01*
X104320855Y-83513451D02*
X104368475Y-83561070D01*
X104368475Y-83561070D02*
X104416094Y-83656308D01*
X104416094Y-83656308D02*
X104416094Y-83894403D01*
X104416094Y-83894403D02*
X104368475Y-83989641D01*
X104368475Y-83989641D02*
X104320855Y-84037260D01*
X104320855Y-83037260D02*
X104368475Y-82989641D01*
X104368475Y-82989641D02*
X104416094Y-83037260D01*
X104416094Y-83037260D02*
X104368475Y-83084879D01*
X104368475Y-83084879D02*
X104320855Y-83037260D01*
X104320855Y-83037260D02*
X104416094Y-83037260D01*
X104416094Y-82037261D02*
X104416094Y-82608689D01*
X104416094Y-82322975D02*
X103416094Y-82322975D01*
X103416094Y-82322975D02*
X103558951Y-82418213D01*
X103558951Y-82418213D02*
X103654189Y-82513451D01*
X103654189Y-82513451D02*
X103701808Y-82608689D01*
X104416094Y-81608689D02*
X103416094Y-81608689D01*
X104035141Y-81513451D02*
X104416094Y-81227737D01*
X103749427Y-81227737D02*
X104130379Y-81608689D01*
X140911501Y-109918494D02*
X141482929Y-109918494D01*
X141197215Y-110918494D02*
X141197215Y-109918494D01*
X142244834Y-110918494D02*
X142244834Y-110394684D01*
X142244834Y-110394684D02*
X142197215Y-110299446D01*
X142197215Y-110299446D02*
X142101977Y-110251827D01*
X142101977Y-110251827D02*
X141911501Y-110251827D01*
X141911501Y-110251827D02*
X141816263Y-110299446D01*
X142244834Y-110870875D02*
X142149596Y-110918494D01*
X142149596Y-110918494D02*
X141911501Y-110918494D01*
X141911501Y-110918494D02*
X141816263Y-110870875D01*
X141816263Y-110870875D02*
X141768644Y-110775636D01*
X141768644Y-110775636D02*
X141768644Y-110680398D01*
X141768644Y-110680398D02*
X141816263Y-110585160D01*
X141816263Y-110585160D02*
X141911501Y-110537541D01*
X141911501Y-110537541D02*
X142149596Y-110537541D01*
X142149596Y-110537541D02*
X142244834Y-110489922D01*
X143149596Y-110870875D02*
X143054358Y-110918494D01*
X143054358Y-110918494D02*
X142863882Y-110918494D01*
X142863882Y-110918494D02*
X142768644Y-110870875D01*
X142768644Y-110870875D02*
X142721025Y-110823255D01*
X142721025Y-110823255D02*
X142673406Y-110728017D01*
X142673406Y-110728017D02*
X142673406Y-110442303D01*
X142673406Y-110442303D02*
X142721025Y-110347065D01*
X142721025Y-110347065D02*
X142768644Y-110299446D01*
X142768644Y-110299446D02*
X142863882Y-110251827D01*
X142863882Y-110251827D02*
X143054358Y-110251827D01*
X143054358Y-110251827D02*
X143149596Y-110299446D01*
X143578168Y-110918494D02*
X143578168Y-109918494D01*
X144006739Y-110918494D02*
X144006739Y-110394684D01*
X144006739Y-110394684D02*
X143959120Y-110299446D01*
X143959120Y-110299446D02*
X143863882Y-110251827D01*
X143863882Y-110251827D02*
X143721025Y-110251827D01*
X143721025Y-110251827D02*
X143625787Y-110299446D01*
X143625787Y-110299446D02*
X143578168Y-110347065D01*
X46069315Y-105827691D02*
X46021696Y-105970548D01*
X46021696Y-105970548D02*
X45974077Y-106018167D01*
X45974077Y-106018167D02*
X45878839Y-106065786D01*
X45878839Y-106065786D02*
X45735982Y-106065786D01*
X45735982Y-106065786D02*
X45640744Y-106018167D01*
X45640744Y-106018167D02*
X45593125Y-105970548D01*
X45593125Y-105970548D02*
X45545505Y-105875310D01*
X45545505Y-105875310D02*
X45545505Y-105494358D01*
X45545505Y-105494358D02*
X46545505Y-105494358D01*
X46545505Y-105494358D02*
X46545505Y-105827691D01*
X46545505Y-105827691D02*
X46497886Y-105922929D01*
X46497886Y-105922929D02*
X46450267Y-105970548D01*
X46450267Y-105970548D02*
X46355029Y-106018167D01*
X46355029Y-106018167D02*
X46259791Y-106018167D01*
X46259791Y-106018167D02*
X46164553Y-105970548D01*
X46164553Y-105970548D02*
X46116934Y-105922929D01*
X46116934Y-105922929D02*
X46069315Y-105827691D01*
X46069315Y-105827691D02*
X46069315Y-105494358D01*
X45545505Y-107018167D02*
X45545505Y-106446739D01*
X45545505Y-106732453D02*
X46545505Y-106732453D01*
X46545505Y-106732453D02*
X46402648Y-106637215D01*
X46402648Y-106637215D02*
X46307410Y-106541977D01*
X46307410Y-106541977D02*
X46259791Y-106446739D01*
X77352513Y-76303032D02*
X77304894Y-76398270D01*
X77304894Y-76398270D02*
X77304894Y-76541127D01*
X77304894Y-76541127D02*
X77352513Y-76683984D01*
X77352513Y-76683984D02*
X77447751Y-76779222D01*
X77447751Y-76779222D02*
X77542989Y-76826841D01*
X77542989Y-76826841D02*
X77733465Y-76874460D01*
X77733465Y-76874460D02*
X77876322Y-76874460D01*
X77876322Y-76874460D02*
X78066798Y-76826841D01*
X78066798Y-76826841D02*
X78162036Y-76779222D01*
X78162036Y-76779222D02*
X78257275Y-76683984D01*
X78257275Y-76683984D02*
X78304894Y-76541127D01*
X78304894Y-76541127D02*
X78304894Y-76445889D01*
X78304894Y-76445889D02*
X78257275Y-76303032D01*
X78257275Y-76303032D02*
X78209655Y-76255413D01*
X78209655Y-76255413D02*
X77876322Y-76255413D01*
X77876322Y-76255413D02*
X77876322Y-76445889D01*
X78304894Y-75826841D02*
X77304894Y-75826841D01*
X77304894Y-75826841D02*
X78304894Y-75255413D01*
X78304894Y-75255413D02*
X77304894Y-75255413D01*
X78304894Y-74779222D02*
X77304894Y-74779222D01*
X77304894Y-74779222D02*
X77304894Y-74541127D01*
X77304894Y-74541127D02*
X77352513Y-74398270D01*
X77352513Y-74398270D02*
X77447751Y-74303032D01*
X77447751Y-74303032D02*
X77542989Y-74255413D01*
X77542989Y-74255413D02*
X77733465Y-74207794D01*
X77733465Y-74207794D02*
X77876322Y-74207794D01*
X77876322Y-74207794D02*
X78066798Y-74255413D01*
X78066798Y-74255413D02*
X78162036Y-74303032D01*
X78162036Y-74303032D02*
X78257275Y-74398270D01*
X78257275Y-74398270D02*
X78304894Y-74541127D01*
X78304894Y-74541127D02*
X78304894Y-74779222D01*
X107542167Y-85874094D02*
X106970739Y-85874094D01*
X107256453Y-85874094D02*
X107256453Y-84874094D01*
X107256453Y-84874094D02*
X107161215Y-85016951D01*
X107161215Y-85016951D02*
X107065977Y-85112189D01*
X107065977Y-85112189D02*
X106970739Y-85159808D01*
X108161215Y-84874094D02*
X108256453Y-84874094D01*
X108256453Y-84874094D02*
X108351691Y-84921713D01*
X108351691Y-84921713D02*
X108399310Y-84969332D01*
X108399310Y-84969332D02*
X108446929Y-85064570D01*
X108446929Y-85064570D02*
X108494548Y-85255046D01*
X108494548Y-85255046D02*
X108494548Y-85493141D01*
X108494548Y-85493141D02*
X108446929Y-85683617D01*
X108446929Y-85683617D02*
X108399310Y-85778855D01*
X108399310Y-85778855D02*
X108351691Y-85826475D01*
X108351691Y-85826475D02*
X108256453Y-85874094D01*
X108256453Y-85874094D02*
X108161215Y-85874094D01*
X108161215Y-85874094D02*
X108065977Y-85826475D01*
X108065977Y-85826475D02*
X108018358Y-85778855D01*
X108018358Y-85778855D02*
X107970739Y-85683617D01*
X107970739Y-85683617D02*
X107923120Y-85493141D01*
X107923120Y-85493141D02*
X107923120Y-85255046D01*
X107923120Y-85255046D02*
X107970739Y-85064570D01*
X107970739Y-85064570D02*
X108018358Y-84969332D01*
X108018358Y-84969332D02*
X108065977Y-84921713D01*
X108065977Y-84921713D02*
X108161215Y-84874094D01*
X109351691Y-85207427D02*
X109351691Y-85874094D01*
X108923120Y-85207427D02*
X108923120Y-85731236D01*
X108923120Y-85731236D02*
X108970739Y-85826475D01*
X108970739Y-85826475D02*
X109065977Y-85874094D01*
X109065977Y-85874094D02*
X109208834Y-85874094D01*
X109208834Y-85874094D02*
X109304072Y-85826475D01*
X109304072Y-85826475D02*
X109351691Y-85778855D01*
X110161215Y-85350284D02*
X109827882Y-85350284D01*
X109827882Y-85874094D02*
X109827882Y-84874094D01*
X109827882Y-84874094D02*
X110304072Y-84874094D01*
X117573294Y-86666232D02*
X117573294Y-87237660D01*
X117573294Y-86951946D02*
X116573294Y-86951946D01*
X116573294Y-86951946D02*
X116716151Y-87047184D01*
X116716151Y-87047184D02*
X116811389Y-87142422D01*
X116811389Y-87142422D02*
X116859008Y-87237660D01*
X116573294Y-86047184D02*
X116573294Y-85951946D01*
X116573294Y-85951946D02*
X116620913Y-85856708D01*
X116620913Y-85856708D02*
X116668532Y-85809089D01*
X116668532Y-85809089D02*
X116763770Y-85761470D01*
X116763770Y-85761470D02*
X116954246Y-85713851D01*
X116954246Y-85713851D02*
X117192341Y-85713851D01*
X117192341Y-85713851D02*
X117382817Y-85761470D01*
X117382817Y-85761470D02*
X117478055Y-85809089D01*
X117478055Y-85809089D02*
X117525675Y-85856708D01*
X117525675Y-85856708D02*
X117573294Y-85951946D01*
X117573294Y-85951946D02*
X117573294Y-86047184D01*
X117573294Y-86047184D02*
X117525675Y-86142422D01*
X117525675Y-86142422D02*
X117478055Y-86190041D01*
X117478055Y-86190041D02*
X117382817Y-86237660D01*
X117382817Y-86237660D02*
X117192341Y-86285279D01*
X117192341Y-86285279D02*
X116954246Y-86285279D01*
X116954246Y-86285279D02*
X116763770Y-86237660D01*
X116763770Y-86237660D02*
X116668532Y-86190041D01*
X116668532Y-86190041D02*
X116620913Y-86142422D01*
X116620913Y-86142422D02*
X116573294Y-86047184D01*
X116573294Y-85094803D02*
X116573294Y-84999565D01*
X116573294Y-84999565D02*
X116620913Y-84904327D01*
X116620913Y-84904327D02*
X116668532Y-84856708D01*
X116668532Y-84856708D02*
X116763770Y-84809089D01*
X116763770Y-84809089D02*
X116954246Y-84761470D01*
X116954246Y-84761470D02*
X117192341Y-84761470D01*
X117192341Y-84761470D02*
X117382817Y-84809089D01*
X117382817Y-84809089D02*
X117478055Y-84856708D01*
X117478055Y-84856708D02*
X117525675Y-84904327D01*
X117525675Y-84904327D02*
X117573294Y-84999565D01*
X117573294Y-84999565D02*
X117573294Y-85094803D01*
X117573294Y-85094803D02*
X117525675Y-85190041D01*
X117525675Y-85190041D02*
X117478055Y-85237660D01*
X117478055Y-85237660D02*
X117382817Y-85285279D01*
X117382817Y-85285279D02*
X117192341Y-85332898D01*
X117192341Y-85332898D02*
X116954246Y-85332898D01*
X116954246Y-85332898D02*
X116763770Y-85285279D01*
X116763770Y-85285279D02*
X116668532Y-85237660D01*
X116668532Y-85237660D02*
X116620913Y-85190041D01*
X116620913Y-85190041D02*
X116573294Y-85094803D01*
X116906627Y-84332898D02*
X117573294Y-84332898D01*
X117001865Y-84332898D02*
X116954246Y-84285279D01*
X116954246Y-84285279D02*
X116906627Y-84190041D01*
X116906627Y-84190041D02*
X116906627Y-84047184D01*
X116906627Y-84047184D02*
X116954246Y-83951946D01*
X116954246Y-83951946D02*
X117049484Y-83904327D01*
X117049484Y-83904327D02*
X117573294Y-83904327D01*
X117049484Y-83094803D02*
X117049484Y-83428136D01*
X117573294Y-83428136D02*
X116573294Y-83428136D01*
X116573294Y-83428136D02*
X116573294Y-82951946D01*
X86499694Y-115069698D02*
X86499694Y-114498270D01*
X87499694Y-114783984D02*
X86499694Y-114783984D01*
X87499694Y-114164936D02*
X86499694Y-114164936D01*
X87499694Y-113736365D02*
X86975884Y-113736365D01*
X86975884Y-113736365D02*
X86880646Y-113783984D01*
X86880646Y-113783984D02*
X86833027Y-113879222D01*
X86833027Y-113879222D02*
X86833027Y-114022079D01*
X86833027Y-114022079D02*
X86880646Y-114117317D01*
X86880646Y-114117317D02*
X86928265Y-114164936D01*
X87452075Y-112879222D02*
X87499694Y-112974460D01*
X87499694Y-112974460D02*
X87499694Y-113164936D01*
X87499694Y-113164936D02*
X87452075Y-113260174D01*
X87452075Y-113260174D02*
X87356836Y-113307793D01*
X87356836Y-113307793D02*
X86975884Y-113307793D01*
X86975884Y-113307793D02*
X86880646Y-113260174D01*
X86880646Y-113260174D02*
X86833027Y-113164936D01*
X86833027Y-113164936D02*
X86833027Y-112974460D01*
X86833027Y-112974460D02*
X86880646Y-112879222D01*
X86880646Y-112879222D02*
X86975884Y-112831603D01*
X86975884Y-112831603D02*
X87071122Y-112831603D01*
X87071122Y-112831603D02*
X87166360Y-113307793D01*
X87499694Y-112403031D02*
X86833027Y-112403031D01*
X87023503Y-112403031D02*
X86928265Y-112355412D01*
X86928265Y-112355412D02*
X86880646Y-112307793D01*
X86880646Y-112307793D02*
X86833027Y-112212555D01*
X86833027Y-112212555D02*
X86833027Y-112117317D01*
X87499694Y-111783983D02*
X86833027Y-111783983D01*
X86928265Y-111783983D02*
X86880646Y-111736364D01*
X86880646Y-111736364D02*
X86833027Y-111641126D01*
X86833027Y-111641126D02*
X86833027Y-111498269D01*
X86833027Y-111498269D02*
X86880646Y-111403031D01*
X86880646Y-111403031D02*
X86975884Y-111355412D01*
X86975884Y-111355412D02*
X87499694Y-111355412D01*
X86975884Y-111355412D02*
X86880646Y-111307793D01*
X86880646Y-111307793D02*
X86833027Y-111212555D01*
X86833027Y-111212555D02*
X86833027Y-111069698D01*
X86833027Y-111069698D02*
X86880646Y-110974459D01*
X86880646Y-110974459D02*
X86975884Y-110926840D01*
X86975884Y-110926840D02*
X87499694Y-110926840D01*
X87118741Y-110450650D02*
X87118741Y-109688746D01*
X46120115Y-89063691D02*
X46072496Y-89206548D01*
X46072496Y-89206548D02*
X46024877Y-89254167D01*
X46024877Y-89254167D02*
X45929639Y-89301786D01*
X45929639Y-89301786D02*
X45786782Y-89301786D01*
X45786782Y-89301786D02*
X45691544Y-89254167D01*
X45691544Y-89254167D02*
X45643925Y-89206548D01*
X45643925Y-89206548D02*
X45596305Y-89111310D01*
X45596305Y-89111310D02*
X45596305Y-88730358D01*
X45596305Y-88730358D02*
X46596305Y-88730358D01*
X46596305Y-88730358D02*
X46596305Y-89063691D01*
X46596305Y-89063691D02*
X46548686Y-89158929D01*
X46548686Y-89158929D02*
X46501067Y-89206548D01*
X46501067Y-89206548D02*
X46405829Y-89254167D01*
X46405829Y-89254167D02*
X46310591Y-89254167D01*
X46310591Y-89254167D02*
X46215353Y-89206548D01*
X46215353Y-89206548D02*
X46167734Y-89158929D01*
X46167734Y-89158929D02*
X46120115Y-89063691D01*
X46120115Y-89063691D02*
X46120115Y-88730358D01*
X45596305Y-90254167D02*
X45596305Y-89682739D01*
X45596305Y-89968453D02*
X46596305Y-89968453D01*
X46596305Y-89968453D02*
X46453448Y-89873215D01*
X46453448Y-89873215D02*
X46358210Y-89777977D01*
X46358210Y-89777977D02*
X46310591Y-89682739D01*
X45882020Y-109510739D02*
X45882020Y-109986929D01*
X45596305Y-109415501D02*
X46596305Y-109748834D01*
X46596305Y-109748834D02*
X45596305Y-110082167D01*
X46501067Y-110367882D02*
X46548686Y-110415501D01*
X46548686Y-110415501D02*
X46596305Y-110510739D01*
X46596305Y-110510739D02*
X46596305Y-110748834D01*
X46596305Y-110748834D02*
X46548686Y-110844072D01*
X46548686Y-110844072D02*
X46501067Y-110891691D01*
X46501067Y-110891691D02*
X46405829Y-110939310D01*
X46405829Y-110939310D02*
X46310591Y-110939310D01*
X46310591Y-110939310D02*
X46167734Y-110891691D01*
X46167734Y-110891691D02*
X45596305Y-110320263D01*
X45596305Y-110320263D02*
X45596305Y-110939310D01*
X106726186Y-111324894D02*
X106392853Y-110848703D01*
X106154758Y-111324894D02*
X106154758Y-110324894D01*
X106154758Y-110324894D02*
X106535710Y-110324894D01*
X106535710Y-110324894D02*
X106630948Y-110372513D01*
X106630948Y-110372513D02*
X106678567Y-110420132D01*
X106678567Y-110420132D02*
X106726186Y-110515370D01*
X106726186Y-110515370D02*
X106726186Y-110658227D01*
X106726186Y-110658227D02*
X106678567Y-110753465D01*
X106678567Y-110753465D02*
X106630948Y-110801084D01*
X106630948Y-110801084D02*
X106535710Y-110848703D01*
X106535710Y-110848703D02*
X106154758Y-110848703D01*
X107154758Y-110801084D02*
X107488091Y-110801084D01*
X107630948Y-111324894D02*
X107154758Y-111324894D01*
X107154758Y-111324894D02*
X107154758Y-110324894D01*
X107154758Y-110324894D02*
X107630948Y-110324894D01*
X108059520Y-111324894D02*
X108059520Y-110324894D01*
X108059520Y-110324894D02*
X108630948Y-111324894D01*
X108630948Y-111324894D02*
X108630948Y-110324894D01*
X98858548Y-82943694D02*
X98382358Y-82943694D01*
X98382358Y-82943694D02*
X98334739Y-83419884D01*
X98334739Y-83419884D02*
X98382358Y-83372265D01*
X98382358Y-83372265D02*
X98477596Y-83324646D01*
X98477596Y-83324646D02*
X98715691Y-83324646D01*
X98715691Y-83324646D02*
X98810929Y-83372265D01*
X98810929Y-83372265D02*
X98858548Y-83419884D01*
X98858548Y-83419884D02*
X98906167Y-83515122D01*
X98906167Y-83515122D02*
X98906167Y-83753217D01*
X98906167Y-83753217D02*
X98858548Y-83848455D01*
X98858548Y-83848455D02*
X98810929Y-83896075D01*
X98810929Y-83896075D02*
X98715691Y-83943694D01*
X98715691Y-83943694D02*
X98477596Y-83943694D01*
X98477596Y-83943694D02*
X98382358Y-83896075D01*
X98382358Y-83896075D02*
X98334739Y-83848455D01*
X99334739Y-83848455D02*
X99382358Y-83896075D01*
X99382358Y-83896075D02*
X99334739Y-83943694D01*
X99334739Y-83943694D02*
X99287120Y-83896075D01*
X99287120Y-83896075D02*
X99334739Y-83848455D01*
X99334739Y-83848455D02*
X99334739Y-83943694D01*
X100334738Y-83943694D02*
X99763310Y-83943694D01*
X100049024Y-83943694D02*
X100049024Y-82943694D01*
X100049024Y-82943694D02*
X99953786Y-83086551D01*
X99953786Y-83086551D02*
X99858548Y-83181789D01*
X99858548Y-83181789D02*
X99763310Y-83229408D01*
X100763310Y-83943694D02*
X100763310Y-82943694D01*
X100858548Y-83562741D02*
X101144262Y-83943694D01*
X101144262Y-83277027D02*
X100763310Y-83657979D01*
X122721920Y-109664494D02*
X123340967Y-109664494D01*
X123340967Y-109664494D02*
X123007634Y-110045446D01*
X123007634Y-110045446D02*
X123150491Y-110045446D01*
X123150491Y-110045446D02*
X123245729Y-110093065D01*
X123245729Y-110093065D02*
X123293348Y-110140684D01*
X123293348Y-110140684D02*
X123340967Y-110235922D01*
X123340967Y-110235922D02*
X123340967Y-110474017D01*
X123340967Y-110474017D02*
X123293348Y-110569255D01*
X123293348Y-110569255D02*
X123245729Y-110616875D01*
X123245729Y-110616875D02*
X123150491Y-110664494D01*
X123150491Y-110664494D02*
X122864777Y-110664494D01*
X122864777Y-110664494D02*
X122769539Y-110616875D01*
X122769539Y-110616875D02*
X122721920Y-110569255D01*
X123674301Y-109997827D02*
X123912396Y-110664494D01*
X123912396Y-110664494D02*
X124150491Y-109997827D01*
X124436206Y-109664494D02*
X125055253Y-109664494D01*
X125055253Y-109664494D02*
X124721920Y-110045446D01*
X124721920Y-110045446D02*
X124864777Y-110045446D01*
X124864777Y-110045446D02*
X124960015Y-110093065D01*
X124960015Y-110093065D02*
X125007634Y-110140684D01*
X125007634Y-110140684D02*
X125055253Y-110235922D01*
X125055253Y-110235922D02*
X125055253Y-110474017D01*
X125055253Y-110474017D02*
X125007634Y-110569255D01*
X125007634Y-110569255D02*
X124960015Y-110616875D01*
X124960015Y-110616875D02*
X124864777Y-110664494D01*
X124864777Y-110664494D02*
X124579063Y-110664494D01*
X124579063Y-110664494D02*
X124483825Y-110616875D01*
X124483825Y-110616875D02*
X124436206Y-110569255D01*
X71763158Y-82267294D02*
X71763158Y-81267294D01*
X72239348Y-81600627D02*
X72239348Y-82267294D01*
X72239348Y-81695865D02*
X72286967Y-81648246D01*
X72286967Y-81648246D02*
X72382205Y-81600627D01*
X72382205Y-81600627D02*
X72525062Y-81600627D01*
X72525062Y-81600627D02*
X72620300Y-81648246D01*
X72620300Y-81648246D02*
X72667919Y-81743484D01*
X72667919Y-81743484D02*
X72667919Y-82267294D01*
X73144110Y-81600627D02*
X73144110Y-82600627D01*
X73144110Y-81648246D02*
X73239348Y-81600627D01*
X73239348Y-81600627D02*
X73429824Y-81600627D01*
X73429824Y-81600627D02*
X73525062Y-81648246D01*
X73525062Y-81648246D02*
X73572681Y-81695865D01*
X73572681Y-81695865D02*
X73620300Y-81791103D01*
X73620300Y-81791103D02*
X73620300Y-82076817D01*
X73620300Y-82076817D02*
X73572681Y-82172055D01*
X73572681Y-82172055D02*
X73525062Y-82219675D01*
X73525062Y-82219675D02*
X73429824Y-82267294D01*
X73429824Y-82267294D02*
X73239348Y-82267294D01*
X73239348Y-82267294D02*
X73144110Y-82219675D01*
X74477443Y-81600627D02*
X74477443Y-82267294D01*
X74048872Y-81600627D02*
X74048872Y-82124436D01*
X74048872Y-82124436D02*
X74096491Y-82219675D01*
X74096491Y-82219675D02*
X74191729Y-82267294D01*
X74191729Y-82267294D02*
X74334586Y-82267294D01*
X74334586Y-82267294D02*
X74429824Y-82219675D01*
X74429824Y-82219675D02*
X74477443Y-82172055D01*
X74810777Y-81600627D02*
X75191729Y-81600627D01*
X74953634Y-81267294D02*
X74953634Y-82124436D01*
X74953634Y-82124436D02*
X75001253Y-82219675D01*
X75001253Y-82219675D02*
X75096491Y-82267294D01*
X75096491Y-82267294D02*
X75191729Y-82267294D01*
X132780320Y-109766094D02*
X133399367Y-109766094D01*
X133399367Y-109766094D02*
X133066034Y-110147046D01*
X133066034Y-110147046D02*
X133208891Y-110147046D01*
X133208891Y-110147046D02*
X133304129Y-110194665D01*
X133304129Y-110194665D02*
X133351748Y-110242284D01*
X133351748Y-110242284D02*
X133399367Y-110337522D01*
X133399367Y-110337522D02*
X133399367Y-110575617D01*
X133399367Y-110575617D02*
X133351748Y-110670855D01*
X133351748Y-110670855D02*
X133304129Y-110718475D01*
X133304129Y-110718475D02*
X133208891Y-110766094D01*
X133208891Y-110766094D02*
X132923177Y-110766094D01*
X132923177Y-110766094D02*
X132827939Y-110718475D01*
X132827939Y-110718475D02*
X132780320Y-110670855D01*
X133732701Y-110099427D02*
X133970796Y-110766094D01*
X133970796Y-110766094D02*
X134208891Y-110099427D01*
X134494606Y-109766094D02*
X135113653Y-109766094D01*
X135113653Y-109766094D02*
X134780320Y-110147046D01*
X134780320Y-110147046D02*
X134923177Y-110147046D01*
X134923177Y-110147046D02*
X135018415Y-110194665D01*
X135018415Y-110194665D02*
X135066034Y-110242284D01*
X135066034Y-110242284D02*
X135113653Y-110337522D01*
X135113653Y-110337522D02*
X135113653Y-110575617D01*
X135113653Y-110575617D02*
X135066034Y-110670855D01*
X135066034Y-110670855D02*
X135018415Y-110718475D01*
X135018415Y-110718475D02*
X134923177Y-110766094D01*
X134923177Y-110766094D02*
X134637463Y-110766094D01*
X134637463Y-110766094D02*
X134542225Y-110718475D01*
X134542225Y-110718475D02*
X134494606Y-110670855D01*
X97432967Y-110321713D02*
X97337729Y-110274094D01*
X97337729Y-110274094D02*
X97194872Y-110274094D01*
X97194872Y-110274094D02*
X97052015Y-110321713D01*
X97052015Y-110321713D02*
X96956777Y-110416951D01*
X96956777Y-110416951D02*
X96909158Y-110512189D01*
X96909158Y-110512189D02*
X96861539Y-110702665D01*
X96861539Y-110702665D02*
X96861539Y-110845522D01*
X96861539Y-110845522D02*
X96909158Y-111035998D01*
X96909158Y-111035998D02*
X96956777Y-111131236D01*
X96956777Y-111131236D02*
X97052015Y-111226475D01*
X97052015Y-111226475D02*
X97194872Y-111274094D01*
X97194872Y-111274094D02*
X97290110Y-111274094D01*
X97290110Y-111274094D02*
X97432967Y-111226475D01*
X97432967Y-111226475D02*
X97480586Y-111178855D01*
X97480586Y-111178855D02*
X97480586Y-110845522D01*
X97480586Y-110845522D02*
X97290110Y-110845522D01*
X97909158Y-111274094D02*
X97909158Y-110274094D01*
X97909158Y-110274094D02*
X98480586Y-111274094D01*
X98480586Y-111274094D02*
X98480586Y-110274094D01*
X98956777Y-111274094D02*
X98956777Y-110274094D01*
X98956777Y-110274094D02*
X99194872Y-110274094D01*
X99194872Y-110274094D02*
X99337729Y-110321713D01*
X99337729Y-110321713D02*
X99432967Y-110416951D01*
X99432967Y-110416951D02*
X99480586Y-110512189D01*
X99480586Y-110512189D02*
X99528205Y-110702665D01*
X99528205Y-110702665D02*
X99528205Y-110845522D01*
X99528205Y-110845522D02*
X99480586Y-111035998D01*
X99480586Y-111035998D02*
X99432967Y-111131236D01*
X99432967Y-111131236D02*
X99337729Y-111226475D01*
X99337729Y-111226475D02*
X99194872Y-111274094D01*
X99194872Y-111274094D02*
X98956777Y-111274094D01*
X137196739Y-103454075D02*
X137339596Y-103501694D01*
X137339596Y-103501694D02*
X137577691Y-103501694D01*
X137577691Y-103501694D02*
X137672929Y-103454075D01*
X137672929Y-103454075D02*
X137720548Y-103406455D01*
X137720548Y-103406455D02*
X137768167Y-103311217D01*
X137768167Y-103311217D02*
X137768167Y-103215979D01*
X137768167Y-103215979D02*
X137720548Y-103120741D01*
X137720548Y-103120741D02*
X137672929Y-103073122D01*
X137672929Y-103073122D02*
X137577691Y-103025503D01*
X137577691Y-103025503D02*
X137387215Y-102977884D01*
X137387215Y-102977884D02*
X137291977Y-102930265D01*
X137291977Y-102930265D02*
X137244358Y-102882646D01*
X137244358Y-102882646D02*
X137196739Y-102787408D01*
X137196739Y-102787408D02*
X137196739Y-102692170D01*
X137196739Y-102692170D02*
X137244358Y-102596932D01*
X137244358Y-102596932D02*
X137291977Y-102549313D01*
X137291977Y-102549313D02*
X137387215Y-102501694D01*
X137387215Y-102501694D02*
X137625310Y-102501694D01*
X137625310Y-102501694D02*
X137768167Y-102549313D01*
X138196739Y-103501694D02*
X138196739Y-102501694D01*
X138196739Y-102501694D02*
X138434834Y-102501694D01*
X138434834Y-102501694D02*
X138577691Y-102549313D01*
X138577691Y-102549313D02*
X138672929Y-102644551D01*
X138672929Y-102644551D02*
X138720548Y-102739789D01*
X138720548Y-102739789D02*
X138768167Y-102930265D01*
X138768167Y-102930265D02*
X138768167Y-103073122D01*
X138768167Y-103073122D02*
X138720548Y-103263598D01*
X138720548Y-103263598D02*
X138672929Y-103358836D01*
X138672929Y-103358836D02*
X138577691Y-103454075D01*
X138577691Y-103454075D02*
X138434834Y-103501694D01*
X138434834Y-103501694D02*
X138196739Y-103501694D01*
X139149120Y-103215979D02*
X139625310Y-103215979D01*
X139053882Y-103501694D02*
X139387215Y-102501694D01*
X139387215Y-102501694D02*
X139720548Y-103501694D01*
X137196739Y-101930075D02*
X137339596Y-101977694D01*
X137339596Y-101977694D02*
X137577691Y-101977694D01*
X137577691Y-101977694D02*
X137672929Y-101930075D01*
X137672929Y-101930075D02*
X137720548Y-101882455D01*
X137720548Y-101882455D02*
X137768167Y-101787217D01*
X137768167Y-101787217D02*
X137768167Y-101691979D01*
X137768167Y-101691979D02*
X137720548Y-101596741D01*
X137720548Y-101596741D02*
X137672929Y-101549122D01*
X137672929Y-101549122D02*
X137577691Y-101501503D01*
X137577691Y-101501503D02*
X137387215Y-101453884D01*
X137387215Y-101453884D02*
X137291977Y-101406265D01*
X137291977Y-101406265D02*
X137244358Y-101358646D01*
X137244358Y-101358646D02*
X137196739Y-101263408D01*
X137196739Y-101263408D02*
X137196739Y-101168170D01*
X137196739Y-101168170D02*
X137244358Y-101072932D01*
X137244358Y-101072932D02*
X137291977Y-101025313D01*
X137291977Y-101025313D02*
X137387215Y-100977694D01*
X137387215Y-100977694D02*
X137625310Y-100977694D01*
X137625310Y-100977694D02*
X137768167Y-101025313D01*
X138768167Y-101882455D02*
X138720548Y-101930075D01*
X138720548Y-101930075D02*
X138577691Y-101977694D01*
X138577691Y-101977694D02*
X138482453Y-101977694D01*
X138482453Y-101977694D02*
X138339596Y-101930075D01*
X138339596Y-101930075D02*
X138244358Y-101834836D01*
X138244358Y-101834836D02*
X138196739Y-101739598D01*
X138196739Y-101739598D02*
X138149120Y-101549122D01*
X138149120Y-101549122D02*
X138149120Y-101406265D01*
X138149120Y-101406265D02*
X138196739Y-101215789D01*
X138196739Y-101215789D02*
X138244358Y-101120551D01*
X138244358Y-101120551D02*
X138339596Y-101025313D01*
X138339596Y-101025313D02*
X138482453Y-100977694D01*
X138482453Y-100977694D02*
X138577691Y-100977694D01*
X138577691Y-100977694D02*
X138720548Y-101025313D01*
X138720548Y-101025313D02*
X138768167Y-101072932D01*
X139672929Y-101977694D02*
X139196739Y-101977694D01*
X139196739Y-101977694D02*
X139196739Y-100977694D01*
X47801367Y-81822913D02*
X47706129Y-81775294D01*
X47706129Y-81775294D02*
X47563272Y-81775294D01*
X47563272Y-81775294D02*
X47420415Y-81822913D01*
X47420415Y-81822913D02*
X47325177Y-81918151D01*
X47325177Y-81918151D02*
X47277558Y-82013389D01*
X47277558Y-82013389D02*
X47229939Y-82203865D01*
X47229939Y-82203865D02*
X47229939Y-82346722D01*
X47229939Y-82346722D02*
X47277558Y-82537198D01*
X47277558Y-82537198D02*
X47325177Y-82632436D01*
X47325177Y-82632436D02*
X47420415Y-82727675D01*
X47420415Y-82727675D02*
X47563272Y-82775294D01*
X47563272Y-82775294D02*
X47658510Y-82775294D01*
X47658510Y-82775294D02*
X47801367Y-82727675D01*
X47801367Y-82727675D02*
X47848986Y-82680055D01*
X47848986Y-82680055D02*
X47848986Y-82346722D01*
X47848986Y-82346722D02*
X47658510Y-82346722D01*
X48277558Y-82775294D02*
X48277558Y-81775294D01*
X48277558Y-81775294D02*
X48848986Y-82775294D01*
X48848986Y-82775294D02*
X48848986Y-81775294D01*
X49325177Y-82775294D02*
X49325177Y-81775294D01*
X49325177Y-81775294D02*
X49563272Y-81775294D01*
X49563272Y-81775294D02*
X49706129Y-81822913D01*
X49706129Y-81822913D02*
X49801367Y-81918151D01*
X49801367Y-81918151D02*
X49848986Y-82013389D01*
X49848986Y-82013389D02*
X49896605Y-82203865D01*
X49896605Y-82203865D02*
X49896605Y-82346722D01*
X49896605Y-82346722D02*
X49848986Y-82537198D01*
X49848986Y-82537198D02*
X49801367Y-82632436D01*
X49801367Y-82632436D02*
X49706129Y-82727675D01*
X49706129Y-82727675D02*
X49563272Y-82775294D01*
X49563272Y-82775294D02*
X49325177Y-82775294D01*
X137723729Y-99583827D02*
X137723729Y-100250494D01*
X137485634Y-99202875D02*
X137247539Y-99917160D01*
X137247539Y-99917160D02*
X137866586Y-99917160D01*
X138247539Y-100155255D02*
X138295158Y-100202875D01*
X138295158Y-100202875D02*
X138247539Y-100250494D01*
X138247539Y-100250494D02*
X138199920Y-100202875D01*
X138199920Y-100202875D02*
X138247539Y-100155255D01*
X138247539Y-100155255D02*
X138247539Y-100250494D01*
X138628491Y-99250494D02*
X139295157Y-99250494D01*
X139295157Y-99250494D02*
X138866586Y-100250494D01*
X139676110Y-100250494D02*
X139676110Y-99250494D01*
X139771348Y-99869541D02*
X140057062Y-100250494D01*
X140057062Y-99583827D02*
X139676110Y-99964779D01*
X77339694Y-115130041D02*
X76339694Y-115130041D01*
X76339694Y-115130041D02*
X77053979Y-114796708D01*
X77053979Y-114796708D02*
X76339694Y-114463375D01*
X76339694Y-114463375D02*
X77339694Y-114463375D01*
X77339694Y-113844327D02*
X77292075Y-113939565D01*
X77292075Y-113939565D02*
X77244455Y-113987184D01*
X77244455Y-113987184D02*
X77149217Y-114034803D01*
X77149217Y-114034803D02*
X76863503Y-114034803D01*
X76863503Y-114034803D02*
X76768265Y-113987184D01*
X76768265Y-113987184D02*
X76720646Y-113939565D01*
X76720646Y-113939565D02*
X76673027Y-113844327D01*
X76673027Y-113844327D02*
X76673027Y-113701470D01*
X76673027Y-113701470D02*
X76720646Y-113606232D01*
X76720646Y-113606232D02*
X76768265Y-113558613D01*
X76768265Y-113558613D02*
X76863503Y-113510994D01*
X76863503Y-113510994D02*
X77149217Y-113510994D01*
X77149217Y-113510994D02*
X77244455Y-113558613D01*
X77244455Y-113558613D02*
X77292075Y-113606232D01*
X77292075Y-113606232D02*
X77339694Y-113701470D01*
X77339694Y-113701470D02*
X77339694Y-113844327D01*
X77292075Y-113130041D02*
X77339694Y-113034803D01*
X77339694Y-113034803D02*
X77339694Y-112844327D01*
X77339694Y-112844327D02*
X77292075Y-112749089D01*
X77292075Y-112749089D02*
X77196836Y-112701470D01*
X77196836Y-112701470D02*
X77149217Y-112701470D01*
X77149217Y-112701470D02*
X77053979Y-112749089D01*
X77053979Y-112749089D02*
X77006360Y-112844327D01*
X77006360Y-112844327D02*
X77006360Y-112987184D01*
X77006360Y-112987184D02*
X76958741Y-113082422D01*
X76958741Y-113082422D02*
X76863503Y-113130041D01*
X76863503Y-113130041D02*
X76815884Y-113130041D01*
X76815884Y-113130041D02*
X76720646Y-113082422D01*
X76720646Y-113082422D02*
X76673027Y-112987184D01*
X76673027Y-112987184D02*
X76673027Y-112844327D01*
X76673027Y-112844327D02*
X76720646Y-112749089D01*
X77434932Y-112510994D02*
X77434932Y-111749089D01*
X77339694Y-111368136D02*
X77292075Y-111463374D01*
X77292075Y-111463374D02*
X77244455Y-111510993D01*
X77244455Y-111510993D02*
X77149217Y-111558612D01*
X77149217Y-111558612D02*
X76863503Y-111558612D01*
X76863503Y-111558612D02*
X76768265Y-111510993D01*
X76768265Y-111510993D02*
X76720646Y-111463374D01*
X76720646Y-111463374D02*
X76673027Y-111368136D01*
X76673027Y-111368136D02*
X76673027Y-111225279D01*
X76673027Y-111225279D02*
X76720646Y-111130041D01*
X76720646Y-111130041D02*
X76768265Y-111082422D01*
X76768265Y-111082422D02*
X76863503Y-111034803D01*
X76863503Y-111034803D02*
X77149217Y-111034803D01*
X77149217Y-111034803D02*
X77244455Y-111082422D01*
X77244455Y-111082422D02*
X77292075Y-111130041D01*
X77292075Y-111130041D02*
X77339694Y-111225279D01*
X77339694Y-111225279D02*
X77339694Y-111368136D01*
X100166720Y-110324894D02*
X100785767Y-110324894D01*
X100785767Y-110324894D02*
X100452434Y-110705846D01*
X100452434Y-110705846D02*
X100595291Y-110705846D01*
X100595291Y-110705846D02*
X100690529Y-110753465D01*
X100690529Y-110753465D02*
X100738148Y-110801084D01*
X100738148Y-110801084D02*
X100785767Y-110896322D01*
X100785767Y-110896322D02*
X100785767Y-111134417D01*
X100785767Y-111134417D02*
X100738148Y-111229655D01*
X100738148Y-111229655D02*
X100690529Y-111277275D01*
X100690529Y-111277275D02*
X100595291Y-111324894D01*
X100595291Y-111324894D02*
X100309577Y-111324894D01*
X100309577Y-111324894D02*
X100214339Y-111277275D01*
X100214339Y-111277275D02*
X100166720Y-111229655D01*
X101119101Y-110658227D02*
X101357196Y-111324894D01*
X101357196Y-111324894D02*
X101595291Y-110658227D01*
X101881006Y-110324894D02*
X102500053Y-110324894D01*
X102500053Y-110324894D02*
X102166720Y-110705846D01*
X102166720Y-110705846D02*
X102309577Y-110705846D01*
X102309577Y-110705846D02*
X102404815Y-110753465D01*
X102404815Y-110753465D02*
X102452434Y-110801084D01*
X102452434Y-110801084D02*
X102500053Y-110896322D01*
X102500053Y-110896322D02*
X102500053Y-111134417D01*
X102500053Y-111134417D02*
X102452434Y-111229655D01*
X102452434Y-111229655D02*
X102404815Y-111277275D01*
X102404815Y-111277275D02*
X102309577Y-111324894D01*
X102309577Y-111324894D02*
X102023863Y-111324894D01*
X102023863Y-111324894D02*
X101928625Y-111277275D01*
X101928625Y-111277275D02*
X101881006Y-111229655D01*
X136345767Y-109762913D02*
X136250529Y-109715294D01*
X136250529Y-109715294D02*
X136107672Y-109715294D01*
X136107672Y-109715294D02*
X135964815Y-109762913D01*
X135964815Y-109762913D02*
X135869577Y-109858151D01*
X135869577Y-109858151D02*
X135821958Y-109953389D01*
X135821958Y-109953389D02*
X135774339Y-110143865D01*
X135774339Y-110143865D02*
X135774339Y-110286722D01*
X135774339Y-110286722D02*
X135821958Y-110477198D01*
X135821958Y-110477198D02*
X135869577Y-110572436D01*
X135869577Y-110572436D02*
X135964815Y-110667675D01*
X135964815Y-110667675D02*
X136107672Y-110715294D01*
X136107672Y-110715294D02*
X136202910Y-110715294D01*
X136202910Y-110715294D02*
X136345767Y-110667675D01*
X136345767Y-110667675D02*
X136393386Y-110620055D01*
X136393386Y-110620055D02*
X136393386Y-110286722D01*
X136393386Y-110286722D02*
X136202910Y-110286722D01*
X136821958Y-110715294D02*
X136821958Y-109715294D01*
X136821958Y-109715294D02*
X137393386Y-110715294D01*
X137393386Y-110715294D02*
X137393386Y-109715294D01*
X137869577Y-110715294D02*
X137869577Y-109715294D01*
X137869577Y-109715294D02*
X138107672Y-109715294D01*
X138107672Y-109715294D02*
X138250529Y-109762913D01*
X138250529Y-109762913D02*
X138345767Y-109858151D01*
X138345767Y-109858151D02*
X138393386Y-109953389D01*
X138393386Y-109953389D02*
X138441005Y-110143865D01*
X138441005Y-110143865D02*
X138441005Y-110286722D01*
X138441005Y-110286722D02*
X138393386Y-110477198D01*
X138393386Y-110477198D02*
X138345767Y-110572436D01*
X138345767Y-110572436D02*
X138250529Y-110667675D01*
X138250529Y-110667675D02*
X138107672Y-110715294D01*
X138107672Y-110715294D02*
X137869577Y-110715294D01*
X106815158Y-74967750D02*
X106815158Y-73967750D01*
X106815158Y-73967750D02*
X107053253Y-73967750D01*
X107053253Y-73967750D02*
X107196110Y-74015369D01*
X107196110Y-74015369D02*
X107291348Y-74110607D01*
X107291348Y-74110607D02*
X107338967Y-74205845D01*
X107338967Y-74205845D02*
X107386586Y-74396321D01*
X107386586Y-74396321D02*
X107386586Y-74539178D01*
X107386586Y-74539178D02*
X107338967Y-74729654D01*
X107338967Y-74729654D02*
X107291348Y-74824892D01*
X107291348Y-74824892D02*
X107196110Y-74920131D01*
X107196110Y-74920131D02*
X107053253Y-74967750D01*
X107053253Y-74967750D02*
X106815158Y-74967750D01*
X108196110Y-74920131D02*
X108100872Y-74967750D01*
X108100872Y-74967750D02*
X107910396Y-74967750D01*
X107910396Y-74967750D02*
X107815158Y-74920131D01*
X107815158Y-74920131D02*
X107767539Y-74824892D01*
X107767539Y-74824892D02*
X107767539Y-74443940D01*
X107767539Y-74443940D02*
X107815158Y-74348702D01*
X107815158Y-74348702D02*
X107910396Y-74301083D01*
X107910396Y-74301083D02*
X108100872Y-74301083D01*
X108100872Y-74301083D02*
X108196110Y-74348702D01*
X108196110Y-74348702D02*
X108243729Y-74443940D01*
X108243729Y-74443940D02*
X108243729Y-74539178D01*
X108243729Y-74539178D02*
X107767539Y-74634416D01*
X108577063Y-74301083D02*
X108815158Y-74967750D01*
X108815158Y-74967750D02*
X109053253Y-74301083D01*
X109434206Y-74872511D02*
X109481825Y-74920131D01*
X109481825Y-74920131D02*
X109434206Y-74967750D01*
X109434206Y-74967750D02*
X109386587Y-74920131D01*
X109386587Y-74920131D02*
X109434206Y-74872511D01*
X109434206Y-74872511D02*
X109434206Y-74967750D01*
X109434206Y-74348702D02*
X109481825Y-74396321D01*
X109481825Y-74396321D02*
X109434206Y-74443940D01*
X109434206Y-74443940D02*
X109386587Y-74396321D01*
X109386587Y-74396321D02*
X109434206Y-74348702D01*
X109434206Y-74348702D02*
X109434206Y-74443940D01*
X107386586Y-76577694D02*
X107053253Y-76101503D01*
X106815158Y-76577694D02*
X106815158Y-75577694D01*
X106815158Y-75577694D02*
X107196110Y-75577694D01*
X107196110Y-75577694D02*
X107291348Y-75625313D01*
X107291348Y-75625313D02*
X107338967Y-75672932D01*
X107338967Y-75672932D02*
X107386586Y-75768170D01*
X107386586Y-75768170D02*
X107386586Y-75911027D01*
X107386586Y-75911027D02*
X107338967Y-76006265D01*
X107338967Y-76006265D02*
X107291348Y-76053884D01*
X107291348Y-76053884D02*
X107196110Y-76101503D01*
X107196110Y-76101503D02*
X106815158Y-76101503D01*
X107719920Y-75911027D02*
X107958015Y-76577694D01*
X108196110Y-75911027D02*
X107958015Y-76577694D01*
X107958015Y-76577694D02*
X107862777Y-76815789D01*
X107862777Y-76815789D02*
X107815158Y-76863408D01*
X107815158Y-76863408D02*
X107719920Y-76911027D01*
X109005634Y-76577694D02*
X109005634Y-76053884D01*
X109005634Y-76053884D02*
X108958015Y-75958646D01*
X108958015Y-75958646D02*
X108862777Y-75911027D01*
X108862777Y-75911027D02*
X108672301Y-75911027D01*
X108672301Y-75911027D02*
X108577063Y-75958646D01*
X109005634Y-76530075D02*
X108910396Y-76577694D01*
X108910396Y-76577694D02*
X108672301Y-76577694D01*
X108672301Y-76577694D02*
X108577063Y-76530075D01*
X108577063Y-76530075D02*
X108529444Y-76434836D01*
X108529444Y-76434836D02*
X108529444Y-76339598D01*
X108529444Y-76339598D02*
X108577063Y-76244360D01*
X108577063Y-76244360D02*
X108672301Y-76196741D01*
X108672301Y-76196741D02*
X108910396Y-76196741D01*
X108910396Y-76196741D02*
X109005634Y-76149122D01*
X109481825Y-75911027D02*
X109481825Y-76577694D01*
X109481825Y-76006265D02*
X109529444Y-75958646D01*
X109529444Y-75958646D02*
X109624682Y-75911027D01*
X109624682Y-75911027D02*
X109767539Y-75911027D01*
X109767539Y-75911027D02*
X109862777Y-75958646D01*
X109862777Y-75958646D02*
X109910396Y-76053884D01*
X109910396Y-76053884D02*
X109910396Y-76577694D01*
X111005635Y-75577694D02*
X111577063Y-75577694D01*
X111291349Y-76577694D02*
X111291349Y-75577694D01*
X112338968Y-76577694D02*
X112338968Y-76053884D01*
X112338968Y-76053884D02*
X112291349Y-75958646D01*
X112291349Y-75958646D02*
X112196111Y-75911027D01*
X112196111Y-75911027D02*
X112005635Y-75911027D01*
X112005635Y-75911027D02*
X111910397Y-75958646D01*
X112338968Y-76530075D02*
X112243730Y-76577694D01*
X112243730Y-76577694D02*
X112005635Y-76577694D01*
X112005635Y-76577694D02*
X111910397Y-76530075D01*
X111910397Y-76530075D02*
X111862778Y-76434836D01*
X111862778Y-76434836D02*
X111862778Y-76339598D01*
X111862778Y-76339598D02*
X111910397Y-76244360D01*
X111910397Y-76244360D02*
X112005635Y-76196741D01*
X112005635Y-76196741D02*
X112243730Y-76196741D01*
X112243730Y-76196741D02*
X112338968Y-76149122D01*
X112719921Y-75911027D02*
X112958016Y-76577694D01*
X113196111Y-75911027D02*
X112958016Y-76577694D01*
X112958016Y-76577694D02*
X112862778Y-76815789D01*
X112862778Y-76815789D02*
X112815159Y-76863408D01*
X112815159Y-76863408D02*
X112719921Y-76911027D01*
X113719921Y-76577694D02*
X113624683Y-76530075D01*
X113624683Y-76530075D02*
X113577064Y-76434836D01*
X113577064Y-76434836D02*
X113577064Y-75577694D01*
X114243731Y-76577694D02*
X114148493Y-76530075D01*
X114148493Y-76530075D02*
X114100874Y-76482455D01*
X114100874Y-76482455D02*
X114053255Y-76387217D01*
X114053255Y-76387217D02*
X114053255Y-76101503D01*
X114053255Y-76101503D02*
X114100874Y-76006265D01*
X114100874Y-76006265D02*
X114148493Y-75958646D01*
X114148493Y-75958646D02*
X114243731Y-75911027D01*
X114243731Y-75911027D02*
X114386588Y-75911027D01*
X114386588Y-75911027D02*
X114481826Y-75958646D01*
X114481826Y-75958646D02*
X114529445Y-76006265D01*
X114529445Y-76006265D02*
X114577064Y-76101503D01*
X114577064Y-76101503D02*
X114577064Y-76387217D01*
X114577064Y-76387217D02*
X114529445Y-76482455D01*
X114529445Y-76482455D02*
X114481826Y-76530075D01*
X114481826Y-76530075D02*
X114386588Y-76577694D01*
X114386588Y-76577694D02*
X114243731Y-76577694D01*
X115005636Y-76577694D02*
X115005636Y-75911027D01*
X115005636Y-76101503D02*
X115053255Y-76006265D01*
X115053255Y-76006265D02*
X115100874Y-75958646D01*
X115100874Y-75958646D02*
X115196112Y-75911027D01*
X115196112Y-75911027D02*
X115291350Y-75911027D01*
X62228567Y-81721313D02*
X62133329Y-81673694D01*
X62133329Y-81673694D02*
X61990472Y-81673694D01*
X61990472Y-81673694D02*
X61847615Y-81721313D01*
X61847615Y-81721313D02*
X61752377Y-81816551D01*
X61752377Y-81816551D02*
X61704758Y-81911789D01*
X61704758Y-81911789D02*
X61657139Y-82102265D01*
X61657139Y-82102265D02*
X61657139Y-82245122D01*
X61657139Y-82245122D02*
X61704758Y-82435598D01*
X61704758Y-82435598D02*
X61752377Y-82530836D01*
X61752377Y-82530836D02*
X61847615Y-82626075D01*
X61847615Y-82626075D02*
X61990472Y-82673694D01*
X61990472Y-82673694D02*
X62085710Y-82673694D01*
X62085710Y-82673694D02*
X62228567Y-82626075D01*
X62228567Y-82626075D02*
X62276186Y-82578455D01*
X62276186Y-82578455D02*
X62276186Y-82245122D01*
X62276186Y-82245122D02*
X62085710Y-82245122D01*
X62704758Y-82673694D02*
X62704758Y-81673694D01*
X62704758Y-81673694D02*
X63276186Y-82673694D01*
X63276186Y-82673694D02*
X63276186Y-81673694D01*
X63752377Y-82673694D02*
X63752377Y-81673694D01*
X63752377Y-81673694D02*
X63990472Y-81673694D01*
X63990472Y-81673694D02*
X64133329Y-81721313D01*
X64133329Y-81721313D02*
X64228567Y-81816551D01*
X64228567Y-81816551D02*
X64276186Y-81911789D01*
X64276186Y-81911789D02*
X64323805Y-82102265D01*
X64323805Y-82102265D02*
X64323805Y-82245122D01*
X64323805Y-82245122D02*
X64276186Y-82435598D01*
X64276186Y-82435598D02*
X64228567Y-82530836D01*
X64228567Y-82530836D02*
X64133329Y-82626075D01*
X64133329Y-82626075D02*
X63990472Y-82673694D01*
X63990472Y-82673694D02*
X63752377Y-82673694D01*
X46120115Y-103541691D02*
X46072496Y-103684548D01*
X46072496Y-103684548D02*
X46024877Y-103732167D01*
X46024877Y-103732167D02*
X45929639Y-103779786D01*
X45929639Y-103779786D02*
X45786782Y-103779786D01*
X45786782Y-103779786D02*
X45691544Y-103732167D01*
X45691544Y-103732167D02*
X45643925Y-103684548D01*
X45643925Y-103684548D02*
X45596305Y-103589310D01*
X45596305Y-103589310D02*
X45596305Y-103208358D01*
X45596305Y-103208358D02*
X46596305Y-103208358D01*
X46596305Y-103208358D02*
X46596305Y-103541691D01*
X46596305Y-103541691D02*
X46548686Y-103636929D01*
X46548686Y-103636929D02*
X46501067Y-103684548D01*
X46501067Y-103684548D02*
X46405829Y-103732167D01*
X46405829Y-103732167D02*
X46310591Y-103732167D01*
X46310591Y-103732167D02*
X46215353Y-103684548D01*
X46215353Y-103684548D02*
X46167734Y-103636929D01*
X46167734Y-103636929D02*
X46120115Y-103541691D01*
X46120115Y-103541691D02*
X46120115Y-103208358D01*
X46501067Y-104160739D02*
X46548686Y-104208358D01*
X46548686Y-104208358D02*
X46596305Y-104303596D01*
X46596305Y-104303596D02*
X46596305Y-104541691D01*
X46596305Y-104541691D02*
X46548686Y-104636929D01*
X46548686Y-104636929D02*
X46501067Y-104684548D01*
X46501067Y-104684548D02*
X46405829Y-104732167D01*
X46405829Y-104732167D02*
X46310591Y-104732167D01*
X46310591Y-104732167D02*
X46167734Y-104684548D01*
X46167734Y-104684548D02*
X45596305Y-104113120D01*
X45596305Y-104113120D02*
X45596305Y-104732167D01*
X118194358Y-110918494D02*
X118194358Y-109918494D01*
X118670548Y-110251827D02*
X118670548Y-110918494D01*
X118670548Y-110347065D02*
X118718167Y-110299446D01*
X118718167Y-110299446D02*
X118813405Y-110251827D01*
X118813405Y-110251827D02*
X118956262Y-110251827D01*
X118956262Y-110251827D02*
X119051500Y-110299446D01*
X119051500Y-110299446D02*
X119099119Y-110394684D01*
X119099119Y-110394684D02*
X119099119Y-110918494D01*
X119575310Y-110251827D02*
X119575310Y-111251827D01*
X119575310Y-110299446D02*
X119670548Y-110251827D01*
X119670548Y-110251827D02*
X119861024Y-110251827D01*
X119861024Y-110251827D02*
X119956262Y-110299446D01*
X119956262Y-110299446D02*
X120003881Y-110347065D01*
X120003881Y-110347065D02*
X120051500Y-110442303D01*
X120051500Y-110442303D02*
X120051500Y-110728017D01*
X120051500Y-110728017D02*
X120003881Y-110823255D01*
X120003881Y-110823255D02*
X119956262Y-110870875D01*
X119956262Y-110870875D02*
X119861024Y-110918494D01*
X119861024Y-110918494D02*
X119670548Y-110918494D01*
X119670548Y-110918494D02*
X119575310Y-110870875D01*
X120908643Y-110251827D02*
X120908643Y-110918494D01*
X120480072Y-110251827D02*
X120480072Y-110775636D01*
X120480072Y-110775636D02*
X120527691Y-110870875D01*
X120527691Y-110870875D02*
X120622929Y-110918494D01*
X120622929Y-110918494D02*
X120765786Y-110918494D01*
X120765786Y-110918494D02*
X120861024Y-110870875D01*
X120861024Y-110870875D02*
X120908643Y-110823255D01*
X121241977Y-110251827D02*
X121622929Y-110251827D01*
X121384834Y-109918494D02*
X121384834Y-110775636D01*
X121384834Y-110775636D02*
X121432453Y-110870875D01*
X121432453Y-110870875D02*
X121527691Y-110918494D01*
X121527691Y-110918494D02*
X121622929Y-110918494D01*
X112314186Y-111426494D02*
X111980853Y-110950303D01*
X111742758Y-111426494D02*
X111742758Y-110426494D01*
X111742758Y-110426494D02*
X112123710Y-110426494D01*
X112123710Y-110426494D02*
X112218948Y-110474113D01*
X112218948Y-110474113D02*
X112266567Y-110521732D01*
X112266567Y-110521732D02*
X112314186Y-110616970D01*
X112314186Y-110616970D02*
X112314186Y-110759827D01*
X112314186Y-110759827D02*
X112266567Y-110855065D01*
X112266567Y-110855065D02*
X112218948Y-110902684D01*
X112218948Y-110902684D02*
X112123710Y-110950303D01*
X112123710Y-110950303D02*
X111742758Y-110950303D01*
X112742758Y-111426494D02*
X112742758Y-110426494D01*
X112742758Y-110426494D02*
X113123710Y-110426494D01*
X113123710Y-110426494D02*
X113218948Y-110474113D01*
X113218948Y-110474113D02*
X113266567Y-110521732D01*
X113266567Y-110521732D02*
X113314186Y-110616970D01*
X113314186Y-110616970D02*
X113314186Y-110759827D01*
X113314186Y-110759827D02*
X113266567Y-110855065D01*
X113266567Y-110855065D02*
X113218948Y-110902684D01*
X113218948Y-110902684D02*
X113123710Y-110950303D01*
X113123710Y-110950303D02*
X112742758Y-110950303D01*
X143227294Y-78436632D02*
X143227294Y-79008060D01*
X143227294Y-78722346D02*
X142227294Y-78722346D01*
X142227294Y-78722346D02*
X142370151Y-78817584D01*
X142370151Y-78817584D02*
X142465389Y-78912822D01*
X142465389Y-78912822D02*
X142513008Y-79008060D01*
X142560627Y-77579489D02*
X143227294Y-77579489D01*
X142560627Y-78008060D02*
X143084436Y-78008060D01*
X143084436Y-78008060D02*
X143179675Y-77960441D01*
X143179675Y-77960441D02*
X143227294Y-77865203D01*
X143227294Y-77865203D02*
X143227294Y-77722346D01*
X143227294Y-77722346D02*
X143179675Y-77627108D01*
X143179675Y-77627108D02*
X143132055Y-77579489D01*
X142703484Y-76769965D02*
X142703484Y-77103298D01*
X143227294Y-77103298D02*
X142227294Y-77103298D01*
X142227294Y-77103298D02*
X142227294Y-76627108D01*
X45882020Y-92746739D02*
X45882020Y-93222929D01*
X45596305Y-92651501D02*
X46596305Y-92984834D01*
X46596305Y-92984834D02*
X45596305Y-93318167D01*
X46501067Y-93603882D02*
X46548686Y-93651501D01*
X46548686Y-93651501D02*
X46596305Y-93746739D01*
X46596305Y-93746739D02*
X46596305Y-93984834D01*
X46596305Y-93984834D02*
X46548686Y-94080072D01*
X46548686Y-94080072D02*
X46501067Y-94127691D01*
X46501067Y-94127691D02*
X46405829Y-94175310D01*
X46405829Y-94175310D02*
X46310591Y-94175310D01*
X46310591Y-94175310D02*
X46167734Y-94127691D01*
X46167734Y-94127691D02*
X45596305Y-93556263D01*
X45596305Y-93556263D02*
X45596305Y-94175310D01*
X115060567Y-109966113D02*
X114965329Y-109918494D01*
X114965329Y-109918494D02*
X114822472Y-109918494D01*
X114822472Y-109918494D02*
X114679615Y-109966113D01*
X114679615Y-109966113D02*
X114584377Y-110061351D01*
X114584377Y-110061351D02*
X114536758Y-110156589D01*
X114536758Y-110156589D02*
X114489139Y-110347065D01*
X114489139Y-110347065D02*
X114489139Y-110489922D01*
X114489139Y-110489922D02*
X114536758Y-110680398D01*
X114536758Y-110680398D02*
X114584377Y-110775636D01*
X114584377Y-110775636D02*
X114679615Y-110870875D01*
X114679615Y-110870875D02*
X114822472Y-110918494D01*
X114822472Y-110918494D02*
X114917710Y-110918494D01*
X114917710Y-110918494D02*
X115060567Y-110870875D01*
X115060567Y-110870875D02*
X115108186Y-110823255D01*
X115108186Y-110823255D02*
X115108186Y-110489922D01*
X115108186Y-110489922D02*
X114917710Y-110489922D01*
X115536758Y-110918494D02*
X115536758Y-109918494D01*
X115536758Y-109918494D02*
X116108186Y-110918494D01*
X116108186Y-110918494D02*
X116108186Y-109918494D01*
X116584377Y-110918494D02*
X116584377Y-109918494D01*
X116584377Y-109918494D02*
X116822472Y-109918494D01*
X116822472Y-109918494D02*
X116965329Y-109966113D01*
X116965329Y-109966113D02*
X117060567Y-110061351D01*
X117060567Y-110061351D02*
X117108186Y-110156589D01*
X117108186Y-110156589D02*
X117155805Y-110347065D01*
X117155805Y-110347065D02*
X117155805Y-110489922D01*
X117155805Y-110489922D02*
X117108186Y-110680398D01*
X117108186Y-110680398D02*
X117060567Y-110775636D01*
X117060567Y-110775636D02*
X116965329Y-110870875D01*
X116965329Y-110870875D02*
X116822472Y-110918494D01*
X116822472Y-110918494D02*
X116584377Y-110918494D01*
X110085348Y-111375694D02*
X109609158Y-111375694D01*
X109609158Y-111375694D02*
X109609158Y-110375694D01*
X110418682Y-111375694D02*
X110418682Y-110375694D01*
X110418682Y-110375694D02*
X110799634Y-110375694D01*
X110799634Y-110375694D02*
X110894872Y-110423313D01*
X110894872Y-110423313D02*
X110942491Y-110470932D01*
X110942491Y-110470932D02*
X110990110Y-110566170D01*
X110990110Y-110566170D02*
X110990110Y-110709027D01*
X110990110Y-110709027D02*
X110942491Y-110804265D01*
X110942491Y-110804265D02*
X110894872Y-110851884D01*
X110894872Y-110851884D02*
X110799634Y-110899503D01*
X110799634Y-110899503D02*
X110418682Y-110899503D01*
X85342567Y-105787694D02*
X84771139Y-105787694D01*
X85056853Y-105787694D02*
X85056853Y-104787694D01*
X85056853Y-104787694D02*
X84961615Y-104930551D01*
X84961615Y-104930551D02*
X84866377Y-105025789D01*
X84866377Y-105025789D02*
X84771139Y-105073408D01*
X85771139Y-105787694D02*
X85771139Y-104787694D01*
X85866377Y-105406741D02*
X86152091Y-105787694D01*
X86152091Y-105121027D02*
X85771139Y-105501979D01*
X93064167Y-107870494D02*
X92492739Y-107870494D01*
X92778453Y-107870494D02*
X92778453Y-106870494D01*
X92778453Y-106870494D02*
X92683215Y-107013351D01*
X92683215Y-107013351D02*
X92587977Y-107108589D01*
X92587977Y-107108589D02*
X92492739Y-107156208D01*
X93683215Y-106870494D02*
X93778453Y-106870494D01*
X93778453Y-106870494D02*
X93873691Y-106918113D01*
X93873691Y-106918113D02*
X93921310Y-106965732D01*
X93921310Y-106965732D02*
X93968929Y-107060970D01*
X93968929Y-107060970D02*
X94016548Y-107251446D01*
X94016548Y-107251446D02*
X94016548Y-107489541D01*
X94016548Y-107489541D02*
X93968929Y-107680017D01*
X93968929Y-107680017D02*
X93921310Y-107775255D01*
X93921310Y-107775255D02*
X93873691Y-107822875D01*
X93873691Y-107822875D02*
X93778453Y-107870494D01*
X93778453Y-107870494D02*
X93683215Y-107870494D01*
X93683215Y-107870494D02*
X93587977Y-107822875D01*
X93587977Y-107822875D02*
X93540358Y-107775255D01*
X93540358Y-107775255D02*
X93492739Y-107680017D01*
X93492739Y-107680017D02*
X93445120Y-107489541D01*
X93445120Y-107489541D02*
X93445120Y-107251446D01*
X93445120Y-107251446D02*
X93492739Y-107060970D01*
X93492739Y-107060970D02*
X93540358Y-106965732D01*
X93540358Y-106965732D02*
X93587977Y-106918113D01*
X93587977Y-106918113D02*
X93683215Y-106870494D01*
X94635596Y-106870494D02*
X94730834Y-106870494D01*
X94730834Y-106870494D02*
X94826072Y-106918113D01*
X94826072Y-106918113D02*
X94873691Y-106965732D01*
X94873691Y-106965732D02*
X94921310Y-107060970D01*
X94921310Y-107060970D02*
X94968929Y-107251446D01*
X94968929Y-107251446D02*
X94968929Y-107489541D01*
X94968929Y-107489541D02*
X94921310Y-107680017D01*
X94921310Y-107680017D02*
X94873691Y-107775255D01*
X94873691Y-107775255D02*
X94826072Y-107822875D01*
X94826072Y-107822875D02*
X94730834Y-107870494D01*
X94730834Y-107870494D02*
X94635596Y-107870494D01*
X94635596Y-107870494D02*
X94540358Y-107822875D01*
X94540358Y-107822875D02*
X94492739Y-107775255D01*
X94492739Y-107775255D02*
X94445120Y-107680017D01*
X94445120Y-107680017D02*
X94397501Y-107489541D01*
X94397501Y-107489541D02*
X94397501Y-107251446D01*
X94397501Y-107251446D02*
X94445120Y-107060970D01*
X94445120Y-107060970D02*
X94492739Y-106965732D01*
X94492739Y-106965732D02*
X94540358Y-106918113D01*
X94540358Y-106918113D02*
X94635596Y-106870494D01*
X95397501Y-107203827D02*
X95397501Y-107870494D01*
X95397501Y-107299065D02*
X95445120Y-107251446D01*
X95445120Y-107251446D02*
X95540358Y-107203827D01*
X95540358Y-107203827D02*
X95683215Y-107203827D01*
X95683215Y-107203827D02*
X95778453Y-107251446D01*
X95778453Y-107251446D02*
X95826072Y-107346684D01*
X95826072Y-107346684D02*
X95826072Y-107870494D01*
X96635596Y-107346684D02*
X96302263Y-107346684D01*
X96302263Y-107870494D02*
X96302263Y-106870494D01*
X96302263Y-106870494D02*
X96778453Y-106870494D01*
X141357378Y-91224762D02*
X141357378Y-91902095D01*
X141166902Y-90837715D02*
X140976425Y-91563429D01*
X140976425Y-91563429D02*
X141471664Y-91563429D01*
X141928807Y-90886095D02*
X142004997Y-90886095D01*
X142004997Y-90886095D02*
X142081188Y-90934476D01*
X142081188Y-90934476D02*
X142119283Y-90982857D01*
X142119283Y-90982857D02*
X142157378Y-91079619D01*
X142157378Y-91079619D02*
X142195473Y-91273143D01*
X142195473Y-91273143D02*
X142195473Y-91515048D01*
X142195473Y-91515048D02*
X142157378Y-91708572D01*
X142157378Y-91708572D02*
X142119283Y-91805334D01*
X142119283Y-91805334D02*
X142081188Y-91853715D01*
X142081188Y-91853715D02*
X142004997Y-91902095D01*
X142004997Y-91902095D02*
X141928807Y-91902095D01*
X141928807Y-91902095D02*
X141852616Y-91853715D01*
X141852616Y-91853715D02*
X141814521Y-91805334D01*
X141814521Y-91805334D02*
X141776426Y-91708572D01*
X141776426Y-91708572D02*
X141738330Y-91515048D01*
X141738330Y-91515048D02*
X141738330Y-91273143D01*
X141738330Y-91273143D02*
X141776426Y-91079619D01*
X141776426Y-91079619D02*
X141814521Y-90982857D01*
X141814521Y-90982857D02*
X141852616Y-90934476D01*
X141852616Y-90934476D02*
X141928807Y-90886095D01*
X144507033Y-82442784D02*
X144840366Y-82442784D01*
X144983223Y-82966594D02*
X144507033Y-82966594D01*
X144507033Y-82966594D02*
X144507033Y-81966594D01*
X144507033Y-81966594D02*
X144983223Y-81966594D01*
X145411795Y-82299927D02*
X145411795Y-82966594D01*
X145411795Y-82395165D02*
X145459414Y-82347546D01*
X145459414Y-82347546D02*
X145554652Y-82299927D01*
X145554652Y-82299927D02*
X145697509Y-82299927D01*
X145697509Y-82299927D02*
X145792747Y-82347546D01*
X145792747Y-82347546D02*
X145840366Y-82442784D01*
X145840366Y-82442784D02*
X145840366Y-82966594D01*
D12*
X41378476Y-83258819D02*
X41378476Y-82258819D01*
X41378476Y-82258819D02*
X41711809Y-82973104D01*
X41711809Y-82973104D02*
X42045142Y-82258819D01*
X42045142Y-82258819D02*
X42045142Y-83258819D01*
X42664190Y-83258819D02*
X42568952Y-83211200D01*
X42568952Y-83211200D02*
X42521333Y-83163580D01*
X42521333Y-83163580D02*
X42473714Y-83068342D01*
X42473714Y-83068342D02*
X42473714Y-82782628D01*
X42473714Y-82782628D02*
X42521333Y-82687390D01*
X42521333Y-82687390D02*
X42568952Y-82639771D01*
X42568952Y-82639771D02*
X42664190Y-82592152D01*
X42664190Y-82592152D02*
X42807047Y-82592152D01*
X42807047Y-82592152D02*
X42902285Y-82639771D01*
X42902285Y-82639771D02*
X42949904Y-82687390D01*
X42949904Y-82687390D02*
X42997523Y-82782628D01*
X42997523Y-82782628D02*
X42997523Y-83068342D01*
X42997523Y-83068342D02*
X42949904Y-83163580D01*
X42949904Y-83163580D02*
X42902285Y-83211200D01*
X42902285Y-83211200D02*
X42807047Y-83258819D01*
X42807047Y-83258819D02*
X42664190Y-83258819D01*
X43283238Y-82592152D02*
X43664190Y-82592152D01*
X43426095Y-82258819D02*
X43426095Y-83115961D01*
X43426095Y-83115961D02*
X43473714Y-83211200D01*
X43473714Y-83211200D02*
X43568952Y-83258819D01*
X43568952Y-83258819D02*
X43664190Y-83258819D01*
X44140381Y-83258819D02*
X44045143Y-83211200D01*
X44045143Y-83211200D02*
X43997524Y-83163580D01*
X43997524Y-83163580D02*
X43949905Y-83068342D01*
X43949905Y-83068342D02*
X43949905Y-82782628D01*
X43949905Y-82782628D02*
X43997524Y-82687390D01*
X43997524Y-82687390D02*
X44045143Y-82639771D01*
X44045143Y-82639771D02*
X44140381Y-82592152D01*
X44140381Y-82592152D02*
X44283238Y-82592152D01*
X44283238Y-82592152D02*
X44378476Y-82639771D01*
X44378476Y-82639771D02*
X44426095Y-82687390D01*
X44426095Y-82687390D02*
X44473714Y-82782628D01*
X44473714Y-82782628D02*
X44473714Y-83068342D01*
X44473714Y-83068342D02*
X44426095Y-83163580D01*
X44426095Y-83163580D02*
X44378476Y-83211200D01*
X44378476Y-83211200D02*
X44283238Y-83258819D01*
X44283238Y-83258819D02*
X44140381Y-83258819D01*
X44902286Y-83258819D02*
X44902286Y-82592152D01*
X44902286Y-82782628D02*
X44949905Y-82687390D01*
X44949905Y-82687390D02*
X44997524Y-82639771D01*
X44997524Y-82639771D02*
X45092762Y-82592152D01*
X45092762Y-82592152D02*
X45188000Y-82592152D01*
X45473715Y-82354057D02*
X45521334Y-82306438D01*
X45521334Y-82306438D02*
X45616572Y-82258819D01*
X45616572Y-82258819D02*
X45854667Y-82258819D01*
X45854667Y-82258819D02*
X45949905Y-82306438D01*
X45949905Y-82306438D02*
X45997524Y-82354057D01*
X45997524Y-82354057D02*
X46045143Y-82449295D01*
X46045143Y-82449295D02*
X46045143Y-82544533D01*
X46045143Y-82544533D02*
X45997524Y-82687390D01*
X45997524Y-82687390D02*
X45426096Y-83258819D01*
X45426096Y-83258819D02*
X46045143Y-83258819D01*
X41886476Y-101292819D02*
X41886476Y-100292819D01*
X41886476Y-100292819D02*
X42219809Y-101007104D01*
X42219809Y-101007104D02*
X42553142Y-100292819D01*
X42553142Y-100292819D02*
X42553142Y-101292819D01*
X43172190Y-101292819D02*
X43076952Y-101245200D01*
X43076952Y-101245200D02*
X43029333Y-101197580D01*
X43029333Y-101197580D02*
X42981714Y-101102342D01*
X42981714Y-101102342D02*
X42981714Y-100816628D01*
X42981714Y-100816628D02*
X43029333Y-100721390D01*
X43029333Y-100721390D02*
X43076952Y-100673771D01*
X43076952Y-100673771D02*
X43172190Y-100626152D01*
X43172190Y-100626152D02*
X43315047Y-100626152D01*
X43315047Y-100626152D02*
X43410285Y-100673771D01*
X43410285Y-100673771D02*
X43457904Y-100721390D01*
X43457904Y-100721390D02*
X43505523Y-100816628D01*
X43505523Y-100816628D02*
X43505523Y-101102342D01*
X43505523Y-101102342D02*
X43457904Y-101197580D01*
X43457904Y-101197580D02*
X43410285Y-101245200D01*
X43410285Y-101245200D02*
X43315047Y-101292819D01*
X43315047Y-101292819D02*
X43172190Y-101292819D01*
X43791238Y-100626152D02*
X44172190Y-100626152D01*
X43934095Y-100292819D02*
X43934095Y-101149961D01*
X43934095Y-101149961D02*
X43981714Y-101245200D01*
X43981714Y-101245200D02*
X44076952Y-101292819D01*
X44076952Y-101292819D02*
X44172190Y-101292819D01*
X44648381Y-101292819D02*
X44553143Y-101245200D01*
X44553143Y-101245200D02*
X44505524Y-101197580D01*
X44505524Y-101197580D02*
X44457905Y-101102342D01*
X44457905Y-101102342D02*
X44457905Y-100816628D01*
X44457905Y-100816628D02*
X44505524Y-100721390D01*
X44505524Y-100721390D02*
X44553143Y-100673771D01*
X44553143Y-100673771D02*
X44648381Y-100626152D01*
X44648381Y-100626152D02*
X44791238Y-100626152D01*
X44791238Y-100626152D02*
X44886476Y-100673771D01*
X44886476Y-100673771D02*
X44934095Y-100721390D01*
X44934095Y-100721390D02*
X44981714Y-100816628D01*
X44981714Y-100816628D02*
X44981714Y-101102342D01*
X44981714Y-101102342D02*
X44934095Y-101197580D01*
X44934095Y-101197580D02*
X44886476Y-101245200D01*
X44886476Y-101245200D02*
X44791238Y-101292819D01*
X44791238Y-101292819D02*
X44648381Y-101292819D01*
X45410286Y-101292819D02*
X45410286Y-100626152D01*
X45410286Y-100816628D02*
X45457905Y-100721390D01*
X45457905Y-100721390D02*
X45505524Y-100673771D01*
X45505524Y-100673771D02*
X45600762Y-100626152D01*
X45600762Y-100626152D02*
X45696000Y-100626152D01*
X46553143Y-101292819D02*
X45981715Y-101292819D01*
X46267429Y-101292819D02*
X46267429Y-100292819D01*
X46267429Y-100292819D02*
X46172191Y-100435676D01*
X46172191Y-100435676D02*
X46076953Y-100530914D01*
X46076953Y-100530914D02*
X45981715Y-100578533D01*
X136937904Y-108897009D02*
X136604571Y-108897009D01*
X136604571Y-109420819D02*
X136604571Y-108420819D01*
X136604571Y-108420819D02*
X137080761Y-108420819D01*
X137890285Y-109420819D02*
X137890285Y-108897009D01*
X137890285Y-108897009D02*
X137842666Y-108801771D01*
X137842666Y-108801771D02*
X137747428Y-108754152D01*
X137747428Y-108754152D02*
X137556952Y-108754152D01*
X137556952Y-108754152D02*
X137461714Y-108801771D01*
X137890285Y-109373200D02*
X137795047Y-109420819D01*
X137795047Y-109420819D02*
X137556952Y-109420819D01*
X137556952Y-109420819D02*
X137461714Y-109373200D01*
X137461714Y-109373200D02*
X137414095Y-109277961D01*
X137414095Y-109277961D02*
X137414095Y-109182723D01*
X137414095Y-109182723D02*
X137461714Y-109087485D01*
X137461714Y-109087485D02*
X137556952Y-109039866D01*
X137556952Y-109039866D02*
X137795047Y-109039866D01*
X137795047Y-109039866D02*
X137890285Y-108992247D01*
X138366476Y-108754152D02*
X138366476Y-109420819D01*
X138366476Y-108849390D02*
X138414095Y-108801771D01*
X138414095Y-108801771D02*
X138509333Y-108754152D01*
X138509333Y-108754152D02*
X138652190Y-108754152D01*
X138652190Y-108754152D02*
X138747428Y-108801771D01*
X138747428Y-108801771D02*
X138795047Y-108897009D01*
X138795047Y-108897009D02*
X138795047Y-109420819D01*
X139795047Y-109420819D02*
X139223619Y-109420819D01*
X139509333Y-109420819D02*
X139509333Y-108420819D01*
X139509333Y-108420819D02*
X139414095Y-108563676D01*
X139414095Y-108563676D02*
X139318857Y-108658914D01*
X139318857Y-108658914D02*
X139223619Y-108706533D01*
X125261904Y-109166819D02*
X125261904Y-108166819D01*
X125261904Y-108643009D02*
X125833332Y-108643009D01*
X125833332Y-109166819D02*
X125833332Y-108166819D01*
X126738094Y-109166819D02*
X126738094Y-108643009D01*
X126738094Y-108643009D02*
X126690475Y-108547771D01*
X126690475Y-108547771D02*
X126595237Y-108500152D01*
X126595237Y-108500152D02*
X126404761Y-108500152D01*
X126404761Y-108500152D02*
X126309523Y-108547771D01*
X126738094Y-109119200D02*
X126642856Y-109166819D01*
X126642856Y-109166819D02*
X126404761Y-109166819D01*
X126404761Y-109166819D02*
X126309523Y-109119200D01*
X126309523Y-109119200D02*
X126261904Y-109023961D01*
X126261904Y-109023961D02*
X126261904Y-108928723D01*
X126261904Y-108928723D02*
X126309523Y-108833485D01*
X126309523Y-108833485D02*
X126404761Y-108785866D01*
X126404761Y-108785866D02*
X126642856Y-108785866D01*
X126642856Y-108785866D02*
X126738094Y-108738247D01*
X127357142Y-109166819D02*
X127261904Y-109119200D01*
X127261904Y-109119200D02*
X127214285Y-109023961D01*
X127214285Y-109023961D02*
X127214285Y-108166819D01*
X127880952Y-109166819D02*
X127785714Y-109119200D01*
X127785714Y-109119200D02*
X127738095Y-109023961D01*
X127738095Y-109023961D02*
X127738095Y-108166819D01*
X128785714Y-109166819D02*
X128214286Y-109166819D01*
X128500000Y-109166819D02*
X128500000Y-108166819D01*
X128500000Y-108166819D02*
X128404762Y-108309676D01*
X128404762Y-108309676D02*
X128309524Y-108404914D01*
X128309524Y-108404914D02*
X128214286Y-108452533D01*
X117475143Y-109420819D02*
X117475143Y-108420819D01*
X117903714Y-109420819D02*
X117903714Y-108897009D01*
X117903714Y-108897009D02*
X117856095Y-108801771D01*
X117856095Y-108801771D02*
X117760857Y-108754152D01*
X117760857Y-108754152D02*
X117618000Y-108754152D01*
X117618000Y-108754152D02*
X117522762Y-108801771D01*
X117522762Y-108801771D02*
X117475143Y-108849390D01*
X118379905Y-109420819D02*
X118379905Y-108420819D01*
X118379905Y-108801771D02*
X118475143Y-108754152D01*
X118475143Y-108754152D02*
X118665619Y-108754152D01*
X118665619Y-108754152D02*
X118760857Y-108801771D01*
X118760857Y-108801771D02*
X118808476Y-108849390D01*
X118808476Y-108849390D02*
X118856095Y-108944628D01*
X118856095Y-108944628D02*
X118856095Y-109230342D01*
X118856095Y-109230342D02*
X118808476Y-109325580D01*
X118808476Y-109325580D02*
X118760857Y-109373200D01*
X118760857Y-109373200D02*
X118665619Y-109420819D01*
X118665619Y-109420819D02*
X118475143Y-109420819D01*
X118475143Y-109420819D02*
X118379905Y-109373200D01*
X119237048Y-108516057D02*
X119284667Y-108468438D01*
X119284667Y-108468438D02*
X119379905Y-108420819D01*
X119379905Y-108420819D02*
X119618000Y-108420819D01*
X119618000Y-108420819D02*
X119713238Y-108468438D01*
X119713238Y-108468438D02*
X119760857Y-108516057D01*
X119760857Y-108516057D02*
X119808476Y-108611295D01*
X119808476Y-108611295D02*
X119808476Y-108706533D01*
X119808476Y-108706533D02*
X119760857Y-108849390D01*
X119760857Y-108849390D02*
X119189429Y-109420819D01*
X119189429Y-109420819D02*
X119808476Y-109420819D01*
X104013143Y-109674819D02*
X104013143Y-108674819D01*
X104441714Y-109674819D02*
X104441714Y-109151009D01*
X104441714Y-109151009D02*
X104394095Y-109055771D01*
X104394095Y-109055771D02*
X104298857Y-109008152D01*
X104298857Y-109008152D02*
X104156000Y-109008152D01*
X104156000Y-109008152D02*
X104060762Y-109055771D01*
X104060762Y-109055771D02*
X104013143Y-109103390D01*
X104917905Y-109674819D02*
X104917905Y-108674819D01*
X104917905Y-109055771D02*
X105013143Y-109008152D01*
X105013143Y-109008152D02*
X105203619Y-109008152D01*
X105203619Y-109008152D02*
X105298857Y-109055771D01*
X105298857Y-109055771D02*
X105346476Y-109103390D01*
X105346476Y-109103390D02*
X105394095Y-109198628D01*
X105394095Y-109198628D02*
X105394095Y-109484342D01*
X105394095Y-109484342D02*
X105346476Y-109579580D01*
X105346476Y-109579580D02*
X105298857Y-109627200D01*
X105298857Y-109627200D02*
X105203619Y-109674819D01*
X105203619Y-109674819D02*
X105013143Y-109674819D01*
X105013143Y-109674819D02*
X104917905Y-109627200D01*
X106346476Y-109674819D02*
X105775048Y-109674819D01*
X106060762Y-109674819D02*
X106060762Y-108674819D01*
X106060762Y-108674819D02*
X105965524Y-108817676D01*
X105965524Y-108817676D02*
X105870286Y-108912914D01*
X105870286Y-108912914D02*
X105775048Y-108960533D01*
X125079333Y-105962819D02*
X125079333Y-104962819D01*
X125507904Y-105962819D02*
X125507904Y-105439009D01*
X125507904Y-105439009D02*
X125460285Y-105343771D01*
X125460285Y-105343771D02*
X125365047Y-105296152D01*
X125365047Y-105296152D02*
X125222190Y-105296152D01*
X125222190Y-105296152D02*
X125126952Y-105343771D01*
X125126952Y-105343771D02*
X125079333Y-105391390D01*
X126412666Y-105962819D02*
X126412666Y-105439009D01*
X126412666Y-105439009D02*
X126365047Y-105343771D01*
X126365047Y-105343771D02*
X126269809Y-105296152D01*
X126269809Y-105296152D02*
X126079333Y-105296152D01*
X126079333Y-105296152D02*
X125984095Y-105343771D01*
X126412666Y-105915200D02*
X126317428Y-105962819D01*
X126317428Y-105962819D02*
X126079333Y-105962819D01*
X126079333Y-105962819D02*
X125984095Y-105915200D01*
X125984095Y-105915200D02*
X125936476Y-105819961D01*
X125936476Y-105819961D02*
X125936476Y-105724723D01*
X125936476Y-105724723D02*
X125984095Y-105629485D01*
X125984095Y-105629485D02*
X126079333Y-105581866D01*
X126079333Y-105581866D02*
X126317428Y-105581866D01*
X126317428Y-105581866D02*
X126412666Y-105534247D01*
X127031714Y-105962819D02*
X126936476Y-105915200D01*
X126936476Y-105915200D02*
X126888857Y-105819961D01*
X126888857Y-105819961D02*
X126888857Y-104962819D01*
X127555524Y-105962819D02*
X127460286Y-105915200D01*
X127460286Y-105915200D02*
X127412667Y-105819961D01*
X127412667Y-105819961D02*
X127412667Y-104962819D01*
X127888858Y-105058057D02*
X127936477Y-105010438D01*
X127936477Y-105010438D02*
X128031715Y-104962819D01*
X128031715Y-104962819D02*
X128269810Y-104962819D01*
X128269810Y-104962819D02*
X128365048Y-105010438D01*
X128365048Y-105010438D02*
X128412667Y-105058057D01*
X128412667Y-105058057D02*
X128460286Y-105153295D01*
X128460286Y-105153295D02*
X128460286Y-105248533D01*
X128460286Y-105248533D02*
X128412667Y-105391390D01*
X128412667Y-105391390D02*
X127841239Y-105962819D01*
X127841239Y-105962819D02*
X128460286Y-105962819D01*
X77670819Y-107418094D02*
X76670819Y-107418094D01*
X76670819Y-107418094D02*
X76670819Y-107179999D01*
X76670819Y-107179999D02*
X76718438Y-107037142D01*
X76718438Y-107037142D02*
X76813676Y-106941904D01*
X76813676Y-106941904D02*
X76908914Y-106894285D01*
X76908914Y-106894285D02*
X77099390Y-106846666D01*
X77099390Y-106846666D02*
X77242247Y-106846666D01*
X77242247Y-106846666D02*
X77432723Y-106894285D01*
X77432723Y-106894285D02*
X77527961Y-106941904D01*
X77527961Y-106941904D02*
X77623200Y-107037142D01*
X77623200Y-107037142D02*
X77670819Y-107179999D01*
X77670819Y-107179999D02*
X77670819Y-107418094D01*
X77670819Y-105894285D02*
X77670819Y-106465713D01*
X77670819Y-106179999D02*
X76670819Y-106179999D01*
X76670819Y-106179999D02*
X76813676Y-106275237D01*
X76813676Y-106275237D02*
X76908914Y-106370475D01*
X76908914Y-106370475D02*
X76956533Y-106465713D01*
X98853857Y-100880152D02*
X99091952Y-101546819D01*
X99091952Y-101546819D02*
X99330047Y-100880152D01*
X100139571Y-101546819D02*
X100139571Y-100546819D01*
X100139571Y-101499200D02*
X100044333Y-101546819D01*
X100044333Y-101546819D02*
X99853857Y-101546819D01*
X99853857Y-101546819D02*
X99758619Y-101499200D01*
X99758619Y-101499200D02*
X99711000Y-101451580D01*
X99711000Y-101451580D02*
X99663381Y-101356342D01*
X99663381Y-101356342D02*
X99663381Y-101070628D01*
X99663381Y-101070628D02*
X99711000Y-100975390D01*
X99711000Y-100975390D02*
X99758619Y-100927771D01*
X99758619Y-100927771D02*
X99853857Y-100880152D01*
X99853857Y-100880152D02*
X100044333Y-100880152D01*
X100044333Y-100880152D02*
X100139571Y-100927771D01*
X100377667Y-101642057D02*
X101139571Y-101642057D01*
X101377667Y-101546819D02*
X101377667Y-100880152D01*
X101377667Y-101070628D02*
X101425286Y-100975390D01*
X101425286Y-100975390D02*
X101472905Y-100927771D01*
X101472905Y-100927771D02*
X101568143Y-100880152D01*
X101568143Y-100880152D02*
X101663381Y-100880152D01*
X102520524Y-101546819D02*
X101949096Y-101546819D01*
X102234810Y-101546819D02*
X102234810Y-100546819D01*
X102234810Y-100546819D02*
X102139572Y-100689676D01*
X102139572Y-100689676D02*
X102044334Y-100784914D01*
X102044334Y-100784914D02*
X101949096Y-100832533D01*
X80684952Y-79194819D02*
X80684952Y-78194819D01*
X81161142Y-78528152D02*
X81161142Y-79194819D01*
X81161142Y-78623390D02*
X81208761Y-78575771D01*
X81208761Y-78575771D02*
X81303999Y-78528152D01*
X81303999Y-78528152D02*
X81446856Y-78528152D01*
X81446856Y-78528152D02*
X81542094Y-78575771D01*
X81542094Y-78575771D02*
X81589713Y-78671009D01*
X81589713Y-78671009D02*
X81589713Y-79194819D01*
X82065904Y-78528152D02*
X82065904Y-79528152D01*
X82065904Y-78575771D02*
X82161142Y-78528152D01*
X82161142Y-78528152D02*
X82351618Y-78528152D01*
X82351618Y-78528152D02*
X82446856Y-78575771D01*
X82446856Y-78575771D02*
X82494475Y-78623390D01*
X82494475Y-78623390D02*
X82542094Y-78718628D01*
X82542094Y-78718628D02*
X82542094Y-79004342D01*
X82542094Y-79004342D02*
X82494475Y-79099580D01*
X82494475Y-79099580D02*
X82446856Y-79147200D01*
X82446856Y-79147200D02*
X82351618Y-79194819D01*
X82351618Y-79194819D02*
X82161142Y-79194819D01*
X82161142Y-79194819D02*
X82065904Y-79147200D01*
X83399237Y-78528152D02*
X83399237Y-79194819D01*
X82970666Y-78528152D02*
X82970666Y-79051961D01*
X82970666Y-79051961D02*
X83018285Y-79147200D01*
X83018285Y-79147200D02*
X83113523Y-79194819D01*
X83113523Y-79194819D02*
X83256380Y-79194819D01*
X83256380Y-79194819D02*
X83351618Y-79147200D01*
X83351618Y-79147200D02*
X83399237Y-79099580D01*
X83732571Y-78528152D02*
X84113523Y-78528152D01*
X83875428Y-78194819D02*
X83875428Y-79051961D01*
X83875428Y-79051961D02*
X83923047Y-79147200D01*
X83923047Y-79147200D02*
X84018285Y-79194819D01*
X84018285Y-79194819D02*
X84113523Y-79194819D01*
X84970666Y-79194819D02*
X84399238Y-79194819D01*
X84684952Y-79194819D02*
X84684952Y-78194819D01*
X84684952Y-78194819D02*
X84589714Y-78337676D01*
X84589714Y-78337676D02*
X84494476Y-78432914D01*
X84494476Y-78432914D02*
X84399238Y-78480533D01*
X145105619Y-111148019D02*
X145105619Y-110148019D01*
X145534190Y-110243257D02*
X145581809Y-110195638D01*
X145581809Y-110195638D02*
X145677047Y-110148019D01*
X145677047Y-110148019D02*
X145915142Y-110148019D01*
X145915142Y-110148019D02*
X146010380Y-110195638D01*
X146010380Y-110195638D02*
X146057999Y-110243257D01*
X146057999Y-110243257D02*
X146105618Y-110338495D01*
X146105618Y-110338495D02*
X146105618Y-110433733D01*
X146105618Y-110433733D02*
X146057999Y-110576590D01*
X146057999Y-110576590D02*
X145486571Y-111148019D01*
X145486571Y-111148019D02*
X146105618Y-111148019D01*
X147105618Y-111052780D02*
X147057999Y-111100400D01*
X147057999Y-111100400D02*
X146915142Y-111148019D01*
X146915142Y-111148019D02*
X146819904Y-111148019D01*
X146819904Y-111148019D02*
X146677047Y-111100400D01*
X146677047Y-111100400D02*
X146581809Y-111005161D01*
X146581809Y-111005161D02*
X146534190Y-110909923D01*
X146534190Y-110909923D02*
X146486571Y-110719447D01*
X146486571Y-110719447D02*
X146486571Y-110576590D01*
X146486571Y-110576590D02*
X146534190Y-110386114D01*
X146534190Y-110386114D02*
X146581809Y-110290876D01*
X146581809Y-110290876D02*
X146677047Y-110195638D01*
X146677047Y-110195638D02*
X146819904Y-110148019D01*
X146819904Y-110148019D02*
X146915142Y-110148019D01*
X146915142Y-110148019D02*
X147057999Y-110195638D01*
X147057999Y-110195638D02*
X147105618Y-110243257D01*
X148057999Y-111148019D02*
X147486571Y-111148019D01*
X147772285Y-111148019D02*
X147772285Y-110148019D01*
X147772285Y-110148019D02*
X147677047Y-110290876D01*
X147677047Y-110290876D02*
X147581809Y-110386114D01*
X147581809Y-110386114D02*
X147486571Y-110433733D01*
D10*
%TO.C,Motor2*%
X40540200Y-95552001D02*
X45290001Y-95552001D01*
X40540200Y-85392001D02*
X40540200Y-95552001D01*
X45290001Y-85392001D02*
X40540200Y-85392001D01*
X45290001Y-95552001D02*
X45290001Y-85392001D01*
%TO.C,Motor1*%
X40489400Y-112062001D02*
X45239201Y-112062001D01*
X40489400Y-101902001D02*
X40489400Y-112062001D01*
X45239201Y-101902001D02*
X40489400Y-101902001D01*
X45239201Y-112062001D02*
X45239201Y-101902001D01*
%TO.C,Fan1*%
X143106399Y-115974600D02*
X143106399Y-111224799D01*
X132946399Y-115974600D02*
X143106399Y-115974600D01*
X132946399Y-111224799D02*
X132946399Y-115974600D01*
X143106399Y-111224799D02*
X132946399Y-111224799D01*
%TO.C,Hall1*%
X122516501Y-111323001D02*
X122516501Y-116123601D01*
X130720701Y-111323001D02*
X122516501Y-111323001D01*
X130720701Y-116123601D02*
X130720701Y-111323001D01*
X122516501Y-116123601D02*
X130720701Y-116123601D01*
D13*
%TO.C,hb2*%
X115430000Y-111500000D02*
X121330000Y-111500000D01*
X115430000Y-116000000D02*
X115430000Y-111500000D01*
X121330000Y-111500000D02*
X121330000Y-116000000D01*
X121330000Y-116000000D02*
X115430000Y-116000000D01*
%TO.C,hb1*%
X98032000Y-111754000D02*
X111932000Y-111754000D01*
X98032000Y-116254000D02*
X98032000Y-111754000D01*
X111932000Y-111754000D02*
X111932000Y-116254000D01*
X111932000Y-116254000D02*
X98032000Y-116254000D01*
D14*
%TO.C,hall2*%
X126484748Y-107923000D02*
X127007252Y-107923000D01*
X126484748Y-106453000D02*
X127007252Y-106453000D01*
%TO.C,J1*%
X103566000Y-78438000D02*
X103566000Y-76438000D01*
X103566000Y-74538000D02*
X103566000Y-72638000D01*
X103566000Y-72638000D02*
X94166000Y-72638000D01*
X94166000Y-78438000D02*
X94166000Y-76438000D01*
X94166000Y-74538000D02*
X94166000Y-72638000D01*
%TO.C,U2*%
X104723500Y-86128000D02*
X104253500Y-85788000D01*
X104723500Y-85448000D01*
X104723500Y-86128000D01*
G36*
X104723500Y-86128000D02*
G01*
X104253500Y-85788000D01*
X104723500Y-85448000D01*
X104723500Y-86128000D01*
G37*
X104563500Y-93938000D02*
X104563500Y-87518000D01*
X104563500Y-87518000D02*
X104293500Y-87518000D01*
X97663500Y-93938000D02*
X97663500Y-87518000D01*
X97663500Y-87518000D02*
X97933500Y-87518000D01*
%TO.C,U4*%
X119300000Y-79515000D02*
X118800000Y-79515000D01*
X119300000Y-79015000D01*
X119300000Y-79515000D01*
G36*
X119300000Y-79515000D02*
G01*
X118800000Y-79515000D01*
X119300000Y-79015000D01*
X119300000Y-79515000D01*
G37*
X137700000Y-98490000D02*
X137700000Y-97490000D01*
X137700000Y-98490000D02*
X136200000Y-98490000D01*
X137700000Y-72640000D02*
X137700000Y-78840000D01*
X119300000Y-98490000D02*
X120800000Y-98490000D01*
X119300000Y-97490000D02*
X119300000Y-98490000D01*
X119300000Y-72640000D02*
X137700000Y-72640000D01*
X119300000Y-72640000D02*
X119300000Y-78840000D01*
%TO.C,D1*%
X78106000Y-103710000D02*
X78106000Y-109220000D01*
X81406000Y-103710000D02*
X78106000Y-103710000D01*
X81406000Y-103710000D02*
X81406000Y-109220000D01*
%TO.C,mccap2*%
X113065000Y-81261252D02*
X113065000Y-80738748D01*
X114535000Y-81261252D02*
X114535000Y-80738748D01*
%TO.C,R_En1*%
X139465000Y-85227064D02*
X139465000Y-84772936D01*
X140935000Y-85227064D02*
X140935000Y-84772936D01*
%TO.C,D4*%
X105767000Y-80999000D02*
X108227000Y-80999000D01*
X108227000Y-79529000D02*
X105767000Y-79529000D01*
X108227000Y-80999000D02*
X108227000Y-79529000D01*
%TO.C,J3*%
X141080000Y-92408000D02*
X142240000Y-92408000D01*
X141080000Y-93218000D02*
X141080000Y-92408000D01*
X141080000Y-94028000D02*
X141080000Y-97773000D01*
X141080000Y-94028000D02*
X141573292Y-94028000D01*
X141080000Y-97773000D02*
X141922077Y-97773000D01*
X142557923Y-97773000D02*
X143400000Y-97773000D01*
X142906708Y-94028000D02*
X143400000Y-94028000D01*
X143400000Y-94028000D02*
X143400000Y-97773000D01*
%TO.C,vd_r1*%
X95785000Y-98330000D02*
X96115000Y-98330000D01*
X95785000Y-104870000D02*
X95785000Y-98330000D01*
X96115000Y-104870000D02*
X95785000Y-104870000D01*
X98195000Y-104870000D02*
X98525000Y-104870000D01*
X98525000Y-98330000D02*
X98195000Y-98330000D01*
X98525000Y-104870000D02*
X98525000Y-98330000D01*
%TO.C,Rails1*%
X44458000Y-72740400D02*
X44458000Y-80780400D01*
X44458000Y-72740400D02*
X75198000Y-72740400D01*
X44458000Y-76360400D02*
X45698000Y-76360400D01*
X44458000Y-77360400D02*
X45698000Y-77360400D01*
X44458000Y-78660400D02*
X45698000Y-78660400D01*
X44458000Y-80780400D02*
X47278000Y-80780400D01*
X47878000Y-80780400D02*
X75198000Y-80780400D01*
X49458000Y-76360400D02*
X50766000Y-76360400D01*
X49458000Y-77360400D02*
X50766000Y-77360400D01*
X49458000Y-78660400D02*
X52035000Y-78660400D01*
X53121000Y-78660400D02*
X57035000Y-78660400D01*
X54390000Y-76360400D02*
X55766000Y-76360400D01*
X54390000Y-77360400D02*
X55766000Y-77360400D01*
X58121000Y-78660400D02*
X62035000Y-78660400D01*
X59390000Y-76360400D02*
X60766000Y-76360400D01*
X59390000Y-77360400D02*
X60766000Y-77360400D01*
X63121000Y-78660400D02*
X67035000Y-78660400D01*
X64390000Y-76360400D02*
X65766000Y-76360400D01*
X64390000Y-77360400D02*
X65766000Y-77360400D01*
X68121000Y-78660400D02*
X72035000Y-78660400D01*
X69390000Y-76360400D02*
X70766000Y-76360400D01*
X69390000Y-77360400D02*
X70766000Y-77360400D01*
X73121000Y-78660400D02*
X75198000Y-78660400D01*
X74390000Y-76360400D02*
X75198000Y-76360400D01*
X74390000Y-77360400D02*
X75198000Y-77360400D01*
X75198000Y-72740400D02*
X75198000Y-80780400D01*
X48018000Y-81390400D02*
X47138000Y-81390400D01*
X47578000Y-80780400D01*
X48018000Y-81390400D01*
G36*
X48018000Y-81390400D02*
G01*
X47138000Y-81390400D01*
X47578000Y-80780400D01*
X48018000Y-81390400D01*
G37*
%TO.C,Motor_2*%
X54734000Y-84208000D02*
X54734000Y-99708000D01*
X54734000Y-99708000D02*
X75314000Y-99708000D01*
X72644000Y-84208000D02*
X54734000Y-84208000D01*
X72644000Y-86878000D02*
X54734000Y-86878000D01*
X72644000Y-86878000D02*
X72644000Y-84208000D01*
X75314000Y-84208000D02*
X73914000Y-84208000D01*
X75314000Y-85608000D02*
X75314000Y-84208000D01*
X75314000Y-86878000D02*
X72644000Y-86878000D01*
X75314000Y-97038000D02*
X54734000Y-97038000D01*
X75314000Y-99708000D02*
X75314000Y-86878000D01*
%TO.C,R2*%
X107434136Y-82627800D02*
X107888264Y-82627800D01*
X107434136Y-84097800D02*
X107888264Y-84097800D01*
D13*
%TO.C,Input1*%
X78854000Y-72722000D02*
X84754000Y-72722000D01*
X78854000Y-77222000D02*
X78854000Y-72722000D01*
X84754000Y-72722000D02*
X84754000Y-77222000D01*
X84754000Y-77222000D02*
X78854000Y-77222000D01*
D14*
%TO.C,J2*%
X144890000Y-92535000D02*
X146050000Y-92535000D01*
X144890000Y-93345000D02*
X144890000Y-92535000D01*
X144890000Y-94155000D02*
X144890000Y-97900000D01*
X144890000Y-94155000D02*
X145383292Y-94155000D01*
X144890000Y-97900000D02*
X145732077Y-97900000D01*
X146367923Y-97900000D02*
X147210000Y-97900000D01*
X146716708Y-94155000D02*
X147210000Y-94155000D01*
X147210000Y-94155000D02*
X147210000Y-97900000D01*
%TO.C,motorc1*%
X47136000Y-105610437D02*
X47136000Y-111366000D01*
X47136000Y-111366000D02*
X49486000Y-111366000D01*
X48200437Y-104546000D02*
X47136000Y-105610437D01*
X48200437Y-104546000D02*
X49486000Y-104546000D01*
X52393500Y-103518500D02*
X52393500Y-104306000D01*
X52787250Y-103912250D02*
X51999750Y-103912250D01*
X52891563Y-104546000D02*
X51606000Y-104546000D01*
X52891563Y-104546000D02*
X53956000Y-105610437D01*
X53956000Y-105610437D02*
X53956000Y-111366000D01*
X53956000Y-111366000D02*
X51606000Y-111366000D01*
D15*
%TO.C,U3*%
X85996000Y-89640000D02*
X85996000Y-92710000D01*
X96396000Y-89640000D02*
X85996000Y-89640000D01*
X96396000Y-94240000D02*
X96396000Y-89640000D01*
D14*
%TO.C,vd_c2*%
X90431252Y-106580000D02*
X89908748Y-106580000D01*
X90431252Y-108050000D02*
X89908748Y-108050000D01*
%TO.C,motorc2*%
X46882000Y-87830437D02*
X46882000Y-93586000D01*
X46882000Y-93586000D02*
X49232000Y-93586000D01*
X47946437Y-86766000D02*
X46882000Y-87830437D01*
X47946437Y-86766000D02*
X49232000Y-86766000D01*
X52139500Y-85738500D02*
X52139500Y-86526000D01*
X52533250Y-86132250D02*
X51745750Y-86132250D01*
X52637563Y-86766000D02*
X51352000Y-86766000D01*
X52637563Y-86766000D02*
X53702000Y-87830437D01*
X53702000Y-87830437D02*
X53702000Y-93586000D01*
X53702000Y-93586000D02*
X51352000Y-93586000D01*
%TO.C,vd_c1*%
X91813748Y-103405000D02*
X92336252Y-103405000D01*
X91813748Y-104875000D02*
X92336252Y-104875000D01*
%TO.C,R7*%
X134596200Y-104655864D02*
X134596200Y-104201736D01*
X136066200Y-104655864D02*
X136066200Y-104201736D01*
%TO.C,R_boot1*%
X139265000Y-88972936D02*
X139265000Y-89427064D01*
X140735000Y-88972936D02*
X140735000Y-89427064D01*
%TO.C,Motor_1*%
X54734000Y-100464000D02*
X54734000Y-115964000D01*
X54734000Y-115964000D02*
X75314000Y-115964000D01*
X72644000Y-100464000D02*
X54734000Y-100464000D01*
X72644000Y-103134000D02*
X54734000Y-103134000D01*
X72644000Y-103134000D02*
X72644000Y-100464000D01*
X75314000Y-100464000D02*
X73914000Y-100464000D01*
X75314000Y-101864000D02*
X75314000Y-100464000D01*
X75314000Y-103134000D02*
X72644000Y-103134000D01*
X75314000Y-113294000D02*
X54734000Y-113294000D01*
X75314000Y-115964000D02*
X75314000Y-103134000D01*
%TO.C,R4*%
X141047800Y-101115864D02*
X141047800Y-100661736D01*
X142517800Y-101115864D02*
X142517800Y-100661736D01*
%TO.C,R6*%
X87894936Y-78967000D02*
X88349064Y-78967000D01*
X87894936Y-77497000D02*
X88349064Y-77497000D01*
%TO.C,C2*%
X139879400Y-81207152D02*
X139879400Y-80684648D01*
X141349400Y-81207152D02*
X141349400Y-80684648D01*
%TO.C,Dpower1*%
X88314000Y-80392000D02*
X82804000Y-80392000D01*
X88314000Y-83692000D02*
X82804000Y-83692000D01*
X88314000Y-83692000D02*
X88314000Y-80392000D01*
%TO.C,R5*%
X140946200Y-105163864D02*
X140946200Y-104709736D01*
X142416200Y-105163864D02*
X142416200Y-104709736D01*
%TO.C,5Vout1*%
X90196000Y-83846000D02*
X90196000Y-85046000D01*
X90196000Y-88366000D02*
X90196000Y-87166000D01*
X93651563Y-83846000D02*
X90196000Y-83846000D01*
X93651563Y-88366000D02*
X90196000Y-88366000D01*
X94716000Y-84910437D02*
X93651563Y-83846000D01*
X94716000Y-84910437D02*
X94716000Y-85046000D01*
X94716000Y-87301563D02*
X93651563Y-88366000D01*
X94716000Y-87301563D02*
X94716000Y-87166000D01*
X95206000Y-87916000D02*
X95206000Y-87416000D01*
X95456000Y-87666000D02*
X94956000Y-87666000D01*
%TO.C,C1*%
X142079400Y-81207152D02*
X142079400Y-80684648D01*
X143549400Y-81207152D02*
X143549400Y-80684648D01*
D13*
%TO.C,Therm1*%
X88067600Y-111703200D02*
X93967600Y-111703200D01*
X88067600Y-116203200D02*
X88067600Y-111703200D01*
X93967600Y-111703200D02*
X93967600Y-116203200D01*
X93967600Y-116203200D02*
X88067600Y-116203200D01*
D14*
%TO.C,5Vin1*%
X77108000Y-87578000D02*
X77108000Y-89928000D01*
X77108000Y-94398000D02*
X77108000Y-92048000D01*
X82863563Y-87578000D02*
X77108000Y-87578000D01*
X82863563Y-94398000D02*
X77108000Y-94398000D01*
X83928000Y-88642437D02*
X82863563Y-87578000D01*
X83928000Y-88642437D02*
X83928000Y-89928000D01*
X83928000Y-93333563D02*
X82863563Y-94398000D01*
X83928000Y-93333563D02*
X83928000Y-92048000D01*
X84561750Y-93229250D02*
X84561750Y-92441750D01*
X84955500Y-92835500D02*
X84168000Y-92835500D01*
D13*
%TO.C,Mos1*%
X78752400Y-111144400D02*
X84652400Y-111144400D01*
X78752400Y-115644400D02*
X78752400Y-111144400D01*
X84652400Y-111144400D02*
X84652400Y-115644400D01*
X84652400Y-115644400D02*
X78752400Y-115644400D01*
D14*
%TO.C,3v3in1*%
X83458000Y-95396000D02*
X83458000Y-97746000D01*
X83458000Y-102216000D02*
X83458000Y-99866000D01*
X89213563Y-95396000D02*
X83458000Y-95396000D01*
X89213563Y-102216000D02*
X83458000Y-102216000D01*
X90278000Y-96460437D02*
X89213563Y-95396000D01*
X90278000Y-96460437D02*
X90278000Y-97746000D01*
X90278000Y-101151563D02*
X89213563Y-102216000D01*
X90278000Y-101151563D02*
X90278000Y-99866000D01*
X90911750Y-101047250D02*
X90911750Y-100259750D01*
X91305500Y-100653500D02*
X90518000Y-100653500D01*
D10*
%TO.C,I2C1*%
X143166199Y-99491800D02*
X143166199Y-109651800D01*
X143166199Y-109651800D02*
X147916000Y-109651800D01*
X147916000Y-99491800D02*
X143166199Y-99491800D01*
X147916000Y-109651800D02*
X147916000Y-99491800D01*
D14*
%TO.C,mccap1*%
X116113000Y-81170252D02*
X116113000Y-80647748D01*
X117583000Y-81170252D02*
X117583000Y-80647748D01*
D13*
%TO.C,En1*%
X142800000Y-83550000D02*
X146800000Y-83550000D01*
X142800000Y-83780000D02*
X142800000Y-83550000D01*
X142800000Y-86450000D02*
X142800000Y-86220000D01*
X146800000Y-83550000D02*
X146800000Y-83780000D01*
X146800000Y-86450000D02*
X142800000Y-86450000D01*
X146800000Y-86450000D02*
X146800000Y-86220000D01*
D14*
%TO.C,R3*%
X110447064Y-80999000D02*
X109992936Y-80999000D01*
X110447064Y-79529000D02*
X109992936Y-79529000D01*
%TO.C,3v3out1*%
X105926000Y-87228000D02*
X107126000Y-87228000D01*
X105926000Y-90683563D02*
X105926000Y-87228000D01*
X106376000Y-92238000D02*
X106876000Y-92238000D01*
X106626000Y-92488000D02*
X106626000Y-91988000D01*
X106990437Y-91748000D02*
X105926000Y-90683563D01*
X106990437Y-91748000D02*
X107126000Y-91748000D01*
X109381563Y-91748000D02*
X109246000Y-91748000D01*
X109381563Y-91748000D02*
X110446000Y-90683563D01*
X110446000Y-87228000D02*
X109246000Y-87228000D01*
X110446000Y-90683563D02*
X110446000Y-87228000D01*
D13*
%TO.C,Boot1*%
X142800000Y-87350000D02*
X146800000Y-87350000D01*
X142800000Y-87580000D02*
X142800000Y-87350000D01*
X142800000Y-90250000D02*
X142800000Y-90020000D01*
X146800000Y-87350000D02*
X146800000Y-87580000D01*
X146800000Y-90250000D02*
X142800000Y-90250000D01*
X146800000Y-90250000D02*
X146800000Y-90020000D01*
D14*
%TO.C,mosfet4*%
X83276000Y-108282500D02*
X83276000Y-107632500D01*
X83276000Y-108282500D02*
X83276000Y-108932500D01*
X86396000Y-108282500D02*
X86396000Y-107632500D01*
X86396000Y-108282500D02*
X86396000Y-108932500D01*
X86676000Y-107360000D02*
X86346000Y-107120000D01*
X86676000Y-106880000D01*
X86676000Y-107360000D01*
G36*
X86676000Y-107360000D02*
G01*
X86346000Y-107120000D01*
X86676000Y-106880000D01*
X86676000Y-107360000D01*
G37*
%TO.C,D5*%
X89911000Y-76681000D02*
X89911000Y-75211000D01*
X89911000Y-75211000D02*
X87451000Y-75211000D01*
X87451000Y-76681000D02*
X89911000Y-76681000D01*
%TO.C,tr3*%
X85571064Y-103659000D02*
X85116936Y-103659000D01*
X85571064Y-105129000D02*
X85116936Y-105129000D01*
%TO.C,R1*%
X96413064Y-82253000D02*
X95958936Y-82253000D01*
X96413064Y-83723000D02*
X95958936Y-83723000D01*
%TD*%
%LPC*%
D16*
%TO.C,Motor2*%
X42367200Y-87472002D03*
X42367200Y-89472000D03*
X42367200Y-91472001D03*
X42367200Y-93472000D03*
%TD*%
%TO.C,Motor1*%
X42316400Y-103982002D03*
X42316400Y-105982000D03*
X42316400Y-107982001D03*
X42316400Y-109982000D03*
%TD*%
%TO.C,Fan1*%
X135026400Y-114147600D03*
X137026398Y-114147600D03*
X139026399Y-114147600D03*
X141026398Y-114147600D03*
%TD*%
%TO.C,Hall1*%
X124593601Y-114300000D03*
X126593600Y-114300000D03*
X128593601Y-114300000D03*
%TD*%
D17*
%TO.C,hb2*%
X119380000Y-114300000D03*
D18*
X117380000Y-114300000D03*
%TD*%
D17*
%TO.C,hb1*%
X109982000Y-114554000D03*
D18*
X107982000Y-114554000D03*
X105982000Y-114554000D03*
X103982000Y-114554000D03*
X101982000Y-114554000D03*
X99982000Y-114554000D03*
%TD*%
D19*
%TO.C,hall2*%
X127783500Y-107188000D03*
X125708500Y-107188000D03*
%TD*%
D20*
%TO.C,J1*%
X94546000Y-75488000D03*
D21*
X94546000Y-79668000D03*
D20*
X103186000Y-75488000D03*
D21*
X103186000Y-79668000D03*
D22*
X102116000Y-80583000D03*
X101316000Y-80583000D03*
D23*
X100616000Y-80583000D03*
X99616000Y-80583000D03*
X98116000Y-80583000D03*
X97116000Y-80583000D03*
D22*
X96416000Y-80583000D03*
X95616000Y-80583000D03*
X95616000Y-80583000D03*
X96416000Y-80583000D03*
D23*
X97616000Y-80583000D03*
X98616000Y-80583000D03*
X99116000Y-80583000D03*
X100116000Y-80583000D03*
D22*
X101316000Y-80583000D03*
X102116000Y-80583000D03*
D24*
X95976000Y-79138000D03*
X101756000Y-79138000D03*
%TD*%
D25*
%TO.C,U2*%
X98833500Y-85788000D03*
D26*
X101113500Y-92088000D03*
D25*
X101113500Y-85788000D03*
X103393500Y-85788000D03*
%TD*%
D27*
%TO.C,U4*%
X128400000Y-88700000D03*
X128400000Y-87300000D03*
X127700000Y-89400000D03*
X127700000Y-88000000D03*
X127700000Y-86600000D03*
X127000000Y-88700000D03*
D28*
X127000000Y-88000000D03*
D27*
X127000000Y-87300000D03*
X126300000Y-89400000D03*
X126300000Y-88000000D03*
X126300000Y-86600000D03*
X125600000Y-88700000D03*
X125600000Y-87300000D03*
D29*
X137250000Y-80280000D03*
X137250000Y-81550000D03*
X137250000Y-82820000D03*
X137250000Y-84090000D03*
X137250000Y-85360000D03*
X137250000Y-86630000D03*
X137250000Y-87900000D03*
X137250000Y-89170000D03*
X137250000Y-90440000D03*
X137250000Y-91710000D03*
X137250000Y-92980000D03*
X137250000Y-94250000D03*
X137250000Y-95520000D03*
X137250000Y-96790000D03*
D30*
X135485000Y-98040000D03*
X134215000Y-98040000D03*
X132945000Y-98040000D03*
X131675000Y-98040000D03*
X130405000Y-98040000D03*
X129135000Y-98040000D03*
X127865000Y-98040000D03*
X126595000Y-98040000D03*
X125325000Y-98040000D03*
X124055000Y-98040000D03*
X122785000Y-98040000D03*
X121515000Y-98040000D03*
D29*
X119750000Y-96790000D03*
X119750000Y-95520000D03*
X119750000Y-94250000D03*
X119750000Y-92980000D03*
X119750000Y-91710000D03*
X119750000Y-90440000D03*
X119750000Y-89170000D03*
X119750000Y-87900000D03*
X119750000Y-86630000D03*
X119750000Y-85360000D03*
X119750000Y-84090000D03*
X119750000Y-82820000D03*
X119750000Y-81550000D03*
X119750000Y-80280000D03*
%TD*%
D31*
%TO.C,D1*%
X79756000Y-105220000D03*
X79756000Y-109220000D03*
%TD*%
D32*
%TO.C,mccap2*%
X113800000Y-82037500D03*
X113800000Y-79962500D03*
%TD*%
D33*
%TO.C,R_En1*%
X140200000Y-86000000D03*
X140200000Y-84000000D03*
%TD*%
D34*
%TO.C,D4*%
X107442000Y-80264000D03*
X105692000Y-80264000D03*
%TD*%
D35*
%TO.C,J3*%
X142240000Y-93218000D03*
D36*
X142240000Y-94488000D03*
X142240000Y-95758000D03*
X142240000Y-97028000D03*
%TD*%
D37*
%TO.C,vd_r1*%
X97155000Y-105410000D03*
D38*
X97155000Y-97790000D03*
%TD*%
D39*
%TO.C,Rails1*%
X47578000Y-76860400D03*
D40*
X52578000Y-76860400D03*
X57578000Y-76860400D03*
X62578000Y-76860400D03*
X67578000Y-76860400D03*
X72578000Y-76860400D03*
%TD*%
D41*
%TO.C,Motor_2*%
X73914000Y-85608000D03*
D38*
X71374000Y-85608000D03*
X68834000Y-85608000D03*
X66294000Y-85608000D03*
X63754000Y-85608000D03*
X61214000Y-85608000D03*
X58674000Y-85608000D03*
X56134000Y-85608000D03*
X56134000Y-98308000D03*
X58674000Y-98308000D03*
X61214000Y-98308000D03*
X63754000Y-98308000D03*
X66294000Y-98308000D03*
X68834000Y-98308000D03*
X71374000Y-98308000D03*
X73914000Y-98308000D03*
%TD*%
D42*
%TO.C,R2*%
X106661200Y-83362800D03*
X108661200Y-83362800D03*
%TD*%
D43*
%TO.C,Input1*%
X80804000Y-74422000D03*
D18*
X82804000Y-74422000D03*
%TD*%
D35*
%TO.C,J2*%
X146050000Y-93345000D03*
D36*
X146050000Y-94615000D03*
X146050000Y-95885000D03*
X146050000Y-97155000D03*
%TD*%
D44*
%TO.C,motorc1*%
X50546000Y-105156000D03*
X50546000Y-110756000D03*
%TD*%
D45*
%TO.C,*%
X145592800Y-114046000D03*
%TD*%
%TO.C,*%
X42824400Y-80314800D03*
%TD*%
D46*
%TO.C,U3*%
X88646000Y-92710000D03*
D47*
X91196000Y-92710000D03*
X93746000Y-92710000D03*
%TD*%
D48*
%TO.C,vd_c2*%
X91207500Y-107315000D03*
X89132500Y-107315000D03*
%TD*%
D44*
%TO.C,motorc2*%
X50292000Y-87376000D03*
X50292000Y-92976000D03*
%TD*%
D19*
%TO.C,vd_c1*%
X91037500Y-104140000D03*
X93112500Y-104140000D03*
%TD*%
D33*
%TO.C,R7*%
X135331200Y-105428800D03*
X135331200Y-103428800D03*
%TD*%
D49*
%TO.C,R_boot1*%
X140000000Y-88200000D03*
X140000000Y-90200000D03*
%TD*%
D41*
%TO.C,Motor_1*%
X73914000Y-101864000D03*
D38*
X71374000Y-101864000D03*
X68834000Y-101864000D03*
X66294000Y-101864000D03*
X63754000Y-101864000D03*
X61214000Y-101864000D03*
X58674000Y-101864000D03*
X56134000Y-101864000D03*
X56134000Y-114564000D03*
X58674000Y-114564000D03*
X61214000Y-114564000D03*
X63754000Y-114564000D03*
X66294000Y-114564000D03*
X68834000Y-114564000D03*
X71374000Y-114564000D03*
X73914000Y-114564000D03*
%TD*%
D33*
%TO.C,R4*%
X141782800Y-101888800D03*
X141782800Y-99888800D03*
%TD*%
D42*
%TO.C,R6*%
X87122000Y-78232000D03*
X89122000Y-78232000D03*
%TD*%
D32*
%TO.C,C2*%
X140614400Y-81983400D03*
X140614400Y-79908400D03*
%TD*%
D50*
%TO.C,Dpower1*%
X86804000Y-82042000D03*
X82804000Y-82042000D03*
%TD*%
D33*
%TO.C,R5*%
X141681200Y-105936800D03*
X141681200Y-103936800D03*
%TD*%
D51*
%TO.C,5Vout1*%
X94256000Y-86106000D03*
X90656000Y-86106000D03*
%TD*%
D32*
%TO.C,C1*%
X142814400Y-81983400D03*
X142814400Y-79908400D03*
%TD*%
D17*
%TO.C,Therm1*%
X92017600Y-114503200D03*
D18*
X90017600Y-114503200D03*
%TD*%
D52*
%TO.C,5Vin1*%
X83318000Y-90988000D03*
X77718000Y-90988000D03*
%TD*%
D17*
%TO.C,Mos1*%
X82702400Y-113944400D03*
D18*
X80702400Y-113944400D03*
%TD*%
D52*
%TO.C,3v3in1*%
X89668000Y-98806000D03*
X84068000Y-98806000D03*
%TD*%
D16*
%TO.C,I2C1*%
X146089000Y-101571801D03*
X146089000Y-103571800D03*
X146089000Y-105571801D03*
X146089000Y-107571799D03*
%TD*%
D32*
%TO.C,mccap1*%
X116848000Y-81946500D03*
X116848000Y-79871500D03*
%TD*%
D53*
%TO.C,En1*%
X142725000Y-85000000D03*
X146875000Y-85000000D03*
%TD*%
D45*
%TO.C,*%
X145592800Y-80416400D03*
%TD*%
D54*
%TO.C,R3*%
X111220000Y-80264000D03*
X109220000Y-80264000D03*
%TD*%
D55*
%TO.C,3v3out1*%
X108186000Y-91288000D03*
X108186000Y-87688000D03*
%TD*%
D53*
%TO.C,Boot1*%
X142725000Y-88800000D03*
X146875000Y-88800000D03*
%TD*%
D56*
%TO.C,mosfet4*%
X85786000Y-107345000D03*
X83886000Y-107345000D03*
X84836000Y-109220000D03*
%TD*%
D34*
%TO.C,D5*%
X89126000Y-75946000D03*
X87376000Y-75946000D03*
%TD*%
D45*
%TO.C,*%
X42824400Y-114046000D03*
%TD*%
D54*
%TO.C,tr3*%
X86344000Y-104394000D03*
X84344000Y-104394000D03*
%TD*%
%TO.C,R1*%
X97186000Y-82988000D03*
X95186000Y-82988000D03*
%TD*%
%LPD*%
M02*
