M48
; DRILL file {KiCad 9.0.1} date 2026-04-13T18:53:09-0700
; FORMAT={-:-/ absolute / inch / decimal}
; #@! TF.CreationDate,2026-04-13T18:53:09-07:00
; #@! TF.GenerationSoftware,Kicad,Pcbnew,9.0.1
; #@! TF.FileFunction,Plated,1,2,PTH
FMAT,2
INCH
; #@! TA.AperFunction,Plated,PTH,ComponentDrill
T1C0.0079
; #@! TA.AperFunction,Plated,PTH,ViaDrill
T2C0.0118
; #@! TA.AperFunction,Plated,PTH,ViaDrill
T3C0.0197
; #@! TA.AperFunction,Plated,PTH,ComponentDrill
T4C0.0236
; #@! TA.AperFunction,Plated,PTH,ViaDrill
T5C0.0276
; #@! TA.AperFunction,Plated,PTH,ComponentDrill
T6C0.0315
; #@! TA.AperFunction,Plated,PTH,ComponentDrill
T7C0.0512
%
G90
G05
T1
X5.5303Y-2.7564
X5.5303Y-2.8115
X5.5579Y-2.7288
X5.5579Y-2.7839
X5.5579Y-2.8391
X5.5854Y-2.7564
X5.5854Y-2.8115
X5.613Y-2.7288
X5.613Y-2.7839
X5.613Y-2.8391
X5.6406Y-2.7564
X5.6406Y-2.8115
T2
X4.3589Y-1.1394
X4.3589Y-1.5794
X4.3589Y-2.0194
X4.3589Y-2.4394
X4.64Y-0.94
X4.6654Y-2.4016
X4.7441Y-1.5354
X4.7441Y-1.5748
X4.88Y-0.9383
X4.88Y-2.46
X5.0Y-2.46
X5.12Y-2.46
X5.1476Y-1.1238
X5.1575Y-1.3189
X5.2362Y-3.0709
X5.2362Y-3.1299
X5.2994Y-2.4836
X5.4035Y-1.1238
X5.4528Y-1.378
X5.6098Y-1.38
X5.68Y-4.0
X5.8302Y-1.38
X5.9Y-2.9
X5.9783Y-2.4756
X5.9843Y-3.1299
X6.0236Y-3.6024
X6.3584Y-1.4498
X6.36Y-1.03
X6.36Y-1.2702
X6.48Y-2.84
X6.7174Y-4.1862
X6.7309Y-1.0236
X6.8109Y-1.62
X6.8717Y-1.4087
X7.1187Y-1.4
X7.16Y-1.6
X7.16Y-4.2031
X7.6774Y-4.1862
T3
X5.5984Y-4.9816
X6.46Y-4.74
X6.54Y-4.06
X6.62Y-3.68
X6.9195Y-1.0039
X7.28Y-3.2102
X7.6395Y-1.52
T5
X7.4209Y-1.0957
T6
X5.78Y-4.12
X6.08Y-4.12
X6.27Y-2.8992
X6.27Y-3.3992
X6.37Y-2.8992
X6.37Y-3.3992
X6.47Y-2.8992
X6.47Y-3.3992
X6.57Y-2.8992
X6.57Y-3.3992
X6.67Y-2.8992
X6.67Y-3.3992
X6.77Y-2.8992
X6.77Y-3.3992
X6.87Y-2.8992
X6.87Y-3.3992
X6.9531Y-1.8362
X6.9531Y-2.3362
X6.97Y-2.8992
X6.97Y-3.3992
X7.0531Y-1.8362
X7.0531Y-2.3362
X7.1531Y-1.8362
X7.1531Y-2.3362
X7.2531Y-1.8362
X7.2531Y-2.3362
X7.3531Y-1.8362
X7.3531Y-2.3362
X7.4531Y-1.8362
X7.4531Y-2.3362
X7.5531Y-1.8362
X7.5531Y-2.3362
X7.6531Y-1.8362
X7.6531Y-2.3362
T7
X4.2Y-2.7883
X4.2Y-2.9852
X4.2Y-3.182
X4.2Y-3.3789
X4.2Y-3.5757
X4.2Y-3.7726
X4.2Y-3.9694
X4.2Y-4.1663
X4.2Y-4.3631
X4.2Y-4.56
X4.2Y-4.7569
X4.5126Y-4.88
X4.7094Y-4.88
X4.9063Y-4.88
X5.1031Y-4.88
X5.3Y-4.88
X5.4969Y-4.88
X5.6717Y-0.9213
X5.8686Y-0.9213
X6.1717Y-0.9213
X6.3686Y-0.9213
T4
G00X5.1055Y-0.935
M15
G01X5.1055Y-0.9114
M16
G05
G00X5.1055Y-1.1094
M15
G01X5.1055Y-1.0661
M16
G05
G00X5.4457Y-0.935
M15
G01X5.4457Y-0.9114
M16
G05
G00X5.4457Y-1.1094
M15
G01X5.4457Y-1.0661
M16
G05
M30
