%TF.GenerationSoftware,KiCad,Pcbnew,9.0.1*%
%TF.CreationDate,2026-07-24T10:20:40-07:00*%
%TF.ProjectId,V67_cycletron,5636375f-6379-4636-9c65-74726f6e2e6b,rev?*%
%TF.SameCoordinates,Original*%
%TF.FileFunction,Soldermask,Top*%
%TF.FilePolarity,Negative*%
%FSLAX46Y46*%
G04 Gerber Fmt 4.6, Leading zero omitted, Abs format (unit mm)*
G04 Created by KiCad (PCBNEW 9.0.1) date 2026-07-24 10:20:40*
%MOMM*%
%LPD*%
G01*
G04 APERTURE LIST*
G04 Aperture macros list*
%AMRoundRect*
0 Rectangle with rounded corners*
0 $1 Rounding radius*
0 $2 $3 $4 $5 $6 $7 $8 $9 X,Y pos of 4 corners*
0 Add a 4 corners polygon primitive as box body*
4,1,4,$2,$3,$4,$5,$6,$7,$8,$9,$2,$3,0*
0 Add four circle primitives for the rounded corners*
1,1,$1+$1,$2,$3*
1,1,$1+$1,$4,$5*
1,1,$1+$1,$6,$7*
1,1,$1+$1,$8,$9*
0 Add four rect primitives between the rounded corners*
20,1,$1+$1,$2,$3,$4,$5,0*
20,1,$1+$1,$4,$5,$6,$7,0*
20,1,$1+$1,$6,$7,$8,$9,0*
20,1,$1+$1,$8,$9,$2,$3,0*%
G04 Aperture macros list end*
%ADD10C,1.320800*%
%ADD11RoundRect,0.250000X-0.550000X1.500000X-0.550000X-1.500000X0.550000X-1.500000X0.550000X1.500000X0*%
%ADD12RoundRect,0.250000X-0.650000X1.000000X-0.650000X-1.000000X0.650000X-1.000000X0.650000X1.000000X0*%
%ADD13RoundRect,0.250000X0.475000X-0.337500X0.475000X0.337500X-0.475000X0.337500X-0.475000X-0.337500X0*%
%ADD14RoundRect,0.250000X0.450000X-0.350000X0.450000X0.350000X-0.450000X0.350000X-0.450000X-0.350000X0*%
%ADD15RoundRect,0.237500X0.287500X0.237500X-0.287500X0.237500X-0.287500X-0.237500X0.287500X-0.237500X0*%
%ADD16R,1.000000X1.000000*%
%ADD17C,1.000000*%
%ADD18C,1.600000*%
%ADD19O,1.600000X1.600000*%
%ADD20RoundRect,0.250001X-1.149999X-1.149999X1.149999X-1.149999X1.149999X1.149999X-1.149999X1.149999X0*%
%ADD21C,2.800000*%
%ADD22R,1.600000X1.600000*%
%ADD23RoundRect,0.250000X-0.350000X-0.450000X0.350000X-0.450000X0.350000X0.450000X-0.350000X0.450000X0*%
%ADD24RoundRect,0.102000X0.654000X0.654000X-0.654000X0.654000X-0.654000X-0.654000X0.654000X-0.654000X0*%
%ADD25C,1.512000*%
%ADD26RoundRect,0.250000X-0.337500X-0.475000X0.337500X-0.475000X0.337500X0.475000X-0.337500X0.475000X0*%
%ADD27R,1.980000X1.980000*%
%ADD28C,1.980000*%
%ADD29RoundRect,0.250000X0.337500X0.475000X-0.337500X0.475000X-0.337500X-0.475000X0.337500X-0.475000X0*%
%ADD30RoundRect,0.102000X-0.654000X-0.654000X0.654000X-0.654000X0.654000X0.654000X-0.654000X0.654000X0*%
%ADD31R,0.600000X1.450000*%
%ADD32R,0.300000X1.450000*%
%ADD33O,1.000000X2.100000*%
%ADD34O,1.000000X1.600000*%
%ADD35RoundRect,0.250000X-0.450000X0.350000X-0.450000X-0.350000X0.450000X-0.350000X0.450000X0.350000X0*%
%ADD36RoundRect,0.250000X1.000000X0.650000X-1.000000X0.650000X-1.000000X-0.650000X1.000000X-0.650000X0*%
%ADD37RoundRect,0.250000X-0.350000X0.850000X-0.350000X-0.850000X0.350000X-0.850000X0.350000X0.850000X0*%
%ADD38RoundRect,0.249997X-2.650003X2.950003X-2.650003X-2.950003X2.650003X-2.950003X2.650003X2.950003X0*%
%ADD39RoundRect,0.250000X1.050000X0.550000X-1.050000X0.550000X-1.050000X-0.550000X1.050000X-0.550000X0*%
%ADD40RoundRect,0.250000X1.500000X0.550000X-1.500000X0.550000X-1.500000X-0.550000X1.500000X-0.550000X0*%
%ADD41RoundRect,0.102000X-0.675000X-0.900000X0.675000X-0.900000X0.675000X0.900000X-0.675000X0.900000X0*%
%ADD42RoundRect,0.250000X0.350000X0.450000X-0.350000X0.450000X-0.350000X-0.450000X0.350000X-0.450000X0*%
%ADD43R,1.500000X0.900000*%
%ADD44R,0.900000X1.500000*%
%ADD45C,0.600000*%
%ADD46R,3.900000X3.900000*%
%ADD47RoundRect,0.250000X0.550000X-1.050000X0.550000X1.050000X-0.550000X1.050000X-0.550000X-1.050000X0*%
%ADD48RoundRect,0.150000X0.587500X0.150000X-0.587500X0.150000X-0.587500X-0.150000X0.587500X-0.150000X0*%
G04 APERTURE END LIST*
D10*
%TO.C,Motor1*%
X39116000Y-102616000D03*
X39116000Y-104615998D03*
X39116000Y-106615999D03*
X39116000Y-108615998D03*
%TD*%
D11*
%TO.C,motorc1*%
X49022000Y-110242000D03*
X49022000Y-104642000D03*
%TD*%
D10*
%TO.C,Motor2*%
X39370000Y-86614000D03*
X39370000Y-88613998D03*
X39370000Y-90613999D03*
X39370000Y-92613998D03*
%TD*%
D12*
%TO.C,D1*%
X79756000Y-105220000D03*
X79756000Y-109220000D03*
%TD*%
D13*
%TO.C,mccap2*%
X113800000Y-82037500D03*
X113800000Y-79962500D03*
%TD*%
D14*
%TO.C,R_En1*%
X140200000Y-86000000D03*
X140200000Y-84000000D03*
%TD*%
D15*
%TO.C,D4*%
X107442000Y-80264000D03*
X105692000Y-80264000D03*
%TD*%
D16*
%TO.C,J3*%
X142240000Y-93218000D03*
D17*
X142240000Y-94488000D03*
X142240000Y-95758000D03*
X142240000Y-97028000D03*
%TD*%
D18*
%TO.C,vd_r1*%
X100838000Y-107442000D03*
D19*
X100838000Y-99822000D03*
%TD*%
D20*
%TO.C,Rails1*%
X47440000Y-76421500D03*
D21*
X52440000Y-76421500D03*
X57440000Y-76421500D03*
X62440000Y-76421500D03*
X67440000Y-76421500D03*
X72440000Y-76421500D03*
%TD*%
D22*
%TO.C,Motor_2*%
X73914000Y-85608000D03*
D19*
X71374000Y-85608000D03*
X68834000Y-85608000D03*
X66294000Y-85608000D03*
X63754000Y-85608000D03*
X61214000Y-85608000D03*
X58674000Y-85608000D03*
X56134000Y-85608000D03*
X56134000Y-98308000D03*
X58674000Y-98308000D03*
X61214000Y-98308000D03*
X63754000Y-98308000D03*
X66294000Y-98308000D03*
X68834000Y-98308000D03*
X71374000Y-98308000D03*
X73914000Y-98308000D03*
%TD*%
D23*
%TO.C,R2*%
X106661200Y-83362800D03*
X108661200Y-83362800D03*
%TD*%
D24*
%TO.C,Input1*%
X80804000Y-74422000D03*
D25*
X82804000Y-74422000D03*
%TD*%
D16*
%TO.C,J2*%
X146050000Y-93345000D03*
D17*
X146050000Y-94615000D03*
X146050000Y-95885000D03*
X146050000Y-97155000D03*
%TD*%
D26*
%TO.C,hall2*%
X125708500Y-107188000D03*
X127783500Y-107188000D03*
%TD*%
D27*
%TO.C,U3*%
X88646000Y-92710000D03*
D28*
X91196000Y-92710000D03*
X93746000Y-92710000D03*
%TD*%
D29*
%TO.C,vd_c2*%
X95525500Y-108458000D03*
X93450500Y-108458000D03*
%TD*%
D30*
%TO.C,hb1*%
X109982000Y-114554000D03*
D25*
X107982000Y-114554000D03*
X105982000Y-114554000D03*
X103982000Y-114554000D03*
X101982000Y-114554000D03*
X99982000Y-114554000D03*
%TD*%
D10*
%TO.C,Fan1*%
X141026398Y-114147600D03*
X139026399Y-114147600D03*
X137026398Y-114147600D03*
X135026400Y-114147600D03*
%TD*%
%TO.C,Hall1*%
X128593601Y-114300000D03*
X126593600Y-114300000D03*
X124593601Y-114300000D03*
%TD*%
D11*
%TO.C,motorc2*%
X49022000Y-87364000D03*
X49022000Y-92964000D03*
%TD*%
D13*
%TO.C,vd_c1*%
X103886000Y-105939500D03*
X103886000Y-103864500D03*
%TD*%
D14*
%TO.C,R7*%
X135331200Y-105428800D03*
X135331200Y-103428800D03*
%TD*%
D30*
%TO.C,hb2*%
X119380000Y-114300000D03*
D25*
X117380000Y-114300000D03*
%TD*%
D31*
%TO.C,J1*%
X102116000Y-80583000D03*
X101316000Y-80583000D03*
D32*
X100116000Y-80583000D03*
X99116000Y-80583000D03*
X98616000Y-80583000D03*
X97616000Y-80583000D03*
D31*
X96416000Y-80583000D03*
X95616000Y-80583000D03*
X95616000Y-80583000D03*
X96416000Y-80583000D03*
D32*
X97116000Y-80583000D03*
X98116000Y-80583000D03*
X99616000Y-80583000D03*
X100616000Y-80583000D03*
D31*
X101316000Y-80583000D03*
X102116000Y-80583000D03*
D33*
X103186000Y-79668000D03*
D34*
X103186000Y-75488000D03*
D33*
X94546000Y-79668000D03*
D34*
X94546000Y-75488000D03*
%TD*%
D35*
%TO.C,R_boot1*%
X140000000Y-88200000D03*
X140000000Y-90200000D03*
%TD*%
D22*
%TO.C,Motor_1*%
X73914000Y-101864000D03*
D19*
X71374000Y-101864000D03*
X68834000Y-101864000D03*
X66294000Y-101864000D03*
X63754000Y-101864000D03*
X61214000Y-101864000D03*
X58674000Y-101864000D03*
X56134000Y-101864000D03*
X56134000Y-114564000D03*
X58674000Y-114564000D03*
X61214000Y-114564000D03*
X63754000Y-114564000D03*
X66294000Y-114564000D03*
X68834000Y-114564000D03*
X71374000Y-114564000D03*
X73914000Y-114564000D03*
%TD*%
D14*
%TO.C,R4*%
X141782800Y-101888800D03*
X141782800Y-99888800D03*
%TD*%
D23*
%TO.C,R6*%
X87122000Y-78232000D03*
X89122000Y-78232000D03*
%TD*%
D13*
%TO.C,C2*%
X140614400Y-81983400D03*
X140614400Y-79908400D03*
%TD*%
D36*
%TO.C,Dpower1*%
X86804000Y-82042000D03*
X82804000Y-82042000D03*
%TD*%
D37*
%TO.C,U2*%
X103393500Y-85788000D03*
X101113500Y-85788000D03*
D38*
X101113500Y-92088000D03*
D37*
X98833500Y-85788000D03*
%TD*%
D14*
%TO.C,R5*%
X141681200Y-105936800D03*
X141681200Y-103936800D03*
%TD*%
D39*
%TO.C,5Vout1*%
X94256000Y-86106000D03*
X90656000Y-86106000D03*
%TD*%
D13*
%TO.C,C1*%
X142814400Y-81983400D03*
X142814400Y-79908400D03*
%TD*%
D30*
%TO.C,Therm1*%
X92017600Y-114503200D03*
D25*
X90017600Y-114503200D03*
%TD*%
D11*
%TO.C,5Vin1*%
X80772000Y-87878000D03*
X80772000Y-93478000D03*
%TD*%
D30*
%TO.C,Mos1*%
X82702400Y-113944400D03*
D25*
X80702400Y-113944400D03*
%TD*%
D40*
%TO.C,3v3in1*%
X93478000Y-100330000D03*
X87878000Y-100330000D03*
%TD*%
D10*
%TO.C,I2C1*%
X146089000Y-101571801D03*
X146089000Y-103571800D03*
X146089000Y-105571801D03*
X146089000Y-107571799D03*
%TD*%
D13*
%TO.C,mccap1*%
X116848000Y-81946500D03*
X116848000Y-79871500D03*
%TD*%
D41*
%TO.C,En1*%
X142725000Y-85000000D03*
X146875000Y-85000000D03*
%TD*%
D42*
%TO.C,R3*%
X111220000Y-80264000D03*
X109220000Y-80264000D03*
%TD*%
D43*
%TO.C,U4*%
X119750000Y-80280000D03*
X119750000Y-81550000D03*
X119750000Y-82820000D03*
X119750000Y-84090000D03*
X119750000Y-85360000D03*
X119750000Y-86630000D03*
X119750000Y-87900000D03*
X119750000Y-89170000D03*
X119750000Y-90440000D03*
X119750000Y-91710000D03*
X119750000Y-92980000D03*
X119750000Y-94250000D03*
X119750000Y-95520000D03*
X119750000Y-96790000D03*
D44*
X121515000Y-98040000D03*
X122785000Y-98040000D03*
X124055000Y-98040000D03*
X125325000Y-98040000D03*
X126595000Y-98040000D03*
X127865000Y-98040000D03*
X129135000Y-98040000D03*
X130405000Y-98040000D03*
X131675000Y-98040000D03*
X132945000Y-98040000D03*
X134215000Y-98040000D03*
X135485000Y-98040000D03*
D43*
X137250000Y-96790000D03*
X137250000Y-95520000D03*
X137250000Y-94250000D03*
X137250000Y-92980000D03*
X137250000Y-91710000D03*
X137250000Y-90440000D03*
X137250000Y-89170000D03*
X137250000Y-87900000D03*
X137250000Y-86630000D03*
X137250000Y-85360000D03*
X137250000Y-84090000D03*
X137250000Y-82820000D03*
X137250000Y-81550000D03*
X137250000Y-80280000D03*
D45*
X125600000Y-87300000D03*
X125600000Y-88700000D03*
X126300000Y-86600000D03*
X126300000Y-88000000D03*
X126300000Y-89400000D03*
X127000000Y-87300000D03*
D46*
X127000000Y-88000000D03*
D45*
X127000000Y-88700000D03*
X127700000Y-86600000D03*
X127700000Y-88000000D03*
X127700000Y-89400000D03*
X128400000Y-87300000D03*
X128400000Y-88700000D03*
%TD*%
D47*
%TO.C,3v3out1*%
X108186000Y-91288000D03*
X108186000Y-87688000D03*
%TD*%
D41*
%TO.C,Boot1*%
X142725000Y-88800000D03*
X146875000Y-88800000D03*
%TD*%
D48*
%TO.C,mosfet4*%
X86281500Y-108646000D03*
X86281500Y-106746000D03*
X84406500Y-107696000D03*
%TD*%
D15*
%TO.C,D5*%
X89126000Y-75946000D03*
X87376000Y-75946000D03*
%TD*%
D35*
%TO.C,tr3*%
X89408000Y-107966000D03*
X89408000Y-109966000D03*
%TD*%
D42*
%TO.C,R1*%
X97186000Y-82988000D03*
X95186000Y-82988000D03*
%TD*%
M02*
