M48
; DRILL file KiCad 10.0.5 date 2026-09-04T15:37:05
; FORMAT={-:-/ absolute / inch / decimal}
; #@! TF.CreationDate,2026-09-04T15:37:05-07:00
; #@! TF.GenerationSoftware,Kicad,Pcbnew,10.0.5
; #@! TF.FileFunction,Plated,1,4,PTH
FMAT,2
INCH
; #@! TA.AperFunction,Plated,PTH,ComponentDrill
T1C0.0079
; #@! TA.AperFunction,Plated,PTH,ViaDrill
T2C0.0118
; #@! TA.AperFunction,Plated,PTH,ViaDrill
T3C0.0157
; #@! TA.AperFunction,Plated,PTH,ComponentDrill
T4C0.0236
; #@! TA.AperFunction,Plated,PTH,ComponentDrill
T5C0.0315
; #@! TA.AperFunction,Plated,PTH,ComponentDrill
T6C0.0394
; #@! TA.AperFunction,Plated,PTH,ComponentDrill
T7C0.0433
; #@! TA.AperFunction,Plated,PTH,ComponentDrill
T8C0.0512
; #@! TA.AperFunction,Plated,PTH,ComponentDrill
T9C0.0520
%
G90
G05
T1
X4.9449Y-3.437
X4.9449Y-3.4921
X4.9724Y-3.4094
X4.9724Y-3.4646
X4.9724Y-3.5197
X5.0Y-3.437
X5.0Y-3.4921
X5.0276Y-3.4094
X5.0276Y-3.4646
X5.0276Y-3.5197
X5.0551Y-3.437
X5.0551Y-3.4921
T2
X1.93Y-4.34
X1.9488Y-3.7106
X3.1496Y-3.9862
X3.189Y-3.7303
X3.5382Y-3.1313
X3.6201Y-3.9567
X3.7475Y-3.2672
X3.7644Y-3.1726
X3.9291Y-3.9488
X3.95Y-3.224
X3.98Y-3.38
X3.9808Y-3.6255
X4.0203Y-3.1726
X4.0706Y-3.3775
X4.0709Y-3.9488
X4.1611Y-3.16
X4.1993Y-3.2835
X4.278Y-3.282
X4.3787Y-3.16
X4.4291Y-3.2283
X4.4803Y-3.1481
X4.6003Y-3.1445
X4.6003Y-3.2262
X4.626Y-4.4178
X4.626Y-4.4995
X4.714Y-3.46
X4.7146Y-3.1606
X4.7146Y-3.2106
X4.7146Y-3.2606
X4.7146Y-3.3106
X4.7146Y-3.3606
X4.7146Y-3.4106
X4.7146Y-3.5106
X4.7146Y-3.5606
X4.7146Y-3.6106
X4.7146Y-3.6606
X4.7146Y-3.7106
X4.7841Y-3.8598
X4.8341Y-3.8598
X4.8841Y-3.8598
X4.9341Y-3.8598
X4.9841Y-3.8598
X5.1483Y-4.3898
X5.2283Y-4.3898
X5.3937Y-4.3819
X5.4035Y-3.1606
X5.4803Y-3.1339
X5.538Y-3.146
X5.6191Y-3.4961
X5.6226Y-3.146
X5.7835Y-3.7283
X5.7844Y-3.8855
T3
X5.0709Y-4.3976
X5.2018Y-4.2441
X5.2756Y-3.3661
X5.3346Y-3.8583
X5.4035Y-3.2106
X5.4035Y-3.8106
X5.4232Y-4.0453
X5.502Y-3.3071
X5.502Y-3.3858
X5.6112Y-3.3543
X5.7825Y-3.4961
X5.874Y-3.5197
X5.876Y-3.439
X5.9646Y-3.3563
T5
X2.21Y-3.3704
X2.21Y-3.8704
X2.21Y-4.0104
X2.21Y-4.5104
X2.31Y-3.3704
X2.31Y-3.8704
X2.31Y-4.0104
X2.31Y-4.5104
X2.41Y-3.3704
X2.41Y-3.8704
X2.41Y-4.0104
X2.41Y-4.5104
X2.51Y-3.3704
X2.51Y-3.8704
X2.51Y-4.0104
X2.51Y-4.5104
X2.61Y-3.3704
X2.61Y-3.8704
X2.61Y-4.0104
X2.61Y-4.5104
X2.71Y-3.3704
X2.71Y-3.8704
X2.71Y-4.0104
X2.71Y-4.5104
X2.81Y-3.3704
X2.81Y-3.8704
X2.81Y-4.0104
X2.81Y-4.5104
X2.91Y-3.3704
X2.91Y-3.8704
X2.91Y-4.0104
X2.91Y-4.5104
X5.1571Y-3.9961
X5.4571Y-3.9961
T6
X1.5748Y-3.4031
X1.5748Y-3.5031
X1.5748Y-3.6031
X1.5748Y-3.7031
X1.5748Y-4.0224
X1.5748Y-4.1224
X1.5748Y-4.2224
X1.5748Y-4.3224
X3.1825Y-4.5197
X3.2825Y-4.5197
X4.2071Y-4.4055
X4.2071Y-4.5055
X4.3071Y-4.4055
X4.3071Y-4.5055
X4.4071Y-4.4055
X4.4071Y-4.5055
X4.5071Y-4.4055
X4.5071Y-4.5055
X4.7528Y-4.5039
X4.8528Y-4.5039
X4.9528Y-4.5039
X5.1077Y-4.5079
X5.2077Y-4.5079
X5.4693Y-4.4921
X5.5693Y-4.4921
X5.6693Y-4.4921
X5.7185Y-4.123
X5.7185Y-4.223
X5.7693Y-4.4921
X5.9252Y-3.6484
X5.9252Y-3.7484
X5.9252Y-3.8484
X5.9252Y-3.9484
X5.9293Y-4.1285
X5.9293Y-4.2285
T7
X3.6457Y-4.378
X3.7457Y-4.378
X3.8457Y-4.378
T8
X1.8504Y-3.0315
X2.0472Y-3.0315
X2.2441Y-3.0315
X2.4409Y-3.0315
X2.6378Y-3.0315
X2.8346Y-3.0315
X3.1496Y-3.0204
X3.3465Y-3.0204
T9
X3.49Y-3.65
X3.5904Y-3.65
X3.6908Y-3.65
T4
G00X3.7223Y-2.9838
M15
G01X3.7223Y-2.9602
M16
G05
G00X3.7223Y-3.1582
M15
G01X3.7223Y-3.1149
M16
G05
G00X4.0624Y-2.9838
M15
G01X4.0624Y-2.9602
M16
G05
G00X4.0624Y-3.1582
M15
G01X4.0624Y-3.1149
M16
G05
M30
