%TF.GenerationSoftware,KiCad,Pcbnew,9.0.1*%
%TF.CreationDate,2026-07-24T10:20:40-07:00*%
%TF.ProjectId,V67_cycletron,5636375f-6379-4636-9c65-74726f6e2e6b,rev?*%
%TF.SameCoordinates,Original*%
%TF.FileFunction,Paste,Top*%
%TF.FilePolarity,Positive*%
%FSLAX46Y46*%
G04 Gerber Fmt 4.6, Leading zero omitted, Abs format (unit mm)*
G04 Created by KiCad (PCBNEW 9.0.1) date 2026-07-24 10:20:40*
%MOMM*%
%LPD*%
G01*
G04 APERTURE LIST*
G04 Aperture macros list*
%AMRoundRect*
0 Rectangle with rounded corners*
0 $1 Rounding radius*
0 $2 $3 $4 $5 $6 $7 $8 $9 X,Y pos of 4 corners*
0 Add a 4 corners polygon primitive as box body*
4,1,4,$2,$3,$4,$5,$6,$7,$8,$9,$2,$3,0*
0 Add four circle primitives for the rounded corners*
1,1,$1+$1,$2,$3*
1,1,$1+$1,$4,$5*
1,1,$1+$1,$6,$7*
1,1,$1+$1,$8,$9*
0 Add four rect primitives between the rounded corners*
20,1,$1+$1,$2,$3,$4,$5,0*
20,1,$1+$1,$4,$5,$6,$7,0*
20,1,$1+$1,$6,$7,$8,$9,0*
20,1,$1+$1,$8,$9,$2,$3,0*%
G04 Aperture macros list end*
%ADD10RoundRect,0.250000X-0.550000X1.500000X-0.550000X-1.500000X0.550000X-1.500000X0.550000X1.500000X0*%
%ADD11RoundRect,0.250000X-0.650000X1.000000X-0.650000X-1.000000X0.650000X-1.000000X0.650000X1.000000X0*%
%ADD12RoundRect,0.250000X0.475000X-0.337500X0.475000X0.337500X-0.475000X0.337500X-0.475000X-0.337500X0*%
%ADD13RoundRect,0.250000X0.450000X-0.350000X0.450000X0.350000X-0.450000X0.350000X-0.450000X-0.350000X0*%
%ADD14RoundRect,0.237500X0.287500X0.237500X-0.287500X0.237500X-0.287500X-0.237500X0.287500X-0.237500X0*%
%ADD15RoundRect,0.250000X-0.350000X-0.450000X0.350000X-0.450000X0.350000X0.450000X-0.350000X0.450000X0*%
%ADD16RoundRect,0.250000X-0.337500X-0.475000X0.337500X-0.475000X0.337500X0.475000X-0.337500X0.475000X0*%
%ADD17RoundRect,0.250000X0.337500X0.475000X-0.337500X0.475000X-0.337500X-0.475000X0.337500X-0.475000X0*%
%ADD18R,0.600000X1.450000*%
%ADD19R,0.300000X1.450000*%
%ADD20RoundRect,0.250000X-0.450000X0.350000X-0.450000X-0.350000X0.450000X-0.350000X0.450000X0.350000X0*%
%ADD21RoundRect,0.250000X1.000000X0.650000X-1.000000X0.650000X-1.000000X-0.650000X1.000000X-0.650000X0*%
%ADD22RoundRect,0.250000X-1.125000X1.275000X-1.125000X-1.275000X1.125000X-1.275000X1.125000X1.275000X0*%
%ADD23RoundRect,0.250000X-0.350000X0.850000X-0.350000X-0.850000X0.350000X-0.850000X0.350000X0.850000X0*%
%ADD24RoundRect,0.250000X1.050000X0.550000X-1.050000X0.550000X-1.050000X-0.550000X1.050000X-0.550000X0*%
%ADD25RoundRect,0.250000X1.500000X0.550000X-1.500000X0.550000X-1.500000X-0.550000X1.500000X-0.550000X0*%
%ADD26R,1.350000X1.800000*%
%ADD27RoundRect,0.250000X0.350000X0.450000X-0.350000X0.450000X-0.350000X-0.450000X0.350000X-0.450000X0*%
%ADD28R,0.900000X0.900000*%
%ADD29R,1.500000X0.900000*%
%ADD30R,0.900000X1.500000*%
%ADD31RoundRect,0.250000X0.550000X-1.050000X0.550000X1.050000X-0.550000X1.050000X-0.550000X-1.050000X0*%
%ADD32RoundRect,0.150000X0.587500X0.150000X-0.587500X0.150000X-0.587500X-0.150000X0.587500X-0.150000X0*%
G04 APERTURE END LIST*
D10*
%TO.C,motorc1*%
X49022000Y-110242000D03*
X49022000Y-104642000D03*
%TD*%
D11*
%TO.C,D1*%
X79756000Y-105220000D03*
X79756000Y-109220000D03*
%TD*%
D12*
%TO.C,mccap2*%
X113800000Y-82037500D03*
X113800000Y-79962500D03*
%TD*%
D13*
%TO.C,R_En1*%
X140200000Y-86000000D03*
X140200000Y-84000000D03*
%TD*%
D14*
%TO.C,D4*%
X107442000Y-80264000D03*
X105692000Y-80264000D03*
%TD*%
D15*
%TO.C,R2*%
X106661200Y-83362800D03*
X108661200Y-83362800D03*
%TD*%
D16*
%TO.C,hall2*%
X125708500Y-107188000D03*
X127783500Y-107188000D03*
%TD*%
D17*
%TO.C,vd_c2*%
X95525500Y-108458000D03*
X93450500Y-108458000D03*
%TD*%
D10*
%TO.C,motorc2*%
X49022000Y-87364000D03*
X49022000Y-92964000D03*
%TD*%
D12*
%TO.C,vd_c1*%
X103886000Y-105939500D03*
X103886000Y-103864500D03*
%TD*%
D13*
%TO.C,R7*%
X135331200Y-105428800D03*
X135331200Y-103428800D03*
%TD*%
D18*
%TO.C,J1*%
X102116000Y-80583000D03*
X101316000Y-80583000D03*
D19*
X100116000Y-80583000D03*
X99116000Y-80583000D03*
X98616000Y-80583000D03*
X97616000Y-80583000D03*
D18*
X96416000Y-80583000D03*
X95616000Y-80583000D03*
X95616000Y-80583000D03*
X96416000Y-80583000D03*
D19*
X97116000Y-80583000D03*
X98116000Y-80583000D03*
X99616000Y-80583000D03*
X100616000Y-80583000D03*
D18*
X101316000Y-80583000D03*
X102116000Y-80583000D03*
%TD*%
D20*
%TO.C,R_boot1*%
X140000000Y-88200000D03*
X140000000Y-90200000D03*
%TD*%
D13*
%TO.C,R4*%
X141782800Y-101888800D03*
X141782800Y-99888800D03*
%TD*%
D15*
%TO.C,R6*%
X87122000Y-78232000D03*
X89122000Y-78232000D03*
%TD*%
D12*
%TO.C,C2*%
X140614400Y-81983400D03*
X140614400Y-79908400D03*
%TD*%
D21*
%TO.C,Dpower1*%
X86804000Y-82042000D03*
X82804000Y-82042000D03*
%TD*%
D22*
%TO.C,U2*%
X102638500Y-90413000D03*
X99588500Y-90413000D03*
X102638500Y-93763000D03*
X99588500Y-93763000D03*
D23*
X103393500Y-85788000D03*
X101113500Y-85788000D03*
X98833500Y-85788000D03*
%TD*%
D13*
%TO.C,R5*%
X141681200Y-105936800D03*
X141681200Y-103936800D03*
%TD*%
D24*
%TO.C,5Vout1*%
X94256000Y-86106000D03*
X90656000Y-86106000D03*
%TD*%
D12*
%TO.C,C1*%
X142814400Y-81983400D03*
X142814400Y-79908400D03*
%TD*%
D10*
%TO.C,5Vin1*%
X80772000Y-87878000D03*
X80772000Y-93478000D03*
%TD*%
D25*
%TO.C,3v3in1*%
X93478000Y-100330000D03*
X87878000Y-100330000D03*
%TD*%
D12*
%TO.C,mccap1*%
X116848000Y-81946500D03*
X116848000Y-79871500D03*
%TD*%
D26*
%TO.C,En1*%
X142725000Y-85000000D03*
X146875000Y-85000000D03*
%TD*%
D27*
%TO.C,R3*%
X111220000Y-80264000D03*
X109220000Y-80264000D03*
%TD*%
D28*
%TO.C,U4*%
X125600000Y-86600000D03*
X125600000Y-88000000D03*
X125600000Y-89400000D03*
X127000000Y-86600000D03*
X127000000Y-88000000D03*
X127000000Y-89400000D03*
X128400000Y-86600000D03*
X128400000Y-88000000D03*
X128400000Y-89400000D03*
D29*
X119750000Y-80280000D03*
X119750000Y-81550000D03*
X119750000Y-82820000D03*
X119750000Y-84090000D03*
X119750000Y-85360000D03*
X119750000Y-86630000D03*
X119750000Y-87900000D03*
X119750000Y-89170000D03*
X119750000Y-90440000D03*
X119750000Y-91710000D03*
X119750000Y-92980000D03*
X119750000Y-94250000D03*
X119750000Y-95520000D03*
X119750000Y-96790000D03*
D30*
X121515000Y-98040000D03*
X122785000Y-98040000D03*
X124055000Y-98040000D03*
X125325000Y-98040000D03*
X126595000Y-98040000D03*
X127865000Y-98040000D03*
X129135000Y-98040000D03*
X130405000Y-98040000D03*
X131675000Y-98040000D03*
X132945000Y-98040000D03*
X134215000Y-98040000D03*
X135485000Y-98040000D03*
D29*
X137250000Y-96790000D03*
X137250000Y-95520000D03*
X137250000Y-94250000D03*
X137250000Y-92980000D03*
X137250000Y-91710000D03*
X137250000Y-90440000D03*
X137250000Y-89170000D03*
X137250000Y-87900000D03*
X137250000Y-86630000D03*
X137250000Y-85360000D03*
X137250000Y-84090000D03*
X137250000Y-82820000D03*
X137250000Y-81550000D03*
X137250000Y-80280000D03*
%TD*%
D31*
%TO.C,3v3out1*%
X108186000Y-91288000D03*
X108186000Y-87688000D03*
%TD*%
D26*
%TO.C,Boot1*%
X142725000Y-88800000D03*
X146875000Y-88800000D03*
%TD*%
D32*
%TO.C,mosfet4*%
X86281500Y-108646000D03*
X86281500Y-106746000D03*
X84406500Y-107696000D03*
%TD*%
D14*
%TO.C,D5*%
X89126000Y-75946000D03*
X87376000Y-75946000D03*
%TD*%
D20*
%TO.C,tr3*%
X89408000Y-107966000D03*
X89408000Y-109966000D03*
%TD*%
D27*
%TO.C,R1*%
X97186000Y-82988000D03*
X95186000Y-82988000D03*
%TD*%
M02*
