%TF.GenerationSoftware,KiCad,Pcbnew,9.0.1*%
%TF.CreationDate,2026-07-18T16:31:54-07:00*%
%TF.ProjectId,V67_cycletron,5636375f-6379-4636-9c65-74726f6e2e6b,rev?*%
%TF.SameCoordinates,Original*%
%TF.FileFunction,Soldermask,Top*%
%TF.FilePolarity,Negative*%
%FSLAX46Y46*%
G04 Gerber Fmt 4.6, Leading zero omitted, Abs format (unit mm)*
G04 Created by KiCad (PCBNEW 9.0.1) date 2026-07-18 16:31:54*
%MOMM*%
%LPD*%
G01*
G04 APERTURE LIST*
G04 Aperture macros list*
%AMRoundRect*
0 Rectangle with rounded corners*
0 $1 Rounding radius*
0 $2 $3 $4 $5 $6 $7 $8 $9 X,Y pos of 4 corners*
0 Add a 4 corners polygon primitive as box body*
4,1,4,$2,$3,$4,$5,$6,$7,$8,$9,$2,$3,0*
0 Add four circle primitives for the rounded corners*
1,1,$1+$1,$2,$3*
1,1,$1+$1,$4,$5*
1,1,$1+$1,$6,$7*
1,1,$1+$1,$8,$9*
0 Add four rect primitives between the rounded corners*
20,1,$1+$1,$2,$3,$4,$5,0*
20,1,$1+$1,$4,$5,$6,$7,0*
20,1,$1+$1,$6,$7,$8,$9,0*
20,1,$1+$1,$8,$9,$2,$3,0*%
G04 Aperture macros list end*
%ADD10C,1.320800*%
%ADD11R,1.980000X1.980000*%
%ADD12C,1.980000*%
%ADD13RoundRect,0.102000X-0.654000X-0.654000X0.654000X-0.654000X0.654000X0.654000X-0.654000X0.654000X0*%
%ADD14C,1.512000*%
%ADD15R,1.500000X0.900000*%
%ADD16R,0.900000X1.500000*%
%ADD17C,0.600000*%
%ADD18R,3.900000X3.900000*%
%ADD19RoundRect,0.250000X-0.337500X-0.475000X0.337500X-0.475000X0.337500X0.475000X-0.337500X0.475000X0*%
%ADD20RoundRect,0.250000X0.450000X-0.350000X0.450000X0.350000X-0.450000X0.350000X-0.450000X-0.350000X0*%
%ADD21RoundRect,0.250000X-0.350000X-0.450000X0.350000X-0.450000X0.350000X0.450000X-0.350000X0.450000X0*%
%ADD22RoundRect,0.237500X-0.287500X-0.237500X0.287500X-0.237500X0.287500X0.237500X-0.287500X0.237500X0*%
%ADD23RoundRect,0.250000X-0.650000X1.000000X-0.650000X-1.000000X0.650000X-1.000000X0.650000X1.000000X0*%
%ADD24RoundRect,0.250000X0.475000X-0.337500X0.475000X0.337500X-0.475000X0.337500X-0.475000X-0.337500X0*%
%ADD25RoundRect,0.237500X0.287500X0.237500X-0.287500X0.237500X-0.287500X-0.237500X0.287500X-0.237500X0*%
%ADD26R,1.000000X1.000000*%
%ADD27C,1.000000*%
%ADD28C,1.600000*%
%ADD29O,1.600000X1.600000*%
%ADD30RoundRect,0.250001X-1.149999X-1.149999X1.149999X-1.149999X1.149999X1.149999X-1.149999X1.149999X0*%
%ADD31C,2.800000*%
%ADD32R,1.600000X1.600000*%
%ADD33RoundRect,0.250000X-0.550000X1.500000X-0.550000X-1.500000X0.550000X-1.500000X0.550000X1.500000X0*%
%ADD34RoundRect,0.250000X0.337500X0.475000X-0.337500X0.475000X-0.337500X-0.475000X0.337500X-0.475000X0*%
%ADD35R,0.600000X1.450000*%
%ADD36R,0.300000X1.450000*%
%ADD37O,1.000000X2.100000*%
%ADD38O,1.000000X1.600000*%
%ADD39RoundRect,0.250000X-0.450000X0.350000X-0.450000X-0.350000X0.450000X-0.350000X0.450000X0.350000X0*%
%ADD40RoundRect,0.250000X-1.000000X-0.650000X1.000000X-0.650000X1.000000X0.650000X-1.000000X0.650000X0*%
%ADD41RoundRect,0.250000X-0.350000X0.850000X-0.350000X-0.850000X0.350000X-0.850000X0.350000X0.850000X0*%
%ADD42RoundRect,0.249997X-2.650003X2.950003X-2.650003X-2.950003X2.650003X-2.950003X2.650003X2.950003X0*%
%ADD43RoundRect,0.250000X0.550000X-1.050000X0.550000X1.050000X-0.550000X1.050000X-0.550000X-1.050000X0*%
%ADD44RoundRect,0.250000X1.500000X0.550000X-1.500000X0.550000X-1.500000X-0.550000X1.500000X-0.550000X0*%
%ADD45RoundRect,0.102000X-0.675000X-0.900000X0.675000X-0.900000X0.675000X0.900000X-0.675000X0.900000X0*%
%ADD46RoundRect,0.150000X-0.150000X0.587500X-0.150000X-0.587500X0.150000X-0.587500X0.150000X0.587500X0*%
%ADD47RoundRect,0.250000X0.350000X0.450000X-0.350000X0.450000X-0.350000X-0.450000X0.350000X-0.450000X0*%
G04 APERTURE END LIST*
D10*
%TO.C,Motor1*%
X42316400Y-109982000D03*
X42316400Y-107982001D03*
X42316400Y-105982000D03*
X42316400Y-103982002D03*
%TD*%
%TO.C,Motor2*%
X42367200Y-93472000D03*
X42367200Y-91472001D03*
X42367200Y-89472000D03*
X42367200Y-87472002D03*
%TD*%
%TO.C,Fan1*%
X141026398Y-114147600D03*
X139026399Y-114147600D03*
X137026398Y-114147600D03*
X135026400Y-114147600D03*
%TD*%
%TO.C,Hall1*%
X128593601Y-114300000D03*
X126593600Y-114300000D03*
X124593601Y-114300000D03*
%TD*%
D11*
%TO.C,U3*%
X88646000Y-92710000D03*
D12*
X91196000Y-92710000D03*
X93746000Y-92710000D03*
%TD*%
D13*
%TO.C,Mos1*%
X82702400Y-113944400D03*
D14*
X80702400Y-113944400D03*
%TD*%
D13*
%TO.C,Therm1*%
X92017600Y-114503200D03*
D14*
X90017600Y-114503200D03*
%TD*%
D13*
%TO.C,HBridge1*%
X109880400Y-114655600D03*
D14*
X107880400Y-114655600D03*
X105880400Y-114655600D03*
X103880400Y-114655600D03*
X101880400Y-114655600D03*
X99880400Y-114655600D03*
%TD*%
D13*
%TO.C,HBridge2*%
X119246400Y-114350800D03*
D14*
X117246400Y-114350800D03*
%TD*%
D10*
%TO.C,I2C1*%
X146089000Y-101571801D03*
X146089000Y-103571800D03*
X146089000Y-105571801D03*
X146089000Y-107571799D03*
%TD*%
D15*
%TO.C,U4*%
X119750000Y-80280000D03*
X119750000Y-81550000D03*
X119750000Y-82820000D03*
X119750000Y-84090000D03*
X119750000Y-85360000D03*
X119750000Y-86630000D03*
X119750000Y-87900000D03*
X119750000Y-89170000D03*
X119750000Y-90440000D03*
X119750000Y-91710000D03*
X119750000Y-92980000D03*
X119750000Y-94250000D03*
X119750000Y-95520000D03*
X119750000Y-96790000D03*
D16*
X121515000Y-98040000D03*
X122785000Y-98040000D03*
X124055000Y-98040000D03*
X125325000Y-98040000D03*
X126595000Y-98040000D03*
X127865000Y-98040000D03*
X129135000Y-98040000D03*
X130405000Y-98040000D03*
X131675000Y-98040000D03*
X132945000Y-98040000D03*
X134215000Y-98040000D03*
X135485000Y-98040000D03*
D15*
X137250000Y-96790000D03*
X137250000Y-95520000D03*
X137250000Y-94250000D03*
X137250000Y-92980000D03*
X137250000Y-91710000D03*
X137250000Y-90440000D03*
X137250000Y-89170000D03*
X137250000Y-87900000D03*
X137250000Y-86630000D03*
X137250000Y-85360000D03*
X137250000Y-84090000D03*
X137250000Y-82820000D03*
X137250000Y-81550000D03*
X137250000Y-80280000D03*
D17*
X125600000Y-87300000D03*
X125600000Y-88700000D03*
X126300000Y-86600000D03*
X126300000Y-88000000D03*
X126300000Y-89400000D03*
X127000000Y-87300000D03*
D18*
X127000000Y-88000000D03*
D17*
X127000000Y-88700000D03*
X127700000Y-86600000D03*
X127700000Y-88000000D03*
X127700000Y-89400000D03*
X128400000Y-87300000D03*
X128400000Y-88700000D03*
%TD*%
D19*
%TO.C,hall_cap1*%
X125788600Y-107137200D03*
X127863600Y-107137200D03*
%TD*%
D13*
%TO.C,Input1*%
X82702400Y-75641200D03*
D14*
X80702400Y-75641200D03*
%TD*%
D20*
%TO.C,R7*%
X135331200Y-105428800D03*
X135331200Y-103428800D03*
%TD*%
D21*
%TO.C,R6*%
X76892400Y-81584800D03*
X78892400Y-81584800D03*
%TD*%
D22*
%TO.C,D5*%
X77142400Y-79451200D03*
X78892400Y-79451200D03*
%TD*%
D23*
%TO.C,D1*%
X79756000Y-105220000D03*
X79756000Y-109220000D03*
%TD*%
D24*
%TO.C,mccap2*%
X113800000Y-82037500D03*
X113800000Y-79962500D03*
%TD*%
D20*
%TO.C,R_En1*%
X140200000Y-86000000D03*
X140200000Y-84000000D03*
%TD*%
D25*
%TO.C,D4*%
X108661200Y-93827600D03*
X106911200Y-93827600D03*
%TD*%
D26*
%TO.C,J3*%
X142240000Y-93218000D03*
D27*
X142240000Y-94488000D03*
X142240000Y-95758000D03*
X142240000Y-97028000D03*
%TD*%
D28*
%TO.C,vd_r1*%
X97155000Y-105410000D03*
D29*
X97155000Y-97790000D03*
%TD*%
D30*
%TO.C,Rails1*%
X47578000Y-76860400D03*
D31*
X52578000Y-76860400D03*
X57578000Y-76860400D03*
X62578000Y-76860400D03*
X67578000Y-76860400D03*
X72578000Y-76860400D03*
%TD*%
D32*
%TO.C,Motor_2*%
X73914000Y-85608000D03*
D29*
X71374000Y-85608000D03*
X68834000Y-85608000D03*
X66294000Y-85608000D03*
X63754000Y-85608000D03*
X61214000Y-85608000D03*
X58674000Y-85608000D03*
X56134000Y-85608000D03*
X56134000Y-98308000D03*
X58674000Y-98308000D03*
X61214000Y-98308000D03*
X63754000Y-98308000D03*
X66294000Y-98308000D03*
X68834000Y-98308000D03*
X71374000Y-98308000D03*
X73914000Y-98308000D03*
%TD*%
D21*
%TO.C,R2*%
X106661200Y-83362800D03*
X108661200Y-83362800D03*
%TD*%
D26*
%TO.C,J2*%
X146050000Y-93345000D03*
D27*
X146050000Y-94615000D03*
X146050000Y-95885000D03*
X146050000Y-97155000D03*
%TD*%
D33*
%TO.C,motorc1*%
X50749200Y-100019200D03*
X50749200Y-105619200D03*
%TD*%
D34*
%TO.C,vd_c2*%
X91207500Y-107315000D03*
X89132500Y-107315000D03*
%TD*%
D33*
%TO.C,motorc2*%
X51003200Y-88646000D03*
X51003200Y-94246000D03*
%TD*%
D19*
%TO.C,vd_c1*%
X91037500Y-104140000D03*
X93112500Y-104140000D03*
%TD*%
D35*
%TO.C,J1*%
X102116000Y-80583000D03*
X101316000Y-80583000D03*
D36*
X100116000Y-80583000D03*
X99116000Y-80583000D03*
X98616000Y-80583000D03*
X97616000Y-80583000D03*
D35*
X96416000Y-80583000D03*
X95616000Y-80583000D03*
X95616000Y-80583000D03*
X96416000Y-80583000D03*
D36*
X97116000Y-80583000D03*
X98116000Y-80583000D03*
X99616000Y-80583000D03*
X100616000Y-80583000D03*
D35*
X101316000Y-80583000D03*
X102116000Y-80583000D03*
D37*
X103186000Y-79668000D03*
D38*
X103186000Y-75488000D03*
D37*
X94546000Y-79668000D03*
D38*
X94546000Y-75488000D03*
%TD*%
D39*
%TO.C,R_boot1*%
X140000000Y-88200000D03*
X140000000Y-90200000D03*
%TD*%
D32*
%TO.C,Motor_1*%
X73914000Y-101864000D03*
D29*
X71374000Y-101864000D03*
X68834000Y-101864000D03*
X66294000Y-101864000D03*
X63754000Y-101864000D03*
X61214000Y-101864000D03*
X58674000Y-101864000D03*
X56134000Y-101864000D03*
X56134000Y-114564000D03*
X58674000Y-114564000D03*
X61214000Y-114564000D03*
X63754000Y-114564000D03*
X66294000Y-114564000D03*
X68834000Y-114564000D03*
X71374000Y-114564000D03*
X73914000Y-114564000D03*
%TD*%
D20*
%TO.C,R4*%
X141782800Y-101888800D03*
X141782800Y-99888800D03*
%TD*%
D24*
%TO.C,C2*%
X140614400Y-81983400D03*
X140614400Y-79908400D03*
%TD*%
D40*
%TO.C,Dpower1*%
X78651600Y-85488000D03*
X82651600Y-85488000D03*
%TD*%
D41*
%TO.C,U2*%
X103393500Y-85788000D03*
X101113500Y-85788000D03*
D42*
X101113500Y-92088000D03*
D41*
X98833500Y-85788000D03*
%TD*%
D20*
%TO.C,R5*%
X141681200Y-105936800D03*
X141681200Y-103936800D03*
%TD*%
D43*
%TO.C,5Vout1*%
X90686000Y-80588000D03*
X90686000Y-76988000D03*
%TD*%
D24*
%TO.C,C1*%
X142814400Y-81983400D03*
X142814400Y-79908400D03*
%TD*%
D44*
%TO.C,5Vin1*%
X83318000Y-90988000D03*
X77718000Y-90988000D03*
%TD*%
%TO.C,3v3in1*%
X84986000Y-98488000D03*
X79386000Y-98488000D03*
%TD*%
D24*
%TO.C,mccap1*%
X116848000Y-81946500D03*
X116848000Y-79871500D03*
%TD*%
D45*
%TO.C,En1*%
X142725000Y-85000000D03*
X146875000Y-85000000D03*
%TD*%
D21*
%TO.C,R3*%
X106712000Y-96520000D03*
X108712000Y-96520000D03*
%TD*%
D43*
%TO.C,3v3out1*%
X108186000Y-91288000D03*
X108186000Y-87688000D03*
%TD*%
D45*
%TO.C,Boot1*%
X142725000Y-88800000D03*
X146875000Y-88800000D03*
%TD*%
D46*
%TO.C,mosfet4*%
X85786000Y-107345000D03*
X83886000Y-107345000D03*
X84836000Y-109220000D03*
%TD*%
D47*
%TO.C,tr3*%
X86360000Y-103632000D03*
X84360000Y-103632000D03*
%TD*%
%TO.C,R1*%
X97186000Y-82988000D03*
X95186000Y-82988000D03*
%TD*%
M02*
