%TF.GenerationSoftware,KiCad,Pcbnew,9.0.1*%
%TF.CreationDate,2026-04-10T15:06:33-07:00*%
%TF.ProjectId,V67_cycletron,5636375f-6379-4636-9c65-74726f6e2e6b,rev?*%
%TF.SameCoordinates,Original*%
%TF.FileFunction,Soldermask,Bot*%
%TF.FilePolarity,Negative*%
%FSLAX46Y46*%
G04 Gerber Fmt 4.6, Leading zero omitted, Abs format (unit mm)*
G04 Created by KiCad (PCBNEW 9.0.1) date 2026-04-10 15:06:33*
%MOMM*%
%LPD*%
G01*
G04 APERTURE LIST*
G04 Aperture macros list*
%AMRoundRect*
0 Rectangle with rounded corners*
0 $1 Rounding radius*
0 $2 $3 $4 $5 $6 $7 $8 $9 X,Y pos of 4 corners*
0 Add a 4 corners polygon primitive as box body*
4,1,4,$2,$3,$4,$5,$6,$7,$8,$9,$2,$3,0*
0 Add four circle primitives for the rounded corners*
1,1,$1+$1,$2,$3*
1,1,$1+$1,$4,$5*
1,1,$1+$1,$6,$7*
1,1,$1+$1,$8,$9*
0 Add four rect primitives between the rounded corners*
20,1,$1+$1,$2,$3,$4,$5,0*
20,1,$1+$1,$4,$5,$6,$7,0*
20,1,$1+$1,$6,$7,$8,$9,0*
20,1,$1+$1,$8,$9,$2,$3,0*%
G04 Aperture macros list end*
%ADD10C,0.650000*%
%ADD11O,1.000000X2.100000*%
%ADD12O,1.000000X1.600000*%
%ADD13C,2.200000*%
%ADD14O,1.600000X1.600000*%
%ADD15R,1.600000X1.600000*%
%ADD16C,2.800000*%
%ADD17RoundRect,0.250001X1.149999X1.149999X-1.149999X1.149999X-1.149999X-1.149999X1.149999X-1.149999X0*%
%ADD18C,1.500000*%
%ADD19R,1.500000X1.500000*%
%ADD20RoundRect,0.250001X1.149999X-1.149999X1.149999X1.149999X-1.149999X1.149999X-1.149999X-1.149999X0*%
%ADD21C,1.600000*%
%ADD22RoundRect,0.250001X-1.149999X-1.149999X1.149999X-1.149999X1.149999X1.149999X-1.149999X1.149999X0*%
G04 APERTURE END LIST*
D10*
%TO.C,J1*%
X136890000Y-27100000D03*
X131110000Y-27100000D03*
D11*
X138320000Y-27630000D03*
D12*
X138320000Y-23450000D03*
D11*
X129680000Y-27630000D03*
D12*
X129680000Y-23450000D03*
%TD*%
D13*
%TO.C,*%
X103124000Y-21336000D03*
%TD*%
D14*
%TO.C,Motor_2*%
X176610000Y-46640000D03*
X179150000Y-46640000D03*
X181690000Y-46640000D03*
X184230000Y-46640000D03*
X186770000Y-46640000D03*
X189310000Y-46640000D03*
X191850000Y-46640000D03*
X194390000Y-46640000D03*
X194390000Y-59340000D03*
X191850000Y-59340000D03*
X189310000Y-59340000D03*
X186770000Y-59340000D03*
X184230000Y-59340000D03*
X181690000Y-59340000D03*
X179150000Y-59340000D03*
D15*
X176610000Y-59340000D03*
%TD*%
D16*
%TO.C,power5*%
X151464000Y-23368000D03*
D17*
X156464000Y-23368000D03*
%TD*%
D13*
%TO.C,*%
X200660000Y-20828000D03*
%TD*%
D18*
%TO.C,mosfet4*%
X172212000Y-107548000D03*
X169672000Y-107548000D03*
D19*
X167132000Y-107548000D03*
%TD*%
D14*
%TO.C,Motor_1*%
X159258000Y-73640000D03*
X161798000Y-73640000D03*
X164338000Y-73640000D03*
X166878000Y-73640000D03*
X169418000Y-73640000D03*
X171958000Y-73640000D03*
X174498000Y-73640000D03*
X177038000Y-73640000D03*
X177038000Y-86340000D03*
X174498000Y-86340000D03*
X171958000Y-86340000D03*
X169418000Y-86340000D03*
X166878000Y-86340000D03*
X164338000Y-86340000D03*
X161798000Y-86340000D03*
D15*
X159258000Y-86340000D03*
%TD*%
D18*
%TO.C,mosfet5*%
X179712000Y-107548000D03*
X177172000Y-107548000D03*
D19*
X174632000Y-107548000D03*
%TD*%
D13*
%TO.C,*%
X103124000Y-126492000D03*
%TD*%
D16*
%TO.C,J3*%
X106680000Y-66708000D03*
X106680000Y-71708000D03*
X106680000Y-76708000D03*
X106680000Y-81708000D03*
X106680000Y-86708000D03*
X106680000Y-91708000D03*
X106680000Y-96708000D03*
X106680000Y-101708000D03*
X106680000Y-106708000D03*
X106680000Y-111708000D03*
D20*
X106680000Y-116708000D03*
%TD*%
D18*
%TO.C,mosfet6*%
X187212000Y-107548000D03*
X184672000Y-107548000D03*
D19*
X182132000Y-107548000D03*
%TD*%
D14*
%TO.C,vd_r1*%
X154432000Y-104648000D03*
D21*
X146812000Y-104648000D03*
%TD*%
D16*
%TO.C,power3*%
X138176000Y-122936000D03*
D22*
X133176000Y-122936000D03*
%TD*%
D13*
%TO.C,*%
X200660000Y-126492000D03*
%TD*%
M02*
