M48
; DRILL file {KiCad 9.0.1} date 2026-04-10T15:06:33-0700
; FORMAT={-:-/ absolute / inch / decimal}
; #@! TF.CreationDate,2026-04-10T15:06:33-07:00
; #@! TF.GenerationSoftware,Kicad,Pcbnew,9.0.1
; #@! TF.FileFunction,Plated,1,2,PTH
FMAT,2
INCH
; #@! TA.AperFunction,Plated,PTH,ComponentDrill
T1C0.0079
; #@! TA.AperFunction,Plated,PTH,ViaDrill
T2C0.0118
; #@! TA.AperFunction,Plated,PTH,ComponentDrill
T3C0.0236
; #@! TA.AperFunction,Plated,PTH,ComponentDrill
T4C0.0315
; #@! TA.AperFunction,Plated,PTH,ComponentDrill
T5C0.0512
%
G90
G05
T1
X5.5197Y-2.752
X5.5197Y-2.8071
X5.5472Y-2.7244
X5.5472Y-2.7795
X5.5472Y-2.8346
X5.5748Y-2.752
X5.5748Y-2.8071
X5.6024Y-2.7244
X5.6024Y-2.7795
X5.6024Y-2.8346
X5.6299Y-2.752
X5.6299Y-2.8071
T2
X4.3589Y-1.1479
X4.3589Y-1.5394
X4.3589Y-1.9194
X4.3589Y-2.2994
X4.64Y-0.94
X4.6919Y-2.4341
X4.7441Y-1.5354
X4.7441Y-1.5748
X4.8228Y-2.4606
X4.88Y-0.9383
X4.9409Y-2.4636
X5.0591Y-2.4613
X5.1476Y-1.1238
X5.1575Y-1.3189
X5.1772Y-2.4606
X5.2362Y-3.0709
X5.2362Y-3.1299
X5.2894Y-2.4756
X5.4035Y-1.1238
X5.4528Y-1.378
X5.68Y-4.0
X5.74Y-1.44
X5.9Y-2.9
X5.9783Y-2.4756
X5.9843Y-3.1299
X6.0236Y-3.6024
X6.1698Y-1.152
X6.22Y-0.98
X6.3632Y-1.4018
X6.48Y-2.84
X6.5Y-1.0236
X6.54Y-4.06
X6.62Y-3.68
X6.6236Y-1.3189
X6.8717Y-1.4087
X6.9195Y-1.0039
X7.26Y-3.1805
X7.4209Y-1.0957
X7.6395Y-1.52
T4
X5.78Y-4.12
X6.08Y-4.12
X6.27Y-2.8992
X6.27Y-3.3992
X6.37Y-2.8992
X6.37Y-3.3992
X6.47Y-2.8992
X6.47Y-3.3992
X6.57Y-2.8992
X6.57Y-3.3992
X6.58Y-4.2342
X6.67Y-2.8992
X6.67Y-3.3992
X6.68Y-4.2342
X6.77Y-2.8992
X6.77Y-3.3992
X6.78Y-4.2342
X6.87Y-2.8992
X6.87Y-3.3992
X6.8753Y-4.2342
X6.9531Y-1.8362
X6.9531Y-2.3362
X6.97Y-2.8992
X6.97Y-3.3992
X6.9753Y-4.2342
X7.0531Y-1.8362
X7.0531Y-2.3362
X7.0753Y-4.2342
X7.1531Y-1.8362
X7.1531Y-2.3362
X7.1706Y-4.2342
X7.2531Y-1.8362
X7.2531Y-2.3362
X7.2706Y-4.2342
X7.3531Y-1.8362
X7.3531Y-2.3362
X7.3706Y-4.2342
X7.4531Y-1.8362
X7.4531Y-2.3362
X7.5531Y-1.8362
X7.5531Y-2.3362
X7.6531Y-1.8362
X7.6531Y-2.3362
T5
X4.2Y-2.6263
X4.2Y-2.8231
X4.2Y-3.02
X4.2Y-3.2169
X4.2Y-3.4137
X4.2Y-3.6106
X4.2Y-3.8074
X4.2Y-4.0043
X4.2Y-4.2011
X4.2Y-4.398
X4.2Y-4.5948
X5.2431Y-4.84
X5.44Y-4.84
X5.9631Y-0.92
X6.16Y-0.92
T3
G00X5.1055Y-0.935
M15
G01X5.1055Y-0.9114
M16
G05
G00X5.1055Y-1.1094
M15
G01X5.1055Y-1.0661
M16
G05
G00X5.4457Y-0.935
M15
G01X5.4457Y-0.9114
M16
G05
G00X5.4457Y-1.1094
M15
G01X5.4457Y-1.0661
M16
G05
M30
