%TF.GenerationSoftware,KiCad,Pcbnew,9.0.1*%
%TF.CreationDate,2026-04-07T10:04:38-07:00*%
%TF.ProjectId,V67_cycletron,5636375f-6379-4636-9c65-74726f6e2e6b,rev?*%
%TF.SameCoordinates,Original*%
%TF.FileFunction,Soldermask,Bot*%
%TF.FilePolarity,Negative*%
%FSLAX46Y46*%
G04 Gerber Fmt 4.6, Leading zero omitted, Abs format (unit mm)*
G04 Created by KiCad (PCBNEW 9.0.1) date 2026-04-07 10:04:38*
%MOMM*%
%LPD*%
G01*
G04 APERTURE LIST*
G04 Aperture macros list*
%AMRoundRect*
0 Rectangle with rounded corners*
0 $1 Rounding radius*
0 $2 $3 $4 $5 $6 $7 $8 $9 X,Y pos of 4 corners*
0 Add a 4 corners polygon primitive as box body*
4,1,4,$2,$3,$4,$5,$6,$7,$8,$9,$2,$3,0*
0 Add four circle primitives for the rounded corners*
1,1,$1+$1,$2,$3*
1,1,$1+$1,$4,$5*
1,1,$1+$1,$6,$7*
1,1,$1+$1,$8,$9*
0 Add four rect primitives between the rounded corners*
20,1,$1+$1,$2,$3,$4,$5,0*
20,1,$1+$1,$4,$5,$6,$7,0*
20,1,$1+$1,$6,$7,$8,$9,0*
20,1,$1+$1,$8,$9,$2,$3,0*%
G04 Aperture macros list end*
%ADD10C,2.200000*%
%ADD11R,1.600000X1.600000*%
%ADD12O,1.600000X1.600000*%
%ADD13RoundRect,0.250001X1.149999X1.149999X-1.149999X1.149999X-1.149999X-1.149999X1.149999X-1.149999X0*%
%ADD14C,2.800000*%
%ADD15C,0.650000*%
%ADD16O,1.000000X2.100000*%
%ADD17O,1.000000X1.600000*%
%ADD18R,1.500000X1.500000*%
%ADD19C,1.500000*%
%ADD20RoundRect,0.250001X1.149999X-1.149999X1.149999X1.149999X-1.149999X1.149999X-1.149999X-1.149999X0*%
G04 APERTURE END LIST*
D10*
%TO.C,*%
X105156000Y-120904000D03*
%TD*%
%TO.C,*%
X200660000Y-120904000D03*
%TD*%
%TO.C,*%
X105156000Y-23368000D03*
%TD*%
%TO.C,*%
X200660000Y-23368000D03*
%TD*%
D11*
%TO.C,Motor_2*%
X176610000Y-59340000D03*
D12*
X179150000Y-59340000D03*
X181690000Y-59340000D03*
X184230000Y-59340000D03*
X186770000Y-59340000D03*
X189310000Y-59340000D03*
X191850000Y-59340000D03*
X194390000Y-59340000D03*
X194390000Y-46640000D03*
X191850000Y-46640000D03*
X189310000Y-46640000D03*
X186770000Y-46640000D03*
X184230000Y-46640000D03*
X181690000Y-46640000D03*
X179150000Y-46640000D03*
X176610000Y-46640000D03*
%TD*%
D13*
%TO.C,input1*%
X190500000Y-25500000D03*
D14*
X185500000Y-25500000D03*
%TD*%
D15*
%TO.C,J1*%
X136890000Y-27100000D03*
X131110000Y-27100000D03*
D16*
X138320000Y-27630000D03*
D17*
X138320000Y-23450000D03*
D16*
X129680000Y-27630000D03*
D17*
X129680000Y-23450000D03*
%TD*%
D18*
%TO.C,mosfet4*%
X167460000Y-104860000D03*
D19*
X170000000Y-104860000D03*
X172540000Y-104860000D03*
%TD*%
D11*
%TO.C,Motor_1*%
X159258000Y-86340000D03*
D12*
X161798000Y-86340000D03*
X164338000Y-86340000D03*
X166878000Y-86340000D03*
X169418000Y-86340000D03*
X171958000Y-86340000D03*
X174498000Y-86340000D03*
X177038000Y-86340000D03*
X177038000Y-73640000D03*
X174498000Y-73640000D03*
X171958000Y-73640000D03*
X169418000Y-73640000D03*
X166878000Y-73640000D03*
X164338000Y-73640000D03*
X161798000Y-73640000D03*
X159258000Y-73640000D03*
%TD*%
D20*
%TO.C,IO1*%
X108000000Y-118000000D03*
D14*
X108000000Y-113000000D03*
X108000000Y-108000000D03*
X108000000Y-103000000D03*
X108000000Y-98000000D03*
X108000000Y-93000000D03*
X108000000Y-88000000D03*
X108000000Y-83000000D03*
X108000000Y-78000000D03*
X108000000Y-73000000D03*
X108000000Y-68000000D03*
X108000000Y-63000000D03*
X108000000Y-58000000D03*
X108000000Y-53000000D03*
%TD*%
D13*
%TO.C,power1*%
X132068100Y-115353700D03*
D14*
X127068100Y-115353700D03*
%TD*%
D18*
%TO.C,mosfet5*%
X174960000Y-104860000D03*
D19*
X177500000Y-104860000D03*
X180040000Y-104860000D03*
%TD*%
D18*
%TO.C,mosfet6*%
X182460000Y-104860000D03*
D19*
X185000000Y-104860000D03*
X187540000Y-104860000D03*
%TD*%
M02*
