%TF.GenerationSoftware,KiCad,Pcbnew,9.0.1*%
%TF.CreationDate,2026-04-10T15:06:33-07:00*%
%TF.ProjectId,V67_cycletron,5636375f-6379-4636-9c65-74726f6e2e6b,rev?*%
%TF.SameCoordinates,Original*%
%TF.FileFunction,Soldermask,Top*%
%TF.FilePolarity,Negative*%
%FSLAX46Y46*%
G04 Gerber Fmt 4.6, Leading zero omitted, Abs format (unit mm)*
G04 Created by KiCad (PCBNEW 9.0.1) date 2026-04-10 15:06:33*
%MOMM*%
%LPD*%
G01*
G04 APERTURE LIST*
G04 Aperture macros list*
%AMRoundRect*
0 Rectangle with rounded corners*
0 $1 Rounding radius*
0 $2 $3 $4 $5 $6 $7 $8 $9 X,Y pos of 4 corners*
0 Add a 4 corners polygon primitive as box body*
4,1,4,$2,$3,$4,$5,$6,$7,$8,$9,$2,$3,0*
0 Add four circle primitives for the rounded corners*
1,1,$1+$1,$2,$3*
1,1,$1+$1,$4,$5*
1,1,$1+$1,$6,$7*
1,1,$1+$1,$8,$9*
0 Add four rect primitives between the rounded corners*
20,1,$1+$1,$2,$3,$4,$5,0*
20,1,$1+$1,$4,$5,$6,$7,0*
20,1,$1+$1,$6,$7,$8,$9,0*
20,1,$1+$1,$8,$9,$2,$3,0*%
G04 Aperture macros list end*
%ADD10R,0.600000X1.450000*%
%ADD11R,0.300000X1.450000*%
%ADD12O,1.000000X2.100000*%
%ADD13O,1.000000X1.600000*%
%ADD14RoundRect,0.250000X0.850000X0.350000X-0.850000X0.350000X-0.850000X-0.350000X0.850000X-0.350000X0*%
%ADD15RoundRect,0.249997X2.950003X2.650003X-2.950003X2.650003X-2.950003X-2.650003X2.950003X-2.650003X0*%
%ADD16RoundRect,0.250000X-0.350000X0.850000X-0.350000X-0.850000X0.350000X-0.850000X0.350000X0.850000X0*%
%ADD17RoundRect,0.249997X-2.650003X2.950003X-2.650003X-2.950003X2.650003X-2.950003X2.650003X2.950003X0*%
%ADD18R,1.500000X0.900000*%
%ADD19R,0.900000X1.500000*%
%ADD20C,0.600000*%
%ADD21R,3.900000X3.900000*%
%ADD22R,5.359400X1.752600*%
%ADD23R,3.251200X1.244600*%
%ADD24RoundRect,0.250000X0.450000X-0.350000X0.450000X0.350000X-0.450000X0.350000X-0.450000X-0.350000X0*%
%ADD25O,1.600000X1.600000*%
%ADD26R,1.600000X1.600000*%
%ADD27RoundRect,0.250000X-0.450000X0.350000X-0.450000X-0.350000X0.450000X-0.350000X0.450000X0.350000X0*%
%ADD28R,1.752600X5.359400*%
%ADD29R,1.244600X3.251200*%
%ADD30RoundRect,0.250000X-0.350000X-0.450000X0.350000X-0.450000X0.350000X0.450000X-0.350000X0.450000X0*%
%ADD31RoundRect,0.250000X0.475000X-0.337500X0.475000X0.337500X-0.475000X0.337500X-0.475000X-0.337500X0*%
%ADD32RoundRect,0.250000X-0.550000X1.500000X-0.550000X-1.500000X0.550000X-1.500000X0.550000X1.500000X0*%
%ADD33C,2.800000*%
%ADD34RoundRect,0.250001X1.149999X1.149999X-1.149999X1.149999X-1.149999X-1.149999X1.149999X-1.149999X0*%
%ADD35RoundRect,0.250000X1.500000X0.550000X-1.500000X0.550000X-1.500000X-0.550000X1.500000X-0.550000X0*%
%ADD36C,1.500000*%
%ADD37R,1.500000X1.500000*%
%ADD38RoundRect,0.250000X0.337500X0.475000X-0.337500X0.475000X-0.337500X-0.475000X0.337500X-0.475000X0*%
%ADD39RoundRect,0.250000X-1.000000X-0.650000X1.000000X-0.650000X1.000000X0.650000X-1.000000X0.650000X0*%
%ADD40RoundRect,0.250000X1.050000X0.550000X-1.050000X0.550000X-1.050000X-0.550000X1.050000X-0.550000X0*%
%ADD41RoundRect,0.102000X0.900000X-0.675000X0.900000X0.675000X-0.900000X0.675000X-0.900000X-0.675000X0*%
%ADD42RoundRect,0.250001X1.149999X-1.149999X1.149999X1.149999X-1.149999X1.149999X-1.149999X-1.149999X0*%
%ADD43RoundRect,0.250000X-0.550000X1.050000X-0.550000X-1.050000X0.550000X-1.050000X0.550000X1.050000X0*%
%ADD44C,1.600000*%
%ADD45RoundRect,0.250001X-1.149999X-1.149999X1.149999X-1.149999X1.149999X1.149999X-1.149999X1.149999X0*%
G04 APERTURE END LIST*
D10*
%TO.C,J1*%
X137250000Y-28545000D03*
X136450000Y-28545000D03*
D11*
X135250000Y-28545000D03*
X134250000Y-28545000D03*
X133750000Y-28545000D03*
X132750000Y-28545000D03*
D10*
X131550000Y-28545000D03*
X130750000Y-28545000D03*
X130750000Y-28545000D03*
X131550000Y-28545000D03*
D11*
X132250000Y-28545000D03*
X133250000Y-28545000D03*
X134750000Y-28545000D03*
X135750000Y-28545000D03*
D10*
X136450000Y-28545000D03*
X137250000Y-28545000D03*
D12*
X138320000Y-27630000D03*
D13*
X138320000Y-23450000D03*
D12*
X129680000Y-27630000D03*
D13*
X129680000Y-23450000D03*
%TD*%
D14*
%TO.C,U1*%
X174540000Y-35780000D03*
X174540000Y-33500000D03*
D15*
X168240000Y-33500000D03*
D14*
X174540000Y-31220000D03*
%TD*%
D16*
%TO.C,U2*%
X156712000Y-29260000D03*
X154432000Y-29260000D03*
D17*
X154432000Y-35560000D03*
D16*
X152152000Y-29260000D03*
%TD*%
D18*
%TO.C,U3*%
X134350000Y-62880000D03*
X134350000Y-64150000D03*
X134350000Y-65420000D03*
X134350000Y-66690000D03*
X134350000Y-67960000D03*
X134350000Y-69230000D03*
X134350000Y-70500000D03*
X134350000Y-71770000D03*
X134350000Y-73040000D03*
X134350000Y-74310000D03*
X134350000Y-75580000D03*
X134350000Y-76850000D03*
X134350000Y-78120000D03*
X134350000Y-79390000D03*
D19*
X136115000Y-80640000D03*
X137385000Y-80640000D03*
X138655000Y-80640000D03*
X139925000Y-80640000D03*
X141195000Y-80640000D03*
X142465000Y-80640000D03*
X143735000Y-80640000D03*
X145005000Y-80640000D03*
X146275000Y-80640000D03*
X147545000Y-80640000D03*
X148815000Y-80640000D03*
X150085000Y-80640000D03*
D18*
X151850000Y-79390000D03*
X151850000Y-78120000D03*
X151850000Y-76850000D03*
X151850000Y-75580000D03*
X151850000Y-74310000D03*
X151850000Y-73040000D03*
X151850000Y-71770000D03*
X151850000Y-70500000D03*
X151850000Y-69230000D03*
X151850000Y-67960000D03*
X151850000Y-66690000D03*
X151850000Y-65420000D03*
X151850000Y-64150000D03*
X151850000Y-62880000D03*
D20*
X140200000Y-69900000D03*
X140200000Y-71300000D03*
X140900000Y-69200000D03*
X140900000Y-70600000D03*
X140900000Y-72000000D03*
X141600000Y-69900000D03*
D21*
X141600000Y-70600000D03*
D20*
X141600000Y-71300000D03*
X142300000Y-69200000D03*
X142300000Y-70600000D03*
X142300000Y-72000000D03*
X143000000Y-69900000D03*
X143000000Y-71300000D03*
%TD*%
D22*
%TO.C,IO3*%
X105237001Y-51302001D03*
X105237001Y-44201999D03*
D23*
X110717000Y-48752001D03*
X110717000Y-46751999D03*
%TD*%
D22*
%TO.C,IO4*%
X105237001Y-60954001D03*
X105237001Y-53853999D03*
D23*
X110717000Y-58404001D03*
X110717000Y-56403999D03*
%TD*%
D24*
%TO.C,R_En1*%
X117856000Y-30480000D03*
X117856000Y-32480000D03*
%TD*%
D25*
%TO.C,Motor_2*%
X176610000Y-46640000D03*
X179150000Y-46640000D03*
X181690000Y-46640000D03*
X184230000Y-46640000D03*
X186770000Y-46640000D03*
X189310000Y-46640000D03*
X191850000Y-46640000D03*
X194390000Y-46640000D03*
X194390000Y-59340000D03*
X191850000Y-59340000D03*
X189310000Y-59340000D03*
X186770000Y-59340000D03*
X184230000Y-59340000D03*
X181690000Y-59340000D03*
X179150000Y-59340000D03*
D26*
X176610000Y-59340000D03*
%TD*%
D22*
%TO.C,Motor2*%
X197250799Y-63950001D03*
X197250799Y-75049999D03*
D23*
X191770800Y-66500001D03*
X191770800Y-68499999D03*
X191770800Y-70500001D03*
X191770800Y-72499999D03*
%TD*%
D27*
%TO.C,R2*%
X138500000Y-35000000D03*
X138500000Y-33000000D03*
%TD*%
D28*
%TO.C,input1*%
X185939998Y-22352000D03*
X193040000Y-22352000D03*
D29*
X188489998Y-27831999D03*
X190490000Y-27831999D03*
%TD*%
D30*
%TO.C,tr3*%
X171172000Y-101188000D03*
X169172000Y-101188000D03*
%TD*%
%TO.C,tr2*%
X178672000Y-101188000D03*
X176672000Y-101188000D03*
%TD*%
D31*
%TO.C,smooth_cap1*%
X128500000Y-62517500D03*
X128500000Y-64592500D03*
%TD*%
D28*
%TO.C,voltage_divider_2con1*%
X152394001Y-124378999D03*
X145293999Y-124378999D03*
D29*
X149844001Y-118899000D03*
X147843999Y-118899000D03*
%TD*%
D32*
%TO.C,motorc1*%
X184912000Y-81540000D03*
X184912000Y-75940000D03*
%TD*%
D28*
%TO.C,mosfet2*%
X183722001Y-124775999D03*
X176621999Y-124775999D03*
D29*
X181172001Y-119296000D03*
X179171999Y-119296000D03*
%TD*%
D33*
%TO.C,power5*%
X151464000Y-23368000D03*
D34*
X156464000Y-23368000D03*
%TD*%
D35*
%TO.C,motorc2*%
X194044000Y-38608000D03*
X199644000Y-38608000D03*
%TD*%
D27*
%TO.C,R_boot1*%
X123952000Y-32988000D03*
X123952000Y-30988000D03*
%TD*%
D36*
%TO.C,mosfet4*%
X172212000Y-107548000D03*
X169672000Y-107548000D03*
D37*
X167132000Y-107548000D03*
%TD*%
D30*
%TO.C,tr1*%
X186172000Y-101188000D03*
X184172000Y-101188000D03*
%TD*%
D25*
%TO.C,Motor_1*%
X159258000Y-73640000D03*
X161798000Y-73640000D03*
X164338000Y-73640000D03*
X166878000Y-73640000D03*
X169418000Y-73640000D03*
X171958000Y-73640000D03*
X174498000Y-73640000D03*
X177038000Y-73640000D03*
X177038000Y-86340000D03*
X174498000Y-86340000D03*
X171958000Y-86340000D03*
X169418000Y-86340000D03*
X166878000Y-86340000D03*
X164338000Y-86340000D03*
X161798000Y-86340000D03*
D26*
X159258000Y-86340000D03*
%TD*%
D22*
%TO.C,IO1*%
X105237001Y-31705901D03*
X105237001Y-24605899D03*
D23*
X110717000Y-29155901D03*
X110717000Y-27155899D03*
%TD*%
D38*
%TO.C,vd_c2*%
X146812000Y-100076000D03*
X148887000Y-100076000D03*
%TD*%
D31*
%TO.C,C2*%
X122500000Y-62582685D03*
X122500000Y-64657685D03*
%TD*%
D39*
%TO.C,Dpower1*%
X190436000Y-33528000D03*
X186436000Y-33528000D03*
%TD*%
D40*
%TO.C,5Vout1*%
X165100000Y-26000000D03*
X168700000Y-26000000D03*
%TD*%
D31*
%TO.C,C1*%
X125500000Y-62575000D03*
X125500000Y-64650000D03*
%TD*%
D35*
%TO.C,5Vin1*%
X175756000Y-25500000D03*
X181356000Y-25500000D03*
%TD*%
D39*
%TO.C,D3*%
X193992000Y-114808000D03*
X189992000Y-114808000D03*
%TD*%
D32*
%TO.C,3v3in1*%
X144780000Y-37852000D03*
X144780000Y-32252000D03*
%TD*%
D36*
%TO.C,mosfet5*%
X179712000Y-107548000D03*
X177172000Y-107548000D03*
D37*
X174632000Y-107548000D03*
%TD*%
D28*
%TO.C,mosfet3*%
X196770001Y-124674999D03*
X189669999Y-124674999D03*
D29*
X194220001Y-119195000D03*
X192219999Y-119195000D03*
%TD*%
D41*
%TO.C,En1*%
X117856000Y-23833000D03*
X117856000Y-27983000D03*
%TD*%
D33*
%TO.C,J3*%
X106680000Y-66708000D03*
X106680000Y-71708000D03*
X106680000Y-76708000D03*
X106680000Y-81708000D03*
X106680000Y-86708000D03*
X106680000Y-91708000D03*
X106680000Y-96708000D03*
X106680000Y-101708000D03*
X106680000Y-106708000D03*
X106680000Y-111708000D03*
D42*
X106680000Y-116708000D03*
%TD*%
D43*
%TO.C,3v3out1*%
X161625000Y-35605000D03*
X161625000Y-32005000D03*
%TD*%
D31*
%TO.C,smooth_cap2*%
X131500000Y-62500000D03*
X131500000Y-64575000D03*
%TD*%
D41*
%TO.C,Boot1*%
X123952000Y-23833000D03*
X123952000Y-27983000D03*
%TD*%
D36*
%TO.C,mosfet6*%
X187212000Y-107548000D03*
X184672000Y-107548000D03*
D37*
X182132000Y-107548000D03*
%TD*%
D28*
%TO.C,mosfet1*%
X170222001Y-124866999D03*
X163121999Y-124866999D03*
D29*
X167672001Y-119387000D03*
X165671999Y-119387000D03*
%TD*%
D31*
%TO.C,vd_c1*%
X144272000Y-101600000D03*
X144272000Y-103675000D03*
%TD*%
D22*
%TO.C,Motor1*%
X197530999Y-79450001D03*
X197530999Y-90549999D03*
D23*
X192051000Y-82000001D03*
X192051000Y-83999999D03*
X192051000Y-86000001D03*
X192051000Y-87999999D03*
%TD*%
D25*
%TO.C,vd_r1*%
X154432000Y-104648000D03*
D44*
X146812000Y-104648000D03*
%TD*%
D39*
%TO.C,D2*%
X180784000Y-115316000D03*
X176784000Y-115316000D03*
%TD*%
D33*
%TO.C,power3*%
X138176000Y-122936000D03*
D45*
X133176000Y-122936000D03*
%TD*%
D39*
%TO.C,D1*%
X169608000Y-114808000D03*
X165608000Y-114808000D03*
%TD*%
D22*
%TO.C,IO2*%
X105237001Y-41650001D03*
X105237001Y-34549999D03*
D23*
X110717000Y-39100001D03*
X110717000Y-37099999D03*
%TD*%
D27*
%TO.C,R1*%
X131000000Y-33500000D03*
X131000000Y-31500000D03*
%TD*%
M02*
