%TF.GenerationSoftware,KiCad,Pcbnew,9.0.1*%
%TF.CreationDate,2026-04-07T10:48:36-07:00*%
%TF.ProjectId,V67_cycletron,5636375f-6379-4636-9c65-74726f6e2e6b,rev?*%
%TF.SameCoordinates,Original*%
%TF.FileFunction,Soldermask,Top*%
%TF.FilePolarity,Negative*%
%FSLAX46Y46*%
G04 Gerber Fmt 4.6, Leading zero omitted, Abs format (unit mm)*
G04 Created by KiCad (PCBNEW 9.0.1) date 2026-04-07 10:48:36*
%MOMM*%
%LPD*%
G01*
G04 APERTURE LIST*
G04 Aperture macros list*
%AMRoundRect*
0 Rectangle with rounded corners*
0 $1 Rounding radius*
0 $2 $3 $4 $5 $6 $7 $8 $9 X,Y pos of 4 corners*
0 Add a 4 corners polygon primitive as box body*
4,1,4,$2,$3,$4,$5,$6,$7,$8,$9,$2,$3,0*
0 Add four circle primitives for the rounded corners*
1,1,$1+$1,$2,$3*
1,1,$1+$1,$4,$5*
1,1,$1+$1,$6,$7*
1,1,$1+$1,$8,$9*
0 Add four rect primitives between the rounded corners*
20,1,$1+$1,$2,$3,$4,$5,0*
20,1,$1+$1,$4,$5,$6,$7,0*
20,1,$1+$1,$6,$7,$8,$9,0*
20,1,$1+$1,$8,$9,$2,$3,0*%
G04 Aperture macros list end*
%ADD10RoundRect,0.250000X0.450000X-0.350000X0.450000X0.350000X-0.450000X0.350000X-0.450000X-0.350000X0*%
%ADD11R,1.600000X1.600000*%
%ADD12O,1.600000X1.600000*%
%ADD13R,3.251200X1.244600*%
%ADD14R,5.359400X1.752600*%
%ADD15RoundRect,0.250000X-0.450000X0.350000X-0.450000X-0.350000X0.450000X-0.350000X0.450000X0.350000X0*%
%ADD16RoundRect,0.250001X1.149999X1.149999X-1.149999X1.149999X-1.149999X-1.149999X1.149999X-1.149999X0*%
%ADD17C,2.800000*%
%ADD18RoundRect,0.250000X-0.350000X-0.450000X0.350000X-0.450000X0.350000X0.450000X-0.350000X0.450000X0*%
%ADD19RoundRect,0.250000X0.475000X-0.337500X0.475000X0.337500X-0.475000X0.337500X-0.475000X-0.337500X0*%
%ADD20RoundRect,0.250000X-0.550000X1.500000X-0.550000X-1.500000X0.550000X-1.500000X0.550000X1.500000X0*%
%ADD21R,1.244600X3.251200*%
%ADD22R,1.752600X5.359400*%
%ADD23RoundRect,0.250000X0.850000X0.350000X-0.850000X0.350000X-0.850000X-0.350000X0.850000X-0.350000X0*%
%ADD24RoundRect,0.249997X2.950003X2.650003X-2.950003X2.650003X-2.950003X-2.650003X2.950003X-2.650003X0*%
%ADD25R,1.500000X0.900000*%
%ADD26R,0.900000X1.500000*%
%ADD27C,0.600000*%
%ADD28R,3.900000X3.900000*%
%ADD29RoundRect,0.250000X1.500000X0.550000X-1.500000X0.550000X-1.500000X-0.550000X1.500000X-0.550000X0*%
%ADD30R,0.600000X1.450000*%
%ADD31R,0.300000X1.450000*%
%ADD32O,1.000000X2.100000*%
%ADD33O,1.000000X1.600000*%
%ADD34R,1.500000X1.500000*%
%ADD35C,1.500000*%
%ADD36RoundRect,0.250001X1.149999X-1.149999X1.149999X1.149999X-1.149999X1.149999X-1.149999X-1.149999X0*%
%ADD37RoundRect,0.250000X0.337500X0.475000X-0.337500X0.475000X-0.337500X-0.475000X0.337500X-0.475000X0*%
%ADD38RoundRect,0.250000X-0.350000X0.850000X-0.350000X-0.850000X0.350000X-0.850000X0.350000X0.850000X0*%
%ADD39RoundRect,0.249997X-2.650003X2.950003X-2.650003X-2.950003X2.650003X-2.950003X2.650003X2.950003X0*%
%ADD40RoundRect,0.250000X1.050000X0.550000X-1.050000X0.550000X-1.050000X-0.550000X1.050000X-0.550000X0*%
%ADD41RoundRect,0.102000X0.900000X-0.675000X0.900000X0.675000X-0.900000X0.675000X-0.900000X-0.675000X0*%
%ADD42RoundRect,0.250000X-0.550000X1.050000X-0.550000X-1.050000X0.550000X-1.050000X0.550000X1.050000X0*%
%ADD43RoundRect,0.250000X-1.000000X-0.650000X1.000000X-0.650000X1.000000X0.650000X-1.000000X0.650000X0*%
G04 APERTURE END LIST*
D10*
%TO.C,R_En1*%
X113000000Y-35500000D03*
X113000000Y-33500000D03*
%TD*%
D11*
%TO.C,Motor_2*%
X176610000Y-59340000D03*
D12*
X179150000Y-59340000D03*
X181690000Y-59340000D03*
X184230000Y-59340000D03*
X186770000Y-59340000D03*
X189310000Y-59340000D03*
X191850000Y-59340000D03*
X194390000Y-59340000D03*
X194390000Y-46640000D03*
X191850000Y-46640000D03*
X189310000Y-46640000D03*
X186770000Y-46640000D03*
X184230000Y-46640000D03*
X181690000Y-46640000D03*
X179150000Y-46640000D03*
X176610000Y-46640000D03*
%TD*%
D13*
%TO.C,Motor2*%
X191770800Y-72499999D03*
X191770800Y-70500001D03*
X191770800Y-68499999D03*
X191770800Y-66500001D03*
D14*
X197250799Y-75049999D03*
X197250799Y-63950001D03*
%TD*%
D15*
%TO.C,R2*%
X138500000Y-33000000D03*
X138500000Y-35000000D03*
%TD*%
D16*
%TO.C,input1*%
X190500000Y-25500000D03*
D17*
X185500000Y-25500000D03*
%TD*%
D18*
%TO.C,tr3*%
X169500000Y-98500000D03*
X171500000Y-98500000D03*
%TD*%
%TO.C,tr2*%
X177000000Y-98500000D03*
X179000000Y-98500000D03*
%TD*%
D19*
%TO.C,smooth_cap1*%
X128500000Y-64592500D03*
X128500000Y-62517500D03*
%TD*%
D20*
%TO.C,motorc1*%
X184912000Y-75940000D03*
X184912000Y-81540000D03*
%TD*%
D21*
%TO.C,mosfet2*%
X179499999Y-111380000D03*
X181500001Y-111380000D03*
D22*
X176949999Y-116859999D03*
X184050001Y-116859999D03*
%TD*%
D21*
%TO.C,vd1*%
X144500001Y-111971000D03*
X146499999Y-111971000D03*
X148500001Y-111971000D03*
X150499999Y-111971000D03*
D22*
X141950001Y-117450999D03*
X153049999Y-117450999D03*
%TD*%
D23*
%TO.C,U1*%
X174540000Y-35780000D03*
X174540000Y-33500000D03*
D24*
X168240000Y-33500000D03*
D23*
X174540000Y-31220000D03*
%TD*%
D25*
%TO.C,U3*%
X134350000Y-62880000D03*
X134350000Y-64150000D03*
X134350000Y-65420000D03*
X134350000Y-66690000D03*
X134350000Y-67960000D03*
X134350000Y-69230000D03*
X134350000Y-70500000D03*
X134350000Y-71770000D03*
X134350000Y-73040000D03*
X134350000Y-74310000D03*
X134350000Y-75580000D03*
X134350000Y-76850000D03*
X134350000Y-78120000D03*
X134350000Y-79390000D03*
D26*
X136115000Y-80640000D03*
X137385000Y-80640000D03*
X138655000Y-80640000D03*
X139925000Y-80640000D03*
X141195000Y-80640000D03*
X142465000Y-80640000D03*
X143735000Y-80640000D03*
X145005000Y-80640000D03*
X146275000Y-80640000D03*
X147545000Y-80640000D03*
X148815000Y-80640000D03*
X150085000Y-80640000D03*
D25*
X151850000Y-79390000D03*
X151850000Y-78120000D03*
X151850000Y-76850000D03*
X151850000Y-75580000D03*
X151850000Y-74310000D03*
X151850000Y-73040000D03*
X151850000Y-71770000D03*
X151850000Y-70500000D03*
X151850000Y-69230000D03*
X151850000Y-67960000D03*
X151850000Y-66690000D03*
X151850000Y-65420000D03*
X151850000Y-64150000D03*
X151850000Y-62880000D03*
D27*
X140200000Y-69900000D03*
X140200000Y-71300000D03*
X140900000Y-69200000D03*
X140900000Y-70600000D03*
X140900000Y-72000000D03*
X141600000Y-69900000D03*
D28*
X141600000Y-70600000D03*
D27*
X141600000Y-71300000D03*
X142300000Y-69200000D03*
X142300000Y-70600000D03*
X142300000Y-72000000D03*
X143000000Y-69900000D03*
X143000000Y-71300000D03*
%TD*%
D29*
%TO.C,motorc2*%
X199644000Y-38608000D03*
X194044000Y-38608000D03*
%TD*%
D30*
%TO.C,J1*%
X137250000Y-28545000D03*
X136450000Y-28545000D03*
D31*
X135250000Y-28545000D03*
X134250000Y-28545000D03*
X133750000Y-28545000D03*
X132750000Y-28545000D03*
D30*
X131550000Y-28545000D03*
X130750000Y-28545000D03*
X130750000Y-28545000D03*
X131550000Y-28545000D03*
D31*
X132250000Y-28545000D03*
X133250000Y-28545000D03*
X134750000Y-28545000D03*
X135750000Y-28545000D03*
D30*
X136450000Y-28545000D03*
X137250000Y-28545000D03*
D32*
X138320000Y-27630000D03*
D33*
X138320000Y-23450000D03*
D32*
X129680000Y-27630000D03*
D33*
X129680000Y-23450000D03*
%TD*%
D15*
%TO.C,R_boot1*%
X120500000Y-33500000D03*
X120500000Y-35500000D03*
%TD*%
D34*
%TO.C,mosfet4*%
X167460000Y-104860000D03*
D35*
X170000000Y-104860000D03*
X172540000Y-104860000D03*
%TD*%
D18*
%TO.C,tr1*%
X184500000Y-98500000D03*
X186500000Y-98500000D03*
%TD*%
D11*
%TO.C,Motor_1*%
X159258000Y-86340000D03*
D12*
X161798000Y-86340000D03*
X164338000Y-86340000D03*
X166878000Y-86340000D03*
X169418000Y-86340000D03*
X171958000Y-86340000D03*
X174498000Y-86340000D03*
X177038000Y-86340000D03*
X177038000Y-73640000D03*
X174498000Y-73640000D03*
X171958000Y-73640000D03*
X169418000Y-73640000D03*
X166878000Y-73640000D03*
X164338000Y-73640000D03*
X161798000Y-73640000D03*
X159258000Y-73640000D03*
%TD*%
D36*
%TO.C,IO1*%
X109220000Y-111868000D03*
D17*
X109220000Y-106868000D03*
X109220000Y-101868000D03*
X109220000Y-96868000D03*
X109220000Y-91868000D03*
X109220000Y-86868000D03*
X109220000Y-81868000D03*
X109220000Y-76868000D03*
X109220000Y-71868000D03*
X109220000Y-66868000D03*
X109220000Y-61868000D03*
X109220000Y-56868000D03*
X109220000Y-51868000D03*
X109220000Y-46868000D03*
%TD*%
D37*
%TO.C,vd_c2*%
X145575000Y-99500000D03*
X143500000Y-99500000D03*
%TD*%
D19*
%TO.C,C2*%
X122500000Y-64657685D03*
X122500000Y-62582685D03*
%TD*%
D38*
%TO.C,U2*%
X156280000Y-27200000D03*
X154000000Y-27200000D03*
D39*
X154000000Y-33500000D03*
D38*
X151720000Y-27200000D03*
%TD*%
D40*
%TO.C,5Vout1*%
X168700000Y-26000000D03*
X165100000Y-26000000D03*
%TD*%
D16*
%TO.C,power1*%
X132068100Y-115353700D03*
D17*
X127068100Y-115353700D03*
%TD*%
D19*
%TO.C,C1*%
X125500000Y-64650000D03*
X125500000Y-62575000D03*
%TD*%
D29*
%TO.C,5Vin1*%
X178800000Y-25500000D03*
X173200000Y-25500000D03*
%TD*%
D20*
%TO.C,3v3in1*%
X145796000Y-30976000D03*
X145796000Y-36576000D03*
%TD*%
D34*
%TO.C,mosfet5*%
X174960000Y-104860000D03*
D35*
X177500000Y-104860000D03*
X180040000Y-104860000D03*
%TD*%
D21*
%TO.C,mosfet3*%
X192547999Y-111279000D03*
X194548001Y-111279000D03*
D22*
X189997999Y-116758999D03*
X197098001Y-116758999D03*
%TD*%
D41*
%TO.C,En1*%
X113000000Y-30500000D03*
X113000000Y-26350000D03*
%TD*%
D42*
%TO.C,3v3out1*%
X161625000Y-32005000D03*
X161625000Y-35605000D03*
%TD*%
D19*
%TO.C,smooth_cap2*%
X131500000Y-64575000D03*
X131500000Y-62500000D03*
%TD*%
D41*
%TO.C,Boot1*%
X120500000Y-30500000D03*
X120500000Y-26350000D03*
%TD*%
D34*
%TO.C,mosfet6*%
X182460000Y-104860000D03*
D35*
X185000000Y-104860000D03*
X187540000Y-104860000D03*
%TD*%
D21*
%TO.C,mosfet1*%
X165999999Y-111471000D03*
X168000001Y-111471000D03*
D22*
X163449999Y-116950999D03*
X170550001Y-116950999D03*
%TD*%
D19*
%TO.C,vd_c1*%
X139500000Y-101575000D03*
X139500000Y-99500000D03*
%TD*%
D13*
%TO.C,Motor1*%
X192051000Y-87999999D03*
X192051000Y-86000001D03*
X192051000Y-83999999D03*
X192051000Y-82000001D03*
D14*
X197530999Y-90549999D03*
X197530999Y-79450001D03*
%TD*%
D18*
%TO.C,vd_r1*%
X143500000Y-104000000D03*
X145500000Y-104000000D03*
%TD*%
D43*
%TO.C,D1*%
X186500000Y-33500000D03*
X190500000Y-33500000D03*
%TD*%
D15*
%TO.C,R1*%
X131000000Y-31500000D03*
X131000000Y-33500000D03*
%TD*%
M02*
